<?xml version="1.0" encoding="UTF-8" standalone="no"?>
<!DOCTYPE svg PUBLIC "-//W3C//DTD SVG 20010904//EN"
"http://www.w3.org/TR/2001/REC-SVG-20010904/DTD/svg10.dtd">
<!-- Created with Sodipodi ("http://www.sodipodi.com/") -->
<svg
   id="svg722"
   sodipodi:version="0.32"
   width="210mm"
   height="140mm"
   sodipodi:docbase="/home/cschalle/sodipodi-flags/flags_from_yemu/"
   sodipodi:docname="/home/cschalle/sodipodi-flags/flags_from_yemu/netherlands_antilles.svg"
   xmlns="http://www.w3.org/2000/svg"
   xmlns:sodipodi="http://sodipodi.sourceforge.net/DTD/sodipodi-0.dtd"
   xmlns:xlink="http://www.w3.org/1999/xlink">
  <defs
     id="defs724" />
  <sodipodi:namedview
     id="base"
     showgrid="true"
     snaptogrid="true"
     showborder="true"
     borderlayer="top" />
  <rect
     style="font-size:12;fill:#ffffff;fill-rule:evenodd;stroke-width:1pt;fill-opacity:1;"
     id="rect740"
     width="744.094482"
     height="496.062988"
     x="0.000000"
     y="-0.000008" />
  <rect
     style="font-size:12;fill:#df0000;fill-rule:evenodd;stroke-width:1pt;fill-opacity:1;"
     id="rect726"
     width="177.165344"
     height="496.062988"
     x="283.464569"
     y="-0.00001526" />
  <rect
     style="font-size:12;fill:#00319c;fill-rule:evenodd;stroke-width:1pt;fill-opacity:1;"
     id="rect727"
     width="744.094482"
     height="177.165375"
     x="0.000000"
     y="159.448776" />
  <path
     style="font-size:12;fill:#ffffff;fill-rule:evenodd;stroke:none;stroke-width:1pt;fill-opacity:1;"
     d="M 263.459 263.142 L 245.046 249.545 L 226.73 262.655 L 233.999 241.889 L 215.59 228.336 L 237.709 228.181 L 245.461 207.747 L 252.501 228.319 L 274.85 228.1 L 257.129 241.902 L 263.459 263.142 z "
     id="path663"
     sodipodi:nodetypes="ccccccccccc" />
  <path
     style="font-size:12;fill:#ffffff;fill-rule:evenodd;stroke:none;stroke-width:1pt;fill-opacity:1;"
     d="M 332.583 312.995 L 314.17 299.398 L 295.854 312.508 L 303.123 291.742 L 284.714 278.189 L 306.833 278.034 L 314.585 257.6 L 321.625 278.172 L 343.974 277.953 L 326.253 291.755 L 332.583 312.995 z "
     id="path736"
     sodipodi:nodetypes="ccccccccccc" />
  <path
     style="font-size:12;fill:#ffffff;fill-rule:evenodd;stroke:none;stroke-width:1pt;fill-opacity:1;"
     d="M 387.463 225.857 L 369.05 212.26 L 350.734 225.37 L 358.003 204.604 L 339.594 191.051 L 361.713 190.896 L 369.465 170.462 L 376.505 191.034 L 398.854 190.815 L 381.133 204.617 L 387.463 225.857 z "
     id="path737"
     sodipodi:nodetypes="ccccccccccc"
     transform="translate(2.823219,-1.525879e-5)" />
  <path
     style="font-size:12;fill:#ffffff;fill-rule:evenodd;stroke:none;stroke-width:1pt;fill-opacity:1;"
     d="M 445.276 312.995 L 426.863 299.398 L 408.547 312.508 L 415.816 291.742 L 397.407 278.189 L 419.526 278.034 L 427.278 257.6 L 434.318 278.172 L 456.667 277.953 L 438.946 291.755 L 445.276 312.995 z "
     id="path738"
     sodipodi:nodetypes="ccccccccccc" />
  <path
     style="font-size:12;fill:#ffffff;fill-rule:evenodd;stroke:none;stroke-width:1pt;fill-opacity:1;"
     d="M 516.495 263.142 L 498.082 249.545 L 479.766 262.655 L 487.035 241.889 L 468.626 228.336 L 490.745 228.181 L 498.497 207.747 L 505.537 228.319 L 527.886 228.1 L 510.165 241.902 L 516.495 263.142 z "
     id="path739"
     sodipodi:nodetypes="ccccccccccc" />
</svg>
