<?xml version="1.0" encoding="UTF-8" standalone="no"?>
<!DOCTYPE svg PUBLIC "-//W3C//DTD SVG 20010904//EN"
"http://www.w3.org/TR/2001/REC-SVG-20010904/DTD/svg10.dtd">
<!-- Created with Sodipodi ("http://www.sodipodi.com/") -->
<svg
   version="1"
   x="0"
   y="0"
   width="299.999mm"
   height="210mm"
   id="svg378"
   sodipodi:version="0.32-hydra1"
   sodipodi:docname="/home/yemu/clipart/flags/southafrica.svg"
   sodipodi:docbase="/home/yemu/clipart/flags/"
   xmlns="http://www.w3.org/2000/svg"
   xmlns:sodipodi="http://sodipodi.sourceforge.net/DTD/sodipodi-0.dtd"
   xmlns:xlink="http://www.w3.org/1999/xlink">
  <sodipodi:namedview
     id="base" />
  <defs
     id="defs380" />
  <path
     style="font-size:12;fill-rule:evenodd;stroke:none;stroke-width:1.4876pt;fill:#ffe900;fill-opacity:1;"
     d="M 1.18008 82.5036 C 3.54023 82.5036 424.828 365.722 424.828 365.722 L 0 653.661 L 1.18008 82.5036 z "
     id="path570"
     sodipodi:nodetypes="cccc" />
  <path
     style="fill:#36a100;fill-rule:evenodd;stroke:none;stroke-opacity:1;stroke-width:1pt;stroke-linejoin:miter;stroke-linecap:butt;fill-opacity:1;"
     d="M 174.521 1.58905 L 585.437 277.649 L 1063.78 277.649 L 1063.78 468.035 L 583.85 471.208 L 176.107 744.095 L 0.793275 744.095 L 0.793275 636.209 L 388.705 372.842 L 0.793275 109.474 L 0.793275 0.79567 L 174.521 1.58905 z "
     id="path567"
     sodipodi:nodetypes="cccccccccccc" />
  <path
     style="fill:#e70000;fill-rule:evenodd;stroke:none;stroke-opacity:1;stroke-width:1pt;stroke-linejoin:miter;stroke-linecap:butt;fill-opacity:1;"
     d="M 276.059 0.795746 L 583.001 209.892 L 1063.78 213.394 L 1062.99 0.795746 L 276.059 0.795746 z "
     id="path568"
     sodipodi:nodetypes="ccccc" />
  <path
     style="font-size:12;fill:#0000b4;fill-rule:evenodd;stroke:none;stroke-width:1pt;fill-opacity:1;"
     d="M 274.28 744.096 L 583.001 536.257 L 1062.99 533.084 L 1061.4 747.269 L 274.28 744.096 z "
     id="path569"
     sodipodi:nodetypes="ccccc" />
  <path
     style="fill:#000000;fill-rule:evenodd;stroke:none;stroke-opacity:1;stroke-width:1pt;stroke-linejoin:miter;stroke-linecap:butt;fill-opacity:1;"
     d="M 0.793275 179.283 C 2.37982 179.283 285.579 369.669 285.579 369.669 L 0 563.228 L 0.793275 179.283 z "
     id="path571"
     sodipodi:nodetypes="cccc" />
</svg>
