<?xml version="1.0" encoding="UTF-8" standalone="no"?>
<!DOCTYPE svg PUBLIC "-//W3C//DTD SVG 20010904//EN"
"http://www.w3.org/TR/2001/REC-SVG-20010904/DTD/svg10.dtd">
<!-- Created with Sodipodi ("http://www.sodipodi.com/") -->

<!--
    The Libertarian Star - a SVG image. 
    Copyright (C) Komrade Luxfer 2003
    mailto://luxfer@catlover.com
    http://komradeluxfer.gatonegro.cjb.net

    [ For the purposes of this notice, 
 "Program" means the present scalable vector
 graphics image, or any other encoding, 
 vector or raster, that may be made of it. ]

    This program is free software; you can
 redistribute it and/or modify it under the
 terms of the GNU General Public License as
 published by the Free Software Foundation;
 either version 2 of the License, or (at your
 option) any later version.

    This program is distributed in the hope
 that it will be useful, but WITHOUT ANY
 WARRANTY; without even the implied warranty of
 MERCHANTABILITY or FITNESS FOR A PARTICULAR
 PURPOSE. See the GNU General Public License
 for more details.

    You should have received a copy of the GNU
 General Public License along with this
 program; if not, write to the Free Software
 Foundation, Inc., 59 Temple Place, Suite 330,
 Boston, MA 02111-1307 USA
-->

<svg
   id="svg1"
   sodipodi:version="0.30.1"
   width="210mm"
   height="297mm"
   sodipodi:docbase="/home/gatonegro/Debuxos/vector/patterns/"
   sodipodi:docname="/home/gatonegro/Debuxos/vector/patterns/anarstar.svg"
   xmlns="http://www.w3.org/2000/svg"
   xmlns:sodipodi="http://sodipodi.sourceforge.net/DTD/sodipodi-0.dtd"
   xmlns:xlink="http://www.w3.org/1999/xlink">
  <defs
     id="defs3">
    <linearGradient
       id="linearGradient128">
      <stop
         style="stop-color:#000000;stop-opacity:0.196078;"
         offset="0.000000"
         id="stop129" />
      <stop
         style="stop-color:#ffffff;stop-opacity:0.301961;"
         offset="1.000000"
         id="stop130" />
    </linearGradient>
    <linearGradient
       xlink:href="#linearGradient128"
       id="linearGradient131" />
    <linearGradient
       xlink:href="#linearGradient128"
       id="linearGradient132"
       x1="0.457363"
       y1="0.492189"
       x2="0.604651"
       y2="0.492188"
       gradientUnits="objectBoundingBox"
       spreadMethod="reflect" />
  </defs>
  <sodipodi:namedview
     id="base" />
  <g
     id="g133"
     transform="translate(-171.009,-309.132)">
    <rect
       style="font-size:12;fill:#000000;fill-rule:evenodd;stroke-width:1pt;fill-opacity:1;"
       id="rect124"
       width="342.017985"
       height="342.017985"
       x="171.008829"
       y="309.131550"
       transform="translate(0.526199,2.68794)" />
    <path
       style="font-size:12;fill:#ce0000;fill-rule:evenodd;stroke-width:1pt;fill-opacity:1;stroke:none;stroke-opacity:1;"
       d="M 171.009 309.132 L 513.027 651.15 L 513.027 309.132 L 171.009 309.132 z "
       id="path126"
       sodipodi:nodetypes="cccc"
       transform="translate(0.526009,2.68748)" />
    <polygon
       sodipodi:type="star"
       style="font-size:12;fill:#ffffff;fill-opacity:0.8;fill-rule:evenodd;stroke:#ffffff;stroke-width:18.75;stroke-linecap:round;stroke-linejoin:round;stroke-opacity:0.5;"
       id="polygon127"
       sodipodi:sides="5"
       sodipodi:cx="338.729126"
       sodipodi:cy="483.428802"
       sodipodi:r1="163.462784"
       sodipodi:r2="82.560387"
       sodipodi:arg1="0.791291"
       sodipodi:arg2="1.419609"
       points="453.632,599.694 351.164,565.047 263.662,628.635 264.948,520.476 177.432,456.907 280.695,424.707 314.11,321.831 376.644,410.089 484.81,410.078 420.196,496.824 453.632,599.694 "
       transform="matrix(0.882091,0,0,0.882091,50.4648,63.6296)" />
    <path
       style="fill:url(#linearGradient132);fill-rule:evenodd;stroke:none;stroke-opacity:1;stroke-width:1pt;stroke-linejoin:miter;stroke-linecap:butt;fill-opacity:1;"
       d="M 173.851 311.822 C 173.851 311.822 512.395 314.148 512.395 314.148 C 512.395 314.148 173.851 318.802 173.851 318.802 C 173.851 318.802 511.239 318.802 511.239 318.802 C 511.239 318.802 172.696 318.802 172.696 318.802 C 172.696 318.802 511.239 322.292 511.239 322.292 C 511.239 322.292 172.696 322.292 172.696 322.292 C 172.696 322.292 512.395 326.945 512.395 326.945 C 512.395 326.945 173.851 324.618 173.851 324.618 C 173.851 324.618 511.239 330.435 511.239 330.435 C 511.239 330.435 173.851 330.435 173.851 330.435 C 173.851 330.435 511.239 333.925 511.239 333.925 C 511.239 333.925 173.851 332.761 173.851 332.761 C 173.851 332.761 512.395 335.088 512.395 335.088 C 512.395 335.088 171.541 338.578 171.541 338.578 C 171.541 338.578 508.929 338.578 508.929 338.578 C 508.929 338.578 172.696 343.231 172.696 343.231 C 172.696 343.231 510.084 343.231 510.084 343.231 C 510.084 343.231 175.007 347.884 175.007 347.884 C 175.007 347.884 511.239 349.047 511.239 349.047 C 511.239 349.047 172.696 353.701 172.696 353.701 C 172.696 353.701 512.395 356.028 512.395 356.028 C 512.395 356.028 172.696 360.681 172.696 360.681 C 172.696 360.681 511.239 361.844 511.239 361.844 C 511.239 361.844 172.696 366.498 172.696 366.498 C 172.696 366.498 511.239 366.498 510.084 366.498 C 508.929 366.498 171.541 373.477 172.696 373.477 C 173.851 373.477 511.239 371.151 511.239 371.151 C 511.239 371.151 173.851 379.295 173.851 379.295 C 173.851 379.295 512.395 376.967 512.395 376.967 C 512.395 376.967 172.696 385.111 172.696 385.111 C 172.696 385.111 510.084 381.621 510.084 381.621 C 510.084 381.621 172.696 390.927 172.696 390.927 C 172.696 390.927 512.395 386.274 512.395 386.274 C 512.395 386.274 171.541 395.58 171.541 395.58 C 171.541 395.58 513.55 387.438 512.395 387.438 C 511.239 387.438 171.541 400.233 171.541 400.233 C 171.541 400.233 513.55 392.09 513.55 392.09 C 513.55 392.09 172.696 406.05 172.696 406.05 C 172.696 406.05 510.084 395.58 510.084 395.58 C 510.084 395.58 172.696 410.703 172.696 410.703 C 172.696 410.703 511.239 400.233 511.239 400.233 C 511.239 400.233 172.696 415.355 172.696 415.355 C 172.696 415.355 512.395 406.05 512.395 406.05 C 512.395 406.05 172.696 421.173 172.696 421.173 C 172.696 421.173 510.084 410.703 510.084 410.703 C 510.084 410.703 175.007 426.99 175.007 426.99 C 175.007 426.99 508.929 417.684 508.929 417.684 C 508.929 417.684 172.696 432.806 172.696 432.806 C 172.696 432.806 508.929 423.499 508.929 423.499 C 508.929 423.499 172.696 437.459 172.696 437.459 C 172.696 437.459 507.773 430.48 507.773 430.48 C 507.773 430.48 172.696 443.275 172.696 443.275 C 172.696 443.275 508.929 437.459 508.929 437.459 C 508.929 437.459 175.007 449.093 175.007 449.093 C 175.007 449.093 507.773 443.275 507.773 443.275 C 507.773 443.275 173.851 454.91 173.851 454.91 C 173.851 454.91 507.773 450.256 507.773 450.256 C 507.773 450.256 175.007 459.562 175.007 459.562 C 175.007 459.562 510.084 453.746 510.084 453.746 C 510.084 453.746 175.007 464.215 175.007 464.215 C 175.007 464.215 510.084 456.072 510.084 456.072 C 510.084 456.072 172.696 467.705 172.696 467.705 C 172.696 467.705 510.084 460.725 510.084 460.725 C 510.084 460.725 172.696 471.195 172.696 471.195 C 172.696 471.195 510.084 465.379 510.084 465.379 C 510.084 465.379 172.696 477.011 172.696 477.011 C 172.696 477.011 508.929 470.032 508.929 470.032 C 508.929 470.032 173.851 481.666 173.851 481.666 C 173.851 481.666 508.929 475.848 508.929 475.848 C 508.929 475.848 172.696 483.992 172.696 483.992 C 172.696 483.992 508.929 480.502 507.773 480.502 C 506.618 480.502 173.851 488.645 173.851 488.645 C 173.851 488.645 507.773 486.319 507.773 486.319 C 507.773 486.319 175.007 494.462 175.007 494.462 C 175.007 494.462 508.929 490.971 508.929 490.971 C 508.929 490.971 172.696 500.278 172.696 500.278 C 172.696 500.278 510.084 496.788 510.084 496.788 C 510.084 496.788 171.541 506.095 171.541 506.095 C 171.541 506.095 508.929 500.278 508.929 500.278 C 508.929 500.278 172.696 511.91 172.696 511.91 C 172.696 511.91 507.773 501.441 507.773 501.441 C 507.773 501.441 173.851 517.728 173.851 517.728 C 173.851 517.728 506.618 508.421 506.618 508.421 C 506.618 508.421 175.007 522.381 175.007 522.381 C 175.007 522.381 507.773 514.238 507.773 514.238 C 507.773 514.238 172.696 527.034 172.696 527.034 C 172.696 527.034 508.929 520.054 508.929 520.054 C 508.929 520.054 175.007 532.851 175.007 532.851 C 175.007 532.851 508.929 525.871 508.929 525.871 C 508.929 525.871 172.696 539.83 172.696 539.83 C 172.696 539.83 508.929 531.687 508.929 531.687 C 508.929 531.687 170.385 544.484 172.696 544.484 C 175.007 544.484 507.773 537.504 507.773 537.504 C 507.773 537.504 175.007 549.137 175.007 549.137 C 175.007 549.137 506.618 542.158 506.618 542.158 C 506.618 542.158 175.007 556.117 175.007 556.117 C 175.007 556.117 507.773 546.81 507.773 546.81 C 507.773 546.81 172.696 559.607 172.696 559.607 C 172.696 559.607 506.618 552.627 506.618 552.627 C 506.618 552.627 172.696 563.096 173.851 563.096 C 175.007 563.096 507.773 556.117 507.773 556.117 C 507.773 556.117 173.851 566.586 173.851 566.586 C 173.851 566.586 508.929 560.77 508.929 560.77 C 508.929 560.77 175.007 570.077 175.007 570.077 C 175.007 570.077 506.618 565.423 506.618 565.423 C 506.618 565.423 173.851 574.729 173.851 574.729 C 173.851 574.729 505.463 571.239 505.463 571.239 C 505.463 571.239 175.007 579.383 175.007 579.383 C 175.007 579.383 506.618 574.729 506.618 574.729 C 506.618 574.729 175.007 584.036 175.007 584.036 C 175.007 584.036 510.084 578.22 510.084 578.22 C 510.084 578.22 173.851 589.853 173.851 589.853 C 173.851 589.853 508.929 581.71 508.929 581.71 C 508.929 581.71 171.541 593.343 171.541 593.343 C 171.541 593.343 508.929 586.363 508.929 586.363 C 508.929 586.363 173.851 594.506 173.851 594.506 C 173.851 594.506 507.773 591.016 507.773 591.016 C 507.773 591.016 175.007 600.322 175.007 600.322 C 175.007 600.322 506.618 596.833 506.618 596.833 C 506.618 596.833 173.851 604.976 173.851 604.976 C 173.851 604.976 506.618 601.486 506.618 601.486 C 506.618 601.486 173.851 609.63 173.851 609.63 C 173.851 609.63 512.395 607.302 512.395 607.302 C 512.395 607.302 171.541 614.282 171.541 614.282 C 171.541 614.282 511.239 611.956 511.239 611.956 C 511.239 611.956 172.696 618.935 172.696 618.935 C 172.696 618.935 511.239 616.609 511.239 616.609 C 511.239 616.609 172.696 624.752 172.696 624.752 C 172.696 624.752 510.084 621.263 510.084 621.263 C 510.084 621.263 172.696 629.406 172.696 629.406 C 172.696 629.406 510.084 624.752 510.084 624.752 C 510.084 624.752 172.696 634.058 172.696 634.058 C 172.696 634.058 510.084 629.406 510.084 629.406 C 510.084 629.406 173.851 638.711 173.851 638.711 C 173.851 638.711 510.084 634.058 510.084 634.058 C 510.084 634.058 172.696 642.202 172.696 642.202 C 172.696 642.202 511.239 638.711 511.239 638.711 C 511.239 638.711 172.696 646.855 172.696 646.855 C 172.696 646.855 510.084 643.365 510.084 643.365 C 510.084 643.365 173.851 652.672 173.851 652.672 C 173.851 652.672 511.239 648.019 511.239 648.019 C 511.239 648.019 170.385 650.345 171.541 650.345 C 172.696 650.345 511.239 653.835 511.239 653.835 C 511.239 653.835 171.541 649.182 171.541 649.182 "
       id="path132" />
  </g>
</svg>
