<?xml version="1.0" encoding="UTF-8" standalone="no"?>
<!DOCTYPE svg PUBLIC "-//W3C//DTD SVG 20010904//EN"
"http://www.w3.org/TR/2001/REC-SVG-20010904/DTD/svg10.dtd">
<!-- Created with Sodipodi ("http://www.sodipodi.com/") -->
<!--
    Comic self-portrait 2.1 - a SVG image. 
    Copyright (C) Komrade Luxfer 2003
    mailto://luxfer@catlover.com
    http://komradeluxfer.gatonegro.cjb.net

    [ For the purposes of this notice, 
 "Program" means the present scalable vector
 graphics image, or any other encoding, 
 vector or raster, that may be made of it. ]

    This program is free software; you can
 redistribute it and/or modify it under the
 terms of the GNU General Public License as
 published by the Free Software Foundation;
 either version 2 of the License, or (at your
 option) any later version.

    This program is distributed in the hope
 that it will be useful, but WITHOUT ANY
 WARRANTY; without even the implied warranty of
 MERCHANTABILITY or FITNESS FOR A PARTICULAR
 PURPOSE. See the GNU General Public License
 for more details.

    You should have received a copy of the GNU
 General Public License along with this
 program; if not, write to the Free Software
 Foundation, Inc., 59 Temple Place, Suite 330,
 Boston, MA 02111-1307 USA
-->

<svg
   id="svg1"
   sodipodi:version="0.30.1"
   width="210mm"
   height="297mm"
   sodipodi:docbase="/home/gatonegro/Debuxos/vector/sodipodi/"
   sodipodi:docname="/home/gatonegro/Debuxos/vector/sodipodi/comiclux.2.1.sodipodi.svg"
   xmlns="http://www.w3.org/2000/svg"
   xmlns:sodipodi="http://sodipodi.sourceforge.net/DTD/sodipodi-0.dtd"
   xmlns:xlink="http://www.w3.org/1999/xlink">
  <defs
     id="defs3">
    <linearGradient
       id="linearGradient172">
      <stop
         style="stop-color:#000;stop-opacity:1;"
         offset="0"
         id="stop173" />
      <stop
         style="stop-color:#fff;stop-opacity:1;"
         offset="1"
         id="stop174" />
    </linearGradient>
    <linearGradient
       xlink:href="#linearGradient172"
       id="linearGradient175" />
    <defs
       id="defs154">
      <linearGradient
         id="linearGradient180">
        <stop
           style="stop-color:#ffff00;stop-opacity:1;"
           offset="0.000000"
           id="stop181" />
        <stop
           style="stop-color:#ffffff;stop-opacity:1;"
           offset="1.000000"
           id="stop182" />
      </linearGradient>
      <radialGradient
         xlink:href="#linearGradient180"
         id="radialGradient183"
         cx="0.489368"
         cy="0.507812"
         fx="0.716312"
         fy="0.28125"
         r="0.557051"
         gradientUnits="objectBoundingBox"
         spreadMethod="pad" />
      <defs
         id="defs606">
        <linearGradient
           id="linearGradient139">
          <stop
             style="stop-color:#000000;stop-opacity:1;"
             offset="0.000000"
             id="stop140" />
          <stop
             style="stop-color:#ffb232;stop-opacity:1;"
             offset="1.000000"
             id="stop141" />
        </linearGradient>
        <linearGradient
           xlink:href="#linearGradient139"
           id="linearGradient142"
           x1="0.633978"
           y1="0.539072"
           x2="0.810457"
           y2="0.976563"
           gradientUnits="objectBoundingBox"
           spreadMethod="pad" />
        <linearGradient
           xlink:href="#linearGradient139"
           id="linearGradient144"
           x1="0.385188"
           y1="0.499994"
           x2="0.748149"
           y2="0.992186"
           gradientUnits="objectBoundingBox"
           gradientTransform="scale(0.999999,1)"
           spreadMethod="pad" />
        <linearGradient
           x1="0.638201"
           y1="0.671875"
           x2="0.819096"
           y2="0.820312"
           xlink:href="#linearGradient139"
           id="linearGradient146"
           gradientUnits="objectBoundingBox"
           spreadMethod="pad" />
        <linearGradient
           x1="0.562842"
           y1="0.546875"
           x2="0.688528"
           y2="0.937504"
           xlink:href="#linearGradient139"
           id="linearGradient148"
           gradientUnits="objectBoundingBox"
           spreadMethod="pad" />
      </defs>
      <sodipodi:namedview
         id="namedview614" />
    </defs>
    <sodipodi:namedview
       id="namedview168" />
  </defs>
  <sodipodi:namedview
     id="base" />
  <rect
     style="font-size:12;fill-rule:evenodd;stroke:#000000;stroke-width:0.575485pt;"
     id="rect157"
     width="183.561558"
     height="489.885272"
     x="2.398788"
     y="-124.676921" />
  <path
     style="font-size:12;fill-rule:evenodd;stroke-width:1pt;stroke:none;stroke-opacity:0.5;fill:#000000;fill-opacity:1;"
     d="M 36.0738 99.9819 C 30.7912 75.5514 56.5429 22.7271 64.4662 19.4254 C 65.1266 23.7175 74.701 36.9233 76.3512 37.9137 C 78.6619 35.2724 92.8584 31.6413 94.1787 31.6413 C 92.1978 34.9424 91.867 40.8849 93.1892 43.1962 C 95.1701 39.5646 103.422 33.2916 104.084 33.2916 C 103.092 38.5741 115.638 49.1385 117.288 49.1385 C 126.202 46.1674 146.341 28.009 145.351 20.7463 C 148.653 26.6887 157.236 64.6557 156.905 67.6265 C 155.916 70.9288 151.624 80.8324 148.322 85.1251 C 152.945 82.8143 157.567 77.8621 158.886 75.8812 C 158.228 79.843 153.029 89.6586 152.945 94.0382 C 152.784 102.742 149.972 116.818 145.351 124.082 C 87.9062 144.221 67.1075 81.4941 36.0738 99.9819 z "
     id="path125"
     sodipodi:nodetypes="cccccccccccscc" />
  <path
     style="font-size:12;fill:none;fill-rule:evenodd;stroke:#ffffff;stroke-width:1.41973;stroke-opacity:0.795918;"
     d="M 96.7462 7.33552 C 96.7462 7.33552 86.9424 -25.814 86.9424 -25.814 C 86.9424 -25.814 63.9448 -39.8835 62.6632 -42.1551 C 55.8025 -51.9723 57.4272 -87.4365 65.9319 -95.8489 C 69.5851 -100.126 126.206 -96.9382 130.83 -95.1478 C 133.444 -94.1362 147.816 -73.4692 147.638 -71.3362 C 147.348 -67.8664 136.87 -38.946 132.697 -37.0197 C 130.801 -36.1445 108.885 -25.1139 108.885 -25.1139 C 108.885 -25.1139 97.2142 8.03575 96.7462 7.33552 z "
     id="path135"
     sodipodi:nodetypes="ccssssscc" />
  <g
     id="g136"
     transform="matrix(0.567893,0,0,0.567893,-287.979,-120.593)"
     style="font-size:12;stroke:#ffffff;stroke-opacity:0.795918;fill:none;fill-opacity:1;stroke-width:2.5;stroke-dasharray:none;">
    <path
       style="fill:none;fill-rule:evenodd;stroke:#ffffff;stroke-opacity:0.795918;stroke-width:2.5;stroke-linejoin:round;stroke-linecap:round;fill-opacity:1;stroke-dasharray:none;"
       d="M 665.109 84.4673 C 649.504 75.2775 679.614 48.373 700.427 64.527 C 712.487 73.8325 717.264 95.9099 702.076 103.611 C 658.969 124.893 671.533 145.099 688.276 139.836 "
       id="path133"
       sodipodi:nodetypes="cssc" />
    <path
       sodipodi:type="spiral"
       style="font-size:12;fill:none;fill-rule:evenodd;stroke:#ffffff;stroke-width:2.5;stroke-linecap:round;stroke-linejoin:round;stroke-dasharray:none;stroke-opacity:0.795918;fill-opacity:1;"
       id="path134"
       sodipodi:cx="677.869568"
       sodipodi:cy="165.253265"
       sodipodi:expansion="1.000000"
       sodipodi:revolution="2.000000"
       sodipodi:radius="14.073025"
       sodipodi:argument="-18.966671"
       sodipodi:t0="0.455119"
       d="M 682.845 161.22 C 685.917 163.912 685.714 168.726 683.01 171.596 C 679.56 175.258 673.643 174.941 670.161 171.501 C 665.904 167.297 666.336 160.27 670.514 156.178 C 675.469 151.324 683.611 151.872 688.312 156.79 C 690.11 158.671 691.339 161.057 691.846 163.609 "
       transform="matrix(0.56691,0,0,0.566913,294.288,70.8142)" />
  </g>
  <path
     style="font-size:12;fill:#ffffff;fill-rule:evenodd;stroke-width:1pt;"
     d="M 64.5315 20.175 C 57.7617 27.879 48.8899 46.7878 45.155 57.7606 C 47.2561 53.7917 52.8585 47.0223 54.9596 45.1542 C 53.7926 47.2552 55.1931 50.0564 55.1931 50.0564 C 56.1267 48.1884 60.0957 42.8197 61.9635 41.8861 C 60.5631 43.0532 62.1969 44.9209 62.1969 44.9209 C 62.1969 44.9209 65.6985 40.2518 67.5665 39.0846 C 66.6328 40.0183 69.2001 41.6527 69.2001 41.6527 C 69.2001 41.6527 70.6015 38.1505 71.301 37.6837 C 70.3679 38.8507 73.8694 38.8513 73.8694 38.8513 C 73.1691 38.1511 64.2981 26.0113 64.5315 20.175 z M 154.642 66.398 C 156.742 63.1302 145.536 22.5096 145.536 22.5096 C 144.37 33.015 128.728 43.9873 127.094 45.3878 C 129.546 45.6211 131.997 45.0373 132.697 44.2201 C 133.864 46.0879 133.981 48.4229 133.514 49.3569 C 136.782 49.3569 138.766 46.0879 138.766 46.0879 C 139.934 48.1892 140.633 54.2591 140.633 54.2591 C 142.502 53.7917 145.07 49.5898 145.07 49.5898 C 146.471 51.4571 147.638 58.9276 147.638 58.9276 C 149.739 58.461 150.672 54.2591 150.672 54.2591 C 153.241 56.1263 154.875 64.53 154.642 66.398 z "
     id="path139"
     sodipodi:nodetypes="cccccccccccccccccccccc" />
  <path
     style="font-size:12;fill:#ffffff;fill-opacity:0.7;fill-rule:evenodd;stroke:#ffffff;stroke-width:3.54933;stroke-opacity:0.5;"
     d="M 35.4134 115.829 C 47.6287 120.45 83.2837 122.431 83.2837 122.431 C 81.5479 125.892 81.9644 155.394 81.9644 158.087 C 73.1474 159.067 45.4019 156.894 38.0546 152.73 C 37.3197 151.751 35.4134 115.829 35.4134 115.829 z M 91.8117 130.63 C 91.8117 133.569 92.3015 156.59 92.3015 158.06 C 94.0158 159.039 134.179 158.55 140.057 158.06 C 140.057 155.856 142.015 134.549 142.505 132.346 C 136.137 132.835 99.8933 132.589 91.8117 130.63 z "
     id="path145" />
  <path
     style="font-size:12;fill-rule:evenodd;stroke:#ffffff;stroke-width:0.567893pt;stroke-opacity:0.5;"
     d="M 87.6929 195.073 C 87.6929 195.073 79.5671 186.415 78.7379 185.029 C 80.9181 186.068 93.1083 186.76 94.4256 186.068 C 93.1764 187.453 88.074 195.419 87.6929 195.073 z "
     id="path130"
     sodipodi:nodetypes="cccc" />
  <path
     style="font-size:12;fill:#ffffff;fill-rule:evenodd;stroke-width:1pt;stroke-opacity:0.5;"
     d="M 77.0684 189.184 C 53.2838 183.297 46.2071 213.429 46.4118 215.508 C 49.9489 212.737 58.5447 208.58 60.242 208.234 C 55.4563 212.39 52.2896 222.434 52.4602 224.165 C 53.397 223.127 63.5197 216.892 65.944 216.892 C 62.9973 218.625 60.7172 237.673 61.1999 239.058 C 61.4098 237.673 64.1466 237.327 64.1466 237.327 C 64.0758 238.366 65.107 243.562 65.4534 243.562 C 66.078 242.868 68.4029 240.097 69.269 240.097 C 68.0876 242.175 65.2911 259.493 65.6321 262.957 C 67.0539 261.571 68.9448 259.667 69.9325 259.147 C 69.5979 262.784 77.0204 278.369 80.016 278.888 C 79.5671 277.849 79.7455 274.386 80.5427 273.693 C 81.0261 275.078 83.0477 278.022 84.1379 278.542 C 83.5671 278.022 87.5941 271.442 87.8894 270.923 C 87.9743 271.789 92.1089 275.078 92.1089 275.078 C 92.1089 275.078 92.1929 265.381 92.1929 265.381 C 92.1929 265.381 94.4019 270.23 94.7485 270.23 C 99.2021 267.979 106.017 257.028 106.944 255.164 C 107.954 252.926 107.602 221.395 110.105 215.161 C 112.941 217.586 116.438 217.932 119.348 217.586 C 117.846 214.642 112.539 208.234 111.847 208.234 C 114.652 208.58 126.977 212.39 128.636 213.429 C 127.345 209.099 115.371 191.263 102.473 188.665 C 101.918 190.051 90.3206 193.646 87.5388 193.514 C 83.7123 193.341 75.1588 192.648 77.0684 189.184 z "
     id="path131"
     sodipodi:nodetypes="ccccccccccccccccccscccccsc" />
  <path
     style="font-size:12;fill-rule:evenodd;stroke-width:1pt;stroke-opacity:0.5;"
     d="M 79.4478 230.92 C 80.3162 229.188 85.2409 224.686 86.575 224.165 C 87.6652 224.686 93.2495 230.4 93.1794 231.439 C 92.4348 230.92 87.6623 226.417 86.6234 226.417 C 85.4108 226.417 80.4018 230.054 79.4478 230.92 z "
     id="path132"
     sodipodi:nodetypes="cccsc" />
  <path
     style="font-size:12;fill-rule:evenodd;stroke:#ffffff;stroke-width:1.41973;stroke-opacity:0.5;"
     d="M 145.351 124.082 C 87.9062 144.221 67.1075 81.4941 36.0738 99.9819 "
     id="path157"
     sodipodi:nodetypes="cc" />
  <path
     transform="matrix(0.277034,0,0,0.277034,-605.243,-1891.2)"
     style="font-size:72;font-weight:normal;fill:#ffffff;fill-opacity:0.489583;stroke-width:1pt;font-family:DirtyBaker'sDozen;text-anchor:end;"
     d="M 2808.17 7998.8 C 2807.35 7999.66 2806.11 8000.4 2804.43 8001.03 C 2802.75 8001.6 2801.19 8001.89 2799.75 8001.89 C 2798.26 8001.89 2797.11 8001.29 2796.29 8000.09 C 2795.81 7999.42 2795.26 7998.08 2794.63 7996.06 C 2794.01 7994.19 2793.39 7992.89 2792.76 7992.17 C 2791.61 7990.83 2789.69 7989.7 2787 7988.79 C 2783.59 7987.59 2781.41 7986.7 2780.45 7986.12 C 2781.36 7982.62 2782.85 7981.01 2784.91 7981.3 L 2805.36 7981.3 C 2806.03 7981.97 2806.97 7982.91 2808.17 7984.11 L 2808.17 7998.8 z M 2787.87 8001.89 C 2787.87 8005.11 2787.75 8007.24 2787.51 8008.3 C 2787.03 8010.6 2785.9 8011.76 2784.12 8011.76 C 2782.87 8011.76 2781.67 8011.06 2780.52 8009.67 C 2779.42 8008.28 2778.87 8006.91 2778.87 8005.56 C 2778.87 8004.12 2779.56 8002.42 2780.95 8000.45 C 2782.44 7998.29 2783.86 7997.21 2785.2 7997.21 C 2786.98 7997.21 2787.87 7998.77 2787.87 8001.89 z M 2807.31 8026.73 C 2807.31 8027.6 2806.95 8028.36 2806.23 8029.04 C 2805.7 8029.47 2805.15 8029.92 2804.57 8030.4 L 2782.39 8030.4 C 2781.48 8030.4 2780.76 8029.85 2780.23 8028.75 C 2779.71 8027.64 2779.51 8026.61 2779.66 8025.65 C 2780.76 8023.78 2782.37 8022.84 2784.48 8022.84 C 2784.63 8022.84 2784.89 8022.84 2785.27 8022.84 C 2785.66 8022.89 2785.92 8022.92 2786.07 8022.92 C 2787.6 8022.92 2788.83 8022.56 2789.74 8021.84 C 2791.13 8020.78 2792.4 8019.05 2793.55 8016.65 C 2795.04 8013.58 2796.05 8011.71 2796.58 8011.04 L 2807.31 8011.04 L 2807.31 8026.73 z M 2773.25 7981.37 C 2773.06 7982.38 2772.91 7985.28 2772.82 7990.08 L 2772.82 8026.8 C 2772.1 8027.72 2770.8 8028.92 2768.93 8030.4 L 2754.31 8030.4 C 2752.87 8029.59 2752.15 8028.48 2752.15 8027.09 C 2752.15 8025.84 2752.87 8023.95 2754.31 8021.4 C 2755.8 8018.86 2756.55 8017.18 2756.55 8016.36 L 2756.55 8001.32 C 2756.55 7997 2756.43 7994.16 2756.19 7992.82 C 2756.14 7992.34 2755.66 7991.38 2754.75 7989.94 C 2753.83 7988.5 2753.38 7987.47 2753.38 7986.84 C 2753.33 7986.65 2753.26 7986.32 2753.16 7985.84 C 2753.11 7985.31 2753.09 7984.9 2753.09 7984.61 C 2753.09 7982.98 2754.31 7981.9 2756.76 7981.37 L 2773.25 7981.37 z M 2729.69 8008.73 L 2729.69 8002.11 C 2729.4 8000 2728.85 7997.31 2728.03 7994.04 C 2727.55 7993.04 2726.79 7992.15 2725.73 7991.38 C 2724.29 7990.32 2723.52 7989.75 2723.43 7989.65 C 2722.66 7988.79 2721.87 7987.92 2721.05 7987.06 C 2720.43 7986.34 2720.11 7985.74 2720.11 7985.26 C 2720.11 7984.64 2720.59 7983.72 2721.55 7982.52 C 2724.48 7981.61 2727.27 7981.16 2729.91 7981.16 C 2736.05 7981.16 2740.9 7983.6 2744.45 7988.5 C 2747.67 7992.87 2749.27 7998.29 2749.27 8004.77 C 2749.27 8011.49 2747.55 8017.23 2744.09 8021.98 C 2740.25 8027.26 2735.11 8029.9 2728.68 8029.9 C 2726.14 8029.9 2723.47 8029.47 2720.69 8028.6 C 2719.97 8026.73 2719.95 8025.15 2720.62 8023.85 C 2720.91 8023.32 2721.79 8022.46 2723.28 8021.26 C 2724.82 8020.06 2725.73 8019.22 2726.02 8018.74 C 2727.27 8016.82 2728.49 8013.48 2729.69 8008.73 z M 2713.56 8023.35 C 2713.56 8024.4 2713.11 8025.77 2712.19 8027.45 C 2711.14 8029.42 2710.01 8030.4 2708.81 8030.4 L 2696.07 8030.4 C 2695.78 8030.12 2695.18 8029.8 2694.27 8029.47 C 2693.4 8029.13 2692.87 8028.82 2692.68 8028.53 C 2692.39 8028.05 2692.25 8027.48 2692.25 8026.8 C 2692.25 8025.56 2692.97 8023.42 2694.41 8020.4 C 2695.9 8017.32 2696.64 8015.12 2696.64 8013.77 L 2696.64 7993.68 C 2696.64 7993.11 2696.33 7992.46 2695.71 7991.74 C 2694.89 7990.78 2694.34 7989.89 2694.05 7989.08 C 2693.76 7988.26 2693.52 7985.69 2693.33 7981.37 L 2710.75 7981.37 C 2710.99 7981.61 2711.93 7982.52 2713.56 7984.11 L 2713.56 8023.35 z M 2687.93 8021.33 C 2688.46 8022.15 2688.72 8022.96 2688.72 8023.78 C 2688.72 8025.08 2688.15 8026.2 2686.99 8027.16 C 2685.84 8028.12 2684.47 8028.65 2682.89 8028.75 L 2663.09 8029.54 C 2662.66 8029.11 2662.25 8028.46 2661.87 8027.6 C 2661.53 8026.68 2661.41 8026.04 2661.51 8025.65 C 2664.19 8021.14 2665.54 8018 2665.54 8016.22 C 2665.54 8015.55 2665.11 8014.49 2664.24 8013.05 C 2663.38 8011.61 2662.95 8009.88 2662.95 8007.87 L 2662.95 8002.83 L 2669.14 7984.76 C 2671.3 7986.29 2673.24 7988.93 2674.97 7992.68 C 2676.03 7994.98 2677.25 7998.44 2678.64 8003.04 C 2680.03 8007.65 2681.07 8010.65 2681.74 8012.04 C 2683.03 8013.87 2685.1 8016.96 2687.93 8021.33 z M 2661.15 7981.52 C 2660.62 7986.12 2659.92 7990.04 2659.06 7993.25 C 2658.58 7995.08 2657.91 7996.95 2657.04 7998.87 C 2656.47 8000.26 2656.15 8001.29 2656.11 8001.96 L 2656.11 8014.13 C 2655.87 8014.37 2655.1 8014.97 2653.8 8015.93 C 2652.99 8016.56 2652.48 8017.16 2652.29 8017.73 C 2652.19 8018.07 2652.15 8018.4 2652.15 8018.74 C 2652.15 8019.56 2652.48 8020.61 2653.15 8021.91 C 2654.02 8023.49 2654.5 8024.48 2654.59 8024.86 C 2654.88 8025.87 2655.03 8026.76 2655.03 8027.52 C 2655.03 8030.02 2653.25 8031.27 2649.7 8031.27 L 2634.58 8031.27 C 2633.67 8031.27 2632.95 8030.72 2632.42 8029.61 C 2631.89 8028.51 2631.7 8027.48 2631.84 8026.52 C 2632.27 8025.89 2633.23 8024.86 2634.72 8023.42 C 2636.02 8022.17 2636.98 8020.97 2637.6 8019.82 C 2639.38 8016.51 2641.27 8012.07 2643.29 8006.5 C 2645.31 8000.93 2646.41 7997.98 2646.6 7997.64 C 2647.03 7996.78 2647.99 7994.04 2649.48 7989.44 C 2650.54 7986.27 2651.98 7983.99 2653.8 7982.6 C 2655.29 7981.44 2657.74 7981.08 2661.15 7981.52 z M 2629.47 8023.28 C 2629.32 8026.16 2628.12 8028.41 2625.87 8030.04 C 2623.85 8031.48 2621.35 8032.2 2618.38 8032.2 C 2615.88 8032.2 2613.58 8031.7 2611.47 8030.69 C 2609.21 8029.64 2607.53 8028.17 2606.43 8026.3 C 2605.85 8025.34 2605.3 8023.56 2604.77 8020.97 C 2604.19 8018.04 2603.71 8016.12 2603.33 8015.21 C 2602.8 8013.96 2601.75 8012.64 2600.16 8011.25 C 2598.34 8009.72 2597.23 8008.64 2596.85 8008.01 C 2596.13 8006.96 2595.91 8005.28 2596.2 8002.97 C 2597.69 8002.16 2599.15 8001.34 2600.59 8000.52 C 2602.42 7999.42 2603.59 7998.27 2604.12 7997.07 C 2604.6 7996.06 2604.84 7995.15 2604.84 7994.33 C 2604.84 7992.56 2603.35 7990.76 2600.38 7988.93 C 2597.45 7987.11 2595.99 7985.33 2595.99 7983.6 C 2595.99 7983.27 2596.03 7982.91 2596.13 7982.52 L 2609.95 7981.59 C 2613.6 7981.78 2617.01 7983.27 2620.18 7986.05 C 2623.35 7988.84 2624.93 7991.76 2624.93 7994.84 C 2624.93 7995.75 2624.76 7996.61 2624.43 7997.43 C 2624.04 7998.39 2623.2 7999.47 2621.91 8000.67 C 2620.66 8001.82 2619.41 8002.97 2618.16 8004.12 C 2619.17 8007.44 2620.15 8010.75 2621.11 8014.06 C 2622.75 8018.19 2625.53 8021.26 2629.47 8023.28 z M 2593.25 8029.83 L 2571.65 8029.83 C 2568.58 8029.16 2567.04 8027.93 2567.04 8026.16 C 2567.04 8025.05 2567.76 8023.44 2569.2 8021.33 C 2570.69 8019.22 2571.43 8017.95 2571.43 8017.52 L 2571.43 7994.84 C 2571.43 7994.16 2570.67 7992.6 2569.13 7990.16 C 2567.59 7987.66 2566.83 7985.74 2566.83 7984.4 C 2566.83 7982.91 2567.62 7981.71 2569.2 7980.8 L 2585.55 7980.8 L 2589.15 7983.53 L 2589.15 8016 C 2589.15 8016.05 2589.91 8018.02 2591.45 8021.91 C 2592.94 8025.56 2593.54 8028.2 2593.25 8029.83 z M 2561.86 8030.69 L 2542.06 8030.69 C 2539.9 8030.16 2538.82 8029.06 2538.82 8027.38 C 2538.82 8026.76 2539.32 8024.69 2540.33 8021.19 C 2541.34 8017.68 2541.82 8014.52 2541.77 8011.68 L 2540.69 8004.41 C 2539.68 8004.6 2538.48 8005.2 2537.09 8006.21 C 2535.75 8007.17 2534.86 8007.72 2534.43 8007.87 C 2533.56 8006.91 2532.79 8005.13 2532.12 8002.54 C 2531.5 7999.95 2531.19 7997.26 2531.19 7994.48 C 2531.19 7990.78 2531.76 7987.8 2532.91 7985.55 C 2534.21 7982.91 2536.2 7981.59 2538.89 7981.59 L 2558.47 7981.59 C 2561.26 7982.21 2562.65 7983.48 2562.65 7985.4 C 2562.65 7986.56 2561.98 7988.26 2560.63 7990.52 C 2559.34 7992.72 2558.69 7994.09 2558.69 7994.62 L 2558.69 8017.73 C 2558.69 8018.26 2559.41 8019.65 2560.85 8021.91 C 2562.34 8024.16 2563.08 8026.01 2563.08 8027.45 C 2563.08 8028.6 2562.67 8029.68 2561.86 8030.69 z M 2527.87 8029.68 C 2527.15 8029.83 2526.48 8029.9 2525.86 8029.9 C 2523.17 8029.9 2520.91 8028.36 2519.09 8025.29 C 2518.23 8023.85 2516.71 8020.35 2514.55 8014.78 C 2512.63 8009.79 2510.74 8006.04 2508.87 8003.55 C 2508.77 8003.5 2508.67 8003.48 2508.58 8003.48 C 2508.05 8003.48 2507.52 8003.79 2506.99 8004.41 C 2506.47 8004.99 2506.2 8005.68 2506.2 8006.5 L 2506.2 8017.73 C 2506.2 8018.21 2506.87 8019.41 2508.22 8021.33 C 2509.61 8023.25 2510.31 8024.86 2510.31 8026.16 C 2510.31 8027.74 2509.39 8029.25 2507.57 8030.69 L 2494.54 8030.69 C 2491.71 8029.44 2490.29 8028 2490.29 8026.37 C 2490.29 8025.41 2490.96 8024.04 2492.31 8022.27 C 2493.65 8020.44 2494.32 8019.12 2494.32 8018.31 L 2494.32 7994.84 C 2494.32 7993.88 2493.6 7992.24 2492.16 7989.94 C 2490.72 7987.59 2490 7985.86 2490 7984.76 C 2490 7983.51 2490.7 7982.45 2492.09 7981.59 L 2513.4 7981.59 C 2517.34 7981.44 2520.65 7987.49 2523.34 7999.73 C 2523.53 8000.55 2524.92 8004.56 2527.51 8011.76 C 2529.67 8017.8 2530.75 8022.2 2530.75 8024.93 C 2530.75 8027.62 2529.79 8029.2 2527.87 8029.68 z M 2463.87 8012.19 L 2463.87 8001.32 C 2461.66 7993.97 2460.65 7987.92 2460.84 7983.17 C 2462.23 7982.88 2463.6 7982.74 2464.95 7982.74 C 2470.66 7982.74 2475.24 7985.26 2478.7 7990.3 C 2481.87 7994.96 2483.45 8000.52 2483.45 8007 C 2483.45 8013.92 2481.67 8019.63 2478.12 8024.14 C 2474.14 8029.23 2468.64 8031.53 2461.63 8031.05 C 2460.58 8030.52 2460.05 8029.35 2460.05 8027.52 C 2460.05 8025.75 2460.58 8023.11 2461.63 8019.6 C 2463.07 8014.95 2463.82 8012.48 2463.87 8012.19 z M 2452.49 7982.38 C 2452.59 7983.05 2452.63 7983.72 2452.63 7984.4 C 2452.63 7986.7 2451.82 7989.87 2450.19 7993.9 C 2448.6 7997.93 2447.81 8000.91 2447.81 8002.83 L 2447.81 8009.24 C 2448.53 8013.51 2449.63 8017.42 2451.12 8020.97 C 2452.42 8024 2453.07 8025.84 2453.07 8026.52 C 2453.07 8027.57 2452.56 8028.77 2451.55 8030.12 C 2450.88 8030.5 2450.07 8030.69 2449.11 8030.69 C 2445.22 8030.69 2440.73 8028.39 2435.64 8023.78 C 2430.55 8019.17 2427.82 8014.76 2427.43 8010.53 L 2427.43 7998.65 C 2428.15 7994.28 2430.67 7990.28 2434.99 7986.63 C 2439.36 7982.98 2443.63 7981.16 2447.81 7981.16 C 2449.59 7981.16 2451.15 7981.56 2452.49 7982.38 z M 2422.83 8030.12 L 2401.37 8030.12 C 2399.45 8029.83 2398.49 8027.93 2398.49 8024.43 C 2398.49 8023.9 2398.51 8023.18 2398.56 8022.27 C 2398.61 8021.31 2398.63 8020.61 2398.63 8020.18 C 2398.63 8018.79 2398.49 8017.78 2398.2 8017.16 C 2397.15 8014.9 2396.09 8012.64 2395.03 8010.39 C 2393.93 8007.84 2393.38 8005.64 2393.38 8003.76 C 2393.38 8003.04 2393.45 8002.35 2393.59 8001.68 C 2393.79 8000.96 2394.41 7999.61 2395.47 7997.64 C 2396.81 7995.2 2397.72 7993.42 2398.2 7992.32 C 2398.39 7991.84 2398.49 7991.26 2398.49 7990.59 C 2398.49 7989.96 2398.37 7989 2398.13 7987.71 C 2397.89 7986.41 2397.77 7985.45 2397.77 7984.83 C 2397.77 7984.49 2397.79 7984.18 2397.84 7983.89 C 2397.99 7983.12 2398.56 7982.45 2399.57 7981.88 C 2400.63 7981.3 2401.68 7981.01 2402.74 7981.01 L 2421.53 7981.01 C 2422.25 7982.02 2422.61 7982.96 2422.61 7983.82 C 2422.61 7985.21 2421.6 7986.72 2419.59 7988.36 C 2417.57 7989.8 2415.55 7991.26 2413.54 7992.75 C 2411.09 7994.67 2409.53 7996.59 2408.86 7998.51 C 2408.67 7999.04 2408.57 7999.61 2408.57 8000.24 C 2408.57 8002.3 2409.91 8005.06 2412.6 8008.52 C 2415.15 8011.54 2417.67 8014.54 2420.16 8017.52 C 2422.9 8021.02 2424.27 8023.92 2424.27 8026.23 C 2424.27 8027.67 2423.79 8028.96 2422.83 8030.12 z M 2387.47 8017.95 C 2387.47 8018.86 2387.98 8020.11 2388.99 8021.69 C 2390.04 8023.28 2390.57 8024.5 2390.57 8025.36 C 2390.57 8026.9 2389.44 8028.48 2387.19 8030.12 L 2370.12 8030.12 C 2369.31 8030.12 2368.66 8029.88 2368.18 8029.4 C 2367.6 8028.72 2367.05 8028.05 2366.52 8027.38 C 2366.43 8026.47 2366.74 8025.05 2367.46 8023.13 C 2368.56 8020.16 2369.21 8018.33 2369.4 8017.66 C 2369.59 8016.99 2369.71 8016.15 2369.76 8015.14 C 2369.81 8014.47 2369.81 8013.6 2369.76 8012.55 C 2369.71 8011.16 2369.69 8010.34 2369.69 8010.1 L 2369.69 7992.53 C 2369.69 7992 2369.14 7990.64 2368.03 7988.43 C 2366.93 7986.22 2366.38 7983.77 2366.38 7981.08 L 2387.11 7981.08 C 2389.9 7981.61 2391.29 7982.74 2391.29 7984.47 C 2391.29 7985.57 2390.64 7987.11 2389.35 7989.08 C 2388.1 7991 2387.47 7992.08 2387.47 7992.32 L 2387.47 8017.95 z M 2807.88 8087.21 C 2808.07 8087.88 2808.17 8088.56 2808.17 8089.23 C 2808.17 8092.35 2806.71 8095.35 2803.78 8098.23 C 2800.85 8101.11 2797.95 8102.55 2795.07 8102.55 C 2793.58 8102.55 2792.31 8102.07 2791.25 8101.11 L 2791.25 8090.88 C 2791.25 8088.29 2790.15 8085.87 2787.94 8083.61 C 2785.59 8081.21 2782.8 8080.01 2779.59 8080.01 C 2779.01 8080.01 2778.46 8080.04 2777.93 8080.08 C 2777.5 8079.36 2777.28 8078.4 2777.28 8077.2 C 2777.28 8076.1 2777.5 8075.14 2777.93 8074.32 C 2780.43 8074.32 2782.92 8073.94 2785.42 8073.17 C 2789.31 8072.02 2791.25 8070.22 2791.25 8067.77 L 2791.25 8056.76 C 2792.07 8054.64 2793.55 8053.59 2795.71 8053.59 C 2798.26 8053.59 2800.85 8054.88 2803.49 8057.48 C 2806.13 8060.07 2807.45 8062.76 2807.45 8065.54 C 2807.45 8066.4 2807.28 8067.27 2806.95 8068.13 C 2806.61 8068.95 2805.65 8070.29 2804.07 8072.16 C 2802.29 8074.23 2801.19 8075.62 2800.75 8076.34 C 2801.14 8077.2 2802.39 8078.98 2804.5 8081.67 C 2806.37 8084.16 2807.5 8086.01 2807.88 8087.21 z M 2781.75 8053.16 C 2782.03 8053.78 2782.18 8054.6 2782.18 8055.6 C 2782.18 8058.29 2781.39 8061.15 2779.8 8064.17 C 2778.07 8067.39 2776.08 8069.31 2773.83 8069.93 C 2771.14 8070.65 2768.57 8069.19 2766.12 8065.54 C 2765.64 8064.87 2765.4 8064.12 2765.4 8063.31 C 2765.4 8061.15 2766.84 8058.92 2769.72 8056.61 C 2772.22 8054.55 2774.43 8053.37 2776.35 8053.08 C 2776.97 8052.99 2777.86 8052.96 2779.01 8053.01 C 2780.69 8053.11 2781.6 8053.16 2781.75 8053.16 z M 2782.47 8101.61 C 2782.47 8102.19 2782.08 8102.69 2781.31 8103.12 C 2780.59 8103.56 2779.95 8103.77 2779.37 8103.77 C 2776.01 8103.77 2772.65 8102.98 2769.29 8101.4 C 2765.21 8099.43 2763.17 8096.93 2763.17 8093.91 C 2763.17 8091.32 2763.87 8089.28 2765.26 8087.79 C 2766.7 8086.25 2768.59 8085.48 2770.95 8085.48 C 2774.59 8085.48 2777.5 8087.26 2779.66 8090.81 C 2781.53 8093.93 2782.47 8097.53 2782.47 8101.61 z M 2746.03 8083.97 L 2743.66 8055.68 C 2749.56 8056.68 2754.22 8059.61 2757.63 8064.46 C 2760.75 8068.88 2762.31 8074.01 2762.31 8079.87 C 2762.31 8085.34 2760.94 8090.14 2758.2 8094.27 C 2755.18 8098.78 2751 8101.61 2745.67 8102.76 C 2744.95 8101.95 2744.59 8100.36 2744.59 8098.01 C 2744.59 8096.28 2744.83 8093.79 2745.31 8090.52 C 2745.79 8086.97 2746.03 8084.79 2746.03 8083.97 z M 2736.39 8101.9 C 2735.28 8102.86 2734.06 8103.34 2732.71 8103.34 C 2729.35 8103.34 2725.83 8100.99 2722.13 8096.28 C 2718.63 8091.82 2716.73 8087.72 2716.44 8083.97 L 2716.44 8072.88 C 2717.26 8069.04 2719.2 8065.18 2722.27 8061.29 C 2725.68 8056.97 2728.97 8054.81 2732.14 8054.81 C 2732.76 8054.81 2733.36 8054.91 2733.94 8055.1 C 2735.14 8055.58 2735.74 8056.88 2735.74 8058.99 C 2735.74 8060.28 2735.45 8062.52 2734.87 8065.68 C 2734.11 8069.86 2733.6 8072.86 2733.36 8074.68 L 2733.36 8083.11 C 2734.27 8087.76 2735.28 8094.03 2736.39 8101.9 z M 2698.8 8083.97 L 2696.43 8055.68 C 2702.33 8056.68 2706.99 8059.61 2710.39 8064.46 C 2713.51 8068.88 2715.07 8074.01 2715.07 8079.87 C 2715.07 8085.34 2713.71 8090.14 2710.97 8094.27 C 2707.95 8098.78 2703.77 8101.61 2698.44 8102.76 C 2697.72 8101.95 2697.36 8100.36 2697.36 8098.01 C 2697.36 8096.28 2697.6 8093.79 2698.08 8090.52 C 2698.56 8086.97 2698.8 8084.79 2698.8 8083.97 z M 2689.15 8101.9 C 2688.05 8102.86 2686.83 8103.34 2685.48 8103.34 C 2682.12 8103.34 2678.59 8100.99 2674.9 8096.28 C 2671.39 8091.82 2669.5 8087.72 2669.21 8083.97 L 2669.21 8072.88 C 2670.03 8069.04 2671.97 8065.18 2675.04 8061.29 C 2678.45 8056.97 2681.74 8054.81 2684.91 8054.81 C 2685.53 8054.81 2686.13 8054.91 2686.71 8055.1 C 2687.91 8055.58 2688.51 8056.88 2688.51 8058.99 C 2688.51 8060.28 2688.22 8062.52 2687.64 8065.68 C 2686.87 8069.86 2686.37 8072.86 2686.13 8074.68 L 2686.13 8083.11 C 2687.04 8087.76 2688.05 8094.03 2689.15 8101.9 z M 2640.12 8058.41 C 2640.07 8060.04 2639.62 8062.01 2638.75 8064.32 C 2637.99 8066.38 2637.17 8068.04 2636.31 8069.28 C 2635.49 8070.53 2633.98 8071.16 2631.77 8071.16 C 2630.09 8071.16 2628.34 8070.8 2626.51 8070.08 C 2624.74 8069.36 2623.85 8067.99 2623.85 8065.97 C 2623.85 8065.83 2623.99 8064.46 2624.28 8061.87 C 2624.52 8059.85 2628.41 8057.38 2635.95 8054.45 C 2638.83 8055.56 2640.22 8056.88 2640.12 8058.41 z M 2665.03 8073.24 C 2663.16 8075.45 2660.86 8077.13 2658.12 8078.28 C 2657.64 8078.48 2655.19 8079.24 2650.78 8080.59 C 2647.75 8081.5 2645.31 8082.65 2643.43 8084.04 C 2645.4 8087.98 2648.79 8089.95 2653.59 8089.95 C 2656.99 8089.95 2660.59 8088.96 2664.39 8087 C 2664.53 8093.24 2663.19 8097.8 2660.35 8100.68 C 2657.95 8103.08 2654.67 8104.13 2650.49 8103.84 C 2648.91 8103.75 2646.36 8103.05 2642.86 8101.76 C 2639.59 8100.56 2636.86 8099.96 2634.65 8099.96 C 2631 8099.96 2627.5 8100.68 2624.14 8102.12 C 2624.04 8101.3 2623.99 8100.44 2623.99 8099.52 C 2623.99 8095.54 2624.98 8091.63 2626.95 8087.79 C 2629.06 8083.71 2631.79 8080.73 2635.15 8078.86 C 2637.51 8078.04 2639.86 8077.25 2642.21 8076.48 C 2645.38 8075.24 2647.66 8073.15 2649.05 8070.22 C 2649.82 8068.68 2650.2 8067.17 2650.2 8065.68 C 2650.2 8064.63 2649.94 8063.21 2649.41 8061.44 C 2648.88 8059.66 2648.62 8058.32 2648.62 8057.4 C 2648.62 8056.88 2648.67 8056.35 2648.76 8055.82 C 2649.67 8055.05 2650.75 8054.67 2652 8054.67 C 2654.98 8054.67 2658.1 8056.37 2661.36 8059.78 C 2664.63 8063.19 2666.26 8066.48 2666.26 8069.64 C 2666.26 8071.04 2665.85 8072.24 2665.03 8073.24 z M 2588.28 8095.28 C 2588.14 8098.16 2586.94 8100.41 2584.68 8102.04 C 2582.67 8103.48 2580.17 8104.2 2577.19 8104.2 C 2574.7 8104.2 2572.39 8103.7 2570.28 8102.69 C 2568.03 8101.64 2566.35 8100.17 2565.24 8098.3 C 2564.67 8097.34 2564.11 8095.56 2563.59 8092.97 C 2563.01 8090.04 2562.53 8088.12 2562.15 8087.21 C 2561.62 8085.96 2560.56 8084.64 2558.98 8083.25 C 2557.15 8081.72 2556.05 8080.64 2555.67 8080.01 C 2554.95 8078.96 2554.73 8077.28 2555.02 8074.97 C 2556.51 8074.16 2557.97 8073.34 2559.41 8072.52 C 2561.23 8071.42 2562.41 8070.27 2562.94 8069.07 C 2563.42 8068.06 2563.66 8067.15 2563.66 8066.33 C 2563.66 8064.56 2562.17 8062.76 2559.19 8060.93 C 2556.27 8059.11 2554.8 8057.33 2554.8 8055.6 C 2554.8 8055.27 2554.85 8054.91 2554.95 8054.52 L 2568.77 8053.59 C 2572.42 8053.78 2575.83 8055.27 2578.99 8058.05 C 2582.16 8060.84 2583.75 8063.76 2583.75 8066.84 C 2583.75 8067.75 2583.58 8068.61 2583.24 8069.43 C 2582.86 8070.39 2582.02 8071.47 2580.72 8072.67 C 2579.47 8073.82 2578.23 8074.97 2576.98 8076.12 C 2577.99 8079.44 2578.97 8082.75 2579.93 8086.06 C 2581.56 8090.19 2584.35 8093.26 2588.28 8095.28 z M 2552.07 8101.83 L 2530.47 8101.83 C 2527.39 8101.16 2525.86 8099.93 2525.86 8098.16 C 2525.86 8097.05 2526.58 8095.44 2528.02 8093.33 C 2529.51 8091.22 2530.25 8089.95 2530.25 8089.52 L 2530.25 8066.84 C 2530.25 8066.16 2529.48 8064.6 2527.95 8062.16 C 2526.41 8059.66 2525.64 8057.74 2525.64 8056.4 C 2525.64 8054.91 2526.43 8053.71 2528.02 8052.8 L 2544.36 8052.8 L 2547.96 8055.53 L 2547.96 8088 C 2547.96 8088.05 2548.73 8090.02 2550.27 8093.91 C 2551.75 8097.56 2552.35 8100.2 2552.07 8101.83 z M 2521.61 8070.8 C 2520.79 8071.66 2519.55 8072.4 2517.87 8073.03 C 2516.19 8073.6 2514.63 8073.89 2513.19 8073.89 C 2511.7 8073.89 2510.55 8073.29 2509.73 8072.09 C 2509.25 8071.42 2508.7 8070.08 2508.07 8068.06 C 2507.45 8066.19 2506.83 8064.89 2506.2 8064.17 C 2505.05 8062.83 2503.13 8061.7 2500.44 8060.79 C 2497.03 8059.59 2494.85 8058.7 2493.89 8058.12 C 2494.8 8054.62 2496.29 8053.01 2498.35 8053.3 L 2518.8 8053.3 C 2519.47 8053.97 2520.41 8054.91 2521.61 8056.11 L 2521.61 8070.8 z M 2501.31 8073.89 C 2501.31 8077.11 2501.19 8079.24 2500.95 8080.3 C 2500.47 8082.6 2499.34 8083.76 2497.56 8083.76 C 2496.31 8083.76 2495.11 8083.06 2493.96 8081.67 C 2492.86 8080.28 2492.31 8078.91 2492.31 8077.56 C 2492.31 8076.12 2493 8074.42 2494.39 8072.45 C 2495.88 8070.29 2497.3 8069.21 2498.64 8069.21 C 2500.42 8069.21 2501.31 8070.77 2501.31 8073.89 z M 2520.75 8098.73 C 2520.75 8099.6 2520.39 8100.36 2519.67 8101.04 C 2519.14 8101.47 2518.59 8101.92 2518.01 8102.4 L 2495.83 8102.4 C 2494.92 8102.4 2494.2 8101.85 2493.67 8100.75 C 2493.15 8099.64 2492.95 8098.61 2493.1 8097.65 C 2494.2 8095.78 2495.81 8094.84 2497.92 8094.84 C 2498.07 8094.84 2498.33 8094.84 2498.71 8094.84 C 2499.1 8094.89 2499.36 8094.92 2499.51 8094.92 C 2501.04 8094.92 2502.27 8094.56 2503.18 8093.84 C 2504.57 8092.78 2505.84 8091.05 2506.99 8088.65 C 2508.48 8085.58 2509.49 8083.71 2510.02 8083.04 L 2520.75 8083.04 L 2520.75 8098.73 z M 2486.69 8053.37 C 2486.5 8054.38 2486.35 8057.28 2486.26 8062.08 L 2486.26 8098.8 C 2485.54 8099.72 2484.24 8100.92 2482.37 8102.4 L 2467.75 8102.4 C 2466.31 8101.59 2465.59 8100.48 2465.59 8099.09 C 2465.59 8097.84 2466.31 8095.95 2467.75 8093.4 C 2469.24 8090.86 2469.99 8089.18 2469.99 8088.36 L 2469.99 8073.32 C 2469.99 8069 2469.87 8066.16 2469.63 8064.82 C 2469.58 8064.34 2469.1 8063.38 2468.19 8061.94 C 2467.27 8060.5 2466.82 8059.47 2466.82 8058.84 C 2466.77 8058.65 2466.7 8058.32 2466.6 8057.84 C 2466.55 8057.31 2466.53 8056.9 2466.53 8056.61 C 2466.53 8054.98 2467.75 8053.9 2470.2 8053.37 L 2486.69 8053.37 z M 2463.22 8067.41 C 2461.78 8069.43 2459.45 8070.44 2456.23 8070.44 C 2454.07 8070.44 2452.51 8069.98 2451.55 8069.07 C 2451.27 8068.73 2450.43 8067.48 2449.03 8065.32 C 2447.79 8063.31 2446.68 8061.92 2445.72 8061.15 C 2445.19 8060.72 2444.16 8060.33 2442.63 8060 C 2440.66 8059.52 2439.43 8059.18 2438.95 8058.99 C 2437.71 8058.03 2437.08 8057.09 2437.08 8056.18 C 2438.19 8054.21 2440.27 8052.7 2443.35 8051.64 L 2463.22 8051.64 L 2463.22 8067.41 z M 2443.78 8081.02 C 2442.48 8082.27 2441.28 8082.89 2440.18 8082.89 C 2439.07 8082.89 2438.21 8082.29 2437.59 8081.09 C 2436.96 8079.89 2436.65 8078.43 2436.65 8076.7 C 2436.65 8074.92 2437.01 8073.27 2437.73 8071.73 C 2438.5 8070.15 2439.58 8069.09 2440.97 8068.56 C 2441.64 8069.19 2442.58 8070.12 2443.78 8071.37 L 2443.78 8081.02 z M 2430.31 8057.91 L 2429.45 8084.98 C 2432.71 8091.12 2434.35 8095.44 2434.35 8097.94 C 2434.35 8099.91 2433.31 8101.2 2431.25 8101.83 C 2429.91 8102.21 2427.15 8102.4 2422.97 8102.4 L 2410.3 8102.4 C 2408.76 8101.68 2407.99 8100.68 2407.99 8099.38 C 2407.99 8098.28 2408.74 8096.55 2410.23 8094.2 C 2411.76 8091.8 2412.53 8090.12 2412.53 8089.16 L 2412.53 8081.67 L 2413.32 8069 C 2413.23 8068.23 2412.48 8066.12 2411.09 8062.66 C 2409.79 8059.44 2409.15 8057.28 2409.15 8056.18 C 2409.15 8055.6 2409.29 8055.22 2409.58 8055.03 C 2410.63 8054.93 2412.77 8054.48 2415.99 8053.66 C 2419.06 8052.89 2421.39 8052.51 2422.97 8052.51 C 2426.76 8052.51 2429.21 8054.31 2430.31 8057.91 z M 2404.11 8053.3 C 2404.54 8053.78 2404.75 8054.43 2404.75 8055.24 C 2404.75 8056.44 2404.3 8057.62 2403.39 8058.77 C 2402.91 8059.4 2401.99 8060.21 2400.65 8061.22 C 2399.16 8062.37 2398.15 8063.21 2397.63 8063.74 C 2396.38 8065.08 2395.13 8066.4 2393.88 8067.7 C 2392.63 8068.95 2391.7 8069.5 2391.07 8069.36 C 2389.73 8069.02 2388.43 8067.63 2387.19 8065.18 C 2385.99 8062.73 2385.39 8060.31 2385.39 8057.91 C 2385.39 8055.94 2385.87 8054.4 2386.83 8053.3 L 2404.11 8053.3 z M 2405.91 8094.92 C 2406.43 8095.49 2406.7 8096.16 2406.7 8096.93 C 2406.7 8097.94 2406.31 8098.97 2405.55 8100.03 C 2404.83 8101.08 2404.03 8101.88 2403.17 8102.4 L 2381.79 8102.4 C 2380.25 8101.68 2379.48 8100.41 2379.48 8098.59 C 2379.48 8097.92 2379.6 8096.84 2379.84 8095.35 C 2380.13 8093.86 2380.27 8092.76 2380.27 8092.04 C 2380.27 8090.31 2379.77 8088.92 2378.76 8087.86 C 2376.55 8085.6 2373.12 8081.79 2368.47 8076.41 C 2364.19 8071.47 2360.81 8067.77 2358.31 8065.32 C 2357.55 8064.56 2356.23 8063.62 2354.35 8062.52 C 2352.48 8061.36 2351.16 8060.43 2350.39 8059.71 C 2349.67 8058.94 2349.31 8058.08 2349.31 8057.12 C 2349.31 8055.82 2349.87 8054.69 2350.97 8053.73 C 2352.12 8052.77 2353.39 8052.34 2354.79 8052.44 L 2375.16 8053.3 C 2376.55 8053.54 2377.25 8054.86 2377.25 8057.26 C 2377.25 8057.69 2377.23 8058.41 2377.18 8059.42 C 2377.13 8060.43 2377.11 8061.22 2377.11 8061.8 C 2377.11 8064.87 2377.75 8067.17 2379.05 8068.71 C 2381.88 8072.07 2386.37 8076.51 2392.51 8082.03 C 2399.04 8087.93 2403.51 8092.23 2405.91 8094.92 z M 2366.88 8085.92 C 2368.18 8086.88 2369.35 8088.44 2370.41 8090.6 C 2371.51 8092.9 2372.07 8095.04 2372.07 8097 C 2372.07 8100.56 2370.27 8102.36 2366.67 8102.4 L 2357.23 8102.4 C 2356.71 8102.12 2355.79 8101.9 2354.5 8101.76 C 2353.25 8101.56 2352.36 8101.32 2351.83 8101.04 C 2350.97 8100.6 2350.39 8099.79 2350.11 8098.59 C 2350.35 8097.48 2351.11 8096.33 2352.41 8095.13 C 2353.66 8094.17 2355.43 8092.76 2357.74 8090.88 C 2361.77 8087.28 2364.46 8085.48 2365.8 8085.48 C 2366.23 8085.48 2366.59 8085.63 2366.88 8085.92 z M 2346.29 8053.88 C 2346.87 8055.03 2347.15 8056.23 2347.15 8057.48 C 2347.15 8059.06 2346.6 8061.03 2345.5 8063.38 C 2344.44 8065.68 2343.91 8067.15 2343.91 8067.77 L 2343.91 8088.15 C 2343.87 8090.88 2341.95 8093.91 2338.15 8097.22 C 2334.41 8100.48 2331.03 8102.12 2328 8102.12 C 2327.43 8102.12 2326.87 8102.02 2326.35 8101.83 C 2325.82 8101.64 2325.36 8101.01 2324.98 8099.96 C 2324.64 8099.04 2324.47 8098.08 2324.47 8097.08 C 2324.47 8096.45 2324.55 8095.97 2324.69 8095.64 C 2326.03 8093.81 2327.38 8091.99 2328.72 8090.16 C 2330.4 8087.76 2331.24 8085.08 2331.24 8082.1 L 2331.24 8071.37 C 2331.24 8068.83 2330.21 8065.95 2328.15 8062.73 C 2326.13 8059.47 2325.12 8057.52 2325.12 8056.9 C 2325.12 8054.88 2329.32 8053.88 2337.72 8053.88 L 2346.29 8053.88 z M 2314.9 8102.76 C 2312.26 8103.1 2308.68 8101.85 2304.17 8099.02 C 2299.27 8095.95 2296.44 8092.64 2295.67 8089.08 L 2295.67 8070.51 C 2295.67 8067.82 2295.05 8065.49 2293.8 8063.52 C 2292.6 8061.51 2292 8059.9 2292 8058.7 C 2292 8057.26 2292.43 8055.39 2293.3 8053.08 L 2312.23 8053.08 C 2315.69 8053.61 2317.42 8054.84 2317.42 8056.76 C 2317.42 8057.96 2316.6 8059.78 2314.97 8062.23 C 2313.39 8064.63 2312.59 8066.19 2312.59 8066.91 L 2312.59 8085.7 C 2312.59 8086.61 2313.41 8088.51 2315.04 8091.39 C 2316.72 8094.22 2317.56 8096.43 2317.56 8098.01 C 2317.56 8099.88 2316.67 8101.47 2314.9 8102.76 z M 2289.84 8097 C 2289.84 8098.01 2289.43 8099.07 2288.62 8100.17 C 2287.85 8101.23 2287.01 8101.97 2286.1 8102.4 L 2271.48 8102.4 C 2270.86 8101.78 2270.26 8100.92 2269.68 8099.81 C 2269.11 8098.66 2268.82 8097.77 2268.82 8097.15 C 2268.82 8096.91 2268.87 8096.74 2268.96 8096.64 C 2270.07 8095.54 2271.15 8094.44 2272.2 8093.33 C 2273.74 8091.65 2274.72 8090.26 2275.15 8089.16 C 2275.15 8089.11 2275.42 8088.03 2275.95 8085.92 C 2276.33 8084.24 2276.83 8083.01 2277.46 8082.24 C 2278.37 8081.04 2280 8080.44 2282.35 8080.44 C 2284.47 8080.44 2286.36 8080.85 2288.04 8081.67 C 2289.24 8083.64 2289.84 8085.34 2289.84 8086.78 L 2289.84 8097 z M 2261.91 8096.14 C 2261.91 8096.72 2261.43 8097.82 2260.47 8099.45 C 2259.31 8101.42 2258.21 8102.4 2257.15 8102.4 L 2248.01 8102.4 C 2242.78 8102.4 2240.16 8101.11 2240.16 8098.52 C 2240.16 8097.32 2240.81 8095.59 2242.11 8093.33 C 2243.45 8091.03 2244.12 8089.64 2244.12 8089.16 L 2244.12 8065.68 C 2244.12 8064.34 2243.4 8062.54 2241.96 8060.28 C 2240.52 8058.03 2239.8 8056.49 2239.8 8055.68 C 2239.8 8054.19 2241.36 8053.11 2244.48 8052.44 L 2257.95 8052.44 C 2263.95 8052.44 2266.95 8053.3 2266.95 8055.03 C 2266.95 8055.8 2266.11 8057.28 2264.43 8059.49 C 2262.75 8061.7 2261.91 8063.4 2261.91 8064.6 L 2261.91 8096.14 z "
     id="path168" />
  <path
     style="font-size:12;fill:#ffffff;fill-opacity:0.53125;fill-rule:evenodd;stroke:#ffffff;stroke-width:1.87709;stroke-opacity:0.572917;"
     d="M 995.809 3447.9 L 985.09 3449 L 979.931 3458.46 L 975.567 3448.61 L 964.983 3446.62 L 973 3439.43 L 971.621 3428.75 L 980.934 3434.15 L 990.666 3429.53 L 988.402 3440.07 L 995.809 3447.9 z "
     id="path712"
     transform="matrix(0.644536,0,0,0.644536,-605.243,-1891.2)" />
</svg>
