<?xml version="1.0" encoding="UTF-8" standalone="no"?>
<!DOCTYPE svg PUBLIC "-//W3C//DTD SVG 20010904//EN"
"http://www.w3.org/TR/2001/REC-SVG-20010904/DTD/svg10.dtd">
<!-- Created with Sodipodi ("http://www.sodipodi.com/") -->
<svg
   id="svg831"
   sodipodi:version="0.33pre"
   width="90.28pt"
   height="98.89pt"
   sodipodi:docbase="/home/aki/myndir_ymisl"
   sodipodi:docname="/home/aki/myndir_ymisl/birdwatching.svg"
   xmlns="http://www.w3.org/2000/svg"
   xmlns:sodipodi="http://sodipodi.sourceforge.net/DTD/sodipodi-0.dtd"
   xmlns:xlink="http://www.w3.org/1999/xlink">
  <defs
     id="defs833" />
  <sodipodi:namedview
     id="base" />
  <g
     id="g691">
    <path
       style="font-size:12;fill-rule:evenodd;stroke-width:1pt;"
       d="M 151.701 130.465 C 149.711 127.861 148.516 130.869 144.607 126.963 L 139.648 125.616 C 146.225 118.302 160.119 117.166 164.115 114.706 C 167.662 111.204 166.538 97.05 165.889 102.449 C 165.238 107.848 151.701 107.702 149.927 111.204 C 149.927 114.706 139.286 119.959 130.419 125.211 C 128.645 125.211 124.074 120.002 116.231 112.955 C 102.043 107.702 96.2391 108.308 77.2133 98.9471 C 87.8544 121.71 110.91 119.959 112.684 130.465 C 109.137 135.717 98.4954 137.469 91.4014 139.22 L 102.043 144.473 C 109.137 137.468 117.172 140.461 133.966 137.468 C 140.227 133.457 146.597 129.565 151.701 130.465 z "
       id="path649"
       sodipodi:nodetypes="cccccccccccccc"
       transform="matrix(0.790311,0.000000,0.000000,0.792232,-56.09505,-67.63249)" />
    <g
       id="g687">
      <path
         style="font-size:12;fill-rule:evenodd;stroke-width:1pt;"
         d="M 85.1698 202.363 C 93.7623 198.694 90.8909 200.802 95.0109 195.98 L 96.0471 192.544 C 99.567 189.352 110.467 191.865 111.068 198.435 C 111.668 209.425 107.96 208.254 103.298 212.672 C 108.478 212.672 108.2 213.281 112.141 210.435 C 117.285 208.307 135.546 211.12 144.495 217.776 C 158.88 231.991 152.509 233.38 160.866 235.087 C 157.83 236.793 157.683 235.338 155.094 236.811 C 157.684 238.775 160.885 243.116 164.935 242.702 C 168.985 242.287 155.835 247.536 147.842 247.122 C 142.957 242.779 135.516 256.156 122.462 252.932 C 104.228 247.116 100.19 241.64 98.6365 237.712 C 96.0468 235.749 88.4075 234.89 87.2415 224.456 C 86.0765 214.021 101.851 209.382 102.263 204.326 C 104.747 201.234 100.567 206.436 95.5288 202.363 C 94.1166 200.743 91.6904 202.957 85.1698 202.363 z "
         id="path650"
         sodipodi:nodetypes="ccccccccccccccccc"
         transform="matrix(0.790311,0.000000,0.000000,0.792232,-20.53575,-103.2782)" />
      <path
         style="font-size:12;fill-rule:evenodd;stroke-width:1pt;"
         d="M 122.756 251.832 L 122.756 263.614 L 111.879 271.47 L 118.094 270.979 L 119.13 274.906 L 127.418 263.614 L 125.864 261.16 L 125.864 251.831 L 122.756 251.832 z "
         id="path652"
         sodipodi:nodetypes="ccccccccc"
         transform="matrix(0.790311,0.000000,0.000000,0.792232,-20.53575,-103.2782)" />
      <path
         style="font-size:12;fill-rule:evenodd;stroke-width:1pt;"
         d="M 130.007 252.323 L 130.525 264.106 L 133.633 266.07 L 118.612 266.07 L 116.54 263.124 L 128.453 264.597 L 127.417 252.814 L 130.007 252.323 z "
         id="path653"
         sodipodi:nodetypes="cccccccc"
         transform="matrix(0.790311,0.000000,0.000000,0.792232,-20.53575,-103.2782)" />
    </g>
  </g>
</svg>
