<?xml version="1.0" encoding="UTF-8" standalone="no"?>
<!DOCTYPE svg PUBLIC "-//W3C//DTD SVG 1.0//EN"
"http://www.w3.org/TR/2001/REC-SVG-20010904/DTD/svg10.dtd">
<!-- Created with Sodipodi ("http://www.sodipodi.com/") -->
<svg
   xmlns="http://www.w3.org/2000/svg"
   xmlns:xlink="http://www.w3.org/1999/xlink"
   version="1.0"
   x="0"
   y="0"
   width="112.849998"
   height="123.612503"
   id="svg831">
  <defs
     id="defs833" />
  <g
     transform="matrix(0.182726,0.000000,0.000000,0.181368,-0.549186,10.21840)"
     style="font-size:12;"
     id="g815">
    <path
       d="M 147.599 86.2593 L 132.265 99.6773 L 153.35 122.679 L 168.685 111.178 L 182.103 122.679 L 203.189 103.511 L 224.274 122.679 L 260.695 122.679 C 272.196 134.18 287.53 155.266 312.451 155.266 C 337.37 155.266 367.422 141.733 368.04 103.511 C 370.452 67.1273 341.203 49.8387 314.367 49.8387 C 287.531 51.7555 270.279 69.0073 260.695 86.2593 L 147.599 86.2593 z M 358.455 102.552 C 358.455 114.72 352.014 124.596 344.078 124.596 C 336.143 124.596 329.702 114.72 329.702 102.552 C 329.702 90.3843 336.143 80.5083 344.078 80.5083 C 352.014 80.5083 358.455 90.3843 358.455 102.552 z "
       style="fill-rule:evenodd;stroke:#000000;stroke-width:1pt;"
       id="path808" />
    <path
       d="M 357.772 94.7983 C 353.022 99.9093 353.023 102.233 360.938 107.345 L 397.348 103.162 C 401.042 100.839 401.57 95.7273 394.182 92.0103 L 357.772 94.7983 z "
       style="fill-rule:evenodd;stroke:#000000;stroke-width:0.774998pt;"
       id="path809" />
    <path
       d="M 389.251 76.8318 L 398.119 106.2 L 414.786 99.5383 L 405.952 72.2801 L 389.251 76.8318 z M 379.256 66.4785 L 393.879 125.276 L 483.337 100.289 L 468.954 41.4866 L 379.256 66.4785 z "
       style="fill-rule:evenodd;stroke:#000000;stroke-width:0.981394pt;"
       id="path814" />
  </g>
  <path
     d="M 36.3422 49.1802 L 33.7193 67.6232 C 30.3874 71.3553 28.4731 74.4296 28.4731 78.1623 C 27.7973 81.7975 29.2124 87.4505 30.2811 89.1028 C 36.3001 89.8356 81.1752 90.0795 87.1969 89.1028 C 88.0005 86.977 88.804 80.9804 88.804 78.1623 C 88.804 74.4296 86.8885 71.3553 83.5575 67.6232 L 80.9347 49.1802 C 80.4019 45.4307 36.8671 45.4903 36.3422 49.1802 z M 31.0965 90.9339 L 31.0965 105.133 C 31.0965 106.024 31.7023 107.768 34.3252 107.768 C 36.9488 107.839 37.5566 106.606 37.9607 105.133 L 37.9607 96.2027 L 79.5171 96.2027 L 79.5171 105.133 C 79.5171 106.877 81.1334 108.213 82.9527 108.213 C 85.5762 108.056 86.181 106.024 86.181 105.133 L 86.181 90.9339 L 31.0965 90.9339 z M 37.9206 64.9888 L 38.9651 52.0999 C 42.749 50.0609 73.5559 50.5493 78.3118 51.8153 L 79.4783 64.9888 L 37.9206 64.9888 z M 41.2749 84.2336 C 41.2749 86.4449 39.5618 88.2392 37.4509 88.2392 C 35.3396 88.2392 33.6265 86.4449 33.6265 84.2336 C 33.6265 82.0223 35.3396 80.2275 37.4509 80.2275 C 39.5618 80.2275 41.2749 82.0223 41.2749 84.2336 z M 83.945 84.2336 C 83.945 86.4449 82.2317 88.2392 80.1211 88.2392 C 78.0099 88.2392 76.2965 86.4449 76.2965 84.2336 C 76.2965 82.0223 78.0099 80.2275 80.1211 80.2275 C 82.2317 80.2275 83.945 82.0223 83.945 84.2336 z M 44.8981 82.453 L 44.8981 88.9994 L 71.8684 88.9994 L 71.8684 82.453 L 44.8981 82.453 z "
     style="font-size:12;fill-rule:evenodd;stroke:#000000;stroke-width:0.497593pt;"
     id="path594" />
</svg>
