<?xml version="1.0" encoding="UTF-8" standalone="no"?>
<!DOCTYPE svg PUBLIC "-//W3C//DTD SVG 20010904//EN"
"http://www.w3.org/TR/2001/REC-SVG-20010904/DTD/svg10.dtd">
<!-- Created with Sodipodi ("http://www.sodipodi.com/") -->
<svg
   id="svg831"
   sodipodi:version="0.33beta"
   width="90.28pt"
   height="98.89pt"
   sodipodi:docname="F:\sodiimg\museum.svg"
   xmlns="http://www.w3.org/2000/svg"
   xmlns:sodipodi="http://sodipodi.sourceforge.net/DTD/sodipodi-0.dtd"
   xmlns:xlink="http://www.w3.org/1999/xlink"
   sodipodi:docbase="F:\sodiimg">
  <defs
     id="defs833" />
  <sodipodi:namedview
     id="base" />
  <path
     style="font-size:12.000;fill-rule:evenodd;stroke-width:1.000000;"
     d="M 140.162 390.95 L 140.162 399.7 L 190.162 386.112 L 241.956 400.081 L 241.956 391.494 L 190.162 377.362 L 140.162 390.95 z "
     id="path626"
     sodipodi:nodetypes="ccccccc"
     transform="matrix(0.854328,0,0,0.851452,-106.0037,-300.1963)" />
  <path
     style="font-size:12.000;fill:#000000;fill-rule:evenodd;stroke:none;fill-opacity:1;"
     d="M 32.59881 102.0292 L 32.61958 70.46470 C 42.86339 70.30301 50.10334 63.47069 50.18040 53.97202 C 49.71362 43.17706 36.68458 45.40229 36.03419 45.24059 C 30.99359 47.34260 31.80658 58.66111 42.37560 55.42725 L 42.37560 55.42725 L 42.37560 55.42725 L 42.37560 55.42725 L 42.37560 55.42725 C 35.70898 69.81792 23.23522 62.99762 22.37576 52.03169 C 21.80736 45.10033 27.41637 42.26697 32.61958 40.81173 L 82.29541 40.81173 C 87.49857 42.26697 93.10757 45.10033 92.53919 52.03169 C 91.67974 62.99761 79.20599 69.81796 72.53938 55.42726 L 72.53938 55.42726 L 72.53938 55.42726 L 72.53938 55.42726 L 72.53938 55.42726 C 83.10838 58.66113 83.92139 47.34260 78.88078 45.24059 C 78.23039 45.40229 65.20135 43.17706 64.73458 53.97202 C 64.81164 63.47069 72.05159 70.30301 82.29541 70.46470 L 82.66708 102.0292 L 32.99123 102.0292 L 32.99123 102.0292 L 32.99123 102.0292 L 32.99123 102.0292 L 32.59881 102.0292 L 32.59881 102.0292 z M 73.06711 55.42726 L 73.06711 55.42726 L 73.06711 55.42726 L 73.06711 55.42726 L 73.06711 55.42726 L 73.06711 55.42726 L 73.06711 55.42726 L 73.06711 55.42726 L 73.06711 55.42726 z "
     id="path580"
     sodipodi:nodetypes="ccccccccccccccccccccccccccccccccccc" />
</svg>
