<?xml version="1.0" encoding="UTF-8" standalone="no"?>
<!DOCTYPE svg PUBLIC "-//W3C//DTD SVG 20010904//EN"
"http://www.w3.org/TR/2001/REC-SVG-20010904/DTD/svg10.dtd">
<!-- Created with Sodipodi ("http://www.sodipodi.com/") -->
<svg
   id="svg831"
   sodipodi:version="0.33pre"
   width="90.28pt"
   height="98.89pt"
   sodipodi:docbase="/home/aki/myndir_ymisl/mapsymbols-svg"
   sodipodi:docname="/home/aki/myndir_ymisl/mapsymbols-svg/placeofinterest.svg"
   xmlns="http://www.w3.org/2000/svg"
   xmlns:sodipodi="http://sodipodi.sourceforge.net/DTD/sodipodi-0.dtd"
   xmlns:xlink="http://www.w3.org/1999/xlink">
  <defs
     id="defs833" />
  <sodipodi:namedview
     id="base" />
  <path
     style="font-size:12;fill-rule:evenodd;stroke:none;stroke-width:0.704448pt;"
     d="M 30.8071 17.848 C 37.5856 17.848 51.14 20.7469 51.14 43.5281 L 64.6957 43.5281 C 65.2048 20.7469 77.7409 17.848 84.518 17.848 C 98.0737 17.848 105.36 26.6837 105.36 37.1091 C 105.046 43.5217 102.301 56.3701 78.2513 56.3701 L 78.2513 69.2108 C 102.301 69.2108 105.36 82.0515 105.36 88.4719 C 105.36 97.9301 96.5437 107.251 85.0271 107.733 C 78.2568 108.006 64.6957 104.352 64.6957 82.0515 L 51.14 82.0515 C 51.14 104.352 37.5856 107.733 30.8071 107.733 C 19.8024 107.251 10.4756 99.3808 10.4756 88.4719 C 10.4756 82.0515 13.5343 69.2108 37.5856 69.2108 L 37.5856 56.3701 C 13.0252 56.3701 10.8042 43.5217 10.4756 37.1091 C 9.9652 27.6509 17.2528 17.848 30.8071 17.848 z M 51.14 56.3701 L 51.14 69.2108 L 64.6957 69.2108 L 64.6957 56.3701 L 51.14 56.3701 z M 38.2156 44.2432 C 39.6248 31.171 30.894 26.8136 25.4663 32.1652 C 20.3305 37.6827 25.56 44.0117 38.2156 44.2432 z M 38.2156 81.6168 C 39.6248 94.689 30.894 99.0465 25.4663 93.6949 C 20.3305 88.1774 25.56 81.8483 38.2156 81.6168 z M 78.7387 81.6168 C 77.3295 94.689 86.0589 99.0465 91.4866 93.6949 C 96.6225 88.1774 91.393 81.8483 78.7387 81.6168 z M 78.2283 44.2291 C 76.8191 31.1569 85.5485 26.8007 90.9775 32.151 C 96.112 37.6698 90.8825 43.9976 78.2283 44.2291 z "
     id="path640" />
</svg>
