<?xml version="1.0" encoding="UTF-8" standalone="no"?>
<!DOCTYPE svg PUBLIC "-//W3C//DTD SVG 20010904//EN"
"http://www.w3.org/TR/2001/REC-SVG-20010904/DTD/svg10.dtd">
<!-- Created with Sodipodi ("http://www.sodipodi.com/") -->
<svg
   id="svg831"
   sodipodi:version="0.33pre"
   width="90.28pt"
   height="98.89pt"
   sodipodi:docbase="/home/aki/myndir_ymisl"
   sodipodi:docname="/home/aki/myndir_ymisl/restaurant.svg"
   xmlns="http://www.w3.org/2000/svg"
   xmlns:sodipodi="http://sodipodi.sourceforge.net/DTD/sodipodi-0.dtd"
   xmlns:xlink="http://www.w3.org/1999/xlink">
  <defs
     id="defs833" />
  <sodipodi:namedview
     id="base" />
  <g
     id="g731"
     transform="translate(1.250000,-3.814697e-6)">
    <path
       style="font-size:12;fill-rule:evenodd;stroke-width:1pt;"
       d="M 90.4193 10.0037 C 87.504 7.10415 72.0847 25.1285 65.5021 33.4116 C 63.1112 36.4612 61.8698 40.6596 68.0737 46.704 C 12.3575 102.081 2.83829 110.693 7.86228 115.544 C 13.2035 120.696 21.1744 108.698 72.1224 50.506 C 78.1492 56.3763 81.4849 55.3204 85.4748 51.8209 C 93.1001 44.2922 110.151 29.3212 106.65 25.5714 C 102.295 20.9354 86.852 45.8995 82.8656 42.8842 C 78.2427 39.3405 103.055 21.4754 99.0976 17.5617 C 94.5541 13.062 78.2027 39.0155 74.3738 34.8554 C 71.0954 31.3154 94.4069 13.9931 90.4193 10.0037 z "
       id="path703"
       sodipodi:nodetypes="cscscssssss" />
    <path
       style="font-size:12;fill-rule:evenodd;stroke-width:1pt;"
       d="M -18.6809 776.978 C 4.57125 754.403 91.4331 815.498 60.2081 848.018 C 177.004 963.775 228.536 1000.87 212.106 1015.72 C 196.21 1032.26 161.158 976.958 49.9996 857.93 C 16.5231 891.535 -41.3652 799.004 -18.6809 776.978 z "
       id="path707"
       sodipodi:nodetypes="ccccs"
       transform="matrix(0.394686,1.392874e-2,-1.641544e-2,0.400955,32.90093,-296.0175)" />
  </g>
</svg>
