<?xml version="1.0" encoding="UTF-8" standalone="no"?>
<!DOCTYPE svg PUBLIC "-//W3C//DTD SVG 1.0//EN"
"http://www.w3.org/TR/2001/REC-SVG-20010904/DTD/svg10.dtd">
<!-- Created with Sodipodi ("http://www.sodipodi.com/") -->
<svg
   id="svg655"
   sodipodi:version="0.33pre"
   xmlns="http://www.w3.org/2000/svg"
   xmlns:sodipodi="http://sodipodi.sourceforge.net/DTD/sodipodi-0.dtd"
   xmlns:xlink="http://www.w3.org/1999/xlink"
   width="100pt"
   height="100pt"
   sodipodi:docbase="/home/evan/maps/symbols"
   sodipodi:docname="/home/evan/maps/symbols/swimming.svg">
  <defs
     id="defs657" />
  <sodipodi:namedview
     id="base" />
  <g
     id="g600"
     transform="matrix(1.112019,0.000000,0.000000,1.134564,-228.4212,-6.227121)">
    <path
       style="font-size:12.000;fill-rule:evenodd;stroke:#000000;stroke-width:0.256459;"
       d="M 246.6085 37.02441 C 246.6085 39.38193 240.0098 47.99216 244.8745 47.45147 C 249.4943 47.26226 244.1115 46.29031 246.6678 46.96395 C 246.4353 49.04055 247.5905 57.15617 249.4309 58.68003 C 251.2020 58.47155 252.5196 58.40964 254.3732 58.88449 C 255.1296 69.69966 226.0757 58.15989 226.4299 82.51426 C 233.1947 82.33416 231.7658 75.79497 242.0679 75.54869 C 255.6275 75.41861 253.5434 82.38456 262.8933 82.26603 C 269.9476 82.17658 269.9786 75.35464 280.8528 75.35464 C 293.5700 75.35464 292.7768 82.60752 298.5635 82.41347 C 298.5635 60.10836 273.8752 69.67700 273.8752 59.22038 C 273.8752 45.81359 280.4638 53.09806 281.2142 39.28492 C 281.8253 27.41702 276.4576 20.07678 262.5053 20.36917 C 246.5646 20.71070 244.3442 30.02276 244.0238 33.72847 C 243.6696 37.48553 248.9661 37.02441 246.6085 37.02441 L 246.6085 37.02441 L 246.6085 37.02441 L 246.6085 37.02441 L 246.6085 37.02441 L 246.6085 37.02441 L 246.6085 37.02441 z "
       id="path584"
       sodipodi:nodetypes="csccccssscsssssccccc" />
    <path
       style="font-size:12.000;fill-rule:evenodd;stroke:#000000;stroke-width:0.193947;"
       d="M 317.1154 93.64368 C 308.0410 93.64368 313.2713 99.88430 299.7146 99.88430 C 288.3634 99.88430 293.7904 93.64368 280.7959 93.64368 C 269.4447 93.64368 275.3257 99.88430 261.8772 99.88430 C 250.5260 99.88430 256.4502 93.64368 242.9585 93.64368 C 231.6073 93.64368 237.5964 99.88430 224.0398 99.88430 C 212.6886 99.88430 219.5232 92.88475 208.1569 93.64368 C 208.1569 93.64368 208.1569 93.64368 208.1569 104.8234 C 218.7642 104.8234 212.6886 111.0640 224.0398 111.0640 C 237.5964 111.0640 231.6073 104.8234 242.9585 104.8234 C 256.4502 104.8234 250.5260 111.0640 261.8772 111.0640 C 275.3257 111.0640 269.4447 104.8234 280.7959 104.8234 C 293.7904 104.8234 288.3634 111.0640 299.7146 111.0640 C 313.2713 111.0640 308.0410 104.8234 317.1154 104.8234 L 317.1154 93.64368 L 317.1154 93.64368 z "
       id="path583"
       sodipodi:nodetypes="ccccccccccccccc" />
    <path
       style="font-size:12.000;fill-rule:evenodd;stroke:#000000;stroke-width:0.193947;"
       d="M 317.1154 77.70544 C 308.0410 77.70544 313.2713 83.94606 299.7146 83.94606 C 288.3634 83.94606 293.7904 77.70544 280.7959 77.70544 C 269.4447 77.70544 275.3257 83.94606 261.8772 83.94606 C 250.5260 83.94606 256.4502 77.70544 242.9585 77.70544 C 231.6073 77.70544 237.5964 83.94606 224.0398 83.94606 C 212.6886 83.94606 219.5232 76.94651 208.1569 77.70544 C 208.1569 77.70544 208.1569 77.70544 208.1569 88.88516 C 218.7642 88.88516 212.6886 95.12578 224.0398 95.12578 C 237.5964 95.12578 231.6073 88.88516 242.9585 88.88516 C 256.4502 88.88516 250.5260 95.12578 261.8772 95.12578 C 275.3257 95.12578 269.4447 88.88516 280.7959 88.88516 C 293.7904 88.88516 288.3634 95.12578 299.7146 95.12578 C 313.2713 95.12578 308.0410 88.88516 317.1154 88.88516 L 317.1154 77.70544 L 317.1154 77.70544 z "
       id="path599"
       sodipodi:nodetypes="ccccccccccccccc" />
  </g>
</svg>
