<?xml version="1.0" encoding="UTF-8" standalone="no"?>
<!DOCTYPE svg PUBLIC "-//W3C//DTD SVG 20010904//EN"
"http://www.w3.org/TR/2001/REC-SVG-20010904/DTD/svg10.dtd">
<!-- Created with Sodipodi ("http://www.sodipodi.com/") -->
<svg
   id="svg831"
   sodipodi:version="0.33pre"
   width="90.28pt"
   height="98.89pt"
   sodipodi:docbase="/home/aki/myndir_ymisl/mapsymbols-svg"
   sodipodi:docname="/home/aki/myndir_ymisl/mapsymbols-svg/trekkingpath.svg"
   xmlns="http://www.w3.org/2000/svg"
   xmlns:sodipodi="http://sodipodi.sourceforge.net/DTD/sodipodi-0.dtd"
   xmlns:xlink="http://www.w3.org/1999/xlink">
  <defs
     id="defs833" />
  <sodipodi:namedview
     id="base" />
  <g
     id="g712">
    <path
       style="font-size:12;fill-rule:evenodd;stroke:#000000;stroke-width:1pt;"
       d="M 345.148 629.249 C 337.158 629.06 332.146 638.1 328.323 641.186 C 330.015 642.314 330.516 641.953 332.208 643.379 C 332.208 644.476 330.015 652.732 328.323 654.424 C 330.579 654.424 329.858 654.722 332.113 654.722 C 331.518 657.542 332.113 660.361 332.113 663.181 C 333.742 664.967 338.349 661.99 341.764 663.181 C 340.542 666.565 342.297 668.301 343.456 671.685 C 337.032 670.4 335.967 674.473 335.497 677.355 C 333.242 685.815 330.986 693.679 329.921 702.139 C 322.776 702.734 310.997 713.699 304.542 719.058 C 302.85 719.058 297.368 714.672 295.284 715.565 C 294.093 717.397 294.391 721.313 294.391 725.825 C 294.391 725.825 298.087 730.4 301.158 729.209 C 303.634 722.66 323.466 718.557 328.229 717.366 C 333.525 720.029 331.676 727.455 329.827 733.094 C 323.028 744.405 319.206 755.716 313.002 766.431 C 314.318 774.576 311.467 788.08 306.234 806.942 C 302.318 810.984 297.211 813.24 292.699 815.496 C 293.263 817.188 293.827 817.689 294.391 819.381 C 302.318 819.444 307.267 818.316 314.599 817.188 C 315.194 817.188 315.695 818.1 319.769 818.1 C 323.843 818.1 319.675 805.816 321.461 796.885 C 326.631 788.99 331.206 775.14 331.613 769.627 C 337.253 762.358 341.702 752.112 348.532 747.82 C 352.48 758.535 356.427 769.251 360.375 779.966 C 364.887 788.99 369.398 798.013 373.91 807.037 C 373.91 807.037 356.991 818.88 358.683 818.88 C 360.375 818.88 363.759 822.264 363.759 822.264 C 363.759 822.264 390.829 822.264 390.829 820.572 C 390.829 818.88 389.137 808.728 389.137 808.728 C 389.137 808.728 377.294 771.507 377.294 769.815 C 377.294 768.123 367.142 735.977 367.142 735.977 C 368.27 730.901 369.398 725.826 370.526 720.75 C 370.526 720.75 384.061 713.982 384.061 712.29 C 384.061 710.598 373.91 669.993 373.91 669.993 C 368.27 669.429 362.631 668.865 356.991 668.301 C 355.863 664.917 354.735 663.181 353.607 659.797 C 356.233 655.044 360.708 650.154 357.812 639.495 C 358.628 636.675 351.477 629.687 345.148 629.249 z "
       id="path675"
       sodipodi:nodetypes="cccccccccccccccccccccccccccccccccccccccc"
       transform="matrix(0.473515,0.000000,0.000000,0.471698,-121.1703,-279.5301)" />
    <path
       style="font-size:12;fill-rule:evenodd;stroke:#000000;stroke-width:1pt;"
       d="M 405.461 634.463 C 397.345 634.274 397.565 641.23 393.618 644.614 C 394.746 646.306 395.278 646.807 396.406 648.499 L 394.808 656.755 L 398.3 656.566 C 398.3 658.853 399.194 662.63 400.385 664.322 C 402.609 665.512 406.025 662.535 408.845 664.917 C 408.876 668.364 407.717 669.429 407.153 671.685 C 404.301 675.475 399.664 686.41 400.385 691.987 C 399.695 698.786 406.15 703.799 405.461 710.598 C 406.651 715.11 406.651 719.621 405.461 724.133 C 400.385 730.523 392.332 755.371 390.234 764.739 C 388.447 779.434 392.615 793.533 390.234 807.037 L 368.834 818.88 C 368.834 818.88 400.385 820.572 400.385 818.88 C 403.362 815.997 398.598 807.32 400.385 801.961 C 405.022 786.545 404.301 770.534 407.153 766.431 C 411.1 759.663 416.239 749.919 418.996 746.128 C 424.667 747.944 428.552 769.408 434.223 776.582 C 439.267 781.375 446.693 799.267 449.951 806.442 C 445.439 810.421 439.737 813.209 437.011 817.188 C 439.988 817.783 458.912 815.59 461.294 812.112 C 458.317 806.252 452.928 774.106 448.165 771.819 C 444.592 765.959 443.278 750.39 442.683 744.436 C 443.936 737.668 441.617 727.924 439.299 724.133 C 443.435 721.785 441.022 701.574 441.586 690.295 C 440.051 684.092 431.967 677.888 427.456 671.685 C 425.074 668.708 417.304 663.225 418.996 663.225 C 418.901 659.653 425.764 661.533 425.764 661.533 C 425.2 655.893 424.636 650.254 424.072 644.614 C 423.227 641.23 420 633.083 405.461 634.463 z "
       id="path676"
       sodipodi:nodetypes="ccccccccccccccccccccccccccccccc"
       transform="matrix(0.473515,0.000000,0.000000,0.471698,-121.1703,-279.5301)" />
    <path
       style="font-size:12;fill-rule:evenodd;stroke:#000000;stroke-width:1pt;"
       d="M 298.89 729.061 L 332.828 813.607 L 301.867 727.274 L 298.89 729.061 z "
       id="path677"
       transform="matrix(0.473515,0.000000,0.000000,0.471698,-121.1703,-279.5301)" />
  </g>
</svg>
