<?xml version="1.0" encoding="UTF-8" standalone="no"?>
<!DOCTYPE svg PUBLIC "-//W3C//DTD SVG 20010904//EN"
"http://www.w3.org/TR/2001/REC-SVG-20010904/DTD/svg10.dtd">
<!-- Created with Sodipodi ("http://www.sodipodi.com/") -->
<svg
   id="svg831"
   sodipodi:version="0.33pre"
   width="90.28pt"
   height="98.89pt"
   sodipodi:docbase="/home/aki/myndir_ymisl/servicesigns2-svg"
   sodipodi:docname="/home/aki/myndir_ymisl/servicesigns2-svg/whalewatching.svg"
   xmlns="http://www.w3.org/2000/svg"
   xmlns:sodipodi="http://sodipodi.sourceforge.net/DTD/sodipodi-0.dtd"
   xmlns:xlink="http://www.w3.org/1999/xlink">
  <defs
     id="defs833" />
  <sodipodi:namedview
     id="base" />
  <g
     id="g834"
     transform="matrix(0.855550,0.000000,0.000000,0.869107,-50.61703,-638.6916)">
    <g
       id="g805"
       transform="matrix(1.054054,0.000000,0.000000,0.970237,-33.33406,201.9029)">
      <path
         style="font-size:12;fill-rule:evenodd;stroke-width:1pt;"
         d="M 504.614 768.988 L 506.027 786.404 C 506.498 789.385 507.91 790.954 510.263 791.582 C 512.931 791.582 516.076 783.968 521.561 784.521 C 526.002 785.01 530.504 791.739 532.387 791.582 L 532.386 763.809 C 522.501 763.809 511.675 764.751 504.614 768.988 z "
         id="path781"
         sodipodi:nodetypes="cccsccc"
         transform="translate(-408.9582,-174.5124)" />
      <path
         style="font-size:12;fill-rule:evenodd;stroke-width:1pt;"
         d="M 562.042 768.988 L 560.629 786.404 C 560.158 789.385 558.746 790.954 556.393 791.582 C 553.725 791.582 550.58 783.968 545.095 784.521 C 540.654 785.01 536.152 791.739 534.269 791.582 L 534.27 763.809 C 544.155 763.809 554.981 764.751 562.042 768.988 z "
         id="path782"
         sodipodi:nodetypes="cccsccc"
         transform="translate(-408.9582,-174.5124)" />
      <path
         style="font-size:12;fill-rule:evenodd;stroke-width:1pt;"
         d="M 531.886 747.427 L 531.886 761.001 C 527.979 762.311 518.483 762.661 514.402 761.001 C 515.373 758.207 516.345 753.017 519.745 750.222 C 524.116 747.826 531.886 747.028 531.886 747.427 z "
         id="path783"
         sodipodi:nodetypes="ccccc"
         transform="translate(-408.9582,-174.5124)" />
      <path
         style="font-size:12;fill-rule:evenodd;stroke-width:1pt;"
         d="M 534.314 747.427 L 534.314 761.001 C 540.753 762.311 548.154 762.661 551.798 761.001 C 550.827 758.207 549.856 753.017 546.455 750.222 C 542.084 747.826 534.314 747.028 534.314 747.427 z "
         id="path784"
         sodipodi:nodetypes="ccccc"
         transform="translate(-408.9582,-174.5124)" />
      <path
         style="font-size:12;fill-rule:evenodd;stroke-width:1pt;"
         d="M 505.587 768.987 C 505.587 768.987 510.999 762.2 510.526 756.61 C 510.638 753.853 510.841 750.909 511.243 748.625 L 533.4 743.435 L 555.554 748.625 C 556.498 750.621 556.026 753.017 556.498 757.01 C 556.969 763.797 561.211 768.588 561.211 768.588 L 558.384 767.39 C 558.384 767.39 553.635 760.516 553.373 759.642 C 553.023 758.095 552.079 752.218 552.079 750.621 L 533.4 745.032 L 515.015 750.222 C 515.015 750.222 514.545 758.207 513.129 760.203 C 511.715 762.2 508.416 767.789 508.416 767.789 L 505.587 768.987 z "
         id="path785"
         sodipodi:nodetypes="ccccccccccccccc"
         transform="translate(-408.9582,-174.5124)" />
      <path
         style="font-size:12;fill-rule:evenodd;stroke-width:1pt;"
         d="M 519.3 747.357 C 518.843 747.401 517.886 740.675 522.659 740.64 C 528.022 740.594 526.585 745.415 526.062 745.63 C 524.642 746.213 526.822 741.736 522.697 741.804 C 519.305 741.86 521.365 747.161 519.3 747.357 z "
         id="path786"
         sodipodi:nodetypes="cssss"
         transform="translate(-408.9582,-174.5124)" />
      <path
         style="font-size:12;fill-rule:evenodd;stroke-width:1pt;"
         d="M 526.059 746.229 L 526.544 739.442 L 528.487 739.442 L 528.487 745.032 L 526.059 746.229 z "
         id="path787"
         sodipodi:nodetypes="ccccc"
         transform="translate(-408.9582,-174.5124)" />
      <path
         style="font-size:12;fill-rule:evenodd;stroke-width:1pt;fill:#000000;fill-opacity:1;"
         d="M 95.0758 615.831 L 95.0758 619.845 C 94.6138 619.823 94.7018 623.888 100.649 623.888 C 106.598 623.888 106.598 615.831 112.545 615.831 C 118.494 615.831 118.494 623.888 124.442 623.888 C 130.39 623.888 130.39 615.831 136.337 615.831 C 142.287 615.831 141.644 624.164 148.233 624.156 C 154.738 624.148 154.181 615.831 160.129 615.831 L 160.129 611.802 C 154.181 611.802 152.035 619.5 148.233 619.86 C 144.029 620.22 142.86 611.903 136.624 611.853 C 130.39 611.802 128.414 619.86 124.442 619.86 C 120.47 619.86 118.494 611.802 112.545 611.802 C 106.165 611.802 104.227 619.86 100.649 619.86 C 94.7018 619.86 95.0758 615.831 95.0758 615.831 z "
         id="path789"
         sodipodi:nodetypes="ccccccccccccccc" />
    </g>
    <path
       style="font-size:12;fill-opacity:1;fill-rule:evenodd;stroke-width:1pt;fill:#000000;"
       d="M 159.811 854.999 C 158.134 856.894 176.162 864.093 178.678 862.956 C 182.03 859.925 170.711 861.441 159.811 854.999 z M 114.954 828.854 C 115.372 833.022 119.145 831.127 123.338 832.643 C 127.53 834.159 130.884 840.221 133.819 842.495 C 136.753 844.768 145.976 849.695 147.653 848.179 C 149.331 846.663 140.945 844.39 137.592 841.359 C 134.238 838.328 132.561 832.643 129.627 830.749 C 116.209 825.823 114.954 829.232 114.954 828.854 z M 166.519 848.179 C 164.423 850.453 174.065 858.409 177.418 856.137 C 180.773 853.862 169.454 844.39 166.519 848.179 z M 157.715 798.92 C 155.397 814.381 150.388 810.156 148.073 815.213 C 143.123 817.481 138.122 812.546 128.369 812.939 C 114.591 814.312 91.9332 824.372 85.1872 835.296 C 82.584 834.532 78.3924 833.858 75.9647 834.538 C 76.7167 835.754 76.1494 839.785 79.3185 840.221 C 79.6431 842.941 76.6045 847.717 78.0598 851.21 C 88.483 846.201 84.443 839.3 86.8641 838.706 C 96.4613 838.037 107.648 831.87 117.049 833.022 C 124.14 833.891 129.017 840.544 135.497 845.148 C 138.38 846.859 143.74 848.644 145.137 849.695 C 144.298 850.286 141.351 852.08 139.269 854.242 C 148.337 858.9 154.872 854.566 157.713 855.759 C 161.859 860.63 181.622 865.836 184.126 864.093 C 188.289 860.903 179.236 845.813 174.904 840.601 C 171.304 835.951 157.715 823.928 156.039 822.033 C 157.715 819.381 159.811 813.317 159.392 808.014 C 159.811 804.603 160.708 800.993 157.715 798.92 z "
       id="path832"
       sodipodi:nodetypes="ccccccccccccccccccccccccccssccc" />
  </g>
</svg>
