<?xml version="1.0" encoding="UTF-8" standalone="no"?>
<!DOCTYPE svg PUBLIC "-//W3C//DTD SVG 1.0//EN"
"http://www.w3.org/TR/2001/REC-SVG-20010904/DTD/svg10.dtd">
<!-- Created with Sodipodi ("http://www.sodipodi.com/") -->
<svg
   id="svg637"
   sodipodi:version="0.33pre"
   xmlns="http://www.w3.org/2000/svg"
   xmlns:sodipodi="http://sodipodi.sourceforge.net/DTD/sodipodi-0.dtd"
   xmlns:xlink="http://www.w3.org/1999/xlink"
   width="100pt"
   height="100pt"
   sodipodi:docbase="/home/evan/maps/symbols"
   sodipodi:docname="/home/evan/maps/symbols/rangerstation.svg">
  <defs
     id="defs639" />
  <sodipodi:namedview
     id="base"
     showgrid="true"
     snaptogrid="true" />
  <g
     id="g644"
     transform="matrix(0.540754,0.000000,0.000000,0.576454,-28.11920,-2.309608)">
    <path
       style="font-size:12.000;fill-rule:evenodd;stroke:#000000;stroke-width:0.411495;"
       d="M 209.1664 24.80312 L 134.8684 96.33661 L 149.7279 96.33661 L 149.7279 203.6368 L 194.3068 203.6368 L 194.3068 149.1079 L 225.0449 149.1079 L 225.0450 203.6368 L 268.6049 203.6368 L 268.6049 96.33661 L 283.4645 96.33661 L 209.1664 24.80312 L 209.1664 24.80312 L 209.1664 24.80312 z "
       id="path645"
       sodipodi:nodetypes="ccccccccccccc" />
    <path
       style="font-size:12.000;fill-rule:evenodd;stroke:#000000;stroke-width:0.411495;"
       d="M 60.57025 139.2567 L 78.65655 139.2567 C 78.65655 139.2567 82.85965 150.3342 53.14045 175.0234 L 84.81265 175.0232 L 84.81265 203.6366 L 100.2241 203.6366 L 99.67225 175.0232 L 134.8683 175.0234 C 101.9224 150.8656 105.1491 139.2567 105.1491 139.2567 L 124.6788 139.2567 C 100.5213 117.7967 94.91725 74.87662 94.49265 74.87662 C 94.49265 74.87662 90.28945 114.3222 60.57025 139.2567 L 60.57025 139.2567 L 60.57025 139.2567 z "
       id="path646"
       sodipodi:nodetypes="ccccccccccccc" />
    <rect
       style="font-size:12.000;fill:#000000;fill-rule:evenodd;stroke-width:1.000000;fill-opacity:1;"
       id="rect647"
       width="229,999986"
       height="6,000000"
       x="52,133850"
       y="203,267909" />
  </g>
</svg>
