<?xml version="1.0" encoding="UTF-8" standalone="no"?>
<!DOCTYPE svg PUBLIC "-//W3C//DTD SVG 1.0//EN"
"http://www.w3.org/TR/2001/REC-SVG-20010904/DTD/svg10.dtd">
<!-- Created with Sodipodi ("http://www.sodipodi.com/") -->
<svg
   xmlns="http://www.w3.org/2000/svg"
   xmlns:xlink="http://www.w3.org/1999/xlink"
   version="1.0"
   x="0"
   y="0"
   width="744.094482"
   height="744.094482"
   id="svg607"
   xml:space="preserve"><defs
   id="defs609"><linearGradient
   id="linearGradient750"><stop
   style="stop-color:#00001d;stop-opacity:1;"
   offset="0"
   id="stop751" /><stop
   style="stop-color:#6262ca;stop-opacity:1;"
   offset="1"
   id="stop752" /></linearGradient><linearGradient
   id="linearGradient677"><stop
   style="stop-color:#9eedff;stop-opacity:1;"
   offset="0"
   id="stop678" /><stop
   style="stop-color:#5272ff;stop-opacity:1;"
   offset="1"
   id="stop679" /></linearGradient><radialGradient
   cx="0.49702808"
   cy="0.36720482"
   r="0.44786727"
   fx="0.49702808"
   fy="0.36720482"
   id="radialGradient680"
   xlink:href="#linearGradient677" /><linearGradient
   x1="-1.19588494"
   y1="0.22314334"
   x2="-1.19588459"
   y2="0.87131637"
   id="linearGradient748"
   xlink:href="#linearGradient750" /><linearGradient
   x1="1.64472425"
   y1="0.17288451"
   x2="1.64472461"
   y2="0.76852036"
   id="linearGradient749"
   xlink:href="#linearGradient750"
   gradientTransform="scale(0.905223,1.1047)" /></defs><g
   transform="matrix(1.152476,0,0,1.152476,-52.80788,18.31919)"
   style="font-size:12;"
   id="g1149"><rect
   width="638.452148"
   height="639.282104"
   x="49.419281"
   y="-12.7123013"
   style="fill:#ebb3fd;fill-rule:evenodd;stroke-width:2.5;"
   id="rect1138" /><path
   d="M 333.352 213.134 C 353.8209 183.8926 397.6831 151.7269 427.6555 147.3408 C 437.1589 148.0717 456.1658 163.4235 477.3659 167.0788 C 493.3962 169.2899 508.8004 180.2374 514.6487 180.2374 "
   style="fill:none;fill-rule:evenodd;stroke:#2c0059;stroke-width:1pt;"
   id="path1139" /><path
   d="M 361.8623 424.4031 C 383.7934 454.3755 373.559 472.6514 380.1382 482.8859 "
   style="fill:none;fill-rule:evenodd;stroke:#2c0059;stroke-width:1pt;"
   id="path1147" /><path
   d="M 512.4556 497.5066 C 492.7176 476.3065 470.7866 463.879 456.1659 455.1066 C 441.5452 446.3341 432.0417 456.5686 417.421 452.9134 "
   style="fill:none;fill-rule:evenodd;stroke:#2c0059;stroke-width:1pt;"
   id="path1148" /><path
   d="M 429.8486 145.1477 C 443.0072 140.0304 454.7038 143.6857 460.5521 142.2236 C 466.4004 140.7615 478.828 138.5683 486.8694 140.0304 C 494.9107 141.4925 540.2349 155.3822 554.1246 161.9615 C 568.0142 168.5408 578.9797 159.7683 605.297 194.127 "
   style="fill:none;fill-rule:evenodd;stroke:#2c0059;stroke-width:1pt;"
   id="path1140" /><path
   d="M 418.152 143.6856 C 410.8417 107.1338 415.2279 86.66496 380.1382 60.34767 C 345.0486 34.03038 342.1244 22.33376 332.621 20.87173 C 323.1175 19.40971 267.5588 27.45102 255.1312 33.29933 C 242.7036 39.14764 208.345 50.84412 183.4898 49.3821 C 158.6346 47.92007 119.1587 46.45798 86.26214 59.61662 C 53.36556 72.77527 64.33109 99.82361 67.25523 134.1822 C 70.17937 168.5408 89.50966 223.2318 105.0801 244.359 "
   style="fill:none;fill-rule:evenodd;stroke:#2c0059;stroke-width:1pt;"
   id="path1141" /><path
   d="M 258.7864 49.38206 C 275.6002 40.60963 305.5727 34.03035 313.614 34.03035 "
   style="fill:none;fill-rule:evenodd;stroke:#2c0059;stroke-width:1pt;"
   id="path1145" /><path
   d="M 208.345 66.92693 C 199.5726 62.54071 176.1795 58.1545 160.0967 58.1545 "
   style="fill:none;fill-rule:evenodd;stroke:#2c0059;stroke-width:1pt;"
   id="path1146" /><path
   d="M 203.2277 95.43729 C 171.0622 74.96831 147.6691 77.16145 130.8553 80.81662 "
   style="fill:none;fill-rule:evenodd;stroke:#2c0059;stroke-width:1pt;"
   id="path1143" /><path
   d="M 72.37247 87.3959 C 73.83454 115.1752 86.99316 156.8442 93.57248 169.2718 "
   style="fill:none;fill-rule:evenodd;stroke:#2c0059;stroke-width:1pt;"
   id="path1144" /><path
   d="M 131.4929 243.1064 C 102.9825 241.6443 67.29997 245.3457 52.4053 252.656 "
   style="fill:none;fill-rule:evenodd;stroke:#2c0059;stroke-width:1pt;"
   id="path1142" /><path
   d="M 330.9295 359.9557 C 246.9243 339.5909 184.5568 354.8645 129.8262 368.8654 "
   style="fill:none;fill-rule:evenodd;stroke:#2c0059;stroke-width:1pt;"
   id="path972" /><path
   d="M 324.5655 377.775 C 235.4691 373.9566 193.4665 413.4136 170.556 423.596 "
   style="fill:none;fill-rule:evenodd;stroke:#2c0059;stroke-width:1pt;"
   id="path973" /><path
   d="M 222.741 457.9618 C 185.8297 441.4153 176.92 429.9601 133.6446 437.5969 "
   style="fill:none;fill-rule:evenodd;stroke:#2c0059;stroke-width:1pt;"
   id="path976" /><path
   d="M 421.2988 377.775 C 458.2101 367.5926 498.9399 362.5013 514.2136 363.7742 "
   style="fill:none;fill-rule:evenodd;stroke:#2c0059;stroke-width:1pt;"
   id="path974" /><path
   d="M 445.4821 357.4102 C 470.9382 337.0453 538.3969 307.7707 561.3074 301.4067 "
   style="fill:none;fill-rule:evenodd;stroke:#2c0059;stroke-width:1pt;"
   id="path975" /></g><g
   transform="matrix(1.152476,0,0,1.152476,-37.9019,21.27016)"
   style="font-size:12;"
   id="g977"><g
   id="ihu"><path
   d="M 270.7732 175.2575 C 272.2049 180.0895 274.5315 182.7741 276.3211 184.3847 C 279.5424 185.6375 283.8376 188.1429 291.712 188.3219 C 299.5864 188.5009 313.1878 188.143 321.2411 193.3329 C 329.2945 198.5229 340.3904 206.5763 349.3386 216.4193 C 358.2868 226.2624 360.7923 230.0206 364.5506 232.3472 C 368.3088 234.6737 387.9948 249.8857 393.3638 255.0757 C 407.323 256.8653 423.7181 260.8295 431.8329 262.8377 C 423.6582 272.1311 418.3365 277.265 412.34 284.2214 C 407.4998 283.8238 396.2273 282.8151 392.648 281.5624 C 389.0687 280.3096 388.3528 280.6675 386.3842 280.6675 C 384.4156 280.6675 380.1204 279.5937 377.9729 277.9831 C 375.8253 276.3724 370.0985 272.7932 366.1612 270.8246 C 362.224 268.8559 356.6761 264.7397 352.7389 262.0553 C 354.1706 270.4666 357.034 279.2358 357.9288 281.9203 C 358.8237 284.6048 362.224 291.5844 367.5929 293.553 C 372.9619 295.5216 387.458 295.7005 400.1645 299.9957 C 406.7862 288.9 425.3985 269.9297 435.2415 259.5498 C 445.0845 249.1698 463.6969 232.1682 469.0658 227.5152 C 474.4347 222.8621 478.014 218.9248 480.8774 216.2404 C 483.7408 213.5559 487.1412 211.5873 490.5415 212.1242 C 493.9418 212.6611 505.2166 213.9138 509.8697 218.209 C 514.5227 222.5042 515.9544 222.683 518.4599 230.9154 C 520.9655 239.1478 526.8713 256.3284 529.5557 266.7083 C 532.2402 277.0883 535.6405 289.6157 541.7253 305.7225 C 547.8101 321.8294 553.1791 338.8311 556.7583 346.1686 C 560.3376 353.5061 562.1273 355.1167 563.7379 356.7274 C 565.3486 358.3381 566.0645 361.0225 566.9593 362.6333 C 567.8541 364.244 573.76 372.2973 580.2027 376.0556 C 586.6454 379.8139 598.0991 386.7935 599.1729 387.8672 C 600.2467 388.941 601.1415 390.7307 600.9626 391.9835 C 602.2153 393.2362 601.8574 394.8469 601.3205 395.9207 C 602.5949 397.0251 602.9438 398.8147 601.5736 399.836 C 605.2092 401.6692 603.1536 403.6902 602.5949 404.9647 C 602.3815 407.7144 602.8877 410.3734 600.0243 412.3419 C 597.1609 414.3106 592.3722 413.1012 589.1509 410.9536 C 585.9295 408.8061 573.76 398.9631 568.9279 396.2786 C 564.0959 393.5941 557.1163 393.0572 551.5684 391.2676 C 546.0205 389.478 540.6515 389.657 539.2198 382.3194 C 537.7881 374.9818 537.4302 367.1073 533.6719 359.9488 C 529.9137 352.7903 518.8179 338.831 512.9121 329.8828 C 507.0062 320.9346 491.9732 303.3961 486.2463 284.4259 C 480.3405 293.553 474.2557 302.1434 468.5289 312.1653 C 462.802 322.1873 454.7486 335.9676 445.2635 348.6741 C 435.7784 361.3805 431.8412 364.7809 423.2509 371.7605 C 435.7784 380.5298 448.4849 390.1938 455.4645 394.489 C 462.4441 398.7841 478.3719 406.6584 484.0988 409.7009 C 489.8256 412.7433 495.5525 417.0384 500.0266 420.4388 C 504.5007 423.8391 517.5652 436.3666 531.3454 451.0417 C 545.1257 465.7168 573.581 496.1408 579.6658 501.5097 C 585.7506 506.8786 591.4775 511.5317 594.5198 512.6055 C 597.5622 513.6792 616.8904 519.2272 623.691 520.3009 C 630.4917 521.3747 635.5106 523.4282 641.0507 524.2031 C 645.3088 524.9189 650.1727 525.4261 650.3568 528.0685 C 650.986 530.9282 649.283 534.548 646.0256 534.6531 C 645.8467 537.1586 645.1667 539.2711 643.735 539.8081 C 643.1982 541.5977 642.4823 544.8191 640.6927 544.8191 C 640.3347 546.6087 639.5447 548.3677 636.6685 546.9015 C 635.7737 549.586 634.2833 551.3956 631.6268 549.4377 C 627.2665 546.0643 622.6173 548.9352 616.7114 547.5035 C 610.8056 546.0718 601.3205 544.1032 595.5936 544.8191 C 589.8668 545.5349 584.6768 547.6825 580.3817 541.5977 C 576.0865 535.5129 574.6547 532.6495 570.7175 528.8912 C 566.7804 525.133 553.716 514.753 541.0095 507.0576 C 528.303 499.3621 494.1208 478.4233 483.7408 466.0747 C 473.3609 453.7262 472.466 451.0417 469.7816 447.1045 C 451.3483 443.3462 439.1787 440.6617 421.9981 436.5456 C 404.8175 432.4294 378.5098 426.1657 364.0136 419.186 C 349.5175 412.2064 331.8001 399.321 319.9884 385.5407 C 308.1767 371.7605 302.9868 360.4857 302.2709 352.2533 C 301.5551 344.021 301.1971 341.8734 297.2599 335.0728 C 293.3227 328.2721 292.2489 322.7241 281.3321 314.1339 C 270.4152 305.5436 254.6664 291.0476 244.2864 279.0569 C 233.9065 267.0662 228.7165 260.2657 227.1059 257.9391 C 225.4952 255.6125 224.6004 255.4335 222.9897 255.4335 C 221.379 255.4335 219.9473 255.6125 219.2314 256.8653 C 218.5156 258.118 210.6411 274.2248 203.1246 284.0679 C 195.6081 293.9109 183.9754 309.3019 179.5013 317.5342 C 185.5861 327.3773 199.1874 348.1372 204.5564 359.7699 C 209.9253 371.4026 219.4104 393.2361 221.9159 397.5313 C 224.4214 401.8265 229.7903 408.2693 233.5486 410.7747 C 237.3068 413.2802 246.0545 422.2031 248.4467 424.4668 C 250.3703 427.2234 251.624 430.2818 251.9819 431.1767 C 252.3398 432.0715 254.8355 438.5115 254.1196 441.554 C 253.4037 444.5964 250.5232 442.3337 248.9395 440.3038 C 248.9395 442.0935 248.9395 444.0621 245.8971 444.42 C 245.1813 446.5676 242.4968 448.3572 240.5282 447.9993 C 239.6334 450.1469 239.9913 451.3996 235.6961 450.8627 C 231.401 450.3259 225.8531 450.3259 224.2424 449.0731 C 222.6317 447.8203 219.7683 446.0307 217.4418 439.0511 C 215.1152 432.0715 215.4732 425.4498 211.7149 418.6491 C 207.9567 411.8485 192.3868 390.5517 188.0916 384.4669 C 183.7965 378.3822 164.2893 351.3585 158.7414 344.021 C 153.1936 336.6834 147.2877 329.167 146.5719 326.8404 C 145.856 324.5138 145.1402 323.4401 146.035 317.8922 C 146.9298 312.3443 153.3725 293.9109 159.4573 283.531 C 165.5421 273.1511 183.4385 242.3691 189.1654 234.8526 C 194.8923 227.3362 210.9991 210.3345 217.4418 206.5763 C 223.8845 202.818 234.2644 197.4492 236.233 194.7647 C 236.591 186.8902 236.0541 173.11 232.8327 166.3093 C 229.6114 159.5086 228.5376 157.0032 226.0321 153.4239 C 221.2 152.1711 216.7259 149.3076 214.7573 145.9073 C 212.7887 142.5071 210.4622 141.2542 210.1042 135.7064 C 209.7463 130.1585 210.8201 129.6216 212.0728 128.3688 C 207.0618 120.3154 202.9457 104.2086 206.346 92.21802 C 209.7463 80.22743 225.6742 61.25725 251.445 63.58376 C 277.2159 65.91026 289.0275 74.67957 293.1437 84.16466 C 297.2599 93.64975 299.0496 104.2086 299.0496 108.6828 C 299.0496 113.1569 299.2285 111.7251 298.3337 114.9465 C 297.4389 118.1678 296.3651 122.642 296.0072 124.4317 C 295.6492 126.2213 295.4703 129.8006 295.6492 132.1271 C 295.8282 134.4536 296.544 142.507 294.5754 147.3391 C 292.6068 152.1711 288.1327 161.1194 283.8376 165.5935 C 279.5424 170.0676 273.0997 175.0785 270.7732 175.2575 z "
   style="fill:#f1bb93;stroke-width:1.25;"
   id="path611" /><path
   d="M 208.875 277.9375 C 206.5 279.8125 196.5625 293.0625 190.875 300.625 C 189.4375 295.4375 196.125 286.4375 195.125 284.0625 C 194.1875 281.6875 189 273.1875 187.125 271.75 C 185.3125 270.4375 178.8125 267.5 173.375 268 C 167.625 278.75 161.75 292.375 159 298.3125 C 155.5625 305.6875 156.0625 316.0625 158.5 317.5625 C 161 319.0625 170.4375 324.5 173.9375 329.9375 C 177.375 335.375 187.5625 362.4375 201.4375 381.625 C 204.3125 385.625 224.25 409.1875 224.6875 413.4375 C 225.1875 419.75 232.125 433.625 234.0625 434.125 C 236.0625 434.625 240.5 434.625 242.9375 434.125 C 239.5 432.125 237.5 430.625 236.5625 429.1875 C 242 429.1875 247.375 433.125 248.875 434.125 C 249.375 434.4375 250.8125 434.5625 253.0625 434.375 C 253.6875 436.3125 254.5625 439.625 254.125 441.5625 C 253.375 444.625 250.5 442.3125 248.9375 440.3125 C 248.9375 442.0625 248.9375 444.0625 245.875 444.4375 C 245.1875 446.5625 242.5 448.375 240.5 448 C 239.625 450.125 240 451.375 235.6875 450.875 C 231.375 450.3125 225.875 450.3125 224.25 449.0625 C 222.625 447.8125 219.75 446 217.4375 439.0625 C 215.125 432.0625 215.5 425.4375 211.6875 418.625 C 207.9375 411.875 192.375 390.5625 188.0625 384.4375 C 183.8125 378.375 164.3125 351.375 158.75 344 C 153.1875 336.6875 147.3125 329.1875 146.5625 326.8125 C 145.875 324.5 145.125 323.4375 146.0625 317.875 C 146.9375 312.375 153.375 293.9375 159.4375 283.5 C 162.9375 277.5625 170.3125 264.9375 176.625 254.75 C 177.75 257.25 201.75 261.8125 208.875 277.9375 z "
   style="fill:#e29c73;fill-rule:evenodd;stroke-width:1pt;"
   id="path831" /><path
   d="M 358.5112 238.0578 C 368.3875 247.4404 376.9814 252.4045 380.2391 254.8476 C 383.6959 257.8104 389.1279 263.2425 391.5969 265.2178 C 394.066 267.193 417.7692 271.6374 422.2136 272.625 C 418.2631 276.5756 415.794 281.0199 412.3373 283.9828 C 403.9424 282.9952 395.0536 283.489 393.0784 282.0076 C 391.1031 280.5261 389.6217 280.5261 387.1526 280.5261 C 384.6835 280.5261 380.733 280.0323 375.7948 276.5756 C 370.8566 273.1189 349.1287 262.2549 346.1658 257.3167 C 349.1287 249.4156 357.0298 242.0084 358.5112 238.0578 z "
   style="fill:#e29c73;fill-rule:evenodd;stroke-width:1pt;"
   id="path821" /><path
   d="M 400.0914 331.5379 C 415.9887 296.331 444.1754 269.516 451.9189 262.5636 C 461.6668 252.7351 470.4496 245.5361 475.6302 241.4918 C 480.363 237.343 484.5534 222.3946 486.6897 225.937 C 489.8323 230.0546 492.8985 237.9932 496.3916 241.6117 C 500.2656 244.47 506.8911 249.4448 508.0777 255.4652 C 512.8796 279.2638 512.8117 290.9255 520.9982 306.3103 C 528.0374 321.7397 543.5651 355.9182 547.2741 360.3626 C 552.8119 366.4066 558.7376 371.4244 561.6751 375.9869 C 564.6126 380.5494 582.5 402.0625 585.8125 404.375 C 589.0625 406.625 594.875 410.875 602.0625 407.9375 C 602.75 405.3125 601.4375 403.6875 599.125 402.375 C 601.125 401.4375 601.4375 400.75 601.4375 399.4375 C 599.4375 398.5 597.8125 398.5 597.1875 397.8125 C 601.125 397.5 600.125 397.1875 600.75 395.5625 C 598.5 394.5625 596.875 393.9375 596.1875 393.25 C 599.25 393.25 600.625 393.25 601 392.125 C 602.1875 393.375 601.875 394.9375 601.3125 395.9375 C 602.625 397 602.9375 398.8125 601.5625 399.8125 C 605.1875 401.6875 603.125 403.6875 602.625 404.9375 C 602.375 407.6875 602.875 410.375 600 412.3125 C 597.1875 414.3125 592.375 413.125 589.125 410.9375 C 585.9375 408.8125 573.75 398.9375 568.9375 396.25 C 564.125 393.625 557.125 393.0625 551.5625 391.25 C 546 389.5 540.625 389.6875 539.25 382.3125 C 537.8125 375 537.4375 367.125 533.6875 359.9375 C 529.9375 352.8125 518.8125 338.8125 512.9375 329.875 C 507 320.9375 492 303.375 486.25 284.4375 C 480.3125 293.5625 474.25 302.125 468.5 312.1875 C 462.8125 322.1875 454.75 335.9375 445.25 348.6875 C 435.8125 361.3125 431.875 364.6875 423.375 371.625 C 412.9375 363.5 386.0625 347 380.5 343.75 C 390.4225 340.8401 397.1538 336.7879 400.0914 331.5379 z M 600.9375 391.875 C 598.125 390.6875 597.4375 390.625 596.1875 389.6875 C 597.625 389.6875 599.0625 389.6875 600.1875 389.3125 C 600.75 390.125 601 391.0625 600.9375 391.875 z "
   style="fill:#e29c73;stroke-width:0.625;"
   id="path819" /><path
   d="M 375.8125 359.75 C 367.875 361.1875 359.0625 365.4375 352.8125 372.5 C 371 387 417.1875 411.9375 441.875 420.4375 C 466.5625 428.9375 477.0625 428.9375 479.875 427.25 C 482.75 425.5625 487.25 428.6875 487.8125 430.9375 C 488.375 433.1875 488.375 438.3125 495.1875 439.75 C 502 441.1875 504 442.5625 509.125 446.8125 C 514.1875 451.0625 538.625 482.3125 550.8125 495.3125 C 563 508.375 584.5625 524.25 587.6875 524 C 590.8125 523.6875 597.875 533.0625 602.125 535.625 C 606.375 538.1875 622.25 544.125 624.8125 544.125 C 627.375 544.125 631.0625 545.8125 633.625 544.375 C 632.5 543.8125 631.625 542.6875 631.0625 542.6875 C 633.875 541.5625 636.75 543.8125 638.4375 543.25 C 637.5625 541.5625 637.3125 541.25 635.625 540.4375 C 637.5625 539.5625 639 540.125 641.5625 539 C 639.875 537.3125 638.6875 536.4375 637.3125 536.4375 C 641.5625 535.625 643.5625 535.875 644.6875 534.5 C 641.5625 532.75 639.3125 531.625 637.3125 531.625 C 642.5625 531.0625 647.0625 534.625 650.4375 529.5625 C 650.375 532.0625 648.75 534.5625 646 534.625 C 645.875 537.1875 645.1875 539.25 643.75 539.8125 C 643.1875 541.625 642.5 544.8125 640.6875 544.8125 C 640.3125 546.625 639.5625 548.375 636.6875 546.875 C 635.75 549.5625 634.3125 551.375 631.625 549.4375 C 627.25 546.0625 622.625 548.9375 616.6875 547.5 C 610.8125 546.0625 601.3125 544.125 595.5625 544.8125 C 589.875 545.5625 584.6875 547.6875 580.375 541.625 C 576.0625 535.5 574.625 532.625 570.6875 528.875 C 566.75 525.125 553.6875 514.75 541 507.0625 C 528.3125 499.375 494.125 478.4375 483.75 466.0625 C 473.375 453.75 472.4375 451.0625 469.8125 447.125 C 451.375 443.375 439.1875 440.6875 422 436.5625 C 404.8125 432.4375 378.5 426.1875 364 419.1875 C 349.5 412.1875 331.8125 399.3125 320 385.5625 C 318.125 383.375 316.4375 381.25 315.1875 379.3125 C 331.8125 360.0625 353.375 344.3125 357.0625 345.875 C 363.0625 348.4375 377.5 351.5625 375.8125 359.75 z "
   style="fill:#e29c73;stroke-width:0.625;"
   id="path812" /><path
   d="M 356.2757 277.6871 C 349.1651 275.4417 344.3 275.816 341.3061 276.5645 C 338.3122 277.3129 324.0911 276.9386 320.723 279.1841 C 317.3548 281.4296 306.5019 286.2947 303.1337 290.037 C 299.7656 293.7794 302.7595 302.7612 303.8822 305.0066 C 305.0049 307.252 311.7412 312.4913 313.9866 313.6141 C 316.2321 314.7368 318.8518 320.7247 318.8518 322.9701 C 312.4897 330.4548 304.6307 343.5533 302.011 345.7987 C 299.3913 338.6881 294.4168 329.8675 292.1714 325.7509 C 289.926 321.6343 283.6733 315.4852 277.3112 310.9944 C 282.9248 298.2703 309.4958 275.4418 318.4775 273.1963 C 327.4593 270.9508 351.4106 269.4539 354.4045 269.4539 C 355.5272 273.9447 355.9014 276.1902 356.2757 277.6871 z "
   style="fill:#e29c73;fill-rule:evenodd;stroke-width:1pt;"
   id="path787" /><path
   d="M 347.5236 292.1472 C 344.9896 288.5995 344.2061 282.02 346.0695 283.4844 C 349.4315 286.601 351.235 290.0522 353.2103 291.5338 C 355.1855 293.0152 355.8984 294.6647 355.5132 296.8151 C 354.7757 299.4989 349.9277 295.513 347.5236 292.1472 z "
   style="fill:#e29c73;fill-rule:evenodd;stroke-width:1pt;"
   id="path786" /><path
   d="M 271.9925 90.73196 C 248.7678 88.00285 244.8731 106.5551 247.0698 109.4131 C 250.194 112.1142 254.8141 111.8242 257.5733 111.9675 C 264.7544 112.1254 268.8915 116.538 269.6365 121.9798 C 269.4565 123.8642 268.1018 125.5341 262.4343 128.5882 C 258.9828 129.3588 260.0602 139.2375 253.7163 140.2097 C 250.4832 140.5729 245.4588 143.5159 245.68 148.0871 C 246.0189 155.0893 248.9895 157.6686 251.1127 160.9177 C 258.244 171.6106 267.1893 176.4643 276.5183 171.7093 C 271.7895 175.3634 274.2709 174.3084 270.8318 175.1682 C 272.5513 180.112 269.972 185.4856 269.1122 187.2052 C 262.4489 184.6258 256.2154 182.6914 258.1499 184.196 C 260.0845 185.7006 267.3468 188.7162 269.0663 190.0058 C 267.7462 193.7276 262.427 194.0587 250.7248 197.8788 C 247.795 198.7591 254.7578 209.6632 263.882 210.9517 L 256.3934 211.4942 C 252.1098 214.4818 249.6348 216.4315 248.8793 219.3886 C 243.9877 217.6475 235.3657 212.1389 226.123 211.4941 C 216.8803 210.8493 214.9459 210.2044 212.1515 210.2044 C 217.3102 205.6905 224.4035 202.4663 226.9828 201.1767 C 229.5621 199.887 234.9358 196.233 236.2255 194.5134 C 236.6554 186.9902 236.0105 171.9439 232.1415 164.4209 C 228.2725 156.8979 227.4127 155.6081 225.4782 153.4587 C 218.0142 149.5901 211.9366 146.5804 210.432 136.263 C 208.9273 125.9456 214.7309 126.5905 217.9551 126.3755 C 220.7494 115.4133 229.1315 79.97246 271.9925 90.73196 z "
   style="fill:#e29c73;fill-rule:evenodd;stroke-width:0.125;stroke-opacity:0.125;"
   id="path773" /><path
   d="M 602.2465 404.9377 C 600.4749 403.0396 596.1721 401.6474 594.4005 400.0023 "
   style="fill:none;fill-rule:evenodd;stroke:#976345;stroke-width:0.625;stroke-linecap:round;stroke-linejoin:round;"
   id="path618" /><path
   d="M 601.6138 399.7491 C 598.9563 398.4836 597.4377 397.9774 596.4253 397.3447 "
   style="fill:none;fill-rule:evenodd;stroke:#976345;stroke-width:0.625;stroke-linecap:round;stroke-linejoin:round;"
   id="path619" /><path
   d="M 600.981 395.8262 C 598.197 394.8137 597.4376 394.5607 595.666 393.1686 "
   style="fill:none;fill-rule:evenodd;stroke:#976345;stroke-width:0.625;stroke-linecap:round;stroke-linejoin:round;"
   id="path620" /><path
   d="M 600.728 391.9031 C 596.8049 390.258 595.4129 389.7518 594.7802 388.9925 "
   style="fill:none;fill-rule:evenodd;stroke:#976345;stroke-width:0.625;stroke-linecap:round;stroke-linejoin:round;"
   id="path621" /><path
   d="M 646.1591 534.9035 C 640.5909 531.7397 639.5785 531.4866 636.1617 531.7397 "
   style="fill:none;fill-rule:evenodd;stroke:#976345;stroke-width:0.625;stroke-linecap:round;stroke-linejoin:round;"
   id="path622" /><path
   d="M 643.2484 539.5858 C 638.6926 536.4221 637.4271 535.6628 634.39 536.0424 "
   style="fill:none;fill-rule:evenodd;stroke:#976345;stroke-width:0.625;stroke-linecap:round;stroke-linejoin:round;"
   id="path623" /><path
   d="M 640.7175 544.7742 C 637.1741 541.4841 635.6555 539.4592 632.2387 539.5858 "
   style="fill:none;fill-rule:evenodd;stroke:#976345;stroke-width:0.625;stroke-linecap:round;stroke-linejoin:round;"
   id="path624" /><path
   d="M 636.5413 546.799 C 631.6059 542.3698 630.5935 542.4964 627.8094 542.7495 "
   style="fill:none;fill-rule:evenodd;stroke:#976345;stroke-width:0.625;stroke-linecap:round;stroke-linejoin:round;"
   id="path625" /><path
   d="M 346.1234 286.7386 C 347.5552 290.6759 348.629 292.6445 350.7766 294.6132 "
   style="fill:none;fill-rule:evenodd;stroke:#946143;stroke-width:1pt;stroke-opacity:0.9774;"
   id="path626" /><path
   d="M 270.5566 175.1412 C 265.2417 174.635 263.2169 174.888 253.3463 169.5731 C 243.4756 164.2582 239.9323 160.4618 235.1236 156.1592 "
   style="fill:none;fill-rule:evenodd;stroke:#976345;stroke-width:0.625;stroke-linecap:round;stroke-linejoin:round;"
   id="path628" /><path
   d="M 252.8012 178.4943 C 256.4396 184.6595 265.2417 188.5551 268.785 190.3268 "
   style="fill:none;fill-rule:evenodd;stroke:#976345;stroke-width:0.625;stroke-linecap:round;stroke-linejoin:round;"
   id="path629" /><path
   d="M 296.119 200.7036 C 287.0077 206.2716 281.1865 208.2964 281.9458 212.0928 "
   style="fill:none;fill-rule:evenodd;stroke:#976345;stroke-width:0.625;"
   id="path630" /><path
   d="M 247.2721 212.5989 C 265.4948 211.5866 271.0628 209.5618 275.3654 213.1051 "
   style="fill:none;fill-rule:evenodd;stroke:#996546;stroke-width:0.625;"
   id="path631" /><path
   d="M 226.6142 153.2008 C 228.59 153.2008 228.59 152.8969 230.2619 151.9849 "
   style="fill:none;fill-rule:evenodd;stroke:#986445;stroke-width:0.625;stroke-linecap:round;stroke-linejoin:round;"
   id="path673" /><path
   d="M 486.3277 284.8427 C 484.8091 277.1232 484.4294 264.848 484.6825 259.2798 C 484.9356 253.7117 484.556 244.4735 484.0498 240.2974 "
   style="fill:none;fill-rule:evenodd;stroke:#976345;stroke-width:0.625;stroke-linecap:round;stroke-linejoin:round;"
   id="path616" /><path
   d="M 502.8512 236.1214 C 504.0079 238.4342 507.5922 243.9483 510.0078 244.8304 C 511.9484 245.5391 513.6817 246.0623 514.7502 243.9813 C 514.9966 243.5012 515.1241 243.3155 515.0967 242.7575 "
   style="fill:none;fill-rule:evenodd;stroke:#976345;stroke-width:0.625;stroke-linecap:round;stroke-linejoin:round;"
   id="path714" /><path
   d="M 544.885 368.8378 C 544.885 371.5427 545.7583 370.8796 544.5105 373.785 C 543.1681 376.9106 548.6427 380.2582 551.1641 380.8922 "
   style="fill:none;fill-rule:evenodd;stroke:#976345;stroke-width:0.625;stroke-linecap:round;stroke-linejoin:round;"
   id="path716" /><path
   d="M 489.4292 437.4052 C 493.6444 439.5131 498.0349 441.2743 502.8053 441.2743 C 504.4317 441.2743 505.7893 436.5713 505.7661 435.3124 "
   style="fill:none;fill-rule:evenodd;stroke:#976345;stroke-width:0.625;stroke-linecap:round;stroke-linejoin:round;"
   id="path722" /><path
   d="M 577.1267 526.1774 C 579.4414 527.3347 580.1683 530.7262 582.0925 532.3934 C 584.8646 534.7953 587.9479 535.2786 591.563 535.6384 "
   style="fill:none;fill-rule:evenodd;stroke:#976345;stroke-width:0.625;stroke-linecap:round;stroke-linejoin:round;"
   id="path723" /><path
   d="M 221.9307 129.4958 C 216.0197 127.9912 213.2255 130.1407 213.118 132.9349 C 213.0105 135.7292 212.903 139.8131 216.987 144.327 C 221.0709 148.8408 222.5756 149.2708 223.6503 147.3362 C 224.725 145.4017 225.9072 144.6495 228.0566 145.5092 "
   style="fill:none;fill-rule:evenodd;stroke:#976345;stroke-width:0.625;"
   id="path726" /><path
   d="M 213.6553 135.9442 C 215.9123 132.72 216.3422 131.6452 219.029 131.8602 C 221.7158 132.0752 222.898 131.8602 223.5428 135.2993 C 224.1876 138.7384 226.4446 143.8971 220.1037 144.1121 "
   style="fill:none;fill-rule:evenodd;stroke:#976345;stroke-width:0.625;"
   id="path727" /><path
   d="M 270.7187 135.5313 C 271.4295 136.8183 271.9531 138.4843 272.5156 139.5469 C 273.6406 141.5469 274.9843 144.4375 273.9218 146.25 C 273.1093 147.4375 267.8125 149.1875 266.9375 146.5625 C 266.1406 144.8125 266.7895 141.9694 267.2502 140.7968 C 268.8519 136.7194 270.1186 134.3668 270.7187 135.5313 z "
   style="fill:#e29c73;fill-rule:evenodd;stroke-width:0.125;stroke-opacity:0.125;"
   id="path781" /><path
   d="M 271.6362 146.7573 C 272.2076 146.5461 273.0174 145.7772 273.2376 145.2542 C 273.5174 144.5897 273.1892 142.9791 272.6925 141.9106 C 272.4727 141.3682 272.0216 139.6239 271.4793 138.8412 C 271.1208 138.2548 270.6942 138.9428 270.5297 139.5268 C 270.219 140.4036 270.1964 141.2045 270.0924 142.0184 C 270.0215 142.5729 269.4034 144.7139 269.6764 145.862 C 269.887 146.7478 270.5093 147.1502 271.6362 146.7573 z "
   style="fill:#976345;fill-rule:evenodd;stroke:#000000;stroke-width:0;"
   id="path771" /><path
   d="M 266.4361 159.5645 C 264.0297 160.6945 264.4229 161.8645 266.264 163.4229 C 267.5313 164.3135 267.8807 164.7945 269.7123 164.4294 C 272.5381 163.8485 272.5342 163.1123 274.5339 159.8417 C 275.2815 158.6529 268.2922 158.743 266.4361 159.5645 z "
   style="fill:#e29c73;fill-rule:evenodd;stroke-width:0.125;"
   id="path772" /><path
   d="M 270.7732 175.2575 C 272.2049 180.0895 274.5315 182.7741 276.3211 184.3847 C 279.5424 185.6375 283.8376 188.1429 291.712 188.3219 C 299.5864 188.5009 313.1878 188.143 321.2411 193.3329 C 329.2945 198.5229 340.3904 206.5763 349.3386 216.4193 C 358.2868 226.2624 360.7923 230.0206 364.5506 232.3472 C 368.3088 234.6737 387.9948 249.8857 393.3638 255.0757 C 407.323 256.8653 423.7181 260.8295 431.8329 262.8377 C 423.6582 272.1311 418.3365 277.265 412.34 284.2214 C 407.4998 283.8238 396.2273 282.8151 392.648 281.5624 C 389.0687 280.3096 388.3528 280.6675 386.3842 280.6675 C 384.4156 280.6675 380.1204 279.5937 377.9729 277.9831 C 375.8253 276.3724 370.0985 272.7932 366.1612 270.8246 C 362.224 268.8559 356.6761 264.7397 352.7389 262.0553 C 354.1706 270.4666 357.034 279.2358 357.9288 281.9203 C 358.8237 284.6048 362.224 291.5844 367.5929 293.553 C 372.9619 295.5216 387.458 295.7005 400.1645 299.9957 C 406.7862 288.9 425.3985 269.9297 435.2415 259.5498 C 445.0845 249.1698 463.6969 232.1682 469.0658 227.5152 C 474.4347 222.8621 478.014 218.9248 480.8774 216.2404 C 483.7408 213.5559 487.1412 211.5873 490.5415 212.1242 C 493.9418 212.6611 505.2166 213.9138 509.8697 218.209 C 514.5227 222.5042 515.9544 222.683 518.4599 230.9154 C 520.9655 239.1478 526.8713 256.3284 529.5557 266.7083 C 532.2402 277.0883 535.6405 289.6157 541.7253 305.7225 C 547.8101 321.8294 553.1791 338.8311 556.7583 346.1686 C 560.3376 353.5061 562.1273 355.1167 563.7379 356.7274 C 565.3486 358.3381 566.0645 361.0225 566.9593 362.6333 C 567.8541 364.244 573.76 372.2973 580.2027 376.0556 C 586.6454 379.8139 598.0991 386.7935 599.1729 387.8672 C 600.2467 388.941 601.1415 390.7307 600.9626 391.9835 C 602.2153 393.2362 601.8574 394.8469 601.3205 395.9207 C 602.5949 397.0251 602.9438 398.8147 601.5736 399.836 C 605.2092 401.6692 603.1536 403.6902 602.5949 404.9647 C 602.3815 407.7144 602.8877 410.3734 600.0243 412.3419 C 597.1609 414.3106 592.3722 413.1012 589.1509 410.9536 C 585.9295 408.8061 573.76 398.9631 568.9279 396.2786 C 564.0959 393.5941 557.1163 393.0572 551.5684 391.2676 C 546.0205 389.478 540.6515 389.657 539.2198 382.3194 C 537.7881 374.9818 537.4302 367.1073 533.6719 359.9488 C 529.9137 352.7903 518.8179 338.831 512.9121 329.8828 C 507.0062 320.9346 491.9732 303.3961 486.2463 284.4259 C 480.3405 293.553 474.2557 302.1434 468.5289 312.1653 C 462.802 322.1873 454.7486 335.9676 445.2635 348.6741 C 435.7784 361.3805 431.8412 364.7809 423.2509 371.7605 C 435.7784 380.5298 448.4849 390.1938 455.4645 394.489 C 462.4441 398.7841 478.3719 406.6584 484.0988 409.7009 C 489.8256 412.7433 495.5525 417.0384 500.0266 420.4388 C 504.5007 423.8391 517.5652 436.3666 531.3454 451.0417 C 545.1257 465.7168 573.581 496.1408 579.6658 501.5097 C 585.7506 506.8786 591.4775 511.5317 594.5198 512.6055 C 597.5622 513.6792 616.8904 519.2272 623.691 520.3009 C 630.4917 521.3747 635.5106 523.4282 641.0507 524.2031 C 645.3088 524.9189 650.1727 525.4261 650.3568 528.0685 C 650.986 530.9282 649.283 534.548 646.0256 534.6531 C 645.8467 537.1586 645.1667 539.2711 643.735 539.8081 C 643.1982 541.5977 642.4823 544.8191 640.6927 544.8191 C 640.3347 546.6087 639.5447 548.3677 636.6685 546.9015 C 635.7737 549.586 634.2833 551.3956 631.6268 549.4377 C 627.2665 546.0643 622.6173 548.9352 616.7114 547.5035 C 610.8056 546.0718 601.3205 544.1032 595.5936 544.8191 C 589.8668 545.5349 584.6768 547.6825 580.3817 541.5977 C 576.0865 535.5129 574.6547 532.6495 570.7175 528.8912 C 566.7804 525.133 553.716 514.753 541.0095 507.0576 C 528.303 499.3621 494.1208 478.4233 483.7408 466.0747 C 473.3609 453.7262 472.466 451.0417 469.7816 447.1045 C 451.3483 443.3462 439.1787 440.6617 421.9981 436.5456 C 404.8175 432.4294 378.5098 426.1657 364.0136 419.186 C 349.5175 412.2064 331.8001 399.321 319.9884 385.5407 C 308.1767 371.7605 302.9868 360.4857 302.2709 352.2533 C 301.5551 344.021 301.1971 341.8734 297.2599 335.0728 C 293.3227 328.2721 292.2489 322.7241 281.3321 314.1339 C 270.4152 305.5436 254.6664 291.0476 244.2864 279.0569 C 233.9065 267.0662 228.7165 260.2657 227.1059 257.9391 C 225.4952 255.6125 224.6004 255.4335 222.9897 255.4335 C 221.379 255.4335 219.9473 255.6125 219.2314 256.8653 C 218.5156 258.118 210.6411 274.2248 203.1246 284.0679 C 195.6081 293.9109 183.9754 309.3019 179.5013 317.5342 C 185.5861 327.3773 199.1874 348.1372 204.5564 359.7699 C 209.9253 371.4026 219.4104 393.2361 221.9159 397.5313 C 224.4214 401.8265 229.7903 408.2693 233.5486 410.7747 C 237.3068 413.2802 246.0545 422.2031 248.4467 424.4668 C 250.3703 427.2234 251.624 430.2818 251.9819 431.1767 C 252.3398 432.0715 254.8355 438.5115 254.1196 441.554 C 253.4037 444.5964 250.5232 442.3337 248.9395 440.3038 C 248.9395 442.0935 248.9395 444.0621 245.8971 444.42 C 245.1813 446.5676 242.4968 448.3572 240.5282 447.9993 C 239.6334 450.1469 239.9913 451.3996 235.6961 450.8627 C 231.401 450.3259 225.8531 450.3259 224.2424 449.0731 C 222.6317 447.8203 219.7683 446.0307 217.4418 439.0511 C 215.1152 432.0715 215.4732 425.4498 211.7149 418.6491 C 207.9567 411.8485 192.3868 390.5517 188.0916 384.4669 C 183.7965 378.3822 164.2893 351.3585 158.7414 344.021 C 153.1936 336.6834 147.2877 329.167 146.5719 326.8404 C 145.856 324.5138 145.1402 323.4401 146.035 317.8922 C 146.9298 312.3443 153.3725 293.9109 159.4573 283.531 C 165.5421 273.1511 183.4385 242.3691 189.1654 234.8526 C 194.8923 227.3362 210.9991 210.3345 217.4418 206.5763 C 223.8845 202.818 234.2644 197.4492 236.233 194.7647 C 236.591 186.8902 236.0541 173.11 232.8327 166.3093 C 229.6114 159.5086 228.5376 157.0032 226.0321 153.4239 C 221.2 152.1711 216.2571 149.2295 214.2885 145.8292 C 212.3199 142.429 210.4622 141.2542 210.1042 135.7064 C 209.7463 130.1585 210.8201 129.6216 212.0728 128.3688 C 207.0618 120.3154 202.9457 104.2086 206.346 92.21802 C 209.7463 80.22743 225.6742 61.25725 251.445 63.58376 C 277.2159 65.91026 289.0275 74.67957 293.1437 84.16466 C 297.2599 93.64975 299.0496 104.2086 299.0496 108.6828 C 299.0496 113.1569 299.2285 111.7251 298.3337 114.9465 C 297.4389 118.1678 296.3651 122.642 296.0072 124.4317 C 295.6492 126.2213 295.4703 129.8006 295.6492 132.1271 C 295.8282 134.4536 296.544 142.507 294.5754 147.3391 C 292.6068 152.1711 288.1327 161.1194 283.8376 165.5935 C 279.5424 170.0676 273.0997 175.0785 270.7732 175.2575 z "
   style="fill:none;stroke:#976345;stroke-width:0.625;"
   id="path774" /><path
   d="M 212.1753 128.1228 C 216.279 126.4509 218.4068 125.539 222.0546 126.6029 "
   style="fill:none;fill-rule:evenodd;stroke:#986445;stroke-width:0.625;"
   id="path672" /><path
   d="M 393.3142 351.534 C 399.3885 355.2039 406.4753 359.7598 409.639 361.9111 C 412.8027 364.0623 417.8647 367.9854 423.0532 371.7818 "
   style="fill:none;fill-rule:evenodd;stroke:#976345;stroke-width:0.625;stroke-linecap:round;stroke-linejoin:round;"
   id="path617" /><path
   d="M 235.8855 428.2992 C 238.1653 432.5549 241.965 433.1628 244.0928 434.2267 C 246.2207 435.2906 248.0446 438.4823 248.9565 440.1542 "
   style="fill:none;fill-rule:evenodd;stroke:#976345;stroke-width:0.625;stroke-linecap:round;stroke-linejoin:round;stroke-opacity:0.9996;"
   id="path667" /><path
   d="M 240.4451 448.0576 C 235.7335 447.4497 231.6298 446.9937 228.742 446.3858 "
   style="fill:none;fill-rule:evenodd;stroke:#976345;stroke-width:0.625;stroke-linecap:round;stroke-linejoin:round;stroke-opacity:0.9996;"
   id="path669" /><path
   d="M 245.4607 444.5619 C 240.1411 443.954 236.3414 443.65 233.6057 442.8901 "
   style="fill:none;fill-rule:evenodd;stroke:#976345;stroke-width:0.625;stroke-linecap:round;stroke-linejoin:round;stroke-opacity:0.9996;"
   id="path670" /><path
   d="M 248.1965 440.1543 C 242.421 439.5463 238.9252 439.2424 236.3414 438.4824 "
   style="fill:none;fill-rule:evenodd;stroke:#976345;stroke-width:0.625;stroke-linecap:round;stroke-linejoin:round;stroke-opacity:0.9996;"
   id="path671" /></g><g
   id="g710"><path
   d="M 394.082 324.5096 C 400.1668 330.5945 401.7775 330.2365 404.8199 333.8158 C 407.8623 337.3951 413.7682 349.7438 414.1261 354.2179 C 414.484 358.692 414.842 361.5555 414.842 365.6717 C 407.1465 359.7658 392.4713 350.8175 381.1965 344.0168 C 385.1337 334.3527 393.3661 325.5833 394.082 324.5096 z "
   style="fill:#cdd0e2;fill-rule:evenodd;stroke-width:1pt;"
   id="path613" /><path
   d="M 404.5951 333.3016 C 408.2428 344.0928 410.3707 354.7321 408.8508 356.1 C 407.3309 357.4678 403.9871 356.404 402.1632 356.8599 C 407.6348 360.5076 413.4105 364.0033 414.9303 365.5233 C 414.6264 357.7719 413.7144 349.1084 410.6746 343.6368 C 407.6348 338.1653 406.115 335.2775 404.5951 333.3016 z "
   style="fill:#acafc4;fill-rule:evenodd;stroke-width:1pt;"
   id="path756" /><path
   d="M 394.082 324.5096 C 400.1668 330.5945 401.7775 330.2365 404.8199 333.8158 C 407.8623 337.3951 413.7682 349.7438 414.1261 354.2179 C 414.484 358.692 414.842 361.5555 414.842 365.6717 C 407.1465 359.7658 392.4713 350.8175 381.1965 344.0168 C 385.1337 334.3527 393.3661 325.5833 394.082 324.5096 z "
   style="fill:none;fill-rule:evenodd;stroke:#747684;"
   id="path759" /></g><g
   id="g657"><path
   d="M 156.337 268.2463 C 156.6685 270.677 154.6798 272.0028 162.8557 277.0852 C 165.3969 273.4391 169.0429 267.252 169.8163 265.5947 C 163.9605 267.2519 161.9718 268.0254 160.8669 267.8044 C 159.7621 267.5834 158.2153 267.8043 156.337 268.2463 z "
   style="fill:#716e7d;fill-rule:evenodd;stroke-width:1pt;"
   id="path653" /><path
   d="M 197.8796 290.7853 C 199.6474 288.7966 200.7522 287.4708 201.5256 286.3659 C 202.1885 288.2442 203.2934 290.2329 203.0724 291.5587 C 200.5313 291.8902 198.9845 291.3377 197.8796 290.7853 z "
   style="fill:#716e7d;fill-rule:evenodd;stroke-width:1pt;"
   id="path654" /><path
   d="M 293.1847 188.3107 C 294.7046 186.3349 296.0725 186.1829 297.4404 186.0309 C 299.7202 186.9429 300.0242 186.9428 301.3921 188.4627 C 298.8083 188.4627 295.7685 188.3107 293.1847 188.3107 z "
   style="fill:#716e7d;fill-rule:evenodd;stroke-width:1pt;"
   id="path632" /><path
   d="M 210.4493 210.3119 C 218.2953 210.565 233.2279 211.957 235.7589 212.4632 C 238.2899 212.9694 241.0739 215.627 243.6049 217.2721 C 246.1358 218.9172 260.9419 226.3835 267.649 226.7631 C 274.356 227.1428 291.3135 219.9296 294.3506 218.1579 C 297.3878 216.3862 305.1072 208.7933 304.3479 200.8208 C 303.5886 192.8483 303.4621 190.5705 301.8169 188.6722 C 300.1718 186.774 297.8939 186.1413 296.755 186.1413 C 301.9435 185.2554 307.8912 187.7863 309.4098 188.0394 C 310.9284 188.2926 322.0646 190.8235 326.8734 194.1137 C 331.6822 197.404 351.2972 215.3738 354.8405 219.1703 C 358.3839 222.9667 360.9148 225.2446 361.2945 226.8897 C 363.1927 226.7631 363.8255 228.4083 364.4582 229.1676 C 365.0909 229.9269 365.0909 231.1923 364.8378 232.0781 C 364.5847 232.964 364.3316 232.7109 363.5723 233.9764 C 362.8131 235.2419 362.3069 238.4057 362.1803 240.1773 C 362.0538 241.9489 361.9272 242.9612 360.9148 244.7329 C 359.9025 246.5046 359.0166 249.6684 358.637 251.0604 C 358.2573 252.4524 358.7636 252.9586 356.7388 254.6037 C 354.714 256.2488 353.8282 257.1348 353.0689 258.5267 C 353.8282 261.8169 354.5875 263.209 355.0937 264.0948 C 357.2449 264.3479 359.1431 264.7275 358.637 266.4992 C 358.1308 268.2709 360.4086 271.1815 360.029 272.9532 C 359.6494 274.7249 359.1432 275.2311 358.8901 275.6107 C 357.1184 273.2063 354.8405 272.5736 352.183 272.7001 C 349.5255 272.8266 340.2876 274.7249 336.4911 274.7249 C 332.6946 274.7249 325.2283 274.978 321.0522 277.2558 C 316.8761 279.5337 315.9903 280.4195 312.447 281.5584 C 308.9036 282.6973 296.8816 290.2902 293.971 294.8459 C 291.0604 299.4017 278.9861 313.4975 276.2021 316.9142 C 273.418 320.331 273.9248 322.8634 273.2171 324.5353 C 273.5732 327.575 267.2693 325.4706 265.2446 322.8131 C 263.2198 320.1555 264.3587 319.1432 264.7384 317.4981 C 262.2074 315.0937 259.0437 315.4732 259.1703 310.791 C 253.7287 306.9946 250.1854 302.5654 248.1606 297.5035 C 246.1358 292.4415 243.3518 286.1142 241.9597 281.3054 C 240.5677 276.4965 237.6571 272.3204 235.6323 270.5488 C 233.6076 268.7771 230.9501 266.3727 228.5456 263.5886 C 227.6598 266.6258 226.2678 270.0425 217.536 275.3576 C 212.221 281.8115 210.3227 286.6204 208.1714 288.2655 C 206.0201 289.9106 204.7547 290.6699 203.2361 291.8088 C 202.2237 285.608 199.3131 284.0894 198.6803 282.4443 C 198.0476 280.7991 197.2883 275.2311 194.2512 271.5612 C 191.214 267.8913 184.1273 265.1072 178.5592 264.4745 C 172.9911 263.8418 164.5124 267.8912 161.3487 267.6381 C 158.185 267.3851 157.8053 268.0179 156.4133 267.8913 C 158.8177 263.7152 165.1451 258.0205 169.7009 252.7055 C 174.2566 247.3905 179.5716 243.3409 180.8371 241.9489 C 182.1025 240.5569 184.2538 236.887 186.5317 234.356 C 188.8096 231.8251 192.0998 229.041 194.7573 224.6119 C 197.4149 220.1827 199.06 219.4233 200.9582 218.2844 C 202.8564 217.1455 208.4245 213.2225 210.4493 210.3119 z "
   style="fill:#d5cfec;fill-rule:evenodd;stroke-width:1pt;stroke-linejoin:round;"
   id="path615" /><path
   d="M 276.5227 256.5026 C 283.5524 259.0742 282.1395 264.1939 284.4404 268.342 C 286.4207 271.2814 291.782 273.0912 292.498 270.3902 C 293.2388 267.8428 302.1654 266.5667 308.4424 265.1092 C 313.0431 263.9835 302.664 269.2107 294.7202 273.0623 C 291.1169 274.9213 289.5384 276.1765 286.991 277.4514 C 283.0483 279.054 284.6001 279.7193 288.0051 280.152 C 294.3186 281.4481 285.9348 283.1158 281.5286 286.8259 C 277.1224 290.5361 273.4842 295.0542 274.7216 294.3967 C 280.6154 291.5123 284.005 296.523 288.4549 294.4695 C 293.3986 291.6752 295.978 290.6004 299.4171 289.5257 C 295.1182 293.3947 293.1837 295.974 292.3239 297.0488 C 291.4641 298.1235 279.6422 313.5994 277.2778 315.9639 C 274.9134 318.3283 273.6238 321.9823 273.6238 323.4869 C 273.6238 324.9915 273.8387 326.926 270.1847 325.6363 C 266.5306 324.3467 263.7363 322.1973 263.9513 319.188 C 264.1662 316.1788 265.241 317.4685 262.6616 315.9639 C 260.0823 314.4593 259.0076 313.1696 259.0076 311.8799 C 259.0076 310.5903 259.6524 311.0202 257.503 309.5156 C 255.3535 308.0109 250.1949 303.927 247.1856 295.5442 C 244.1764 287.1614 242.6718 280.4981 240.3074 277.059 C 237.9431 273.6199 235.7936 270.6106 232.5695 267.6014 C 229.3453 264.5923 228.7005 262.4427 227.8407 264.8072 C 226.9809 267.1716 221.1774 272.7601 219.4579 273.8348 C 217.7383 274.9096 216.0188 276.4142 215.5889 277.4889 C 215.8038 270.6107 219.028 260.2933 220.3176 258.1439 C 221.6073 255.9945 222.2522 252.9854 223.5418 248.0416 C 224.8315 243.0978 225.4763 247.3968 226.9809 249.9761 C 228.4855 252.5554 233.6442 258.3588 233.8591 252.5554 C 234.0741 246.7519 234.7189 239.8738 237.9431 249.9761 C 241.1672 260.0784 243.1017 265.452 244.6063 270.1808 C 247.4006 263.7325 242.6718 251.0507 240.7373 244.3875 C 238.8028 237.7243 242.6718 245.6772 244.3914 248.0416 C 246.1109 250.4059 249.9799 256.8542 251.0546 258.5738 C 256.4282 254.4899 252.9908 251.4323 250.6247 248.0416 C 249.3951 246.0325 257.1182 250.917 259.7802 252.1254 C 264.5818 254.6641 269.1721 253.6555 276.5227 256.5026 z "
   style="fill:#9d9d9d;fill-rule:evenodd;stroke-width:1pt;"
   id="path735" /><path
   d="M 327.9906 207.1555 C 340.3017 214.1469 350.3329 225.2421 351.5488 226.914 C 352.7647 228.5858 354.4366 235.4252 355.1966 237.2491 C 355.9565 239.073 360.3642 241.6568 361.7321 242.4167 C 360.2122 245.9124 358.9962 250.0161 358.6923 251.384 C 358.3883 252.752 358.0843 253.6638 357.0204 254.4238 C 355.9565 255.1838 353.9806 257.1597 353.2207 258.0716 C 351.3969 253.0559 350.181 246.9764 350.181 245.9124 C 350.3329 239.073 350.3329 230.5617 348.965 227.9779 C 347.5972 225.394 347.1412 222.0503 327.9906 207.1555 z "
   style="fill:#9d9d9d;fill-rule:evenodd;stroke-width:1pt;"
   id="path730" /><path
   d="M 347.1412 262.4792 C 344.8614 261.3393 340.605 259.2805 340.4134 256.877 C 339.7433 248.3234 339.2972 246.7746 335.0771 252.2769 C 332.086 256.375 331.4104 253.7399 332.3983 249.8642 C 334.3742 242.1128 335.5602 234.7217 332.2463 238.313 C 329.5644 241.092 324.495 245.0006 322.6711 243.3287 C 320.8472 241.6568 319.1754 243.9367 319.0234 245.1526 C 318.8714 246.3685 322.0631 256.8556 325.5589 260.8073 C 333.9182 260.6553 343.0375 261.8711 347.1412 262.4792 z "
   style="fill:#9d9d9d;fill-rule:evenodd;stroke-width:1pt;"
   id="path731" /><path
   d="M 242.9557 221.5227 C 239.2521 228.4361 238.5114 229.4238 236.7831 230.6583 C 235.0547 231.8928 232.5857 232.3866 231.1042 230.4113 C 229.6228 228.4361 228.6352 226.7077 224.1908 231.1521 C 219.7465 235.5964 201.9693 246.4603 190.1178 250.4108 C 178.2663 254.3613 174.5627 262.5091 172.0936 264.9782 C 166.9086 265.9659 162.4643 267.6942 159.9952 267.4473 C 157.5262 267.2004 157.5262 267.4474 156.0447 268.1881 C 166.1679 250.6577 173.5751 240.0408 178.5132 234.6088 C 183.4513 229.1768 207.1543 213.3749 211.8455 209.9182 C 219.2527 210.412 228.8821 211.8934 231.598 211.8934 C 234.314 211.8934 237.2769 212.8811 239.0052 213.8687 C 240.7336 214.8563 243.4495 216.5847 244.6841 217.5723 C 244.4372 219.5475 244.1903 220.7821 242.9557 221.5227 z "
   style="fill:#9d9d9d;fill-rule:evenodd;stroke-width:1pt;"
   id="path749" /><path
   d="M 358.6915 275.7038 C 358.5395 277.2237 357.9316 277.6796 357.1717 278.7436 C 356.2597 276.6157 355.4998 274.4879 355.1958 273.12 C 357.0197 273.728 358.2355 275.3999 358.6915 275.7038 z "
   style="fill:#716e7d;fill-rule:evenodd;stroke-width:1pt;"
   id="path633" /><path
   d="M 273.7303 322.9721 C 278.2899 321.4522 284.3694 319.3243 286.3453 318.8684 C 284.0655 316.4366 281.1777 314.3087 279.9618 313.2448 C 277.53 315.0687 273.4263 319.4764 273.7303 322.9721 z "
   style="fill:#716e7d;fill-rule:evenodd;stroke-width:1pt;"
   id="path634" /><path
   d="M 210.4493 210.3119 C 218.2953 210.565 233.2279 211.957 235.7589 212.4632 C 238.2899 212.9694 241.0739 215.627 243.6049 217.2721 C 246.1358 218.9172 260.9419 226.3835 267.649 226.7631 C 274.356 227.1428 291.3135 219.9296 294.3506 218.1579 C 297.3878 216.3862 305.1072 208.7933 304.3479 200.8208 C 303.5886 192.8483 303.4621 190.5705 301.8169 188.6722 C 300.1718 186.774 297.8939 186.1413 296.755 186.1413 C 301.9435 185.2554 307.8912 187.7863 309.4098 188.0394 C 310.9284 188.2926 322.0646 190.8235 326.8734 194.1137 C 331.6822 197.404 351.2972 215.3738 354.8405 219.1703 C 358.3839 222.9667 360.9148 225.2446 361.2945 226.8897 C 363.1927 226.7631 363.8255 228.4083 364.4582 229.1676 C 365.0909 229.9269 365.0909 231.1923 364.8378 232.0781 C 364.5847 232.964 364.3316 232.7109 363.5723 233.9764 C 362.8131 235.2419 362.3069 238.4057 362.1803 240.1773 C 362.0538 241.9489 361.9272 242.9612 360.9148 244.7329 C 359.9025 246.5046 359.0166 249.6684 358.637 251.0604 C 358.2573 252.4524 358.7636 252.9586 356.7388 254.6037 C 354.714 256.2488 353.8282 257.1348 353.0689 258.5267 C 353.8282 261.8169 354.5875 263.209 355.0937 264.0948 C 357.2449 264.3479 359.1431 264.7275 358.637 266.4992 C 358.1308 268.2709 360.4086 271.1815 360.029 272.9532 C 359.6494 274.7249 359.1432 275.2311 358.8901 275.6107 C 357.1184 273.2063 354.8405 272.5736 352.183 272.7001 C 349.5255 272.8266 340.2876 274.7249 336.4911 274.7249 C 332.6946 274.7249 325.2283 274.978 321.0522 277.2558 C 316.8761 279.5337 315.9903 280.4195 312.447 281.5584 C 308.9036 282.6973 296.8816 290.2902 293.971 294.8459 C 291.0604 299.4017 278.9861 313.4975 276.2021 316.9142 C 273.418 320.331 273.9248 322.8634 273.2171 324.5353 C 273.5732 327.575 267.2693 325.4706 265.2446 322.8131 C 263.2198 320.1555 264.3587 319.1432 264.7384 317.4981 C 262.2074 315.0937 259.0437 315.4732 259.1703 310.791 C 253.7287 306.9946 250.1854 302.5654 248.1606 297.5035 C 246.1358 292.4415 243.3518 286.1142 241.9597 281.3054 C 240.5677 276.4965 237.6571 272.3204 235.6323 270.5488 C 233.6076 268.7771 230.9501 266.3727 228.5456 263.5886 C 227.6598 266.6258 226.2678 270.0425 217.536 275.3576 C 212.221 281.8115 210.3227 286.6204 208.1714 288.2655 C 206.0201 289.9106 204.7547 290.6699 203.2361 291.8088 C 202.2237 285.608 199.3131 284.0894 198.6803 282.4443 C 198.0476 280.7991 197.2883 275.2311 194.2512 271.5612 C 191.214 267.8913 184.1273 265.1072 178.5592 264.4745 C 172.9911 263.8418 164.5124 267.8912 161.3487 267.6381 C 158.185 267.3851 157.8053 268.0179 156.4133 267.8913 C 158.8177 263.7152 165.1451 258.0205 169.7009 252.7055 C 174.2566 247.3905 179.5716 243.3409 180.8371 241.9489 C 182.1025 240.5569 184.2538 236.887 186.5317 234.356 C 188.8096 231.8251 192.0998 229.041 194.7573 224.6119 C 197.4149 220.1827 199.06 219.4233 200.9582 218.2844 C 202.8564 217.1455 208.4245 213.2225 210.4493 210.3119 z "
   style="fill:none;fill-rule:evenodd;stroke:#42405f;stroke-width:1pt;stroke-linejoin:round;"
   id="path635" /><path
   d="M 296.8368 186.0331 C 295.4396 186.248 293.935 187.2153 293.8275 187.9676 "
   style="fill:none;fill-rule:evenodd;stroke:#42405f;stroke-width:1pt;"
   id="path636" /><path
   d="M 273.7303 322.8445 C 278.4591 321.3399 284.585 319.6203 285.7672 319.083 "
   style="fill:none;fill-rule:evenodd;stroke:#42405f;stroke-width:1pt;"
   id="path637" /><path
   d="M 358.7404 275.8793 C 358.418 277.0616 357.9882 278.2436 357.2359 278.5661 "
   style="fill:none;fill-rule:evenodd;stroke:#42405f;stroke-width:1pt;"
   id="path638" /><path
   d="M 264.6877 316.4241 C 267.1877 309.8616 268.1252 303.9241 270.3127 299.8616 "
   style="fill:none;fill-rule:evenodd;stroke:#525064;stroke-linecap:round;stroke-linejoin:round;"
   id="path639" /><path
   d="M 295.0002 292.9866 C 290.0002 295.4866 285.0002 301.1116 284.0627 302.3616 "
   style="fill:none;fill-rule:evenodd;stroke:#525064;stroke-linecap:round;stroke-linejoin:round;"
   id="path640" /><path
   d="M 258.7502 310.4866 C 258.1252 303.9241 257.8127 297.6741 258.7502 296.1116 C 259.6877 294.5491 265.3127 289.5491 267.1877 288.2991 C 269.0627 287.0491 280.0002 276.4241 281.8752 275.1741 C 283.7502 273.9241 285.0002 273.2991 286.2502 273.2991 "
   style="fill:none;fill-rule:evenodd;stroke:#525064;stroke-linecap:round;stroke-linejoin:round;"
   id="path642" /><path
   d="M 253.4377 292.3616 C 256.8752 284.8616 264.3752 271.4241 265.3127 269.2366 "
   style="fill:none;fill-rule:evenodd;stroke:#525064;stroke-linecap:round;stroke-linejoin:round;"
   id="path643" /><path
   d="M 237.1877 248.2991 C 243.1252 263.6116 245.6252 274.5491 247.5002 285.1741 "
   style="fill:none;fill-rule:evenodd;stroke:#525064;stroke-linecap:round;stroke-linejoin:round;"
   id="path644" /><path
   d="M 242.5002 245.1741 C 248.4377 254.8616 250.9377 257.9866 253.7502 264.2366 "
   style="fill:none;fill-rule:evenodd;stroke:#525064;stroke-linecap:round;stroke-linejoin:round;"
   id="path645" /><path
   d="M 350.0003 245.4866 C 351.5628 254.2366 352.1878 256.4241 352.8128 258.9241 "
   style="fill:none;fill-rule:evenodd;stroke:#525064;stroke-linecap:round;stroke-linejoin:round;"
   id="path647" /><path
   d="M 321.8753 203.299 C 331.5628 209.2365 343.7503 220.4865 345.6253 222.674 C 347.5003 224.8615 348.7503 227.674 349.0628 228.924 C 349.3753 230.174 350.6253 238.6116 350.3128 245.4866 C 350.0003 252.3616 349.3753 257.0491 349.6878 258.9241 "
   style="fill:none;fill-rule:evenodd;stroke:#525064;stroke-linecap:round;stroke-linejoin:round;"
   id="path650" /><path
   d="M 355.0003 263.9241 C 343.4378 262.3616 332.5003 259.8616 320.9378 261.4241 "
   style="fill:none;fill-rule:evenodd;stroke:#525064;stroke-linecap:round;stroke-linejoin:round;"
   id="path651" /><path
   d="M 304.0627 186.7365 C 307.5002 193.299 309.6877 199.2365 307.1877 205.4865 C 304.6877 211.7365 305.0002 217.049 292.8127 222.3615 C 280.6252 227.674 273.1252 229.2365 270.6252 229.549 C 268.1252 229.8615 263.7502 230.4865 259.3752 228.299 C 255.0002 226.1115 242.1877 221.424 239.6877 218.924 C 237.1877 216.424 234.3752 215.4865 230.3127 215.174 C 226.2502 214.8615 215.0002 214.8615 209.3752 212.3615 "
   style="fill:none;fill-rule:evenodd;stroke:#525064;stroke-linecap:round;stroke-linejoin:round;"
   id="path652" /><path
   d="M 156.1161 268.2463 C 156.6685 271.5609 158.6573 273.881 162.7452 276.8642 "
   style="fill:none;fill-rule:evenodd;stroke:#42405f;stroke-width:1pt;"
   id="path655" /><path
   d="M 198.5425 290.8958 C 200.8627 292.1112 201.7466 292.4427 203.0724 291.7798 "
   style="fill:none;fill-rule:evenodd;stroke:#42405f;stroke-width:1pt;"
   id="path656" /></g><path
   d="M 265.0269 157.9768 C 269.9706 156.6871 270.4005 157.117 271.4752 157.117 C 272.55 157.117 272.55 156.9021 273.4097 156.9021 C 274.2695 156.9021 275.8134 157.4492 277.0833 157.9768 C 276.927 158.1331 276.7004 158.1707 276.3301 158.2579 C 273.3519 158.5163 269.3417 158.6699 265.7795 158.271 C 265.4987 158.2237 265.3143 158.1707 265.0269 157.9768 L 265.0269 157.9768 z "
   style="fill:#620000;fill-rule:evenodd;stroke-width:0.125;"
   id="path707" /><g
   transform="translate(-1.166325,0.110421)"
   id="g759"><path
   d="M 238.3745 130.9985 C 240.7691 126.0641 245.2476 122.7074 251.9623 122.8706 C 258.8668 122.9832 261.2557 125.3658 262.539 129.1322 C 262.2066 134.0466 259.985 136.5705 257.6515 137.8758 C 252.4507 140.0823 249.9208 139.3633 244.25 137.3222 C 240.912 135.7139 238.9736 134.1573 238.3745 130.9985 z "
   style="fill:#ffffff;fill-rule:evenodd;stroke-width:1pt;"
   id="path757" /><path
   d="M 246.327 123.3699 C 243.4253 129.6033 245.2493 134.5592 247.5063 138.3207 C 250.7825 138.7384 253.6351 138.631 255.7845 138.3085 C 258.6863 133.0424 259.0088 126.9164 257.0742 123.0474 C 252.9903 121.6503 249.6587 122.4026 246.327 123.3699 z "
   style="fill:url(#linearGradient749);fill-rule:evenodd;stroke-width:1pt;"
   id="path736" /><ellipse
   cx="251.700592"
   cy="130.570496"
   rx="3.22418213"
   ry="4.51385498"
   style="fill-rule:evenodd;stroke-width:1pt;"
   id="path742" /><path
   d="M 247.2942 124.4446 C 246.5549 124.8143 245.8964 126.7112 245.8969 127.5641 C 245.8979 129.2521 245.6427 130.5491 246.693 131.98 C 247.8614 133.5717 250.0946 131.1975 250.7227 130.1278 C 251.7498 128.3788 252.4237 126.5559 250.2685 125.3556 C 249.8192 125.1053 249.5382 124.7492 248.9889 124.6613 C 248.4402 124.5735 247.9793 124.4446 247.2942 124.4446 z "
   style="fill:#ffffff;fill-opacity:0.5;fill-rule:evenodd;stroke-width:1pt;"
   id="path738" /><path
   d="M 254.4949 133.2573 C 253.5092 133.7504 252.4314 134.6985 252.747 135.9409 C 253.0979 137.3217 255.7261 135.9574 255.8885 134.9659 C 256.0805 133.7941 255.9679 132.9701 254.4949 133.2573 z "
   style="fill:#ffffff;fill-opacity:0.5;fill-rule:evenodd;stroke-width:1pt;"
   id="path739" /><path
   d="M 247.7333 125.9491 C 247.2124 126.1809 246.7484 127.3704 246.7488 127.9052 C 246.7495 128.9637 246.5697 129.777 247.3097 130.6743 C 248.1329 131.6724 249.7063 130.1836 250.1488 129.5129 C 250.8724 128.4161 251.3472 127.273 249.8288 126.5204 C 249.5122 126.3634 249.3143 126.1401 248.9273 126.085 C 248.5407 126.0299 248.2159 125.9491 247.7333 125.9491 z "
   style="fill:#ffffff;fill-opacity:0.5;fill-rule:evenodd;stroke-width:1pt;"
   id="path744" /><path
   d="M 254.4503 133.8798 C 253.7239 134.1818 252.9295 134.7623 253.1621 135.5231 C 253.4207 136.3687 255.3577 135.5332 255.4774 134.9261 C 255.6189 134.2085 255.5359 133.704 254.4503 133.8798 z "
   style="fill:#ffffff;fill-opacity:0.5;fill-rule:evenodd;stroke-width:1pt;"
   id="path745" /><path
   d="M 243.2355 120.73 C 251.7852 117.9536 255.1239 119.0497 258.6813 119.5962 "
   style="fill:none;fill-rule:evenodd;stroke:#000000;stroke-width:0.625;"
   id="path732" /><path
   d="M 239.6867 134.0112 C 239.2313 132.5697 239.0761 131.1189 239.0717 130.5189 C 240.7068 127.4703 243.092 125.4978 245.2414 124.445 C 247.5071 123.5855 254.1048 123.187 258.1194 124.6011 C 259.8136 125.8498 261.9244 128.3472 262.2044 129.4071 L 262.6711 128.9375 L 264.0503 129.066 C 263.2361 126.6513 261.9125 124.7347 261.398 123.9439 L 263.9354 123.2949 C 261.256 121.995 259.3621 121.3427 257.4995 121.0514 C 255.681 120.5269 253.2996 120.4467 250.7036 120.6206 C 248.3312 120.6831 243.7569 121.2925 239.7608 124.29 L 242.0767 124.2348 C 240.2072 125.9521 238.3538 128.1816 236.8035 132.1417 L 238.1785 130.5188 C 238.403 131.8941 238.9857 133.3822 239.6867 134.0112 z "
   style="fill-rule:evenodd;stroke-width:1.25;"
   id="path775" /><path
   d="M 245.348 137.7109 C 249.2475 138.9137 255.1001 138.6394 258.4948 137.3499 C 258.8933 137.5603 258.0742 138.2135 258.2534 138.6974 C 256.8533 138.525 254.4912 139.5757 253.9293 140.2007 C 252.1564 139.2239 251.2227 139.0687 248.669 139.4929 C 247.5764 139.2068 246.0796 138.2471 245.348 137.7109 z "
   style="fill-rule:evenodd;stroke-width:1.25;"
   id="path776" /></g><g
   id="g884"><path
   d="M 273.8159 92.17567 C 251.9604 83.51944 236.5465 94.35425 227.8412 105.4239 C 219.136 116.4935 220.7981 121.2056 221.4642 125.827 C 213.2991 124.3179 210.6457 128.423 210.3233 131.0023 C 210.0008 133.5817 209.7859 137.8805 211.8279 141.7495 C 213.8698 145.6186 214.6221 147.1232 221.0705 151.5295 C 222.8975 163.4589 227.3039 177.0004 214.4072 208.4898 C 201.7255 222.9986 178.7264 247.2874 171.3108 254.5955 C 163.8952 261.9035 150.5687 279.9588 142.2933 288.5566 C 134.0179 297.1544 122.4109 308.2241 111.9861 295.5423 C 114.9953 296.2947 123.4857 296.2947 130.7938 287.3745 C 138.1019 278.4543 144.3353 267.8145 147.0221 262.4409 C 136.4898 276.9497 116.8224 303.2803 103.1734 292.3182 C 109.1918 291.5659 117.0373 284.3652 121.7661 275.5525 C 107.7947 287.6969 104.7855 290.3837 94.89803 295.1125 C 85.01058 299.8413 76.30532 311.5557 60.93678 298.1217 C 72.54379 300.8085 83.0761 295.4349 89.73936 288.7716 C 96.40264 282.1084 101.024 276.4124 106.0751 272.006 C 111.1263 267.5995 112.8459 263.0858 114.458 256.7449 C 116.0701 250.404 120.7988 233.1009 127.892 227.5124 C 134.9852 221.9239 140.1439 219.9894 148.0968 218.1624 C 156.0498 216.3353 165.5073 209.3496 170.9884 202.1489 C 176.4695 194.9483 180.5534 194.4109 181.7356 190.0045 C 182.9178 185.5982 183.7776 184.5235 183.6701 180.6545 C 183.5627 176.7855 184.9829 171.2497 186.2726 168.5629 C 187.5623 165.8761 192.3957 161.4493 194.9315 148.8427 C 195.8575 145.1404 200.0059 131.862 200.2209 124.7689 C 200.4358 117.6758 204.9481 103.6448 205.5753 91.73866 C 206.6248 80.59174 216.2079 67.75803 229.642 62.38441 C 242.8192 57.53525 259.0058 57.19208 261.8001 61.38351 C 267.926 59.01909 276.8224 60.88043 285.5905 67.45651 C 294.6182 73.90488 297.4833 78.66333 300.1701 99.29802 C 302.8569 119.9327 298.558 131.0022 298.9879 135.5161 C 299.4178 140.03 299.9551 141.9645 300.2776 151.3146 C 300.6 160.6646 301.2448 174.851 306.7259 188.285 C 300.6 188.285 290.4976 188.9298 286.0912 187.5327 C 281.6849 186.1356 280.1803 186.1356 278.7831 185.3833 C 277.386 180.3321 277.4934 174.3136 277.4934 171.0894 C 282.0073 167.3279 287.7033 161.9543 290.4976 155.9359 C 293.2919 149.9174 295.8712 145.6186 295.8712 140.4599 C 295.8712 135.3012 295.2263 126.2735 296.3011 122.8344 C 297.3758 119.3953 298.558 114.774 298.8804 113.1619 C 297.5908 104.2417 295.5744 101.9865 290.3316 97.07611 C 285.3504 93.41309 281.5083 91.09314 273.8159 92.17567 z "
   style="fill:#774c35;fill-rule:evenodd;stroke:#4c3121;stroke-width:0.625;"
   id="path706" /><path
   d="M 221.7203 70.80785 C 211.3824 79.24138 208.1178 84.41037 205.1253 123.0414 C 206.4855 126.578 207.8458 129.0265 207.8458 127.1221 C 207.0296 115.9681 208.1178 80.32964 221.7203 70.80785 z "
   style="fill:#533525;fill-rule:evenodd;stroke-width:1pt;"
   id="path851" /><path
   d="M 210.5367 144.703 C 211.0752 167.3182 210.3573 186.8821 193.6651 206.2665 C 205.3316 187.7795 208.5624 178.6258 209.2803 152.7798 C 209.9983 146.4978 210.5367 145.2414 210.5367 144.703 z "
   style="fill:#533525;fill-rule:evenodd;stroke-width:1pt;"
   id="path880" /><path
   d="M 301.875 188.375 C 300.125 188.4375 298.25 188.4375 296.375 188.4375 C 295.375 178.0625 294.5625 156.5625 294.3125 147.625 C 295.25 145.25 295.875 142.9375 295.875 140.4375 C 295.875 135.3125 295.25 126.25 296.3125 122.8125 C 297.375 119.375 298.5625 114.75 298.875 113.1875 C 297.5625 104.25 295.5625 102 290.3125 97.06253 C 285.9375 93.87497 282.4375 91.62498 276.1875 92.06253 C 283.4375 89.6875 290.5625 94.00002 292.1875 95 C 294 96.06247 296.875 100.75 297.9375 101.8125 C 293.625 90.3125 290.0625 87.43752 283.5625 85.99998 C 293.25 86.37497 296.875 91.75003 298.6875 97.5 C 300.4375 103.25 300.8125 106.8125 300.125 114.75 C 299.375 122.625 297.5625 139.5 297.25 144.1875 C 296.875 148.5625 300.375 179.1875 301.875 188.375 z "
   style="fill:#533525;fill-rule:evenodd;stroke-width:0.625;"
   id="path845" /><path
   d="M 273.8125 92.1875 C 251.9375 83.49998 232.8592 96.03477 227.8125 105.4375 C 221.2092 117.1001 222.1721 119.5341 221.1907 126.098 C 214.6875 125.6421 211.25 128.1875 210.5625 130.4375 C 208.25 120.375 209.3125 104.125 211.4375 97.12502 C 213.5625 89.93752 217.1875 70.18753 244.4375 63.75 C 219.6875 71.99997 213.6605 89.62502 211.8125 118.2987 C 215 103.1737 220.75 83.49998 236.1875 76.31248 C 226.125 83.125 220.8935 90.15518 215.1435 118.5302 C 222.9375 95.92903 229.375 90.3125 239.8125 84.56253 C 230.8125 89.25003 222.2786 104.4391 218.3411 121.0016 C 224.2384 98.6467 240.1241 89.56871 248.4375 87.76009 C 256.4991 86.00624 264.875 85.9375 274.0625 92.1875 C 274 92.1875 273.875 92.1875 273.8125 92.1875 z "
   style="fill:#533525;fill-rule:evenodd;stroke-width:0.625;"
   id="path838" /><path
   d="M 271.2333 85.49855 C 262.7997 80.0575 254.6383 80.32964 247.0209 82.506 C 257.3588 77.06502 266.8805 80.05757 271.2333 85.49855 z "
   style="fill:#533525;fill-rule:evenodd;stroke-width:1pt;"
   id="path846" /><path
   d="M 266.6084 76.24883 C 257.0867 72.16809 248.9252 72.7123 242.6681 74.34453 C 255.7265 69.99173 262.2556 71.35197 266.6084 76.24883 z "
   style="fill:#533525;fill-rule:evenodd;stroke-width:1pt;"
   id="path847" /><path
   d="M 270.1451 77.33701 C 279.6668 73.52834 290.5488 81.14575 293.8134 85.22649 C 287.0121 75.70477 278.8507 72.16801 270.1451 77.33701 z "
   style="fill:#533525;fill-rule:evenodd;stroke-width:1pt;"
   id="path848" /><path
   d="M 266.6084 69.4476 C 278.5786 65.0948 284.2917 68.90347 287.2842 71.89603 C 280.483 69.17554 274.2258 67.5433 266.6084 69.4476 z "
   style="fill:#533525;fill-rule:evenodd;stroke-width:1pt;"
   id="path849" /><path
   d="M 261.7115 65.63893 C 257.9029 61.5582 251.6457 62.10233 248.3811 63.19051 C 254.9103 63.46249 256.2705 63.46249 261.7115 65.63893 z "
   style="fill:#533525;fill-rule:evenodd;stroke-width:1pt;"
   id="path850" /><path
   d="M 288.875 187.8125 C 288.0625 187.875 287.4375 187.875 287.1875 187.6875 C 286.8125 182.125 285.5625 167.5 285.6875 163.0625 C 287.0625 161.4375 288.3125 159.75 289.3125 157.9375 C 288.75 170.625 288.875 182.0625 288.875 187.8125 z "
   style="fill:#533525;fill-rule:evenodd;stroke-width:0.625;"
   id="path856" /><path
   d="M 285.125 187.25 C 281.3125 186.125 280 186 278.8125 185.375 C 277.375 180.3125 277.5 174.3125 277.5 171.0625 C 279.5625 169.375 281.8125 167.3125 283.9375 165 C 284.5 173 285.0625 183.875 285.125 187.25 z "
   style="fill:#533525;fill-rule:evenodd;stroke-width:0.625;"
   id="path861" /><path
   d="M 217.375 148.875 C 220.375 164.375 222.5625 184.5 216 196.5 C 209.5 208.4375 199.125 219.0625 186.0625 230.5 C 173 241.9375 170.875 245.1875 167.875 248.75 C 179.5625 228.875 195.3125 215.5625 199.6875 210.375 C 204.0625 205.1875 208.6875 199.5 211.625 189.9375 C 204.875 203 199.6875 207.625 188.5 218.5 C 177.375 229.4375 162.6875 253.0625 157.5 260.6875 C 152.375 268.3125 134.6875 294.4375 128.125 296.0625 C 121.625 297.6875 115.375 296.625 113.6875 295.8125 C 113.1875 295.75 112.6875 295.625 112.0625 295.625 C 122.5 308.1875 134 297.125 142.3125 288.5625 C 150.5625 279.9375 163.875 261.875 171.3125 254.625 C 178.75 247.3125 201.75 223 214.4375 208.5 C 227.3125 177 222.875 163.4375 221.0625 151.5 C 219.25 150.25 217.875 149.25 217.5625 148.625 C 217.5 148.625 217.4375 148.75 217.375 148.875 z "
   style="fill:#533525;fill-rule:evenodd;stroke-width:0.625;"
   id="path866" /><path
   d="M 146.8125 262.6875 C 140.5 271.4375 130.875 284.375 121.1875 290.75 C 118.8125 292.0625 114.375 293.875 112.0625 294.5 C 108.875 295.1875 105.9375 294.5 103.1875 292.3125 C 103.8125 292.25 104.4375 292.0625 105.125 291.625 C 105.5 291.4375 105.625 291.4375 105.8125 291.4375 C 110.1875 292.8125 118.3125 291.6875 123.25 286 C 128.125 280.3125 132.7576 274.8623 140.125 261.5 C 141.9871 257.9932 146.625 243.8125 151.25 240 C 155.875 236.1875 174.625 224 179.5625 219.625 C 167.875 231.3125 158.13 236.7518 153.1911 242.2059 C 146.9162 249.5393 146.6359 254.1729 141.75 261.5 C 152.8934 247.3457 161.875 239.75 167.3125 235.375 C 156.625 247.25 148.6875 259.3125 146.8125 262.6875 z "
   style="fill:#533525;fill-rule:evenodd;stroke-width:0.625;"
   id="path871" /><path
   d="M 200.4855 153.3183 C 196.5368 161.2156 190.0754 166.7797 188.6395 180.9591 C 187.2036 195.1384 184.5113 195.4974 180.0242 202.3179 C 189.7164 193.1641 189.3575 186.5232 190.0754 181.8565 C 190.5901 177.3954 194.5625 166.6002 197.7933 161.9336 C 195.4599 170.3694 196.3574 180.7796 192.5881 188.318 C 190.4649 192.3715 185.7677 200.882 184.3318 202.3179 C 194.383 190.2923 195.8189 185.9847 198.1522 173.7796 C 200.4855 161.5746 206.2291 150.0875 206.7675 148.1131 C 207.306 146.1388 208.3829 137.5235 208.5624 134.2928 C 205.5111 136.2671 204.0752 138.4209 203.7163 140.9337 C 203.3573 143.4465 202.2804 150.4465 200.4855 153.3183 z "
   style="fill:#533525;fill-rule:evenodd;stroke-width:1pt;"
   id="path881" /><path
   d="M 120.75 276.375 C 107.625 287.875 104.5 290.5625 94.875 295.125 C 85 299.8125 76.3125 311.5625 60.9375 298.125 C 61.8125 298.3125 62.75 298.5 63.5625 298.3125 C 67.0625 300.9375 69.75 302.25 71.5625 302.0625 C 74.25 301.75 85.4375 296.625 89.5 294.4375 C 93.5625 292.25 111.25 280 113.1875 277.8125 C 115.0625 275.6875 118.625 269.375 122.6875 261.5 C 126.75 253.625 130.0625 237 147.75 228.0625 C 165.375 219.0625 174.375 213.875 179.8125 209 C 166.5 221.25 151.8125 228.3125 149.875 229.4375 C 148 230.5 140.125 235.125 136 242.5 C 131.9375 249.8125 130.5625 256.375 126.75 262.875 C 136.3125 250.0625 138.75 240 151.25 232.9375 C 143.375 239.75 139.8125 245.1875 136 252.25 C 133 257.75 126.75 268.9375 120.75 276.375 z "
   style="fill:#533525;fill-rule:evenodd;stroke-width:0.625;"
   id="path876" /><path
   d="M 215.5934 146.9699 C 217.0293 158.9954 218.0751 169.2926 214.4854 181.4975 C 215.9213 169.4719 215.3828 161.3951 212.87 143.267 C 213.588 144.703 215.2344 146.7904 215.5934 146.9699 z "
   style="fill:#533525;fill-rule:evenodd;stroke-width:1pt;"
   id="path879" /><path
   d="M 242.2806 60.26685 C 247.2541 60.03003 251.2803 60.50366 251.9908 60.50366 C 246.5436 62.39835 239.2018 63.5825 233.281 67.8455 C 240.1491 68.31914 242.0438 66.42445 247.9646 67.13498 C 244.8858 69.26648 237.3071 71.87161 234.2283 75.66098 C 241.5701 74.71364 253.8855 74.24008 257.6748 75.89787 C 248.912 77.55566 245.8331 80.39769 243.7016 81.81866 C 253.175 81.34503 257.6748 81.58185 261.4641 83.71335 C 252.9381 82.76601 243.4648 82.29237 238.965 84.42387 C 241.0965 80.39769 244.4121 78.26619 248.2015 77.08203 C 239.6755 76.60832 236.5966 74.71371 228.5443 79.21353 C 233.5178 72.10851 238.4913 69.74019 241.807 68.79285 C 234.2283 69.02966 233.7546 68.31914 226.4128 72.34532 C 233.7546 63.81932 243.4648 61.92471 245.3595 61.451 C 243.4648 60.97729 243.9384 60.97729 242.2806 60.26685 z "
   style="fill:#d19d02;fill-rule:evenodd;stroke-width:1pt;"
   id="path882" /><path
   d="M 279.7003 66.18764 L 279.7003 66.18764 C 283.016 66.42453 289.8842 70.92442 291.542 73.76637 C 288.7 74.24001 286.3316 73.05585 283.2528 73.29266 C 286.5685 75.42416 291.3052 77.79256 292.963 81.58185 C 288.2263 81.58185 285.6212 80.39769 282.5423 81.34503 C 287.279 84.18698 291.542 85.60803 292.963 87.73953 C 285.3843 85.37114 282.0686 85.1344 276.6215 86.79219 C 278.2793 83.95016 282.7792 84.18706 284.437 84.42387 C 281.1213 82.05548 282.0686 80.39777 278.9898 80.16087 C 283.9633 79.45035 288.9368 80.16087 290.3578 80.63451 C 286.8053 76.84514 286.0948 74.4769 281.1213 73.05585 C 283.9633 71.87169 286.5685 72.81903 287.9895 72.81903 C 286.0948 70.21382 283.016 67.60869 279.7003 66.18764 z "
   style="fill:#d19d02;fill-rule:evenodd;stroke-width:1pt;"
   id="path883" /></g><path
   d="M 280.4179 113.3802 C 285.6615 113.4562 291.741 112.8483 296.3766 118.4718 C 296.0727 117.2558 295.9207 117.1799 295.5407 116.6479 C 295.1608 116.1159 290.1451 111.6322 281.1778 112.3163 C 280.4939 112.6202 280.4179 113.2281 280.4179 113.3802 z "
   style="fill-rule:evenodd;stroke-width:1pt;"
   id="path728" /><path
   d="M 263.0913 112.8482 C 263.0913 112.0123 262.8633 111.8602 262.3313 111.6323 C 261.7994 111.4043 245.8406 108.6686 233.6056 118.7758 C 233.4536 119.0037 233.4536 119.2316 233.3776 119.4597 C 244.0928 112.1643 251.3122 111.6324 263.0913 112.8482 z "
   style="fill-rule:evenodd;stroke-width:1pt;"
   id="path729" /><g
   id="g694"><path
   d="M 326.6203 391.0225 C 336.3645 401.0197 339.022 404.0568 352.6892 413.4214 C 349.5255 415.3196 345.9822 417.8506 346.4884 418.9895 C 346.9946 420.1285 347.8804 421.5205 344.7167 422.6594 C 341.553 423.7984 335.6053 427.3417 334.4663 430.5054 C 333.3274 433.6691 333.8336 438.9841 330.923 438.9841 C 328.0124 438.9841 323.4566 441.6416 320.9257 444.9319 C 318.3947 448.2221 317.3823 449.7407 313.5859 448.4752 C 309.7894 447.2097 311.308 449.2345 307.7647 448.3487 C 304.2213 447.4629 298.2736 444.8053 294.2241 440.7558 C 290.1745 436.7062 297.0081 421.3939 300.8046 415.6993 C 304.601 410.0046 322.5708 392.7941 326.6203 391.0225 z "
   style="fill:#681e1e;fill-rule:evenodd;stroke-width:1pt;"
   id="path614" /><path
   d="M 368.6689 291.5799 C 370.8165 293.0117 372.4271 294.9804 374.2168 294.6224 C 376.0065 294.2644 377.2593 293.3696 379.4068 294.0854 C 381.5544 294.8013 380.6596 295.6962 381.0175 296.233 C 383.881 295.6962 388.1762 292.2958 390.3237 297.6648 C 393.1871 296.054 395.5137 295.5172 400.3458 299.0965 C 397.8402 304.8234 394.6189 317.8878 394.2609 322.7199 C 393.903 327.552 395.6927 345.9855 393.5451 350.8175 C 391.3975 355.6496 385.6706 362.0923 380.8385 362.0923 C 376.0065 362.0923 378.8699 359.7658 375.8275 357.0813 C 372.7851 354.3969 368.4899 353.1441 360.0785 359.7658 C 351.6672 366.3875 340.3923 380.8838 333.9496 399.1382 C 327.5068 417.3927 330.5492 418.1086 327.5068 421.6879 C 324.4644 425.2672 316.5899 427.4147 312.4737 427.7727 C 313.9054 429.9202 314.6213 430.6361 316.411 430.6361 C 318.2006 430.6361 318.5586 431.7099 317.1268 433.3206 C 315.6951 434.9313 312.8316 437.9737 312.6527 439.5844 C 312.4737 441.1951 312.8316 443.1637 308.5365 442.6268 C 304.2413 442.0899 300.1251 443.8796 298.1565 445.6692 C 296.1879 447.4589 289.9241 447.8168 284.913 445.1323 C 286.1658 437.4368 290.282 430.4572 290.461 425.6251 C 290.6399 420.793 288.6713 404.1492 289.7451 396.6327 C 290.8189 389.1161 293.5034 366.9243 295.293 363.3451 C 297.0827 359.7658 303.1675 351.1754 300.483 342.5851 C 305.3151 333.6368 315.6951 318.7826 331.4441 308.9396 C 347.193 299.0965 360.2575 293.5486 368.6689 291.5799 z "
   style="fill:#ae0000;fill-rule:evenodd;stroke-width:1pt;"
   id="path612" /><path
   d="M 315.8312 321.2997 C 320.3907 326.4671 317.1857 328.9413 317.959 331.6347 C 320.5218 340.2348 330.5022 325.0191 335.3469 324.9047 C 337.4341 324.8477 333.6184 328.2832 332.6636 329.9897 C 330.0899 335.4684 328.4026 344.3799 328.2506 346.2038 C 327.9466 349.8515 331.6379 357.4728 334.6777 349.2654 C 337.7175 341.058 338.0215 338.0183 338.6294 336.1944 C 338.9334 342.5779 338.5557 346.2593 337.8033 348.2982 C 337.8033 350.1221 340.1493 362.6404 344.7089 361.7284 C 349.2686 360.8165 348.3566 367.5039 348.3566 371.7596 C 354.1322 364.4642 363.5554 352.3052 372.6747 354.737 C 370.8509 353.2171 371.5933 352.2194 369.635 350.1773 C 363.2773 344.4384 351.7411 328.7664 354.7809 329.0705 C 357.8206 329.3746 368.115 338.3223 372.0668 338.3223 C 368.4191 334.6746 366.7536 332.401 364.8406 329.9541 C 362.7128 326.0024 364.2441 318.6664 372.3662 319.2976 C 380.1812 320.3349 378.3113 314.854 378.9062 312.0283 C 379.9702 309.1405 381.6344 305.7937 383.1543 303.6658 C 382.9731 305.29 382.1654 308.1909 381.8952 309.9833 C 384.0967 314.8924 386.0834 307.7308 388.374 312.7666 C 389.8575 316.3657 393.6491 307.0127 396.9928 308.8366 C 398.5127 303.061 400.0326 301.8451 400.6405 299.1093 C 396.3848 296.0696 393.6491 295.4616 389.6974 297.5895 C 389.0894 295.1577 387.5696 293.3339 381.1861 296.0696 C 380.5781 293.9418 379.0582 293.3339 376.3224 293.9418 C 373.5867 294.5497 371.4588 294.8537 368.723 291.8139 C 351.7004 296.6775 327.6862 309.4445 315.8312 321.2997 z "
   style="fill:#ff4444;fill-rule:evenodd;stroke-width:1pt;"
   id="path750" /><path
   d="M 379.6979 298.34 C 379.5904 301.0268 381.31 304.3584 377.1186 306.6153 C 377.8709 303.4987 378.9456 299.7372 379.6979 298.34 z "
   style="fill:#ae0000;fill-rule:evenodd;stroke-width:1pt;"
   id="path754" /><path
   d="M 385.7163 303.2837 C 385.9312 302.209 387.9732 300.9194 388.1881 300.4895 C 388.4031 300.0596 388.9405 299.3073 389.5853 298.555 C 388.2956 301.6717 388.2957 302.5313 388.618 303.3912 C 387.4358 303.1762 387.1134 303.3912 385.7163 303.2837 z "
   style="fill:#ae0000;fill-rule:evenodd;stroke-width:1pt;"
   id="path752" /><path
   d="M 368.6689 291.5799 C 370.8165 293.0117 372.4271 294.9804 374.2168 294.6224 C 376.0065 294.2644 377.2593 293.3696 379.4068 294.0854 C 381.5544 294.8013 380.6596 295.6962 381.0175 296.233 C 383.881 295.6962 388.1762 292.2958 390.3237 297.6648 C 393.1871 296.054 395.5137 295.5172 400.3458 299.0965 C 397.8402 304.8234 394.6189 317.8878 394.2609 322.7199 C 393.903 327.552 395.6927 345.9855 393.5451 350.8175 C 391.3975 355.6496 385.6706 362.0923 380.8385 362.0923 C 376.0065 362.0923 378.8699 359.7658 375.8275 357.0813 C 372.7851 354.3969 368.4899 353.1441 360.0785 359.7658 C 351.6672 366.3875 340.3923 380.8838 333.9496 399.1382 C 327.5068 417.3927 330.5492 418.1086 327.5068 421.6879 C 324.4644 425.2672 316.5899 427.4147 312.4737 427.7727 C 313.9054 429.9202 314.6213 430.6361 316.411 430.6361 C 318.2006 430.6361 318.5586 431.7099 317.1268 433.3206 C 315.6951 434.9313 312.8316 437.9737 312.6527 439.5844 C 312.4737 441.1951 312.8316 443.1637 308.5365 442.6268 C 304.2413 442.0899 300.1251 443.8796 298.1565 445.6692 C 296.1879 447.4589 289.9241 447.8168 284.913 445.1323 C 286.1658 437.4368 290.282 430.4572 290.461 425.6251 C 290.6399 420.793 288.6713 404.1492 289.7451 396.6327 C 290.8189 389.1161 293.5034 366.9243 295.293 363.3451 C 297.0827 359.7658 303.1675 351.1754 300.483 342.5851 C 305.3151 333.6368 315.6951 318.7826 331.4441 308.9396 C 347.193 299.0965 360.2575 293.5486 368.6689 291.5799 z "
   style="fill:none;fill-rule:evenodd;stroke:#6c0000;stroke-width:1pt;"
   id="path680" /><path
   d="M 299.5268 444.5802 C 303.5043 446.6794 307.3713 448.4472 308.4762 448.4472 C 309.581 448.4472 310.2439 448.5577 310.6859 448.2262 C 311.1278 447.8948 312.2327 448.1157 313.0061 448.2262 C 313.7795 448.3367 315.7682 449.773 317.536 448.4472 C 319.3038 447.1214 322.2869 442.1495 326.5958 440.2712 C 330.9048 438.393 332.5621 439.3874 333.004 437.3986 C 333.4459 435.4099 333.5564 429.7751 336.871 427.3444 C 340.1856 424.9137 343.2792 422.8145 344.7155 422.483 C 346.1518 422.1516 347.3671 421.0468 346.9252 419.9419 C 346.4833 418.837 346.1518 418.3951 347.6986 416.9587 C 349.2454 415.5224 351.7866 414.1966 352.56 413.5337 "
   style="fill:none;fill-rule:evenodd;stroke:#6c0000;stroke-width:1pt;"
   id="path681" /><path
   d="M 312.0117 427.7863 C 308.2552 428.0073 308.2552 427.6759 306.4874 428.0073 C 304.7197 428.3388 303.9462 429.4436 301.2946 429.2226 C 303.5043 419.3894 311.5698 399.8335 313.448 395.9665 C 315.3263 392.0994 320.2981 382.1557 320.961 379.2831 C 321.624 376.4105 327.1483 358.5119 328.3636 349.7834 "
   style="fill:none;fill-rule:evenodd;stroke:#6c0000;stroke-width:0.875;stroke-linecap:round;stroke-linejoin:round;"
   id="path682" /><path
   d="M 330.3526 369.1179 C 333.4462 357.8484 334.9929 356.0807 336.3188 353.429 C 337.6446 350.7773 339.4124 343.4853 338.7495 335.5303 "
   style="fill:none;fill-rule:evenodd;stroke:#6c0000;stroke-width:0.875;stroke-linecap:round;stroke-linejoin:round;"
   id="path683" /><path
   d="M 308.4764 407.1251 C 309.1393 395.8555 310.6861 389.4474 310.2441 384.586 C 309.8022 379.7246 308.9183 376.189 309.8022 368.2341 "
   style="fill:none;fill-rule:evenodd;stroke:#6c0000;stroke-width:0.875;stroke-linecap:round;stroke-linejoin:round;"
   id="path684" /><path
   d="M 290.5777 426.3496 C 293.0083 418.6156 300.5214 408.6719 302.2892 401.8218 "
   style="fill:none;fill-rule:evenodd;stroke:#6c0000;stroke-width:0.875;stroke-linecap:round;stroke-linejoin:round;"
   id="path685" /><path
   d="M 373.4422 354.9756 C 369.0227 352.3239 365.0452 348.7883 363.7194 347.2416 "
   style="fill:none;fill-rule:evenodd;stroke:#6c0000;stroke-width:1pt;"
   id="path686" /><path
   d="M 380.9552 296.418 C 378.0825 299.5117 378.9664 301.7215 376.9777 306.3618 "
   style="fill:none;fill-rule:evenodd;stroke:#6c0000;stroke-width:0.875;stroke-linecap:round;stroke-linejoin:round;"
   id="path688" /><path
   d="M 390.1164 297.8453 C 386.5809 302.7068 386.6884 301.3097 385.8045 302.8564 "
   style="fill:none;fill-rule:evenodd;stroke:#6c0000;stroke-width:0.875;stroke-linecap:round;stroke-linejoin:round;"
   id="path689" /><path
   d="M 389.1311 303.2682 C 385.8166 303.4891 383.6069 302.8263 382.723 305.036 C 381.8391 307.2457 381.8391 314.3168 382.9439 316.7475 C 384.0488 319.1781 386.2585 325.5863 386.4795 327.3541 "
   style="fill:none;fill-rule:evenodd;stroke:#6c0000;stroke-width:0.875;stroke-linecap:round;stroke-linejoin:round;"
   id="path690" /><path
   d="M 360.4048 324.0395 C 366.592 334.2042 376.5358 342.6011 381.8391 345.4738 "
   style="fill:none;fill-rule:evenodd;stroke:#6c0000;stroke-width:0.875;stroke-linecap:round;stroke-linejoin:round;"
   id="path691" /><path
   d="M 377.8616 361.3837 C 372.7792 358.2901 369.4646 356.7434 366.813 355.6385 C 370.3485 354.3126 376.3148 355.1965 377.8616 361.3837 z "
   style="fill:#681e1e;fill-rule:evenodd;stroke-width:1pt;"
   id="path692" /><path
   d="M 367.034 355.8594 C 372.3373 357.8482 375.4308 359.8369 377.8616 361.3837 "
   style="fill:none;fill-rule:evenodd;stroke:#6c0000;stroke-width:1pt;"
   id="path693" /></g><g
   id="g962"><path
   d="M 298.5586 95.21199 C 298.9885 91.12805 301.7828 90.0533 304.1472 87.90387 C 306.5116 85.75444 308.4461 84.03477 308.4461 89.62338 C 308.4461 95.21199 307.5863 101.2304 308.6611 102.5201 C 309.7358 103.8098 309.091 105.7444 309.3059 106.819 C 311.6703 108.9685 313.6048 112.4077 313.6048 117.3513 C 313.6048 122.295 312.96 128.9584 312.96 130.463 C 312.96 131.9676 312.1002 132.6124 311.0254 134.117 C 309.9507 135.6217 308.4461 140.7802 305.2219 136.9113 C 304.3622 139.7056 304.1472 141.6401 303.2874 143.3596 C 302.4277 145.0792 300.923 149.1631 295.7644 140.1355 C 295.9793 133.6872 295.1195 130.6778 295.5494 127.6687 C 295.9793 124.6595 296.6241 121.6502 297.6989 118.2111 C 298.7736 114.772 300.2782 107.6787 298.5586 95.21199 z "
   style="fill:#b70202;fill-rule:evenodd;stroke:#530a0a;stroke-width:0.625;"
   id="path725" /><path
   d="M 310.25 124.9375 C 310.25 130.125 307.625 131.5625 307.875 133.4375 C 308 134.625 308.0625 136.5 308 138 C 307.25 138.5 306.375 138.25 305.25 136.9375 C 305.0625 137.5 304.875 138.0625 304.8125 138.3125 C 305.0625 136.125 304.875 132.6875 306 131.3125 C 307.1875 129.875 307.4375 127.75 310.25 124.9375 z "
   style="fill:#8a0101;fill-rule:evenodd;stroke-width:1pt;"
   id="path955" /><path
   d="M 303.3125 143.25 C 303.3125 143.3125 303.3125 143.375 303.3125 143.375 C 302.4375 145.0625 300.9375 149.1875 295.75 140.125 C 296 133.6875 295.125 130.6875 295.5625 127.6875 C 296 124.6875 296.625 121.625 297.6875 118.1875 C 298.5625 115.375 299.6875 110.1875 299.125 101.375 C 303.375 107.25 306.75 110.375 307.4375 111.1875 C 309.3125 110.9375 309.5625 110.9375 310 110.6875 C 311.1875 113.0625 312.125 116.875 312.125 118.75 C 310 115 309.3125 112.8125 306.4375 111.1875 C 303.625 109.5 302.6875 109.0625 301.25 109.3125 C 299.8125 115 300.5625 124.1875 300.75 128.6875 C 301 132.875 301.8125 139.875 303.3125 143.25 z "
   style="fill:#8a0101;fill-rule:evenodd;stroke-width:1pt;"
   id="path950" /><path
   d="M 301.2526 103.1323 C 303.6209 100.764 304.0946 101.4745 306.6998 98.63248 "
   style="fill:none;fill-rule:evenodd;stroke:#530a0a;stroke-width:0.625;"
   id="path956" /><path
   d="M 301.9631 108.8163 C 307.4103 110.4741 311.6733 119.0002 312.3838 121.1317 C 313.0943 123.2632 311.1996 123.0264 309.5418 125.6315 C 307.8839 128.2367 305.7524 131.3155 305.0419 136.289 "
   style="fill:none;fill-rule:evenodd;stroke:#530a0a;stroke-width:0.625;"
   id="path957" /><path
   d="M 306.9366 120.1844 C 304.3314 116.8687 301.0157 113.7898 300.0684 114.5003 C 299.1211 115.2108 300.3053 123.5 300.7789 125.3947 C 301.2526 127.2894 302.6736 132.026 303.1473 132.9734 "
   style="fill:none;fill-rule:evenodd;stroke:#530a0a;stroke-width:0.625;"
   id="path958" /><path
   d="M 301.2526 145.2887 C 299.3579 142.6835 297.7001 133.9206 297.9369 132.2628 "
   style="fill:none;fill-rule:evenodd;stroke:#530a0a;stroke-width:0.625;"
   id="path959" /><path
   d="M 309.3049 106.9217 C 310.7259 110.711 310.2523 110.4741 307.1734 112.132 "
   style="fill:none;fill-rule:evenodd;stroke:#530a0a;stroke-width:0.625;"
   id="path960" /><path
   d="M 308.3576 133.6839 C 309.3049 129.4209 310.2523 126.8158 310.7259 124.2106 "
   style="fill:none;fill-rule:evenodd;stroke:#530a0a;stroke-width:0.625;"
   id="path961" /></g><g
   transform="translate(0.615158,0.290551)"
   id="g766"><path
   d="M 277.6327 128.952 C 277.7609 135.6045 279.6779 136.5804 280.6721 137.5326 C 284.2187 138.3923 287.633 139.9844 291.0722 137.835 C 292.3588 136.4802 294.7013 131.1468 295.2019 127.5259 C 292.914 124.1861 290.4245 123.3099 284.9024 123.4604 C 278.7557 123.9399 279.3671 126.0894 277.6327 128.952 z "
   style="fill:#ffffff;fill-rule:evenodd;stroke-width:1pt;"
   id="path758" /><path
   d="M 281.2994 137.7712 C 278.8275 133.7948 277.8531 127.8527 280.6367 122.8403 C 283.8608 120.3686 286.7167 120.8981 289.4035 122.0802 C 291.9828 127.4537 291.0329 133.6137 287.9162 138.45 C 286.0893 138.9873 283.4489 138.3086 281.2994 137.7712 z "
   style="fill:url(#linearGradient748);fill-rule:evenodd;stroke-width:1pt;"
   id="path737" /><ellipse
   cx="251.700592"
   cy="130.570496"
   rx="3.22418213"
   ry="4.51385498"
   transform="translate(33.13682,-0.429969)"
   style="fill-rule:evenodd;stroke-width:1pt;"
   id="path743" /><path
   d="M 281.8282 125.0895 C 279.7406 125.0895 279.7695 129.8616 280.538 131.0809 C 281.2073 132.1429 283.1148 130.9903 283.7405 130.3762 C 284.5421 129.5893 285.9108 127.5226 284.9155 126.4164 C 283.9212 125.3113 283.4157 125.1969 282.0312 125.1969 C 282.0269 125.1969 282.0397 125.1969 281.8282 125.0895 z "
   style="fill:#ffffff;fill-opacity:0.5;fill-rule:evenodd;stroke-width:1pt;"
   id="path740" /><path
   d="M 285.9121 133.7947 C 285.0217 133.7947 284.7159 135.4904 285.3207 136.2008 C 286.0426 137.0489 286.9432 135.7147 287.1792 135.1287 C 287.6645 133.9238 286.991 133.8481 285.9121 133.7947 z "
   style="fill:#ffffff;fill-opacity:0.5;fill-rule:evenodd;stroke-width:1pt;"
   id="path741" /><path
   d="M 282.0689 125.9492 C 280.5846 125.9492 280.6051 129.4438 281.1515 130.3367 C 281.6274 131.1144 282.9837 130.2704 283.4286 129.8207 C 283.9985 129.2444 284.9717 127.731 284.264 126.9209 C 283.557 126.1116 283.1976 126.0279 282.2132 126.0279 C 282.2102 126.0279 282.2193 126.0279 282.0689 125.9492 z "
   style="fill:#ffffff;fill-opacity:0.5;fill-rule:evenodd;stroke-width:1pt;"
   id="path746" /><path
   d="M 286.0082 134.2246 C 285.4459 134.2246 285.2528 135.3764 285.6347 135.8589 C 286.0906 136.4349 286.6593 135.5287 286.8083 135.1307 C 287.1148 134.3123 286.6895 134.2609 286.0082 134.2246 z "
   style="fill:#ffffff;fill-opacity:0.5;fill-rule:evenodd;stroke-width:1pt;"
   id="path747" /><path
   d="M 286.645 119.9506 C 289.5285 119.3149 292.6651 120.3209 294.0431 121.337 "
   style="fill:none;fill-rule:evenodd;stroke:#000000;stroke-width:0.625;"
   id="path733" /><path
   d="M 278.3091 128.6124 C 278.723 125.3693 282.0544 123.1877 285.7748 123.2704 C 288.6148 123.3335 291.7935 123.9941 294.7822 128.0761 C 294.574 129.3415 294.4125 130.6115 294.1209 131.6583 C 295.0685 130.7108 295.5893 128.8 295.7351 128.2896 L 297.4588 128.5602 C 295.6151 126.1649 294.949 125.9832 294.0585 125.2595 L 296.5104 124.4995 C 295.1254 123.406 292.6848 121.4426 288.4718 120.9378 C 285.354 120.6051 283.0323 120.9393 280.7036 122.1455 L 281.1409 122.7287 C 279.2976 123.723 277.7775 125.3906 277.4731 128.5821 L 278.0771 129.224 L 278.3091 128.6124 z "
   style="fill-rule:evenodd;stroke-width:1pt;"
   id="path734" /><path
   d="M 280.7824 137.6712 C 282.8136 138.6868 283.7511 139.468 284.5324 139.2337 C 285.3136 138.9993 287.2668 138.765 288.4387 139.2336 C 289.7668 138.6868 290.7043 138.9211 291.7981 139.0775 C 291.5637 138.5306 291.9542 137.9057 291.4074 137.515 C 288.2823 138.6086 284.6105 138.6087 280.7824 137.6712 z "
   style="fill-rule:evenodd;stroke-width:1pt;"
   id="path748" /></g><g
   id="g932"><path
   d="M 206.7771 119.2858 C 206.9921 105.5293 205.9173 95.85669 202.9081 89.62332 C 199.8989 83.38995 197.5345 79.52101 194.5252 83.81987 C 191.516 88.11873 190.0114 94.56709 189.1516 103.8097 C 188.2918 113.0523 188.9367 113.9121 190.6562 114.7719 C 192.3758 115.6317 193.2356 116.2765 195.6 117.5662 C 187.647 118.211 180.3389 120.7904 178.4044 122.2949 C 176.4699 123.7995 174.9652 124.8742 174.9652 128.3134 C 174.9652 131.7526 173.8905 136.4813 174.1055 139.2756 C 174.3204 142.0699 174.1055 146.3687 176.4699 142.0699 C 178.8343 137.771 182.0584 134.117 185.7125 132.3974 C 182.9182 138.8457 182.7033 142.4997 182.9182 144.0044 C 183.1332 145.5091 183.5631 146.7987 186.5723 146.7987 C 189.5815 146.7987 191.0861 148.3033 192.8057 148.5182 C 194.5252 148.7332 197.3195 152.1723 199.469 152.6022 C 201.6184 153.0321 204.4127 156.4713 206.3472 158.6207 C 208.2817 160.7701 210.8611 159.2655 211.7208 154.1068 C 212.5806 148.9482 211.7209 144.2193 211.5059 140.1354 C 209.5714 136.2663 210.0013 135.1917 210.0013 133.2572 C 210.0013 131.3227 210.8611 129.1732 212.5806 128.0985 C 213.4404 123.1548 214.945 120.5754 206.7771 119.2858 z "
   style="fill:#b70202;fill-rule:evenodd;stroke-width:1pt;"
   id="path724" /><path
   d="M 206.75 119.3125 C 206.875 112.5 206.6875 106.75 206.0625 101.9375 C 206 100.625 205.6875 99.4375 205.3125 97.9375 C 205.125 103.625 205.125 111.1875 203.9375 112.8125 C 202.75 114.5 201.5625 114.5 200.8125 114.5 C 198.25 112.125 194.6875 109.5 192.5625 110.5 C 191.4375 111 190 111.8125 189 112.625 C 189.25 114 189.8125 114.375 190.625 114.75 C 192.375 115.625 193.25 116.25 195.625 117.5625 C 193.75 117.6875 191.9375 117.9375 190.5625 118.5 C 195.375 119.5625 200.5 121.875 201.5625 122.5625 C 202.75 123.25 202.5 125.1875 203.1875 124.6875 C 203.9375 124.1875 206.3125 124 207.25 124 C 208.1875 124 211.75 124.4375 209.8125 123 C 208.0625 121.75 206.5625 120.625 206.875 119.3125 C 206.875 119.3125 206.8125 119.3125 206.75 119.3125 z "
   style="fill:#8a0101;fill-rule:evenodd;stroke-width:1pt;"
   id="path921" /><path
   d="M 186.3125 119.3125 C 182.375 120.25 179.5 121.4375 178.375 122.3125 C 176.5 123.8125 174.9375 124.875 174.9375 128.3125 C 174.9375 131.75 173.875 136.5 174.125 139.25 C 174.3125 142.0625 174.125 146.375 176.5 142.0625 C 178.8125 137.75 182.0625 134.125 185.6875 132.375 C 182.9375 138.875 182.6875 142.5 182.9375 144 C 183.125 145.5 183.5625 146.8125 186.5625 146.8125 C 189.5625 146.8125 191.0625 148.3125 192.8125 148.5 C 194.5 148.75 197.3125 152.1875 199.5 152.625 C 201.625 153.0625 204.4375 156.5 206.375 158.625 C 208.3125 160.75 210.875 159.25 211.75 154.125 C 212.5625 148.9375 211.75 144.25 211.5 140.125 C 209.5625 136.25 210 135.1875 210 133.25 C 210 132.125 210.3125 130.9375 210.9375 130 C 209.4375 130.125 208 130.625 207.25 131.8125 C 205.8125 133.9375 203.6875 140.3125 203.6875 142.6875 C 203.6875 145.0625 202 146.9375 201.3125 146 C 200.625 145.0625 200.8125 142.9375 198.25 141.75 C 195.625 140.5625 192.8125 143.1875 192.5625 139.625 C 192.3125 136.0625 196.125 129.6875 199.625 125.375 C 197.5 125.625 195.375 126.8125 193.5 127.5 C 191.625 128.25 189.25 130.625 187.125 131.0625 C 184.9375 131.5625 180.25 133.4375 180.9375 131.0625 C 181.625 128.6875 180 127.5 179.5 125.875 C 179.1875 124.5625 181.3125 122.4375 186.3125 119.3125 z "
   style="fill:#8a0101;fill-rule:evenodd;stroke-width:1pt;"
   id="path916" /><path
   d="M 206.5191 121.8422 C 202.2561 115.4477 196.8089 110.0004 192.5459 110.4741 C 188.2829 110.9478 189.467 113.0793 191.3617 114.7371 C 193.2564 116.395 200.8351 119.0002 203.6771 121.3685 "
   style="fill:none;fill-rule:evenodd;stroke:#530a0a;stroke-width:0.625;stroke-linecap:round;stroke-linejoin:round;"
   id="path922" /><path
   d="M 205.8086 117.5792 C 202.9666 110.0005 200.3614 104.0796 194.2037 102.8955 "
   style="fill:none;fill-rule:evenodd;stroke:#530a0a;stroke-width:0.625;stroke-linecap:round;stroke-linejoin:round;"
   id="path923" /><path
   d="M 205.5717 112.132 C 203.6771 102.185 202.9666 93.89577 198.2299 91.52745 "
   style="fill:none;fill-rule:evenodd;stroke:#530a0a;stroke-width:0.625;stroke-linecap:round;stroke-linejoin:round;"
   id="path924" /><path
   d="M 197.2826 123.0263 C 187.5724 123.2632 183.5462 126.1052 178.099 131.0787 "
   style="fill:none;fill-rule:evenodd;stroke:#530a0a;stroke-width:0.625;stroke-linecap:round;stroke-linejoin:round;"
   id="path925" /><path
   d="M 203.9139 123.9737 C 196.8089 125.6315 191.1249 128.7104 185.9145 132.026 "
   style="fill:none;fill-rule:evenodd;stroke:#530a0a;stroke-width:0.625;stroke-linecap:round;stroke-linejoin:round;"
   id="path926" /><path
   d="M 196.3352 126.8157 C 193.4932 130.6051 190.6512 133.6838 190.1775 139.3679 "
   style="fill:none;fill-rule:evenodd;stroke:#530a0a;stroke-width:0.625;stroke-linecap:round;stroke-linejoin:round;"
   id="path927" /><path
   d="M 201.7824 125.1579 C 198.9404 132.4997 198.2299 142.4468 198.7036 147.1834 "
   style="fill:none;fill-rule:evenodd;stroke:#530a0a;stroke-width:0.625;stroke-linecap:round;stroke-linejoin:round;"
   id="path928" /><path
   d="M 210.3084 128.4736 C 204.1507 137.7101 204.3876 149.078 204.6244 151.6832 C 204.8612 154.2885 204.8612 158.5515 207.7032 159.9724 "
   style="fill:none;fill-rule:evenodd;stroke:#530a0a;stroke-width:0.625;stroke-linecap:round;stroke-linejoin:round;"
   id="path929" /><path
   d="M 210.3084 128.4736 C 204.8612 127.2894 203.9139 128.4735 203.9139 126.1052 C 203.9139 123.7368 202.9666 121.6053 204.1507 120.8948 "
   style="fill:none;fill-rule:evenodd;stroke:#530a0a;stroke-width:0.625;stroke-linecap:round;stroke-linejoin:round;"
   id="path930" /><path
   d="M 206.7771 119.2858 C 206.9921 105.5293 205.9173 95.85669 202.9081 89.62332 C 199.8989 83.38995 197.5345 79.52101 194.5252 83.81987 C 191.516 88.11873 190.0114 94.56709 189.1516 103.8097 C 188.2918 113.0523 188.9367 113.9121 190.6562 114.7719 C 192.3758 115.6317 193.2356 116.2765 195.6 117.5662 C 187.647 118.211 180.3389 120.7904 178.4044 122.2949 C 176.4699 123.7995 174.9652 124.8742 174.9652 128.3134 C 174.9652 131.7526 173.8905 136.4813 174.1055 139.2756 C 174.3204 142.0699 174.1055 146.3687 176.4699 142.0699 C 178.8343 137.771 182.0584 134.117 185.7125 132.3974 C 182.9182 138.8457 182.7033 142.4997 182.9182 144.0044 C 183.1332 145.5091 183.5631 146.7987 186.5723 146.7987 C 189.5815 146.7987 191.0861 148.3033 192.8057 148.5182 C 194.5252 148.7332 197.3195 152.1723 199.469 152.6022 C 201.6184 153.0321 204.4127 156.4713 206.3472 158.6207 C 208.2817 160.7701 210.8611 159.2655 211.7208 154.1068 C 212.5806 148.9482 211.7209 144.2193 211.5059 140.1354 C 209.5714 136.2663 210.0013 135.1917 210.0013 133.2572 C 210.0013 131.3227 210.8611 129.1732 212.5806 128.0985 C 213.4404 123.1548 214.945 120.5754 206.7771 119.2858 z "
   style="fill:none;fill-rule:evenodd;stroke:#530a0a;stroke-width:0.625;"
   id="path931" /></g></g></svg>
