<?xml version="1.0" standalone="no"?>
<!DOCTYPE svg PUBLIC "-//W3C//DTD SVG 20010904//EN"
"http://www.w3.org/TR/2001/REC-SVG-20010904/DTD/svg10.dtd"
[
 <!ATTLIST svg
  xmlns:xlink CDATA #FIXED "http://www.w3.org/1999/xlink">
]>
<!-- Created with Sodipodi ("http://www.sodipodi.com/") -->
<svg
   xmlns="http://www.w3.org/2000/svg"
   xmlns:xlink="http://www.w3.org/1999/xlink"
   width="744.094"
   height="744.094"
   id="svg1">
  <defs
     id="defs3">
    <linearGradient
       x1="0"
       y1="0"
       x2="1"
       y2="0"
       id="linearGradient29"
       gradientUnits="objectBoundingBox"
       spreadMethod="pad">
      <stop
         style="stop-color:#524500;stop-opacity:1;"
         offset="0"
         id="stop30" />
      <stop
         style="stop-color:#1f1200;stop-opacity:1;"
         offset="1"
         id="stop31" />
    </linearGradient>
    <radialGradient
       cx="0.5"
       cy="0.5"
       fx="0.5"
       fy="0.5"
       r="0.5"
       id="radialGradient32"
       xlink:href="#linearGradient29"
       gradientUnits="objectBoundingBox"
       spreadMethod="pad" />
  </defs>
  <g
     transform="matrix(0.951554,0,0,0.951554,-73.4801,32.4906)"
     style="font-size:12;"
     id="g53">
    <path
       d="M 273.995 318.746 C 268.3 333.933 257.226 345.008 236.976 360.828 C 260.39 368.422 273.678 356.082 282.538 352.285 C 282.538 368.105 259.757 386.141 259.757 386.141 C 259.757 386.141 343.92 377.597 365.436 370.636 C 374.928 349.754 370.183 306.195 370.183 306.195 C 370.183 306.195 274.944 318.746 273.995 318.746 z "
       transform="translate(-47.4609,1.26564)"
       style="fill:#2c2c2c;fill-rule:evenodd;stroke-width:1pt;"
       id="path76" />
    <ellipse
       cx="437.923584"
       cy="306.140015"
       rx="18.984375"
       ry="22.781235"
       transform="matrix(0.354086,0.563423,-0.510518,0.545145,302.162,-229.72)"
       style="fill:url(#radialGradient32);fill-rule:evenodd;stroke-width:1pt;"
       id="path40" />
    <ellipse
       cx="453.779053"
       cy="259.944733"
       rx="8.156250"
       ry="9.703125"
       transform="matrix(0.426259,0.329616,-0.371522,0.509108,201.683,-100.626)"
       style="fill-rule:evenodd;stroke-width:1pt;"
       id="path41" />
    <ellipse
       cx="442.480225"
       cy="250.032654"
       rx="3.656235"
       ry="5.203133"
       transform="matrix(-0.0694185,0.494146,-0.561745,0.533665,467.444,-174.41)"
       style="fill:#ffffff;fill-opacity:0.579439;fill-rule:evenodd;stroke-width:1pt;"
       id="path42" />
    <path
       d="M 167.055 292.253 C 167.055 292.253 164.759 248.636 173.942 221.853 C 183.124 195.836 193.263 191.061 219.222 181.268 C 244.548 171.474 293.783 199.961 303.064 194.055 C 312.345 187.868 328.279 124.099 313.372 112.849 C 343.748 81.6301 417.279 100.95 434.879 110.898 C 452.478 120.846 475.435 117.02 493.035 137.68 C 510.634 158.341 582.564 237.923 582.564 237.923 C 582.564 237.923 659.085 333.574 659.085 333.574 C 659.085 333.574 697.346 377.191 697.346 377.191 C 708.824 386.374 735.606 401.679 761.623 379.487 C 763.919 404.739 757.797 433.052 731.015 447.591 C 743.258 479.73 790.702 517.99 777.693 562.372 C 750.145 548.598 728.72 566.963 701.172 544.007 C 704.233 574.615 707.293 649.606 644.546 659.554 C 649.137 637.363 633.069 631.241 622.356 612.876 C 607.817 674.858 538.948 687.102 482.322 690.928 C 480.026 654.198 448.653 655.728 440.235 618.997 C 430.288 631.241 404.27 687.867 307.088 678.684 C 330.044 661.849 343.053 622.824 335.401 602.163 C 322.393 616.702 263.471 663.38 174.707 649.606 C 227.507 618.232 273.419 579.207 266.532 536.355 C 251.993 544.772 224.445 552.424 179.298 537.12 C 207.611 522.581 252.758 490.568 248.167 453.073 C 234.393 455.369 209.016 455.185 183.949 445.479 C 159.83 435.774 148.77 418.715 148.005 398.819 C 179.379 391.168 307.088 385.609 307.088 385.609 C 307.088 385.609 335.769 364.799 311.089 360.053 C 286.41 355.307 265.002 355.765 234.394 332.044 C 203.785 308.322 188.481 288.427 188.481 288.427 C 188.481 288.427 167.82 293.783 167.055 292.253 z "
       style="fill:#f3f1de;fill-rule:evenodd;stroke:#000000;stroke-width:1pt;"
       id="path8" />
    <path
       d="M 293.476 122.834 C 315.667 112.121 372.132 94.8287 420.34 117.785 C 427.992 65.7507 320.863 25.1946 297.141 21.3685 C 273.419 18.3076 300.201 53.5073 289.488 74.168 C 282.601 71.8724 258.115 64.9854 238.219 82.5852 C 253.524 85.6461 264.236 87.9418 266.532 94.8287 C 252.758 91.7679 235.07 114.02 232.082 131.626 C 252.743 121.22 267.862 123.578 277.146 130.937 C 246.459 134.754 232.122 149.8 224.981 161.085 C 229.822 161.528 238.986 163.741 241.353 170.973 C 234.91 173.969 225.22 186.708 219.997 194.38 C 227.563 195.967 254.697 203.625 262.153 206.444 C 259.559 192.874 269.456 180.738 278.402 180.596 C 285.648 180.181 286.948 183.387 286.699 187.719 C 291.038 183.181 304.189 132.017 293.476 122.834 z "
       transform="matrix(0.919577,0,0,0.919577,48.3305,3.23785)"
       style="fill-rule:evenodd;stroke-width:1pt;"
       id="path5" />
    <path
       d="M 263.376 449.566 C 270.97 487.535 238.38 515.694 206.739 533.413 C 246.606 535.945 283.309 522.023 290.27 514.429 C 299.129 536.577 301.028 574.23 290.27 593.214 C 323.176 586.886 374.434 536.577 377.598 514.429 C 382.66 538.476 403.227 542.589 391.837 570.433 C 424.11 575.496 445.942 525.186 449.739 503.038 C 469.989 564.421 501.946 568.851 500.68 603.656 C 541.813 585.937 550.357 472.664 565.544 465.07 C 570.607 486.586 493.719 500.191 493.719 500.191 C 493.087 466.652 442.146 445.136 418.099 442.605 C 393.419 440.074 351.337 417.926 263.376 449.566 z "
       style="fill:#d8d4b0;fill-rule:evenodd;stroke-width:1pt;"
       id="path18" />
    <path
       d="M 591.806 498.451 C 601.298 510.79 626.927 549.708 658.251 542.115 C 644.962 513.638 641.165 481.365 662.048 470.923 C 676.286 473.771 712.357 469.024 722.798 432.954 C 699.068 435.802 624.079 422.513 606.044 366.509 C 603.196 391.189 602.247 460.482 591.806 498.451 z "
       style="fill:#d9d4b0;fill-rule:evenodd;stroke-width:1pt;"
       id="path20" />
    <path
       d="M 235.672 278.671 C 230.891 294.984 264.712 333.515 320.047 361.639 C 311.328 361.92 268.016 347.577 253.391 339.984 C 238.766 332.39 214.579 313.827 216.548 298.077 C 218.235 282.327 228.641 280.64 235.672 278.671 z "
       style="fill:#86806c;fill-rule:evenodd;stroke-width:1pt;"
       id="path22" />
    <path
       d="M 242.177 271.271 C 242.177 281.396 223.192 288.356 222.559 299.114 C 221.926 310.505 241.544 324.427 254.2 342.146 C 213.7 313.669 183.958 290.888 188.387 289.622 C 192.184 293.419 178.895 292.154 174.466 292.154 C 171.934 285.193 170.669 262.412 171.934 248.49 C 189.02 255.451 218.13 271.903 242.177 271.271 z "
       style="fill:#545454;fill-rule:evenodd;stroke-width:1pt;"
       id="path21" />
    <path
       d="M 110.094 213.867 C 131.138 219.223 171.647 233.457 169.351 275.715 C 167.055 317.141 105.035 324.029 84.3745 322.498 C 62.9485 320.202 54.2344 291.822 58.8256 258.918 C 62.6516 226.78 88.2853 209.276 110.094 213.867 z "
       transform="matrix(0.919577,0,0,0.919577,117.712,-14.354)"
       style="fill-rule:evenodd;stroke-width:1pt;"
       id="path6" />
    <path
       d="M 283.587 352.278 C 268.468 375.45 146.693 367.547 147.646 401.364 C 148.88 435.181 211.281 436.112 288.567 426.743 C 365.853 417.797 370.738 416.011 399.051 412.185 C 427.364 409.124 437.418 395.448 430.247 376.956 C 422.889 358.464 337.607 366.572 352.373 367.416 C 364.186 368.682 293.711 356.972 283.587 352.278 z "
       style="fill-rule:evenodd;stroke-width:1pt;"
       id="path9" />
    <path
       d="M 216.803 418.533 C 225.522 416.002 234.241 407.845 237.334 408.126 C 240.428 408.407 239.303 418.814 239.303 418.814 C 239.303 418.814 225.804 421.908 216.803 418.533 z "
       style="fill:#727767;fill-rule:evenodd;stroke-width:1pt;"
       id="path14" />
    <path
       d="M 296.015 357.447 C 266.908 374.733 224.744 368.945 207.654 371.24 C 191.074 373.535 186.738 363.333 182.912 363.843 C 179.086 364.863 142.743 394.607 146.786 407.482 C 150.642 420.357 158.948 420.506 162.722 423.874 C 166.495 427.431 167.028 433.207 179.28 435.412 C 191.72 437.804 232.84 410.317 236.921 410.317 C 241.512 410.317 239.04 415.621 244.141 415.621 C 249.242 415.111 296.595 409.441 328.478 394.647 C 360.362 379.343 361.425 381.302 367.547 367.528 C 345.101 367.244 304.875 359.979 296.015 357.447 z "
       style="fill:#ff6868;fill-rule:evenodd;stroke:#000000;stroke-width:1pt;"
       id="path12" />
    <path
       d="M 205.515 372.052 C 218.452 376.552 262.609 381.896 274.984 413.677 C 322.233 408.334 369.859 384.848 370.984 367.411 C 357.342 366.707 303.084 358.223 289.396 354.332 C 277.302 363.051 262.046 365.864 205.515 372.052 z "
       style="fill:#180c07;fill-opacity:0.313726;fill-rule:evenodd;stroke-width:1pt;"
       id="path69" />
    <path
       d="M 295.272 411.502 C 298.647 409.252 301.741 400.533 303.147 400.251 C 304.553 399.97 304.272 404.189 305.116 403.908 C 305.96 403.626 307.366 402.501 308.491 401.939 C 309.616 401.376 309.663 405.908 314.022 404.221 C 316.202 403.518 320.811 402.463 321.071 399.459 C 321.33 396.455 319.865 390.627 321.147 390.127 C 323.585 389.127 325.647 396.595 327.053 396.595 C 328.459 396.595 325.21 385.344 328.616 384.157 C 330.382 383.564 334.538 388.681 337.233 390.825 C 339.928 392.97 341.162 392.141 346.084 389.657 C 351.006 387.079 352.631 385.673 352.839 381.822 C 353.046 377.971 351.835 371.674 353.585 370.814 C 357.209 369.094 361.179 378.689 364.272 376.813 C 367.553 374.938 363.585 367.502 367.272 365.798 C 370.834 364.094 375.991 375.782 376.272 380.563 C 374.584 381.828 363.569 389.399 355.518 388.532 C 350.947 392.569 345.757 395.235 338.117 398.002 C 332.961 404.939 305.96 410.377 295.272 411.502 z "
       style="fill:#3c3f36;fill-rule:evenodd;stroke:#000000;stroke-width:1pt;"
       id="path15" />
    <path
       d="M 429.643 376.003 C 417.963 363.603 367.772 365.704 330.083 359.923 C 292.582 353.954 238.474 342.502 189.501 283.326 C 179.808 289.448 171.136 289.958 166.035 290.468 C 167.055 299.651 171.647 310.873 186.441 316.484 C 201.745 322.606 210.586 317.505 216.198 317.505 C 222.49 324.137 241.878 340.366 262.986 348.884 C 284.094 358.034 326.413 369.156 347.712 370.186 C 368.589 371.216 392.57 371.657 429.643 376.003 z "
       style="fill-rule:evenodd;stroke-width:1pt;"
       id="path11" />
    <path
       d="M 338.434 415.125 C 385.684 407.672 401.387 399.124 409.356 374.452 C 416.981 376.358 426.043 380.25 425.199 386.156 C 424.074 392.062 422.106 397.922 404.387 403.828 C 386.387 409.734 366.091 411.938 338.434 415.125 z "
       style="fill:#813535;fill-rule:evenodd;stroke-width:1pt;"
       id="path16" />
    <path
       d="M 406.996 374.05 C 393.433 372.848 380.825 371.675 372.466 371.378 C 365.995 388.534 361.357 400.066 315.794 413.566 C 346.982 410.909 395.933 407.972 406.996 374.05 z "
       style="fill:#311414;fill-rule:evenodd;stroke-width:1pt;"
       id="path17" />
    <path
       d="M 173.376 224.337 C 172.251 230.806 172.532 240.369 173.094 246.838 C 181.813 254.713 194.501 240.431 198.719 224.399 C 188.313 238.181 175.626 247.4 173.376 224.337 z "
       style="fill:#8b8b8b;fill-opacity:0.242718;fill-rule:evenodd;stroke-width:1pt;"
       id="path23" />
    <path
       d="M 221.302 235.658 C 202.458 272.22 246.615 271.658 263.209 249.439 C 254.49 260.97 212.866 275.033 221.302 235.658 z "
       style="fill:#8b8b8b;fill-opacity:0.271845;fill-rule:evenodd;stroke-width:1pt;"
       id="path24" />
    <path
       d="M 229.623 205.386 C 236.162 194.839 264.007 219.52 262.107 223.738 C 259.575 227.956 222.451 215.933 229.623 205.386 z "
       transform="translate(-12.6563,-10.125)"
       style="fill:#ffffff;fill-opacity:0.509346;fill-rule:evenodd;stroke-width:1pt;"
       id="path25" />
    <path
       d="M 403.033 238.117 C 403.033 238.117 420.119 277.984 420.119 277.984 C 420.119 277.984 459.986 302.663 459.986 302.663 C 459.986 302.663 508.396 286.527 508.396 286.527 C 508.396 286.527 485.615 240.964 485.615 240.964 C 485.615 240.964 441.002 213.437 441.002 213.437 C 441.002 213.437 404.931 239.066 403.033 238.117 z "
       transform="translate(-9.28127,-4.21875)"
       style="fill:#272727;fill-rule:evenodd;stroke-width:1pt;"
       id="path34" />
    <ellipse
       cx="437.923584"
       cy="306.140015"
       rx="18.984375"
       ry="22.781235"
       transform="matrix(0.963498,0.523877,-0.531815,0.949109,177.397,-266.571)"
       style="fill:url(#radialGradient32);fill-rule:evenodd;stroke-width:1pt;"
       id="path28" />
    <path
       d="M 408.339 242.892 C 414.963 239.235 421.76 231.392 434.806 233.345 C 447.853 235.423 451.666 259.736 460.948 268.172 C 455.041 269.861 445.276 275.346 428.401 266.486 C 411.526 257.626 410.588 249.642 408.339 242.892 z M 403.207 209.568 C 358.25 248.721 379.541 291.651 403.145 314.774 C 426.116 338.528 465.545 375.426 462.027 395.833 C 459.212 416.239 445.842 432.423 452.879 437.349 C 459.915 442.979 489.47 461.978 490.877 475.348 C 492.284 488.717 471.878 529.53 471.878 529.53 C 471.878 529.53 510.579 525.308 524.653 509.827 C 519.023 539.382 540.134 552.751 520.431 598.49 C 585.168 580.195 632.315 460.57 632.315 460.57 C 632.315 460.57 661.165 520.382 696.348 504.901 C 679.46 475.347 661.165 385.278 667.498 367.686 C 671.016 380.353 685.089 412.017 714.644 412.721 C 699.163 385.981 670.313 317.021 679.461 288.875 C 687.201 306.466 701.978 315.614 714.645 316.318 C 705.497 302.245 696.348 285.357 706.199 259.321 C 716.755 232.58 791.344 186.843 789.937 143.216 C 753.64 145.748 616.949 50.8032 563.355 149.548 C 535.917 135.947 505.785 125.769 475.198 124.224 C 499.771 143.557 509.876 197.398 502.839 217.805 C 493.905 187.779 447.53 170.415 403.207 209.568 z "
       style="fill-rule:evenodd;stroke-width:1pt;"
       id="LeftEarBlack" />
    <ellipse
       cx="453.779053"
       cy="259.944733"
       rx="8.156250"
       ry="9.703125"
       transform="matrix(0.689655,0.669121,-0.601094,1.03349,278.452,-320.614)"
       style="fill-rule:evenodd;stroke-width:1pt;"
       id="path33" />
    <ellipse
       cx="442.480225"
       cy="250.032654"
       rx="3.656235"
       ry="5.203133"
       transform="matrix(-0.0408926,1.27384,-0.993722,0.863504,695.67,-533.796)"
       style="fill:#ffffff;fill-opacity:0.579439;fill-rule:evenodd;stroke-width:1pt;"
       id="path37" />
    <path
       d="M 427.676 259.427 C 436.551 271.177 448.551 275.677 464.801 273.677 C 447.801 272.427 437.426 268.302 427.676 259.427 z "
       transform="translate(-12.5625,-2.62501)"
       style="fill:#ffffff;fill-opacity:0.223301;fill-rule:evenodd;stroke-width:1pt;"
       id="path39" />
    <path
       d="M 306.556 169.406 C 300.181 169.03 293.244 175.78 290.994 179.53 C 293.244 172.968 299.619 167.531 306.556 169.406 z "
       style="fill:#f3f1de;fill-opacity:0.213592;fill-rule:evenodd;stroke-width:1pt;"
       id="path50" />
    <g
       transform="translate(-1.68749,2.53124)"
       id="g56">
      <ellipse
         cx="268.230408"
         cy="292.563965"
         rx="6.539078"
         ry="7.593735"
         transform="matrix(-0.389238,-0.765333,1.0088,-0.6811,54.0855,698.631)"
         style="fill:#393939;fill-opacity:0.223301;fill-rule:evenodd;stroke-width:1pt;"
         id="path51" />
      <ellipse
         cx="268.230408"
         cy="292.563965"
         rx="6.539078"
         ry="7.593735"
         transform="matrix(-0.205619,-0.428767,0.53291,-0.381577,151.937,544.278)"
         style="fill:#393939;fill-opacity:0.223301;fill-rule:evenodd;stroke-width:1pt;"
         id="path52" />
      <ellipse
         cx="268.230408"
         cy="292.563965"
         rx="6.539078"
         ry="7.593735"
         transform="matrix(-0.236222,-0.518518,0.612225,-0.46145,145.169,575.831)"
         style="fill:#393939;fill-opacity:0.165049;fill-rule:evenodd;stroke-width:1pt;"
         id="path53" />
      <ellipse
         cx="268.230408"
         cy="292.563965"
         rx="6.539078"
         ry="7.593735"
         transform="matrix(-0.158972,-0.361885,0.435234,-0.312321,189.55,507.167)"
         style="fill:#393939;fill-opacity:0.242718;fill-rule:evenodd;stroke-width:1pt;"
         id="path54" />
      <ellipse
         cx="268.230408"
         cy="292.563965"
         rx="6.539078"
         ry="7.593735"
         transform="matrix(-0.10486,-0.255543,0.287085,-0.220544,231.035,463.887)"
         style="fill:#393939;fill-opacity:0.252427;fill-rule:evenodd;stroke-width:1pt;"
         id="path55" />
    </g>
    <path
       d="M 583.787 157.453 C 635.678 187.828 657.193 230.015 670.482 272.413 C 693.896 207.233 735.03 209.133 768.569 161.039 C 697.061 142.687 640.319 93.96 583.787 157.453 z "
       style="fill:#180c07;fill-rule:evenodd;stroke-width:1pt;"
       id="path62" />
    <path
       d="M 389.875 413.451 C 410.813 410.389 423.281 404.888 422.156 388.92 C 416.593 397.826 412.75 407.326 389.875 413.451 z "
       transform="translate(-11.3906,-5.90624)"
       style="fill:#ffffff;fill-opacity:0.447368;fill-rule:evenodd;stroke-width:1pt;"
       id="path63" />
    <ellipse
       cx="200.412064"
       cy="422.860779"
       rx="8.437500"
       ry="12.867188"
       transform="matrix(0.359161,0.103855,-0.638776,0.639784,367.083,93.6776)"
       style="fill:#ffffff;fill-opacity:0.215789;fill-rule:evenodd;stroke-width:1pt;"
       id="path65" />
    <path
       d="M 317.269 25.1889 C 341.175 27.1576 428.925 62.5955 433.143 107.595 C 429.487 105.627 423.3 103.376 419.925 102.814 C 409.049 70.001 383.925 46.5639 317.269 25.1889 z "
       style="fill:#4b4b4b;fill-rule:evenodd;stroke-width:1pt;"
       id="path66" />
    <path
       d="M 171.202 416.472 C 188.921 397.909 196.233 395.096 211.983 390.878 C 227.733 386.659 310.772 373.581 314.428 360.925 C 320.615 360.925 337.984 362.894 341.64 365.144 C 336.859 372.457 321.109 377.659 294.109 381.315 C 267.109 384.972 233.921 389.191 213.671 393.972 C 193.703 398.754 188.358 402.691 171.202 416.472 z "
       style="fill:#180c07;fill-opacity:0.315789;fill-rule:evenodd;stroke-width:1pt;"
       id="path68" />
    <path
       d="M 440.624 119.009 C 431.272 117.392 425.239 111.142 414.977 109.43 C 390.652 125.014 361.1 169.212 358.288 186.931 C 368.342 164.923 401.46 125.127 440.624 119.009 z "
       style="fill:#d9d4b0;fill-rule:evenodd;stroke-width:1pt;"
       id="path71" />
    <path
       d="M 262.733 449.338 C 290.577 458.83 291.528 487.623 306.082 487.623 C 320.637 487.623 333.293 466.424 351.328 462.627 C 369.363 459.463 405.749 457.564 438.655 468.322 C 409.545 427.822 336.773 424.659 262.733 449.338 z "
       style="fill-opacity:0.268421;fill-rule:evenodd;stroke-width:1pt;"
       id="path72" />
    <path
       d="M 424.421 251.846 C 424.671 248.659 422.045 244.471 427.108 242.596 C 421.483 242.784 421.608 246.534 424.421 251.846 z "
       transform="translate(-11.9375,-1.43753)"
       style="fill:#ffffff;fill-opacity:0.157895;fill-rule:evenodd;stroke-width:1pt;"
       id="path73" />
    <path
       d="M 575.53 200.252 C 597.679 224.932 643.874 293.908 629.319 309.728 C 624.889 300.236 614.132 291.377 607.171 290.744 C 616.663 308.463 630.585 376.174 614.132 389.463 C 609.07 377.439 603.374 362.252 595.148 358.455 C 595.781 383.767 604.64 438.19 581.226 460.338 C 579.96 442.619 578.695 423.635 571.734 409.713 C 570.468 435.025 565.406 463.502 532.499 486.916 C 548.952 454.642 524.905 436.291 507.819 445.783 C 522.69 431.229 542.782 421.736 541.2 403.306 C 538.827 385.548 566.948 349.734 574.66 363.409 C 577.883 339.555 579.01 294.06 591.375 300.465 C 608.169 259.41 578.615 213.304 575.53 200.252 z "
       transform="translate(-10.4414,-18.0352)"
       style="fill:#1e1717;fill-rule:evenodd;stroke-width:1pt;"
       id="path74" />
    <path
       d="M 444.408 235.062 C 450.47 230.625 455.174 228.749 459.752 231.36 C 464.048 233.97 464.72 249.422 478.048 264.875 C 456.454 250.328 468.486 229.562 444.408 235.062 z "
       transform="translate(-13.5,-3.59764)"
       style="fill:#1d1713;fill-rule:evenodd;stroke-width:1pt;"
       id="path79" />
  </g>
</svg>
