<?xml version="1.0" encoding="UTF-8" standalone="no"?>
<!DOCTYPE svg PUBLIC "-//W3C//DTD SVG 1.0//EN"
"http://www.w3.org/TR/2001/REC-SVG-20010904/DTD/svg10.dtd">
<!-- Created with Sodipodi ("http://www.sodipodi.com/") -->
<svg
   xmlns="http://www.w3.org/2000/svg"
   xmlns:xlink="http://www.w3.org/1999/xlink"
   version="1.0"
   x="0"
   y="0"
   width="750.000000"
   height="1000"
   id="svg51">
  <defs
     id="defs53">
    <linearGradient
       id="linearGradient145">
      <stop
         style="stop-color:#e6e6ff;stop-opacity:1;"
         offset="0"
         id="stop146" />
      <stop
         style="stop-color:#a6a7da;stop-opacity:1;"
         offset="1"
         id="stop147" />
    </linearGradient>
    <linearGradient
       id="linearGradient50">
      <stop
         style="stop-color:#ffffff;stop-opacity:1;"
         offset="0"
         id="stop51" />
      <stop
         style="stop-color:#e6e6ff;stop-opacity:1;"
         offset="1"
         id="stop52" />
    </linearGradient>
    <linearGradient
       id="linearGradient86">
      <stop
         style="stop-color:#ffffff;stop-opacity:1;"
         offset="0"
         id="stop87" />
      <stop
         style="stop-color:#f3f3ff;stop-opacity:1;"
         offset="1"
         id="stop88" />
    </linearGradient>
    <linearGradient
       id="linearGradient75">
      <stop
         style="stop-color:#ffa6b3;stop-opacity:1;"
         offset="0"
         id="stop76" />
      <stop
         style="stop-color:#ff7f8c;stop-opacity:1;"
         offset="1"
         id="stop77" />
    </linearGradient>
    <linearGradient
       id="linearGradient69">
      <stop
         style="stop-color:#ff8c99;stop-opacity:1;"
         offset="0"
         id="stop70" />
      <stop
         style="stop-color:#ff6673;stop-opacity:1;"
         offset="1"
         id="stop71" />
    </linearGradient>
    <linearGradient
       x1="0.468356"
       y1="0.015646"
       x2="0.468355"
       y2="0.835938"
       id="linearGradient72"
       xlink:href="#linearGradient75"
       gradientUnits="objectBoundingBox"
       spreadMethod="pad" />
    <radialGradient
       cx="0.475855"
       cy="0.007799"
       r="0.984791"
       fx="0.475855"
       fy="0.007799"
       id="radialGradient73"
       xlink:href="#linearGradient69"
       gradientUnits="objectBoundingBox"
       gradientTransform="scale(1.000020,0.999984)"
       spreadMethod="pad" />
    <linearGradient
       x1="0.323144"
       y1="0.009802"
       x2="0.917031"
       y2="1.058820"
       id="linearGradient85"
       xlink:href="#linearGradient86"
       gradientUnits="objectBoundingBox"
       spreadMethod="pad" />
    <linearGradient
       x1="0.508772"
       y1="0.914063"
       x2="0.426901"
       y2="0.046875"
       id="linearGradient49"
       xlink:href="#linearGradient50"
       gradientUnits="objectBoundingBox"
       spreadMethod="pad" />
    <linearGradient
       x1="0.489083"
       y1="0.030614"
       x2="0.493450"
       y2="0.928571"
       id="linearGradient144"
       xlink:href="#linearGradient145"
       gradientUnits="objectBoundingBox"
       spreadMethod="pad" />
    <linearGradient
       x1="0.449782"
       y1="0.039062"
       x2="0.781659"
       y2="1.085940"
       id="linearGradient149"
       xlink:href="#linearGradient50"
       gradientUnits="objectBoundingBox"
       spreadMethod="pad" />
  </defs>
  <rect
     width="749.358948"
     height="635.693237"
     rx="0"
     ry="0"
     x="0.52635598"
     y="0.08834800"
     style="font-size:12;fill:url(#linearGradient49);fill-rule:evenodd;stroke-width:1pt;"
     id="rect48" />
  <rect
     width="749.574158"
     height="410.360474"
     rx="0"
     ry="0"
     x="0.46972400"
     y="589.361694"
     style="font-size:12;fill:url(#linearGradient85);fill-rule:evenodd;stroke-width:1pt;"
     id="rect84" />
  <rect
     width="749.691956"
     height="318.696899"
     rx="0"
     ry="0"
     x="0.46195099"
     y="521.246460"
     style="font-size:12;fill:url(#linearGradient144);fill-rule:evenodd;stroke-width:1pt;"
     id="rect143" />
  <path
     d="M 142.932 242.616 C 130.274 241.21 126.055 267.933 117.616 269.339 C 106.365 269.339 107.771 258.087 92.2996 262.307 C 81.0478 263.713 82.4543 279.184 82.4543 287.623 C 69.7961 290.436 62.7637 294.655 58.5443 303.094 C 50.1055 311.533 48.699 329.817 48.699 329.817 C 48.699 329.817 37.4473 310.127 27.602 318.566 C 26.6785 331.706 26.8612 340.199 26.8612 340.199 C 26.8612 333.757 120.429 346.695 120.429 346.695 C 120.429 346.695 190.752 314.346 190.752 314.346 C 190.752 314.346 265.295 308.72 265.295 308.72 C 265.295 308.72 263.889 286.216 255.45 270.745 C 245.605 259.493 217.475 258.087 217.475 258.087 C 231.54 251.055 224.508 232.77 206.224 231.364 C 193.566 229.958 192.159 255.275 182.314 256.681 C 172.469 255.275 158.403 242.616 142.932 242.616 z "
     transform="matrix(1.000000,0.000000,0.000000,0.585368,-26.72290,353.3150)"
     style="font-size:12;fill:#99b3cc;fill-rule:evenodd;stroke-width:1pt;"
     id="path385" />
  <path
     d="M 0.342237 546.414 C 93.1692 549.226 151.371 501.407 372.187 494.374 C 542.369 509.845 629.57 483.123 629.57 483.123 C 685.829 481.716 715.366 497.187 751.934 494.374 C 753.34 532.349 750.527 1002.11 750.527 1002.11 C 750.527 1002.11 -0.527426 1000.7 -0.527426 1000.7 C -0.527426 1000.7 0.342237 587.201 0.342237 546.414 z "
     style="font-size:12;fill:#99b3cc;fill-rule:evenodd;stroke-width:1pt;"
     id="path380" />
  <path
     d="M 64.0086 391.704 C 47.5674 390.097 12.842 398.737 21.2808 424.053 C -9.66156 424.053 10.304 451.581 12.1308 467.651 C -7.96411 467.651 -28.9318 473.277 -17.68 505.626 C -29.6269 521.298 -18.6662 531.544 2.43093 532.95 C 2.43093 549.828 24.789 552.039 54.3249 539.381 C 55.7314 547.82 71.2025 546.414 78.2349 532.349 C 93.7061 537.975 81.0475 518.284 93.7057 502.813 C 99.3316 523.91 113.397 508.439 113.397 508.439 C 113.397 508.439 137.307 532.348 152.778 521.097 C 162.623 514.065 161.217 495.78 152.778 481.716 C 172.469 484.528 188.214 472.069 175.556 455.191 C 182.588 438.313 159.665 428.468 139.974 435.5 C 135.755 420.029 123.372 410.588 107.9 424.653 C 83.9903 393.71 84.1036 393.311 64.0086 391.704 z "
     transform="matrix(-0.964236,0.000000,0.000000,0.929382,697.5870,-2.266350)"
     style="font-size:12;fill:#8ab3b3;fill-rule:evenodd;stroke-width:1pt;"
     id="path384" />
  <path
     d="M 0.446387 716.467 C 0.446387 716.467 0.261826 999.785 0.261826 999.785 C 0.261826 999.785 749.922 1000 749.922 1000 C 749.922 1000 750.339 582.122 750.339 582.122 C 750.339 582.122 1.86281 717.883 0.446387 716.467 z "
     style="font-size:12;fill:url(#linearGradient149);fill-rule:evenodd;stroke-width:1pt;"
     id="path148" />
  <path
     d="M -1.44166 791.66 C 1.25527 791.016 6.95089 791.017 8.96669 790.54 C 16.822 788.613 24.6162 786.436 32.4663 784.482 C 42.2266 782.031 51.5596 780.826 61.2908 778.262 C 72.1474 775.397 83.342 773.132 94.4433 771.39 C 105.402 769.756 115.928 767.576 126.79 765.34 C 145.688 761.307 164.423 757.241 183.037 752.06 C 200.083 747.296 217.575 743.558 234.611 738.757 C 250.322 734.272 265.963 730.681 282.059 727.827 C 302.102 724.494 322.22 720.923 342.129 716.794 C 362.039 712.462 380.924 708.532 400.337 702.353 C 413.806 698.09 429.705 694.323 443.419 690.949 C 466.746 685.316 488.35 680.257 511.557 674.125 C 526.905 669.979 543.625 666.237 558.754 661.35 C 566.595 658.826 573.011 656.481 580.924 654.192 C 589.354 651.831 596.671 649.424 605.13 647.169 C 616.904 643.97 629.442 641.237 641.191 637.948 C 652.59 634.741 664.293 632.046 675.612 628.567 C 684.853 625.724 692.612 623.935 701.91 621.281 C 709.058 619.206 716.536 616.889 723.827 615.376 C 729.675 614.164 734.826 612.701 740.54 610.939 C 744.073 609.897 744.234 608.644 748.851 608.654 L 748.818 617.918 C 744.889 619.158 748.596 618.517 746.177 619.009 C 739.489 620.685 736.227 621.802 729.639 623.559 C 722.822 624.934 715.48 627.031 708.78 628.884 C 699.604 631.361 691.021 634.647 681.913 637.361 C 670.416 640.822 658.934 649.401 647.349 652.561 C 635.56 655.804 623.759 659.005 611.987 662.314 C 603.636 664.653 595.368 667.269 587.02 669.621 C 579.237 671.827 571.458 674.046 563.695 676.322 C 548.126 680.934 532.409 684.992 516.654 688.917 C 493.404 694.616 470.09 700.044 446.976 706.279 C 433.637 710.011 420.202 713.405 406.904 717.28 C 386.8 723.167 366.51 728.348 346.039 732.795 C 325.979 737.029 305.792 740.033 285.612 743.565 C 270.184 746.436 255.067 750.157 239.967 754.413 C 222.878 759.185 206.728 755.639 189.595 760.246 C 170.657 765.363 151.164 769.227 132.114 773.913 C 120.845 776.695 111.674 778.089 100.211 779.754 C 89.8101 781.379 79.177 783.344 69.0114 786.043 C 59.2161 788.681 52.5398 789.461 42.7312 791.488 C 34.8919 793.516 26.0657 795.223 18.2507 797.339 C 14.2035 798.416 2.791 802.742 -1.33659 803.341 L -1.44166 791.66 z "
     transform="matrix(1.000000,4.821280e-2,0.000000,0.927313,1.418440,-21.98990)"
     style="font-size:12;stroke-width:1pt;"
     id="path93" />
  <path
     d="M 402.417 754.258 C 377.342 754.258 292.089 767.296 266.011 772.311 C 228.9 784.347 249.963 804.407 310.142 810.425 C 373.33 819.452 558.884 820.455 558.884 820.455 C 558.884 820.455 703.314 811.428 707.326 788.359 C 708.329 781.338 665.2 755.261 579.946 755.261 C 525.785 751.249 432.507 752.252 402.417 754.258 z "
     transform="matrix(1.052390,0.000000,0.000000,1.125070,6.356890e-2,-93.88740)"
     style="font-size:12;fill:#6b6bb8;fill-opacity:0.2;fill-rule:evenodd;stroke-width:1pt;"
     id="path94" />
  <path
     d="M -1.3594 793.898 C 0.836036 793.822 6.21057 791.588 8.22637 791.111 C 17.6605 787.674 24.2049 786.28 32.4663 784.482 C 44.7341 780.819 51.5596 780.826 61.2908 778.262 C 72.1474 775.397 83.342 773.132 94.4433 771.39 C 105.402 769.756 115.928 767.576 126.79 765.34 C 145.688 761.307 164.423 757.241 183.037 752.06 C 200.083 747.296 217.986 743.093 235.022 738.292 C 250.733 733.807 265.963 730.681 282.059 727.827 C 302.102 724.494 322.22 720.923 342.129 716.794 C 362.039 712.462 380.924 708.532 400.337 702.353 C 413.806 698.09 429.705 694.323 443.419 690.949 C 466.746 685.316 488.35 680.257 511.557 674.125 C 526.905 669.979 543.625 666.237 558.754 661.35 C 566.595 658.826 573.011 656.481 580.924 654.192 C 589.354 651.831 596.671 649.424 605.13 647.169 C 616.904 643.97 629.442 641.237 641.191 637.948 C 652.59 634.741 664.293 632.046 675.612 628.567 C 684.853 625.724 692.612 623.935 701.91 621.281 C 709.058 619.206 716.536 616.889 723.827 615.376 C 729.675 614.164 734.826 612.701 740.54 610.939 C 744.073 609.897 744.406 610.278 748.612 608.802 C 748.612 608.802 748.659 620.24 748.613 624.935 C 742.254 626.86 735.98 628.045 729.475 629.354 C 722.658 630.729 716 632.613 709.3 634.466 C 700.124 636.943 691.021 639.695 681.913 642.409 C 670.416 645.87 658.934 649.401 647.349 652.561 C 635.56 655.804 623.759 659.005 611.987 662.314 C 603.636 664.653 595.368 667.269 587.02 669.621 C 579.237 671.827 571.458 674.046 563.695 676.322 C 548.126 680.934 532.409 684.992 516.654 688.917 C 493.404 694.616 470.09 700.044 446.976 706.279 C 433.637 710.011 420.202 713.405 406.904 717.28 C 386.8 723.167 366.51 728.348 346.039 732.795 C 325.979 737.029 305.792 740.033 285.612 743.565 C 270.184 746.436 255.067 750.157 239.967 754.413 C 222.878 759.185 205.688 763.546 188.555 768.153 C 169.617 773.27 150.644 778.228 131.594 782.914 C 120.325 785.696 109.073 787.199 97.6106 788.864 C 87.2095 790.489 77.0965 792.987 66.9309 795.686 C 57.1356 798.324 47.3385 800.949 37.5299 803.537 C 29.6906 805.565 21.9047 807.779 14.0897 809.895 C 10.0425 810.972 2.62649 812.66 -1.5011 813.259 L -1.3594 793.898 z "
     transform="matrix(1.000000,4.821280e-2,0.000000,0.927313,1.418440,-13.23990)"
     style="font-size:12;fill:#7f7fa5;fill-opacity:0.697479;stroke-width:1pt;"
     id="path92" />
  <path
     d="M -1.3594 793.72 C 0.836036 793.644 6.78638 791.38 8.80218 790.903 C 17.9073 787.661 24.6162 786.436 32.4663 784.482 C 44.7341 780.819 51.5596 780.826 61.2908 778.262 C 72.1474 775.397 83.4243 772.862 94.5256 771.12 C 105.484 769.486 115.763 767.762 126.625 765.526 C 145.935 761.294 164.423 757.241 183.037 752.06 C 200.083 747.296 217.822 743.279 234.858 738.478 C 250.569 733.993 265.963 730.681 282.059 727.827 C 302.102 724.494 322.22 720.923 342.129 716.794 C 362.039 712.462 380.924 708.532 400.337 702.353 C 413.806 698.09 429.705 694.323 443.419 690.949 C 466.746 685.316 488.35 680.257 511.557 674.125 C 526.905 669.979 543.625 666.237 558.754 661.35 C 566.595 658.826 573.011 656.481 580.924 654.192 C 589.354 651.831 596.671 649.424 605.13 647.169 C 616.904 643.97 629.442 641.237 641.191 637.948 C 652.59 634.741 664.293 632.046 675.612 628.567 C 684.853 625.724 692.612 623.935 701.91 621.281 C 709.058 619.206 716.536 616.889 723.827 615.376 C 729.675 614.164 734.826 612.701 740.54 610.939 C 744.073 609.897 744.724 609.653 748.848 608.269 C 748.848 608.269 748.977 615.342 748.696 620.05 C 742.337 621.975 735.98 622.554 729.475 623.863 C 722.658 625.238 712.605 627.908 705.905 629.761 C 696.729 632.238 688.758 635.542 679.65 638.256 C 668.153 641.717 658.934 649.401 647.349 652.561 C 635.56 655.804 623.759 659.005 611.987 662.314 C 603.636 664.653 595.368 667.269 587.02 669.621 C 579.237 671.827 571.458 674.046 563.695 676.322 C 548.126 680.934 532.409 684.992 516.654 688.917 C 493.404 694.616 470.09 700.044 446.976 706.279 C 433.637 710.011 420.202 713.405 406.904 717.28 C 386.8 723.167 366.51 728.348 346.039 732.795 C 325.979 737.029 305.792 740.033 285.612 743.565 C 270.184 746.436 255.633 745.857 240.533 750.113 C 223.444 754.885 203.991 757.533 186.858 762.14 C 167.92 767.257 150.644 771.517 131.594 776.203 C 120.325 778.985 109.073 781.708 97.6106 783.373 C 87.2095 784.998 77.0965 787.496 66.9309 790.195 C 57.1356 792.833 46.7727 793.657 36.9641 796.245 C 29.1248 798.273 23.0363 801.619 15.2213 803.735 C 11.1741 804.812 2.62649 807.169 -1.5011 807.768 L -1.3594 793.72 z "
     transform="matrix(1.000000,4.821280e-2,0.000000,0.927313,1.418440,-13.23990)"
     style="font-size:12;fill:#7f7fa5;fill-opacity:0.697479;stroke-width:1pt;"
     id="path47" />
  <path
     d="M 0.0548717 792.649 C 0.244332 792.677 6.95089 791.017 8.96669 790.54 C 16.822 788.613 24.6162 786.436 32.4663 784.482 C 42.2266 782.031 51.5596 780.826 61.2908 778.262 C 72.1474 775.397 83.342 773.132 94.4433 771.39 C 105.402 769.756 115.928 767.576 126.79 765.34 C 145.688 761.307 164.423 757.241 183.037 752.06 C 200.083 747.296 217.575 743.558 234.611 738.757 C 250.322 734.272 265.963 730.681 282.059 727.827 C 302.102 724.494 322.22 720.923 342.129 716.794 C 362.039 712.462 380.924 708.532 400.337 702.353 C 413.806 698.09 429.705 694.323 443.419 690.949 C 466.746 685.316 488.35 680.257 511.557 674.125 C 526.905 669.979 543.625 666.237 558.754 661.35 C 566.595 658.826 573.011 656.481 580.924 654.192 C 589.354 651.831 596.671 649.424 605.13 647.169 C 616.904 643.97 629.442 641.237 641.191 637.948 C 652.59 634.741 664.293 632.046 675.612 628.567 C 684.853 625.724 692.612 623.935 701.91 621.281 C 709.058 619.206 716.536 616.889 723.827 615.376 C 729.675 614.164 734.826 612.701 740.54 610.939 C 744.073 609.897 745.346 608.843 749.963 608.853 L 750.038 623.696 C 746.109 624.936 747.747 623.835 746.369 624.273 C 740.01 626.198 735.98 628.045 729.475 629.354 C 722.658 630.729 716 632.613 709.3 634.466 C 700.124 636.943 691.021 639.695 681.913 642.409 C 670.416 645.87 658.934 649.401 647.349 652.561 C 635.56 655.804 623.759 659.005 611.987 662.314 C 603.636 664.653 595.368 667.269 587.02 669.621 C 579.237 671.827 571.458 674.046 563.695 676.322 C 548.126 680.934 532.409 684.992 516.654 688.917 C 493.404 694.616 470.09 700.044 446.976 706.279 C 433.637 710.011 420.202 713.405 406.904 717.28 C 386.8 723.167 366.51 728.348 346.039 732.795 C 325.979 737.029 305.792 740.033 285.612 743.565 C 270.184 746.436 255.067 750.157 239.967 754.413 C 222.878 759.185 205.688 763.546 188.555 768.153 C 169.617 773.27 150.644 778.228 131.594 782.914 C 120.325 785.696 109.073 787.199 97.6106 788.864 C 87.2095 790.489 77.0965 792.987 66.9309 795.686 C 57.1356 798.324 47.3385 800.949 37.5299 803.537 C 29.6906 805.565 21.9047 807.779 14.0897 809.895 C 10.0425 810.972 4.13893 812.039 0.0113282 812.638 L 0.0548717 792.649 z "
     transform="matrix(1.000000,-4.720560e-2,0.000000,1.000000,4.084470e-6,187.2400)"
     style="font-size:12;fill:#7f7fa5;fill-opacity:0.697479;stroke-width:1pt;"
     id="path90" />
  <path
     d="M 0.137129 792.57 C 0.326589 792.598 6.95089 791.017 8.96669 790.54 C 16.822 788.613 24.6162 786.436 32.4663 784.482 C 42.2266 782.031 51.5596 780.826 61.2908 778.262 C 72.1474 775.397 83.342 773.132 94.4433 771.39 C 105.402 769.756 115.928 767.576 126.79 765.34 C 145.688 761.307 164.423 757.241 183.037 752.06 C 200.083 747.296 217.575 743.558 234.611 738.757 C 250.322 734.272 265.963 730.681 282.059 727.827 C 302.102 724.494 322.22 720.923 342.129 716.794 C 362.039 712.462 380.924 708.532 400.337 702.353 C 413.806 698.09 429.705 694.323 443.419 690.949 C 466.746 685.316 488.35 680.257 511.557 674.125 C 526.905 669.979 543.625 666.237 558.754 661.35 C 566.595 658.826 573.011 656.481 580.924 654.192 C 589.354 651.831 596.671 649.424 605.13 647.169 C 616.904 643.97 629.442 641.237 641.191 637.948 C 652.59 634.741 664.293 632.046 675.612 628.567 C 684.853 625.724 692.612 623.935 701.91 621.281 C 709.058 619.206 716.536 616.889 723.827 615.376 C 729.675 614.164 734.826 612.701 740.54 610.939 C 744.073 609.897 745.51 608.851 750.127 608.861 L 750.038 618.953 C 746.109 620.193 749.309 618.673 744.176 620.332 C 737.817 622.257 735.98 623.796 729.475 625.105 C 722.658 626.48 714.584 627.154 707.884 629.007 C 698.708 631.484 691.021 636.154 681.913 638.868 C 670.416 642.329 660.35 644.51 648.765 647.67 C 636.976 650.913 625.884 654.856 614.112 658.165 C 605.761 660.504 598.201 661.029 589.853 663.381 C 582.07 665.587 572.874 668.447 565.111 670.723 C 549.542 675.335 538.075 678.886 522.32 682.811 C 499.07 688.51 471.506 693.029 448.392 699.264 C 435.053 702.996 421.618 707.098 408.32 710.973 C 388.216 716.86 371.468 720.083 350.997 724.53 C 330.937 728.764 305.792 735.075 285.612 738.607 C 270.184 741.478 255.067 744.491 239.967 748.747 C 222.878 753.519 205.688 757.88 188.555 762.487 C 169.617 767.604 151.352 771.179 132.302 775.865 C 121.033 778.647 112.614 779.576 101.152 781.241 C 90.7506 782.866 77.8047 785.23 67.6391 787.929 C 57.8438 790.567 50.8796 793.326 41.071 795.914 C 33.2317 797.942 24.0293 799.381 16.2143 801.497 C 12.1671 802.574 4.22118 804.664 0.0935855 805.263 L 0.137129 792.57 z "
     transform="matrix(1.000000,-4.720560e-2,0.000000,1.000000,4.084470e-6,187.2400)"
     style="font-size:12;fill:#7f7fa5;fill-opacity:0.697479;stroke-width:1pt;"
     id="tablegap2" />
  <path
     d="M 0.137129 792.488 C 0.326589 792.516 6.95089 791.017 8.96669 790.54 C 16.822 788.613 24.6162 786.436 32.4663 784.482 C 42.2266 782.031 51.5596 780.826 61.2908 778.262 C 72.1474 775.397 83.342 773.132 94.4433 771.39 C 105.402 769.756 115.928 767.576 126.79 765.34 C 145.688 761.307 164.423 757.241 183.037 752.06 C 200.083 747.296 217.575 743.558 234.611 738.757 C 250.322 734.272 265.963 730.681 282.059 727.827 C 302.102 724.494 322.22 720.923 342.129 716.794 C 362.039 712.462 380.924 708.532 400.337 702.353 C 413.806 698.09 429.705 694.323 443.419 690.949 C 466.746 685.316 488.35 680.257 511.557 674.125 C 526.905 669.979 543.625 666.237 558.754 661.35 C 566.595 658.826 573.011 656.481 580.924 654.192 C 589.354 651.831 596.671 649.424 605.13 647.169 C 616.904 643.97 629.442 641.237 641.191 637.948 C 652.59 634.741 664.293 632.046 675.612 628.567 C 684.853 625.724 692.612 623.935 701.91 621.281 C 709.058 619.206 716.536 616.889 723.827 615.376 C 729.675 614.164 734.826 612.701 740.54 610.939 C 744.073 609.897 745.581 608.826 750.198 608.836 C 750.034 615.437 750.007 620.693 750.027 624.256 C 743.668 626.181 735.98 628.045 729.475 629.354 C 722.658 630.729 716 632.613 709.3 634.466 C 700.124 636.943 691.021 639.695 681.913 642.409 C 670.416 645.87 658.934 649.401 647.349 652.561 C 635.56 655.804 623.759 659.005 611.987 662.314 C 603.636 664.653 595.368 667.269 587.02 669.621 C 579.237 671.827 571.458 674.046 563.695 676.322 C 548.126 680.934 532.409 684.992 516.654 688.917 C 493.404 694.616 470.09 700.044 446.976 706.279 C 433.637 710.011 420.202 713.405 406.904 717.28 C 386.8 723.167 366.51 728.348 346.039 732.795 C 325.979 737.029 305.792 740.033 285.612 743.565 C 270.184 746.436 255.067 750.157 239.967 754.413 C 222.878 759.185 205.688 763.546 188.555 768.153 C 169.617 773.27 150.644 778.228 131.594 782.914 C 120.325 785.696 109.073 787.199 97.6106 788.864 C 87.2095 790.489 77.0965 792.987 66.9309 795.686 C 57.1356 798.324 47.3385 800.949 37.5299 803.537 C 29.6906 805.565 21.9047 807.779 14.0897 809.895 C 10.0425 810.972 4.22118 812.556 0.0935855 813.155 L 0.137129 792.488 z "
     transform="translate(0.000000,55.31910)"
     style="font-size:12;fill:#7f7fa5;fill-opacity:0.697479;stroke-width:1pt;"
     id="path89" />
  <path
     d="M 0.0548717 792.57 C 1.31368 792.351 6.95089 791.017 8.96669 790.54 C 16.822 788.613 24.6162 786.436 32.4663 784.482 C 42.2266 782.031 51.5596 780.826 61.2908 778.262 C 72.1474 775.397 83.342 773.132 94.4433 771.39 C 105.402 769.756 115.928 767.576 126.79 765.34 C 145.688 761.307 164.423 757.241 183.037 752.06 C 200.083 747.296 217.575 743.558 234.611 738.757 C 250.322 734.272 265.963 730.681 282.059 727.827 C 302.102 724.494 322.22 720.923 342.129 716.794 C 362.039 712.462 380.924 708.532 400.337 702.353 C 413.806 698.09 429.705 694.323 443.419 690.949 C 466.746 685.316 488.35 680.257 511.557 674.125 C 526.905 669.979 543.625 666.237 558.754 661.35 C 566.595 658.826 573.011 656.481 580.924 654.192 C 589.354 651.831 596.671 649.424 605.13 647.169 C 616.904 643.97 629.442 641.237 641.191 637.948 C 652.59 634.741 664.293 632.046 675.612 628.567 C 684.853 625.724 692.612 623.935 701.91 621.281 C 709.058 619.206 716.536 616.889 723.827 615.376 C 729.675 614.164 734.826 612.701 740.54 610.939 C 744.073 609.897 745.581 608.826 750.198 608.836 C 750.116 608.857 749.925 619.415 749.863 619.463 C 743.504 621.388 735.98 622.379 729.475 623.688 C 722.658 625.063 716 626.239 709.3 628.092 C 700.124 630.569 691.021 634.029 681.913 636.743 C 670.416 640.204 661.059 643.027 649.474 646.187 C 637.685 649.43 623.759 659.005 611.987 662.314 C 603.636 664.653 595.368 667.269 587.02 669.621 C 579.237 671.827 571.458 674.046 563.695 676.322 C 548.126 680.934 532.409 684.992 516.654 688.917 C 493.404 694.616 470.09 700.044 446.976 706.279 C 433.637 710.011 423.035 708.447 409.737 712.322 C 389.633 718.209 367.926 721.266 347.455 725.713 C 327.395 729.947 310.75 732.951 290.57 736.483 C 275.142 739.354 255.775 743.075 240.675 747.331 C 223.586 752.103 205.688 757.88 188.555 762.487 C 170.325 765.48 152.769 770.438 133.719 775.124 C 122.45 777.906 109.073 780.117 97.6106 781.782 C 87.2095 783.407 77.8047 785.905 67.6391 788.604 C 57.8438 791.242 47.3385 794.575 37.5299 797.163 C 29.6906 799.191 24.0293 799.989 16.2143 802.105 C 12.1671 803.182 4.22118 804.139 0.0935855 804.738 L 0.0548717 792.57 z "
     transform="translate(0.000000,55.31910)"
     style="font-size:12;fill:#7f7fa5;fill-opacity:0.697479;stroke-width:1pt;"
     id="tablegap3" />
  <path
     d="M 663.952 701.133 C 663.952 701.133 673.232 702.63 690.465 692.635 C 701.149 684.708 702.683 662.163 731.634 663.541 C 748.178 664.575 753.223 692.927 740.019 729.806 C 738.64 740.835 721.417 746.685 711.766 752.889 C 700.737 760.127 683.937 754.386 680.492 753.008 C 676.7 745.77 654.382 715.529 652.314 711.048 C 656.45 708.635 665.368 701.133 663.952 701.133 z "
     transform="matrix(0.845257,0.000000,0.000000,1.000000,100.9410,0.000000)"
     style="font-size:12;fill:#b3a666;fill-rule:evenodd;stroke:#000000;stroke-width:12.5;"
     id="path129" />
  <path
     d="M 222.156 742.406 C 237.867 737.921 265.881 731.835 281.977 728.981 C 302.02 725.648 323.044 722.185 342.376 717.488 C 362.286 713.156 380.677 709.333 400.09 703.154 C 413.559 698.891 429.952 694.768 443.666 691.394 C 466.993 685.761 488.185 680.736 511.392 674.604 C 526.74 670.458 543.46 666.55 558.589 661.663 C 566.43 659.139 572.263 657.445 580.176 655.156 C 580.305 656.051 580.258 668.789 580.375 670.069 C 572.592 672.275 571.458 674.046 563.695 676.322 C 548.126 680.934 532.409 684.992 516.654 688.917 C 493.404 694.616 470.09 700.044 446.976 706.279 C 433.637 710.011 420.202 713.405 406.904 717.28 C 386.8 723.167 366.51 728.348 346.039 732.795 C 325.979 737.029 300.578 745.82 280.398 749.352 C 278.854 749.171 223.453 742.47 222.156 742.406 z "
     transform="matrix(0.998621,-0.118627,0.000000,0.989862,170.5190,291.4850)"
     style="font-size:12;fill:#7f7fa5;fill-opacity:0.697479;stroke-width:1pt;"
     id="path91" />
  <path
     d="M 222.156 741.081 C 237.867 736.596 265.963 730.681 282.059 727.827 C 302.102 724.494 322.22 720.923 342.129 716.794 C 362.039 712.462 380.924 708.532 400.337 702.353 C 413.806 698.09 429.705 694.323 443.419 690.949 C 466.746 685.316 488.35 680.257 511.557 674.125 C 526.905 669.979 543.625 666.237 558.754 661.35 C 566.595 658.826 571.933 657.407 579.846 655.118 C 579.81 656.409 579.836 665.767 579.788 666.451 C 572.005 668.657 570.892 668.886 563.129 671.162 C 547.56 675.774 531.843 679.832 516.088 683.757 C 492.838 689.456 470.656 694.454 447.542 700.689 C 434.203 704.421 420.768 707.815 407.47 711.69 C 387.366 717.577 365.378 722.555 344.907 727.002 C 324.847 731.236 283.625 742.464 263.445 745.996 C 262.617 745.997 223.177 741.198 222.156 741.081 z "
     transform="matrix(1.000000,-0.119842,0.000000,1.000000,170.2130,285.5460)"
     style="font-size:12;fill:#7f7fa5;fill-opacity:0.697479;stroke-width:1pt;"
     id="tablegap1" />
  <path
     d="M 750.524 0.092395 C 750.58 0.153725 750.284 197.532 750.6 276.178 C 738.288 277.237 736.052 254.527 734.009 253.459 C 726.131 262.79 715.801 264.612 706.536 255.969 C 700.795 250.044 696.348 243.267 689.453 238.52 C 687.33 237.222 682.84 233.817 680.725 235.966 C 675.731 242.274 674.921 252.363 672.395 259.807 C 668.396 270.748 661.149 283.961 647.405 278.804 C 643.256 276.32 640.894 270.498 637.816 268.4 C 631.662 266.2 622.347 270.87 615.965 271.183 C 604.079 271.126 592.733 267.073 588.485 255.072 C 586.624 245.544 590.506 238.092 594.284 229.686 C 597.325 222.719 600.282 215.677 602.897 208.538 C 605.389 201.665 607.382 194.48 607.26 187.112 C 606.99 182.475 606.214 176.443 601.562 174.13 C 595.821 171.968 588.93 176.109 584.308 179.128 C 576.357 184.672 569.997 193.08 559.786 193.993 C 550.044 192.972 548.995 186.207 542.615 181.157 C 541.84 180.562 539.178 180 539.321 179.512 C 539.023 179.253 536.775 185.054 536.65 185.377 C 535.115 189.339 533.261 193.102 531.08 196.749 C 523.569 208.159 513.179 215.535 499.602 217.688 C 486.964 218.997 475.439 216.067 468.028 205.131 C 461.945 193.68 464.049 182.113 468.531 170.532 C 470.567 165.455 473.973 159.737 474.337 154.157 C 474.609 148.745 460.97 145.593 457.568 144.519 C 444.598 140.516 429.82 136.832 429.144 120.748 C 429.354 112.743 431.357 104.902 432.078 96.9372 C 432.391 92.2246 432.52 87.2056 429.372 83.3669 C 424.479 78.3631 416.754 77.0688 410.493 74.5376 C 400.481 69.9211 395.533 61.7505 395.04 50.8202 C 395.104 41.642 397.303 33.1571 401.11 24.8381 C 404.639 17.4795 405.507 16.7035 410.031 9.91736 C 413.813 4.33304 415.184 2.45162 419.79 0.101254 C 419.78 0.059825 750.527 0.144524 750.524 0.092395 z "
     transform="matrix(1.751350,0.000000,0.000000,1.000000,-564.5200,0.000000)"
     style="font-size:12;fill:#ffffff;fill-opacity:0.84874;stroke-width:1pt;"
     id="cloud" />
  <g
     transform="matrix(0.996592,8.248800e-2,-8.248800e-2,0.996592,36.59640,-26.73950)"
     style="font-size:12;"
     id="g312">
    <ellipse
       cx="441.642334"
       cy="583.122498"
       rx="255.182007"
       ry="210.894226"
       style="fill:#439a50;fill-rule:evenodd;stroke:#000000;stroke-width:18.75;stroke-linecap:round;stroke-linejoin:round;"
       id="path80" />
    <ellipse
       cx="441.642334"
       cy="583.122498"
       rx="255.182007"
       ry="210.894226"
       style="fill:#439a50;fill-rule:evenodd;stroke-width:2;stroke-linecap:round;stroke-linejoin:round;"
       id="path54" />
    <path
       d="M 399.601 375.115 C 366.133 432.65 360.493 700.72 382.592 788.241 C 356.458 783.424 344.507 778.344 338.304 775.863 C 304.836 703.595 306.095 443.072 352.678 385.522 C 379.201 377.979 384.652 377.086 399.601 375.115 z "
       style="fill:#337d4c;fill-rule:evenodd;stroke-width:1pt;"
       id="path55" />
    <path
       d="M 398.717 355.584 C 344.878 448.434 339.143 673.514 382.592 787.69 C 355.105 769.056 339.933 751.794 339.933 751.794 C 300.74 661.239 289.622 496.648 352.54 389.204 C 370.404 373.34 383.85 364.131 398.717 355.584 z "
       transform="matrix(1.000000,0.000000,0.000000,0.828197,-83.50990,105.5030)"
       style="fill:#337d4c;fill-rule:evenodd;stroke-width:1pt;"
       id="path56" />
    <path
       d="M 398.717 355.584 C 343.739 477.064 344.837 655.537 382.592 787.69 C 357.383 731.105 342.385 673.751 341.911 588.279 C 341.555 511.161 359.556 426.051 398.717 355.584 z "
       transform="matrix(1.000000,0.000000,0.000000,0.570126,-155.2530,247.9570)"
       style="fill:#337d4c;fill-rule:evenodd;stroke-width:1pt;"
       id="path57" />
    <path
       d="M 390.953 370.857 C 399.24 500.515 390.101 671.738 378.037 791.904 C 355.566 791.873 348.335 790.988 339.822 790.354 C 319.26 680.886 332.435 488.228 353.206 370.702 C 367.952 370.087 372.439 370.187 390.953 370.857 z "
       transform="matrix(-1.000000,1.224610e-16,-1.224610e-16,-1.000000,813.5000,1164.110)"
       style="fill:#337d4c;fill-rule:evenodd;stroke-width:1pt;"
       id="path58" />
    <path
       d="M 390.953 369.174 C 358.383 478.562 344.563 698.651 377.807 793.106 C 359.241 787.545 349.254 783.996 340.052 779.275 C 293.505 673.887 307.363 479.932 352.556 380.463 C 368.68 375.287 372.669 373.745 390.953 369.174 z "
       transform="matrix(-1.000000,1.169890e-16,-1.224610e-16,-0.955316,897.3020,1139.770)"
       style="fill:#337d4c;fill-rule:evenodd;stroke-width:1pt;"
       id="path59" />
    <path
       d="M 390.953 366.477 C 328.339 511.32 327.751 686.621 379.654 795.803 C 362.935 782.151 349.782 767.478 338.469 751.97 C 285.951 638.001 292.812 527.286 345.431 411.139 C 362.083 391.131 368.975 384.532 390.953 366.477 z "
       transform="matrix(-1.000000,9.585990e-17,-1.224610e-16,-0.782781,980.8940,1041.740)"
       style="fill:#337d4c;fill-rule:evenodd;stroke-width:1pt;"
       id="path60" />
    <path
       d="M 215.048 679.493 C 374.686 750.805 636.627 679.735 667.974 485.682 C 682.984 507.817 733.284 606.788 649.692 705.307 C 620.758 737.035 547.711 808.303 395.931 790.549 C 288.401 772.056 234.635 714.79 215.048 679.493 z "
       style="fill:#26704c;fill-opacity:0.35;fill-rule:evenodd;stroke-width:1pt;"
       id="path61" />
    <path
       d="M 227.518 537.641 C 218.561 536.149 239.459 486.889 267.821 459.274 C 299.914 434.644 348.428 412.254 352.906 420.464 C 293.198 451.811 268.568 478.68 227.518 537.641 z "
       transform="matrix(1.136940,8.795390e-2,-8.799820e-2,1.145350,27.56530,-105.9040)"
       style="fill:#ffffff;fill-opacity:0.1;fill-rule:evenodd;stroke-width:1pt;"
       id="path62" />
  </g>
  <g
     transform="translate(-2.832840,2.832870)"
     style="font-size:12;"
     id="g99">
    <path
       d="M 413.991 821.726 C 413.991 821.726 505.496 640.425 540.957 597.872 C 550.886 597.872 585.559 617.917 567.458 608.619 C 587.316 615.711 675.605 781.691 695.463 834.173 C 685.534 839.847 580.539 914.202 438.695 867.393 C 421.674 856.046 413.991 823.145 413.991 821.726 z "
       transform="matrix(1.029350,-6.267390e-2,-0.442551,-0.283897,364.9470,1102.990)"
       style="fill:#6b6bb8;fill-opacity:0.2;fill-rule:evenodd;stroke-width:18.75;stroke-linecap:round;stroke-linejoin:round;"
       id="path82" />
    <path
       d="M 420.39 803.546 C 420.39 803.546 505.496 640.425 540.957 597.872 C 550.886 597.872 562.234 606.383 562.234 606.383 C 582.092 613.475 678.546 758.156 698.404 810.638 C 688.475 816.312 586.348 878.724 444.504 831.915 C 427.483 820.568 420.39 804.965 420.39 803.546 z "
       transform="translate(8.498570,5.665760)"
       style="fill:none;fill-rule:evenodd;stroke:#000000;stroke-width:18.75;stroke-linecap:round;stroke-linejoin:round;"
       id="path81" />
    <path
       d="M 563.667 605.57 C 557.279 602.236 547.25 594.774 541.5 597.329 C 521.057 612.023 419.697 800.607 420.975 807.634 C 423.53 813.384 440.141 832.549 444.613 831.271 C 452.279 828.716 569.548 611.224 563.667 605.57 z "
       transform="translate(8.498570,5.665760)"
       style="fill:url(#linearGradient72);fill-rule:evenodd;stroke-width:1pt;"
       id="path74" />
    <path
       d="M 201.878 123.148 C 180.98 124.641 80.9683 356.012 80.9683 356.012 C 184.014 384.829 288.546 362.77 344.268 331.211 C 338.297 319.269 223.541 120.546 201.878 123.148 z "
       transform="matrix(0.884445,0.000000,0.000000,0.867052,390.3340,503.2920)"
       style="fill:url(#radialGradient73);fill-rule:evenodd;stroke-width:1pt;"
       id="path63" />
    <path
       d="M 547.038 690.507 C 544.101 688.563 542.193 688.272 540.144 690.251 C 538.265 692.089 535.019 703.056 535.097 706.181 C 535.253 712.197 537.573 716.874 540.244 717.883 C 536.221 704.297 541.663 689.095 547.038 690.507 z "
       transform="translate(33.21220,-33.75460)"
       style="fill:#b33333;fill-opacity:0.352941;fill-rule:evenodd;stroke-width:1pt;"
       id="path95" />
    <path
       d="M 146.171 280.322 C 141.483 282.743 137.248 306.894 142.014 311.425 C 150.607 318.925 159.716 316.401 164.56 306.635 C 167.685 299.291 151.171 278.915 146.171 280.322 z "
       transform="matrix(0.884445,0.000000,0.000000,0.867052,448.3200,413.8330)"
       style="fill-opacity:0.8;fill-rule:evenodd;stroke:#332626;stroke-width:1pt;stroke-opacity:0.8;"
       id="path65" />
    <path
       d="M 548.953 692.657 C 545.906 691.485 540.279 694.716 537.461 698.741 C 534.644 702.766 532.049 707.858 532.205 710.67 C 532.674 712.623 534.008 715.837 538.226 717.399 C 532.523 709.743 536.856 702.488 548.953 692.657 z "
       style="fill:#b33333;fill-opacity:0.352941;fill-rule:evenodd;stroke-width:1pt;"
       id="path87" />
    <path
       d="M 146.171 280.322 C 141.483 282.743 137.248 306.894 142.014 311.425 C 150.607 318.925 159.716 316.401 164.56 306.635 C 167.685 299.291 151.171 278.915 146.171 280.322 z "
       transform="matrix(-0.779626,0.000000,0.000000,0.728314,662.7860,488.9490)"
       style="fill-opacity:0.8;fill-rule:evenodd;stroke:#332626;stroke-width:1pt;stroke-opacity:0.8;"
       id="path66" />
    <path
       d="M 443.414 833.082 C 431.539 823.863 420.883 809.118 420.883 807.4 C 421.664 803.493 427.014 792.843 429.046 788.39 C 432.327 791.749 442.825 800.653 453.372 806.122 C 451.107 814.403 445.692 828.21 443.414 833.082 z "
       transform="translate(8.498570,5.665760)"
       style="fill:#5cab6e;fill-rule:evenodd;stroke-width:1pt;"
       id="path78" />
    <path
       d="M 672.467 795.405 C 678.092 804.155 683.25 814.788 687.55 826.61 C 582.55 872.235 537.416 887.5 398.041 851.25 C 403.774 833.255 409.291 820 409.291 820 C 519.291 849.375 611.217 826.03 672.467 795.405 z "
       transform="matrix(0.884445,0.000000,0.000000,0.867052,99.88430,100.7780)"
       style="fill:#509d62;fill-rule:evenodd;stroke-width:1pt;"
       id="path67" />
    <path
       d="M 672.925 795.042 C 675.699 800.468 676.781 802.258 679.856 808.791 C 588.828 847.335 540.901 860.811 404.651 832.061 C 408.441 821.274 409.291 820 409.291 820 C 517.311 842.096 588.55 829.615 672.925 795.042 z "
       transform="matrix(0.884445,0.000000,0.000000,0.867052,99.88430,100.7780)"
       style="fill:#73c57f;fill-rule:evenodd;stroke-width:1pt;"
       id="path68" />
    <path
       d="M 449.117 816.597 C 437.242 807.378 425.648 797.321 425.648 795.603 C 426.976 792.712 427.483 791.671 429.28 787.999 C 432.561 791.358 442.825 800.653 453.372 806.122 C 451.498 810.887 451.395 811.725 449.117 816.597 z "
       transform="translate(8.498570,5.665760)"
       style="fill:#7dcf8c;fill-rule:evenodd;stroke-width:1pt;"
       id="path79" />
    <path
       d="M 481.729 743.909 C 462.563 761.11 454.13 758.407 445.051 753.028 C 437.76 767.501 419.671 807.562 419.671 807.562 C 434.02 830.382 437.357 832.738 442.122 834.051 C 517.089 854.608 592.556 867.765 702.181 811.185 C 683.933 777.535 595.765 637.903 595.765 637.903 C 590.006 682.322 536.039 740.44 481.729 743.909 z "
       transform="translate(8.498570,5.665760)"
       style="fill:#6b6bb8;fill-opacity:0.10084;fill-rule:evenodd;stroke-width:1pt;"
       id="path83" />
    <path
       d="M 436.516 790.199 C 437.418 785.054 441.266 773.794 444.055 769.533 C 447.387 764.546 451.065 761.96 454.644 757.147 C 457.963 752.543 455.248 746.841 458.375 742.105 C 461.534 737.263 464.134 734.148 466.437 728.816 C 468.697 723.068 473.887 716.388 474.879 710.305 C 476.17 702.687 482.514 700.696 485.52 693.572 C 488.357 687.242 489.575 679.183 493.839 673.717 C 497.689 668.838 499.123 663.276 503.085 658.49 C 506.64 654.018 509.601 650.174 512.594 645.31 C 516.159 639.605 520.739 635.432 524.306 629.728 C 527.497 624.583 528.207 620.577 530.498 614.944 C 530.927 613.862 535.791 606.888 539.681 603.97 C 541.994 602.428 538.952 617.48 538.372 619.945 C 535.557 626.642 530.538 629.781 526.709 635.918 C 523.687 641.818 524.58 646.725 521.104 653.176 C 517.658 658.856 513.821 664.195 509.676 669.384 C 505.836 674.041 501.713 678.465 497.974 683.205 C 494.807 687.255 492.114 691.491 489.986 696.175 C 487.609 701.704 486.106 707.166 485.1 713.093 C 483.807 720.931 476.077 725.966 473.114 733.354 C 470.305 739.777 472.397 748.085 468.569 753.927 C 465.231 758.969 461.826 763.945 458.269 768.836 C 454.967 773.263 451.853 777.776 448.863 782.42 C 446.131 786.812 446.94 788.404 443.525 789.428 L 436.516 790.199 z "
       transform="matrix(0.850211,0.000000,0.000000,0.817460,90.88120,115.9150)"
       style="fill:#ffffff;fill-opacity:0.252101;stroke-width:1pt;"
       id="path64" />
    <path
       d="M 548.64 689.532 C 546.609 686.954 540.669 690.185 536.914 696.71 C 535.816 698.704 533.378 706.451 533.456 709.576 C 533.611 715.592 535.649 716.774 539.867 718.336 C 532.21 711.462 542.481 690.613 548.64 689.532 z "
       transform="translate(77.62740,19.05750)"
       style="fill:#b33333;fill-opacity:0.352941;fill-rule:evenodd;stroke-width:1pt;"
       id="path97" />
    <path
       d="M 147.417 280.316 C 142.729 282.737 137.299 307.156 142.065 311.687 C 150.658 319.187 159.171 318.711 164.015 308.945 C 167.14 301.601 152.417 278.909 147.417 280.316 z "
       transform="matrix(-0.885755,0.181510,0.173627,0.808097,707.3670,455.5310)"
       style="fill-opacity:0.8;fill-rule:evenodd;stroke:#332626;stroke-width:1pt;stroke-opacity:0.8;"
       id="path70" />
    <path
       d="M 554.109 689.844 C 551.062 688.673 546.06 688.935 540.586 693.897 C 538.707 695.735 531.815 705.045 531.893 708.17 C 532.049 714.186 535.805 717.868 540.023 719.43 C 528.929 702.087 546.856 692.41 554.109 689.844 z "
       transform="translate(21.27980,44.02720)"
       style="fill:#b33333;fill-opacity:0.352941;fill-rule:evenodd;stroke-width:1pt;"
       id="path88" />
    <path
       d="M 147.419 277.856 C 142.731 280.277 137.299 307.156 142.065 311.687 C 150.658 319.187 157.334 315.799 162.178 306.033 C 165.303 298.689 152.419 276.449 147.419 277.856 z "
       transform="matrix(-0.916776,-0.198320,-0.180426,0.808101,760.3460,539.1680)"
       style="fill-opacity:0.8;fill-rule:evenodd;stroke:#332626;stroke-width:1pt;stroke-opacity:0.8;"
       id="path71" />
    <path
       d="M 546.531 690.625 C 543.484 689.454 537.857 695.888 536.68 698.038 C 534.41 702.141 533.534 706.061 533.143 710.67 C 533.065 712.077 533.696 714.431 537.054 715.992 C 533.07 705.759 540.918 694.832 546.531 690.625 z "
       transform="translate(-37.43640,67.94860)"
       style="fill:#b33333;fill-opacity:0.352941;fill-rule:evenodd;stroke-width:1pt;"
       id="path96" />
    <path
       d="M 149.057 277.497 C 143.692 281.986 138.775 303.761 143.541 308.292 C 152.134 315.792 158.727 313.958 163.571 304.192 C 166.696 296.848 155.589 279.21 149.057 277.497 z "
       transform="matrix(-0.920883,0.178277,0.151982,0.813930,604.2930,506.6350)"
       style="fill-opacity:0.8;fill-rule:evenodd;stroke:#332626;stroke-width:1pt;stroke-opacity:0.8;"
       id="path72" />
    <path
       d="M 544.656 689.298 C 540.203 685.938 536.372 692.216 534.336 696.085 C 533.394 698.157 532.441 705.357 532.519 708.482 C 532.673 714.498 536.04 716.93 540.258 718.492 C 532.288 709.899 538.575 686.941 544.656 689.298 z "
       transform="translate(64.97120,80.46370)"
       style="fill:#b33333;fill-opacity:0.352941;fill-rule:evenodd;stroke-width:1pt;"
       id="path98" />
    <path
       d="M 149.376 276.49 C 143.018 278.596 139.484 305.463 144.25 309.994 C 152.843 317.494 159.738 315.497 164.582 305.731 C 167.707 298.387 155.642 276.679 149.376 276.49 z "
       transform="matrix(-0.846076,0.404923,0.352486,0.749222,636.2830,502.3400)"
       style="fill-opacity:0.8;fill-rule:evenodd;stroke:#332626;stroke-width:1pt;stroke-opacity:0.8;"
       id="path73" />
    <path
       d="M 537.936 707.369 C 537.936 707.369 537.42 705.853 542.815 699.387 C 545.267 696.988 547.302 696.413 547.693 696.726 C 548.189 697.248 538.536 707.604 537.936 707.369 z "
       transform="matrix(1.209730,0.000000,0.000000,1.307640,-114.0530,-214.3440)"
       style="fill:#ffffff;fill-opacity:0.352941;fill-rule:evenodd;stroke-width:1pt;"
       id="path75" />
    <path
       d="M 537.936 707.369 C 537.936 707.369 537.42 705.853 542.815 699.387 C 545.267 696.988 547.302 696.413 547.693 696.726 C 548.189 697.248 538.536 707.604 537.936 707.369 z "
       transform="matrix(1.405390,8.860300e-2,-9.625010e-2,1.505480,-129.1900,-360.1960)"
       style="fill:#ffffff;fill-opacity:0.352941;fill-rule:evenodd;stroke-width:1pt;"
       id="path76" />
    <path
       d="M 537.936 707.369 C 537.936 707.369 537.42 705.853 542.815 699.387 C 545.267 696.988 547.302 696.413 547.693 696.726 C 548.189 697.248 538.536 707.604 537.936 707.369 z "
       transform="matrix(1.297410,-0.275369,0.377951,1.081570,-464.1190,158.5490)"
       style="fill:#ffffff;fill-opacity:0.352941;fill-rule:evenodd;stroke-width:1pt;"
       id="path77" />
    <path
       d="M 537.936 707.369 C 537.936 707.369 537.42 705.853 542.815 699.387 C 545.267 696.988 547.302 696.413 547.693 696.726 C 548.189 697.248 538.536 707.604 537.936 707.369 z "
       transform="matrix(1.297410,-0.354749,0.377951,1.393350,-348.2930,-64.72510)"
       style="fill:#ffffff;fill-opacity:0.352941;fill-rule:evenodd;stroke-width:1pt;"
       id="path84" />
    <path
       d="M 537.936 707.369 C 537.936 707.369 537.42 705.853 542.815 699.387 C 545.267 696.988 547.302 696.413 547.693 696.726 C 548.189 697.248 538.536 707.604 537.936 707.369 z "
       transform="matrix(1.103120,-0.396946,0.658802,1.051410,-484.2610,143.6030)"
       style="fill:#ffffff;fill-opacity:0.352941;fill-rule:evenodd;stroke-width:1pt;"
       id="path85" />
    <path
       d="M 537.936 707.369 C 537.936 707.369 537.42 705.853 542.815 699.387 C 545.267 696.988 547.302 696.413 547.693 696.726 C 548.189 697.248 538.536 707.604 537.936 707.369 z "
       transform="matrix(1.124690,-0.396946,0.601667,1.051410,-426.3900,256.5640)"
       style="fill:#ffffff;fill-opacity:0.352941;fill-rule:evenodd;stroke-width:1pt;"
       id="path86" />
  </g>
  <path
     d="M 272.09 840.381 C 261.581 841 248.73 843.266 248.73 846.975 C 248.73 854.393 267.351 852.691 267.351 852.691 C 267.351 852.691 222.076 856.014 222.385 862.504 C 222.694 869.304 238.067 877.338 263.72 877.338 C 297.101 876.72 317.544 869.793 317.544 861.448 C 317.235 855.266 278.683 854.108 278.683 854.108 C 278.683 854.108 290.941 849.267 290.941 845.249 C 291.25 842.776 278.89 840.252 272.09 840.381 z "
     transform="translate(-8.458700,-4.308980)"
     style="font-size:12;fill:#bfe1ff;fill-rule:evenodd;stroke:#c5e6ff;stroke-width:5.25;stroke-linecap:round;stroke-linejoin:round;"
     id="drool" />
  <g
     style="font-size:12;"
     id="g302">
    <path
       d="M 251.324 839.32 L 251.109 871.984 "
       style="fill:none;fill-rule:evenodd;stroke:#ffffff;stroke-width:7;stroke-linecap:round;stroke-linejoin:round;stroke-opacity:0.504202;"
       id="path299" />
    <path
       d="M 251.441 838.263 L 251.109 871.32 "
       transform="translate(10.63160,0.664473)"
       style="fill:none;fill-rule:evenodd;stroke:#ffffff;stroke-width:7;stroke-linecap:round;stroke-linejoin:round;stroke-opacity:0.504202;"
       id="path300" />
    <path
       d="M 251.441 842.844 L 251.558 858.695 "
       transform="translate(39.20400,9.302630)"
       style="fill:none;fill-rule:evenodd;stroke:#ffffff;stroke-width:7;stroke-linecap:round;stroke-linejoin:round;stroke-opacity:0.504202;"
       id="path301" />
  </g>
  <path
     d="M 453.762 840.366 C 453.762 840.366 438.292 847.398 415.788 851.617 C 411.569 860.056 407.349 876.934 394.691 879.747 C 370.781 881.153 334.212 862.87 324.367 861.463 C 315.928 861.463 311.709 862.87 290.612 854.431 C 270.921 862.87 252.637 867.088 204.817 872.714 C 173.875 872.714 120.429 862.869 111.991 837.553 C 155.591 823.488 256.857 781.294 256.857 781.294 C 256.857 781.294 432.665 803.797 432.665 803.797 C 432.665 803.797 455.169 840.366 453.762 840.366 z "
     style="font-size:12;fill:#6b6bb8;fill-opacity:0.2;fill-rule:evenodd;stroke-width:1pt;"
     id="path298" />
  <path
     d="M 243.102 638.44 C 230.709 617.065 205.067 586.705 192.243 583.36 C 185.262 591.735 173.04 626.911 172.925 643.287 C 124.037 658.662 109.565 678.49 87.7657 701.636 C 75.1495 714.252 11.3281 781.785 10.7705 781.785 C 47.0419 791.642 72.294 786.496 82.2461 782.064 C 74.361 798.623 70.7649 812.191 71.207 822.441 C 79.8806 811.585 88.7967 804.102 96.045 800.199 C 89.9399 821.139 94.9299 835.586 96.6026 837.817 C 99.3904 828.059 107.96 816.343 111.027 814.392 C 111.306 824.986 114.826 837.578 118.171 841.249 C 119.844 832.934 125.682 826.364 126.518 824.134 C 163.317 843.648 219.448 843.899 259.035 826.335 C 262.659 829.96 267.939 832.692 270.863 831.625 C 276.084 829.135 279.537 818.758 279.815 815.412 C 283.834 813.067 298.731 819.403 303.47 819.682 C 307.652 826.094 320.953 853.069 322.347 856.414 C 328.201 862.269 362.027 869.74 376.802 863.328 C 389.069 856.359 386.678 833.834 387.514 828.538 C 396.156 828.538 426.478 823.067 431.998 818.335 C 456.061 795.464 441.628 748.38 423.507 753.677 C 412.356 756.465 386.185 769.535 376.707 771.766 C 366.949 772.881 342.251 770.236 338.07 769.4 C 335.561 767.169 330.232 763.139 330.232 763.139 C 363.128 688.426 293.159 643.748 243.102 638.44 z "
     style="font-size:12;fill:none;fill-rule:evenodd;stroke:#000000;stroke-width:18.75;stroke-linecap:round;stroke-linejoin:round;"
     id="path297" />
  <path
     d="M 327.993 766.476 C 348.12 774.006 376.416 771.955 376.416 771.955 C 376.416 771.955 411.827 759.207 423.158 753.541 C 442.988 752.125 444.405 783.286 444.405 783.286 C 444.405 783.286 444.654 808.461 431.657 818.697 C 423.815 823.153 410.78 825.06 400.103 827.195 C 380.172 829.686 349.848 832.112 313.859 823.3 C 300.691 818.673 273.172 812.946 272.105 811.879 C 295.011 792.119 324.078 772.526 327.993 766.476 z "
     style="font-size:12;fill:#b3a666;fill-rule:evenodd;stroke-width:1pt;"
     id="path154" />
  <path
     d="M 399.5 827.396 C 404.205 821.123 408.126 807.794 394.012 794.857 C 381.467 789.369 378.722 808.578 361.864 804.265 C 363.432 819.163 374.802 829.356 374.802 829.356 C 374.802 829.356 399.892 827.788 399.5 827.396 z "
     style="font-size:12;fill:#a58b59;fill-rule:evenodd;stroke-width:1pt;"
     id="path379" />
  <path
     d="M 337.025 851.618 C 348.277 867.089 386.252 888.186 393.285 899.438 C 398.91 912.096 400.317 952.883 384.846 957.103 C 369.374 959.916 337.025 956.739 331.399 947.257 C 324.367 931.786 305.874 899.963 305.457 896.624 C 305.248 895.163 329.993 864.275 337.025 851.618 z "
     transform="translate(-9.845360,-92.82690)"
     style="font-size:12;fill:#b3a666;fill-rule:evenodd;stroke-width:1pt;"
     id="path282" />
  <path
     d="M 309.706 791.006 C 323.881 791.449 343.175 807.308 343.175 807.308 C 351.702 813.731 338.181 818.214 337.074 823.862 C 334.748 833.718 333.173 843.464 327.154 843.884 C 322.503 843.662 312.516 836.995 312.516 836.995 C 312.516 836.995 294.479 802.54 293.815 800.657 C 295.255 799.993 306.722 791.006 309.706 791.006 z "
     style="font-size:12;fill:#3f3326;fill-rule:evenodd;stroke-width:1pt;"
     id="path292" />
  <ellipse
     cx="198.654388"
     cy="817.988647"
     rx="132.436279"
     ry="99.858368"
     transform="matrix(0.983102,-0.183059,0.183059,0.983102,-137.9470,-29.59810)"
     style="font-size:12;fill:#b9ac69;fill-rule:evenodd;stroke-width:1pt;"
     id="path128" />
  <path
     d="M 124.292 678.47 C 124.292 678.47 26.558 780.453 26.558 780.453 C 26.558 780.453 76.1332 793.201 100.212 779.036 C 127.125 757.79 122.875 678.47 124.292 678.47 z "
     transform="translate(-15.58070,1.416440)"
     style="font-size:12;fill:#b9ac69;fill-rule:evenodd;stroke-width:1pt;"
     id="path130" />
  <path
     d="M 219.192 645.892 C 217.776 638.81 180.949 590.652 168.201 589.235 C 161.119 600.566 144.122 643.06 149.787 654.391 C 163.952 661.473 213.527 651.557 219.192 645.892 z "
     transform="translate(24.07940,-5.665700)"
     style="font-size:12;fill:#b9ac69;fill-rule:evenodd;stroke-width:1pt;"
     id="path131" />
  <path
     d="M 194.347 638.771 C 205.597 630.49 213.781 609.506 212.531 599.037 C 216.437 603.256 238.355 628.249 242.52 638.648 C 230.231 637.951 208.253 637.208 194.347 638.771 z "
     style="font-size:12;fill:#b3a666;fill-opacity:0.504202;fill-rule:evenodd;stroke-width:1pt;"
     id="path376" />
  <path
     d="M 199.696 587.323 C 189.74 587.323 183.914 606.511 186.162 613.898 C 191.622 623.533 195.204 614.677 201.948 617.889 C 206.444 619.816 213.695 631.647 216.264 632.932 C 222.366 635.822 233.658 632.808 237.512 629.918 C 224.546 610.888 202.265 587.323 199.696 587.323 z "
     style="font-size:12;fill:#a58d5a;fill-rule:evenodd;stroke-width:1pt;"
     id="path295" />
  <path
     d="M 83.2153 780.453 C 83.2153 780.453 75.0304 803.788 82.9308 821.265 C 87.9939 801.769 98.1245 796.921 98.1245 796.921 C 98.1245 796.921 84.6317 781.87 83.2153 780.453 z "
     transform="translate(13.68850,17.53080)"
     style="font-size:12;fill:#bbac69;fill-rule:evenodd;stroke-width:1pt;"
     id="path138" />
  <path
     d="M 83.2153 780.453 C 83.2153 780.453 81.2743 791.781 89.1747 809.258 C 92.7969 795.765 98.1245 791.157 98.1245 791.157 C 98.1245 791.157 84.6317 781.87 83.2153 780.453 z "
     transform="translate(28.81780,33.14040)"
     style="font-size:12;fill:#bbac69;fill-rule:evenodd;stroke-width:1pt;"
     id="path139" />
  <path
     d="M 93.9416 811.446 C 99.9056 806.547 100.479 793.635 107.771 781.294 C 114.374 770.218 129.98 749.628 138.713 751.758 C 145.529 754.101 144.471 779.252 152.778 786.92 C 157.677 792.671 181.719 785.899 185.127 789.733 C 188.961 797.614 183.977 801.924 186.533 806.61 C 188.45 810.018 195.225 816.672 193.734 825.405 C 191.817 831.369 165.483 836.998 165.483 836.998 C 150.999 834.442 135.022 828.543 126.907 824.262 C 122.626 829.374 120.35 833.712 118.042 842.254 C 113.612 833.79 111.564 822.332 111.777 814.451 C 105.387 818.498 99.5288 827.173 96.5468 838.675 C 93.4439 831.83 91.6831 820.52 93.9416 811.446 z "
     style="font-size:12;fill:#e6e6cc;fill-rule:evenodd;stroke-width:1pt;"
     id="path262" />
  <path
     d="M 127.047 824.342 C 187.482 817.967 262.521 789.855 264.682 757.179 C 297.831 754.495 307.127 702.313 303.695 662.633 C 353.412 696.95 354.933 777.234 271.992 820.505 C 202.895 853.858 147.013 834.98 127.047 824.342 z "
     style="font-size:12;fill:#b3a666;fill-rule:evenodd;stroke-width:1pt;"
     id="path140" />
  <path
     d="M 127.18 824.068 C 151.916 822.569 189.77 811.325 189.77 811.325 C 204.949 831.377 172.904 834.375 165.783 837.186 C 150.229 834.375 128.492 825.567 127.18 824.068 z "
     style="font-size:12;fill:#cccca6;fill-rule:evenodd;stroke-width:1pt;"
     id="path372" />
  <path
     d="M 270.903 802.243 C 270.781 804.439 270.184 830.049 285.765 830.029 C 294.584 830.072 305.473 772.731 305.473 769.559 C 299.583 771.373 295.897 771.182 291.431 768.739 C 289.767 788.199 284.852 795.316 270.903 802.243 z "
     transform="translate(-15.58070,1.416440)"
     style="font-size:12;fill:#591919;fill-rule:evenodd;stroke-width:1pt;"
     id="path134" />
  <path
     d="M 271.533 803.052 C 271.734 803.97 275.302 809.433 276.355 809.161 C 277.536 808.798 278.092 801.587 278.379 799.865 C 276.583 801.053 274.009 802.232 271.533 803.052 z "
     transform="matrix(0.986386,-0.164445,0.164445,0.986386,-141.3230,54.44510)"
     style="font-size:12;fill:#bfbfd9;fill-rule:evenodd;stroke-width:1pt;"
     id="path133" />
  <path
     d="M 83.2153 780.453 C 83.2153 780.453 69.7471 805.709 71.1635 822.706 C 82.9508 807.292 95.9632 800.283 95.9632 800.283 C 95.9632 800.283 84.6317 781.87 83.2153 780.453 z "
     style="font-size:12;fill:#bbac69;fill-rule:evenodd;stroke-width:1pt;"
     id="path137" />
  <path
     d="M 216.912 739.764 C 206.992 751.332 174.855 778.82 173.816 774.462 C 173.966 773.649 216.912 739.764 216.912 739.764 z "
     style="font-size:12;fill-rule:evenodd;stroke:#000000;stroke-width:1pt;"
     id="path141" />
  <path
     d="M 212.11 740.793 C 214.438 744.165 161.476 787.191 169.599 780.213 C 180.135 770.981 210.186 740.071 212.11 740.793 z "
     transform="matrix(0.625002,0.000000,0.000000,0.740744,137.6140,136.8150)"
     style="font-size:12;fill-rule:evenodd;stroke:#000000;stroke-width:1pt;"
     id="path142" />
  <path
     d="M 679.459 702.389 C 679.459 702.389 690.617 699.705 696.235 708.413 C 700.448 715.997 728.258 701.953 727.977 686.503 C 727.696 685.099 726.01 670.492 720.392 669.649 C 701.291 665.436 695.786 683.464 692.583 692.683 C 691.459 696.334 679.74 702.389 679.459 702.389 z "
     style="font-size:12;fill:#baab68;fill-rule:evenodd;stroke-width:1pt;"
     id="path378" />
  <path
     d="M 692.076 693.423 C 692.076 693.423 685.617 710.474 693.625 721.066 C 701.634 729.591 718.168 730.107 720.493 729.849 C 737.285 682.831 723.401 670.202 720.493 669.655 C 701.767 664.951 696.998 681.134 692.076 693.423 z "
     style="font-size:12;fill:#a68c59;fill-rule:evenodd;stroke-width:1pt;"
     id="path152" />
  <path
     d="M 673.812 704.814 C 664.511 713.598 666.242 720.032 666.242 723.907 C 663.94 720.29 659.524 712.54 659.524 712.54 C 659.524 712.54 665.232 706.959 665.232 706.959 C 668.279 706.568 671.6 705.673 673.812 704.814 z "
     style="font-size:12;fill:#a68c59;fill-rule:evenodd;stroke-width:1pt;"
     id="path153" />
  <path
     d="M 306.992 687.74 C 309.356 685.194 332.542 628.323 358 610.502 C 331.997 628.323 307.125 684.332 306.992 687.74 z "
     style="font-size:12;fill:none;fill-rule:evenodd;stroke:#7f6633;stroke-width:1pt;stroke-linecap:round;stroke-linejoin:round;"
     id="path252" />
  <path
     d="M 306.992 687.74 C 309.356 685.194 319.813 653.599 356.182 629.777 C 323.814 648.325 307.125 684.332 306.992 687.74 z "
     transform="translate(12.18340,3.091280)"
     style="font-size:12;fill:none;fill-rule:evenodd;stroke:#7f6633;stroke-width:1pt;stroke-linecap:round;stroke-linejoin:round;"
     id="path253" />
  <path
     d="M 306.992 687.74 C 309.356 685.194 319.813 653.599 356.182 629.777 C 323.814 648.325 307.125 684.332 306.992 687.74 z "
     transform="matrix(0.878009,0.000000,0.000000,0.752162,50.54290,187.3590)"
     style="font-size:12;fill:none;fill-rule:evenodd;stroke:#7f6633;stroke-width:1pt;stroke-linecap:round;stroke-linejoin:round;"
     id="path254" />
  <path
     d="M 306.992 687.74 C 309.356 685.194 326.817 620.098 365.329 613.501 C 326.647 619.182 307.125 684.332 306.992 687.74 z "
     transform="matrix(-0.922253,-0.386586,0.386586,-0.922253,217.8080,1556.390)"
     style="font-size:12;fill:none;fill-rule:evenodd;stroke:#7f6633;stroke-width:1pt;stroke-linecap:round;stroke-linejoin:round;"
     id="path263" />
  <path
     d="M 319.508 674.146 C 321.872 671.6 326.817 620.098 365.329 613.501 C 326.647 619.182 319.641 670.738 319.508 674.146 z "
     transform="matrix(-0.922253,-0.386586,0.386586,-0.922253,234.6060,1560.590)"
     style="font-size:12;fill:none;fill-rule:evenodd;stroke:#7f6633;stroke-width:1pt;stroke-linecap:round;stroke-linejoin:round;"
     id="path264" />
  <path
     d="M 319.508 674.146 C 318.416 666.977 321.112 620.972 359.624 614.375 C 320.942 620.056 316.831 665.845 319.508 674.146 z "
     transform="matrix(-0.922253,-0.386586,0.386586,-0.922253,247.9040,1555.690)"
     style="font-size:12;fill:none;fill-rule:evenodd;stroke:#7f6633;stroke-width:1pt;stroke-linecap:round;stroke-linejoin:round;"
     id="path265" />
  <path
     d="M 167.518 691.335 C 166.57 706.977 171.784 712.191 164.2 723.093 C 158.512 728.781 142.397 737.313 128.651 729.255 C 116.801 718.827 118.223 698.919 118.223 703.185 C 118.697 711.243 114.905 691.809 118.697 687.543 C 129.125 677.589 146.662 670.006 156.142 676.642 C 167.044 684.226 173.68 673.323 175.576 679.959 C 178.42 686.121 172.732 688.017 167.518 691.335 z "
     transform="translate(5.213900,5.687900)"
     style="font-size:12;fill:#a58b59;fill-rule:evenodd;stroke-width:1pt;"
     id="path267" />
  <path
     d="M 162.498 646.937 C 169.94 644.25 193.653 635.932 210.812 638.413 C 223.423 646.269 224.508 653.637 224.508 656.118 C 224.301 662.32 218.963 683.838 216.069 691.28 C 212.348 699.343 206.963 711.383 194.972 710.97 C 187.323 709.109 182.31 696.323 175.281 688.467 C 169.699 682.265 142.845 698.969 131.681 689.873 C 127.753 685.738 135.653 678.578 137.307 672.996 C 138.754 666.794 136.151 659.179 136.151 659.179 C 141.319 655.664 157.208 648.343 162.498 646.937 z "
     style="font-size:12;fill:#3f3326;fill-rule:evenodd;stroke-width:1pt;"
     id="path266" />
  <path
     d="M 376.691 772.061 C 384.406 772.061 391.834 772.347 410.12 792.348 C 416.692 799.491 442.121 773.204 441.836 769.204 C 437.264 752.346 423.264 753.203 423.264 753.203 C 423.264 753.203 402.692 762.061 376.691 772.061 z "
     style="font-size:12;fill:#baab68;fill-rule:evenodd;stroke-width:1pt;"
     id="path371" />
  <path
     d="M 317.508 845.89 C 324.813 851.261 344.624 849.542 344.624 849.542 C 344.624 849.542 374.702 840.948 379.214 836.866 C 382.652 833.643 386.649 822.042 386.649 822.042 C 388.583 838.585 386.089 858.995 377.066 863.507 C 361.597 868.449 329.719 863.857 322.11 855.298 C 320.821 852.505 318.546 848.558 317.508 845.89 z "
     style="font-size:12;fill:#e6e6cc;fill-rule:evenodd;stroke-width:1pt;"
     id="path293" />
  <path
     d="M 430.997 818.914 C 439.161 804.734 436.793 789.815 435.074 780.791 C 432.066 771.338 425.191 761.885 419.605 761.455 C 411.441 761.025 408.863 765.323 403.707 761.455 C 413.789 757.928 418.906 755.529 423.383 753.341 C 452.052 753.82 447.655 809.001 430.997 818.914 z "
     style="font-size:12;fill:#e6e6cc;fill-rule:evenodd;stroke-width:1pt;"
     id="path294" />
  <path
     d="M 261.361 762.361 C 261.361 762.361 272.856 750.865 272.856 750.865 C 272.856 750.865 274.005 763.894 274.005 763.894 C 274.005 763.894 262.127 761.978 261.361 762.361 z "
     transform="translate(-1.915890,1.149540)"
     style="font-size:12;fill:#cc8d5a;fill-rule:evenodd;stroke:#cc8d5a;stroke-width:3.75;stroke-linecap:round;stroke-linejoin:round;stroke-opacity:0.504202;"
     id="path296" />
  <path
     d="M 289.939 770.913 C 292.83 770.21 294.861 768.803 296.58 767.553 C 291.189 774.663 286.97 810.757 279.314 816.694 C 283.454 804.35 289.939 775.601 289.939 770.913 z "
     style="font-size:12;fill:#94854c;fill-rule:evenodd;stroke-width:1pt;"
     id="path306" />
  <g
     transform="matrix(0.769230,0.000000,0.000000,0.745663,152.6430,363.4320)"
     style="font-size:12;"
     id="g309">
    <path
       d="M -49.7539 424.051 C -59.5992 449.367 -75.0703 459.212 -75.0703 484.529 C -72.2574 516.877 -23.031 516.878 -21.6245 484.529 C -21.6245 460.619 -38.5021 449.367 -49.7539 424.051 z "
       transform="matrix(0.684210,0.000000,0.000000,0.717841,-12.45450,189.9740)"
       style="fill:#d9d9ff;fill-opacity:0.747899;fill-rule:evenodd;stroke:#ccccf3;stroke-width:6.25;stroke-opacity:0.504202;"
       id="path307" />
    <path
       d="M -46.0183 511.48 C -50.3076 508.766 -59.1613 524.749 -57.7546 529.751 C -56.835 532.689 -53.1345 532.802 -49.406 529.63 C -45.028 525.905 -40.1154 515.323 -46.0183 511.48 z "
       style="fill:#ffffff;fill-opacity:0.74902;fill-rule:evenodd;stroke-width:1pt;"
       id="path308" />
  </g>
  <path
     d="M 126.89 824.24 C 124.015 822.672 120.617 819.274 117.22 823.717 C 115.39 829.99 117.742 842.012 117.742 842.012 C 122.446 828.683 126.106 825.547 126.89 824.24 z "
     style="font-size:12;fill:#cccca6;fill-rule:evenodd;stroke-width:1pt;"
     id="path373" />
  <path
     d="M 132.379 817.706 C 129.504 816.138 123.492 815.092 120.095 819.535 C 117.22 824.501 116.958 830.251 117.742 841.489 C 122.446 824.763 129.242 820.581 132.379 817.706 z "
     transform="translate(-21.17010,-3.136310)"
     style="font-size:12;fill:#cccca6;fill-rule:evenodd;stroke-width:1pt;"
     id="path374" />
  <path
     d="M 95.5267 800.718 C 94.2199 799.15 86.9018 792.876 84.2882 795.751 C 79.3224 802.285 70.9589 822.672 70.9589 822.672 C 82.7201 808.036 92.9131 802.025 95.5267 800.718 z "
     style="font-size:12;fill:#b3a666;fill-rule:evenodd;stroke-width:1pt;"
     id="path375" />
  <path
     d="M 82.5141 781.423 C 81.186 745.896 87.1167 727.551 87.1167 727.551 C 65.2027 773.372 23.3493 784.378 23.3493 784.378 C 23.3493 784.378 61.1266 791.951 82.5141 781.423 z "
     style="font-size:12;fill:#b3a566;fill-rule:evenodd;stroke-width:1pt;"
     id="path377" />
  <g
     transform="translate(0.000000,-1.406440)"
     style="font-size:12;"
     id="g386">
    <path
       d="M 89.4866 599.859 C 89.4866 599.859 88.0802 543.601 88.0802 543.601 C 88.0802 543.601 37.4473 522.504 37.4473 522.504 C 37.4473 522.504 52.9184 516.878 52.9184 516.878 C 52.9184 516.878 88.0802 530.942 88.0802 530.942 C 88.0802 530.942 96.519 495.781 96.519 495.781 C 96.519 495.781 107.771 500 107.771 500 C 107.771 500 103.551 528.129 103.551 528.129 C 103.551 528.129 123.242 507.032 123.242 507.032 C 123.242 507.032 130.274 509.845 130.274 509.845 C 130.274 509.845 103.551 550.633 103.551 550.633 C 103.551 550.633 114.803 594.233 114.803 594.233 C 114.803 594.233 126.055 602.672 126.055 602.672 C 126.055 602.672 104.958 602.672 104.958 602.672 C 104.958 602.672 85.2672 613.924 85.2672 613.924 C 85.2672 613.924 88.0802 599.859 89.4866 599.859 z "
       transform="matrix(0.887027,0.000000,0.000000,0.875205,19.66950,55.51730)"
       style="fill:#acbdac;fill-rule:evenodd;stroke-width:1pt;"
       id="path382" />
    <path
       d="M 40.2602 402.953 C 40.2602 402.953 21.9761 409.986 30.4149 435.302 C -0.527469 435.302 12.1308 467.651 12.1308 467.651 C 12.1308 467.651 -21.6245 473.277 -10.3727 505.626 C -13.1856 519.691 -13.1857 526.723 7.91139 528.129 C 7.91139 545.007 24.789 552.039 54.3249 539.381 C 55.7314 547.82 71.2025 546.414 78.2349 532.349 C 93.7061 537.975 81.0475 518.284 93.7057 502.813 C 99.3316 523.91 113.397 508.439 113.397 508.439 C 113.397 508.439 137.307 532.348 152.778 521.097 C 162.623 514.065 161.217 495.78 152.778 481.716 C 172.469 484.528 180.907 459.213 168.249 442.335 C 175.281 425.457 154.185 415.612 134.494 422.644 C 130.275 407.173 110.584 405.767 95.1127 419.832 C 71.2027 388.889 40.2602 402.953 40.2602 402.953 z "
       transform="matrix(0.887027,0.000000,0.000000,0.875205,18.26300,55.51730)"
       style="fill:#99bdcc;fill-rule:evenodd;stroke-width:1pt;"
       id="path381" />
  </g>
  <g
     transform="translate(3.607630,-36.07630)"
     style="font-size:12;fill:#000081;fill-opacity:0.504202;"
     id="g425">
    <path
       d="M 89.965 244.832 C 93.8893 248.608 111.81 252.505 128.324 256.562 C 177.706 270.591 102.563 290.428 94.4061 292.251 C 88.5699 293.493 77.1818 295.936 76.6378 293.563 L 74.2251 281.469 C 73.5972 278.392 85.5927 276.245 91.2579 275.024 C 99.4939 273.115 117.167 263.316 124.79 264.027 C 128.401 264.364 127.635 276.273 124.28 274.895 C 105.403 269.11 85.039 265.855 67.9729 255.411 C 46.654 236.634 77.6971 228.646 91.5942 226.993 C 102.771 225.872 113.657 223.743 116.992 236.965 C 116.992 236.965 87.8971 239.322 89.965 244.832 z "
       transform="matrix(0.272428,0.000000,0.000000,0.250649,-19.50300,951.9410)"
       style="stroke-width:1pt;"
       id="path391" />
    <path
       d="M 147.929 224.382 C 147.696 226.363 148.447 231.29 148.875 234.279 C 150.162 242.653 155.36 273.98 156.194 281.362 C 157.322 300.809 138.484 292.231 135.74 278.244 C 133.775 267.268 129.923 256.421 137.383 247.305 C 147.93 237.948 162.982 243.393 170.437 253.392 C 175.796 261.641 178.941 270.88 180.767 280.504 C 180.865 281.064 180.963 281.625 181.06 282.185 L 165.819 285.652 C 163.088 286.213 159.666 270.109 157.621 265.625 C 156.628 263.415 156.165 261.776 153.378 261.115 C 142.025 277.788 134.039 294.568 130.855 237.649 C 130.357 232.79 129.578 224.4 132.591 224.382 L 147.929 224.382 z "
       transform="matrix(0.272428,0.000000,0.000000,0.250649,-19.50300,951.9410)"
       style="stroke-width:1pt;"
       id="path392" />
    <path
       d="M 196.949 254.403 C 194.405 254.198 189.913 256.913 187.016 258.676 C 184.446 260.659 183.991 264.298 184.278 267.328 C 184.77 269.85 185.699 271.564 188.328 271.984 C 191.942 272.087 194.44 269.522 196.42 266.759 C 200.256 260.639 188.234 245.671 193.341 240.346 C 206.377 233.582 221.954 255.14 225.448 264.147 C 226.785 267.576 228.297 270.908 229.977 274.182 L 214.424 283.978 C 212.487 280.103 210.729 276.161 209.128 272.135 C 203.053 256.865 207.009 269.84 216.866 264.161 C 220.57 259.827 211.839 276.726 210.133 279.326 C 203.87 287.73 195.538 293.026 184.787 291.517 C 173.592 288.804 167.85 279.687 166.505 268.71 C 165.936 257.5 169.647 246.814 179.449 240.654 C 187.564 236.587 196.736 236.943 204.889 240.756 C 210.826 244.131 213.169 248.716 214.038 255.249 L 196.949 254.403 z "
       transform="matrix(0.272428,0.000000,0.000000,0.250649,-19.26220,952.9380)"
       style="stroke-width:1pt;"
       id="path394" />
    <path
       d="M 246.387 249.674 C 245.974 252.78 246.172 256.048 246.121 259.171 C 246.064 263.455 244.905 271.5 248.012 275.02 C 248.531 275.396 250.752 274.011 252.209 272.363 C 258.707 265.374 263.385 259.8 270.892 270.393 C 273.102 274.048 274.926 280.129 278.979 282.257 C 279.492 282.378 280.247 279.971 280.527 279.219 C 282.296 273.442 282.009 266.954 280.702 261.114 C 280.228 259.243 279.657 257.45 278.963 255.651 L 295.473 247.984 C 296.507 250.821 297.337 253.67 298.022 256.611 C 300.059 266.812 300.036 277.488 296.718 287.411 C 291.934 298.874 281.46 305.864 269.618 299.238 C 263.445 294.792 260.49 288.833 256.509 282.638 C 261.815 288.256 268.761 279.396 260.57 288.064 C 251.769 296.699 240.623 296.374 233.216 286.191 C 228.454 277.864 228.336 268.515 228.211 259.171 C 228.16 256.048 227.512 249.904 230.483 249.674 L 246.387 249.674 z "
       transform="matrix(0.272428,0.000000,0.000000,0.250649,-21.03560,949.4730)"
       style="stroke-width:1pt;"
       id="path395" />
    <path
       d="M 302.382 286.085 C 299.659 286.761 298.69 282.756 297.461 279.769 C 294.403 272.029 292.214 264.184 291.141 255.92 C 289.994 243.992 292.214 231.451 304.816 226.918 C 316.795 224.544 326.571 231.45 333.24 240.877 C 338.348 248.992 340.522 257.797 341.655 267.221 C 342.054 270.992 343.798 279.849 340.163 279.741 L 324.743 280.014 C 324.526 276.617 324.351 273.219 324.006 269.833 C 323.318 263.962 322.329 258.161 319.254 253.016 C 316.948 249.616 314.034 246.563 309.794 246.018 C 307.916 245.614 308.567 251.465 308.708 253.111 C 309.503 259.401 311.225 265.328 313.681 271.165 C 315.664 275.629 317.342 278.951 318.117 283.378 L 302.382 286.085 z "
       transform="matrix(0.272428,0.000000,0.000000,0.250649,-19.88620,951.9410)"
       style="stroke-width:1pt;"
       id="path396" />
    <text
       x="8.959227"
       y="1155.744873"
       transform="scale(0.894378,0.893792)"
       style="font-weight:bold;stroke-width:1pt;font-family:Arial;"
       id="text397">
      <tspan
         x="8.959227"
         y="1155.744873"
         id="tspan423">
(c) 3-4-2003</tspan>
    </text>
  </g>
</svg>
