<?xml version="1.0" standalone="no"?>
<!DOCTYPE svg PUBLIC "-//W3C//DTD SVG 20010904//EN"
"http://www.w3.org/TR/2001/REC-SVG-20010904/DTD/svg10.dtd"
[
 <!ATTLIST svg
  xmlns:xlink CDATA #FIXED "http://www.w3.org/1999/xlink">
]>
<!-- Created with Sodipodi ("http://www.sodipodi.com/") -->
<svg
   xmlns="http://www.w3.org/2000/svg"
   xmlns:xlink="http://www.w3.org/1999/xlink"
   width="744.094"
   height="744.094"
   id="svg1">
  <defs
     id="defs3">
    <linearGradient
       x1="0"
       y1="0"
       x2="1"
       y2="0"
       id="linearGradient82"
       gradientUnits="objectBoundingBox"
       spreadMethod="pad">
      <stop
         style="stop-color:#a70000;stop-opacity:1;"
         offset="0"
         id="stop83" />
      <stop
         style="stop-color:#ff978d;stop-opacity:1;"
         offset="1"
         id="stop84" />
    </linearGradient>
    <linearGradient
       x1="0"
       y1="0"
       x2="1"
       y2="0"
       id="linearGradient59"
       gradientUnits="objectBoundingBox"
       spreadMethod="pad">
      <stop
         style="stop-color:#ffffff;stop-opacity:0.678431;"
         offset="0"
         id="stop60" />
      <stop
         style="stop-color:#dd0000;stop-opacity:0;"
         offset="1"
         id="stop61" />
    </linearGradient>
    <linearGradient
       x1="0"
       y1="0"
       x2="1"
       y2="0"
       id="linearGradient54"
       gradientUnits="objectBoundingBox"
       spreadMethod="pad">
      <stop
         style="stop-color:#ffffff;stop-opacity:0.227451;"
         offset="0"
         id="stop55" />
      <stop
         style="stop-color:#dd0000;stop-opacity:1;"
         offset="1"
         id="stop56" />
    </linearGradient>
    <linearGradient
       x1="0"
       y1="0"
       x2="1"
       y2="0"
       id="linearGradient42"
       gradientUnits="objectBoundingBox"
       spreadMethod="pad">
      <stop
         style="stop-color:#ffffff;stop-opacity:1;"
         offset="0"
         id="stop43" />
      <stop
         style="stop-color:#dd0000;stop-opacity:1;"
         offset="1"
         id="stop44" />
    </linearGradient>
    <linearGradient
       x1="0"
       y1="0"
       x2="1"
       y2="0"
       id="linearGradient38"
       gradientUnits="objectBoundingBox"
       spreadMethod="pad">
      <stop
         style="stop-color:#ff0000;stop-opacity:1;"
         offset="0"
         id="stop39" />
      <stop
         style="stop-color:#ffffff;stop-opacity:0.247059;"
         offset="1"
         id="stop40" />
    </linearGradient>
    <linearGradient
       x1="0"
       y1="0"
       x2="1"
       y2="0"
       id="linearGradient32"
       gradientUnits="objectBoundingBox"
       spreadMethod="pad">
      <stop
         style="stop-color:#a70000;stop-opacity:1;"
         offset="0"
         id="stop33" />
      <stop
         style="stop-color:#ff978d;stop-opacity:0.247059;"
         offset="1"
         id="stop34" />
    </linearGradient>
    <linearGradient
       x1="0"
       y1="0"
       x2="1"
       y2="0"
       id="linearGradient24"
       gradientUnits="objectBoundingBox"
       spreadMethod="pad">
      <stop
         style="stop-color:#ffff00;stop-opacity:1;"
         offset="0"
         id="stop25" />
      <stop
         style="stop-color:#ef9f1d;stop-opacity:0.490196;"
         offset="1"
         id="stop26" />
    </linearGradient>
    <linearGradient
       x1="0"
       y1="0"
       x2="1"
       y2="0"
       id="linearGradient19"
       gradientUnits="objectBoundingBox"
       spreadMethod="pad">
      <stop
         style="stop-color:#ffff00;stop-opacity:1;"
         offset="0"
         id="stop20" />
      <stop
         style="stop-color:#aa5f3f;stop-opacity:1;"
         offset="1"
         id="stop21" />
    </linearGradient>
    <radialGradient
       cx="0.500004"
       cy="0.500007"
       fx="0.500004"
       fy="0.500007"
       r="0.5"
       id="radialGradient22"
       xlink:href="#linearGradient24"
       gradientUnits="objectBoundingBox"
       gradientTransform="translate(5.86346e-07,1.16195e-06)"
       spreadMethod="pad" />
    <linearGradient
       x1="-2.16038e-06"
       y1="-1.1903e-06"
       x2="0.999998"
       y2="-1.1903e-06"
       id="linearGradient23"
       xlink:href="#linearGradient38"
       gradientUnits="objectBoundingBox"
       gradientTransform="translate(3.1931e-07,-6.12266e-07)"
       spreadMethod="pad" />
    <linearGradient
       x1="1.99075e-06"
       y1="0.411293"
       x2="1.00376"
       y2="0.41129"
       id="linearGradient35"
       xlink:href="#linearGradient32"
       gradientUnits="objectBoundingBox"
       gradientTransform="translate(3.60984e-08,6.27442e-08)"
       spreadMethod="pad" />
    <radialGradient
       cx="0.513329"
       cy="0.515638"
       fx="0.513329"
       fy="0.515638"
       r="0.478533"
       id="radialGradient36"
       xlink:href="#linearGradient42"
       gradientUnits="objectBoundingBox"
       gradientTransform="translate(-6.32781e-08,1.72311e-07)"
       spreadMethod="pad" />
    <linearGradient
       x1="-2.1805e-05"
       y1="0.0156474"
       x2="0.393939"
       y2="-0.0546874"
       id="linearGradient37"
       xlink:href="#linearGradient38"
       gradientUnits="objectBoundingBox"
       gradientTransform="translate(-2.90285e-08,2.98743e-08)"
       spreadMethod="pad" />
    <linearGradient
       x1="8.63679e-10"
       y1="-8.24855e-09"
       x2="1"
       y2="-8.24855e-09"
       id="linearGradient46"
       xlink:href="#linearGradient54"
       gradientUnits="objectBoundingBox"
       gradientTransform="translate(8.63679e-10,-8.24855e-09)"
       spreadMethod="pad" />
    <radialGradient
       cx="0.0306114"
       cy="0.398466"
       fx="0.0306114"
       fy="0.398466"
       r="1.26677"
       id="radialGradient58"
       xlink:href="#linearGradient59"
       gradientUnits="objectBoundingBox"
       gradientTransform="matrix(0.999999,0,0,1,-1.02329e-08,3.1816e-07)"
       spreadMethod="pad" />
    <radialGradient
       cx="0.404414"
       cy="0.296876"
       fx="0.404414"
       fy="0.296876"
       r="0.962462"
       id="radialGradient65"
       xlink:href="#linearGradient59"
       gradientUnits="objectBoundingBox"
       gradientTransform="translate(5.23345e-08,2.99369e-08)"
       spreadMethod="pad" />
    <linearGradient
       x1="-9.65608e-08"
       y1="9.76752e-07"
       x2="1"
       y2="9.76752e-07"
       id="linearGradient60"
       xlink:href="#linearGradient82"
       gradientUnits="objectBoundingBox"
       gradientTransform="translate(-2.41402e-08,2.44188e-07)"
       spreadMethod="pad" />
    <linearGradient
       x1="0"
       y1="0"
       x2="1"
       y2="0"
       id="linearGradient79"
       xlink:href="#linearGradient82"
       gradientUnits="objectBoundingBox"
       spreadMethod="pad" />
  </defs>
  <g
     transform="translate(9.94303,-111.663)"
     style="font-size:12;"
     id="g82">
    <ellipse
       cx="378.834595"
       cy="369.533569"
       rx="280.191040"
       ry="280.191040"
       transform="translate(-26.5165,120.208)"
       style="fill:#ffd654;fill-rule:evenodd;stroke:#000000;stroke-width:2.5;"
       id="path82" />
    <path
       d="M 552.137 345.363 C 562.265 360.058 558.025 408.527 578.796 434.614 C 615.592 420.504 630.076 394.978 647.052 368.429 C 666.445 336.286 622.799 294.166 632.847 230.614 C 584.935 298.029 609.561 301.805 607.361 321.023 C 606.628 348.307 587.765 335.33 552.137 345.363 z "
       transform="matrix(-1,-0,0,1,820.694,11.4745)"
       style="fill:#ffffcf;fill-rule:evenodd;stroke:#000000;stroke-width:1pt;"
       id="path80" />
    <path
       d="M 552.137 345.363 C 562.265 360.058 558.025 408.527 578.796 434.614 C 615.592 420.504 630.076 394.978 647.052 368.429 C 666.445 336.286 622.799 294.166 632.847 230.614 C 584.935 298.029 609.561 301.805 607.361 321.023 C 606.628 348.307 587.765 335.33 552.137 345.363 z "
       style="fill:#ffffcf;fill-rule:evenodd;stroke:#000000;stroke-width:1pt;"
       id="path78" />
    <path
       d="M 281.602 278.873 L 252.096 218.223 L 276.684 237.893 L 278.324 201.831 L 302.911 228.058 L 327.499 195.274 L 330.777 224.779 L 366.841 196.912 L 363.972 222.73 L 402.083 214.124 L 384.462 236.664 L 425.646 229.083 L 407.718 244.142 L 437.326 275.594 L 281.602 278.873 z "
       style="fill-rule:evenodd;stroke:#000000;stroke-width:1pt;"
       id="path47" />
    <path
       d="M 174.79 467.054 C 169.948 486.003 168.233 512.945 168.994 519.792 C 171.87 546.25 172.228 568.869 171.313 591.076 C 171.893 653.066 158.835 668.804 153.926 688.439 C 152.187 714.305 161.577 725.066 165.517 729.006 C 165.517 732.087 184.055 744.067 186.961 746.973 C 205.599 753.186 243.728 768.808 262.881 771.313 C 288.089 774.611 359.513 759.143 361.982 759.143 C 381.51 755.889 426.156 740.754 444.277 735.962 C 454.064 733.453 473.606 728.732 483.107 717.995 C 492.368 707.528 485.173 677.099 481.947 659.462 C 480.788 633.385 476.152 596.9 480.788 563.838 C 482.057 556.194 481.388 528.485 500.493 521.53 C 509.144 525.05 518.083 528.485 523.095 528.485 C 529.261 528.485 537.953 527.843 540.481 519.792 C 542.779 512.473 538.601 503.982 540.481 485.6 C 546.98 468.638 550.912 449.178 550.912 445.031 C 551.444 438.028 558.898 443.744 565.722 441.535 C 587.927 434.533 586.87 385.605 579.473 370.78 C 575.503 362.513 562.551 346.658 549.386 339.468 C 539.216 338.521 543.761 339.19 531.598 339.409 C 527.547 347.162 490.563 339.399 471.516 332.02 C 467.123 323.233 468.364 315.213 445.436 284.498 C 404.19 245.668 388.431 242.533 331.267 238.714 C 312.729 239.001 256.81 261.591 229.846 304.202 C 200.869 348.361 173.32 361.134 163.198 369.691 C 137.998 391.575 158.053 433.908 160.88 436.338 C 167.026 441.121 174.21 444.76 177.687 447.928 C 177.687 450.752 177.02 457.747 174.79 467.054 z "
       transform="translate(5.32736,0.409775)"
       style="fill:#ec0000;fill-rule:evenodd;stroke:#000000;stroke-width:1pt;"
       id="path6" />
    <path
       d="M 183.25 451.389 L 294.715 392.378 L 245.539 572.689 L 180.791 603.015 L 183.25 451.389 z "
       style="fill:url(#linearGradient37);fill-rule:evenodd;stroke-width:1pt;"
       id="path41" />
    <path
       d="M 301.607 401.607 L 452.302 451.215 L 387.376 623.197 C 320.709 582.364 255.774 593.69 300.357 535.357 L 301.607 401.607 z "
       transform="translate(7.5,-11.25)"
       style="fill:url(#linearGradient46);fill-opacity:0.592157;fill-rule:evenodd;stroke-width:1pt;"
       id="path53" />
    <path
       d="M 300.809 369.074 C 289.411 370.04 239.939 511.156 224.889 531.926 C 252.9 532.312 280.743 554.49 301.852 547.501 C 317.656 542.269 316.775 498.232 296.534 485.49 C 300.12 442.843 306.218 369.75 300.809 369.074 z "
       style="fill:#f41600;fill-rule:evenodd;stroke-width:1pt;"
       id="path45" />
    <path
       d="M 257.809 532.689 L 250.855 580.791 L 279.253 580.211 L 274.037 532.689 L 257.809 532.689 z "
       style="fill:url(#linearGradient23);fill-rule:evenodd;stroke-width:1pt;"
       id="path31" />
    <path
       d="M 181.165 621.212 C 197.585 603.825 206.492 579.333 264.04 578.905 C 310.423 578.56 348.652 592.428 390.959 611.939 C 383.811 644.78 345.266 665.243 325.471 670.473 C 307.287 675.422 217.097 682.45 197.971 659.462 C 183.483 646.906 186.96 637.246 181.165 621.212 z "
       style="fill:url(#linearGradient35);fill-rule:evenodd;stroke-width:1pt;"
       id="path13" />
    <path
       d="M 164.197 425.341 C 166.694 405.773 203.107 381.735 223.311 377.819 C 240.971 374.395 269.663 382.196 277.788 392.888 C 284.344 401.514 272.89 441.987 261.561 448.523 C 242.754 459.373 219.247 461.83 196.651 456.636 C 185.633 454.103 163.138 434.132 164.197 425.341 z "
       style="fill:#830000;fill-opacity:0.45;fill-rule:evenodd;stroke:#000000;stroke-width:1pt;"
       id="path62" />
    <path
       d="M 188.118 620.053 C 191.402 625.268 199.266 634.479 202.608 636.28 C 231.071 650.722 288.187 647.484 321.994 641.496 C 352.71 631.837 363.141 623.336 386.323 613.677 C 347.977 611.938 309.63 610.201 264.909 609.041 C 238.345 609.621 218.158 608.461 188.118 620.053 z "
       style="fill-rule:evenodd;stroke:#000000;stroke-width:1pt;"
       id="path14" />
    <g
       transform="matrix(0.827053,0,0,0.691408,39.0089,172.415)"
       style="stroke:#ffffb9;"
       id="g76">
      <path
         d="M 247.425 612.052 C 243.046 615.205 235.614 646.881 239.031 650.127 C 252.358 661.599 259.592 661.644 268.968 646.369 C 273.349 643.215 263.346 613.825 259.754 610.413 C 255.618 606.484 252.705 608.251 247.425 612.052 z "
         transform="matrix(0.870102,0.492872,-0.492872,0.870102,324.598,-54.7244)"
         style="fill:#ffffff;fill-rule:evenodd;stroke-width:1pt;"
         id="path71" />
      <path
         d="M 247.425 612.052 C 243.046 615.205 235.614 646.881 239.031 650.127 C 252.358 661.599 259.592 661.644 268.968 646.369 C 273.349 643.215 263.687 618.244 260.095 614.832 C 255.959 610.903 252.705 608.251 247.425 612.052 z "
         transform="matrix(0.970224,-0.242209,0.242209,0.970224,-69.485,67.6494)"
         style="fill:#ffffff;fill-rule:evenodd;stroke-width:1pt;"
         id="path72" />
      <path
         d="M 263.683 595.524 C 256.952 595.249 236.535 643.334 239.914 656.174 C 241.999 664.097 278.94 666.079 280.075 657.813 C 286.593 604.385 270.339 595.796 263.683 595.524 z "
         transform="matrix(-1,-0,0,1,563.03,-2.55795e-13)"
         style="fill:#ffffff;fill-rule:evenodd;stroke-width:1pt;"
         id="path73" />
      <path
         d="M 263.683 595.524 C 256.952 595.249 236.535 643.334 239.914 656.174 C 241.999 664.097 278.94 666.079 280.075 657.813 C 286.593 604.385 270.339 595.796 263.683 595.524 z "
         transform="translate(-0.819588,0.819588)"
         style="fill:#ffffff;fill-rule:evenodd;stroke-width:1pt;"
         id="path75" />
    </g>
    <path
       d="M 183.483 440.974 C 185.222 428.031 190.806 416.534 205.506 408.52 C 213.519 403.836 223.779 401.004 235.642 402.725 C 249.085 404.674 257.857 408.907 266.937 421.27 C 270.994 434.599 261.721 449.668 258.823 459.52 C 247.619 472.269 213.248 480.563 198.551 471.111 C 186.834 463.862 184.835 458.361 183.483 440.974 z "
       style="fill:url(#radialGradient36);fill-rule:evenodd;stroke-width:1pt;"
       id="path15" />
    <path
       d="M 262.88 436.338 C 240.893 426.096 235.123 422.658 221.153 418.952 C 216.192 417.636 210.613 418.911 206.665 421.85 C 202.306 425.093 200.444 432.133 199.13 437.497 C 198.126 441.599 198.475 446.115 201.449 449.087 C 211.805 452.683 226.174 453.411 238.539 450.826 C 247.423 448.968 253.449 445.8 262.88 436.338 z "
       style="fill:#ffffff;fill-rule:evenodd;stroke:#000000;stroke-width:1pt;"
       id="path16" />
    <ellipse
       cx="232.744064"
       cy="513.996582"
       rx="15.647644"
       ry="15.647644"
       transform="translate(-4.0568,-78.2382)"
       style="fill:url(#radialGradient22);fill-rule:evenodd;stroke-width:1pt;"
       id="path18" />
    <ellipse
       cx="259.113220"
       cy="486.468323"
       rx="6.085190"
       ry="6.085190"
       transform="translate(-30.1362,-49.8407)"
       style="fill-rule:evenodd;stroke-width:1pt;"
       id="path27" />
    <path
       d="M 225.912 532.399 C 224.506 517.732 257.824 492.586 266.892 492.238 C 273.299 491.172 311.393 515.145 311.15 533.218 C 311.088 538.039 301.039 546.821 291.48 547.151 C 285.194 547.368 271.888 534.322 266.072 534.038 C 260.686 533.775 252.332 546.089 246.402 546.331 C 238.946 546.635 226.773 541.884 225.912 532.399 z "
       transform="translate(-1.34943,1.63921)"
       style="fill:#ce0000;fill-rule:evenodd;stroke-width:1pt;"
       id="path23" />
    <path
       d="M 291.099 393.067 C 293.593 387.545 299.175 386.476 302.135 388.149 C 305.459 390.028 290.628 416.987 288.161 424.896 C 281.339 446.766 275.294 456.503 276.523 468.399 C 277.325 475.061 283.728 481.301 282.165 487.449 C 279.574 497.442 269.487 500.233 265.422 499.802 C 261.449 499.581 252.87 492.802 253.772 485.039 C 254.858 477.425 261.135 475.756 267.513 470.209 C 269.97 468.277 271.102 461.445 271.809 457.815 C 274.38 444.614 276.228 431.7 281.234 419.464 C 283.605 413.669 289.768 396.015 291.099 393.067 z "
       style="fill:#ff3327;fill-rule:evenodd;stroke-width:1pt;"
       id="path22" />
    <path
       d="M 259.72 535.677 C 258.339 533.743 240.865 518.53 248.861 514.777 C 258.41 510.54 273.014 528.819 271.604 531.169 C 269.735 534.283 261.071 537.568 259.72 535.677 z "
       transform="translate(27.1873,1.43424)"
       style="fill:#00000f;fill-rule:evenodd;stroke-width:1pt;"
       id="path26" />
    <path
       d="M 163.755 391.917 C 191.263 368.864 209.651 361.084 230.751 362.871 C 254.569 364.598 263.308 377.184 275.059 387.657 C 252.636 383.501 242.155 376.566 227.422 376.604 C 213.647 376.639 195.306 392.678 178.686 400.423 C 175.532 394.595 160.893 394.286 163.755 391.917 z "
       style="fill-rule:evenodd;stroke-width:1pt;"
       id="path30" />
    <path
       d="M 237.796 533.628 C 236.415 531.694 245.987 514.022 254.188 514.777 C 264.612 515.476 253.344 532.917 251.934 535.267 C 250.065 538.381 239.147 535.519 237.796 533.628 z "
       transform="translate(0.409835,1.02447)"
       style="fill-rule:evenodd;stroke-width:1pt;"
       id="path25" />
    <path
       d="M 314.187 378.483 C 360.054 355.476 379.207 356.776 405.039 354.457 C 419.062 353.514 442.03 367.425 452.973 376.744 C 458.014 381.074 442.31 382.35 438.484 388.483 C 423.699 378.807 410.631 371.891 398.299 370.751 C 374.949 369.69 346.411 378.873 314.187 378.483 z "
       style="fill-rule:evenodd;stroke-width:1pt;"
       id="path48" />
    <path
       d="M 437.742 387.091 C 422.944 376.082 421.351 374.864 400.072 371.444 C 398.523 371.237 333.597 371.629 312.56 380.716 C 301.519 385.62 308.21 436.031 313.14 446.204 C 327.995 478.052 390.36 491.241 426.152 484.453 C 435.178 482.741 445.058 392.756 437.742 387.091 z "
       style="fill:#ac0000;fill-opacity:0.75;fill-rule:evenodd;stroke:#000000;stroke-width:1pt;"
       id="path63" />
    <path
       d="M 183.483 440.974 C 185.222 428.031 190.806 416.534 205.506 408.52 C 213.519 403.836 223.779 401.004 235.642 402.725 C 249.085 404.674 287.993 415.282 301.13 429.963 C 305.187 443.292 293.017 483.282 286.642 488.498 C 275.438 501.247 217.884 487.517 203.187 478.065 C 191.47 470.816 184.835 458.361 183.483 440.974 z "
       transform="translate(146.045,-5.79544)"
       style="fill:url(#radialGradient36);fill-rule:evenodd;stroke-width:1pt;"
       id="path49" />
    <path
       d="M 265.198 430.846 C 257.7 424.998 245.404 418.675 231.65 414.919 C 212.637 409.177 203.565 416.355 198.55 418.878 C 189.318 425.273 190.543 427.991 180.767 437.004 C 194.162 441.204 209.375 446.028 227.767 444.879 C 238.328 443.773 249.409 441.556 265.198 430.846 z "
       transform="matrix(-1,1.29225e-16,1.22461e-16,1.05523,609.894,-22.8858)"
       style="fill:#ffffff;fill-rule:evenodd;stroke:#000000;stroke-width:1pt;"
       id="path50" />
    <path
       d="M 479.387 335.222 C 518.798 395.491 487.693 438.087 497.933 459.244 C 505.555 475.648 553.211 464.885 560.523 441.858 C 575.41 398.627 567.515 396.316 561.682 379.267 C 557.47 366.953 542.836 350.377 532.705 344.495 C 518.882 336.468 513.002 346.809 479.387 335.222 z "
       style="fill-opacity:0.29375;fill-rule:evenodd;stroke-width:1pt;"
       id="path69" />
    <ellipse
       cx="301.606903"
       cy="725.357300"
       rx="61.250000"
       ry="40.000000"
       transform="translate(-27.5,3.75)"
       style="fill:url(#radialGradient58);fill-rule:evenodd;stroke-width:1pt;"
       id="path57" />
    <path
       d="M 498.823 462.78 C 502.862 449.316 510.806 429.156 523.433 428.967 C 539.775 428.729 542.215 466.29 541.978 482.426 C 541.829 492.563 535.207 505.243 527.191 509.015 C 522.07 511.425 505.54 502.816 502.159 497.283 C 497.04 488.907 495.908 472.498 498.823 462.78 z "
       style="fill:#d70000;fill-rule:evenodd;stroke-width:1pt;"
       id="path70" />
    <path
       d="M 313.057 765.679 C 318.069 771.666 404.033 750.954 453.436 735.005 C 472.868 729.054 495.441 726.232 489.334 698.851 C 473.791 629.987 478.532 485.616 470.201 485.229 C 461.891 484.843 472.983 634.734 439.411 696.532 C 417.596 736.687 308.476 760.208 313.057 765.679 z "
       style="fill:#a40000;fill-rule:evenodd;stroke-width:1pt;"
       id="path58" />
    <ellipse
       cx="364.719116"
       cy="332.613892"
       rx="60.272400"
       ry="56.795151"
       transform="translate(-53.3179,-20.8636)"
       style="fill:url(#radialGradient65);fill-rule:evenodd;stroke-width:1pt;"
       id="path64" />
    <path
       d="M 498.687 463.1 C 498.687 460.169 488.605 433.866 513.34 419.181 C 531.96 408.471 546.99 427.905 550.222 433.239 C 555.742 444.337 555.906 454.949 542.465 486.869 C 541.454 489.312 543.294 474.558 540.487 454.905 C 539.262 446.687 539.437 433.86 522.455 428.678 C 501.968 435.335 498.687 465.36 498.687 463.1 z "
       style="fill:#e63e41;fill-rule:evenodd;stroke-width:1pt;"
       id="path65" />
    <path
       d="M 503.149 478.079 C 503.964 474.729 514.578 472.599 518.507 474.312 C 522.112 475.883 511.944 485.673 528.938 480.108 C 513.394 490.213 508.981 492.108 503.728 491.988 C 498.712 491.859 502.225 481.876 503.149 478.079 z "
       style="fill:#ffffff;fill-opacity:0.21875;fill-rule:evenodd;stroke-width:1pt;"
       id="path66" />
    <path
       d="M 513.581 493.147 C 514.191 491.274 523.925 485.038 525.171 486.192 C 518.999 494.698 522.258 498.472 520.535 499.232 C 518.974 499.921 513.245 495.069 513.581 493.147 z "
       style="fill-rule:evenodd;stroke-width:1pt;"
       id="path67" />
    <path
       d="M 503.728 498.363 C 503.041 496.662 518.459 510.24 523.143 510.244 C 537.271 510.255 539.375 485.966 541.978 487.062 C 541.693 497.846 543.033 510.976 541.109 518.937 C 540.232 522.567 522.781 526.662 517.057 523.284 C 509.206 519.047 504.876 501.202 503.728 498.363 z "
       style="fill:#a40000;fill-opacity:0.592157;fill-rule:evenodd;stroke-width:1pt;"
       id="path68" />
    <path
       d="M 188.408 619.491 C 216.752 606.523 371.522 611.968 388.35 613.116 C 365.919 599.991 324.102 584.068 267.225 580.082 C 219.316 576.758 176.377 616.183 188.408 619.491 z "
       style="fill:url(#linearGradient60);fill-rule:evenodd;stroke-width:1pt;"
       id="path81" />
    <path
       d="M 215.646 646.15 C 264.714 654.264 274.374 654.263 325.76 647.309 C 299.487 652.718 288.169 676.286 262.01 676.286 C 240.26 676.286 237.282 651.559 215.646 646.15 z "
       style="fill:#ffffff;fill-opacity:0.2;fill-rule:evenodd;stroke-width:1pt;"
       id="path85" />
    <g
       transform="translate(-176.181,203.999)"
       id="g190">
      <ellipse
         cx="232.744064"
         cy="513.996582"
         rx="15.647644"
         ry="15.647644"
         transform="translate(323.964,-288.033)"
         style="fill:url(#radialGradient22);fill-rule:evenodd;stroke-width:1pt;"
         id="path51" />
      <ellipse
         cx="259.113220"
         cy="486.468323"
         rx="6.085190"
         ry="6.085190"
         transform="translate(297.644,-260.215)"
         style="fill-rule:evenodd;stroke-width:1pt;"
         id="path52" />
    </g>
  </g>
</svg>
