<?xml version="1.0" standalone="no"?>
<!DOCTYPE svg PUBLIC "-//W3C//DTD SVG 20010904//EN"
"http://www.w3.org/TR/2001/REC-SVG-20010904/DTD/svg10.dtd"
[
 <!ATTLIST svg
  xmlns:xlink CDATA #FIXED "http://www.w3.org/1999/xlink">
]>
<!-- Created with Sodipodi ("http://www.sodipodi.com/") -->
<svg
   xmlns="http://www.w3.org/2000/svg"
   xmlns:xlink="http://www.w3.org/1999/xlink"
   width="744.094"
   height="744.094"
   id="svg1">
  <defs
     id="defs928" />
  <g
     transform="matrix(1.89982,0,0,1.89982,-173.753,-70.1854)"
     style="font-size:12;"
     id="g929">
    <g
       id="g131">
      <path
         d="M 232.294 240.771 L 150.794 273.771 L 273.794 320.771 L 429.294 269.021 L 232.294 240.771 z "
         id="path110" />
      <g
         style="fill:#ffffff;"
         id="g121">
        <path
           d="M 224.544 248.771 L 215.544 253.021 L 235.044 253.021 C 235.128 253.021 235.211 253.021 235.294 253.021 L 230.044 248.771 L 224.544 248.771 z "
           id="path111" />
        <path
           d="M 233.044 254.021 L 207.794 253.771 L 194.044 259.271 L 236.044 259.271 L 233.044 254.021 z "
           id="path113" />
        <path
           d="M 188.794 260.771 L 179.794 265.771 L 240.544 264.521 L 236.544 260.771 L 188.794 260.771 z "
           id="path114" />
        <path
           d="M 175.794 268.271 L 171.544 272.521 L 257.794 273.771 L 247.044 268.021 L 175.794 268.271 z "
           id="path115" />
        <path
           d="M 244.044 306.021 L 303.794 306.771 L 274.294 316.271 L 244.044 306.021 z "
           id="path116" />
        <path
           d="M 311.794 304.521 L 329.294 298.771 L 225.794 297.521 L 236.794 303.271 L 311.794 304.521 z "
           id="path117" />
        <path
           d="M 202.544 289.521 L 215.294 294.271 L 334.794 297.271 L 349.794 291.771 L 202.544 289.521 z "
           id="path118" />
        <path
           d="M 375.544 283.021 L 357.544 289.771 L 268.294 289.521 L 263.544 286.771 L 195.544 287.021 L 187.544 282.271 L 313.794 283.521 L 318.544 280.771 L 185.044 280.021 L 170.544 274.771 L 392.294 276.271 L 379.044 281.021 L 359.044 281.021 L 346.044 284.521 L 375.544 283.021 z "
           id="path119" />
        <path
           d="M 360.794 274.521 L 406.794 273.521 L 386.294 265.271 L 373.044 263.771 L 373.294 267.521 L 356.794 267.521 L 360.794 274.521 z "
           id="path120" />
      </g>
    </g>
    <path
       d="M 221.679 105.437 C 224.762 106.52 224.346 110.604 225.679 113.187 C 232.596 119.52 241.012 124.604 252.429 123.937 C 253.012 116.27 263.846 118.854 272.429 113.937 C 275.012 111.604 279.596 111.27 282.429 113.937 C 300.679 112.27 342.679 147.854 317.929 175.687 C 329.012 180.77 334.096 196.604 329.429 212.937 C 341.846 220.854 340.512 233.77 339.429 247.437 C 343.429 247.604 346.929 249.27 348.429 253.187 C 352.679 252.77 355.929 251.854 359.679 248.187 C 359.429 244.77 361.179 241.604 364.179 240.187 C 363.012 237.604 364.846 234.52 367.429 233.937 C 368.846 228.937 368.262 226.187 373.929 218.937 C 370.846 206.687 391.262 213.187 381.929 221.187 C 383.179 223.687 381.929 226.937 380.429 227.937 C 381.096 231.437 381.012 234.937 380.179 238.437 C 378.512 242.354 376.596 245.52 372.929 247.937 C 369.596 271.354 350.262 276.27 328.179 266.937 C 245.012 300.52 206.096 246.104 243.179 224.687 C 236.346 213.354 240.012 194.77 255.679 188.437 C 243.596 175.687 246.262 155.437 262.929 151.687 C 275.846 148.437 290.012 149.187 303.179 152.437 C 304.596 132.52 281.012 141.854 266.929 136.937 C 259.762 135.77 264.346 133.604 252.429 129.937 C 243.846 129.187 233.762 126.187 225.929 117.687 C 222.346 117.354 217.762 119.27 215.179 116.687 C 217.929 113.52 221.179 115.604 224.179 114.937 C 223.346 111.854 220.262 109.02 221.679 105.437 z "
       id="path4" />
    <g
       style="fill:#ffffff;"
       id="g11">
      <path
         d="M 293.554 168.812 C 284.971 181.729 271.637 178.645 271.554 174.562 L 271.554 171.062 C 271.804 166.229 281.804 169.395 293.554 168.812 z "
         id="path5" />
      <path
         d="M 265.304 214.312 C 262.054 204.062 269.804 199.312 277.304 198.562 C 295.971 198.812 304.887 199.562 300.304 213.562 C 292.387 214.312 278.471 211.312 265.304 214.312 z "
         id="path9" />
      <path
         d="M 297.554 248.812 C 294.137 251.229 277.471 254.645 271.554 250.062 C 258.471 247.895 265.887 238.229 278.054 238.312 C 286.804 239.562 295.554 243.312 297.554 248.812 z "
         id="path10" />
    </g>
    <g
       style="fill:#ffffff;"
       id="g25">
      <path
         d="M 312.044 179.854 L 308.544 180.604 C 302.877 179.354 307.961 174.104 311.044 173.854 C 314.127 175.104 314.711 177.604 312.044 179.854 z "
         id="path14" />
      <ellipse
         cx="302.794403"
         cy="184.854416"
         rx="2.500000"
         ry="2.000000"
         id="ellipse15" />
      <path
         d="M 292.794 179.354 L 293.044 185.104 C 303.877 189.021 289.461 195.437 290.294 186.354 L 286.294 182.854 L 292.794 179.354 z "
         id="path18" />
      <path
         d="M 273.294 186.104 L 283.044 186.104 C 285.211 193.437 270.627 194.687 273.294 186.104 z "
         id="path19" />
      <path
         d="M 259.294 180.104 L 266.294 179.854 L 268.294 188.604 C 261.961 189.437 257.127 186.021 259.294 180.104 z "
         id="path20" />
      <path
         d="M 266.461 173.521 L 252.794 179.021 C 246.405 168.91 258.795 165.522 266.461 173.521 z "
         id="path21" />
      <path
         d="M 262.128 169.021 L 253.961 163.354 C 257.795 155.243 263.35 158.577 262.128 169.021 z "
         id="path22" />
      <path
         d="M 275.961 159.854 L 266.294 159.855 C 268.405 149.355 277.017 153.799 275.961 159.854 z "
         id="path23" />
      <ellipse
         cx="285.544403"
         cy="158.021072"
         rx="3.416667"
         ry="2.666667"
         id="ellipse24" />
    </g>
    <g
       style="fill:#ffffff;"
       id="g66">
      <path
         d="M 317.044 180.021 L 313.544 185.021 C 321.877 190.271 318.211 196.021 322.044 194.021 C 325.211 191.104 321.877 183.938 317.044 180.021 z "
         id="path35" />
      <path
         d="M 315.044 205.771 C 317.544 195.771 322.544 192.021 326.044 199.771 C 324.877 210.604 319.961 210.438 317.794 202.771 L 315.044 205.771 z "
         id="path36" />
      <ellipse
         cx="318.419403"
         cy="215.896072"
         rx="3.625000"
         ry="5.125000"
         id="ellipse37" />
      <ellipse
         cx="302.044403"
         cy="230.146072"
         rx="2.250000"
         ry="2.375000"
         id="ellipse38" />
      <path
         d="M 305.794 222.521 C 309.127 221.854 311.211 222.188 312.794 223.771 C 311.461 227.021 310.127 228.021 306.794 230.021 C 307.711 225.771 306.627 224.521 305.794 222.521 z "
         id="path39" />
      <path
         d="M 295.544 227.271 L 288.044 228.271 C 288.627 234.938 297.461 234.021 295.544 227.271 z "
         id="path40" />
      <path
         d="M 280.544 229.271 L 273.794 233.521 C 268.961 234.104 268.627 227.438 273.294 227.771 L 280.544 229.271 z "
         id="path41" />
      <path
         d="M 258.544 221.521 L 262.544 223.271 C 265.294 240.104 243.377 221.688 258.544 221.521 z "
         id="path42" />
      <path
         d="M 242.794 220.521 L 250.294 220.521 C 252.127 216.771 248.461 215.021 249.044 210.271 C 243.961 211.438 242.877 214.604 242.794 220.521 z "
         id="path43" />
      <path
         d="M 252.044 195.271 L 254.294 201.021 L 247.544 204.521 L 245.794 199.021 L 252.044 195.271 z "
         id="path44" />
    </g>
    <g
       style="fill:#ffffff;"
       id="g87">
      <path
         d="M 232.044 250.396 C 233.961 247.646 235.377 246.146 237.794 244.396 C 247.877 243.979 236.211 227.313 233.544 239.396 C 231.794 242.563 231.794 247.229 232.044 250.396 z "
         id="path77" />
      <ellipse
         cx="243.044418"
         cy="258.271088"
         rx="4.000000"
         ry="3.375000"
         id="ellipse78" />
      <ellipse
         cx="308.794403"
         cy="266.146088"
         rx="6.500000"
         ry="4.250000"
         id="ellipse79" />
      <path
         d="M 256.294 259.646 L 249.044 262.646 C 253.294 269.313 258.461 263.729 256.294 259.646 z "
         id="path81" />
      <ellipse
         cx="329.169403"
         cy="218.521072"
         rx="2.125000"
         ry="1.625000"
         id="ellipse82" />
      <path
         d="M 275.544 269.146 C 273.211 268.229 270.877 266.563 273.294 264.646 C 259.627 259.146 260.377 274.729 275.544 269.146 z "
         id="path83" />
      <path
         d="M 283.044 263.646 L 286.044 266.146 L 286.044 271.146 C 289.711 268.479 292.377 266.563 297.044 266.896 C 293.211 262.729 288.377 263.563 283.044 263.646 z "
         id="path84" />
      <path
         d="M 319.544 256.646 C 318.461 257.813 320.377 264.229 326.794 261.646 C 331.211 260.813 334.377 244.229 327.544 249.896 L 327.044 251.896 C 322.544 251.729 319.544 253.313 319.544 256.646 z "
         id="path85" />
      <path
         d="M 324.544 250.396 C 325.711 247.729 330.377 247.813 333.544 249.396 C 332.711 245.813 333.127 243.979 336.544 242.146 C 332.377 231.646 336.961 228.396 328.044 222.146 C 328.377 229.646 324.711 234.396 324.544 250.396 z "
         id="path86" />
    </g>
    <g
       style="fill:#ffffff;"
       id="g103">
      <path
         d="M 333.294 263.646 C 328.627 260.646 339.711 247.396 340.294 256.146 C 344.877 256.979 351.211 255.313 355.544 253.396 C 363.711 257.479 361.877 265.313 356.044 260.396 C 353.294 265.813 350.294 264.979 346.294 259.396 C 342.211 264.063 337.877 265.229 333.294 263.646 z "
         id="path97" />
      <ellipse
         cx="363.669403"
         cy="254.146072"
         rx="3.625000"
         ry="2.500000"
         id="ellipse98" />
      <ellipse
         cx="380.294403"
         cy="218.896072"
         rx="2.000000"
         ry="1.500000"
         id="ellipse99" />
      <path
         d="M 375.294 227.646 L 373.044 228.896 L 370.544 232.146 L 370.294 234.396 L 373.044 233.646 L 375.044 230.396 L 375.294 227.646 z "
         id="path100" />
      <ellipse
         cx="373.419403"
         cy="241.271072"
         rx="2.625000"
         ry="1.875000"
         id="ellipse101" />
      <ellipse
         cx="368.169403"
         cy="247.146072"
         rx="2.375000"
         ry="1.750000"
         id="ellipse102" />
    </g>
    <path
       d="M 191.86 449.896 L 193.924 449.896 C 195.268 449.896 196.072 449.764 196.792 449.404 C 198.16 448.732 198.964 447.268 198.964 445.48 C 198.964 443.8 198.268 442.408 197.032 441.664 C 196.336 441.244 195.28 441.028 193.888 441.028 L 191.86 441.028 L 191.86 449.896 z M 193.504 448.324 L 193.504 442.6 L 193.828 442.6 C 194.872 442.6 195.436 442.696 195.952 442.96 C 196.792 443.392 197.308 444.34 197.308 445.48 C 197.308 446.548 196.816 447.496 196.024 447.928 C 195.532 448.204 194.848 448.324 193.864 448.324 L 193.504 448.324 z M 204.484 440.872 C 201.844 440.872 199.804 442.876 199.804 445.468 C 199.804 448.024 201.868 450.052 204.472 450.052 C 207.052 450.052 209.044 448.048 209.044 445.456 C 209.044 442.924 207.016 440.872 204.484 440.872 z M 204.46 442.456 C 206.104 442.456 207.388 443.776 207.388 445.48 C 207.388 447.184 206.14 448.468 204.46 448.468 C 202.78 448.468 201.46 447.148 201.46 445.468 C 201.46 443.752 202.756 442.456 204.46 442.456 z M 210.34 449.896 L 211.984 449.896 L 211.984 443.452 L 215.692 449.896 L 217.528 449.896 L 217.528 441.028 L 215.884 441.028 L 215.884 447.484 L 212.212 441.028 L 210.34 441.028 L 210.34 449.896 z M 220.132 449.896 L 221.776 449.896 L 221.776 442.6 L 223.42 442.6 L 223.42 441.028 L 218.488 441.028 L 218.488 442.6 L 220.132 442.6 L 220.132 449.896 z M 228.532 449.896 L 230.176 449.896 L 230.176 442.6 L 231.82 442.6 L 231.82 441.028 L 226.888 441.028 L 226.888 442.6 L 228.532 442.6 L 228.532 449.896 z M 232.66 449.896 L 234.304 449.896 L 234.304 446.5 L 236.632 449.896 L 238.66 449.896 L 236.26 446.62 C 236.944 446.452 237.28 446.296 237.664 445.972 C 238.264 445.456 238.576 444.748 238.576 443.872 C 238.576 442.972 238.252 442.204 237.64 441.688 C 237.064 441.196 236.428 441.028 235.216 441.028 L 232.66 441.028 L 232.66 449.896 z M 234.304 445.264 L 234.304 442.6 L 235.036 442.6 C 235.804 442.6 236.224 442.684 236.488 442.912 C 236.776 443.14 236.92 443.488 236.92 443.92 C 236.92 444.856 236.38 445.264 235.108 445.264 L 234.304 445.264 z M 239.62 449.896 L 244.384 449.896 L 244.384 448.324 L 241.264 448.324 L 241.264 446.26 L 244.252 446.26 L 244.252 444.688 L 241.264 444.688 L 241.264 442.6 L 244.384 442.6 L 244.384 441.028 L 239.62 441.028 L 239.62 449.896 z M 245.128 449.896 L 246.94 449.896 L 247.924 447.604 L 251.08 447.604 L 252.028 449.896 L 253.84 449.896 L 250.12 441.028 L 248.824 441.028 L 245.128 449.896 z M 248.524 446.032 L 249.472 443.344 L 250.42 446.032 L 248.524 446.032 z M 254.74 449.896 L 256.804 449.896 C 258.148 449.896 258.952 449.764 259.672 449.404 C 261.04 448.732 261.844 447.268 261.844 445.48 C 261.844 443.8 261.148 442.408 259.912 441.664 C 259.216 441.244 258.16 441.028 256.768 441.028 L 254.74 441.028 L 254.74 449.896 z M 256.384 448.324 L 256.384 442.6 L 256.708 442.6 C 257.752 442.6 258.316 442.696 258.832 442.96 C 259.672 443.392 260.188 444.34 260.188 445.48 C 260.188 446.548 259.696 447.496 258.904 447.928 C 258.412 448.204 257.728 448.324 256.744 448.324 L 256.384 448.324 z M 270.724 440.872 C 268.084 440.872 266.044 442.876 266.044 445.468 C 266.044 448.024 268.108 450.052 270.712 450.052 C 273.292 450.052 275.284 448.048 275.284 445.456 C 275.284 442.924 273.256 440.872 270.724 440.872 z M 270.7 442.456 C 272.344 442.456 273.628 443.776 273.628 445.48 C 273.628 447.184 272.38 448.468 270.7 448.468 C 269.02 448.468 267.7 447.148 267.7 445.468 C 267.7 443.752 268.996 442.456 270.7 442.456 z M 276.58 449.896 L 278.224 449.896 L 278.224 443.452 L 281.932 449.896 L 283.768 449.896 L 283.768 441.028 L 282.124 441.028 L 282.124 447.484 L 278.452 441.028 L 276.58 441.028 L 276.58 449.896 z M 288.82 449.896 L 290.464 449.896 L 290.464 443.248 L 292.78 449.896 L 294.124 449.896 L 296.44 443.248 L 296.44 449.896 L 298.084 449.896 L 298.084 441.028 L 295.828 441.028 L 293.464 447.748 L 291.076 441.028 L 288.82 441.028 L 288.82 449.896 z M 299.62 449.896 L 304.384 449.896 L 304.384 448.324 L 301.264 448.324 L 301.264 446.26 L 304.252 446.26 L 304.252 444.688 L 301.264 444.688 L 301.264 442.6 L 304.384 442.6 L 304.384 441.028 L 299.62 441.028 L 299.62 449.896 z "
       transform="matrix(3.00496,0,0,2.72783,-458.306,-867.55)"
       style="font-weight:bold;font-family:URW Gothic L;"
       id="path65" />
    <g
       style="fill:#ffffff;"
       id="g147">
      <path
         d="M 258.179 126.187 C 255.179 118.687 264.429 121.187 275.429 116.187 L 270.429 119.187 L 276.679 119.687 L 274.679 118.437 L 277.179 116.687 C 288.262 115.687 290.346 121.937 302.179 124.187 C 318.346 133.354 322.012 157.27 317.679 169.687 C 316.512 171.27 312.346 171.104 310.929 169.937 C 316.012 168.604 314.096 165.77 314.429 159.937 C 305.096 178.687 286.012 188.937 272.929 180.937 C 257.346 180.354 260.512 154.77 285.679 164.437 C 264.179 161.687 259.429 182.687 281.679 180.187 C 319.512 172.187 308.846 133.687 295.429 132.187 L 273.179 131.937 C 268.179 129.77 267.929 126.104 258.179 126.187 z "
         id="path15" />
      <path
         d="M 309.304 190.812 C 310.554 188.312 314.304 187.812 316.054 191.562 C 318.887 209.062 309.971 220.562 299.804 223.812 C 292.887 228.812 277.221 227.312 269.304 223.812 C 263.304 220.479 256.304 222.895 254.304 213.812 C 250.887 207.479 253.221 200.645 256.804 197.062 L 263.554 199.062 C 261.137 205.895 261.221 212.979 263.804 218.812 C 267.304 220.979 295.054 220.895 299.054 218.562 C 309.221 210.812 311.387 209.812 309.304 190.812 z "
         id="path16" />
      <path
         d="M 253.304 238.312 C 244.304 240.562 235.054 250.062 248.054 253.312 C 251.971 254.979 255.387 257.145 256.054 261.312 C 269.804 263.562 287.304 265.312 304.054 262.062 C 316.554 251.729 323.804 252.145 321.304 230.312 C 315.804 230.229 315.054 238.895 316.054 245.812 C 298.054 261.812 278.054 260.812 258.304 254.812 C 250.887 250.312 251.471 243.062 253.304 238.312 z "
         id="path17" />
    </g>
  </g>
</svg>
