<?xml version="1.0" encoding="UTF-8" standalone="no"?>
<!DOCTYPE svg PUBLIC "-//W3C//DTD SVG 20010904//EN"
"http://www.w3.org/TR/2001/REC-SVG-20010904/DTD/svg10.dtd">
<!-- Created with Sodipodi ("http://www.sodipodi.com/") -->
<svg
   version="1.0"
   x="0"
   y="0"
   width="744.094482"
   height="1052.36218"
   id="svg559"
   sodipodi:version="0.33"
   sodipodi:docname="/home/rvb/doc/art/kettensaegenhase/hase-color.svg"
   sodipodi:docbase="/home/rvb/doc/art/kettensaegenhase/"
   xmlns="http://www.w3.org/2000/svg"
   xmlns:sodipodi="http://sodipodi.sourceforge.net/DTD/sodipodi-0.dtd"
   xmlns:xlink="http://www.w3.org/1999/xlink">
  <sodipodi:namedview
     id="base" />
  <defs
     id="defs561">
    <linearGradient
       id="linearGradient650">
      <stop
         style="stop-color:#ffffff;stop-opacity:1.0000;"
         offset="0"
         id="stop651" />
      <stop
         style="stop-color:#cccccc;stop-opacity:1.0000;"
         offset="1"
         id="stop652" />
    </linearGradient>
    <linearGradient
       id="linearGradient1072">
      <stop
         style="stop-color:#ffffff;stop-opacity:0.4275;"
         offset="0"
         id="stop1073" />
      <stop
         style="stop-color:#4c3300;stop-opacity:0;"
         offset="1"
         id="stop1074" />
    </linearGradient>
    <linearGradient
       id="linearGradient597">
      <stop
         style="stop-color:#ff6f6d;stop-opacity:1.0000;"
         offset="0"
         id="stop598" />
      <stop
         style="stop-color:#000000;stop-opacity:1.0000;"
         offset="1"
         id="stop599" />
    </linearGradient>
    <linearGradient
       id="linearGradient593">
      <stop
         style="stop-color:#4c4c4c;stop-opacity:1.0000;"
         offset="0"
         id="stop594" />
      <stop
         style="stop-color:#000000;stop-opacity:1.0000;"
         offset="1"
         id="stop595" />
    </linearGradient>
    <linearGradient
       id="linearGradient699">
      <stop
         style="stop-color:#ffffff;stop-opacity:1.0000;"
         offset="0"
         id="stop700" />
      <stop
         style="stop-color:#000000;stop-opacity:0;"
         offset="1"
         id="stop701" />
    </linearGradient>
    <linearGradient
       id="linearGradient702"
       xlink:href="#linearGradient593"
       x1="0.625430"
       y1="-9.013637e-8"
       x2="0.367698"
       y2="0.992187"
       spreadMethod="pad" />
    <radialGradient
       id="radialGradient703"
       xlink:href="#linearGradient699"
       cx="0.500003"
       cy="0.499997"
       r="0.500000"
       fx="0.500003"
       fy="0.499997"
       gradientTransform="translate(2.944723e-6,-2.740611e-6)" />
    <defs
       id="defs562" />
    <sodipodi:namedview
       id="namedview586" />
    <linearGradient
       xlink:href="#linearGradient650"
       id="linearGradient596"
       x1="1.166819e-2"
       y1="0.367607"
       x2="-0.206896"
       y2="0.179689" />
    <linearGradient
       xlink:href="#linearGradient650"
       id="linearGradient607"
       x1="1.435010e-2"
       y1="3.767918e-2"
       x2="0.944888"
       y2="0.653694"
       gradientTransform="matrix(1.009834,0,0,0.990262,-2.587281e-7,-1.631960e-6)" />
    <linearGradient
       xlink:href="#linearGradient597"
       id="linearGradient608"
       x1="582.4147"
       y1="478.3217"
       x2="623.6204"
       y2="489.0149" />
    <radialGradient
       xlink:href="#linearGradient1072"
       id="radialGradient609"
       cx="0.515319"
       cy="0.499682"
       r="0.263384"
       fx="0.515319"
       fy="0.499682"
       gradientTransform="translate(-5.693546e-7,-1.011179e-6)" />
    <radialGradient
       xlink:href="#linearGradient650"
       id="radialGradient610" />
    <radialGradient
       xlink:href="#linearGradient650"
       id="radialGradient648" />
    <radialGradient
       xlink:href="#linearGradient650"
       id="radialGradient649" />
  </defs>
  <path
     style="font-size:12.000;fill:#745100;fill-rule:evenodd;stroke:#523d00;stroke-width:2.719442;stroke-linecap:round;stroke-linejoin:round;"
     d="M 428.1177 471.1389 C 438.1692 472.0569 446.0093 474.7501 449.2049 478.5393 C 460.8887 492.9580 474.7462 497.0159 478.0076 498.9459 C 480.2527 481.9211 470.7974 471.9567 467.2863 468.6494 C 492.2056 469.8715 496.3730 466.7247 515.5322 449.1732 C 499.9754 449.7021 495.7021 451.6502 484.8998 444.8451 C 491.9045 437.4507 504.2491 434.7805 514.7664 433.3036 C 485.2608 408.7614 441.7438 429.0333 442.7872 422.5836 C 454.6068 404.2869 454.1967 344.1595 440.7043 296.9524 C 438.7198 292.0217 450.1855 286.7707 453.1785 283.9513 C 592.4080 183.2596 619.3315 52.67280 537.4171 19.93958 C 458.5531 -6.280849 477.1623 227.2837 401.4426 259.9136 C 401.4426 259.9136 401.4426 259.9136 288.6328 271.9791 C 285.5443 271.9573 274.6999 264.1541 272.2172 261.3626 C 183.0622 184.8937 193.4292 38.67392 113.5550 60.76927 C 39.54528 85.28828 128.5195 248.1446 265.5319 296.4482 C 277.7443 299.4447 240.0739 336.5839 254.2075 430.7114 C 256.2337 447.1380 197.5852 401.3630 179.3431 443.4023 C 205.1724 443.4058 209.0344 455.1169 207.6217 463.2122 C 202.3628 477.0106 191.6097 476.5252 182.4061 475.8628 C 203.5506 498.6379 219.9688 490.2265 224.8695 486.8225 C 225.9388 500.1262 213.9061 508.8706 209.2095 509.7660 C 235.0809 511.7580 248.0803 512.4225 273.1154 484.8213 C 273.6044 488.8479 268.5012 495.8920 259.5908 501.5421 C 111.6267 592.3279 138.3978 845.0031 187.6221 841.8734 C 194.5108 840.8174 197.4320 838.3141 202.0856 833.6866 C 211.1178 821.1547 216.2178 812.3086 199.8357 781.9003 C 178.7609 741.6746 215.8306 652.0016 248.4123 594.1850 C 207.6233 671.9617 204.3206 817.2387 261.9892 884.8987 C 269.7073 896.8968 238.8404 912.5233 233.2224 915.5998 C 168.9756 944.2714 169.7890 955.5144 169.7890 970.8339 C 170.2298 991.6799 237.2782 984.2952 243.3718 980.1692 C 247.2043 977.6511 274.8487 954.9937 337.2531 935.8266 C 366.8103 926.3981 362.7258 915.9289 353.3229 900.8188 C 347.4076 887.2769 359.8414 884.4097 366.8709 884.0968 C 377.1726 884.5143 383.9034 889.2417 380.8095 900.0480 C 373.6074 917.7421 368.7608 926.1047 392.2286 930.3807 C 447.3951 937.5384 481.0734 948.6798 485.2643 950.6072 C 510.9078 958.8574 550.7313 942.6519 550.3891 935.8266 C 549.1243 907.6047 495.0600 903.5205 491.1847 902.3748 C 451.1626 892.6306 453.6084 882.4255 456.7030 875.9431 C 474.1006 846.4330 521.8180 753.4782 471.8461 599.1708 "
     id="path680"
     sodipodi:nodetypes="cccccccccccccccccccccccccccccccccccccccccc" />
  <path
     style="font-size:12.000;fill:#b3b3b3;fill-rule:evenodd;stroke:none;stroke-width:0;fill-opacity:1.0000;stroke-dasharray:none;stroke-opacity:1.0000;"
     d="M 509.2083 949.2346 C 507.6935 932.1853 486.3738 924.7592 485.2444 924.9157 C 491.6175 931.0172 500.3770 934.3042 509.2083 949.2346 z "
     id="path626" />
  <path
     style="font-size:12.000;fill:#ffffff;fill-rule:evenodd;stroke:none;stroke-width:0;fill-opacity:0.6683;stroke-dasharray:none;stroke-opacity:1.0000;"
     d="M 509.1054 948.0366 C 499.9739 930.1779 489.3075 927.0862 488.9397 927.3039 C 499.4802 935.0997 503.0205 940.0887 509.1054 948.0366 z "
     id="path661" />
  <path
     style="font-size:12.000;fill:#b3b3b3;fill-rule:evenodd;stroke:none;stroke-width:0;fill-opacity:1.0000;stroke-dasharray:none;stroke-opacity:1.0000;"
     d="M 525.4551 945.6701 C 523.9404 928.6208 502.6207 921.1946 501.4913 921.3511 C 509.1290 927.4528 515.6062 930.6027 525.4551 945.6701 z "
     id="path627" />
  <path
     style="font-size:12.000;fill:#b3b3b3;fill-rule:evenodd;stroke:none;stroke-width:0;fill-opacity:1.0000;stroke-dasharray:none;stroke-opacity:1.0000;"
     d="M 539.1681 939.7748 C 537.6533 922.7255 516.3336 915.2993 515.2043 915.4558 C 521.5773 921.1360 530.2133 924.6971 539.1681 939.7748 z "
     id="path628" />
  <path
     style="font-size:12.000;fill-opacity:0.144200;fill-rule:evenodd;stroke-width:1;"
     d="M 454.5553 881.1659 C 519.0767 775.9328 491.7637 654.1297 470.4735 598.9015 C 467.3116 604.1715 472.2127 615.7916 472.8583 636.1991 C 473.5038 656.6066 474.1096 689.1743 473.3192 716.1033 C 472.5287 743.0323 470.7359 780.5133 466.2444 808.5499 C 461.3041 836.7571 435.3581 884.0970 426.3705 891.4715 C 401.1816 911.2132 432.2469 905.4058 471.5344 926.0279 C 494.3902 937.6548 512.9159 943.0706 546.8579 926.7230 C 526.9378 895.7362 464.8461 912.2611 454.5553 881.1659 z "
     id="path1065"
     sodipodi:nodetypes="cccccsscc" />
  <path
     style="font-size:12.000;fill:#ffffff;fill-rule:evenodd;stroke:#4b3700;stroke-width:1.631665;"
     d="M 322.3325 383.3224 C 358.5489 382.8743 357.6033 295.4128 330.7563 303.2530 C 261.8936 321.1396 246.6679 384.1184 322.3325 383.3224 z "
     id="path618" />
  <path
     style="font-size:12.000;fill:#ffffff;fill-rule:evenodd;stroke:#4b3700;stroke-width:1.631665;"
     d="M 387.9261 384.4855 C 351.7097 384.0375 358.1358 301.2293 379.5022 304.4164 C 437.4037 322.3029 467.3850 384.5061 387.9261 384.4855 z "
     id="path617" />
  <path
     style="font-size:12.000;fill:#000000;fill-rule:evenodd;stroke:none;stroke-width:0;fill-opacity:0.1827;stroke-dasharray:none;stroke-opacity:1.0000;"
     d="M 431.6689 370.9991 C 428.9690 335.1376 406.2209 319.0384 374.1363 305.9069 C 385.3784 297.2960 452.2826 337.2812 431.6689 370.9991 z "
     id="path1069"
     sodipodi:nodetypes="ccc" />
  <path
     style="font-size:12.000;fill:#262626;fill-rule:evenodd;stroke:none;stroke-width:0;fill-opacity:1.0000;stroke-dasharray:none;stroke-opacity:1.0000;"
     d="M 337.8931 360.3708 C 337.8931 370.5254 329.3992 378.7576 318.9215 378.7576 C 308.4438 378.7576 299.9500 370.5254 299.9500 360.3708 C 299.9500 350.2160 308.6960 344.2690 318.9215 341.9842 C 329.8209 339.4546 337.8931 350.2160 337.8931 360.3708 z "
     id="path616"
     sodipodi:nodetypes="cccsc" />
  <path
     style="font-size:12.000;fill:#262626;fill-rule:evenodd;stroke:none;stroke-width:0;fill-opacity:1.0000;stroke-dasharray:none;stroke-opacity:1.0000;"
     d="M 410.8278 361.9011 C 410.8278 371.8230 402.2397 379.8661 391.6456 379.8661 C 381.0514 379.8661 372.4633 371.8230 372.4633 361.9011 C 372.4633 351.9793 378.9435 340.9849 391.6456 343.9360 C 401.9817 346.2603 410.8278 351.9793 410.8278 361.9011 z "
     id="path613"
     sodipodi:nodetypes="cccsc" />
  <path
     style="font-size:12.000;fill-rule:evenodd;stroke:none;stroke-width:0;stroke-opacity:1.0000;stroke-dasharray:none;fill:#8f372f;fill-opacity:1.0000;"
     d="M 489.5898 761.0953 C 490.5090 769.1078 489.5752 782.5879 499.7073 784.7643 C 650.7264 822.0424 713.7370 802.3737 731.2556 750.5129 C 755.8810 680.0133 726.4898 665.3625 551.1896 643.1346 C 544.2930 642.2602 532.7206 650.9932 527.3915 656.3679 C 483.9456 696.9722 483.5074 704.8349 489.5898 761.0953 z "
     id="path587"
     sodipodi:nodetypes="ccssss" />
  <path
     style="font-size:12.000;fill:#ff0000;fill-rule:evenodd;stroke:none;stroke-width:0;stroke-opacity:1.0000;stroke-dasharray:none;fill-opacity:1.0000;"
     d="M 536.0081 655.9744 C 518.4037 669.0068 492.4803 706.0210 492.3067 726.8068 C 492.3698 737.1048 491.6769 749.4000 498.0278 773.5521 C 499.8163 776.3096 500.9392 779.6404 511.8130 781.7775 C 620.6890 802.7520 703.4484 814.2107 727.6442 742.9687 C 747.0873 684.4291 712.2475 669.2937 568.0171 648.9562 C 546.5615 646.0503 547.4481 647.7421 536.0081 655.9744 z "
     id="path588"
     sodipodi:nodetypes="csccccc" />
  <path
     style="font-size:12.000;fill:#000000;fill-rule:evenodd;stroke:none;stroke-width:0;stroke-opacity:1.0000;stroke-dasharray:none;fill-opacity:0.1971;"
     d="M 497.6890 773.2795 C 500.1100 776.9184 500.2686 779.4167 511.8130 781.7775 C 620.6890 802.7520 703.4484 814.2107 727.6442 742.9687 C 623.7450 797.1139 579.3944 780.3723 497.6890 773.2795 z "
     id="path600"
     sodipodi:nodetypes="cccc" />
  <path
     style="font-size:12.000;fill:#ffffff;fill-rule:evenodd;stroke:none;stroke-width:0;stroke-opacity:1.0000;stroke-dasharray:none;fill-opacity:0.4904;"
     d="M 543.5063 650.5267 C 513.3053 670.8999 512.2776 688.1170 500.1071 702.6789 C 494.9548 708.8433 492.1113 712.4334 492.1827 726.7569 C 492.3687 749.1960 493.6993 756.3164 497.9786 773.3986 C 497.9786 773.3986 520.1053 750.1373 533.8295 730.8276 C 544.0908 716.2845 553.7026 701.9651 555.9389 698.1389 C 556.1091 684.6980 553.2579 672.2078 543.5063 650.5267 z "
     id="path605"
     sodipodi:nodetypes="csscscc" />
  <path
     style="font-size:12.000;fill:#ffffff;fill-rule:evenodd;stroke:none;stroke-width:0;stroke-opacity:1.0000;stroke-dasharray:none;fill-opacity:0.3894;"
     d="M 543.4809 650.4323 C 546.5825 657.9344 556.4692 677.4739 555.9326 698.1638 C 589.8589 709.7065 677.9846 726.8297 731.0979 730.3670 C 739.9561 684.7993 709.9926 668.5431 567.7008 649.2724 C 555.9419 647.2097 550.9157 646.5030 543.4809 650.4323 z "
     id="path601"
     sodipodi:nodetypes="ccccc" />
  <path
     style="font-size:12.000;fill:#ffffff;fill-rule:evenodd;stroke:none;stroke-width:0;stroke-opacity:1.0000;stroke-dasharray:none;fill-opacity:0.2308;"
     d="M 530.3012 674.3435 C 539.7798 664.6941 540.6497 663.0496 547.0726 658.4078 C 590.3381 652.5417 722.5134 671.6330 721.3205 706.9089 C 703.8023 682.2598 590.9962 668.4149 549.4165 665.2380 C 544.1716 666.9486 543.4877 666.5471 530.3012 674.3435 z "
     id="path606"
     sodipodi:nodetypes="ccccc" />
  <path
     style="font-size:12.000;fill-rule:evenodd;stroke-width:0;stroke:none;stroke-opacity:1.0000;stroke-dasharray:none;fill:#7f342f;fill-opacity:1.0000;"
     d="M 685.3186 770.9513 C 686.6145 777.5185 681.7644 781.3594 669.5454 784.7306 C 657.3262 788.1019 647.6348 787.1972 646.3388 780.6301 C 645.0428 774.0625 650.1034 769.5896 662.3227 766.2183 C 674.5419 762.8469 684.0226 764.3839 685.3186 770.9513 z "
     id="path590"
     sodipodi:nodetypes="ccccc" />
  <path
     style="font-size:12.000;fill:#ffe6cd;fill-rule:evenodd;stroke:#584200;stroke-width:2.103035;"
     d="M 277.1479 617.0294 C 290.1665 609.8247 286.9644 568.4721 323.3409 550.0273 C 325.1775 558.7981 335.1341 561.0452 336.4524 569.0785 C 341.9522 563.8686 345.8721 556.2313 350.9959 549.5864 C 352.8909 560.2750 364.0175 571.2089 366.8670 577.1585 C 373.6120 572.7039 373.4979 558.7863 373.9814 549.6585 C 386.1896 555.1870 387.7771 557.1508 390.5163 567.6123 C 400.9509 566.8011 403.7875 558.8707 403.7324 551.7193 C 466.1481 646.6005 442.5276 738.0285 441.3314 784.3663 C 438.2666 774.5661 434.0415 763.0530 428.1326 757.3221 C 426.7643 764.1509 443.9251 823.4292 424.7417 834.6037 C 417.9400 833.2573 416.3049 826.3405 412.2443 820.4844 C 408.1475 829.3723 401.7220 830.1212 397.6629 836.0082 C 396.8545 830.8078 391.1933 827.8537 389.8469 824.9419 C 385.9611 828.3638 381.2157 827.4498 378.6510 834.3985 C 378.1350 829.0968 375.9791 816.5501 372.2176 812.4096 C 371.0057 818.5762 364.5541 823.9108 360.8526 827.4207 C 358.8175 820.5081 358.4600 816.3519 352.3292 811.1585 C 345.0366 816.5064 349.0953 833.9116 340.7957 837.3411 C 337.5036 831.4019 337.0149 828.4342 329.8500 824.2371 C 326.4991 836.2757 317.0411 840.2285 314.4739 842.2629 C 312.0637 837.5086 310.3046 832.3702 309.9617 826.7391 C 300.6883 832.4566 303.1560 835.9808 298.5970 839.2483 C 284.5606 822.8257 281.9169 764.3191 289.1653 724.7748 C 285.7729 726.2190 276.1518 754.3113 274.8017 768.6373 C 268.7934 761.0597 274.4642 698.1293 269.2066 677.0323 C 266.6861 684.2263 264.0194 714.5324 256.7591 718.2825 C 263.2683 704.9734 248.0778 647.7498 282.4812 587.7707 C 281.0790 592.9308 279.6769 611.7590 277.1479 617.0294 z "
     id="path622" />
  <path
     style="font-size:12.000;fill:#000000;fill-rule:evenodd;stroke:none;stroke-width:0;fill-opacity:0.1202;stroke-dasharray:none;stroke-opacity:1.0000;"
     d="M 427.2894 758.5868 C 425.9210 765.4156 444.7684 811.2032 424.7417 834.6037 C 417.9400 833.2573 416.3049 826.3405 412.2443 820.4844 C 408.1475 829.3723 401.7220 830.1212 397.6629 836.0082 C 396.8545 830.8078 391.1933 827.8537 389.8469 824.9419 C 385.9611 828.3638 381.2157 827.4498 378.6510 834.3985 C 378.1350 829.0968 375.9791 816.5501 372.2176 812.4096 C 371.0057 818.5762 364.5541 823.9108 360.8526 827.4207 C 358.8175 820.5081 358.4600 816.3519 352.3292 811.1585 C 345.0366 816.5064 349.0953 833.9116 340.7957 837.3411 C 337.5036 831.4019 337.0149 828.4342 329.8500 824.2371 C 326.4991 836.2757 317.0411 840.2285 314.4739 842.2629 C 312.0637 837.5086 310.3046 832.3702 309.9617 826.7391 C 300.6883 832.4566 303.1560 835.9808 298.5970 839.2483 C 286.2470 821.5608 288.2407 796.3600 285.3710 784.6404 C 281.9786 786.0845 292.9467 769.8446 297.1638 755.8691 C 303.1080 766.3562 305.6795 774.3139 307.4077 785.6441 C 315.5446 781.9926 317.8541 766.6993 322.5201 764.4556 C 323.3103 772.3475 330.5279 787.9104 331.4971 791.5250 C 334.4791 789.2892 335.1183 782.1963 334.5331 774.4034 C 338.7179 779.4292 343.4665 786.1400 346.3206 797.5009 C 355.1369 791.2733 353.1155 778.6659 358.6651 770.6922 C 362.7239 780.3068 369.2858 782.3329 370.5266 793.1501 C 372.9593 792.0429 373.3496 789.5912 374.9031 787.8660 C 377.6489 792.4009 375.8932 794.9787 384.4680 806.9116 C 386.7825 792.6110 391.0800 784.9828 394.6040 777.7498 C 396.3396 785.7209 402.6672 789.0196 404.2718 798.9579 C 410.0496 793.6930 410.3805 775.9128 411.2382 769.6780 C 414.9489 778.8687 420.4215 783.0568 422.2153 788.1887 C 422.5182 780.7998 426.4528 770.6416 427.2894 758.5868 z "
     id="path644"
     sodipodi:nodetypes="cccccccccccccccccccccccccccccc" />
  <path
     style="font-size:12.000;fill:#5c5c5c;fill-rule:evenodd;stroke-width:0;stroke:none;stroke-opacity:1.0000;stroke-dasharray:none;fill-opacity:1.0000;"
     d="M 681.7829 771.9876 C 682.7141 775.6262 676.3505 780.0899 667.5692 781.9576 C 658.7880 783.8254 650.9143 782.3900 649.9830 778.7514 C 649.0516 775.1129 655.4153 770.6492 664.1966 768.7815 C 672.9778 766.9136 680.8515 768.3491 681.7829 771.9876 z "
     id="path589" />
  <path
     style="font-size:12.000;fill:#232427;fill-rule:evenodd;stroke-width:0;stroke:none;stroke-opacity:1.0000;stroke-dasharray:none;fill-opacity:0.3029;"
     d="M 682.0808 769.6027 C 684.2047 775.3280 676.3506 780.0899 667.5692 781.9576 C 658.7880 783.8254 650.0201 784.1787 648.7907 776.6647 C 653.2251 777.7958 656.9057 777.5057 665.6869 775.6380 C 674.4682 773.7701 678.1683 772.5227 682.0808 769.6027 z "
     id="path653"
     sodipodi:nodetypes="ccccc" />
  <path
     style="fill:#000000;fill-rule:evenodd;stroke:none;stroke-opacity:1;stroke-width:1pt;stroke-linejoin:miter;stroke-linecap:butt;fill-opacity:0.1442;"
     d="M 234.1116 597.7092 C 233.6891 603.4511 145.8301 758.7572 208.8908 821.0761 C 211.4204 809.4824 206.3157 797.4067 195.4131 770.9880 C 185.0936 744.5356 205.8229 688.7765 214.5719 661.8475 C 222.3784 636.0628 237.2735 602.9790 234.1116 597.7092 z "
     id="path654"
     sodipodi:nodetypes="ccssc" />
  <path
     style="font-size:12.000;fill-rule:evenodd;stroke:none;stroke-width:0;stroke-opacity:1.0000;stroke-dasharray:none;fill:#484648;fill-opacity:1.0000;"
     d="M 656.3013 778.9354 C 659.2577 785.1947 664.2851 795.9844 647.5946 800.5516 C 618.4674 808.5797 627.6500 823.8489 629.7240 828.7954 C 631.5250 833.0904 638.8852 842.5095 659.7163 834.4821 C 680.5476 826.4554 711.4021 814.2116 711.4021 814.2116 C 711.4021 814.2116 728.3031 806.3167 721.7007 792.5475 C 715.0978 778.7781 702.9480 784.3142 697.1553 786.5843 C 687.4590 790.7369 678.2078 772.7138 678.2078 772.7138 C 676.7173 769.7328 672.1061 769.3163 664.3288 771.1870 C 656.5514 773.0577 655.6693 777.8950 656.3013 778.9354 z "
     id="path602"
     sodipodi:nodetypes="csscssscss" />
  <path
     style="font-size:12.000;fill:#939292;fill-rule:evenodd;stroke:none;stroke-width:0;stroke-opacity:1.0000;stroke-dasharray:none;fill-opacity:1.0000;"
     d="M 661.4202 783.1448 C 664.3769 789.4041 664.6737 799.1371 652.2109 802.7406 C 623.8598 810.0871 630.8207 822.2199 632.8948 827.1664 C 634.6962 831.4611 640.1498 837.9867 660.9813 829.9593 C 681.8124 821.9326 698.4337 815.1350 704.2476 812.7934 C 708.8466 811.2390 724.8404 804.3484 718.8282 793.5654 C 712.9267 783.1876 707.4378 787.0350 697.4324 789.5439 C 686.4562 792.4068 678.5060 781.6569 677.3136 778.9739 C 675.8230 775.9928 673.0004 772.2973 665.2231 774.1680 C 657.4458 776.0387 660.7881 782.1047 661.4202 783.1448 z "
     id="path603"
     sodipodi:nodetypes="ccscssscss" />
  <path
     style="font-size:12.000;fill-rule:evenodd;stroke:#000000;stroke-width:8.810989;stroke-linecap:round;"
     d="M 499.2426 741.9771 C 513.7506 724.6868 525.8737 706.8001 536.5063 686.5286 "
     id="path655"
     sodipodi:nodetypes="cc" />
  <path
     style="font-size:12.000;fill-rule:evenodd;stroke:none;stroke-width:0;stroke-opacity:0.1635;stroke-dasharray:none;fill:url(#linearGradient702);fill-opacity:1.0000;"
     d="M 534.3335 688.2283 L 517.4929 649.6040 L 491.0555 664.6138 L 481.0313 639.3795 L 452.9724 653.4276 L 445.3504 630.0563 L 417.2913 644.1046 L 408.2289 617.2485 L 378.3672 632.8580 L 371.8277 606.1831 L 338.6622 620.7101 L 325.5154 591.8704 L 291.3881 608.0191 L 277.5209 577.4369 L 247.4781 595.5694 L 238.5967 566.1905 L 203.6889 581.4380 L 185.7977 548.0310 L 159.0585 567.2459 L 137.8031 533.5977 L 106.3158 560.0799 L 75.68484 539.2844 L 69.74094 572.2546 L 35.28743 571.5257 L 53.95483 599.2091 L 36.69341 627.8600 L 67.72666 626.6292 L 77.87142 650.1818 L 109.9437 638.4168 L 126.9482 661.3112 L 159.0917 649.2469 L 166.7739 671.7770 L 196.4548 658.6908 L 209.1226 682.4240 L 232.9163 668.9150 L 244.0228 690.8458 L 267.6959 679.0189 L 274.6576 699.8067 L 297.4896 687.9196 L 304.5719 707.0254 L 324.8811 694.9571 L 331.2432 712.3207 L 349.7494 701.8135 L 356.9527 719.2374 L 375.5190 707.8895 L 381.8211 726.0939 L 400.3273 715.5871 L 408.3714 733.0710 L 427.7185 722.6246 L 433.3605 738.2457 L 452.5870 729.4811 L 459.0096 746.0034 L 480.8798 735.7380 L 484.5982 754.6025 L 504.3331 732.2464 L 534.3335 688.2283 z "
     id="path599"
     sodipodi:nodetypes="cccccccccccccccccccccccccccccccccccccccccccccccccccccccc" />
  <path
     style="font-size:12.000;fill:#b8b9bb;fill-rule:evenodd;stroke:none;stroke-width:0;stroke-opacity:1.0000;stroke-dasharray:none;fill-opacity:1.0000;"
     d="M 534.6632 688.4581 L 148.8126 573.7092 C 139.9487 571.2925 85.67426 553.4913 66.06702 589.2831 C 54.43723 609.6695 69.80476 618.8329 79.77053 621.4512 L 504.7877 733.1176 C 516.5348 719.7216 526.7915 705.1333 534.6632 688.4581 z "
     id="path598"
     sodipodi:nodetypes="ccsscc" />
  <path
     style="font-size:12.000;fill:#745100;fill-rule:evenodd;stroke:#523d00;stroke-width:2.719442;stroke-linecap:round;stroke-linejoin:round;"
     d="M 425.8139 471.1774 C 586.1960 600.3250 624.9403 654.7188 628.0119 669.6164 C 629.8450 680.3577 631.4807 740.7916 601.7146 738.2005 C 571.9762 733.9984 584.9561 688.5195 584.8611 680.4914 C 584.4840 646.1719 502.5871 605.5016 470.6538 599.4691 "
     id="path637"
     sodipodi:nodetypes="ccccc" />
  <path
     style="fill:#000000;fill-rule:evenodd;stroke:none;stroke-opacity:1;stroke-width:1pt;stroke-linejoin:miter;stroke-linecap:butt;fill-opacity:0.1442;"
     d="M 425.7853 471.5813 C 452.4506 494.1364 558.9721 574.3864 610.1644 641.6663 C 637.5282 662.4560 636.9483 739.1852 601.5876 737.6044 C 598.2147 726.4323 592.3271 715.7448 597.3586 687.5537 C 603.1148 654.8798 577.0449 633.3046 563.1176 614.5002 C 540.1112 584.0069 468.8874 522.9628 432.8285 496.6529 C 428.6820 493.6759 397.8819 503.1010 374.1595 496.1085 C 409.9449 493.1148 423.3611 474.8488 425.7853 471.5813 z "
     id="path651"
     sodipodi:nodetypes="cccssscc" />
  <path
     style="font-size:12.000;fill-rule:evenodd;stroke:none;stroke-width:0;stroke-opacity:1.0000;stroke-dasharray:none;fill:#484648;fill-opacity:1.0000;"
     d="M 630.7663 617.5885 C 682.9381 629.4254 660.4947 688.9903 650.7628 690.6730 C 642.5857 692.0516 638.8739 689.8596 634.6505 688.4402 C 625.5902 685.6123 645.9638 651.6903 626.2727 646.3940 C 576.4848 633.4375 589.0531 678.1880 575.7761 679.7126 C 570.8585 680.3028 561.5357 677.0658 559.3218 673.7691 C 551.3938 662.4156 570.2191 603.9278 630.7663 617.5885 z "
     id="path607"
     sodipodi:nodetypes="cssssss" />
  <path
     style="font-size:12.000;fill:#878787;fill-rule:evenodd;stroke:none;stroke-width:0;stroke-opacity:1.0000;stroke-dasharray:none;fill-opacity:1.0000;"
     d="M 630.6300 620.5697 C 677.3989 630.5134 655.9732 685.1613 651.0238 687.0449 C 646.7937 688.3976 642.3946 687.9937 637.5864 685.6559 C 630.7448 682.5346 651.6207 646.5398 624.3974 641.6003 C 573.3238 631.8996 588.4265 680.4299 571.1475 676.3312 C 567.4774 675.7565 565.0241 674.8429 561.8874 671.9344 C 556.7994 666.9323 567.8945 606.9351 630.6300 620.5697 z "
     id="path608"
     sodipodi:nodetypes="cssssss" />
  <path
     style="font-size:48.000;font-weight:normal;stroke-width:0;stroke:none;stroke-opacity:1.0000;fill:#0037ff;fill-opacity:0.3750;"
     d="M 193.4901 605.3238 L 227.1716 614.7031 C 227.9020 614.9066 228.7165 615.1456 229.6163 615.4206 C 230.6065 615.7215 231.4662 616.0603 232.1947 616.4369 C 232.9365 616.7923 233.5474 617.1859 234.0269 617.6171 C 234.5977 618.0742 234.7304 618.5453 234.4249 619.0311 L 232.8705 621.5027 L 258.0623 628.5181 L 260.8525 624.0821 C 261.3705 623.2581 261.3260 622.4765 260.7188 621.7360 C 260.1248 620.9751 259.0929 620.2284 257.6225 619.4962 C 256.2432 618.7894 254.5372 618.0909 252.5046 617.4009 C 250.5626 616.7358 248.5427 616.1113 246.4435 615.5269 L 194.8261 601.1532 L 192.3949 605.0187 L 193.4901 605.3238 z M 158.4156 629.8877 L 225.6403 648.6080 C 227.7396 649.1926 229.8264 649.7118 231.9010 650.1653 C 234.0661 650.6443 236.0116 650.9628 237.7361 651.1200 C 239.5652 651.2817 241.0890 651.2473 242.3069 651.0153 C 243.5388 650.7625 244.4134 650.2240 244.9316 649.4000 L 251.0890 639.6084 C 251.6071 638.7851 251.5623 638.0030 250.9549 637.2629 C 250.3612 636.5017 249.3290 635.7548 247.8589 635.0228 C 246.4928 634.2950 244.7935 633.5859 242.7608 632.8957 C 240.8190 632.2310 238.7986 631.6063 236.6993 631.0215 L 186.1776 616.9529 C 185.4473 616.7495 184.6325 616.5102 183.7335 616.2348 C 182.8338 615.9597 181.9675 615.6314 181.1344 615.2501 C 180.3926 614.8951 179.7820 614.5014 179.3024 614.0703 C 178.8362 613.6175 178.7494 613.1590 179.0416 612.6942 L 187.5702 599.1324 L 163.2210 591.2738 L 152.6336 607.6120 C 152.1157 608.4358 152.1539 609.2283 152.7471 609.9893 C 153.3550 610.7296 154.3411 611.4634 155.7067 612.1915 C 157.1773 612.9231 158.8834 613.6222 160.8245 614.2867 C 162.8576 614.9768 164.9242 615.6144 167.0237 616.1990 L 217.4080 630.2296 C 218.1382 630.4331 218.9531 630.6723 219.8524 630.9475 C 220.8429 631.2480 221.7097 631.5765 222.4514 631.9321 C 223.1929 632.2876 223.7971 632.6914 224.2635 633.1438 C 224.8342 633.6007 224.9734 634.0616 224.6812 634.5266 L 220.9550 640.4518 C 220.6626 640.9166 220.0653 641.1846 219.1620 641.2559 C 218.3640 641.3312 217.5139 641.3182 216.6130 641.2164 C 215.7120 641.1142 214.7522 640.9340 213.7347 640.6754 C 212.8091 640.4423 211.9807 640.2242 211.2510 640.0209 L 177.5695 630.6415 C 176.8393 630.4385 176.0248 630.1993 175.1252 629.9237 C 174.2258 629.6485 173.3596 629.3207 172.5262 628.9395 C 171.7846 628.5839 171.1741 628.1904 170.6943 627.7591 C 170.2280 627.3065 170.1414 626.8479 170.4341 626.3833 L 171.9883 623.9118 L 146.7956 616.8963 L 144.0261 621.3009 C 143.5081 622.1246 143.5453 622.9173 144.1394 623.6782 C 144.7468 624.4183 145.7330 625.1520 147.0988 625.8801 C 148.5692 626.6122 150.2751 627.3106 152.2165 627.9753 C 154.2498 628.6660 156.3160 629.3031 158.4156 629.8877 z M 320.6452 670.4840 L 286.9641 661.1050 L 284.5133 665.0026 L 335.0346 679.0712 C 337.1342 679.6559 339.2211 680.1748 341.2952 680.6286 C 343.4613 681.1076 345.4065 681.4259 347.1308 681.5831 C 348.9595 681.7450 350.4832 681.7102 351.7022 681.4786 C 352.9330 681.2258 353.8084 680.6872 354.3264 679.8634 L 356.7371 676.0292 L 331.5454 669.0144 L 330.3497 670.9150 C 330.0576 671.3798 329.4595 671.6478 328.5569 671.7192 C 327.7587 671.7949 326.9089 671.7817 326.0073 671.6797 C 325.1057 671.5773 324.1471 671.3974 323.1294 671.1388 C 322.2041 670.9058 321.3755 670.6874 320.6452 670.4840 z M 370.2074 654.6085 C 370.7126 653.8062 370.6676 653.0239 370.0738 652.2629 C 369.4796 651.5018 368.4475 650.7551 366.9768 650.0225 C 365.5984 649.3162 363.8923 648.6175 361.8590 647.9276 C 359.9177 647.2626 357.8969 646.6380 355.7974 646.0531 L 305.2760 631.9844 L 302.8454 635.8505 L 336.5262 645.2295 C 337.2563 645.4328 338.0715 645.6721 338.9708 645.9474 C 339.9614 646.2482 340.8211 646.5867 341.5500 646.9636 C 342.2915 647.3190 342.9024 647.7125 343.3819 648.1438 C 343.9528 648.6007 344.0854 649.0724 343.7801 649.5580 L 342.5642 651.4908 L 367.7568 658.5062 L 370.2074 654.6085 z M 250.9696 655.6612 L 276.1620 662.6768 L 296.9241 629.6592 L 271.7321 622.6431 L 250.9696 655.6612 z M 430.0402 700.9476 L 396.3593 691.5683 L 393.9083 695.4657 L 444.4293 709.5346 C 446.5288 710.1193 448.6155 710.6382 450.6902 711.0917 C 452.8562 711.5706 454.8010 711.8891 456.5255 712.0465 C 458.3543 712.2082 459.8781 712.1734 461.0964 711.9416 C 462.3280 711.6890 463.2023 711.1504 463.7204 710.3265 L 466.1317 706.4923 L 440.9394 699.4773 L 439.7439 701.3785 C 439.4517 701.8434 438.8541 702.1109 437.9512 702.1824 C 437.1526 702.2580 436.3031 702.2449 435.4023 702.1428 C 434.5009 702.0405 433.5412 701.8605 432.5246 701.6021 C 431.5981 701.3687 430.7705 701.1511 430.0402 700.9476 z M 479.6019 685.0718 C 480.1070 684.2692 480.0622 683.4871 479.4679 682.7260 C 478.8743 681.9651 477.8414 681.2180 476.3721 680.4861 C 474.9929 679.7796 473.2871 679.0810 471.2542 678.3906 C 469.3121 677.7256 467.2918 677.1012 465.1920 676.5166 L 414.6711 662.4480 L 412.2406 666.3136 L 445.9210 675.6929 C 446.6509 675.8959 447.4659 676.1354 448.3654 676.4107 C 449.3560 676.7114 450.2158 677.0503 450.9442 677.4268 C 451.6859 677.7820 452.2965 678.1756 452.7762 678.6071 C 453.3470 679.0640 453.4799 679.5353 453.1738 680.0210 L 451.9587 681.9539 L 477.1508 688.9693 L 479.6019 685.0718 z M 360.3642 686.1247 L 385.5560 693.1403 L 406.3188 660.1222 L 381.1270 653.1067 L 360.3642 686.1247 z "
     id="path596"
     sodipodi:nodetypes="ccccccccccccccccccccccccccccccccccccccccccccccccccccccccccccccccccccccccccccccccccccccccccccccccccccccccccccccccccccccccccccccccccc" />
  <path
     style="font-size:12.000;fill:#ffffff;fill-rule:evenodd;stroke:none;stroke-width:0;stroke-opacity:1.0000;stroke-dasharray:none;fill-opacity:0.3510;"
     d="M 520.1184 693.0954 C 460.9884 668.4051 296.4835 626.6640 184.5152 593.9729 C 152.7925 584.7108 88.85811 576.2352 104.2227 582.4128 C 170.7920 609.1784 319.8665 646.1157 427.7874 677.6252 C 463.5575 688.0689 537.8633 700.5050 520.1184 693.0954 z "
     id="path615"
     sodipodi:nodetypes="cssss" />
  <path
     style="font-size:12.000;fill:#ffffff;fill-rule:evenodd;stroke:none;stroke-width:0;stroke-opacity:1.0000;stroke-dasharray:none;fill-opacity:0.3029;"
     d="M 631.6529 625.1079 C 654.9302 632.5530 655.2457 646.3416 646.2041 638.0471 C 640.8765 633.4014 637.3200 629.9459 628.3715 628.0826 C 579.3925 617.4631 574.0507 656.5091 569.1102 655.9595 C 562.4898 655.2808 583.4047 610.0978 631.6529 625.1079 z "
     id="path612"
     sodipodi:nodetypes="cssss" />
  <path
     style="font-size:12.000;fill:#000000;fill-rule:evenodd;stroke:none;stroke-width:0;stroke-opacity:1.0000;stroke-dasharray:none;fill-opacity:0.3077;"
     d="M 632.8948 827.1664 C 634.6959 831.4611 640.1498 837.9867 660.9813 829.9593 C 681.8124 821.9326 698.4337 815.1350 704.2476 812.7934 C 708.8466 811.2390 728.7157 804.0503 716.7414 789.9881 C 720.0811 804.6515 644.2356 835.9329 632.8948 827.1664 z "
     id="path614"
     sodipodi:nodetypes="ccscc" />
  <path
     style="font-size:12.000;fill:#ffffff;fill-rule:evenodd;stroke:none;stroke-width:0;fill-opacity:0.4663;stroke-dasharray:none;stroke-opacity:1.0000;"
     d="M 425.5546 306.1418 C 433.3054 310.0173 440.1053 319.9659 441.4129 328.5709 C 442.8608 337.5023 433.7247 336.7593 433.8755 328.9566 C 433.9764 323.3413 430.9161 315.9127 425.5546 306.1418 z "
     id="path604" />
  <path
     style="font-size:12.000;fill:#ffa271;fill-rule:evenodd;stroke:#583d00;stroke-width:2.719442;stroke-linejoin:round;"
     d="M 257.4157 273.1709 C 193.6531 273.2164 60.13791 111.8955 118.3073 83.64098 C 167.9899 56.17457 194.7427 219.1361 257.4157 273.1709 z "
     id="path620" />
  <path
     style="font-size:12.000;fill:#ffa271;fill-rule:evenodd;stroke:#583d00;stroke-width:2.719442;stroke-linejoin:round;"
     d="M 442.9074 255.4815 C 466.8013 231.4955 492.0520 20.62243 532.9616 37.92080 C 617.7601 71.46136 521.9329 236.7008 442.9074 255.4815 z "
     id="path621" />
  <path
     style="font-size:12.000;fill:#b3b3b3;fill-rule:evenodd;stroke:none;stroke-width:0;fill-opacity:1.0000;stroke-dasharray:none;stroke-opacity:1.0000;"
     d="M 181.2151 974.6054 C 176.4454 954.1658 195.9342 948.8697 197.0635 949.0262 C 184.4902 959.2166 183.6115 965.1180 181.2151 974.6054 z "
     id="path623" />
  <path
     style="font-size:12.000;fill:#b3b3b3;fill-rule:evenodd;stroke:none;stroke-width:0;fill-opacity:1.0000;stroke-dasharray:none;stroke-opacity:1.0000;"
     d="M 199.1326 977.3197 C 196.1546 959.0129 214.8002 951.2931 215.9295 951.4496 C 207.0781 960.4732 202.2744 967.7363 199.1326 977.3197 z "
     id="path624" />
  <path
     style="font-size:12.000;fill:#b3b3b3;fill-rule:evenodd;stroke:none;stroke-width:0;fill-opacity:1.0000;stroke-dasharray:none;stroke-opacity:1.0000;"
     d="M 223.9009 979.7434 C 220.9230 961.4366 239.5685 953.7168 240.6979 953.8733 C 232.1188 962.4857 226.7446 969.8757 223.9009 979.7434 z "
     id="path625" />
  <path
     style="font-size:12.000;fill:#ffe6cc;fill-rule:evenodd;stroke:#584200;stroke-width:1.559146;stroke-linejoin:round;"
     d="M 431.1032 442.2276 C 455.2709 436.4836 468.2483 412.0102 506.3447 431.8608 C 473.4681 436.2365 491.5006 447.5247 431.1032 442.2276 z "
     id="path629" />
  <path
     style="font-size:12.000;fill:#ffe6cc;fill-rule:evenodd;stroke:#584200;stroke-width:1.559146;stroke-linejoin:round;"
     d="M 453.0373 458.0231 C 465.6292 454.4307 471.0975 445.0080 483.4095 449.3950 C 488.9723 450.9273 487.1649 455.7457 507.2734 452.2160 C 504.9031 454.4489 482.3832 476.5596 453.0373 458.0231 z "
     id="path630" />
  <path
     style="font-size:12.000;fill:#ffe6cc;fill-rule:evenodd;stroke:#584200;stroke-width:1.559146;stroke-linejoin:round;"
     d="M 441.1433 455.9582 C 453.1738 467.1667 458.4476 468.9746 463.9767 471.5255 C 469.1816 473.8490 473.6693 480.6113 475.0244 493.9790 C 468.4143 491.5867 452.1976 485.0574 441.1433 455.9582 z "
     id="path631" />
  <path
     style="font-size:12.000;fill:#ffe6cc;fill-rule:evenodd;stroke:#584200;stroke-width:1.559146;stroke-linejoin:round;"
     d="M 220.3792 507.1505 C 224.5587 504.3384 229.1026 497.4790 229.1834 491.5198 C 230.3071 471.6801 253.3612 467.0628 252.1721 459.4940 C 270.1106 478.0397 260.8877 506.1746 220.3792 507.1505 z "
     id="path632" />
  <path
     style="font-size:12.000;fill:#ffe6cc;fill-rule:evenodd;stroke:#584200;stroke-width:1.559146;stroke-linejoin:round;"
     d="M 191.9192 479.7859 C 208.3256 477.3157 209.2771 472.1348 217.0005 461.5729 C 224.4001 452.9533 241.7846 456.4548 247.8958 455.8213 C 234.9997 464.4977 221.4732 501.6762 191.9192 479.7859 z "
     id="path633" />
  <path
     style="font-size:12.000;fill:#ffe6cc;fill-rule:evenodd;stroke:#584200;stroke-width:1.559146;stroke-linejoin:round;"
     d="M 255.0402 446.3565 C 222.3910 432.9134 205.8975 418.0200 186.1498 439.3455 C 208.3064 438.6475 204.3969 456.8008 230.4971 449.3671 C 235.4416 448.2069 238.8534 443.5957 255.0402 446.3565 z "
     id="path634" />
  <path
     style="font-size:12.000;fill:#4c0000;fill-rule:evenodd;stroke:none;stroke-width:0;fill-opacity:1.0000;stroke-dasharray:none;stroke-opacity:1.0000;"
     d="M 310.8941 456.7124 C 311.8909 460.6704 338.7746 448.7289 358.0714 448.2574 C 377.3680 447.7861 401.5372 460.7299 401.2571 456.2569 C 398.4436 445.1183 361.6699 452.0734 360.7444 430.1256 C 357.3468 409.0493 346.1756 419.8341 357.9607 440.9718 C 360.8608 447.3391 308.0141 444.5533 310.8941 456.7124 z "
     id="path635" />
  <path
     style="font-size:12.000;fill:#5c4200;fill-rule:evenodd;stroke:#3f2700;stroke-width:0.725184;stroke-linejoin:round;"
     d="M 355.7282 379.1234 C 331.4008 379.3019 332.3608 413.3823 354.5955 414.0167 C 375.0061 415.9087 375.8603 378.7564 355.7282 379.1234 z "
     id="path636" />
  <path
     style="font-size:12.000;fill:#000000;fill-rule:evenodd;stroke:none;stroke-width:2.6250;fill-opacity:0.0865;stroke-dasharray:none;stroke-opacity:1.0000;stroke-linejoin:round;"
     d="M 253.7236 272.2553 C 214.5281 265.5555 132.6760 199.8122 157.8184 181.3437 C 202.8381 149.3417 228.8614 251.9177 253.7236 272.2553 z "
     id="path638"
     sodipodi:nodetypes="csc" />
  <path
     style="font-size:12.000;fill:#000000;fill-rule:evenodd;stroke:none;stroke-width:2.6250;fill-opacity:0.0865;stroke-dasharray:none;stroke-opacity:1.0000;stroke-linejoin:round;"
     d="M 446.2801 252.9520 C 459.2127 234.8684 463.8908 132.3563 522.4224 144.1605 C 579.6537 156.1146 476.4014 250.6134 446.2801 252.9520 z "
     id="path639"
     sodipodi:nodetypes="csc" />
  <path
     transform="matrix(2.463560,0,0,2.769908,-532.7154,-326.0303)"
     style="font-size:12.000;fill:url(#radialGradient703);fill-rule:evenodd;stroke-width:1;"
     d="M 347.3590 245.6611 C 347.3590 247.6277 345.6021 249.2219 343.4348 249.2219 C 341.2676 249.2219 339.5107 247.6277 339.5107 245.6611 C 339.5107 243.6945 341.2676 242.1003 343.4348 242.1003 C 345.6021 242.1003 347.3590 243.6945 347.3590 245.6611 z "
     id="path693" />
  <path
     transform="matrix(2.682240,0,0,2.961878,-533.7720,-372.4407)"
     style="font-size:12.000;fill:url(#radialGradient703);fill-rule:evenodd;stroke-width:1;"
     d="M 347.3590 245.6611 C 347.3590 247.6277 345.6021 249.2219 343.4348 249.2219 C 341.2676 249.2219 339.5107 247.6277 339.5107 245.6611 C 339.5107 243.6945 341.2676 242.1003 343.4348 242.1003 C 345.6021 242.1003 347.3590 243.6945 347.3590 245.6611 z "
     id="path692" />
  <path
     style="fill:#000000;fill-rule:evenodd;stroke:none;stroke-opacity:1;stroke-width:1pt;stroke-linejoin:miter;stroke-linecap:butt;fill-opacity:0.1442;"
     d="M 351.6 890.2560 C 356.4357 868.0990 372.8450 852.4533 381.1714 890.1854 C 372.3140 885.4536 360.8089 886.3470 351.6 890.2560 z "
     id="path647"
     sodipodi:nodetypes="ccc" />
  <path
     style="fill:#000000;fill-rule:evenodd;stroke:none;stroke-opacity:1;stroke-width:1pt;stroke-linejoin:miter;stroke-linecap:butt;fill-opacity:0.1442;"
     d="M 376.8186 914.3377 C 382.0760 929.9127 412.6086 923.3311 426.2048 934.7140 C 416.7151 931.0363 366.8452 934.2484 376.8186 914.3377 z "
     id="path648"
     sodipodi:nodetypes="ccc" />
  <path
     style="fill:#000000;fill-rule:evenodd;stroke:none;stroke-opacity:1;stroke-width:1pt;stroke-linejoin:miter;stroke-linecap:butt;fill-opacity:0.1442;"
     d="M 351.1917 888.7803 C 359.8469 924.1702 292.6359 905.5731 241.5185 980.1945 C 353.4542 910.7489 372.9696 956.1198 351.1917 888.7803 z "
     id="path649"
     sodipodi:nodetypes="ccc" />
  <path
     style="font-size:12.000;fill:#ffffff;fill-rule:evenodd;stroke:none;stroke-width:0;stroke-opacity:1.0000;stroke-dasharray:none;fill-opacity:0.3029;"
     d="M 662.8148 798.8214 C 663.0641 800.6844 687.4886 792.0200 686.4882 790.8913 C 682.8223 787.1459 662.1711 794.6554 662.8148 798.8214 z "
     id="path652"
     sodipodi:nodetypes="css" />
  <path
     style="font-size:12.000;fill:#000000;fill-rule:evenodd;stroke:none;stroke-width:0;fill-opacity:0.2885;stroke-dasharray:none;stroke-opacity:1.0000;"
     d="M 494.2558 430.1735 C 489.4733 428.2215 487.0179 426.4631 481.7554 424.2257 C 487.9810 425.0447 494.1337 425.4722 506.3447 431.8608 C 490.2359 434.1391 486.8772 437.5441 480.2564 440.1368 C 485.7562 435.7735 485.6810 433.3564 494.2558 430.1735 z "
     id="path656"
     sodipodi:nodetypes="ccccc" />
  <path
     style="font-size:12.000;fill:#000000;fill-rule:evenodd;stroke:none;stroke-width:0;fill-opacity:0.2885;stroke-dasharray:none;stroke-opacity:1.0000;"
     d="M 498.5119 455.8594 C 489.2926 462.8945 488.4847 461.1825 480.1676 464.8662 C 488.8333 463.8069 497.1288 461.4555 507.3925 452.2588 C 501.9689 452.9602 493.7651 454.8072 489.3448 452.9750 C 493.3624 456.2550 495.6362 455.8328 498.5119 455.8594 z "
     id="path1066"
     sodipodi:nodetypes="ccccc" />
  <path
     style="font-size:12.000;fill:#000000;fill-rule:evenodd;stroke:none;stroke-width:0;fill-opacity:0.2885;stroke-dasharray:none;stroke-opacity:1.0000;"
     d="M 470.9243 487.8943 C 470.7491 482.1335 469.0835 477.6182 464.7853 471.8101 C 469.7875 475.0530 473.6253 480.6960 475.1339 494.1306 C 470.7409 492.1741 460.7462 488.6906 452.8822 477.6568 C 463.9723 486.9145 464.0764 484.7869 470.9243 487.8943 z "
     id="path1067"
     sodipodi:nodetypes="ccccc" />
  <path
     style="fill:#000000;fill-rule:evenodd;stroke:none;stroke-opacity:1;stroke-width:1pt;stroke-linejoin:miter;stroke-linecap:butt;fill-opacity:0.1442;"
     d="M 408.8966 267.3790 C 430.3978 277.6577 436.5482 288.9312 440.9816 296.8888 C 453.4365 329.1818 455.1504 399.1035 442.3806 422.6743 C 446.4371 388.9507 445.5058 332.4734 433.1450 304.8930 C 427.8842 293.4085 425.2930 284.4954 408.8966 267.3790 z "
     id="path1068"
     sodipodi:nodetypes="cccsc" />
  <path
     style="font-size:12.000;fill:#000000;fill-rule:evenodd;stroke:none;stroke-width:0;fill-opacity:0.1779;stroke-dasharray:none;stroke-opacity:1.0000;"
     d="M 340.0393 372.9935 C 359.6029 344.9315 351.0688 293.3049 326.7513 304.5179 C 339.6768 309.1244 348.5055 340.1637 340.0393 372.9935 z "
     id="path1070"
     sodipodi:nodetypes="ccc" />
  <path
     style="font-size:12.000;fill:#000000;fill-rule:evenodd;stroke:none;stroke-width:0.6250;fill-opacity:0.0769;stroke-dasharray:none;stroke-opacity:1.0000;"
     d="M 367.6955 386.0541 C 369.1432 398.4419 367.4428 413.1330 349.0094 413.0683 C 364.6789 418.3245 375.3140 403.5505 367.6955 386.0541 z "
     id="path650"
     sodipodi:nodetypes="ccc" />
  <path
     style="font-size:12.000;fill:url(#radialGradient609);fill-rule:evenodd;stroke-width:1;"
     d="M 357.3728 385.5703 C 357.3728 393.4141 353.9801 400.2757 342.4683 399.6981 C 334.2434 399.3920 333.4521 397.2149 333.4521 389.3710 C 336.4333 380.1856 342.2860 377.4044 343.5863 376.8827 C 351.3313 374.0945 357.3728 377.7264 357.3728 385.5703 z "
     id="path677"
     sodipodi:nodetypes="cscsc" />
  <path
     style="font-size:12.000;fill:#000000;fill-rule:evenodd;stroke:none;stroke-width:0;fill-opacity:0.3077;stroke-dasharray:none;stroke-opacity:1.0000;"
     d="M 363.9070 448.4839 C 381.2206 449.8824 401.4805 460.3899 401.2571 456.2569 C 398.4436 445.1183 361.6699 452.0734 360.7444 430.1256 C 359.0465 436.9236 369.7081 446.6893 363.9070 448.4839 z "
     id="path658"
     sodipodi:nodetypes="cccc" />
  <path
     style="font-size:12.000;fill:#ffffff;fill-rule:evenodd;stroke:none;stroke-width:0;fill-opacity:0.6683;stroke-dasharray:none;stroke-opacity:1.0000;"
     d="M 180.6535 970.5130 C 180.6824 955.7762 190.2597 952.3869 190.7641 952.5224 C 183.8458 959.5599 182.7957 963.7682 180.6535 970.5130 z "
     id="path657" />
  <path
     style="font-size:12.000;fill:#ffffff;fill-rule:evenodd;stroke:none;stroke-width:0;fill-opacity:0.6683;stroke-dasharray:none;stroke-opacity:1.0000;"
     d="M 199.2717 974.7611 C 199.0795 960.0255 208.6050 956.4930 209.1115 956.6209 C 202.2995 963.7613 201.3125 967.9848 199.2717 974.7611 z "
     id="path659" />
  <path
     style="font-size:12.000;fill:#ffffff;fill-rule:evenodd;stroke:none;stroke-width:0;fill-opacity:0.6683;stroke-dasharray:none;stroke-opacity:1.0000;"
     d="M 223.8656 977.8913 C 223.6734 963.1556 233.1989 959.6232 233.7054 959.7511 C 226.8934 966.8915 225.9064 971.1150 223.8656 977.8913 z "
     id="path660" />
  <path
     style="font-size:12.000;fill:#ffffff;fill-rule:evenodd;stroke:none;stroke-width:0;fill-opacity:0.6683;stroke-dasharray:none;stroke-opacity:1.0000;"
     d="M 525.0543 944.0121 C 515.9227 926.1535 505.2563 923.0617 504.8884 923.2795 C 515.4290 931.0752 518.9694 936.0642 525.0543 944.0121 z "
     id="path662" />
  <path
     style="font-size:12.000;fill:#ffffff;fill-rule:evenodd;stroke:none;stroke-width:0;fill-opacity:0.6683;stroke-dasharray:none;stroke-opacity:1.0000;"
     d="M 539.2144 938.4970 C 530.0828 920.6384 519.4164 917.5467 519.0486 917.7645 C 529.5891 925.5602 533.1295 930.5492 539.2144 938.4970 z "
     id="path663" />
  <path
     style="font-size:12.000;fill:#000000;fill-rule:evenodd;stroke:none;stroke-width:0;fill-opacity:0.2885;stroke-dasharray:none;stroke-opacity:1.0000;"
     d="M 238.9223 442.0349 C 228.0273 437.0143 227.0268 435.5334 210.3288 428.7324 C 220.7506 429.4516 240.3363 440.4963 255.1325 446.4070 C 238.4344 443.4394 235.5405 448.6425 229.3639 449.6817 C 233.8664 447.6652 234.9196 443.2323 238.9223 442.0349 z "
     id="path664"
     sodipodi:nodetypes="ccccc" />
  <path
     style="font-size:12.000;fill:#000000;fill-rule:evenodd;stroke:none;stroke-width:0;fill-opacity:0.2885;stroke-dasharray:none;stroke-opacity:1.0000;"
     d="M 239.1218 459.0054 C 234.2465 457.4146 229.2327 456.5578 222.6373 457.6719 C 232.1042 453.9515 243.3081 456.6434 248.1188 455.6815 C 240.2635 461.7647 235.6135 470.3058 227.8767 477.7495 C 230.6623 473.9331 233.3744 464.2703 239.1218 459.0054 z "
     id="path666"
     sodipodi:nodetypes="ccccc" />
  <path
     style="font-size:12.000;fill:#000000;fill-rule:evenodd;stroke:none;stroke-width:0;fill-opacity:0.2885;stroke-dasharray:none;stroke-opacity:1.0000;"
     d="M 252.9823 467.9879 C 258.0030 478.8827 260.0410 481.0633 257.2558 491.5226 C 265.0348 478.8912 259.1457 466.8973 252.1018 459.1830 C 253.8230 464.3236 240.2917 470.1068 235.7399 476.3400 C 247.1610 469.6280 250.0545 471.8333 252.9823 467.9879 z "
     id="path667"
     sodipodi:nodetypes="ccccc" />
  <path
     id="path738"
     fill="none"
     stroke="black"
     stroke-width="1"
     d="M 584.0706 1028.346 C 584.0706 1028.346 584.0706 1028.621 584.0706 1028.621 C 584.0706 1028.621 583.7955 1028.346 583.7955 1028.346 C 583.7955 1028.346 584.0706 1028.346 584.0706 1028.346 z M 583.7955 1028.071 C 583.7955 1028.071 583.7955 1028.346 583.7955 1028.346 C 583.7955 1028.346 583.5205 1028.071 583.5205 1028.071 C 583.5205 1028.071 583.7955 1028.071 583.7955 1028.071 z M 583.5205 1026.696 C 583.5205 1026.696 583.5205 1028.071 583.5205 1028.071 C 583.5205 1028.071 583.5205 1026.696 583.5205 1026.696 z M 620.9267 1021.745 C 620.9267 1021.745 620.9267 1022.020 620.9267 1022.020 C 620.9267 1022.020 620.6517 1021.745 620.6517 1021.745 C 620.6517 1021.745 620.9267 1021.745 620.9267 1021.745 z M 666.8589 1019.545 C 666.8589 1019.545 666.8589 1019.820 666.8589 1019.820 C 666.8589 1019.820 666.5840 1019.545 666.5840 1019.545 C 666.5840 1019.545 666.8589 1019.545 666.8589 1019.545 z M 667.4091 1019.270 C 667.4091 1019.270 667.4091 1019.545 667.4091 1019.545 C 667.4091 1019.545 667.1341 1019.270 667.1341 1019.270 C 667.1341 1019.270 667.4091 1019.270 667.4091 1019.270 z M 473.5024 1017.894 C 472.7049 1017.667 472.9523 1016.794 472.9523 1015.694 C 472.9523 1014.594 473.0033 1013.792 473.5024 1012.669 C 474.1034 1011.316 475.1414 1009.782 476.8029 1009.643 C 478.4419 1009.506 479.6856 1010.172 480.1035 1011.843 C 480.2357 1012.372 480.2734 1012.709 480.1035 1013.219 C 479.7234 1014.359 477.6625 1015.753 476.8029 1016.244 C 475.7371 1016.853 474.6303 1018.217 473.5024 1017.894 z M 665.4837 1009.643 C 667.7243 1009.867 667.5923 1012.371 667.1341 1014.319 C 666.4920 1017.047 663.0037 1020.688 659.9827 1020.370 C 657.7777 1020.138 657.6710 1017.300 658.3325 1015.694 C 659.5964 1012.625 662.2236 1009.317 665.4837 1009.643 z M 630.5532 1009.093 C 631.6404 1008.948 633.3689 1008.984 634.4038 1009.643 C 636.3945 1010.910 635.7513 1014.576 634.6789 1016.244 C 633.2760 1018.427 630.0183 1019.628 627.5277 1020.095 C 625.6175 1020.453 623.8935 1020.478 622.0267 1019.545 C 621.1431 1019.103 620.3766 1018.444 620.3766 1017.344 C 620.3766 1016.519 621.2957 1015.221 621.7518 1014.594 C 623.4960 1012.196 627.5145 1009.498 630.5532 1009.093 z M 444.3476 1007.993 C 445.2870 1009.989 437.4665 1014.724 436.6464 1013.494 C 435.8163 1012.248 443.0867 1005.314 444.3476 1007.993 z M 521.3603 1017.344 C 521.9726 1017.222 522.7942 1021.127 523.8357 1022.020 C 524.7195 1022.778 527.1610 1023.549 528.2363 1023.395 C 529.0864 1023.274 529.5009 1022.692 530.1617 1022.295 C 532.2514 1021.041 534.0123 1020.095 535.1126 1017.619 C 535.1126 1017.619 535.6625 1017.619 535.6625 1017.619 C 535.9377 1018.169 535.9175 1018.466 536.2126 1018.720 C 537.8428 1020.117 541.2152 1020.288 543.0889 1019.820 C 544.5157 1019.463 544.7359 1018.740 546.3893 1018.995 C 548.3114 1019.290 549.1398 1020.645 550.7902 1021.470 C 552.9906 1022.570 555.1909 1022.295 557.6662 1022.295 C 559.5916 1022.295 560.7304 1022.549 561.7919 1024.496 C 562.3807 1025.575 563.4487 1028.317 564.8175 1028.621 C 565.9242 1028.867 566.7428 1028.071 566.1926 1026.696 C 566.1926 1026.696 564.8175 1024.496 564.8175 1024.496 C 563.1672 1021.745 562.6171 1019.820 559.0415 1019.820 C 556.8412 1019.820 554.3771 1020.067 552.4404 1019.270 C 549.7014 1018.142 550.2400 1016.519 546.3893 1016.519 C 546.3893 1016.519 543.6390 1016.519 543.6390 1016.519 C 542.8139 1016.794 542.2637 1017.344 541.1635 1017.344 C 540.6133 1017.344 540.3219 1017.468 539.7883 1017.344 C 536.7463 1016.642 537.8629 1013.494 538.4130 1011.293 C 538.6882 1010.193 538.9263 1008.650 537.5879 1008.268 C 537.0011 1008.100 536.7334 1008.217 536.2126 1008.543 C 534.5331 1009.593 535.4521 1011.585 535.1126 1012.944 C 534.9020 1013.786 533.9272 1014.799 533.4622 1015.419 C 532.2770 1016.999 529.5981 1020.809 527.1363 1020.645 C 525.4724 1020.534 524.5279 1018.488 524.1108 1017.069 C 523.1526 1013.812 524.3832 1008.464 528.5115 1008.268 C 530.1591 1008.189 531.9921 1009.947 531.8120 1011.568 C 531.7171 1012.423 530.7507 1013.908 532.0871 1014.319 C 534.3263 1015.008 534.6888 1011.256 534.2874 1009.918 C 533.8636 1008.505 532.3473 1006.651 530.9869 1006.068 C 530.4221 1005.826 529.6116 1005.793 529.0616 1005.793 C 527.9614 1005.793 526.8505 1005.756 525.7610 1006.068 C 524.9253 1006.306 524.2964 1007.443 523.8357 1007.443 C 523.4713 1007.443 523.5392 1006.475 523.0106 1006.343 C 521.3388 1005.925 521.0562 1009.086 520.8101 1010.193 C 519.9560 1014.037 518.9560 1016.688 516.6844 1020.095 C 516.2057 1020.813 515.0420 1022.870 514.2091 1023.120 C 512.2916 1023.696 512.0088 1020.370 512.0088 1019.270 C 512.0088 1019.270 510.3585 1008.543 510.3585 1008.543 C 510.3585 1007.443 510.0728 1005.554 508.9832 1005.243 C 508.1475 1005.004 507.3330 1005.518 507.3330 1006.343 C 507.3330 1006.343 507.8830 1010.468 507.8830 1010.468 C 507.8830 1010.468 509.2583 1019.270 509.2583 1019.270 C 509.5333 1020.645 509.4735 1022.603 510.0834 1023.670 C 511.6739 1026.454 514.5121 1026.726 516.6844 1024.771 C 517.2626 1024.250 518.1449 1022.915 518.6098 1022.295 C 519.7953 1020.715 520.5975 1017.497 521.3603 1017.344 z M 413.8177 998.6415 C 413.8177 998.6415 413.2675 1004.692 413.2675 1004.692 C 413.2675 1004.692 413.2675 1007.718 413.2675 1007.718 C 413.2675 1007.718 412.1673 1015.694 412.1673 1015.694 C 412.1673 1015.694 412.1673 1018.444 412.1673 1018.444 C 412.1673 1018.444 411.8923 1021.195 411.8923 1021.195 C 411.3421 1019.820 410.7921 1015.694 410.7921 1014.044 C 410.7921 1010.468 410.7921 1009.093 411.3421 1005.518 C 411.3421 1005.518 411.6173 1003.592 411.6173 1003.592 C 411.6173 1003.592 412.4424 1001.392 412.4424 1001.392 C 412.9925 1000.292 412.9925 999.7417 413.8177 998.6415 z M 439.3968 1025.321 C 441.0801 1025.321 444.3476 1024.771 445.9979 1023.670 C 445.9979 1023.670 448.1982 1022.295 448.1982 1022.295 C 449.0233 1022.020 449.5363 1022.453 450.1236 1022.570 C 450.9116 1022.728 451.7963 1022.456 452.5989 1022.295 C 454.5467 1021.906 455.9157 1020.139 457.5498 1019.545 C 458.9412 1019.039 458.9249 1020.095 461.1253 1020.095 C 463.0508 1020.095 464.7058 1019.101 466.6263 1018.995 C 469.6567 1018.826 471.3022 1020.645 473.5024 1022.020 C 473.5024 1022.020 477.0780 1023.945 477.0780 1023.945 C 478.4532 1024.496 482.8538 1024.220 484.7792 1024.220 C 485.8795 1024.220 488.2340 1023.901 488.6298 1022.845 C 489.0593 1021.700 488.0798 1021.195 487.2546 1021.195 C 487.2546 1021.195 484.7792 1021.745 484.7792 1021.745 C 484.7792 1021.745 479.2783 1021.745 479.2783 1021.745 C 478.1782 1021.470 475.0740 1020.714 475.4277 1020.095 C 476.1740 1018.789 481.1866 1016.509 482.3039 1014.594 C 483.1119 1013.209 482.5139 1010.233 481.7538 1009.093 C 481.4138 1008.583 480.3982 1007.671 479.8284 1007.443 C 479.0229 1007.120 477.6281 1007.168 476.8029 1007.168 C 476.2528 1007.168 475.4546 1007.233 474.8775 1007.443 C 472.4292 1008.333 470.4769 1011.843 470.4769 1014.319 C 470.4769 1014.319 470.4769 1017.069 470.4769 1017.069 C 468.8266 1016.244 466.3800 1016.421 464.7009 1016.794 C 463.9046 1016.971 461.9506 1017.344 461.4005 1017.344 C 460.3002 1017.344 459.1848 1015.926 456.7246 1016.794 C 454.5090 1017.576 452.0015 1020.872 450.9486 1019.820 C 449.8011 1018.672 452.5989 1014.869 452.5989 1012.118 C 452.5989 1011.293 452.8293 1009.764 451.7738 1009.368 C 450.6290 1008.939 449.8486 1010.193 449.5735 1011.018 C 449.5735 1011.018 448.4733 1015.419 448.4733 1015.419 C 448.4733 1016.794 448.8030 1017.389 447.9232 1018.444 C 446.0527 1020.689 443.2583 1022.358 440.4970 1022.845 C 438.5824 1023.183 436.7454 1022.258 436.0963 1020.095 C 435.9202 1019.508 435.8212 1018.444 435.8212 1017.894 C 435.8212 1015.419 437.1508 1016.417 439.3968 1015.419 C 442.1015 1014.217 443.0746 1013.582 445.1727 1011.293 C 446.1001 1010.282 447.0440 1009.375 446.8229 1007.718 C 446.4940 1005.250 444.3476 1004.968 442.4222 1004.968 C 441.8723 1004.968 441.0876 1005.081 440.4970 1005.243 C 438.0620 1005.907 435.8212 1009.368 434.7211 1011.568 C 434.7211 1011.568 433.6209 1013.494 433.6209 1013.494 C 432.5207 1014.869 431.2579 1014.548 430.8703 1015.969 C 430.4327 1017.574 433.0642 1016.295 433.3459 1017.069 C 434.1644 1019.320 432.7957 1021.470 435.5462 1024.220 C 435.5462 1024.220 429.4952 1025.046 429.4952 1025.046 C 427.0197 1025.321 424.3348 1025.456 422.0689 1024.220 C 421.3094 1023.806 420.2986 1023.148 420.1437 1022.295 C 419.7485 1020.122 422.6190 1015.694 423.7193 1013.769 C 423.7193 1013.769 425.6446 1009.643 425.6446 1009.643 C 428.9451 1004.142 432.8263 999.1923 433.0707 992.5905 C 433.1013 991.7661 433.0929 991.2076 432.7957 990.3901 C 430.8925 985.1566 423.4442 986.8145 419.8686 989.0149 C 419.8686 989.0149 416.0180 991.7654 416.0180 991.7654 C 415.4679 992.0405 414.7802 992.4530 414.3678 992.8656 C 413.9552 993.2781 413.8177 993.6908 413.2675 994.7908 C 413.2675 994.7908 411.0671 997.8165 411.0671 997.8165 C 411.0671 997.8165 409.1418 1002.767 409.1418 1002.767 C 408.8668 1003.592 408.3167 1008.268 408.3167 1009.368 C 408.3167 1009.368 408.3167 1014.319 408.3167 1014.319 C 408.3167 1014.319 409.6920 1025.596 409.6920 1025.596 C 409.9669 1026.971 410.5559 1030.135 411.8923 1030.547 C 414.1316 1031.236 413.8177 1028.071 413.8177 1026.971 C 413.8177 1026.971 414.6427 1019.545 414.6427 1019.545 C 414.6427 1019.545 414.6427 1016.519 414.6427 1016.519 C 414.6427 1016.519 415.7429 1008.268 415.7429 1008.268 C 415.7429 1008.268 415.7429 1005.518 415.7429 1005.518 C 415.7429 1005.518 416.2930 1001.117 416.2930 1001.117 C 416.2930 1000.017 416.3183 996.7241 416.5680 995.8911 C 417.1433 993.9735 420.8801 991.6016 422.6190 990.6652 C 424.4556 989.6762 427.6010 988.7064 429.4952 990.3901 C 430.0763 990.9068 430.2130 991.5035 430.3202 992.0405 C 430.7630 994.2541 428.9451 998.6415 427.8449 1000.567 C 427.8449 1000.567 423.4442 1007.993 423.4442 1007.993 C 423.4442 1007.993 420.4187 1014.044 420.4187 1014.044 C 419.0434 1017.069 417.6683 1018.169 417.6683 1021.745 C 417.6683 1022.295 417.7154 1023.376 417.9432 1023.945 C 418.2654 1024.751 419.2126 1025.723 420.1437 1026.421 C 423.6134 1029.023 428.3931 1027.463 432.5207 1027.246 C 433.6190 1027.188 437.8458 1026.856 438.5716 1026.421 C 439.2210 1026.031 438.8798 1025.321 439.3968 1025.321 z M 584.0706 1028.896 C 583.9653 1028.580 585.1897 1028.364 585.4459 1028.071 C 587.1151 1026.163 585.1709 1022.295 585.9958 1020.370 C 586.8211 1018.444 589.6016 1018.456 590.1215 1017.069 C 590.4269 1016.255 589.8465 1015.694 589.0213 1015.694 C 588.4714 1015.694 586.5460 1016.519 585.9958 1016.794 C 585.9958 1016.794 587.0961 1007.993 587.0961 1007.993 C 587.0961 1007.993 588.7464 996.9913 588.7464 996.9913 C 588.7464 996.9913 588.7464 993.9657 588.7464 993.9657 C 588.7464 993.9657 589.5714 988.7399 589.5714 988.7399 C 589.5714 987.9148 590.3966 987.0896 589.5714 986.5395 C 588.7464 985.9894 587.8680 986.2183 587.3711 986.8145 C 586.4928 987.8687 586.8211 989.5650 586.5460 990.6652 C 586.5460 990.6652 586.2709 996.7162 586.2709 996.7162 C 586.2709 996.7162 585.4459 1003.317 585.4459 1003.317 C 585.4459 1003.317 584.6208 1008.818 584.6208 1008.818 C 583.7955 1007.718 583.7955 1006.343 583.5205 1004.968 C 583.5205 1004.968 582.4202 1000.017 582.4202 1000.017 C 581.3202 996.7162 578.5697 992.5905 578.5697 989.5650 C 578.5697 985.7145 581.3639 985.0312 584.3456 984.0642 C 591.5405 981.7305 595.3474 982.1388 602.4986 982.1388 C 604.1489 982.1388 608.0769 982.6567 608.8247 984.3392 C 609.1771 985.1323 608.4986 986.7997 608.2745 987.6398 C 607.3983 990.9255 604.9741 993.4157 602.7737 995.8911 C 602.7737 995.8911 599.7482 999.4666 599.7482 999.4666 C 596.9976 1002.217 594.5913 1005.492 596.1725 1009.643 C 596.7917 1011.268 598.0978 1012.393 599.4731 1013.219 C 599.4731 1013.219 605.5240 1016.794 605.5240 1016.794 C 607.4494 1017.619 609.3151 1018.272 611.0250 1019.270 C 612.6156 1020.197 615.7824 1022.011 615.9758 1023.945 C 616.3325 1027.512 610.7694 1029.516 607.9995 1030.271 C 601.6931 1031.991 599.4770 1032.377 592.8721 1031.922 C 591.5007 1031.827 589.0490 1031.580 587.9212 1031.097 C 587.1237 1030.755 584.2403 1029.405 584.0706 1028.896 z M 618.4512 1023.945 C 618.8759 1023.804 620.4419 1026.037 621.4768 1026.696 C 623.4673 1027.963 625.6252 1028.473 628.0777 1028.896 C 633.6018 1029.849 638.7934 1027.819 642.6552 1025.321 C 643.4693 1024.794 643.5310 1026.925 644.3055 1027.796 C 645.7313 1029.400 648.1433 1030.253 650.0814 1028.896 C 650.8938 1028.328 651.4743 1027.532 652.0066 1026.696 C 653.3995 1024.507 655.0321 1022.020 655.3071 1019.270 C 655.3071 1019.270 656.4071 1021.470 656.4071 1021.470 C 655.8572 1021.745 655.4122 1021.810 655.0321 1022.570 C 654.8621 1022.910 654.7896 1023.367 655.0321 1023.670 C 655.8897 1024.742 658.3325 1023.395 659.4329 1023.395 C 659.4329 1023.395 663.2835 1023.120 663.2835 1023.120 C 663.2835 1023.120 668.5092 1022.020 668.5092 1022.020 C 668.5092 1022.020 672.3600 1022.020 672.3600 1022.020 C 672.3600 1022.020 675.9355 1021.470 675.9355 1021.470 C 681.1615 1021.470 680.3328 1025.159 685.0121 1025.321 C 688.3092 1025.434 690.7878 1024.220 693.5385 1024.220 C 694.3635 1024.220 696.1776 1024.458 696.5640 1023.395 C 697.2777 1021.432 693.8135 1021.745 692.7134 1021.745 C 692.7134 1021.745 685.2871 1022.845 685.2871 1022.845 C 683.0866 1022.570 681.9965 1020.058 679.2363 1019.270 C 678.1459 1018.958 674.8354 1018.995 673.7353 1019.270 C 673.7353 1019.270 671.2597 1019.545 671.2597 1019.545 C 671.2597 1019.545 667.4091 1019.270 667.4091 1019.270 C 668.2342 1018.444 668.5092 1017.894 669.0595 1016.794 C 670.1595 1014.594 670.5297 1010.105 668.7842 1008.268 C 665.3040 1004.604 658.8827 1008.543 657.5076 1012.393 C 657.5076 1012.393 657.5076 1011.293 657.5076 1011.293 C 657.5076 1010.468 657.4891 1009.691 656.6825 1009.368 C 654.7389 1008.591 654.6525 1012.083 654.2069 1013.494 C 653.0022 1017.308 652.9020 1020.981 650.3564 1024.220 C 649.8763 1024.831 648.9738 1026.605 648.1560 1026.696 C 646.4982 1026.880 644.9991 1024.272 644.5806 1023.120 C 643.8989 1021.246 643.2053 1017.344 643.2053 1015.419 C 643.2053 1015.419 643.2053 1011.843 643.2053 1011.843 C 643.4803 1011.293 643.6738 1010.223 643.4803 1009.643 C 643.1236 1008.573 641.3162 1008.829 641.0050 1009.918 C 640.7661 1010.754 640.7299 1014.869 640.7299 1015.969 C 640.7299 1017.894 642.5022 1021.501 641.8301 1022.845 C 641.1270 1024.251 639.3546 1025.046 636.3292 1026.146 C 636.3292 1026.146 632.4786 1026.971 632.4786 1026.971 C 631.6533 1026.971 630.8191 1026.805 630.0030 1026.696 C 626.6937 1026.255 622.5769 1025.321 620.9267 1022.020 C 620.9267 1022.020 624.5023 1022.845 624.5023 1022.845 C 625.3274 1022.845 625.8789 1022.616 626.7026 1022.570 C 630.8298 1022.341 636.1532 1020.401 637.7044 1015.969 C 638.0786 1014.900 637.9793 1013.494 637.9793 1012.393 C 637.9793 1011.568 638.0050 1010.734 637.7044 1009.918 C 636.0797 1005.509 630.3609 1006.286 626.7026 1007.718 C 624.0350 1008.762 620.8026 1011.395 619.2764 1013.769 C 618.3271 1015.245 617.6260 1015.419 617.6260 1017.344 C 617.6260 1017.344 617.6260 1021.195 617.6260 1021.195 C 617.0761 1020.645 616.2969 1019.491 615.7007 1018.995 C 614.6468 1018.116 609.9249 1015.694 608.2745 1014.869 C 608.2745 1014.869 606.0741 1014.044 606.0741 1014.044 C 606.0741 1014.044 603.8738 1012.669 603.8738 1012.669 C 601.9484 1011.568 599.1549 1010.483 598.3728 1008.268 C 597.5047 1005.808 599.4731 1003.592 600.8484 1001.942 C 600.8484 1001.942 603.8738 998.6415 603.8738 998.6415 C 607.1744 994.7908 609.9624 992.3234 611.0250 987.3646 C 611.6127 984.6222 612.1350 982.9496 609.3748 981.0386 C 608.5593 980.4740 607.9933 980.5117 606.8993 980.2135 C 604.9678 979.6867 605.5240 979.6635 603.3237 979.6635 C 599.4731 979.6635 592.3219 979.3883 588.7464 979.9385 C 588.7464 979.9385 584.0706 981.3137 584.0706 981.3137 C 581.3202 982.1388 577.2891 983.5501 576.3693 986.5395 C 576.1888 987.1257 576.0942 989.2900 576.0942 990.1151 C 576.0942 993.1406 577.8380 995.6819 578.8447 998.3666 C 580.3135 1002.283 581.3202 1006.618 581.8702 1010.743 C 581.8702 1010.743 582.9704 1018.720 582.9704 1018.720 C 582.6954 1019.545 581.7495 1020.325 581.3202 1021.470 C 580.9243 1022.526 580.7701 1024.220 580.7701 1025.321 C 580.7701 1026.146 580.7701 1028.071 581.0450 1028.896 C 581.5951 1030.547 585.4849 1032.928 587.0961 1033.572 C 588.2353 1034.028 588.7523 1034.016 589.8465 1034.122 C 597.2785 1034.841 601.1234 1034.947 608.2745 1033.022 C 608.2745 1033.022 611.0250 1032.197 611.0250 1032.197 C 613.2254 1031.372 616.4858 1029.422 617.6260 1027.521 C 618.1360 1026.671 618.0507 1024.079 618.4512 1023.945 z M 376.3296 1005.586 C 373.8270 1005.962 371.6209 1006.663 370.0036 1008.886 C 369.4206 1009.688 369.4536 1010.262 369.4536 1011.362 C 369.4536 1013.837 369.2418 1017.645 370.5537 1019.613 C 373.0923 1023.421 377.4208 1023.602 381.5555 1023.189 C 382.9217 1023.052 384.0465 1023.213 385.4062 1022.364 C 386.2468 1021.838 387.8655 1019.657 386.2313 1019.063 C 384.8398 1018.557 384.3313 1020.289 382.1056 1020.713 C 378.5554 1021.390 374.2914 1021.037 372.4790 1017.413 C 372.0909 1016.637 371.9290 1014.937 371.9290 1013.837 C 371.9290 1012.737 371.8187 1011.491 372.4790 1010.537 C 374.2941 1007.915 379.6640 1007.448 382.3807 1008.886 C 384.3398 1009.923 384.0481 1012.122 385.4062 1012.462 C 386.2484 1012.673 387.0565 1012.187 387.0565 1011.362 C 387.0565 1010.537 386.1789 1008.658 385.6812 1008.061 C 383.4283 1005.358 379.3279 1005.136 376.3296 1005.586 z M 388.7067 999.2601 C 392.1276 1001.921 391.8852 1004.508 392.5575 1009.437 C 392.7103 1010.559 393.2166 1011.646 393.1074 1012.737 C 392.9415 1014.396 392.0935 1015.526 391.4572 1016.863 C 389.3431 1021.302 384.5812 1027.039 379.0802 1027.039 C 374.6795 1027.039 369.4809 1024.534 366.1530 1021.539 C 363.9799 1019.583 362.8525 1016.038 362.8525 1013.012 C 362.8525 1013.012 362.8525 1011.362 362.8525 1011.362 C 362.8525 1006.136 366.6572 999.4167 371.6540 997.3347 C 373.2582 996.6663 374.6795 996.7846 376.3296 996.7846 C 377.7049 996.7846 381.5182 997.1752 382.9308 997.6099 C 385.0938 998.2755 387.1769 998.0702 388.7067 999.2601 z M 372.4790 994.5843 C 372.4790 994.5843 370.2787 995.1344 370.2787 995.1344 C 366.9782 996.7846 363.1276 1000.910 361.7523 1004.211 C 361.7523 1004.211 361.2022 1006.411 361.2022 1006.411 C 360.6520 1008.061 360.3770 1008.336 360.3770 1009.987 C 360.3770 1014.112 360.3968 1017.949 362.8525 1021.539 C 363.9724 1023.175 365.7100 1024.386 367.2533 1025.389 C 371.2109 1027.962 374.3952 1029.336 379.0802 1029.790 C 382.9216 1030.162 387.3315 1026.764 389.8069 1024.014 C 392.2822 1021.263 394.6316 1017.662 395.3078 1014.112 C 395.7317 1011.886 395.2956 1010.538 395.0328 1008.611 C 394.4704 1004.488 393.5696 1001.790 390.9071 998.1599 C 390.5441 997.6648 386.2313 995.6845 384.8561 995.4095 C 384.8561 995.4095 382.6558 994.8594 382.6558 994.8594 C 380.4553 994.3093 374.6795 994.0343 372.4790 994.5843 z "
     sodipodi:nodetypes="cssscssscsscssscssscssscssssssscsssscssssssscsscssssssssssssssssssssssssssssssssssssssssssssssssscsssssssssscsssssssssssssssssssssssssssssssssssssssssssssssssssssssssssssssssssssssssssssssscssssssssssssssssssssssssssssssssscssssssssssssssssssssssssssssssssssssssssssssssssssssssssssssssssssssssssssssssscssssssssssssssscssssssssssscssssssssssssss"
     style="font-size:12.000;stroke:none;stroke-width:0;fill:#000000;fill-opacity:1.0000;stroke-opacity:1.0000;stroke-dasharray:none;" />
  <path
     style="font-size:12.000;fill:#ffffff;fill-rule:evenodd;stroke:none;stroke-width:0;fill-opacity:0.2308;stroke-dasharray:none;stroke-opacity:1.0000;"
     d="M 516.1149 656.6722 C 505.8834 657.7808 500.3845 661.9154 497.0024 667.4149 C 504.3322 662.0941 508.6440 659.9786 516.1149 656.6722 z "
     id="path742"
     sodipodi:nodetypes="ccc" />
  <path
     style="font-size:12.000;fill:#ffffff;fill-rule:evenodd;stroke:none;stroke-width:0;fill-opacity:0.2308;stroke-dasharray:none;stroke-opacity:1.0000;"
     d="M 480.0598 645.2948 C 469.8283 646.4034 464.3293 650.5379 460.9473 656.0374 C 468.2769 650.7166 472.5889 648.6012 480.0598 645.2948 z "
     id="path743"
     sodipodi:nodetypes="ccc" />
  <path
     style="font-size:12.000;fill:#ffffff;fill-rule:evenodd;stroke:none;stroke-width:0;fill-opacity:0.2308;stroke-dasharray:none;stroke-opacity:1.0000;"
     d="M 443.6841 636.0005 C 433.4526 637.1092 427.9537 641.2437 424.5716 646.7432 C 431.9012 641.4224 436.2132 639.3069 443.6841 636.0005 z "
     id="path744"
     sodipodi:nodetypes="ccc" />
  <path
     style="font-size:12.000;fill:#ffffff;fill-rule:evenodd;stroke:none;stroke-width:0;fill-opacity:0.2308;stroke-dasharray:none;stroke-opacity:1.0000;"
     d="M 406.3469 623.3411 C 396.1154 624.4497 390.6166 628.5843 387.2344 634.0838 C 394.5642 628.7630 398.8760 626.6475 406.3469 623.3411 z "
     id="path745"
     sodipodi:nodetypes="ccc" />
  <path
     style="font-size:12.000;fill:#ffffff;fill-rule:evenodd;stroke:none;stroke-width:0;fill-opacity:0.2308;stroke-dasharray:none;stroke-opacity:1.0000;"
     d="M 369.0099 612.4443 C 358.7784 613.5530 353.2794 617.6876 349.8973 623.1871 C 357.2270 617.8662 361.5390 615.7507 369.0099 612.4443 z "
     id="path746"
     sodipodi:nodetypes="ccc" />
  <path
     style="font-size:12.000;fill:#ffffff;fill-rule:evenodd;stroke:none;stroke-width:0;fill-opacity:0.2308;stroke-dasharray:none;stroke-opacity:1.0000;"
     d="M 322.8593 598.1825 C 312.6277 599.2911 307.1288 603.4256 303.7467 608.9251 C 311.0764 603.6043 315.3884 601.4888 322.8593 598.1825 z "
     id="path747"
     sodipodi:nodetypes="ccc" />
  <path
     style="font-size:12.000;fill:#ffffff;fill-rule:evenodd;stroke:none;stroke-width:0;fill-opacity:0.2308;stroke-dasharray:none;stroke-opacity:1.0000;"
     d="M 275.7472 585.2023 C 265.5157 586.3110 260.0168 590.4456 256.6347 595.9451 C 263.9643 590.6242 268.2763 588.5087 275.7472 585.2023 z "
     id="path748"
     sodipodi:nodetypes="ccc" />
  <path
     style="font-size:12.000;fill:#ffffff;fill-rule:evenodd;stroke:none;stroke-width:0;fill-opacity:0.2308;stroke-dasharray:none;stroke-opacity:1.0000;"
     d="M 234.0835 572.8633 C 223.8520 573.9720 218.3530 578.1066 214.9709 583.6061 C 222.3007 578.2852 226.6126 576.1697 234.0835 572.8633 z "
     id="path749"
     sodipodi:nodetypes="ccc" />
  <path
     style="font-size:12.000;fill:#ffffff;fill-rule:evenodd;stroke:none;stroke-width:0;fill-opacity:0.2308;stroke-dasharray:none;stroke-opacity:1.0000;"
     d="M 185.8497 556.5183 C 175.6182 557.6269 170.1192 561.7614 166.7371 567.2609 C 174.0669 561.9402 178.3788 559.8247 185.8497 556.5183 z "
     id="path750"
     sodipodi:nodetypes="ccc" />
  <path
     style="font-size:12.000;fill:#ffffff;fill-rule:evenodd;stroke:none;stroke-width:0;fill-opacity:0.2308;stroke-dasharray:none;stroke-opacity:1.0000;"
     d="M 136.0134 545.6215 C 125.7819 546.7302 120.2830 550.8647 116.9008 556.3642 C 124.2306 551.0434 128.5426 548.9279 136.0134 545.6215 z "
     id="path751"
     sodipodi:nodetypes="ccc" />
  <path
     style="font-size:12.000;fill:#ffffff;fill-rule:evenodd;stroke:none;stroke-width:0;fill-opacity:0.2308;stroke-dasharray:none;stroke-opacity:1.0000;"
     d="M 79.00532 548.5907 C 73.81387 554.7820 73.42749 560.7780 75.19795 566.6952 C 75.84221 558.8465 76.91055 554.9942 79.00532 548.5907 z "
     id="path752"
     sodipodi:nodetypes="ccc" />
  <path
     style="font-size:12.000;fill:#ffffff;fill-rule:evenodd;stroke:none;stroke-width:0;fill-opacity:1.0000;stroke-dasharray:none;stroke-opacity:1.0000;"
     d="M 431.9021 316.4155 C 435.3718 318.6548 438.2505 324.4029 438.6348 329.3746 C 439.0747 334.5350 434.8880 334.1058 435.1548 329.5974 C 435.3437 326.3529 434.1229 322.0610 431.9021 316.4155 z "
     id="path675" />
  <path
     style="font-size:12.000;fill:#ffffff;fill-rule:evenodd;stroke:none;stroke-width:0;stroke-opacity:1.0000;stroke-dasharray:none;fill-opacity:0.3029;"
     d="M 644.8127 658.1614 C 647.8272 682.4139 635.6890 689.4921 639.7128 677.9007 C 641.8616 671.1666 643.0450 665.8931 641.0573 656.9712 C 638.6356 646.5222 642.9597 646.6457 644.8127 658.1614 z "
     id="path676"
     sodipodi:nodetypes="csss" />
  <path
     style="fill:#000000;fill-rule:evenodd;stroke:none;stroke-opacity:1;stroke-width:1pt;stroke-linejoin:miter;stroke-linecap:butt;fill-opacity:0.1442;"
     d="M 365.5548 382.7439 C 383.2555 399.0728 374.8211 419.1216 352.7765 414.0244 C 369.9022 416.2412 375.6274 394.4850 365.5548 382.7439 z "
     id="path678"
     sodipodi:nodetypes="ccc" />
  <path
     style="font-size:12.000;fill:#573700;fill-rule:evenodd;stroke:#3d2200;stroke-width:2.719442;stroke-linecap:round;stroke-linejoin:round;"
     d="M 289.2652 272.8222 C 283.3516 271.3761 292.3292 253.1743 298.0719 247.3387 C 300.9630 248.8068 301.6615 251.7429 305.5278 254.6918 C 302.2760 242.8887 327.9891 227.0502 336.9129 224.1070 C 336.3509 230.4388 336.9166 233.8558 340.0736 239.6948 C 347.0792 210.5711 376.9651 220.2624 386.8408 218.7081 C 381.6780 224.1430 378.6614 232.9617 382.6492 249.2533 C 387.1552 242.7992 401.0611 238.1808 404.8628 240.0294 C 398.7570 247.7806 400.8862 257.9940 401.8641 264.1297 C 398.1268 262.0900 395.8795 262.9167 391.7058 263.1517 C 396.4107 267.4094 399.2398 278.6989 398.1161 284.9735 C 387.8589 267.8006 374.4397 270.6176 364.0857 266.1709 C 364.6834 271.0122 367.3996 277.3230 364.7798 288.7337 C 350.2895 268.7316 333.7282 270.0352 323.4314 268.6866 C 326.5550 271.8351 328.6463 277.5581 325.5612 283.3744 C 317.7197 272.2267 301.3677 276.2466 289.2652 272.8222 z "
     id="path679"
     sodipodi:nodetypes="cccccccccccccccc" />
  <path
     style="fill:#000000;fill-rule:evenodd;stroke:none;stroke-opacity:1;stroke-width:1pt;stroke-linejoin:miter;stroke-linecap:butt;fill-opacity:0.1683;"
     d="M 288.9911 271.1553 C 309.5989 269.5239 328.9636 267.6606 325.1967 280.9681 C 317.6124 270.9584 296.9816 274.7198 288.9911 271.1553 z "
     id="path681"
     sodipodi:nodetypes="ccc" />
  <path
     style="fill:#000000;fill-rule:evenodd;stroke:none;stroke-opacity:1;stroke-width:1pt;stroke-linejoin:miter;stroke-linecap:butt;fill-opacity:0.1683;"
     d="M 330.7940 268.0896 C 351.8235 268.3552 365.6416 271.1388 364.1937 286.2380 C 359.9715 280.6092 351.9916 269.9464 330.7940 268.0896 z "
     id="path682"
     sodipodi:nodetypes="ccc" />
  <path
     style="fill:#000000;fill-rule:evenodd;stroke:none;stroke-opacity:1;stroke-width:1pt;stroke-linejoin:miter;stroke-linecap:butt;fill-opacity:0.1683;"
     d="M 365.8427 265.5520 C 380.7591 267.9258 395.1529 261.7584 397.0776 280.9683 C 387.4431 268.1035 377.2486 269.0046 365.8427 265.5520 z "
     id="path683"
     sodipodi:nodetypes="ccc" />
  <path
     style="fill:#000000;fill-rule:evenodd;stroke:none;stroke-opacity:1;stroke-width:1pt;stroke-linejoin:miter;stroke-linecap:butt;fill-opacity:0.1683;"
     d="M 298.2396 249.0664 C 299.5282 249.6444 303.2996 255.1128 305.7650 256.1262 C 300.6426 260.2986 299.2376 256.5919 298.2396 249.0664 z "
     id="path684"
     sodipodi:nodetypes="ccc" />
  <path
     style="fill:#000000;fill-rule:evenodd;stroke:none;stroke-opacity:1;stroke-width:1pt;stroke-linejoin:miter;stroke-linecap:butt;fill-opacity:0.1683;"
     d="M 335.3541 226.1865 C 335.0032 232.3542 337.3224 238.3568 339.4896 240.9355 C 328.4861 247.9971 332.8110 232.6707 335.3541 226.1865 z "
     id="path685"
     sodipodi:nodetypes="ccc" />
  <path
     style="fill:#000000;fill-rule:evenodd;stroke:none;stroke-opacity:1;stroke-width:1pt;stroke-linejoin:miter;stroke-linecap:butt;fill-opacity:0.1683;"
     d="M 383.7224 220.3732 C 376.4404 230.2671 380.4737 246.7782 381.5974 250.1021 C 366.9314 255.6135 369.6764 236.5521 383.7224 220.3732 z "
     id="path686"
     sodipodi:nodetypes="ccc" />
  <path
     style="fill:#000000;fill-rule:evenodd;stroke:none;stroke-opacity:1;stroke-width:1pt;stroke-linejoin:miter;stroke-linecap:butt;fill-opacity:0.1683;"
     d="M 402.5778 241.0171 C 397.9042 247.7809 399.6273 258.8516 400.0801 261.7282 C 389.7030 260.2048 394.4449 250.4078 402.5778 241.0171 z "
     id="path687"
     sodipodi:nodetypes="ccc" />
  <path
     style="fill:#000000;fill-rule:evenodd;stroke:none;stroke-opacity:1;stroke-width:1pt;stroke-linejoin:miter;stroke-linecap:butt;fill-opacity:0.1442;"
     d="M 530.3143 19.06242 C 554.2005 24.86957 583.3216 43.26729 582.1293 94.08431 C 581.3226 162.4657 512.0840 239.7673 459.6657 277.6473 C 500.7549 245.6188 651.1300 88.29310 530.3143 19.06242 z "
     id="path688"
     sodipodi:nodetypes="cscc" />
  <path
     style="fill:#000000;fill-rule:evenodd;stroke:none;stroke-opacity:1;stroke-width:1pt;stroke-linejoin:miter;stroke-linecap:butt;fill-opacity:0.1442;"
     d="M 528.3797 35.92594 C 480.8843 22.33989 467.3512 206.8832 441.7753 254.0382 C 472.3565 210.2051 482.6069 62.57603 528.3797 35.92594 z "
     id="path689"
     sodipodi:nodetypes="ccc" />
  <path
     style="fill:#000000;fill-rule:evenodd;stroke:none;stroke-opacity:1;stroke-width:1pt;stroke-linejoin:miter;stroke-linecap:butt;fill-opacity:0.1442;"
     d="M 106.1272 92.49365 C 68.07113 148.5439 209.1081 284.8472 256.1877 273.5589 C 219.1865 270.0463 90.70066 172.2159 106.1272 92.49365 z "
     id="path690"
     sodipodi:nodetypes="ccc" />
  <path
     style="fill:#000000;fill-rule:evenodd;stroke:none;stroke-opacity:1;stroke-width:1pt;stroke-linejoin:miter;stroke-linecap:butt;fill-opacity:0.1442;"
     d="M 112.5136 62.06436 C 189.0988 25.71254 195.0432 222.0605 284.7006 270.9017 C 197.6266 240.5594 186.1113 49.50665 112.5136 62.06436 z "
     id="path691"
     sodipodi:nodetypes="ccc" />
</svg>
