<?xml version="1.0" standalone="no"?>
<!DOCTYPE svg PUBLIC "-//W3C//DTD SVG 20010904//EN"
"http://www.w3.org/TR/2001/REC-SVG-20010904/DTD/svg10.dtd"
[
 <!ATTLIST svg
  xmlns:xlink CDATA #FIXED "http://www.w3.org/1999/xlink">
]>
<!-- Created with Sodipodi ("http://www.sodipodi.com/") -->
<svg
   xmlns="http://www.w3.org/2000/svg"
   xmlns:xlink="http://www.w3.org/1999/xlink"
   width="744.094"
   height="744.094"
   id="svg1">
  <defs
     id="defs578" />
  <g
     transform="matrix(1.85925,0,0,1.85925,-140.422,-342.615)"
     style="font-size:12;"
     id="g96">
    <ellipse
       cx="386.679108"
       cy="361.016357"
       rx="13.524017"
       ry="13.524017"
       transform="matrix(1.18779,0,0,1.18779,-50.8109,-45.0069)"
       style="fill:#070081;fill-opacity:0.14;"
       id="ellipse275" />
    <path
       d="M 403.201 354.966 C 402.845 334.947 361.355 305.822 298.015 293.506 C 234.675 281.19 161.015 312.242 161.017 351.162 C 162.323 379.74 234.437 413.811 283.487 412.931 C 332.537 412.051 402.821 382.903 403.201 354.966 z "
       transform="translate(37.4806,31.921)"
       style="fill:#d1deff;"
       id="path4" />
    <path
       d="M 194.331 332.946 C 157.645 386.392 170.332 337.935 95.1968 313.498 C 136.364 357.084 135.288 375.574 98.6921 414.859 C 175.679 388.48 152.457 341.555 197.051 381.84 C 178.659 366.223 182.159 349.173 194.331 332.946 z "
       transform="translate(15.344,23.9629)"
       style="fill:#ff899c;fill-opacity:0.521569;"
       id="path8" />
    <path
       d="M 379.353 323.585 C 333.915 282.031 239.666 279.322 202.384 301.847 C 207.821 314.663 212.747 307.285 218.184 320.101 C 266.91 295.858 320.219 293.712 379.353 323.585 z "
       transform="matrix(1,-1.22461e-16,-1.22461e-16,-1,25.8289,745.518)"
       style="fill:#ff8a9c;fill-opacity:0.501961;"
       id="path11" />
    <ellipse
       cx="386.679108"
       cy="361.016357"
       rx="13.524017"
       ry="13.524017"
       transform="matrix(1.02381,0,0,1.02381,12.2847,13.8802)"
       style="fill:#ffffff;fill-opacity:0.79;"
       id="ellipse12" />
    <ellipse
       cx="387.323120"
       cy="361.016357"
       rx="7.728010"
       ry="7.728010"
       transform="matrix(1.41667,0,0,1.41667,-140.215,-127.625)"
       style="fill:#020202;"
       id="ellipse13" />
    <path
       d="M 379.994 356.907 C 382.053 353.84 384.513 352.832 387.06 352.788 C 389.735 352.745 393.132 354.173 394.771 356.898 C 388.659 354.444 385.216 354.659 379.994 356.907 z "
       transform="translate(21.1694,22.7978)"
       style="fill:#ffffff;fill-opacity:0.74;stroke:#ffffff;stroke-linecap:round;stroke-linejoin:round;"
       id="path14" />
    <path
       d="M 377.373 343.598 C 374.944 330.819 336.184 310.858 281.055 310.647 C 225.927 311.069 185.478 345.393 186.006 354.37 C 185.901 363.347 245.571 344.654 287.393 344.865 C 328.581 345.076 379.168 356.377 377.373 343.598 z "
       transform="translate(21.1693,22.7976)"
       style="fill:#ffadde;fill-opacity:0.27;"
       id="path16" />
    <path
       d="M 194.331 332.946 C 167.922 358.189 146.941 337.855 108.191 310.667 C 122.363 347.921 124.238 378.832 108.902 409.465 C 151.233 403.64 178.409 371.486 197.051 381.84 C 189.558 363.319 189.584 355.479 194.331 332.946 z "
       transform="matrix(0.682713,0.0870985,0,0.399847,254.026,223.462)"
       style="fill:#ff899c;fill-opacity:0.521569;"
       id="path15" />
    <path
       d="M 348.303 327.783 C 288.291 273.636 229.527 291.915 208.721 318.638 C 214.158 331.454 212.747 310.717 218.184 323.533 C 231.425 309.983 275.229 276.921 348.303 327.783 z "
       transform="matrix(1,-5.54587e-17,-1.22461e-16,-0.452868,25.8289,588.015)"
       style="fill:#ff8a9c;fill-opacity:0.501961;"
       id="path19" />
    <path
       d="M 95.6115 313.726 C 147.33 328.792 162.609 384.778 178.752 343.334 C 171.266 389.336 131.353 335.29 95.6115 313.726 z "
       transform="matrix(1.09954,0,0,1,5.8679,23.9629)"
       style="fill:#ff899c;fill-opacity:0.521569;"
       id="path21" />
    <path
       d="M 98.2148 290.83 C 114.732 306.82 204.803 346.705 229.408 319.149 C 206.294 334.39 130.035 314.365 98.2148 290.83 z "
       transform="matrix(0.419859,0,0,0.531131,289.186,205.171)"
       style="fill:#ff899c;fill-opacity:0.521569;"
       id="path22" />
    <path
       d="M 93.6551 313.009 C 161.242 338.83 143.779 382.533 178.414 350.905 C 155.393 401.825 131.702 338.375 93.6551 313.009 z "
       transform="matrix(1.09954,-1.3465e-16,-1.22461e-16,-1,10.9373,751.925)"
       style="fill:#ff899c;fill-opacity:0.521569;"
       id="path256" />
    <path
       d="M 109.604 329.973 C 158.063 346.712 148.561 386.357 174.501 355.685 C 159.523 391.548 147.651 355.339 109.604 329.973 z "
       transform="matrix(1.09954,-1.3465e-16,-1.22461e-16,-1,10.9373,751.925)"
       style="fill:#ff899c;fill-opacity:0.521569;"
       id="path257" />
    <path
       d="M 107.875 328.072 C 156.334 344.811 157.827 375.696 178.752 343.334 C 171.266 389.336 143.617 349.636 107.875 328.072 z "
       transform="matrix(1.09954,0,0,1,5.8679,23.9629)"
       style="fill:#ff899c;fill-opacity:0.521569;"
       id="path258" />
    <path
       d="M 89.884 309.255 C 138.068 307.571 199.354 331.461 226.977 315.835 C 204.505 326.303 139.567 305.463 89.884 309.255 z "
       transform="matrix(0.419859,-5.14162e-17,-6.50426e-17,-0.531131,291.088,560.732)"
       style="fill:#ff899c;fill-opacity:0.521569;"
       id="path259" />
    <path
       d="M 118.249 342.646 C 166.708 359.385 154.324 374.951 174.501 355.685 C 156.641 378.241 156.296 368.012 118.249 342.646 z "
       transform="matrix(1.09954,-1.3465e-16,-1.22461e-16,-1,10.9373,751.925)"
       style="fill:#ff899c;fill-opacity:0.521569;"
       id="path260" />
    <path
       d="M 117.096 339.478 C 165.555 356.217 165.85 380.02 178.535 342.378 C 172.202 382.043 152.838 361.042 117.096 339.478 z "
       transform="matrix(1.09954,0,0,1,5.8679,23.9629)"
       style="fill:#ff899c;fill-opacity:0.521569;"
       id="path261" />
    <path
       d="M 93.6871 314.691 C 141.871 322.702 199.326 333.582 225.44 319.149 C 205.399 325.487 157.201 319.137 93.6871 314.691 z "
       transform="matrix(0.419859,-5.14162e-17,-6.50426e-17,-0.531131,291.088,560.732)"
       style="fill:#ff899c;fill-opacity:0.521569;"
       id="path262" />
    <path
       d="M 105.679 304.86 C 126.696 324.803 204.243 343.148 227.339 325.136 C 207.298 332.667 137.499 328.395 105.679 304.86 z "
       transform="matrix(0.419859,0,0,0.531131,289.186,205.171)"
       style="fill:#ff899c;fill-opacity:0.521569;"
       id="path263" />
    <path
       d="M 123.435 348.349 C 172.471 358.118 166.067 380.498 178.752 342.856 C 172.419 382.521 162.635 361.042 123.435 348.349 z "
       transform="matrix(1.09954,0,0,1,5.8679,23.9629)"
       style="fill:#ff899c;fill-opacity:0.521569;"
       id="path264" />
    <path
       d="M 122.283 352.785 C 170.742 369.524 154.324 374.951 174.501 355.685 C 156.641 378.241 162.059 371.814 122.283 352.785 z "
       transform="matrix(1.09954,-1.3465e-16,-1.22461e-16,-1,10.9373,751.925)"
       style="fill:#ff899c;fill-opacity:0.521569;"
       id="path265" />
    <path
       d="M 125.74 354.052 C 177.658 356.851 166.502 380.02 179.187 342.378 C 165.246 374.395 170.703 358.507 125.74 354.052 z "
       transform="matrix(1.09954,0,0,1,5.8679,23.9629)"
       style="fill:#ff899c;fill-opacity:0.521569;"
       id="path266" />
    <path
       d="M 125.165 360.389 C 175.929 365.722 154.324 374.951 174.501 355.685 C 156.641 378.241 168.398 371.18 125.165 360.389 z "
       transform="matrix(1.09954,-1.3465e-16,-1.22461e-16,-1,10.9373,751.925)"
       style="fill:#ff899c;fill-opacity:0.521569;"
       id="path267" />
    <path
       d="M 124.012 366.092 C 174.776 361.286 154.324 374.951 174.501 355.685 C 156.641 378.241 168.398 370.546 124.012 366.092 z "
       transform="matrix(1.09954,-1.3465e-16,-1.22461e-16,-1,10.9373,751.925)"
       style="fill:#ff899c;fill-opacity:0.521569;"
       id="path268" />
    <path
       d="M 104.252 323.042 C 152.436 331.053 196.335 337.426 222.449 322.993 C 202.408 329.331 167.766 327.488 104.252 323.042 z "
       transform="matrix(0.419859,-5.14162e-17,-6.50426e-17,-0.531131,291.088,560.732)"
       style="fill:#ff899c;fill-opacity:0.521569;"
       id="path269" />
    <path
       d="M 111.798 318.27 C 138.852 331.055 198.82 340.497 224.935 329.643 C 204.894 331.209 149.655 331.068 111.798 318.27 z "
       transform="matrix(0.419859,0,0,0.531131,289.186,205.171)"
       style="fill:#ff899c;fill-opacity:0.521569;"
       id="path270" />
    <path
       d="M 110.289 331.393 C 158.473 339.404 199.353 337.426 217.921 330.151 C 200.899 328.138 173.803 335.839 110.289 331.393 z "
       transform="matrix(0.419859,-5.14162e-17,-6.50426e-17,-0.531131,291.088,560.732)"
       style="fill:#ff899c;fill-opacity:0.521569;"
       id="path271" />
    <path
       d="M 108.78 329.007 C 137.343 331.055 217.239 339.127 225.243 333.045 C 220.294 331.032 142.109 329.875 108.78 329.007 z "
       transform="matrix(0.419859,0,0,0.531131,289.186,205.171)"
       style="fill:#ff899c;fill-opacity:0.521569;"
       id="path272" />
    <path
       d="M 124.871 358.115 C 176.137 360.436 171.067 354.447 178.318 344.29 C 170.898 365.552 169.834 362.57 124.871 358.115 z "
       transform="matrix(1.09954,0,0,1,5.8679,23.9629)"
       style="fill:#ff899c;fill-opacity:0.521569;"
       id="path273" />
    <path
       d="M 173.789 383.778 C 163.473 369.173 163.888 362.284 177.762 351.622 C 170.553 359.599 170.354 374.609 173.789 383.778 z "
       transform="matrix(1.09954,-1.3465e-16,-1.22461e-16,-1,10.9373,751.925)"
       style="fill:#ff899c;fill-opacity:0.521569;"
       id="path274" />
    <g
       transform="matrix(0.995071,0,0,1,1.37921,0)"
       id="g338">
      <path
         d="M 420.354 352.696 C 416.978 320.844 333.108 292.792 293.012 296.655 C 244.675 296.673 177.716 331.625 178.709 357.559 C 257.031 298.59 363.328 304.318 420.354 352.696 z "
         transform="matrix(1,-3.67381e-16,-3.67381e-16,-1,20.5356,740.78)"
         style="fill:#0000e6;fill-opacity:0.05;"
         id="path18" />
      <path
         d="M 420.354 352.696 C 416.978 320.844 333.108 292.792 293.012 296.655 C 244.675 296.673 177.716 331.625 178.709 357.559 C 248.248 293.985 375.156 299.581 420.354 352.696 z "
         transform="matrix(1,-3.67381e-16,-3.67381e-16,-1,20.5356,740.78)"
         style="fill:#0000e6;fill-opacity:0.05;"
         id="path277" />
      <path
         d="M 420.354 352.696 C 416.978 320.844 333.108 292.792 293.012 296.655 C 244.675 296.673 177.716 331.625 178.709 357.559 C 250.022 277.723 394.27 304.517 420.354 352.696 z "
         transform="matrix(1,-3.67381e-16,-3.67381e-16,-1,20.5356,740.78)"
         style="fill:#0000e6;fill-opacity:0.05;"
         id="path278" />
      <path
         d="M 420.354 352.696 C 416.978 320.844 333.108 292.792 293.012 296.655 C 244.675 296.673 177.716 331.625 178.709 357.559 C 226.831 277.143 390.236 291.717 420.354 352.696 z "
         transform="matrix(1,-3.67381e-16,-3.67381e-16,-1,20.5356,740.78)"
         style="fill:#0000e6;fill-opacity:0.05;"
         id="path279" />
    </g>
    <g
       transform="matrix(1.00164,0,0,1,-0.726175,3.41061e-13)"
       id="g358">
      <path
         d="M 420.354 352.696 C 421.758 319.256 370.156 291.601 312.532 291.89 C 260.61 290.717 173.334 328.449 178.709 357.559 C 242.453 304.723 379.132 303.723 420.354 352.696 z "
         transform="matrix(-0.996714,4.89842e-16,4.88233e-16,1,618.614,30.986)"
         style="fill:#ffffff;fill-opacity:0.2;"
         id="path346" />
      <path
         d="M 420.354 352.696 C 421.758 319.256 370.156 291.601 312.532 291.89 C 260.61 290.717 173.334 328.449 178.709 357.559 C 227.714 305.914 376.742 293.003 420.354 352.696 z "
         transform="matrix(-0.996714,4.89842e-16,4.88233e-16,1,618.614,30.986)"
         style="fill:#ffffff;fill-opacity:0.2;"
         id="path353" />
      <path
         d="M 420.354 352.696 C 421.758 319.256 370.156 291.601 312.532 291.89 C 260.61 290.717 173.334 328.449 178.709 357.559 C 223.73 303.929 363.596 282.68 420.354 352.696 z "
         transform="matrix(-0.996714,4.89842e-16,4.88233e-16,1,618.614,30.986)"
         style="fill:#ffffff;fill-opacity:0.2;"
         id="path354" />
      <path
         d="M 420.354 352.696 C 421.758 319.256 370.156 291.601 312.532 291.89 C 260.61 290.717 173.334 328.449 178.709 357.559 C 215.763 300.753 367.58 271.96 420.354 352.696 z "
         transform="matrix(-0.996714,4.89842e-16,4.88233e-16,1,618.614,30.986)"
         style="fill:#ffffff;fill-opacity:0.2;"
         id="path355" />
      <path
         d="M 420.354 352.696 C 421.758 319.256 370.156 291.601 312.532 291.89 C 260.61 290.717 173.334 328.449 178.709 357.559 C 208.991 300.356 371.564 265.21 420.354 352.696 z "
         transform="matrix(-0.996714,4.89842e-16,4.88233e-16,1,618.614,30.986)"
         style="fill:#ffffff;fill-opacity:0.2;"
         id="path356" />
      <path
         d="M 420.354 352.696 C 421.758 319.256 370.156 291.601 312.532 291.89 C 260.61 290.717 173.334 328.449 178.709 357.559 C 205.406 299.959 375.946 255.681 420.354 352.696 z "
         transform="matrix(-0.996714,4.89842e-16,4.88233e-16,1,618.614,30.986)"
         style="fill:#ffffff;fill-opacity:0.2;"
         id="path357" />
    </g>
    <path
       d="M 377.373 343.598 C 374.944 330.819 336.184 310.858 281.055 310.647 C 225.927 311.069 185.478 345.393 186.006 354.37 C 185.901 363.347 245.571 344.654 287.393 344.865 C 328.581 345.076 379.168 356.377 377.373 343.598 z "
       transform="matrix(1,-3.67381e-16,-3.67381e-16,-1,23.1528,740.878)"
       style="fill-opacity:0.1;"
       id="path365" />
    <g
       id="g409">
      <path
         d="M 378.311 323.462 C 332.873 281.908 239.666 280.909 202.384 303.434 C 207.821 316.25 209.763 303.126 215.2 315.942 C 273.596 288.387 328.989 301.715 378.311 323.462 z "
         transform="translate(21.1694,22.7978)"
         style="fill:#ff8a9c;fill-opacity:0.501961;"
         id="path9" />
      <path
         d="M 352.331 323.462 C 314.497 259.011 246.003 254.664 202.384 301.847 C 207.821 314.663 209.763 303.126 215.2 315.942 C 243.814 265.49 301.741 270.012 352.331 323.462 z "
         transform="matrix(1,0,0,0.359773,24.9714,215.946)"
         style="fill:#ff8a9c;fill-opacity:0.501961;"
         id="path20" />
      <path
         d="M 218.211 328.976 C 216.883 311.951 211.878 303.193 199.209 307.362 C 208.218 310.252 213.651 314.129 218.211 328.976 z "
         transform="matrix(1,0,0,0.359773,24.9714,215.946)"
         style="fill:#ff8a9c;fill-opacity:0.501961;"
         id="path366" />
      <path
         d="M 218.211 328.976 C 216.883 311.951 211.878 303.193 199.209 307.362 C 208.218 310.252 213.651 314.129 218.211 328.976 z "
         transform="matrix(1,0,0,0.359773,48.3828,208.407)"
         style="fill:#ff8a9c;fill-opacity:0.501961;"
         id="path367" />
      <path
         d="M 218.211 328.976 C 216.883 311.951 211.878 303.193 199.209 307.362 C 208.218 310.252 213.651 314.129 218.211 328.976 z "
         transform="matrix(1,0,0,0.359773,41.2404,209.994)"
         style="fill:#ff8a9c;fill-opacity:0.501961;"
         id="path368" />
      <path
         d="M 218.211 328.976 C 216.883 311.951 211.878 303.193 199.209 307.362 C 208.218 310.252 213.651 314.129 218.211 328.976 z "
         transform="matrix(1,0,0,0.359773,35.6851,212.375)"
         style="fill:#ff8a9c;fill-opacity:0.501961;"
         id="path369" />
      <path
         d="M 218.211 328.976 C 216.883 311.951 211.878 303.193 199.209 307.362 C 208.218 310.252 213.651 314.129 218.211 328.976 z "
         transform="matrix(1,0,0,0.359773,28.5426,213.962)"
         style="fill:#ff8a9c;fill-opacity:0.501961;"
         id="path370" />
      <path
         d="M 218.211 328.976 C 216.883 311.951 211.878 303.193 199.209 307.362 C 208.218 310.252 213.651 314.129 218.211 328.976 z "
         transform="matrix(1,0,0,0.359773,85.2856,202.852)"
         style="fill:#ff8a9c;fill-opacity:0.501961;"
         id="path371" />
      <path
         d="M 218.211 328.976 C 216.883 311.951 211.878 303.193 199.209 307.362 C 208.218 310.252 213.651 314.129 218.211 328.976 z "
         transform="matrix(1,0,0,0.359773,93.6184,203.645)"
         style="fill:#ff8a9c;fill-opacity:0.501961;"
         id="path372" />
      <path
         d="M 218.211 328.976 C 216.883 311.951 211.878 303.193 199.209 307.362 C 208.218 310.252 213.651 314.129 218.211 328.976 z "
         transform="matrix(1,0,0,0.359773,101.951,204.439)"
         style="fill:#ff8a9c;fill-opacity:0.501961;"
         id="path373" />
      <path
         d="M 218.211 328.976 C 216.883 311.951 211.878 303.193 199.209 307.362 C 208.218 310.252 213.651 314.129 218.211 328.976 z "
         transform="matrix(1,0,0,0.359773,111.475,205.233)"
         style="fill:#ff8a9c;fill-opacity:0.501961;"
         id="path374" />
      <path
         d="M 218.211 328.976 C 216.883 311.951 211.878 303.193 199.209 307.362 C 208.218 310.252 213.651 314.129 218.211 328.976 z "
         transform="matrix(1,0,0,0.359773,119.807,206.423)"
         style="fill:#ff8a9c;fill-opacity:0.501961;"
         id="path375" />
      <path
         d="M 218.211 328.976 C 216.883 311.951 211.878 303.193 199.209 307.362 C 208.218 310.252 213.651 314.129 218.211 328.976 z "
         transform="matrix(1,0,0,0.359773,128.934,208.407)"
         style="fill:#ff8a9c;fill-opacity:0.501961;"
         id="path376" />
      <path
         d="M 218.211 328.976 C 216.883 311.951 211.878 303.193 199.209 307.362 C 208.218 310.252 213.651 314.129 218.211 328.976 z "
         transform="matrix(1,0,0,0.359773,138.854,211.581)"
         style="fill:#ff8a9c;fill-opacity:0.501961;"
         id="path377" />
      <path
         d="M 218.211 328.976 C 216.883 311.951 211.878 303.193 199.209 307.362 C 208.218 310.252 213.651 314.129 218.211 328.976 z "
         transform="matrix(1,0,0,0.359773,147.981,214.359)"
         style="fill:#ff8a9c;fill-opacity:0.501961;"
         id="path378" />
      <path
         d="M 218.211 328.976 C 216.883 311.951 211.878 303.193 199.209 307.362 C 208.218 310.252 213.651 314.129 218.211 328.976 z "
         transform="matrix(1,0,0,0.359773,158.694,217.533)"
         style="fill:#ff8a9c;fill-opacity:0.501961;"
         id="path379" />
      <path
         d="M 218.211 328.976 C 216.883 311.951 211.878 303.193 199.209 307.362 C 208.218 310.252 213.651 314.129 218.211 328.976 z "
         transform="matrix(1,0,0,0.359773,165.44,220.311)"
         style="fill:#ff8a9c;fill-opacity:0.501961;"
         id="path380" />
      <path
         d="M 218.211 328.976 C 216.883 311.951 211.878 303.193 199.209 307.362 C 208.218 310.252 213.651 314.129 218.211 328.976 z "
         transform="matrix(1,0,0,0.359773,80.1271,203.249)"
         style="fill:#ff8a9c;fill-opacity:0.501961;"
         id="path383" />
      <path
         d="M 218.211 328.976 C 216.883 311.951 211.878 303.193 199.209 307.362 C 208.218 310.252 213.651 314.129 218.211 328.976 z "
         transform="matrix(1,0,0,0.359773,73.3815,204.042)"
         style="fill:#ff8a9c;fill-opacity:0.501961;"
         id="path384" />
      <path
         d="M 218.211 328.976 C 216.883 311.951 211.878 303.193 199.209 307.362 C 208.218 310.252 213.651 314.129 218.211 328.976 z "
         transform="matrix(1,0,0,0.359773,67.4294,204.439)"
         style="fill:#ff8a9c;fill-opacity:0.501961;"
         id="path385" />
      <path
         d="M 218.211 328.976 C 216.883 311.951 211.878 303.193 199.209 307.362 C 208.218 310.252 213.651 314.129 218.211 328.976 z "
         transform="matrix(1,0,0,0.359773,61.0806,205.233)"
         style="fill:#ff8a9c;fill-opacity:0.501961;"
         id="path386" />
      <path
         d="M 218.211 328.976 C 216.883 311.951 211.878 303.193 199.209 307.362 C 208.218 310.252 213.651 314.129 218.211 328.976 z "
         transform="matrix(1,0,0,0.359773,54.3349,206.423)"
         style="fill:#ff8a9c;fill-opacity:0.501961;"
         id="path387" />
    </g>
    <g
       transform="matrix(0.988722,0.0428546,-1.2108e-16,-1,7.67918,753.15)"
       id="g432">
      <path
         d="M 378.311 323.462 C 332.873 281.908 239.666 280.909 202.384 303.434 C 207.821 316.25 209.763 303.126 215.2 315.942 C 273.596 288.387 328.989 301.715 378.311 323.462 z "
         transform="translate(21.1694,22.7978)"
         style="fill:#ff8a9c;fill-opacity:0.501961;"
         id="path433" />
      <path
         d="M 352.331 323.462 C 314.497 259.011 246.003 254.664 202.384 301.847 C 207.821 314.663 209.763 303.126 215.2 315.942 C 243.814 265.49 301.741 270.012 352.331 323.462 z "
         transform="matrix(1,0,0,0.359773,24.9714,215.946)"
         style="fill:#ff8a9c;fill-opacity:0.501961;"
         id="path434" />
      <path
         d="M 218.211 328.976 C 216.883 311.951 211.878 303.193 199.209 307.362 C 208.218 310.252 213.651 314.129 218.211 328.976 z "
         transform="matrix(1,0,0,0.359773,24.9714,215.946)"
         style="fill:#ff8a9c;fill-opacity:0.501961;"
         id="path435" />
      <path
         d="M 218.211 328.976 C 216.883 311.951 211.878 303.193 199.209 307.362 C 208.218 310.252 213.651 314.129 218.211 328.976 z "
         transform="matrix(1,0,0,0.359773,48.3828,208.407)"
         style="fill:#ff8a9c;fill-opacity:0.501961;"
         id="path436" />
      <path
         d="M 218.211 328.976 C 216.883 311.951 211.878 303.193 199.209 307.362 C 208.218 310.252 213.651 314.129 218.211 328.976 z "
         transform="matrix(1,0,0,0.359773,41.2404,209.994)"
         style="fill:#ff8a9c;fill-opacity:0.501961;"
         id="path437" />
      <path
         d="M 218.211 328.976 C 216.883 311.951 211.878 303.193 199.209 307.362 C 208.218 310.252 213.651 314.129 218.211 328.976 z "
         transform="matrix(1,0,0,0.359773,35.6851,212.375)"
         style="fill:#ff8a9c;fill-opacity:0.501961;"
         id="path438" />
      <path
         d="M 218.211 328.976 C 216.883 311.951 211.878 303.193 199.209 307.362 C 208.218 310.252 213.651 314.129 218.211 328.976 z "
         transform="matrix(1,0,0,0.359773,28.5426,213.962)"
         style="fill:#ff8a9c;fill-opacity:0.501961;"
         id="path439" />
      <path
         d="M 218.211 328.976 C 216.883 311.951 211.878 303.193 199.209 307.362 C 208.218 310.252 213.651 314.129 218.211 328.976 z "
         transform="matrix(1,0,0,0.359773,85.2856,202.852)"
         style="fill:#ff8a9c;fill-opacity:0.501961;"
         id="path440" />
      <path
         d="M 218.211 328.976 C 216.883 311.951 211.878 303.193 199.209 307.362 C 208.218 310.252 213.651 314.129 218.211 328.976 z "
         transform="matrix(1,0,0,0.359773,93.6184,203.645)"
         style="fill:#ff8a9c;fill-opacity:0.501961;"
         id="path441" />
      <path
         d="M 218.211 328.976 C 216.883 311.951 211.878 303.193 199.209 307.362 C 208.218 310.252 213.651 314.129 218.211 328.976 z "
         transform="matrix(1,0,0,0.359773,101.951,204.439)"
         style="fill:#ff8a9c;fill-opacity:0.501961;"
         id="path442" />
      <path
         d="M 218.211 328.976 C 216.883 311.951 211.878 303.193 199.209 307.362 C 208.218 310.252 213.651 314.129 218.211 328.976 z "
         transform="matrix(1,0,0,0.359773,111.475,205.233)"
         style="fill:#ff8a9c;fill-opacity:0.501961;"
         id="path443" />
      <path
         d="M 218.211 328.976 C 216.883 311.951 211.878 303.193 199.209 307.362 C 208.218 310.252 213.651 314.129 218.211 328.976 z "
         transform="matrix(1,0,0,0.359773,119.807,206.423)"
         style="fill:#ff8a9c;fill-opacity:0.501961;"
         id="path444" />
      <path
         d="M 218.211 328.976 C 216.883 311.951 211.878 303.193 199.209 307.362 C 208.218 310.252 213.651 314.129 218.211 328.976 z "
         transform="matrix(1,0,0,0.359773,128.934,208.407)"
         style="fill:#ff8a9c;fill-opacity:0.501961;"
         id="path445" />
      <path
         d="M 218.211 328.976 C 216.883 311.951 211.878 303.193 199.209 307.362 C 208.218 310.252 213.651 314.129 218.211 328.976 z "
         transform="matrix(1,0,0,0.359773,138.854,211.581)"
         style="fill:#ff8a9c;fill-opacity:0.501961;"
         id="path446" />
      <path
         d="M 218.211 328.976 C 216.883 311.951 211.878 303.193 199.209 307.362 C 208.218 310.252 213.651 314.129 218.211 328.976 z "
         transform="matrix(1,0,0,0.359773,147.981,214.359)"
         style="fill:#ff8a9c;fill-opacity:0.501961;"
         id="path447" />
      <path
         d="M 218.211 328.976 C 216.883 311.951 211.878 303.193 199.209 307.362 C 208.218 310.252 213.651 314.129 218.211 328.976 z "
         transform="matrix(1,0,0,0.359773,158.694,217.533)"
         style="fill:#ff8a9c;fill-opacity:0.501961;"
         id="path448" />
      <path
         d="M 218.211 328.976 C 216.883 311.951 211.878 303.193 199.209 307.362 C 208.218 310.252 213.651 314.129 218.211 328.976 z "
         transform="matrix(1,0,0,0.359773,165.44,220.311)"
         style="fill:#ff8a9c;fill-opacity:0.501961;"
         id="path449" />
      <path
         d="M 218.211 328.976 C 216.883 311.951 211.878 303.193 199.209 307.362 C 208.218 310.252 213.651 314.129 218.211 328.976 z "
         transform="matrix(1,0,0,0.359773,80.1271,203.249)"
         style="fill:#ff8a9c;fill-opacity:0.501961;"
         id="path450" />
      <path
         d="M 218.211 328.976 C 216.883 311.951 211.878 303.193 199.209 307.362 C 208.218 310.252 213.651 314.129 218.211 328.976 z "
         transform="matrix(1,0,0,0.359773,73.3815,204.042)"
         style="fill:#ff8a9c;fill-opacity:0.501961;"
         id="path451" />
      <path
         d="M 218.211 328.976 C 216.883 311.951 211.878 303.193 199.209 307.362 C 208.218 310.252 213.651 314.129 218.211 328.976 z "
         transform="matrix(1,0,0,0.359773,67.4294,204.439)"
         style="fill:#ff8a9c;fill-opacity:0.501961;"
         id="path452" />
      <path
         d="M 218.211 328.976 C 216.883 311.951 211.878 303.193 199.209 307.362 C 208.218 310.252 213.651 314.129 218.211 328.976 z "
         transform="matrix(1,0,0,0.359773,61.0806,205.233)"
         style="fill:#ff8a9c;fill-opacity:0.501961;"
         id="path453" />
      <path
         d="M 218.211 328.976 C 216.883 311.951 211.878 303.193 199.209 307.362 C 208.218 310.252 213.651 314.129 218.211 328.976 z "
         transform="matrix(1,0,0,0.359773,54.3349,206.423)"
         style="fill:#ff8a9c;fill-opacity:0.501961;"
         id="path454" />
    </g>
    <g
       transform="matrix(1.01345,0.0164316,0,0.916034,83.127,24.6651)"
       id="g480">
      <path
         d="M 379.353 323.585 C 333.915 282.031 239.666 279.322 202.384 301.847 C 207.821 314.663 212.747 307.285 218.184 320.101 C 266.91 295.858 320.219 293.712 379.353 323.585 z "
         transform="translate(-69.4038,21.371)"
         style="fill:#ff8a9c;fill-opacity:0.501961;"
         id="path478" />
      <path
         d="M 348.303 327.783 C 288.291 273.636 229.527 291.915 208.721 318.638 C 214.158 331.454 212.747 310.717 218.184 323.533 C 231.425 309.983 275.229 276.921 348.303 327.783 z "
         transform="matrix(1,-6.70019e-17,-6.70024e-17,0.452868,-71.3876,178.371)"
         style="fill:#ff8a9c;fill-opacity:0.501961;"
         id="path479" />
    </g>
  </g>
</svg>
