<?xml version="1.0" standalone="no"?>
<!DOCTYPE svg PUBLIC "-//W3C//DTD SVG 20010904//EN"
"http://www.w3.org/TR/2001/REC-SVG-20010904/DTD/svg10.dtd">
<svg
   style="fill:#000000;fill-opacity:0.5;stroke:none"
   width="595.275591"
   height="841.889764"
   id="svg399"
   sodipodi:docbase="/home/mira/"
   sodipodi:docname="/home/mira/HOME7.SVG"
   xmlns="http://www.w3.org/2000/svg"
   xmlns:sodipodi="http://sodipodi.sourceforge.net/DTD/sodipodi-0.dtd"
   xmlns:xlink="http://www.w3.org/1999/xlink">
  <defs
     id="defs401" />
  <sodipodi:namedview
     id="base" />
  <rect
     style="stroke:#8484ff; fill:none; fill-opacity:1; fill-rule:evenodd; stroke-opacity:1; stroke-width:1px; stroke-linejoin:miter; stroke-linecap:butt; "
     id="rect322"
     x="64.935965"
     y="48.972789"
     width="433.132119"
     height="433.133400"
     rx="0.000000"
     ry="0.000000" />
  <path
     style="fill:#eeaa44; fill-opacity:1; fill-rule:evenodd; stroke:none; stroke-opacity:1; stroke-width:1px; stroke-linejoin:miter; stroke-linecap:butt; "
     id="path19"
     d="M 98.6818 379.556 C 101.447 395.138 84.4659 397.304 82.3 403.801 C 97.6078 414.826 57.854 431.626 65.2632 436.565 C 70.5236 441.168 148.734 472.689 161.588 473.915 C 240.299 489.097 403.639 478.246 433.526 464.086 C 469.341 443.926 487.452 441.74 493.153 431.978 C 489.778 423.883 458.119 408.779 464.978 402.491 C 459.263 395.348 434.63 396.088 440.077 380.867 C 422.813 375.934 436.705 380.835 424.351 371.693 C 419.735 370.539 418.532 360.553 413.866 360.553 C 371.778 332.301 166.405 341.551 122.927 365.141 C 116.725 377.474 105.928 377.141 98.6818 379.556 z "
     sodipodi:nodetypes="cccccccccccc"
     transform="translate(7.91746,-68.618)" />
  <path
     style="fill:#7f5f1b; fill-opacity:1; fill-rule:evenodd; stroke:#000000; stroke-opacity:1; stroke-width:1px; stroke-linejoin:miter; stroke-linecap:butt; "
     id="path212"
     d="M 313.18 350.861 C 326.403 322.71 342.419 156.86 279.163 154.39 C 235.327 154.838 219.071 272.272 243.682 353.793 C 264.185 351.142 296.758 351.154 313.18 350.861 z "
     sodipodi:nodetypes="cccc"
     transform="translate(-41.3467,-17.594)" />
  <path
     style="fill:#000000; fill-opacity:0.226601; fill-rule:evenodd; stroke:none; stroke-opacity:1; stroke-width:1px; stroke-linejoin:miter; stroke-linecap:butt; "
     id="path20"
     d="M 217.155 403.136 C 220.117 415.881 212.055 451.321 217.613 456.879 C 281.229 443.591 300.561 434.871 335.561 459.827 C 339.593 453.779 386.497 407.475 378.211 403.12 C 365.399 399.188 284.779 384.608 217.155 403.136 z "
     sodipodi:nodetypes="ccccc"
     transform="matrix(2.06402,0,0,1,-306.536,-60.3)" />
  <path
     style="fill:#eeac45; fill-opacity:1; fill-rule:evenodd; stroke:#000000; stroke-opacity:1; stroke-width:10pt; stroke-linejoin:miter; stroke-linecap:butt; "
     id="path175"
     d="M 185.033 318.898 C 166.559 317.424 141.928 324.176 128.732 325.935 C 128.732 310.1 126.093 159.669 126.093 143.834 C 126.093 98.0887 174.477 80.4942 218.463 80.4942 C 237.817 80.4942 355.699 80.4942 374.173 80.4942 C 399.549 77.855 426.956 106.006 426.956 146.473 C 426.956 154.924 426.632 168.466 426.957 180.782 C 438.615 181.333 463.025 192.219 463.025 212.452 C 463.025 231.806 463.158 302.182 463.905 325.055 C 441.785 326.061 271.627 316.758 256.291 318.018 C 252.009 295.145 266.233 210.488 264.209 188.7 C 241.336 188.699 195.449 192.219 177.996 198.377 C 179.755 226.528 181.515 260.837 185.033 318.898 z "
     transform="translate(15.8349,17.5944)"
     sodipodi:nodetypes="ccccccccccccc" />
  <path
     style="fill:#7f611c; fill-opacity:1; fill-rule:evenodd; stroke:#000000; stroke-opacity:1; stroke-width:1px; stroke-linejoin:miter; stroke-linecap:butt; "
     d="M 216.704 151.751 C 216.704 157.093 211.974 161.428 206.147 161.428 C 200.32 161.428 195.591 157.093 195.591 151.751 C 195.591 146.41 200.32 142.074 206.147 142.074 C 211.974 142.074 216.704 146.41 216.704 151.751 z "
     id="path215"
     transform="matrix(0.611107,0,0,0.696973,277.814,17.8333)" />
  <path
     style="fill:#7f611c; fill-opacity:1; fill-rule:evenodd; stroke:#000000; stroke-opacity:1; stroke-width:1px; stroke-linejoin:miter; stroke-linecap:butt; "
     d="M 216.704 151.751 C 216.704 157.093 211.974 161.428 206.147 161.428 C 200.32 161.428 195.591 157.093 195.591 151.751 C 195.591 146.41 200.32 142.074 206.147 142.074 C 211.974 142.074 216.704 146.41 216.704 151.751 z "
     id="path217"
     transform="matrix(0.444439,0,0,0.696973,276.396,17.8342)" />
  <path
     style="fill:#7f5e1d; fill-opacity:1; fill-rule:evenodd; stroke:#000000; stroke-opacity:1; stroke-width:1px; stroke-linejoin:miter; stroke-linecap:butt; "
     id="path247"
     d="M 281.803 223.008 C 281.803 232.646 269.697 267.874 281.803 267.874 C 297.592 267.874 310.834 271.752 329.308 270.513 C 328.49 249.586 326.41 236.204 321.39 223.008 C 294.031 216.762 303.027 223.008 281.803 223.008 z "
     sodipodi:nodetypes="ccccc"
     transform="translate(60.7005,-26.3915)" />
  <path
     style="fill:#7f611c; fill-opacity:1; fill-rule:evenodd; stroke:#000000; stroke-opacity:1; stroke-width:1px; stroke-linejoin:miter; stroke-linecap:butt; "
     d="M 216.704 151.751 C 216.704 157.093 211.974 161.428 206.147 161.428 C 200.32 161.428 195.591 157.093 195.591 151.751 C 195.591 146.41 200.32 142.074 206.147 142.074 C 211.974 142.074 216.704 146.41 216.704 151.751 z "
     id="path248"
     transform="matrix(0.444439,0,0,0.636368,103.971,27.6176)" />
  <path
     style="fill:#7f611c; fill-opacity:1; fill-rule:evenodd; stroke:#000000; stroke-opacity:1; stroke-width:1px; stroke-linejoin:miter; stroke-linecap:butt; "
     d="M 216.704 151.751 C 216.704 157.093 211.974 161.428 206.147 161.428 C 200.32 161.428 195.591 157.093 195.591 151.751 C 195.591 146.41 200.32 142.074 206.147 142.074 C 211.974 142.074 216.704 146.41 216.704 151.751 z "
     id="path214"
     transform="matrix(0.666667,0,0,0.515157,96.2817,42.4922)" />
  <path
     style="fill:#7f611c; fill-opacity:1; fill-rule:evenodd; stroke:#000000; stroke-opacity:1; stroke-width:1px; stroke-linejoin:miter; stroke-linecap:butt; "
     d="M 216.704 151.751 C 216.704 157.093 211.974 161.428 206.147 161.428 C 200.32 161.428 195.591 157.093 195.591 151.751 C 195.591 146.41 200.32 142.074 206.147 142.074 C 211.974 142.074 216.704 146.41 216.704 151.751 z "
     id="path250"
     transform="matrix(0.555551,0,0,0.818184,174.316,-1.73305)" />
  <path
     style="fill:#7f611c; fill-opacity:1; fill-rule:evenodd; stroke:#000000; stroke-opacity:1; stroke-width:1px; stroke-linejoin:miter; stroke-linecap:butt; "
     d="M 216.704 151.751 C 216.704 157.093 211.974 161.428 206.147 161.428 C 200.32 161.428 195.591 157.093 195.591 151.751 C 195.591 146.41 200.32 142.074 206.147 142.074 C 211.974 142.074 216.704 146.41 216.704 151.751 z "
     id="path251"
     transform="matrix(0.555551,0,0,0.636368,218.888,22.9253)" />
  <path
     style="fill:#000000; fill-opacity:0.187192; fill-rule:evenodd; stroke:none; stroke-opacity:1; stroke-width:1px; stroke-linejoin:miter; stroke-linecap:butt; "
     id="path252"
     d="M 187.902 128.488 C 198.012 137.61 207.321 147.088 207.321 152.077 C 207.321 144.411 218.991 139.376 213.446 133.831 C 209.312 131.764 196.437 119.43 193.635 116.628 C 195.573 123.257 193.719 128.218 187.902 128.488 z "
     sodipodi:nodetypes="ccccc"
     transform="translate(5.86478,2.34591)" />
  <path
     style="fill:#000000; fill-opacity:0.192118; fill-rule:evenodd; stroke:none; stroke-opacity:1; stroke-width:1px; stroke-linejoin:miter; stroke-linecap:butt; "
     id="path253"
     d="M 182.167 125.36 C 192.277 134.482 206.8 142.917 206.8 147.906 C 206.8 140.24 213.778 135.727 208.233 130.182 C 204.099 128.115 195.916 120.473 193.114 117.671 C 195.052 124.3 188.506 127.176 182.167 125.36 z "
     sodipodi:nodetypes="ccccc"
     transform="translate(47.0486,-0.260661)" />
  <path
     style="fill:#000000; fill-opacity:0.206897; fill-rule:evenodd; stroke:none; stroke-opacity:1; stroke-width:1px; stroke-linejoin:miter; stroke-linecap:butt; "
     id="path254"
     d="M 186.338 128.488 C 196.448 137.61 203.672 147.088 203.672 152.077 C 203.672 144.411 218.991 139.376 213.446 133.831 C 209.312 131.764 196.437 119.43 193.635 116.628 C 195.573 123.257 192.676 131.347 186.338 128.488 z "
     sodipodi:nodetypes="ccccc"
     transform="translate(100.223,1.30328)" />
  <path
     style="fill:#000000; fill-opacity:0.162562; fill-rule:evenodd; stroke:none; stroke-opacity:1; stroke-width:1px; stroke-linejoin:miter; stroke-linecap:butt; "
     id="path255"
     d="M 185.816 127.446 C 195.926 136.568 205.236 141.354 205.236 146.343 C 205.236 138.677 212.735 137.291 207.19 131.746 C 203.056 129.679 196.437 119.43 193.635 116.628 C 195.573 123.257 193.198 128.218 185.816 127.446 z "
     sodipodi:nodetypes="ccccc"
     transform="translate(145.056,-1.8246)" />
  <path
     style="fill:#000000; fill-opacity:0.192118; fill-rule:evenodd; stroke:none; stroke-opacity:1; stroke-width:1px; stroke-linejoin:miter; stroke-linecap:butt; "
     id="path256"
     d="M 186.859 127.966 C 196.969 137.088 204.714 140.311 206.8 148.428 C 206.8 140.762 221.076 143.025 215.531 137.48 C 211.397 135.413 196.437 119.43 193.635 116.628 C 195.573 123.257 193.198 128.217 186.859 127.966 z "
     sodipodi:nodetypes="ccccc"
     transform="translate(178.941,2.34591)" />
  <path
     style="fill:#000000; fill-opacity:0.172414; fill-rule:evenodd; stroke:none; stroke-opacity:1; stroke-width:1px; stroke-linejoin:miter; stroke-linecap:butt; "
     id="path257"
     d="M 182.688 126.402 C 192.798 135.524 207.321 147.088 207.321 152.077 C 207.321 144.411 218.991 139.376 213.446 133.831 C 209.312 131.764 196.437 119.43 193.635 116.628 C 195.573 123.257 190.07 132.91 182.688 126.402 z "
     sodipodi:nodetypes="ccccc"
     transform="translate(215.954,1.82462)" />
  <path
     style="fill:#e1c500; fill-opacity:1; fill-rule:evenodd; stroke:#ffee94; stroke-opacity:1; stroke-width:1px; stroke-linejoin:miter; stroke-linecap:butt; "
     id="path258"
     d="M 275.351 213.071 C 275.351 210.784 286.369 207.989 292.555 207.989 C 299.984 211.703 279.783 332.197 279.783 339.75 C 276.758 339.332 272.615 341.446 266.75 338.968 C 266.863 329.742 276.524 222.468 275.351 213.071 z "
     sodipodi:nodetypes="ccccc"
     transform="translate(-1.17296,0)" />
  <path
     style="fill:#e1c500; fill-opacity:1; fill-rule:evenodd; stroke:#ffed94; stroke-opacity:1; stroke-width:1px; stroke-linejoin:miter; stroke-linecap:butt; "
     id="path259"
     d="M 180.733 216.329 C 180.733 218.898 284.103 210.576 292.164 207.206 C 295.13 204.241 302.186 186.484 290.991 192.349 C 280.208 192.349 190.117 195.072 181.906 198.213 C 178.891 205.251 182.42 213.983 180.733 216.329 z "
     sodipodi:nodetypes="ccccc" />
  <path
     style="fill:#e1c500; fill-opacity:1; fill-rule:evenodd; stroke:#ffff00; stroke-opacity:1; stroke-width:1px; stroke-linejoin:miter; stroke-linecap:butt; "
     id="path260"
     d="M 206.017 341.184 C 206.017 329.505 201.065 228.79 201.065 216.98 C 192.854 215.595 186.741 219.327 179.56 216.981 C 172.869 222.499 188.944 327.552 188.944 341.705 C 193.505 341.705 198.328 340.402 206.017 341.184 z "
     sodipodi:nodetypes="ccccc" />
  <path
     style="fill:#e1c500; fill-opacity:1; fill-rule:evenodd; stroke:#ffed94; stroke-opacity:1; stroke-width:1px; stroke-linejoin:miter; stroke-linecap:butt; "
     id="path261"
     d="M 180.733 215.808 C 180.733 218.377 298.701 209.794 306.762 206.424 C 309.728 203.459 322.624 193.522 311.429 199.387 C 284.588 204.861 200.336 194.29 162.929 198.213 C 159.914 205.251 182.42 213.462 180.733 215.808 z "
     sodipodi:nodetypes="ccccc"
     transform="matrix(0.535662,0,0,1,234.82,44.5724)" />
  <path
     style="fill:#e1c500; fill-opacity:1; fill-rule:evenodd; stroke:#ffed94; stroke-opacity:1; stroke-width:1px; stroke-linejoin:miter; stroke-linecap:butt; "
     id="path262"
     d="M 126.685 207.988 C 126.685 210.557 299.867 209.794 337.204 203.296 C 340.17 200.331 320.202 192.74 315.763 190.003 C 295.972 190.785 142.825 192.726 134.614 195.867 C 131.599 202.905 128.372 205.642 126.685 207.988 z "
     sodipodi:nodetypes="ccccc"
     transform="matrix(0.347235,0,0,1,280.597,-14.8574)" />
  <path
     style="fill:#e1c500; fill-opacity:1; fill-rule:evenodd; stroke:#ffee94; stroke-opacity:1; stroke-width:1px; stroke-linejoin:miter; stroke-linecap:butt; "
     id="path264"
     d="M 271.441 215.57 C 277.697 221.255 283.241 218.031 289.427 218.031 C 287.472 247.656 282.39 261.301 283.954 336.622 C 281.45 334.119 274.179 338.747 268.314 336.269 C 269.991 327.043 270.268 238.919 271.441 215.57 z "
     sodipodi:nodetypes="ccccc"
     transform="matrix(1,0,0,0.392325,52.7834,109.938)" />
  <path
     style="fill:#e1c500; fill-opacity:1; fill-rule:evenodd; stroke:#ffee94; stroke-opacity:1; stroke-width:1px; stroke-linejoin:miter; stroke-linecap:butt; "
     id="path265"
     d="M 265.967 222.854 C 275.351 220.567 276.985 215.522 283.171 215.522 C 290.6 219.236 289.428 338.605 289.428 346.158 C 286.924 343.655 281.999 353.918 276.134 351.44 C 277.811 342.214 267.14 232.251 265.967 222.854 z "
     sodipodi:nodetypes="ccccc"
     transform="matrix(1,0,0,0.410025,114.559,101.635)" />
</svg>
