<?xml version="1.0" encoding="UTF-8" standalone="no"?>
<!DOCTYPE svg PUBLIC "-//W3C//DTD SVG 20010904//EN"
"http://www.w3.org/TR/2001/REC-SVG-20010904/DTD/svg10.dtd">
<!-- Created with Sodipodi ("http://www.sodipodi.com/") -->
<svg
   id="svg548"
   sodipodi:version="0.33"
   width="210mm"
   height="297mm"
   sodipodi:docbase="/home/tobias/Desktop/Flags/Germany/"
   sodipodi:docname="/home/tobias/Desktop/Flags/Germany/wappen_berlin.svg"
   xmlns="http://www.w3.org/2000/svg"
   xmlns:sodipodi="http://sodipodi.sourceforge.net/DTD/sodipodi-0.dtd"
   xmlns:xlink="http://www.w3.org/1999/xlink">
  <defs
     id="defs550" />
  <sodipodi:namedview
     id="base" />
  <g
     id="g612"
     transform="matrix(3.470588,0,0,3.470588,52.02555,-2.140686)">
    <path
       style="fill:#ffffff;fill-rule:evenodd;stroke:#000000;stroke-opacity:1;stroke-width:3.125;stroke-linejoin:miter;stroke-linecap:butt;fill-opacity:1;stroke-dasharray:none;"
       d="M 25.096 100.705 L 166.51 99.9081 L 165.713 234.949 C 165.713 234.949 164.518 251.679 148.186 262.435 L 94.8072 294.303 L 40.6317 262.833 C 40.6317 262.833 21.9092 249.289 23.5026 236.542 L 25.096 100.705 z "
       id="path552"
       sodipodi:nodetypes="cccccccc" />
    <path
       style="font-size:12;fill:#8b0000;fill-rule:evenodd;stroke:#000000;stroke-width:1pt;"
       d="M 54.2138 123.745 C 54.1468 122.888 54.6953 118.407 52.1618 118.225 C 52.5907 121.396 51.8344 122.884 51.9269 122.739 C 52.0185 122.593 50.1289 118.057 47.7546 118.587 C 49.4347 121.079 49.517 123.678 49.517 123.678 C 49.517 123.678 46.8729 119.658 44.3546 121.218 C 46.6133 122.955 47.1434 125.332 47.1434 125.332 C 47.1434 125.332 44.4412 122.627 41.6266 124.072 C 44.1532 125.295 45.5362 127.062 45.3906 126.969 C 45.2458 126.877 41.4844 126.223 40.8654 127.358 C 42.6746 128.199 45.7986 128.977 45.7986 128.977 C 45.7986 128.977 53.397 124.552 54.2138 123.745 z "
       id="path596"
       sodipodi:nodetypes="cccccccccccc" />
    <path
       style="font-size:12;fill:#8b0000;fill-rule:evenodd;stroke:#000000;stroke-width:1pt;"
       d="M 50.5218 167.651 C 50.1898 166.857 49.1129 162.753 46.6497 163.374 C 48.1389 165.958 48.0342 168.013 48.0764 167.846 C 48.1178 167.679 44.6663 163.85 42.5773 165.097 C 44.9526 166.938 45.8443 169.381 45.8443 169.381 C 45.8443 169.381 42.0747 166.389 40.1711 168.659 C 42.8602 169.603 44.1071 171.693 44.1071 171.693 C 44.1071 171.693 40.5014 170.162 38.4732 172.223 C 41.6025 172.481 43.1221 173.84 42.9548 173.798 C 42.7884 173.755 39.0113 174.311 38.7785 175.583 C 40.7602 175.816 43.6567 177.345 43.6567 177.345 C 43.6567 177.345 49.9986 168.672 50.5218 167.651 z "
       id="path595"
       sodipodi:nodetypes="cccccccccccc" />
    <path
       style="font-size:12;fill:#8b0000;fill-rule:evenodd;stroke:#000000;stroke-width:1pt;"
       d="M 57.9203 245.576 C 57.3671 244.917 54.5303 242.372 52.3631 243.697 C 55.1629 246.042 55.6817 247.164 55.6722 246.991 C 55.6621 246.82 50.9759 244.984 49.3523 246.796 C 52.1675 247.847 53.3805 249.185 53.3805 249.185 C 53.3805 249.185 49.6217 248.423 48.4792 251.156 C 51.3274 251.257 52.4096 251.909 52.4096 251.909 C 52.4096 251.909 50.2148 251.52 48.8913 254.091 C 51.9555 253.406 52.1075 254.252 51.9352 254.261 C 51.7636 254.27 50.1473 256.167 50.3034 257.451 C 52.2648 257.084 55.4851 256.832 54.6336 256.832 C 55.2418 255.25 57.7245 246.708 57.9203 245.576 z "
       id="path594"
       sodipodi:nodetypes="cccccccccccc" />
    <path
       style="fill:#8b0000;fill-rule:evenodd;stroke:#000000;stroke-opacity:1;stroke-width:1pt;stroke-linejoin:miter;stroke-linecap:butt;fill-opacity:1;"
       d="M 112.769 260.425 C 111.917 260.303 107.781 259.938 107.051 262.371 C 110.701 262.249 112.161 263.101 112.039 262.979 C 111.917 262.858 106.443 264.318 106.443 266.751 C 109.241 265.655 111.796 266.142 111.796 266.142 C 111.796 266.142 107.295 267.845 108.268 270.643 C 110.457 268.818 112.891 268.819 112.891 268.819 C 112.891 268.819 109.728 271.13 110.458 273.928 C 112.283 271.373 114.229 270.765 114.107 270.887 C 113.985 271.008 112.526 274.536 113.499 275.388 C 114.715 273.806 117.513 272.103 117.513 272.103 C 117.513 272.103 113.378 261.398 112.769 260.425 z "
       id="path593"
       sodipodi:nodetypes="cccccccccccc" />
    <path
       style="fill:#000000;fill-rule:evenodd;stroke:#000000;stroke-opacity:0.103004;stroke-width:1.25;stroke-linejoin:round;stroke-linecap:butt;fill-opacity:1;stroke-dasharray:none;"
       d="M 130.945 116.084 C 130.945 116.084 132.125 121.196 131.732 126.308 C 131.339 131.42 127.799 136.925 128.193 138.498 C 128.586 140.071 130.945 144.396 130.552 147.542 C 130.159 150.688 126.356 165.346 125.047 168.383 C 125.44 171.136 126.62 197.089 131.732 206.133 C 139.964 212.057 137.018 218.085 137.018 218.085 C 137.018 218.085 134.484 217.144 134.484 217.537 C 134.484 217.93 134.484 225.795 134.878 243.49 C 136.406 249.271 138.023 252.45 138.023 255.287 L 125.833 268.263 C 125.833 268.263 119.935 272.982 117.969 272.196 C 108.344 270.558 113.25 260.399 113.25 260.399 L 120.721 257.646 L 121.508 254.107 C 121.508 254.107 104.992 245.521 100.667 221.927 C 100.312 226.415 103.419 235.232 103.419 235.232 C 103.419 235.232 82.9713 239.951 82.5781 258.433 C 82.4686 275.212 71.0199 264.131 69.0343 262.713 C 64.279 261.722 59.8074 261.015 55.6194 258.039 C 54.4848 256.621 50.7266 245.849 58.9844 245.849 C 62.7037 247.267 66.0625 251.354 66.0625 251.354 C 66.0625 251.354 70.7812 248.995 70.388 248.602 C 69.9948 248.209 62.9167 219.896 90.8359 206.526 C 90.6729 206.205 95.1614 210.459 95.1614 210.459 C 95.1614 210.459 85.3307 201.021 86.1172 190.404 C 91.4421 186.311 92.0156 187.258 92.0156 187.258 L 76.2864 193.157 C 76.2864 193.157 57.4115 202.594 41.2891 177.427 C 43.6044 165.593 51.513 167.99 51.513 167.99 L 55.0521 173.888 C 55.0521 173.888 57.0182 178.607 65.276 177.821 C 71.8319 170.51 88.0833 164.844 87.6901 164.844 C 87.2969 164.844 81.3984 164.844 81.3984 164.844 C 81.3984 164.844 82.5781 147.935 98.3073 140.464 C 114.036 132.992 94.7682 135.352 94.7682 135.352 C 94.7682 135.352 89.6562 133.779 92.4088 129.847 C 97.998 130.169 103.812 131.813 103.812 131.813 L 103.722 128.622 L 101.453 125.521 C 101.453 125.521 104.599 128.274 104.599 127.881 C 104.599 127.487 105.908 123.946 99.2237 122.373 C 91.1 120.8 87.4285 115.797 88.8698 110.294 C 94.8717 110.05 98.7005 111.365 98.7005 111.365 C 98.7005 111.365 104.599 104.287 113.25 105.073 C 121.901 105.86 123.867 107.433 123.867 107.433 C 123.867 107.433 134.878 100.748 130.945 116.084 z "
       id="path589"
       sodipodi:nodetypes="ccccccccccccccccccccccccccccccccccccccccccccccc" />
    <path
       style="fill:#ffff58;fill-rule:evenodd;stroke:black;stroke-opacity:1;stroke-width:1.25;stroke-linejoin:round;stroke-linecap:butt;fill-opacity:1;stroke-dasharray:none;"
       d="M 32.586 99.3333 C 75.662 99.4077 118.738 99.4821 161.814 99.5565 C 161.814 99.5565 165.162 98.4405 162.26 95.7622 L 165.608 81.0315 C 165.608 81.0315 171.411 79.9157 167.84 75.4518 C 169.7 55.9598 176.47 37.5836 183.464 18.3147 C 183.464 18.3147 180.916 20.4115 177.661 20.7698 C 176.991 19.877 173.197 22.5553 173.197 22.5553 C 173.197 22.5553 171.858 19.2074 169.849 18.5379 C 169.425 21.7049 170.072 24.1176 169.403 24.564 C 168.733 25.0104 165.162 30.5903 169.179 34.3845 C 173.197 38.1788 165.608 31.2598 164.492 31.7062 C 163.376 32.1526 162.707 28.1351 162.707 28.1351 C 162.707 28.1351 159.805 32.3758 161.591 35.9469 C 155.786 39.8515 158.466 47.5528 160.252 49.7847 C 157.45 52.517 157.573 55.3644 158.243 56.0341 C 158.913 56.7037 165.608 51.1239 169.179 53.1326 C 168.913 57.2264 158.466 66.301 154.002 65.185 C 149.538 64.069 137.04 62.2 138.379 44.7911 C 140.133 47.2215 140.195 48.4236 142.405 49.0184 C 144.423 49.6376 146.637 52.6028 146.637 52.6028 C 146.637 52.6028 152.217 52.6862 148.869 46.8832 C 152.742 45.1077 154.246 38.0277 152.947 33.3099 C 153.952 29.0283 152.217 25.9032 152.217 25.9032 C 152.217 25.9032 148.423 31.9293 141.28 32.5989 C 147.817 29.8489 149.538 23.8945 149.538 23.8945 C 149.538 23.8945 148.423 14.5204 150.654 13.8508 C 152.886 13.1813 145.521 14.9669 145.521 16.306 C 145.438 12.8075 139.747 10.9494 141.087 9.38705 C 138.839 12.0785 131.237 12.7349 131.683 14.2972 C 132.13 15.8596 130.145 10.9293 128.84 11.5919 C 128.62 14.9236 127.059 18.1231 127.889 20.1002 C 126.55 20.993 133.245 31.0367 132.13 32.1526 C 130.764 29.9323 127.05 27.3798 125.657 27.4656 C 124.43 27.301 123.089 24.7533 123.871 22.7785 C 122.401 23.8898 119.408 25.0104 122.755 30.8134 C 115.093 37.784 123.425 44.6513 123.425 44.6513 C 123.425 44.6513 119.631 47.9992 122.309 50.6775 C 124.737 45.9326 127.666 47.1064 127.666 47.1064 C 127.666 47.1064 134.585 46.4368 134.585 44.8745 C 134.585 43.3121 129.032 58.9765 118.068 59.8283 C 110.858 59.2622 104.454 58.266 99.3203 42.8658 C 102.842 45.0494 103.129 46.4178 105.622 46.74 C 108.031 46.812 109.81 50.0079 109.81 50.0079 C 109.81 50.0079 114.051 47.5528 110.257 44.2049 C 118.556 40.8571 112.712 29.0279 112.712 29.0279 C 112.712 29.0279 115.39 27.6888 114.721 23.6713 C 112.967 24.9918 109.587 25.68 109.587 25.68 C 109.587 25.68 103.784 26.1264 104.007 27.912 C 104.815 25.9442 107.578 24.3409 108.471 20.993 C 109.364 17.6451 107.355 10.9493 109.81 11.1725 C 108.095 11.229 104.677 11.1726 104.677 13.6277 C 103.926 9.57703 98.2537 7.34657 97.758 4.92317 C 96.1779 7.25395 95.0797 10.0566 92.6246 8.94066 C 90.1695 7.82471 89.4999 13.6277 89.4999 13.6277 C 89.4999 13.6277 86.3659 13.9295 84.1433 11.6189 C 85.257 14.5628 87.268 25.2336 92.4014 28.3583 C 88.9628 27.5853 88.2869 26.1352 86.1352 25.9624 C 83.9835 25.8733 82.3578 23.2249 82.3578 23.2249 C 82.3578 23.2249 80.1258 26.5728 82.581 29.0279 C 75.6112 37.2381 84.1433 44.8745 84.1433 44.8745 C 84.1433 44.8745 82.1346 47.3296 84.5897 48.892 C 86.1273 46.0338 89.2767 45.5441 89.2767 45.5441 C 89.2767 45.5441 93.9707 46.2724 95.7493 42.6426 C 95.0257 46.853 90.1294 60.0786 79.2331 59.6051 C 63.8329 59.382 61.3777 45.3209 61.3777 45.3209 C 61.3777 45.3209 62.4937 47.9991 66.288 47.5528 C 70.0822 47.1064 71.8678 50.2311 71.8678 50.2311 C 71.8678 50.2311 73.6533 45.9905 72.7605 44.6513 C 78.1233 37.8906 73.4301 29.2511 73.4301 29.2511 C 73.4301 29.2511 75.662 27.0192 74.7692 24.3409 C 72.7088 27.1674 69.1895 27.912 69.1895 27.912 C 69.1895 27.912 67.1984 29.6974 64.5024 30.367 C 72.399 24.4475 67.8503 15.6363 67.8503 15.6363 C 67.8503 15.6363 68.1816 14.5359 68.7431 11.3958 C 66.3853 14.0941 63.8329 14.7436 63.8329 14.7436 C 62.832 10.2396 58.9319 8.38623 57.9465 6.9883 C 56.961 8.92662 53.0586 11.5495 51.3905 15.1359 C 50.6398 13.718 49.1022 11.6189 48.2094 12.2885 C 48.401 14.6262 46.9537 21.2478 46.8703 22.3321 C 46.7035 23.6666 49.995 30.5902 52.6733 31.0366 C 55.3516 31.483 46.2007 30.1439 46.2007 30.1439 C 45.2335 28.8047 44.2664 27.4656 43.2992 26.1264 C 43.2992 26.1264 42.0705 32.3486 43.4096 33.2414 C 37.3257 39.3889 44.4515 47.803 46.8703 47.5528 C 45.1391 50.6819 47.1611 51.6424 48.4326 52.6862 C 48.6741 50.3416 54.8375 48.5807 56.9139 44.6513 C 56.9139 44.6513 55.5748 64.5154 42.6296 63.8458 C 28.8504 63.6766 24.1047 51.7934 24.1047 51.7934 C 25.8158 52.3141 27.527 52.835 29.2381 53.3558 C 29.2381 53.3558 32.5953 53.1442 35.2643 56.2573 C 37.0158 52.9481 34.1483 50.0079 34.1483 50.0079 C 38.3456 46.3782 37.4553 39.3286 33.4788 36.6164 C 33.6906 34.1522 33.8191 31.8549 32.3628 29.4742 C 31.497 31.4536 30.6313 33.0994 29.0149 34.1613 C 27.5744 35.3157 26.7176 35.9695 25.4439 38.6252 C 26.9476 35.4351 27.7005 32.1616 27.4526 28.8047 C 25.3111 25.4004 25.8385 22.0796 26.783 18.0915 C 24.1634 18.4569 22.7115 19.3224 21.4264 21.4393 C 19.0457 19.8342 17.3323 19.6471 14.2843 19.877 C 13.2877 18.5017 11.9576 17.5438 10.0436 16.7524 C 10.0436 16.7524 13.8379 32.599 17.1858 35.9469 C 20.5336 39.2947 20.3105 47.5528 20.3105 47.5528 C 22.6168 56.7036 24.9231 65.8546 27.2294 75.0054 C 27.2294 75.0054 22.7656 77.6837 28.7917 79.6924 L 33.0324 94.1999 C 32.8092 94.1999 27.6758 98.2173 32.586 99.3333 z "
       id="path553"
       sodipodi:nodetypes="cccccccccccccccccccsccccccccccccccccccccccccccccccccccccccccccccccccccccccccccccccccccccccccccccccccccccccc" />
    <path
       style="fill:none;fill-rule:evenodd;stroke:black;stroke-opacity:1;stroke-width:1pt;stroke-linejoin:round;stroke-linecap:butt;fill-opacity:1;"
       d="M 47.6412 37.549 C 55.7347 37.2424 63.8282 36.9359 71.9217 36.6293 C 61.3757 34.6059 59.291 42.3315 58.4939 22.8335 C 58.3712 39.1431 57.3289 35.403 47.6412 37.549 z "
       id="path554"
       sodipodi:nodetypes="cccc" />
    <path
       style="fill:none;fill-rule:evenodd;stroke:black;stroke-opacity:1;stroke-width:1pt;stroke-linejoin:round;stroke-linecap:butt;fill-opacity:1;"
       d="M 126.737 36.2614 C 135.198 37.2424 137.59 37.1198 146.97 38.4687 C 137.896 35.7095 137.283 41.2277 138.141 25.2247 C 136.364 39.6948 135.872 34.8512 126.737 36.2614 z "
       id="path555"
       sodipodi:nodetypes="cccc" />
    <path
       style="fill:none;fill-rule:evenodd;stroke:black;stroke-opacity:1;stroke-width:1pt;stroke-linejoin:round;stroke-linecap:butt;fill-opacity:1;"
       d="M 47.8251 36.0774 C 56.2865 36.3227 63.8282 36.9359 71.9217 36.6293 C 61.3757 34.6059 59.8428 41.7796 58.8618 22.4656 C 58.7391 38.7752 57.6968 34.1154 47.8251 36.0774 z "
       id="path556"
       sodipodi:nodetypes="cccc"
       transform="translate(38.62802,-1.471588)" />
    <path
       style="fill:none;fill-rule:evenodd;stroke:black;stroke-opacity:1;stroke-width:1pt;stroke-linejoin:round;stroke-linecap:butt;fill-opacity:1;"
       d="M 23.3608 42.1476 L 32.19 42.6994 L 23.5447 43.4352 "
       id="path557"
       sodipodi:nodetypes="ccc" />
    <path
       style="fill:none;fill-rule:evenodd;stroke:black;stroke-opacity:1;stroke-width:1pt;stroke-linejoin:round;stroke-linecap:butt;fill-opacity:1;"
       d="M 172.539 44.3548 L 163.157 41.4118 L 172.538 42.8834 "
       id="path558"
       sodipodi:nodetypes="ccc" />
    <path
       sodipodi:type="arc"
       style="fill-rule:evenodd;stroke:#000000;fill:#ffff00;fill-opacity:1;stroke-opacity:1;stroke-width:1pt;stroke-linejoin:miter;stroke-linecap:butt;"
       id="path559"
       d="M 62.35661 36.26141 A 3.494873 3.494873 0 1 "
       sodipodi:cx="58.861740"
       sodipodi:cy="36.261414"
       sodipodi:rx="3.494873"
       sodipodi:ry="3.494873" />
    <path
       sodipodi:type="arc"
       style="fill-rule:evenodd;stroke:#000000;fill:#ffff00;fill-opacity:1;stroke-opacity:1;stroke-width:1pt;stroke-linejoin:miter;stroke-linecap:butt;"
       id="path560"
       d="M 100.8007 34.05408 A 3.494923 3.494949 0 1 "
       sodipodi:cx="97.305817"
       sodipodi:cy="34.054077"
       sodipodi:rx="3.494923"
       sodipodi:ry="3.494949" />
    <path
       sodipodi:type="arc"
       style="fill-rule:evenodd;stroke:#000000;fill:#ffff00;fill-opacity:1;stroke-opacity:1;stroke-width:1pt;stroke-linejoin:miter;stroke-linecap:butt;"
       id="path561"
       d="M 139.9806 37.18106 A 3.127022 3.126984 0 1 "
       sodipodi:cx="136.853546"
       sodipodi:cy="37.181061"
       sodipodi:rx="3.127022"
       sodipodi:ry="3.126984" />
    <path
       sodipodi:type="arc"
       style="fill-rule:evenodd;stroke:#000000;fill:#ffff00;fill-opacity:1;stroke-opacity:1;stroke-width:1pt;stroke-linejoin:miter;stroke-linecap:butt;"
       id="path562"
       d="M 178.2407 43.80307 A 3.310928 3.310928 0 1 "
       sodipodi:cx="174.929733"
       sodipodi:cy="43.803070"
       sodipodi:rx="3.310928"
       sodipodi:ry="3.310928" />
    <path
       sodipodi:type="arc"
       style="fill-rule:evenodd;stroke:#000000;fill:#ffff00;fill-opacity:1;stroke-opacity:1;stroke-width:1pt;stroke-linejoin:miter;stroke-linecap:butt;"
       id="path563"
       d="M 23.72860 43.25124 A 3.310928 3.310928 0 1 "
       sodipodi:cx="20.417667"
       sodipodi:cy="43.251236"
       sodipodi:rx="3.310928"
       sodipodi:ry="3.310928" />
    <path
       style="fill:none;fill-rule:evenodd;stroke:black;stroke-opacity:1;stroke-width:1pt;stroke-linejoin:miter;stroke-linecap:butt;fill-opacity:1;"
       d="M 23.5447 61.8294 C 23.5447 61.8294 46.1697 86.8457 60.5172 55.5754 C 82.9583 82.4311 97.1219 51.3447 97.1219 51.3447 C 97.1219 51.3447 109.814 82.0632 134.646 55.9433 C 148.994 87.5814 170.147 60.9097 170.147 60.9097 "
       id="path564"
       sodipodi:nodetypes="ccccc" />
    <path
       style="fill:none;fill-rule:evenodd;stroke:black;stroke-opacity:1;stroke-width:1pt;stroke-linejoin:miter;stroke-linecap:butt;fill-opacity:1;"
       d="M 28.5112 79.488 C 28.5112 79.488 57.942 69.555 84.4298 70.8426 "
       id="path567"
       sodipodi:nodetypes="cc" />
    <path
       style="fill:none;fill-rule:evenodd;stroke:black;stroke-opacity:1;stroke-width:1pt;stroke-linejoin:miter;stroke-linecap:butt;fill-opacity:1;"
       d="M 31.0864 86.2938 C 31.4542 86.2938 75.9684 76.177 83.5101 78.7522 "
       id="path568" />
    <path
       style="fill:none;fill-rule:evenodd;stroke:black;stroke-opacity:1;stroke-width:1pt;stroke-linejoin:miter;stroke-linecap:butt;fill-opacity:1;"
       d="M 33.2937 94.3873 C 33.2937 94.3873 75.7845 85.1902 83.694 87.0296 "
       id="path569" />
    <path
       style="fill:none;fill-rule:evenodd;stroke:black;stroke-opacity:1;stroke-width:1pt;stroke-linejoin:miter;stroke-linecap:butt;fill-opacity:1;"
       d="M 72.2896 71.0266 L 73.9451 78.7522 "
       id="path570" />
    <path
       style="fill:none;fill-rule:evenodd;stroke:black;stroke-opacity:1;stroke-width:1pt;stroke-linejoin:miter;stroke-linecap:butt;fill-opacity:1;"
       d="M 50.4004 73.9697 L 50.7683 82.4311 "
       id="path571" />
    <path
       style="fill:none;fill-rule:evenodd;stroke:black;stroke-opacity:1;stroke-width:1pt;stroke-linejoin:miter;stroke-linecap:butt;fill-opacity:1;"
       d="M 61.0691 80.4077 L 62.9085 88.8691 "
       id="path572" />
    <path
       style="fill:none;fill-rule:evenodd;stroke:black;stroke-opacity:1;stroke-width:1pt;stroke-linejoin:miter;stroke-linecap:butt;fill-opacity:1;"
       d="M 39.5477 85.0062 C 39.3638 85.0062 41.755 92.9158 41.755 92.9158 "
       id="path573" />
    <path
       style="fill:none;fill-rule:evenodd;stroke:black;stroke-opacity:1;stroke-width:1pt;stroke-linejoin:miter;stroke-linecap:butt;fill-opacity:1;"
       d="M 103.192 65.6923 C 103.192 65.6923 140.716 67.8996 167.94 75.8091 "
       id="path574" />
    <path
       style="fill:none;fill-rule:evenodd;stroke:black;stroke-opacity:1;stroke-width:1pt;stroke-linejoin:miter;stroke-linecap:butt;fill-opacity:1;"
       d="M 108.158 70.6587 C 108.158 70.6587 162.054 75.4413 166.284 81.3274 "
       id="path575" />
    <path
       style="fill:none;fill-rule:evenodd;stroke:black;stroke-opacity:1;stroke-width:1pt;stroke-linejoin:miter;stroke-linecap:butt;fill-opacity:1;"
       d="M 109.998 78.7522 C 109.998 78.7522 159.295 82.9829 164.077 87.9493 "
       id="path576" />
    <path
       style="fill:none;fill-rule:evenodd;stroke:black;stroke-opacity:1;stroke-width:1pt;stroke-linejoin:miter;stroke-linecap:butt;fill-opacity:1;"
       d="M 109.998 87.2136 C 109.998 87.2136 158.191 91.2603 162.238 95.6749 "
       id="path577" />
    <path
       style="fill:none;fill-rule:evenodd;stroke:black;stroke-opacity:1;stroke-width:2.5;stroke-linejoin:miter;stroke-linecap:round;fill-opacity:1;stroke-dasharray:none;"
       d="M 37.8922 99.5378 C 37.8922 99.3538 98.0418 82.2472 153.961 99.1699 "
       id="path578"
       sodipodi:nodetypes="cc" />
    <path
       style="fill:none;fill-rule:evenodd;stroke:black;stroke-opacity:1;stroke-width:1pt;stroke-linejoin:miter;stroke-linecap:butt;fill-opacity:1;"
       d="M 121.586 72.3142 L 120.851 79.8559 "
       id="path579" />
    <path
       style="fill:none;fill-rule:evenodd;stroke:black;stroke-opacity:1;stroke-width:1pt;stroke-linejoin:miter;stroke-linecap:butt;fill-opacity:1;"
       d="M 146.603 75.4413 L 144.395 82.9829 "
       id="path580" />
    <path
       style="fill:none;fill-rule:evenodd;stroke:black;stroke-opacity:1;stroke-width:1pt;stroke-linejoin:miter;stroke-linecap:butt;fill-opacity:1;"
       d="M 155.616 84.8223 L 153.776 93.0997 "
       id="path581" />
    <path
       style="fill:none;fill-rule:evenodd;stroke:black;stroke-opacity:1;stroke-width:1pt;stroke-linejoin:miter;stroke-linecap:butt;fill-opacity:1;"
       d="M 133.91 81.5114 C 133.91 81.6953 132.623 89.7888 132.623 89.7888 "
       id="path582" />
    <path
       style="fill:none;fill-rule:evenodd;stroke:black;stroke-opacity:1;stroke-width:1pt;stroke-linejoin:miter;stroke-linecap:butt;fill-opacity:1;"
       d="M 96.57 69.1871 L 96.9379 92.364 "
       id="path583" />
    <path
       style="fill:none;fill-rule:evenodd;stroke:black;stroke-opacity:1;stroke-width:1pt;stroke-linejoin:miter;stroke-linecap:butt;fill-opacity:1;"
       d="M 87.5568 92.1801 L 87.9247 76.177 C 88.1086 67.5317 105.032 67.1638 105.767 76.361 L 105.583 91.9961 "
       id="path584"
       sodipodi:nodetypes="cccc" />
    <path
       style="fill:none;fill-rule:evenodd;stroke:black;stroke-opacity:1;stroke-width:1pt;stroke-linejoin:miter;stroke-linecap:butt;fill-opacity:1;"
       d="M 83.694 92.364 L 83.694 73.6018 C 83.694 68.4514 90.4999 63.8528 94.1788 64.4046 "
       id="path585"
       sodipodi:nodetypes="ccc" />
    <path
       style="fill:none;fill-rule:evenodd;stroke:black;stroke-opacity:1;stroke-width:1pt;stroke-linejoin:miter;stroke-linecap:butt;fill-opacity:1;"
       d="M 99.6971 64.5886 C 102.456 64.4047 109.446 68.8194 109.63 73.7858 L 109.998 92.5479 "
       id="path586"
       sodipodi:nodetypes="ccc" />
    <path
       style="fill:none;fill-rule:evenodd;stroke:black;stroke-opacity:1;stroke-width:1.25;stroke-linejoin:round;stroke-linecap:butt;fill-opacity:1;stroke-dasharray:none;"
       d="M 93.2591 61.4615 L 99.6971 61.4615 C 99.6971 61.4615 98.7774 69.371 96.754 69.371 C 93.9948 69.1871 93.0751 61.6455 93.2591 61.4615 z "
       id="path587"
       sodipodi:nodetypes="cccc" />
    <path
       style="fill:none;fill-rule:evenodd;stroke:black;stroke-opacity:1;stroke-width:1pt;stroke-linejoin:miter;stroke-linecap:butt;fill-opacity:1;"
       d="M 27.2236 75.0734 C 27.2236 74.8894 67.1392 64.4046 89.0284 66.2441 "
       id="path588" />
    <path
       style="fill:#000000;fill-rule:evenodd;stroke:#000000;stroke-opacity:1;stroke-width:1pt;stroke-linejoin:miter;stroke-linecap:butt;fill-opacity:1;"
       d="M 80.0407 164.399 C 80.9342 159.141 83.038 153.455 87.1621 147.631 C 79.5033 145.361 65.2412 139.836 64.6739 139.552 C 64.1066 139.269 58.4334 138.134 58.4334 132.461 C 58.4334 126.788 55.8805 123.667 55.8805 123.667 C 55.8805 123.667 45.1015 119.413 45.1015 129.341 C 45.1015 139.269 54.1786 150.331 58.1498 153.168 C 62.121 156.004 75.7859 164.399 80.0407 164.399 z "
       id="path590"
       sodipodi:nodetypes="cccccccc" />
    <path
       style="fill:none;fill-rule:evenodd;stroke:#ffffff;stroke-opacity:1;stroke-width:1.25;stroke-linejoin:miter;stroke-linecap:round;fill-opacity:1;stroke-dasharray:none;"
       d="M 127.362 108.35 C 127.362 108.35 123.107 109.485 122.54 113.172 "
       id="path591" />
    <path
       style="font-size:12;fill:#ffffff;fill-rule:evenodd;stroke:#000000;stroke-width:1.16508pt;stroke-linejoin:round;"
       d="M 101.871 112.442 C 102.599 110.895 104.863 110.132 106.666 110.655 C 108.47 111.179 109.812 112.987 108.697 116.583 C 106.922 115.627 106.001 114.864 105.699 113.408 C 103.668 113.636 101.894 112.533 101.871 112.442 z "
       id="path592"
       sodipodi:nodetypes="csccc" />
    <path
       style="fill:#ffffff;fill-rule:evenodd;stroke:black;stroke-opacity:1;stroke-width:0.625;stroke-linejoin:round;stroke-linecap:butt;fill-opacity:1;stroke-dasharray:none;"
       d="M 92.8185 131.112 L 93.7917 128.629 L 94.3999 131.233 L 96.8021 128.925 L 98.536 131.841 L 99.9123 129.362 C 99.9123 129.362 101.577 130.138 101.577 132.328 C 98.1708 130.625 92.5752 131.355 92.8185 131.112 z "
       id="path602"
       sodipodi:nodetypes="cccccccc" />
    <path
       style="fill:#ffffff;fill-rule:evenodd;stroke:black;stroke-opacity:1;stroke-width:0.625;stroke-linejoin:round;stroke-linecap:butt;fill-opacity:1;stroke-dasharray:none;"
       d="M 91.0788 118.065 C 90.9571 120.254 90.2654 121.254 91.8467 122.592 C 93.4283 120.524 92.9035 119.281 92.9035 119.281 C 92.9035 119.281 93.6716 123.322 95.0097 123.565 C 96.4696 121.497 96.553 120.011 96.553 120.011 C 96.553 120.011 96.956 122.957 98.1726 123.687 C 100.728 121.984 100.689 122.079 100.689 122.079 C 97.6074 121.714 94.6472 120.255 91.0788 118.065 z "
       id="path603"
       sodipodi:nodetypes="cccccccc" />
    <path
       style="font-size:12;fill:#ff0000;fill-rule:evenodd;stroke:#000000;stroke-width:1.25;stroke-linejoin:round;"
       d="M 84.4247 120.041 C 84.5463 120.285 87.8308 123.447 91.9669 123.69 C 96.1031 123.934 104.811 123.992 105.011 126.85 C 105.53 130.507 97.9277 127.097 97.9277 127.097 C 97.9277 127.097 89.0473 126.854 88.6824 126.854 C 88.3174 126.854 83.2082 126.854 84.4247 120.041 z "
       id="path597"
       sodipodi:nodetypes="cccccc" />
    <path
       style="font-size:12;fill:none;fill-rule:evenodd;stroke:#000000;stroke-width:1.25;stroke-linecap:round;"
       d="M 98.9009 125.637 C 99.1442 125.637 104.375 127.584 104.375 127.584 "
       id="path598" />
    <path
       style="fill:none;fill-rule:evenodd;stroke:#ffffff;stroke-opacity:1;stroke-width:1.25;stroke-linejoin:miter;stroke-linecap:round;fill-opacity:1;stroke-dasharray:none;"
       d="M 100.786 222.495 C 100.786 222.495 100.786 229.391 104.206 235.625 "
       id="path606"
       sodipodi:nodetypes="cc" />
    <path
       style="fill:none;fill-rule:evenodd;stroke:#ffffff;stroke-opacity:1;stroke-width:1.25;stroke-linejoin:miter;stroke-linecap:round;fill-opacity:1;stroke-dasharray:none;"
       d="M 90.8359 206.526 C 90.8359 206.526 91.967 208.824 95.2807 210.887 "
       id="path607"
       sodipodi:nodetypes="cc" />
    <path
       style="fill:none;fill-rule:evenodd;stroke:#ffffff;stroke-opacity:1;stroke-width:1.25;stroke-linejoin:miter;stroke-linecap:round;fill-opacity:1;stroke-dasharray:none;"
       d="M 85.0435 190.523 C 85.0435 190.523 91.2292 188.045 91.6224 187.651 "
       id="path608"
       sodipodi:nodetypes="cc" />
  </g>
</svg>
