<?xml version="1.0" encoding="UTF-8" standalone="no"?>
<!DOCTYPE svg PUBLIC "-//W3C//DTD SVG 20010904//EN"
"http://www.w3.org/TR/2001/REC-SVG-20010904/DTD/svg10.dtd"
[
 <!ATTLIST svg
  xmlns:xlink CDATA #FIXED "http://www.w3.org/1999/xlink">
]>
<!-- Created with Sodipodi ("http://www.sodipodi.com/") -->
<svg
   xmlns="http://www.w3.org/2000/svg"
   xmlns:xlink="http://www.w3.org/1999/xlink"
   version="1"
   x="0.00000000"
   y="0.00000000"
   width="1062.99207"
   height="921.259827"
   id="svg548">
  <defs
     id="defs550" />
  <g
     style="font-size:12;"
     id="g699">
    <g
       id="g563">
      <path
         d="M 85.8188 713.434 L 84.7849 692.754 "
         style="fill:none;fill-rule:evenodd;stroke:#000000;stroke-width:1pt;"
         id="path552" />
      <path
         d="M 78.5811 685.517 L 77.5471 582.12 "
         style="fill:none;fill-rule:evenodd;stroke:#000000;stroke-width:1pt;"
         id="path553" />
      <path
         d="M 94.0905 566.611 L 94.0905 476.656 "
         style="fill:none;fill-rule:evenodd;stroke:#000000;stroke-width:1pt;"
         id="path554" />
      <path
         d="M 84.7849 712.4 L 83.7509 691.72 L 79.615 687.584 L 77.5471 582.12 L 94.0905 566.611 L 95.1245 476.656 L 88.9207 468.385 L 79.615 468.385 L 80.649 439.434 L 85.8188 409.449 L 97.1924 377.396 L 109.6 345.343 L 120.974 321.562 L 119.94 284.339 L 108.566 279.17 L 114.77 265.728 L 114.77 258.49 L 106.498 258.49 L 113.736 242.981 L 113.736 239.879 L 108.566 237.811 L 118.906 218.166 L 135.449 193.351 L 153.026 172.672 L 157.162 164.4 L 151.992 153.026 L 146.823 146.822 L 178.875 146.822 L 185.079 137.517 L 183.011 123.041 L 176.807 116.838 L 138.551 112.702 L 107.532 111.668 L 95.1245 107.532 L 86.8528 100.294 L 79.615 88.9207 L 76.5132 64.1056 L 76.2539 55.329 L 77.0285 48.2999 L 86.0816 48.3 L 87.8867 61.0037 L 89.9547 73.4112 L 97.1924 77.5471 L 104.43 73.4112 L 103.396 58.9358 L 103.399 48.3 L 112.975 48.3 L 113.736 55.8339 L 113.736 67.2075 L 118.906 78.5811 L 129.245 74.4453 L 129.245 59.9698 L 128.477 48.3 L 137.544 48.3 L 137.517 53.766 L 139.585 71.3433 L 143.721 83.7509 L 148.631 89.6954 L 155.874 88.1512 L 160.005 82.4576 L 158.452 69.2754 L 158.203 62.5632 L 156.125 48.3 L 165.441 48.3 L 166.468 61.0037 L 167.502 71.3433 L 172.672 76.5131 L 180.943 76.5131 L 183.53 63.8463 L 181.977 48.3 L 191.293 48.3 L 192.317 61.5327 L 192.566 72.1214 L 190.249 83.7509 L 185.079 93.0565 L 185.079 103.396 L 190.249 111.668 L 202.656 118.906 L 217.132 116.838 L 225.404 107.532 L 228.506 95.1244 L 227.472 86.8528 L 218.166 78.5811 L 214.03 69.2754 L 216.098 57.9018 L 218.159 48.3 L 226.438 48.3 L 224.37 63.0717 L 226.438 72.3773 L 230.573 77.5471 L 241.947 78.5811 L 246.083 71.3433 L 246.083 57.9018 L 245.564 48.3 L 254.096 48.3 L 255.389 64.1056 L 257.456 72.3773 L 262.626 77.5471 L 271.932 74.4453 L 272.966 64.1056 L 268.564 48.3 L 276.843 48.3 L 281.238 63.0717 L 283.305 72.3773 L 289.509 77.5471 L 296.747 75.4792 L 296.747 61.0037 L 293.382 48.3 L 302.176 48.3 L 306.053 67.2075 L 305.019 86.8528 L 298.815 97.1924 L 284.339 108.566 L 263.66 113.736 L 242.981 115.804 L 231.607 122.007 L 228.506 130.279 L 230.573 140.619 L 244.015 145.789 L 262.626 146.822 L 274 148.89 L 277.622 153.284 L 279.17 158.196 L 279.17 167.502 L 274 171.638 L 255.389 172.672 L 252.287 176.807 L 254.355 183.011 L 270.898 185.079 L 267.796 191.283 L 237.811 192.317 L 236.777 226.438 L 205.758 195.419 L 199.555 206.792 L 199.555 216.098 L 205.758 228.506 L 220.234 240.913 L 242.981 258.49 L 247.117 272.966 L 251.253 289.509 L 253.321 319.494 L 251.253 351.547 L 295.713 439.434 L 337.071 529.388 L 315.358 503.539 L 287.441 442.536 L 229.539 363.954 L 154.06 433.23 L 147.857 449.773 L 145.789 464.249 L 144.755 540.762 L 89.9547 599.698 L 89.9547 714.467 L 84.7849 712.4 z "
         style="fill-rule:evenodd;stroke-width:1pt;"
         id="path559" />
      <path
         d="M 173.706 425.992 L 163.366 435.298 L 157.162 446.671 L 154.06 462.181 L 151.992 485.962 L 197.487 548 L 195.419 586.256 L 189.215 591.426 L 257.456 712.4 L 261.592 711.366 L 210.928 614.173 L 231.607 516.981 L 227.472 506.641 L 173.706 425.992 z "
         style="fill-rule:evenodd;stroke:#000000;stroke-width:1pt;"
         id="path561" />
      <path
         d="M 259.524 335.004 L 258.49 307.087 L 339.139 249.185 L 441.502 251.253 L 441.502 258.49 L 346.377 258.49 L 259.524 335.004 z "
         style="fill-rule:evenodd;stroke-width:1pt;"
         id="path562" />
    </g>
    <g
       id="g573">
      <path
         d="M 1000.87 716.535 L 1001.91 604.868 L 946.075 542.83 L 946.075 459.079 L 942.973 445.637 L 934.701 433.23 L 917.124 417.72 L 868.528 370.158 L 860.256 366.022 L 820.966 424.958 L 804.422 442.536 L 795.117 467.351 L 781.675 497.336 L 762.03 530.422 L 756.86 531.456 L 797.184 440.468 L 816.83 404.279 L 841.645 355.683 L 842.679 290.543 L 846.815 277.102 L 851.984 276.068 L 851.984 263.66 L 863.358 259.524 L 862.324 248.151 L 876.799 245.049 L 875.766 237.811 L 889.207 234.709 L 906.784 222.302 L 915.056 207.826 L 914.022 196.453 L 907.818 186.113 L 901.615 185.079 L 894.377 187.147 L 888.173 191.283 L 861.29 191.283 L 858.965 188.951 L 859.208 181.47 L 869.562 181.977 L 872.664 178.875 L 872.664 173.706 L 868.528 171.638 L 856.12 169.57 L 850.95 167.502 L 847.849 160.264 L 847.849 156.128 L 855.086 154.06 L 888.173 155.094 L 893.343 151.992 L 896.445 145.789 L 893.343 138.551 L 883.003 138.551 L 875.766 137.517 L 872.664 135.449 L 868.528 127.177 L 866.46 118.906 L 868.528 113.736 L 873.698 112.702 L 874.732 116.838 L 876.799 124.075 L 878.867 128.211 L 887.139 131.313 L 889.207 125.109 L 887.139 117.872 L 889.207 113.736 L 893.343 112.702 L 893.343 118.906 L 895.411 126.143 L 902.649 130.279 L 911.954 130.279 L 917.124 127.177 L 921.26 116.838 L 914.022 106.498 L 898.513 97.1924 L 874.732 87.8867 L 857.154 80.649 L 848.883 73.4112 L 845.781 64.1056 L 841.645 53.766 L 842.679 46.5282 L 847.849 45.4943 L 851.984 49.6301 L 854.052 58.9358 L 856.12 66.1735 L 861.29 72.3773 L 871.63 72.3773 L 873.698 67.2075 L 873.698 55.8339 L 874.732 48.5962 L 879.901 45.4943 L 883.003 49.6301 L 883.003 62.0376 L 880.935 71.3433 L 883.003 80.649 L 887.139 82.7169 L 894.377 80.649 L 898.513 72.3773 L 904.716 61.0037 L 907.818 55.8339 L 911.954 57.9018 L 911.954 64.1056 L 906.784 71.3433 L 903.682 79.615 L 901.615 85.8188 L 906.784 92.0225 L 912.988 90.9886 L 921.26 84.7848 L 928.498 76.5131 L 933.667 73.4112 L 937.803 74.4453 L 937.803 78.5811 L 932.633 83.7509 L 928.498 87.8867 L 922.294 95.1244 L 921.26 101.328 L 925.396 105.464 L 935.228 103.41 L 944.764 96.4358 L 950.211 96.1584 L 952.279 102.362 L 946.075 107.532 L 938.837 111.668 L 932.633 117.872 L 930.565 120.973 L 929.532 128.211 L 933.667 132.347 L 942.973 131.313 L 953.313 124.075 L 963.652 110.634 L 965.72 100.294 L 966.754 85.8188 L 962.618 75.4792 L 956.415 67.2075 L 948.143 58.9358 L 940.905 51.6981 L 941.932 46.7918 L 947.109 44.4604 L 955.381 53.766 L 962.361 58.9358 L 971.154 51.1913 L 976.587 44.724 L 983.298 50.6641 L 972.958 63.0717 L 968.822 69.2754 L 969.856 75.4792 L 979.162 77.5471 L 986.399 70.3094 L 994.185 64.8622 L 1003.99 57.6518 L 1008.11 64.1056 L 991.569 77.5471 L 978.128 84.7848 L 975.026 90.9886 L 977.094 99.2603 L 986.399 98.2263 L 999.841 94.0905 L 1016.38 86.8528 L 1019.49 93.0565 L 1010.18 99.2603 L 980.196 108.566 L 973.992 111.668 L 970.89 114.77 L 971.924 118.906 L 975.026 120.973 L 1016.38 120.973 L 1016.38 130.279 L 960.55 130.279 L 954.347 132.347 L 942.973 139.585 L 940.905 144.755 L 946.075 150.958 L 970.89 151.992 L 959.516 168.536 L 959.516 194.385 L 953.313 227.472 L 944.007 258.49 L 935.735 290.543 L 935.735 312.256 L 947.109 339.139 L 977.094 378.43 L 1001.91 418.754 L 1013.28 440.468 L 1015.35 462.181 L 1013.28 472.52 L 1003.98 472.52 L 998.807 480.792 L 996.739 498.37 L 997.773 567.645 L 1010.18 585.222 L 1012.25 690.686 L 1006.04 693.788 L 1005 716.46 L 1000.87 716.535 z "
         style="fill-rule:evenodd;stroke-width:1pt;"
         id="path570" />
      <path
         d="M 833.373 338.105 L 833.373 310.188 L 756.86 253.321 L 649.328 252.287 L 649.328 260.558 L 747.554 261.592 L 833.373 338.105 z "
         style="fill-rule:evenodd;stroke-width:1pt;"
         id="path571" />
      <path
         d="M 826.135 714.467 L 877.833 616.241 L 877.833 604.868 L 868.528 561.441 L 859.222 522.151 L 860.256 511.811 L 885.071 475.622 L 906.784 443.57 L 915.056 433.23 L 922.294 431.162 L 929.532 436.332 L 935.735 448.739 L 938.837 463.215 L 938.837 489.064 L 933.667 498.37 L 914.022 526.286 L 896.445 552.135 L 894.377 562.475 L 895.411 588.324 L 900.581 590.392 L 898.513 598.664 L 849.917 691.72 L 846.815 692.754 L 831.305 716.535 L 826.135 714.467 z "
         style="fill-rule:evenodd;stroke-width:1pt;"
         id="path572" />
    </g>
    <g
       id="g585">
      <path
         d="M 434.264 164.4 L 435.298 140.619 L 465.283 117.872 L 484.928 135.449 L 486.996 141.653 L 457.011 148.89 L 453.909 176.807 L 446.671 175.773 L 434.264 164.4 z "
         style="fill-rule:evenodd;stroke-width:1pt;"
         id="path577" />
      <path
         d="M 551.102 191.283 C 550.068 191.283 559.373 180.943 559.373 180.943 L 567.645 176.807 L 575.917 166.468 L 577.985 144.755 L 582.12 140.619 L 599.698 140.619 L 606.936 145.789 L 611.071 150.958 L 607.969 156.128 L 600.732 164.4 L 597.63 173.706 L 581.086 191.283 L 551.102 191.283 z "
         style="fill-rule:evenodd;stroke-width:1pt;"
         id="path578" />
      <path
         d="M 475.622 191.283 L 488.03 176.807 L 494.234 165.434 L 497.336 145.789 L 493.2 136.483 L 420.822 67.2075 L 418.754 59.9698 L 424.958 57.9018 L 442.536 57.9018 L 453.909 54.7999 L 463.215 50.6641 L 473.554 54.7999 L 509.743 56.8679 L 522.151 59.9698 L 537.66 65.1395 L 561.441 64.1056 L 572.815 58.9358 L 600.732 58.9358 L 615.207 65.1395 L 633.819 78.5811 L 646.226 94.0905 L 655.532 118.906 L 657.6 157.162 L 655.532 169.57 L 648.294 185.079 L 644.158 191.283 L 617.275 191.283 L 630.717 175.773 L 633.819 161.298 L 624.513 149.924 L 606.936 137.517 L 593.494 133.381 L 568.679 134.415 L 534.558 136.483 L 525.253 137.517 L 522.151 158.196 L 521.117 172.672 L 506.641 191.283 L 475.622 191.283 z "
         style="fill-rule:evenodd;stroke-width:1pt;"
         id="path579" />
    </g>
    <g
       id="g594">
      <path
         d="M 431.685 229.539 C 431.685 229.539 424.088 229.539 423.816 217.703 C 423.545 204.724 431.142 204.724 430.871 204.724 L 659.873 204.724 C 659.873 204.724 667.199 204.724 667.47 217.16 C 667.199 229.539 660.416 229.539 660.416 229.539 L 431.685 229.539 z "
         style="fill:#006634;fill-rule:evenodd;stroke-width:1pt;"
         id="path589" />
      <path
         d="M 506.029 225.404 C 506.029 225.404 497.347 208.86 497.347 208.86 L 536.69 208.86 L 545.915 225.404 L 506.029 225.404 z "
         style="fill:#ce9800;fill-rule:evenodd;stroke-width:1pt;"
         id="path591" />
      <path
         d="M 431.413 225.404 C 431.413 225.404 426.801 224.918 426.258 216.889 C 426.53 208.86 431.142 208.86 431.142 208.86 L 457.19 208.86 L 466.957 225.404 L 431.413 225.404 z "
         transform="translate(1.627960,2.441406e-4)"
         style="fill:#ce9800;fill-rule:evenodd;stroke-width:1pt;"
         id="path592" />
      <path
         d="M 506.029 225.404 C 506.029 225.404 497.347 208.86 497.347 208.86 L 536.69 208.86 L 545.915 225.404 L 506.029 225.404 z "
         transform="translate(78.95683,2.441406e-4)"
         style="fill:#ce9800;fill-rule:evenodd;stroke-width:1pt;"
         id="path593" />
    </g>
    <g
       id="g649">
      <path
         d="M 78.5811 793.049 L 78.5811 728.943 L 347.411 728.943 L 410.483 793.049 L 78.5811 793.049 z "
         style="fill:#bd7657;fill-rule:evenodd;stroke-width:1pt;"
         id="path643" />
      <path
         d="M 347.411 802.354 L 347.411 824.067 L 410.483 876.799 L 410.483 802.354 L 347.411 802.354 z "
         style="fill:#bd7657;fill-rule:evenodd;stroke-width:1pt;"
         id="path644" />
      <path
         d="M 420.822 824.067 L 420.822 886.105 L 668.973 886.105 L 668.973 824.067 L 420.822 824.067 z "
         style="fill:#bd7657;fill-rule:evenodd;stroke-width:1pt;"
         id="path645" />
      <path
         d="M 678.279 876.799 L 678.279 802.354 L 741.351 802.354 L 741.351 824.067 L 678.279 876.799 z "
         style="fill:#bd7657;fill-rule:evenodd;stroke-width:1pt;"
         id="path646" />
      <path
         d="M 678.279 793.049 C 678.279 793.049 741.351 728.943 742.384 728.943 L 1012.25 728.943 L 1012.25 793.049 L 678.279 793.049 z "
         style="fill:#bd7657;fill-rule:evenodd;stroke-width:1pt;"
         id="path647" />
      <path
         d="M 294.877 742.696 L 294.877 750.289 L 289.017 750.289 L 289.017 780.641 L 279.15 780.641 L 279.15 750.289 L 273.314 750.289 L 273.314 742.696 L 294.877 742.696 z M 271.041 742.696 L 271.041 780.641 L 261.174 780.641 L 261.174 742.696 L 271.041 742.696 z M 237.08 742.696 L 247.017 742.696 C 249.705 742.696 251.767 742.907 253.205 743.328 C 254.658 743.75 255.744 744.36 256.463 745.157 C 257.197 745.953 257.689 746.922 257.939 748.063 C 258.205 749.188 258.338 750.938 258.338 753.313 L 258.338 756.617 C 258.338 759.039 258.088 760.805 257.588 761.914 C 257.088 763.024 256.166 763.875 254.822 764.469 C 253.494 765.063 251.752 765.36 249.596 765.36 L 246.947 765.36 L 246.947 780.641 L 237.08 780.641 L 237.08 742.696 z M 246.947 749.188 L 246.947 758.844 C 247.228 758.86 247.471 758.867 247.674 758.867 C 248.58 758.867 249.205 758.649 249.549 758.211 C 249.908 757.758 250.088 756.828 250.088 755.422 L 250.088 752.305 C 250.088 751.008 249.885 750.164 249.478 749.774 C 249.072 749.383 248.228 749.188 246.947 749.188 z M 217.135 742.696 L 233.588 742.696 L 233.588 750.289 L 227.002 750.289 L 227.002 757.485 L 233.166 757.485 L 233.166 764.703 L 227.002 764.703 L 227.002 773.047 L 234.244 773.047 L 234.244 780.641 L 217.135 780.641 L 217.135 742.696 z M 213.596 759.242 L 203.728 759.242 L 203.728 752.633 C 203.728 750.711 203.619 749.516 203.4 749.047 C 203.197 748.563 202.736 748.321 202.017 748.321 C 201.205 748.321 200.689 748.61 200.471 749.188 C 200.252 749.766 200.142 751.016 200.142 752.938 L 200.142 770.563 C 200.142 772.407 200.252 773.61 200.471 774.172 C 200.689 774.735 201.182 775.016 201.947 775.016 C 202.682 775.016 203.158 774.735 203.377 774.172 C 203.611 773.61 203.728 772.289 203.728 770.211 L 203.728 765.453 L 213.596 765.453 L 213.596 766.93 C 213.596 770.852 213.314 773.633 212.752 775.274 C 212.205 776.914 210.978 778.352 209.072 779.586 C 207.182 780.821 204.846 781.438 202.064 781.438 C 199.174 781.438 196.791 780.914 194.916 779.867 C 193.041 778.821 191.799 777.375 191.189 775.532 C 190.58 773.672 190.275 770.883 190.275 767.164 L 190.275 756.078 C 190.275 753.344 190.369 751.297 190.557 749.938 C 190.744 748.563 191.299 747.242 192.221 745.977 C 193.158 744.711 194.447 743.719 196.088 743 C 197.744 742.266 199.642 741.899 201.783 741.899 C 204.689 741.899 207.088 742.461 208.978 743.586 C 210.869 744.711 212.111 746.117 212.705 747.805 C 213.299 749.477 213.596 752.086 213.596 755.633 L 213.596 759.242 z M 186.596 742.696 L 186.596 780.641 L 177.947 780.641 L 172.814 763.391 L 172.814 780.641 L 164.564 780.641 L 164.564 742.696 L 172.814 742.696 L 178.346 759.782 L 178.346 742.696 L 186.596 742.696 z M 160.603 742.696 L 160.603 780.641 L 150.736 780.641 L 150.736 742.696 L 160.603 742.696 z M 140.025 742.696 L 140.025 750.289 L 134.166 750.289 L 134.166 780.641 L 124.299 780.641 L 124.299 750.289 L 118.463 750.289 L 118.463 742.696 L 140.025 742.696 z M 118.463 742.696 L 113.447 780.641 L 98.4706 780.641 L 92.7753 742.696 L 103.182 742.696 C 104.385 753.149 105.244 761.985 105.76 769.203 C 106.275 761.907 106.814 755.422 107.377 749.75 L 108.057 742.696 L 118.463 742.696 z "
         transform="translate(0.000000,-0.672546)"
         style="font-size:48;font-weight:normal;fill:#ffffff;stroke-width:1pt;font-family:Impact;"
         id="path627" />
      <path
         d="M 599.65 846.203 L 590.486 846.203 L 590.486 843.39 C 590.486 842.078 590.369 841.242 590.134 840.882 C 589.9 840.523 589.509 840.343 588.962 840.343 C 588.369 840.343 587.916 840.585 587.603 841.07 C 587.306 841.554 587.158 842.289 587.158 843.273 C 587.158 844.539 587.33 845.492 587.673 846.132 C 588.001 846.773 588.931 847.546 590.462 848.453 C 594.853 851.062 597.619 853.203 598.759 854.874 C 599.9 856.546 600.47 859.242 600.47 862.96 C 600.47 865.664 600.15 867.656 599.509 868.937 C 598.884 870.218 597.666 871.296 595.853 872.171 C 594.041 873.031 591.931 873.46 589.525 873.46 C 586.884 873.46 584.626 872.96 582.751 871.96 C 580.892 870.96 579.673 869.687 579.095 868.14 C 578.517 866.593 578.228 864.398 578.228 861.554 L 578.228 859.07 L 587.392 859.07 L 587.392 863.687 C 587.392 865.109 587.517 866.023 587.767 866.429 C 588.033 866.835 588.494 867.039 589.15 867.039 C 589.806 867.039 590.291 866.781 590.603 866.265 C 590.931 865.749 591.095 864.984 591.095 863.968 C 591.095 861.734 590.791 860.273 590.181 859.585 C 589.556 858.898 588.017 857.749 585.564 856.14 C 583.111 854.515 581.486 853.335 580.689 852.601 C 579.892 851.867 579.228 850.851 578.697 849.554 C 578.181 848.257 577.923 846.601 577.923 844.585 C 577.923 841.679 578.291 839.554 579.025 838.21 C 579.775 836.867 580.978 835.82 582.634 835.07 C 584.291 834.304 586.291 833.921 588.634 833.921 C 591.197 833.921 593.376 834.335 595.173 835.164 C 596.986 835.992 598.181 837.039 598.759 838.304 C 599.353 839.554 599.65 841.687 599.65 844.703 L 599.65 846.203 z M 574.783 834.718 L 574.783 872.664 L 564.916 872.664 L 564.916 834.718 L 574.783 834.718 z M 556.525 834.718 L 556.525 865.07 L 562.525 865.07 L 562.525 872.664 L 546.658 872.664 L 546.658 834.718 L 556.525 834.718 z M 526.712 834.718 L 543.166 834.718 L 543.166 842.312 L 536.58 842.312 L 536.58 849.507 L 542.744 849.507 L 542.744 856.726 L 536.58 856.726 L 536.58 865.07 L 543.822 865.07 L 543.822 872.664 L 526.712 872.664 L 526.712 834.718 z M 500.181 834.718 L 507.564 834.718 C 512.33 834.718 515.548 834.937 517.22 835.374 C 518.908 835.812 520.189 836.531 521.064 837.531 C 521.939 838.531 522.486 839.648 522.705 840.882 C 522.923 842.101 523.033 844.507 523.033 848.101 L 523.033 861.39 C 523.033 864.796 522.869 867.078 522.541 868.234 C 522.228 869.374 521.673 870.273 520.876 870.929 C 520.08 871.57 519.095 872.023 517.923 872.289 C 516.751 872.539 514.986 872.664 512.626 872.664 L 500.181 872.664 L 500.181 834.718 z M 510.048 841.21 L 510.048 866.171 C 511.47 866.171 512.345 865.89 512.673 865.328 C 513.001 864.749 513.166 863.195 513.166 860.664 L 513.166 845.921 C 513.166 844.203 513.111 843.101 513.001 842.617 C 512.892 842.132 512.642 841.781 512.251 841.562 C 511.861 841.328 511.126 841.21 510.048 841.21 z M 496.22 834.718 L 496.22 872.664 L 486.353 872.664 L 486.353 834.718 L 496.22 834.718 z M 467.251 834.718 L 483.962 834.718 L 483.962 842.312 L 477.119 842.312 L 477.119 849.507 L 483.212 849.507 L 483.212 856.726 L 477.119 856.726 L 477.119 872.664 L 467.251 872.664 L 467.251 834.718 z "
         transform="translate(11.03733,1.395813)"
         style="font-size:48;font-weight:normal;fill:#ffffff;stroke-width:1pt;font-family:Impact;"
         id="path628" />
      <path
         d="M 1004.25 745.797 L 1004.25 753.391 L 998.394 753.391 L 998.394 783.743 L 988.527 783.743 L 988.527 753.391 L 982.691 753.391 L 982.691 745.797 L 1004.25 745.797 z M 964.433 745.797 L 980.886 745.797 L 980.886 753.391 L 974.3 753.391 L 974.3 760.587 L 980.464 760.587 L 980.464 767.805 L 974.3 767.805 L 974.3 776.149 L 981.542 776.149 L 981.542 783.743 L 964.433 783.743 L 964.433 745.797 z M 960.472 745.797 L 960.472 783.743 L 951.824 783.743 L 946.691 766.493 L 946.691 783.743 L 938.441 783.743 L 938.441 745.797 L 946.691 745.797 L 952.222 762.883 L 952.222 745.797 L 960.472 745.797 z M 931.105 745.797 L 936.753 783.743 L 926.652 783.743 L 926.16 776.922 L 922.62 776.922 L 922.035 783.743 L 911.816 783.743 L 916.831 745.797 L 931.105 745.797 z M 925.878 770.196 C 925.378 765.899 924.878 760.594 924.378 754.282 C 923.378 761.532 922.753 766.837 922.503 770.196 L 925.878 770.196 z M 910.105 745.797 L 910.105 783.743 L 901.48 783.743 L 901.48 758.126 L 898.035 783.743 L 891.917 783.743 L 888.285 758.712 L 888.285 783.743 L 879.66 783.743 L 879.66 745.797 L 892.433 745.797 C 892.808 748.079 893.206 750.766 893.628 753.86 L 894.988 763.516 L 897.238 745.797 L 910.105 745.797 z M 853.808 745.797 L 860.792 745.797 C 865.449 745.797 868.597 745.977 870.238 746.337 C 871.894 746.696 873.238 747.618 874.269 749.102 C 875.316 750.571 875.839 752.922 875.839 756.157 C 875.839 759.11 875.472 761.094 874.738 762.11 C 874.003 763.126 872.558 763.735 870.402 763.938 C 872.355 764.422 873.667 765.071 874.339 765.883 C 875.011 766.696 875.425 767.446 875.581 768.133 C 875.753 768.805 875.839 770.672 875.839 773.735 L 875.839 783.743 L 866.675 783.743 L 866.675 771.133 C 866.675 769.102 866.511 767.844 866.183 767.36 C 865.87 766.876 865.035 766.633 863.675 766.633 L 863.675 783.743 L 853.808 783.743 L 853.808 745.797 z M 863.675 752.29 L 863.675 760.727 C 864.785 760.727 865.558 760.579 865.995 760.282 C 866.449 759.969 866.675 758.977 866.675 757.305 L 866.675 755.219 C 866.675 754.016 866.456 753.227 866.019 752.852 C 865.597 752.477 864.816 752.29 863.675 752.29 z M 833.863 745.797 L 850.316 745.797 L 850.316 753.391 L 843.73 753.391 L 843.73 760.587 L 849.894 760.587 L 849.894 767.805 L 843.73 767.805 L 843.73 776.149 L 850.972 776.149 L 850.972 783.743 L 833.863 783.743 L 833.863 745.797 z M 809.769 745.797 L 819.706 745.797 C 822.394 745.797 824.456 746.008 825.894 746.43 C 827.347 746.852 828.433 747.462 829.152 748.258 C 829.886 749.055 830.378 750.024 830.628 751.165 C 830.894 752.29 831.027 754.04 831.027 756.415 L 831.027 759.719 C 831.027 762.141 830.777 763.907 830.277 765.016 C 829.777 766.126 828.855 766.977 827.511 767.571 C 826.183 768.165 824.441 768.462 822.285 768.462 L 819.636 768.462 L 819.636 783.743 L 809.769 783.743 L 809.769 745.797 z M 819.636 752.29 L 819.636 761.946 C 819.917 761.962 820.16 761.969 820.363 761.969 C 821.269 761.969 821.894 761.751 822.238 761.313 C 822.597 760.86 822.777 759.93 822.777 758.524 L 822.777 755.407 C 822.777 754.11 822.574 753.266 822.167 752.876 C 821.761 752.485 820.917 752.29 819.636 752.29 z M 797.769 762.344 L 787.902 762.344 L 787.902 755.735 C 787.902 753.813 787.792 752.618 787.574 752.149 C 787.37 751.665 786.91 751.422 786.191 751.422 C 785.378 751.422 784.863 751.712 784.644 752.29 C 784.425 752.868 784.316 754.118 784.316 756.04 L 784.316 773.665 C 784.316 775.508 784.425 776.712 784.644 777.274 C 784.863 777.837 785.355 778.118 786.12 778.118 C 786.855 778.118 787.331 777.837 787.55 777.274 C 787.785 776.712 787.902 775.391 787.902 773.313 L 787.902 768.555 L 797.769 768.555 L 797.769 770.032 C 797.769 773.954 797.488 776.735 796.925 778.376 C 796.378 780.016 795.152 781.454 793.245 782.688 C 791.355 783.922 789.019 784.54 786.238 784.54 C 783.347 784.54 780.964 784.016 779.089 782.969 C 777.214 781.922 775.972 780.477 775.363 778.633 C 774.753 776.774 774.449 773.985 774.449 770.266 L 774.449 759.18 C 774.449 756.446 774.542 754.399 774.73 753.04 C 774.917 751.665 775.472 750.344 776.394 749.079 C 777.331 747.813 778.62 746.821 780.261 746.102 C 781.917 745.368 783.816 745.001 785.956 745.001 C 788.863 745.001 791.261 745.563 793.152 746.688 C 795.042 747.813 796.285 749.219 796.878 750.907 C 797.472 752.579 797.769 755.188 797.769 758.735 L 797.769 762.344 z M 770.769 745.797 L 770.769 783.743 L 760.902 783.743 L 760.902 745.797 L 770.769 745.797 z M 756.988 757.282 L 747.824 757.282 L 747.824 754.469 C 747.824 753.157 747.706 752.321 747.472 751.962 C 747.238 751.602 746.847 751.422 746.3 751.422 C 745.706 751.422 745.253 751.665 744.941 752.149 C 744.644 752.633 744.495 753.368 744.495 754.352 C 744.495 755.618 744.667 756.571 745.011 757.212 C 745.339 757.852 746.269 758.626 747.8 759.532 C 752.191 762.141 754.956 764.282 756.097 765.954 C 757.238 767.626 757.808 770.321 757.808 774.04 C 757.808 776.743 757.488 778.735 756.847 780.016 C 756.222 781.297 755.003 782.376 753.191 783.251 C 751.378 784.11 749.269 784.54 746.863 784.54 C 744.222 784.54 741.964 784.04 740.089 783.04 C 738.23 782.04 737.011 780.766 736.433 779.219 C 735.855 777.672 735.566 775.477 735.566 772.633 L 735.566 770.149 L 744.73 770.149 L 744.73 774.766 C 744.73 776.188 744.855 777.102 745.105 777.508 C 745.37 777.915 745.831 778.118 746.488 778.118 C 747.144 778.118 747.628 777.86 747.941 777.344 C 748.269 776.829 748.433 776.063 748.433 775.047 C 748.433 772.813 748.128 771.352 747.519 770.665 C 746.894 769.977 745.355 768.829 742.902 767.219 C 740.449 765.594 738.824 764.415 738.027 763.68 C 737.23 762.946 736.566 761.93 736.035 760.633 C 735.519 759.337 735.261 757.68 735.261 755.665 C 735.261 752.758 735.628 750.633 736.363 749.29 C 737.113 747.946 738.316 746.899 739.972 746.149 C 741.628 745.383 743.628 745.001 745.972 745.001 C 748.535 745.001 750.714 745.415 752.511 746.243 C 754.324 747.071 755.519 748.118 756.097 749.383 C 756.691 750.633 756.988 752.766 756.988 755.782 L 756.988 757.282 z "
         transform="translate(0.000000,-3.774475)"
         style="font-size:48;font-weight:normal;fill:#ffffff;stroke-width:1pt;font-family:Impact;"
         id="path629" />
    </g>
    <g
       transform="matrix(2.271422,0.000000,0.000000,2.271476,-247.6219,-644.8890)"
       id="g618">
      <path
         d="M 435.398 402.553 L 261.97 402.553 L 261.965 402.553 L 262 541.632 C 263.091 541.632 263.508 569.194 282.718 582.975 C 301.928 596.756 348.699 624.735 348.699 624.735 C 348.699 624.735 395.47 596.756 414.68 582.975 C 433.89 569.194 434.307 541.632 435.398 541.632 L 435.398 402.553 z "
         style="fill:#006634;fill-rule:evenodd;stroke-width:1pt;"
         id="path564" />
      <rect
         width="0.00000000"
         height="10.7201843"
         x="263.369202"
         y="403.935059"
         style="fill:#808080;fill-rule:evenodd;stroke-width:1pt;"
         id="rect574" />
      <path
         d="M 351.739 600.037 L 351.739 564.843 L 385.928 545.354 L 385.928 557.042 L 388.459 556.491 L 393.461 563.952 L 398.332 556.563 L 400.704 556.973 L 400.704 551.12 L 414.482 559.052 L 415.33 556.353 L 424.729 556.082 L 420.292 547.52 L 421.759 545.242 L 409.763 538.157 L 421.907 531.116 L 420.118 528.943 L 424.214 521.359 L 415.967 520.87 L 415.819 517.621 L 400.704 525.509 L 400.704 509.443 L 397.659 510.309 L 393.461 502.254 L 389.071 510.142 L 385.928 509.556 L 385.928 525.389 L 380.154 522.224 L 378.727 525.151 L 370.647 525.371 L 374.913 532.553 L 372.987 534.865 L 382.704 541.678 L 351.739 559.794 L 351.739 521.971 L 361.469 529.055 L 362.675 525.983 L 370.282 525.014 L 367.705 517.324 L 369.19 514.354 L 364.884 512.424 L 377.803 504.999 L 375.279 502.641 L 380.259 495.285 L 371.776 494.307 L 370.972 491.337 L 356.375 499.015 L 356.375 484.06 L 353.381 484.698 L 349.131 475.9 L 344.881 484.698 L 341.887 484.06 L 341.887 499.015 L 327.29 491.337 L 326.486 494.307 L 318.003 495.285 L 322.983 502.641 L 320.459 504.999 L 333.378 512.424 L 329.072 514.354 L 330.557 517.324 L 327.98 525.014 L 335.587 525.983 L 336.793 529.055 L 346.523 521.971 L 346.523 559.794 L 315.558 541.678 L 325.275 534.865 L 323.349 532.553 L 327.615 525.371 L 319.535 525.151 L 318.108 522.224 L 312.334 525.389 L 312.334 509.556 L 309.191 510.142 L 304.801 502.254 L 300.603 510.309 L 297.558 509.443 L 297.558 525.509 L 282.443 517.621 L 282.295 520.87 L 274.048 521.359 L 278.144 528.943 L 276.355 531.116 L 288.499 538.157 L 276.503 545.242 L 277.97 547.52 L 273.533 556.082 L 282.932 556.353 L 283.78 559.052 L 297.558 551.12 L 297.558 556.973 L 299.93 556.563 L 304.801 563.952 L 309.803 556.491 L 312.334 557.042 L 312.334 545.354 L 346.523 564.843 L 346.523 600.037 L 351.739 600.037 z "
         transform="translate(-0.449486,0.000000)"
         style="fill:#ce9800;fill-rule:evenodd;stroke-width:1pt;"
         id="path604" />
      <g
         transform="translate(-0.159492,0.000000)"
         id="g605">
        <rect
           width="170.943695"
           height="58.5264587"
           x="263.369202"
           y="403.935059"
           style="fill:#ffffff;fill-rule:evenodd;stroke-width:1pt;"
           id="rect575" />
        <path
           d="M 263.369 440.643 L 341.289 440.643 L 341.289 462.462 L 356.328 462.462 L 356.328 440.643 L 434.313 440.643 L 434.313 425.604 L 356.328 425.604 L 356.328 403.935 L 341.289 403.935 L 341.289 425.604 L 263.369 425.604 L 263.369 440.643 z "
           style="fill:#cc0000;fill-rule:evenodd;stroke-width:1pt;"
           id="path590" />
      </g>
    </g>
  </g>
</svg>
