<?xml version="1.0" encoding="UTF-8" standalone="no"?>
<!DOCTYPE svg PUBLIC "-//W3C//DTD SVG 20010904//EN"
"http://www.w3.org/TR/2001/REC-SVG-20010904/DTD/svg10.dtd">
<!-- Created with Sodipodi ("http://www.sodipodi.com/") -->
<svg
   width="8cm"
   height="14cm"
   xmlns="http://www.w3.org/2000/svg"
   xmlns:sodipodi="http://sodipodi.sourceforge.net/DTD/sodipodi-0.dtd"
   xmlns:xlink="http://www.w3.org/1999/xlink"
   id="svg548"
   sodipodi:version="0.33pre"
   sodipodi:docname="/home/pedro/svg/spanish_flag_project/madrid/spain_madrid_modern_coat.svg"
   sodipodi:docbase="/home/pedro/svg/spanish_flag_project/madrid">
  <sodipodi:namedview
     id="base" />
  <defs
     id="defs549">
    <marker
       id="ArrowEnd"
       viewBox="0 0 10 10"
       refX="0"
       refY="5"
       markerUnits="strokeWidth"
       markerWidth="4"
       markerHeight="3"
       orient="auto">
      <path
         d="M 0 0 L 10 5 L 0 10 z"
         id="path551" />
    </marker>
    <marker
       id="ArrowStart"
       viewBox="0 0 10 10"
       refX="10"
       refY="5"
       markerUnits="strokeWidth"
       markerWidth="4"
       markerHeight="3"
       orient="auto">
      <path
         d="M 10 0 L 0 5 L 10 10 z"
         id="path553" />
    </marker>
  </defs>
  <path
     style="font-size:12;fill:#de0028;"
     d="M 143.348 176.539 L 27.9992 176.539 L 27.9992 413.15 C 27.9992 413.15 30.2133 434.468 49.0323 446.645 C 49.0323 446.645 93.5041 473.256 143.348 471.854 C 193.191 473.256 237.662 446.645 237.662 446.645 C 256.481 434.468 258.696 413.15 258.696 413.15 L 258.696 176.539 L 143.348 176.539 "
     id="path555" />
  <path
     style="font-size:12;fill:none;stroke:#de0028;stroke-width:0.885605;"
     d="M 143.348 176.539 L 27.9992 176.539 L 27.9992 413.15 C 27.9992 413.15 30.2133 434.468 49.0324 446.645 C 49.0324 446.645 93.5041 473.257 143.348 471.854 C 193.191 473.257 237.662 446.645 237.662 446.645 C 256.481 434.468 258.695 413.15 258.695 413.15 L 258.695 176.539 L 143.348 176.539 "
     id="path556" />
  <path
     style="font-size:12;fill:#f8df25;"
     d="M 236.887 60.6725 C 205.598 37.9438 184.639 53.8829 184.639 53.8829 C 162.204 41.7814 143.348 53.3856 143.348 53.3856 C 143.348 53.3856 124.455 41.7832 102.021 53.8829 C 102.021 53.8829 81.0617 37.9438 49.7721 60.6725 C 49.7721 60.6725 34.0017 76.3182 35.6868 94.0303 C 35.6868 94.0303 35.3073 96.3919 36.1929 101.706 L 44.4392 133.588 L 68.9392 133.588 L 58.9023 101.706 C 58.9023 101.706 54.2002 91.3735 61.8736 80.451 C 61.8736 80.451 66.8921 70.4142 83.7168 71.0046 C 83.7168 71.0046 74.8432 86.0599 78.3856 101.706 L 87.2417 133.588 L 110.267 133.588 L 101.706 101.706 C 101.706 101.706 97.5913 95.5063 103.2 82.5175 C 103.2 82.5175 109.694 67.167 130.654 72.4806 L 130.654 133.588 L 156.003 133.588 L 156.003 72.4806 C 176.962 67.167 183.456 82.5175 183.456 82.5175 C 189.065 95.5063 184.95 101.706 184.95 101.706 L 176.389 133.588 L 199.414 133.588 L 208.27 101.706 C 211.813 86.0599 202.939 71.0046 202.939 71.0046 C 219.764 70.4142 224.782 80.451 224.782 80.451 C 232.457 91.3735 227.754 101.706 227.754 101.706 L 217.717 133.588 L 242.218 133.588 L 250.465 101.706 C 251.349 96.3919 250.969 94.0303 250.969 94.0303 C 252.654 76.3182 236.884 60.6725 236.884 60.6725 "
     id="path557" />
  <path
     style="font-size:12;fill:none;stroke:#f8df25;stroke-width:0.885605;"
     d="M 236.887 60.6725 C 205.598 37.9438 184.639 53.8829 184.639 53.8829 C 162.204 41.7814 143.348 53.3856 143.348 53.3856 C 143.348 53.3856 124.455 41.7832 102.021 53.8829 C 102.021 53.8829 81.0617 37.9438 49.7721 60.6725 C 49.7721 60.6725 34.0017 76.3182 35.6868 94.0303 C 35.6868 94.0303 35.3073 96.3919 36.1929 101.706 L 44.4392 133.588 L 68.9392 133.588 L 58.9023 101.706 C 58.9023 101.706 54.2002 91.3735 61.8736 80.451 C 61.8736 80.451 66.8921 70.4142 83.7168 71.0046 C 83.7168 71.0046 74.8432 86.0599 78.3856 101.706 L 87.2417 133.588 L 110.267 133.588 L 101.706 101.706 C 101.706 101.706 97.5913 95.5063 103.2 82.5175 C 103.2 82.5175 109.694 67.167 130.654 72.4806 L 130.654 133.588 L 156.003 133.588 L 156.003 72.4806 C 176.962 67.167 183.456 82.5175 183.456 82.5175 C 189.065 95.5063 184.95 101.706 184.95 101.706 L 176.389 133.588 L 199.414 133.588 L 208.27 101.706 C 211.813 86.0599 202.939 71.0046 202.939 71.0046 C 219.764 70.4142 224.782 80.451 224.782 80.451 C 232.457 91.3735 227.754 101.706 227.754 101.706 L 217.717 133.588 L 242.218 133.588 L 250.465 101.706 C 251.349 96.3919 250.969 94.0303 250.969 94.0303 C 252.654 76.3182 236.884 60.6725 236.884 60.6725 L 236.887 60.6725 z "
     id="path558" />
  <path
     style="font-size:12;fill:#f8df25;"
     d="M 138.145 12.1505 L 138.145 23.442 L 126.853 23.442 L 126.853 33.2944 L 138.145 33.2944 L 138.145 44.5841 L 147.776 44.5841 L 147.776 33.1837 L 159.178 33.1837 L 159.178 23.5527 L 147.886 23.5527 L 147.886 12.205 L 138.145 12.1505 "
     id="path559" />
  <path
     style="font-size:12;fill:none;stroke:#f8df25;stroke-width:0.885605;"
     d="M 138.145 12.1505 L 138.145 23.442 L 126.853 23.442 L 126.853 33.2944 L 138.145 33.2944 L 138.145 44.5841 L 147.776 44.5841 L 147.776 33.1837 L 159.178 33.1837 L 159.178 23.5527 L 147.886 23.5527 L 147.886 12.205 L 138.145 12.1505 "
     id="path560" />
  <path
     style="font-size:12;fill:#ffffff;"
     d="M 66.7427 193.244 L 61.8157 208.661 L 45.6534 208.86 L 58.76 218.222 L 54.0297 233.298 L 66.7427 224.034 L 79.6525 233.101 L 74.7255 218.025 L 87.6353 208.464 L 71.7682 208.659 L 66.7427 193.244 "
     id="path561" />
  <path
     style="font-size:12;fill:none;stroke:#ffffff;stroke-width:0.885605;"
     d="M 66.7427 193.244 L 61.8157 208.661 L 45.6534 208.86 L 58.76 218.222 L 54.0297 233.298 L 66.7427 224.034 L 79.6525 233.101 L 74.7255 218.025 L 87.6353 208.464 L 71.7682 208.659 L 66.7427 193.244 "
     id="path562" />
  <path
     style="font-size:12;fill:#ffffff;"
     d="M 117.632 193.244 L 112.704 208.661 L 96.5423 208.86 L 109.649 218.222 L 104.919 233.298 L 117.632 224.034 L 130.543 233.101 L 125.615 218.025 L 138.524 208.464 L 122.659 208.659 L 117.632 193.244 "
     id="path563" />
  <path
     style="font-size:12;fill:none;stroke:#ffffff;stroke-width:0.885605;"
     d="M 117.632 193.244 L 112.704 208.661 L 96.5423 208.86 L 109.649 218.222 L 104.919 233.298 L 117.632 224.034 L 130.543 233.101 L 125.615 218.025 L 138.524 208.464 L 122.659 208.659 L 117.632 193.244 "
     id="path564" />
  <path
     style="font-size:12;fill:#ffffff;"
     d="M 168.753 193.244 L 163.826 208.661 L 147.663 208.86 L 160.77 218.222 L 156.04 233.298 L 168.753 224.034 L 181.662 233.101 L 176.735 218.025 L 189.645 208.464 L 173.778 208.659 L 168.753 193.244 "
     id="path565" />
  <path
     style="font-size:12;fill:none;stroke:#ffffff;stroke-width:0.885605;"
     d="M 168.753 193.244 L 163.826 208.661 L 147.663 208.86 L 160.77 218.222 L 156.04 233.298 L 168.753 224.034 L 181.662 233.101 L 176.735 218.025 L 189.645 208.464 L 173.778 208.659 L 168.753 193.244 "
     id="path566" />
  <path
     style="font-size:12;fill:#ffffff;"
     d="M 143.04 228.392 L 138.113 243.809 L 121.951 244.006 L 135.059 253.37 L 130.329 268.448 L 143.04 259.185 L 155.952 268.25 L 151.023 253.172 L 163.935 243.613 L 148.067 243.809 L 143.04 228.392 "
     id="path567" />
  <path
     style="font-size:12;fill:none;stroke:#ffffff;stroke-width:0.885605;"
     d="M 143.04 228.392 L 138.113 243.809 L 121.951 244.006 L 135.059 253.37 L 130.329 268.448 L 143.04 259.185 L 155.952 268.25 L 151.023 253.172 L 163.935 243.613 L 148.067 243.809 L 143.04 228.392 "
     id="path568" />
  <path
     style="font-size:12;fill:#ffffff;"
     d="M 92.051 228.392 L 87.1222 243.809 L 70.9599 244.006 L 84.0682 253.37 L 79.338 268.448 L 92.051 259.185 L 104.961 268.25 L 100.034 253.172 L 112.943 243.613 L 97.0764 243.809 L 92.051 228.392 "
     id="path569" />
  <path
     style="font-size:12;fill:none;stroke:#ffffff;stroke-width:0.885605;"
     d="M 92.051 228.392 L 87.1222 243.809 L 70.9599 244.006 L 84.0682 253.37 L 79.338 268.448 L 92.051 259.185 L 104.961 268.25 L 100.034 253.172 L 112.943 243.613 L 97.0764 243.809 L 92.051 228.392 "
     id="path570" />
  <path
     style="font-size:12;fill:#ffffff;"
     d="M 194.233 228.392 L 189.306 243.809 L 173.144 244.006 L 186.25 253.37 L 181.52 268.448 L 194.233 259.185 L 207.144 268.25 L 202.215 253.172 L 215.125 243.613 L 199.26 243.809 L 194.233 228.392 "
     id="path571" />
  <path
     style="font-size:12;fill:none;stroke:#ffffff;stroke-width:0.885605;"
     d="M 194.233 228.392 L 189.306 243.809 L 173.144 244.006 L 186.25 253.37 L 181.52 268.448 L 194.233 259.185 L 207.144 268.25 L 202.215 253.172 L 215.125 243.613 L 199.26 243.809 L 194.233 228.392 "
     id="path572" />
  <path
     style="font-size:12;fill:#ffffff;"
     d="M 219.801 193.244 L 214.874 208.661 L 198.71 208.86 L 211.818 218.222 L 207.088 233.298 L 219.801 224.034 L 232.711 233.101 L 227.783 218.025 L 240.693 208.464 L 224.826 208.659 L 219.801 193.244 "
     id="path573" />
  <path
     style="font-size:12;fill:none;stroke:#ffffff;stroke-width:0.885605;"
     d="M 219.801 193.244 L 214.874 208.661 L 198.71 208.86 L 211.818 218.222 L 207.088 233.298 L 219.801 224.034 L 232.711 233.101 L 227.783 218.025 L 240.693 208.464 L 224.826 208.659 L 219.801 193.244 "
     id="path574" />
  <path
     style="font-size:12;fill:#f8df25;"
     d="M 109.454 406.232 C 107.35 399.491 101.139 394.577 93.7519 394.387 L 93.7519 394.375 C 93.6061 394.371 93.4585 394.368 93.3109 394.368 C 93.165 394.368 93.0174 394.371 92.8716 394.375 L 92.8716 394.387 C 85.4845 394.577 79.273 399.491 77.1697 406.232 L 47.7057 406.35 L 47.7057 426.423 L 83.3144 426.423 L 83.3144 410.634 C 83.6448 405.399 87.9937 401.257 93.3109 401.257 C 98.628 401.257 102.979 405.399 103.311 410.634 L 103.311 426.423 L 139.584 426.423 L 139.584 406.35 L 109.454 406.232 "
     id="path575" />
  <path
     style="font-size:12;fill:none;stroke:#f8df25;stroke-width:0.885605;"
     d="M 109.454 406.232 C 107.35 399.491 101.139 394.577 93.7519 394.387 L 93.7519 394.375 C 93.6061 394.371 93.4585 394.368 93.3109 394.368 C 93.165 394.368 93.0174 394.371 92.8716 394.375 L 92.8716 394.387 C 85.4845 394.577 79.273 399.491 77.1697 406.232 L 47.7057 406.35 L 47.7057 426.423 L 83.3144 426.423 L 83.3144 410.634 C 83.6448 405.399 87.9937 401.257 93.3109 401.257 C 98.628 401.257 102.979 405.399 103.311 410.634 L 103.311 426.423 L 139.584 426.423 L 139.584 406.35 L 109.454 406.232 "
     id="path576" />
  <path
     style="font-size:12;fill:#f8df25;"
     d="M 130.211 373.73 L 130.211 352.477 L 135.672 347.016 L 135.672 340.964 L 50.9512 340.964 L 50.9512 347.016 L 56.4124 352.477 L 56.4124 373.73 L 47.704 399.889 L 72.413 399.889 C 76.4492 392.494 84.2949 387.48 93.3109 387.48 C 102.329 387.48 110.174 392.494 114.21 399.889 L 139.582 399.889 L 130.209 373.73 "
     id="path577" />
  <path
     style="font-size:12;fill:none;stroke:#f8df25;stroke-width:0.885605;"
     d="M 130.211 373.73 L 130.211 352.477 L 135.672 347.016 L 135.672 340.964 L 50.9512 340.964 L 50.9512 347.016 L 56.4124 352.477 L 56.4124 373.73 L 47.704 399.889 L 72.413 399.889 C 76.4492 392.494 84.2949 387.48 93.3109 387.48 C 102.329 387.48 110.174 392.494 114.21 399.889 L 139.582 399.889 L 130.209 373.73 L 130.211 373.73 z "
     id="path578" />
  <path
     style="font-size:12;fill:#de0028;"
     d="M 93.6254 350.692 C 91.8963 350.692 90.4941 352.094 90.4941 353.823 L 90.4941 367.088 L 96.7566 367.107 L 96.7566 353.823 C 96.7566 352.094 95.3544 350.692 93.6254 350.692 "
     id="path579" />
  <path
     style="font-size:12;fill:none;stroke:#de0028;stroke-width:0.885605;"
     d="M 93.6254 350.692 C 91.8963 350.692 90.4941 352.094 90.4941 353.823 L 90.4941 367.088 L 96.7566 367.107 L 96.7566 353.823 C 96.7566 352.094 95.3544 350.692 93.6254 350.692 z "
     id="path580" />
  <path
     style="font-size:12;fill:#de0028;"
     d="M 113.478 350.692 C 111.749 350.692 110.346 352.094 110.346 353.823 L 110.346 367.088 L 116.609 367.107 L 116.609 353.823 C 116.609 352.094 115.207 350.692 113.478 350.692 "
     id="path581" />
  <path
     style="font-size:12;fill:none;stroke:#de0028;stroke-width:0.885605;"
     d="M 113.478 350.692 C 111.749 350.692 110.346 352.094 110.346 353.823 L 110.346 367.088 L 116.609 367.107 L 116.609 353.823 C 116.609 352.094 115.207 350.692 113.478 350.692 z "
     id="path582" />
  <path
     style="font-size:12;fill:#de0028;"
     d="M 74.0314 350.692 C 72.3023 350.692 70.9001 352.094 70.9001 353.823 L 70.9001 367.088 L 77.1626 367.107 L 77.1626 353.823 C 77.1626 352.094 75.7604 350.692 74.0314 350.692 "
     id="path583" />
  <path
     style="font-size:12;fill:none;stroke:#de0028;stroke-width:0.885605;"
     d="M 74.0314 350.692 C 72.3023 350.692 70.9001 352.094 70.9001 353.823 L 70.9001 367.088 L 77.1626 367.107 L 77.1626 353.823 C 77.1626 352.094 75.7604 350.692 74.0314 350.692 z "
     id="path584" />
  <path
     style="font-size:12;fill:#f8df25;"
     d="M 129.621 301.407 L 129.621 307.606 L 121.872 307.606 L 121.872 301.407 L 115.673 301.407 L 115.673 307.385 L 109.03 307.385 L 109.03 301.186 L 103.052 301.186 L 103.052 296.979 L 109.03 294.544 L 109.03 281.483 L 103.052 281.483 L 103.052 287.902 L 96.6336 287.902 L 96.6336 281.483 L 89.9916 281.483 L 89.9916 287.902 L 83.571 287.902 L 83.571 281.483 L 77.5931 281.483 L 77.5931 294.544 L 83.571 296.979 L 83.571 301.186 L 77.5931 301.186 L 77.5931 307.385 L 70.9511 307.385 L 70.9511 301.407 L 64.7536 301.407 L 64.7536 307.606 L 57.0063 307.606 L 57.0063 301.407 L 50.8071 301.407 L 50.8071 314.691 L 57.6705 319.119 L 57.6705 334.396 L 77.0027 334.396 L 77.0027 319.341 L 83.7186 312.625 L 83.7186 334.175 L 102.907 334.175 L 102.907 312.625 L 109.622 319.341 L 109.622 334.396 L 128.958 334.396 L 128.958 319.119 L 135.822 314.691 L 135.822 301.407 L 129.623 301.407 "
     id="path585" />
  <path
     style="font-size:12;fill:none;stroke:#f8df25;stroke-width:0.885605;"
     d="M 129.621 301.407 L 129.621 307.606 L 121.872 307.606 L 121.872 301.407 L 115.673 301.407 L 115.673 307.385 L 109.03 307.385 L 109.03 301.186 L 103.052 301.186 L 103.052 296.979 L 109.03 294.544 L 109.03 281.483 L 103.052 281.483 L 103.052 287.902 L 96.6336 287.902 L 96.6336 281.483 L 89.9916 281.483 L 89.9916 287.902 L 83.571 287.902 L 83.571 281.483 L 77.5931 281.483 L 77.5931 294.544 L 83.571 296.979 L 83.571 301.186 L 77.5931 301.186 L 77.5931 307.385 L 70.9511 307.385 L 70.9511 301.407 L 64.7536 301.407 L 64.7536 307.606 L 57.0063 307.606 L 57.0063 301.407 L 50.8071 301.407 L 50.8071 314.691 L 57.6705 319.119 L 57.6705 334.396 L 77.0027 334.396 L 77.0027 319.341 L 83.7186 312.625 L 83.7186 334.175 L 102.907 334.175 L 102.907 312.625 L 109.622 319.341 L 109.622 334.396 L 128.958 334.396 L 128.958 319.119 L 135.822 314.691 L 135.822 301.407 L 129.623 301.407 L 129.621 301.407 z "
     id="path586" />
  <path
     style="font-size:12;fill:#f8df25;"
     d="M 177.278 406.232 C 179.382 399.491 185.595 394.577 192.98 394.387 L 192.98 394.375 C 193.124 394.371 193.274 394.368 193.421 394.368 C 193.565 394.368 193.715 394.371 193.861 394.375 L 193.861 394.387 C 201.245 394.577 207.457 399.491 209.56 406.232 L 239.026 406.35 L 239.026 426.423 L 203.417 426.423 L 203.417 410.634 C 203.085 405.399 198.738 401.257 193.42 401.257 C 188.104 401.257 183.752 405.399 183.42 410.634 L 183.42 426.423 L 147.148 426.423 L 147.148 406.35 L 177.278 406.232 "
     id="path587" />
  <path
     style="font-size:12;fill:none;stroke:#f8df25;stroke-width:0.885605;"
     d="M 177.278 406.232 C 179.382 399.491 185.595 394.577 192.98 394.387 L 192.98 394.375 C 193.124 394.371 193.274 394.368 193.421 394.368 C 193.565 394.368 193.715 394.371 193.861 394.375 L 193.861 394.387 C 201.245 394.577 207.457 399.491 209.56 406.232 L 239.026 406.35 L 239.026 426.423 L 203.417 426.423 L 203.417 410.634 C 203.085 405.399 198.738 401.257 193.42 401.257 C 188.104 401.257 183.752 405.399 183.42 410.634 L 183.42 426.423 L 147.148 426.423 L 147.148 406.35 L 177.278 406.232 "
     id="path588" />
  <path
     style="font-size:12;fill:#f8df25;"
     d="M 156.521 373.73 L 156.521 352.477 L 151.06 347.016 L 151.06 340.964 L 235.78 340.964 L 235.78 347.016 L 230.319 352.477 L 230.319 373.73 L 239.027 399.889 L 214.318 399.889 C 210.282 392.494 202.437 387.48 193.421 387.48 C 184.404 387.48 176.558 392.494 172.522 399.889 L 147.148 399.889 L 156.521 373.73 "
     id="path589" />
  <path
     style="font-size:12;fill:none;stroke:#f8df25;stroke-width:0.885605;"
     d="M 156.521 373.73 L 156.521 352.477 L 151.06 347.016 L 151.06 340.964 L 235.78 340.964 L 235.78 347.016 L 230.319 352.477 L 230.319 373.73 L 239.027 399.889 L 214.318 399.889 C 210.282 392.494 202.437 387.48 193.421 387.48 C 184.404 387.48 176.558 392.494 172.522 399.889 L 147.148 399.889 L 156.521 373.73 "
     id="path590" />
  <path
     style="font-size:12;fill:#de0028;"
     d="M 193.107 350.692 C 194.836 350.692 196.238 352.094 196.238 353.823 L 196.238 367.088 L 189.976 367.107 L 189.976 353.823 C 189.976 352.094 191.378 350.692 193.107 350.692 "
     id="path591" />
  <path
     style="font-size:12;fill:none;stroke:#de0028;stroke-width:0.885605;"
     d="M 193.107 350.692 C 194.836 350.692 196.238 352.094 196.238 353.823 L 196.238 367.088 L 189.976 367.107 L 189.976 353.823 C 189.976 352.094 191.378 350.692 193.107 350.692 z "
     id="path592" />
  <path
     style="font-size:12;fill:#de0028;"
     d="M 173.254 350.692 C 174.983 350.692 176.386 352.094 176.386 353.823 L 176.386 367.088 L 170.123 367.107 L 170.123 353.823 C 170.123 352.094 171.525 350.692 173.254 350.692 "
     id="path593" />
  <path
     style="font-size:12;fill:none;stroke:#de0028;stroke-width:0.885605;"
     d="M 173.254 350.692 C 174.983 350.692 176.386 352.094 176.386 353.823 L 176.386 367.088 L 170.123 367.107 L 170.123 353.823 C 170.123 352.094 171.525 350.692 173.254 350.692 z "
     id="path594" />
  <path
     style="font-size:12;fill:#de0028;"
     d="M 212.7 350.692 C 214.429 350.692 215.831 352.094 215.831 353.823 L 215.831 367.088 L 209.569 367.107 L 209.569 353.823 C 209.569 352.094 210.971 350.692 212.7 350.692 "
     id="path595" />
  <path
     style="font-size:12;fill:none;stroke:#de0028;stroke-width:0.885605;"
     d="M 212.7 350.692 C 214.429 350.692 215.831 352.094 215.831 353.823 L 215.831 367.088 L 209.569 367.107 L 209.569 353.823 C 209.569 352.094 210.971 350.692 212.7 350.692 z "
     id="path596" />
  <path
     style="font-size:12;fill:#f8df25;"
     d="M 157.111 301.407 L 157.111 307.606 L 164.861 307.606 L 164.861 301.407 L 171.06 301.407 L 171.06 307.385 L 177.7 307.385 L 177.7 301.186 L 183.678 301.186 L 183.678 296.979 L 177.7 294.544 L 177.7 281.483 L 183.678 281.483 L 183.678 287.902 L 190.099 287.902 L 190.099 281.483 L 196.741 281.483 L 196.741 287.902 L 203.16 287.902 L 203.16 281.483 L 209.137 281.483 L 209.137 294.544 L 203.16 296.979 L 203.16 301.186 L 209.137 301.186 L 209.137 307.385 L 215.779 307.385 L 215.779 301.407 L 221.978 301.407 L 221.978 307.606 L 229.725 307.606 L 229.725 301.407 L 235.924 301.407 L 235.924 314.691 L 229.061 319.119 L 229.061 334.396 L 209.727 334.396 L 209.727 319.341 L 203.011 312.625 L 203.011 334.175 L 183.824 334.175 L 183.824 312.625 L 177.11 319.341 L 177.11 334.396 L 157.774 334.396 L 157.774 319.119 L 150.911 314.691 L 150.911 301.407 L 157.11 301.407 "
     id="path597" />
  <path
     style="font-size:12;fill:none;stroke:#f8df25;stroke-width:0.885605;"
     d="M 157.111 301.407 L 157.111 307.606 L 164.861 307.606 L 164.861 301.407 L 171.06 301.407 L 171.06 307.385 L 177.7 307.385 L 177.7 301.186 L 183.678 301.186 L 183.678 296.979 L 177.7 294.544 L 177.7 281.483 L 183.678 281.483 L 183.678 287.902 L 190.099 287.902 L 190.099 281.483 L 196.741 281.483 L 196.741 287.902 L 203.16 287.902 L 203.16 281.483 L 209.137 281.483 L 209.137 294.544 L 203.16 296.979 L 203.16 301.186 L 209.137 301.186 L 209.137 307.385 L 215.779 307.385 L 215.779 301.407 L 221.978 301.407 L 221.978 307.606 L 229.725 307.606 L 229.725 301.407 L 235.924 301.407 L 235.924 314.691 L 229.061 319.119 L 229.061 334.396 L 209.727 334.396 L 209.727 319.341 L 203.011 312.625 L 203.011 334.175 L 183.824 334.175 L 183.824 312.625 L 177.11 319.341 L 177.11 334.396 L 157.774 334.396 L 157.774 319.119 L 150.911 314.691 L 150.911 301.407 L 157.11 301.407 L 157.111 301.407 z "
     id="path598" />
  <path
     style="font-size:12;fill:#f8df25;"
     d="M 143.053 140.377 L 57.1504 140.377 L 63.9383 163.384 L 222.164 163.384 L 228.952 140.377 L 143.051 140.377 "
     id="path599" />
  <path
     style="font-size:12;fill:none;stroke:#f8df25;stroke-width:0.885605;"
     d="M 143.053 140.377 L 57.1504 140.377 L 63.9383 163.384 L 222.164 163.384 L 228.952 140.377 L 143.051 140.377 L 143.053 140.377 z "
     id="path600" />
</svg>
