<?xml version="1.0" encoding="UTF-8" standalone="no"?>
<!DOCTYPE svg PUBLIC "-//W3C//DTD SVG 20010904//EN"
"http://www.w3.org/TR/2001/REC-SVG-20010904/DTD/svg10.dtd">
<!-- Created with Sodipodi ("http://www.sodipodi.com/") -->
<svg
   version="1"
   x="0"
   y="0"
   width="1062.99"
   height="708.661"
   id="svg378"
   xmlns="http://www.w3.org/2000/svg"
   xmlns:sodipodi="http://sodipodi.sourceforge.net/DTD/sodipodi-0.dtd"
   xmlns:xlink="http://www.w3.org/1999/xlink"
   sodipodi:version="0.32"
   sodipodi:docname="/home/cschalle/iceland.svg"
   sodipodi:docbase="/home/cschalle">
  <sodipodi:namedview
     id="base" />
  <defs
     id="defs380" />
  <rect
     width="1062.99"
     height="708.661"
     x="0"
     y="0"
     style="font-size:12;fill:#00077a;fill-rule:evenodd;stroke-width:1pt;fill-opacity:1;"
     id="rect171" />
  <path
     d="M 0.727081 262.234 L 0.727081 446.185 L 262.476 446.185 L 262.476 709.388 L 445.7 709.388 L 445.7 446.185 L 1062.99 446.185 L 1062.99 262.234 L 445.7 262.234 L 445.7 -0.969925 L 262.476 -0.969925 L 262.476 262.234 L 0.727081 262.234 z "
     style="font-size:12;fill:#ffffff;fill-rule:evenodd;stroke-width:1pt;"
     id="path178" />
  <path
     d="M 0.727081 307.348 L 0.727081 396.744 L 305.374 396.744 L 305.374 709.388 L 399.894 709.388 L 399.894 396.744 L 1062.99 396.744 L 1062.99 307.348 L 399.894 307.348 L 399.894 -0.969925 L 305.374 -0.969925 L 305.374 307.348 L 0.727081 307.348 z "
     style="font-size:12;fill:#ef0000;fill-rule:evenodd;stroke-width:1pt;fill-opacity:1;"
     id="path177"
     transform="translate(0.000000,-3.051758e-5)" />
</svg>
