<?xml version="1.0" standalone="no"?>
<!DOCTYPE svg PUBLIC "-//W3C//DTD SVG 20010904//EN"
"http://www.w3.org/TR/2001/REC-SVG-20010904/DTD/svg10.dtd"
[
 <!ATTLIST svg
  xmlns:xlink CDATA #FIXED "http://www.w3.org/1999/xlink">
]>
<!-- Created with Sodipodi ("http://www.sodipodi.com/") -->
<svg
   id="svg153"
   sodipodi:version="0.28pre2"
   width="247"
   height="130"
   sodipodi:docname="/home/bryce/us_betsy_ross.svg"
   xmlns="http://www.w3.org/2000/svg"
   xmlns:sodipodi="http://sodipodi.sourceforge.net/DTD/sodipodi-0.dtd"
   xmlns:xlink="http://www.w3.org/1999/xlink"
   sodipodi:docbase="/home/bryce/">
  <desc
     id="desc2">
The United States of America flag, produced by Daniel McRae</desc>
  <defs
     id="defs155" />
  <sodipodi:namedview
     id="base" />
  <g
     id="g169"
     style="font-size:12;fill:#bd3d44;">
    <rect
       style="font-size:12;fill:#bd3d44;fill-rule:evenodd;stroke-width:1pt;fill-opacity:1;"
       id="rect156"
       width="247.000000"
       height="10.000000"
       x="0.000000"
       y="0.000000" />
    <rect
       style="font-size:12;fill:#bd3d44;fill-rule:evenodd;stroke-width:1pt;fill-opacity:1;"
       id="rect158"
       width="247.000000"
       height="10.000000"
       x="0.000000"
       y="20.000000" />
    <rect
       style="font-size:12;fill:#bd3d44;fill-rule:evenodd;stroke-width:1pt;fill-opacity:1;"
       id="rect160"
       width="247"
       height="10"
       x="0"
       y="40" />
    <rect
       style="font-size:12;fill:#bd3d44;fill-rule:evenodd;stroke-width:1pt;fill-opacity:1;"
       id="rect162"
       width="247"
       height="10"
       x="0"
       y="60" />
    <rect
       style="font-size:12;fill:#bd3d44;fill-rule:evenodd;stroke-width:1pt;fill-opacity:1;"
       id="rect164"
       width="247.000000"
       height="10.000000"
       x="0.000000"
       y="80.000000" />
    <rect
       style="font-size:12;fill:#bd3d44;fill-rule:evenodd;stroke-width:1pt;fill-opacity:1;"
       id="rect166"
       width="247"
       height="10"
       x="0"
       y="100" />
    <rect
       style="font-size:12;fill:#bd3d44;fill-rule:evenodd;stroke-width:1pt;fill-opacity:1;"
       id="rect168"
       width="247"
       height="10"
       x="0"
       y="120" />
  </g>
  <g
     id="g177"
     style="font-size:12;fill:#ffffff;">
    <rect
       style="font-size:12;fill:#ffffff;fill-rule:evenodd;stroke-width:1pt;fill-opacity:1;"
       id="rect157"
       width="247"
       height="10"
       x="0"
       y="10" />
    <rect
       style="font-size:12;fill:#ffffff;fill-rule:evenodd;stroke-width:1pt;fill-opacity:1;"
       id="rect159"
       width="247"
       height="10"
       x="0"
       y="30" />
    <rect
       style="font-size:12;fill:#ffffff;fill-rule:evenodd;stroke-width:1pt;fill-opacity:1;"
       id="rect161"
       width="247"
       height="10"
       x="0"
       y="50" />
    <rect
       style="font-size:12;fill:#ffffff;fill-rule:evenodd;stroke-width:1pt;fill-opacity:1;"
       id="rect163"
       width="247"
       height="10"
       x="0"
       y="70" />
    <rect
       style="font-size:12;fill:#ffffff;fill-rule:evenodd;stroke-width:1pt;fill-opacity:1;"
       id="rect165"
       width="247"
       height="10"
       x="0"
       y="90" />
    <rect
       style="font-size:12;fill:#ffffff;fill-rule:evenodd;stroke-width:1pt;fill-opacity:1;"
       id="rect167"
       width="247"
       height="10"
       x="0"
       y="110" />
  </g>
  <rect
     style="font-size:12;fill:#192f5d;fill-rule:evenodd;stroke-width:1pt;"
     id="rect200"
     width="98.8"
     height="70"
     x="0"
     y="0" />
  <polygon
     sodipodi:type="star"
     style="font-size:12;fill:#ffffff;fill-rule:evenodd;stroke-width:0.125;"
     id="polygon262"
     sodipodi:sides="5"
     points="0,-4.004 0.898954009,-1.2373040455 3.808030291,-1.2373040455 1.454538141067,0.4726080910 2.35349215,3.2393040455 0,1.529391909 -2.35349215,3.2393040455 -1.454538141067,0.472608091 -3.808030291,-1.2373040455 -0.898954009,-1.2373040455 0,-4.004 "
     sodipodi:arg1="-1.570796"
     sodipodi:arg2="-0.942477796"
     sodipodi:r1="4.004000"
     sodipodi:cx="0.000000"
     sodipodi:cy="0.000000"
     sodipodi:r2="1.529391909"
     transform="translate(47.6443,9.57462)" />
  <polygon
     sodipodi:type="star"
     style="font-size:12;fill:#ffffff;fill-rule:evenodd;stroke-width:0.125;"
     id="polygon263"
     sodipodi:sides="5"
     points="0,-4.004 0.898954009,-1.2373040455 3.808030291,-1.2373040455 1.454538141067,0.4726080910 2.35349215,3.2393040455 0,1.529391909 -2.35349215,3.2393040455 -1.454538141067,0.472608091 -3.808030291,-1.2373040455 -0.898954009,-1.2373040455 0,-4.004 "
     sodipodi:arg1="-1.570796"
     sodipodi:arg2="-0.942477796"
     sodipodi:r1="4.004000"
     sodipodi:cx="0.000000"
     sodipodi:cy="0.000000"
     sodipodi:r2="1.529391909"
     transform="translate(35.1673,12.7807)" />
  <polygon
     sodipodi:type="star"
     style="font-size:12;fill:#ffffff;fill-rule:evenodd;stroke-width:0.125;"
     id="polygon264"
     sodipodi:sides="5"
     points="0,-4.004 0.898954009,-1.2373040455 3.808030291,-1.2373040455 1.454538141067,0.4726080910 2.35349215,3.2393040455 0,1.529391909 -2.35349215,3.2393040455 -1.454538141067,0.472608091 -3.808030291,-1.2373040455 -0.898954009,-1.2373040455 0,-4.004 "
     sodipodi:arg1="-1.570796"
     sodipodi:arg2="-0.942477796"
     sodipodi:r1="4.004000"
     sodipodi:cx="0.000000"
     sodipodi:cy="0.000000"
     sodipodi:r2="1.529391909"
     transform="translate(64.1255,51.0097)" />
  <polygon
     sodipodi:type="star"
     style="font-size:12;fill:#ffffff;fill-rule:evenodd;stroke-width:0.125;"
     id="polygon265"
     sodipodi:sides="5"
     points="0,-4.004 0.898954009,-1.2373040455 3.808030291,-1.2373040455 1.454538141067,0.4726080910 2.35349215,3.2393040455 0,1.529391909 -2.35349215,3.2393040455 -1.454538141067,0.472608091 -3.808030291,-1.2373040455 -0.898954009,-1.2373040455 0,-4.004 "
     sodipodi:arg1="-1.570796"
     sodipodi:arg2="-0.942477796"
     sodipodi:r1="4.004000"
     sodipodi:cx="0.000000"
     sodipodi:cy="0.000000"
     sodipodi:r2="1.529391909"
     transform="translate(26.8141,20.509)" />
  <polygon
     sodipodi:type="star"
     style="font-size:12;fill:#ffffff;fill-rule:evenodd;stroke-width:0.125;"
     id="polygon266"
     sodipodi:sides="5"
     points="0,-4.004 0.898954009,-1.2373040455 3.808030291,-1.2373040455 1.454538141067,0.4726080910 2.35349215,3.2393040455 0,1.529391909 -2.35349215,3.2393040455 -1.454538141067,0.472608091 -3.808030291,-1.2373040455 -0.898954009,-1.2373040455 0,-4.004 "
     sodipodi:arg1="-1.570796"
     sodipodi:arg2="-0.942477796"
     sodipodi:r1="4.004000"
     sodipodi:cx="0.000000"
     sodipodi:cy="0.000000"
     sodipodi:r2="1.529391909"
     transform="translate(23.2758,32.6531)" />
  <polygon
     sodipodi:type="star"
     style="font-size:12;fill:#ffffff;fill-rule:evenodd;stroke-width:0.125;"
     id="polygon269"
     sodipodi:sides="5"
     points="0,-4.004 0.898954009,-1.2373040455 3.808030291,-1.2373040455 1.454538141067,0.4726080910 2.35349215,3.2393040455 0,1.529391909 -2.35349215,3.2393040455 -1.454538141067,0.472608091 -3.808030291,-1.2373040455 -0.898954009,-1.2373040455 0,-4.004 "
     sodipodi:arg1="-1.570796"
     sodipodi:arg2="-0.942477796"
     sodipodi:r1="4.004000"
     sodipodi:cx="0.000000"
     sodipodi:cy="0.000000"
     sodipodi:r2="1.529391909"
     transform="translate(25.5367,43.4708)" />
  <polygon
     sodipodi:type="star"
     style="font-size:12;fill:#ffffff;fill-rule:evenodd;stroke-width:0.125;"
     id="polygon270"
     sodipodi:sides="5"
     points="0,-4.004 0.898954009,-1.2373040455 3.808030291,-1.2373040455 1.454538141067,0.4726080910 2.35349215,3.2393040455 0,1.529391909 -2.35349215,3.2393040455 -1.454538141067,0.472608091 -3.808030291,-1.2373040455 -0.898954009,-1.2373040455 0,-4.004 "
     sodipodi:arg1="-1.570796"
     sodipodi:arg2="-0.942477796"
     sodipodi:r1="4.004000"
     sodipodi:cx="0.000000"
     sodipodi:cy="0.000000"
     sodipodi:r2="1.529391909"
     transform="translate(33.1184,52.6889)" />
  <polygon
     sodipodi:type="star"
     style="font-size:12;fill:#ffffff;fill-rule:evenodd;stroke-width:0.125;"
     id="polygon271"
     sodipodi:sides="5"
     points="0,-4.004 0.898954009,-1.2373040455 3.808030291,-1.2373040455 1.454538141067,0.4726080910 2.35349215,3.2393040455 0,1.529391909 -2.35349215,3.2393040455 -1.454538141067,0.472608091 -3.808030291,-1.2373040455 -0.898954009,-1.2373040455 0,-4.004 "
     sodipodi:arg1="-1.570796"
     sodipodi:arg2="-0.942477796"
     sodipodi:r1="4.004000"
     sodipodi:cx="0.000000"
     sodipodi:cy="0.000000"
     sodipodi:r2="1.529391909"
     transform="translate(43.7197,57.2783)" />
  <polygon
     sodipodi:type="star"
     style="font-size:12;fill:#ffffff;fill-rule:evenodd;stroke-width:0.125;"
     id="polygon272"
     sodipodi:sides="5"
     points="0,-4.004 0.898954009,-1.2373040455 3.808030291,-1.2373040455 1.454538141067,0.4726080910 2.35349215,3.2393040455 0,1.529391909 -2.35349215,3.2393040455 -1.454538141067,0.472608091 -3.808030291,-1.2373040455 -0.898954009,-1.2373040455 0,-4.004 "
     sodipodi:arg1="-1.570796"
     sodipodi:arg2="-0.942477796"
     sodipodi:r1="4.004000"
     sodipodi:cx="0.000000"
     sodipodi:cy="0.000000"
     sodipodi:r2="1.529391909"
     transform="translate(54.8007,56.4273)" />
  <polygon
     sodipodi:type="star"
     style="font-size:12;fill:#ffffff;fill-rule:evenodd;stroke-width:0.125;"
     id="polygon214"
     sodipodi:sides="5"
     points="0,-4.004 0.898954009,-1.2373040455 3.808030291,-1.2373040455 1.454538141067,0.4726080910 2.35349215,3.2393040455 0,1.529391909 -2.35349215,3.2393040455 -1.454538141067,0.472608091 -3.808030291,-1.2373040455 -0.898954009,-1.2373040455 0,-4.004 "
     sodipodi:arg1="-1.570796"
     sodipodi:arg2="-0.942477796"
     sodipodi:r1="4.004000"
     sodipodi:cx="0.000000"
     sodipodi:cy="0.000000"
     sodipodi:r2="1.529391909"
     transform="translate(69.8586,41.8916)" />
  <polygon
     sodipodi:type="star"
     style="font-size:12;fill:#ffffff;fill-rule:evenodd;stroke-width:0.125;"
     id="polygon215"
     sodipodi:sides="5"
     points="0,-4.004 0.898954009,-1.2373040455 3.808030291,-1.2373040455 1.454538141067,0.4726080910 2.35349215,3.2393040455 0,1.529391909 -2.35349215,3.2393040455 -1.454538141067,0.472608091 -3.808030291,-1.2373040455 -0.898954009,-1.2373040455 0,-4.004 "
     sodipodi:arg1="-1.570796"
     sodipodi:arg2="-0.942477796"
     sodipodi:r1="4.004000"
     sodipodi:cx="0.000000"
     sodipodi:cy="0.000000"
     sodipodi:r2="1.529391909"
     transform="translate(70.9494,30.5729)" />
  <polygon
     sodipodi:type="star"
     style="font-size:12;fill:#ffffff;fill-rule:evenodd;stroke-width:0.125;"
     id="polygon216"
     sodipodi:sides="5"
     points="0,-4.004 0.898954009,-1.2373040455 3.808030291,-1.2373040455 1.454538141067,0.4726080910 2.35349215,3.2393040455 0,1.529391909 -2.35349215,3.2393040455 -1.454538141067,0.472608091 -3.808030291,-1.2373040455 -0.898954009,-1.2373040455 0,-4.004 "
     sodipodi:arg1="-1.570796"
     sodipodi:arg2="-0.942477796"
     sodipodi:r1="4.004000"
     sodipodi:cx="0.000000"
     sodipodi:cy="0.000000"
     sodipodi:r2="1.529391909"
     transform="translate(67.1315,20.3565)" />
  <polygon
     sodipodi:type="star"
     style="font-size:12;fill:#ffffff;fill-rule:evenodd;stroke-width:0.125;"
     id="polygon217"
     sodipodi:sides="5"
     points="0,-4.004 0.898954009,-1.2373040455 3.808030291,-1.2373040455 1.454538141067,0.4726080910 2.35349215,3.2393040455 0,1.529391909 -2.35349215,3.2393040455 -1.454538141067,0.472608091 -3.808030291,-1.2373040455 -0.898954009,-1.2373040455 0,-4.004 "
     sodipodi:arg1="-1.570796"
     sodipodi:arg2="-0.942477796"
     sodipodi:r1="4.004000"
     sodipodi:cx="0.000000"
     sodipodi:cy="0.000000"
     sodipodi:r2="1.529391909"
     transform="translate(58.7379,12.7347)" />
</svg>
