<?xml version="1.0" encoding="UTF-8" standalone="no"?>
<!DOCTYPE svg PUBLIC "-//W3C//DTD SVG 20010904//EN"
"http://www.w3.org/TR/2001/REC-SVG-20010904/DTD/svg10.dtd"
[
 <!ATTLIST svg
  xmlns:xlink CDATA #FIXED "http://www.w3.org/1999/xlink">
]>
<!-- Created with Sodipodi ("http://www.sodipodi.com/") -->
<svg
   xmlns="http://www.w3.org/2000/svg"
   xmlns:xlink="http://www.w3.org/1999/xlink"
   version="1"
   x="0"
   y="0"
   width="744.094"
   height="744.094"
   id="svg1">
  <defs
     id="defs3">
    <linearGradient
       x1="0"
       y1="0"
       x2="1"
       y2="0"
       id="linearGradient23"
       gradientUnits="objectBoundingBox"
       spreadMethod="pad">
      <stop
         style="stop-color:#8a2a22;stop-opacity:1;"
         offset="0"
         id="stop24" />
      <stop
         style="stop-color:#d5273a;stop-opacity:1;"
         offset="1"
         id="stop25" />
    </linearGradient>
    <linearGradient
       x1="0"
       y1="0"
       x2="1"
       y2="0"
       id="linearGradient17"
       gradientUnits="objectBoundingBox"
       spreadMethod="pad">
      <stop
         style="stop-color:#000000;stop-opacity:1;"
         offset="0"
         id="stop18" />
      <stop
         style="stop-color:#ffffff;stop-opacity:1;"
         offset="1"
         id="stop19" />
    </linearGradient>
    <linearGradient
       x1="-0.455211"
       y1="0.703125"
       x2="1.24169"
       y2="0.296875"
       id="linearGradient20"
       xlink:href="#linearGradient17"
       gradientUnits="objectBoundingBox"
       spreadMethod="pad" />
    <linearGradient
       x1="0.874171"
       y1="0.132812"
       x2="0.144231"
       y2="0.796875"
       id="linearGradient21"
       xlink:href="#linearGradient17"
       gradientUnits="objectBoundingBox"
       spreadMethod="pad" />
    <linearGradient
       x1="0"
       y1="0"
       x2="1"
       y2="0"
       id="linearGradient22"
       xlink:href="#linearGradient23"
       gradientUnits="objectBoundingBox"
       spreadMethod="pad" />
    <linearGradient
       x1="0.206806"
       y1="0.710937"
       x2="0.777129"
       y2="0.101562"
       id="linearGradient25"
       xlink:href="#linearGradient17"
       gradientUnits="objectBoundingBox"
       spreadMethod="pad" />
    <radialGradient
       cx="0.5"
       cy="0.5"
       fx="0.5"
       fy="0.5"
       r="0.5"
       id="radialGradient245"
       xlink:href="#linearGradient23"
       gradientUnits="objectBoundingBox"
       spreadMethod="pad" />
    <radialGradient
       cx="0.5"
       cy="0.5"
       fx="0.5"
       fy="0.5"
       r="0.5"
       id="radialGradient246"
       xlink:href="#linearGradient17"
       gradientUnits="objectBoundingBox"
       spreadMethod="pad" />
    <radialGradient
       cx="0.5"
       cy="0.5"
       fx="0.5"
       fy="0.5"
       r="0.5"
       id="radialGradient247"
       xlink:href="#linearGradient23"
       gradientUnits="objectBoundingBox"
       spreadMethod="pad" />
    <linearGradient
       x1="0.874171"
       y1="0.132812"
       x2="0.144231"
       y2="0.796875"
       id="linearGradient162"
       xlink:href="#linearGradient23"
       gradientUnits="objectBoundingBox"
       spreadMethod="pad" />
    <linearGradient
       x1="-0.455211"
       y1="0.703125"
       x2="1.24169"
       y2="0.296875"
       id="linearGradient163"
       xlink:href="#linearGradient23"
       gradientUnits="objectBoundingBox"
       spreadMethod="pad" />
  </defs>
  <g
     transform="matrix(3.21337,0,0,3.21337,-1377.18,-883.02)"
     style="font-size:12;"
     id="g336">
    <path
       d="M 275.24 272.544 C 275.24 272.29 268.261 272.037 268.261 271.784 C 267.098 270.307 257.954 271.784 254.901 271.784 C 252.857 271.784 247.659 272.582 242.425 274.823 C 240.108 275.405 236.816 280.096 231.252 281.84 C 226.789 283.585 220.986 284.299 214.402 285.462 C 209.168 285.816 202.084 286.981 200.632 286.981 C 197.282 286.981 194.754 287.741 190.753 287.741 C 187.54 287.741 183.758 286.981 180.115 286.981 C 176.569 286.981 173.022 286.981 169.476 286.981 C 165.351 286.981 163.588 287.741 159.598 287.741 C 159.598 288.28 152.31 291.541 151.999 291.541 C 151.999 293.793 147.44 294.263 147.44 297.62 C 144.632 297.62 145.545 303.314 143.64 305.219 C 143.64 308.24 142.121 309.036 142.121 312.058 C 140.708 312.058 140.601 316.389 140.601 318.137 C 140.601 319.973 139.841 324.243 139.841 327.255 C 139.841 331.197 138.321 333.928 138.321 337.134 C 138.321 339.082 135.952 344.643 138.321 347.012 C 138.321 350.638 139.081 351.903 139.081 355.371 C 139.918 355.371 141.361 360.733 141.361 362.21 C 141.361 364.839 142.88 368.745 142.88 372.088 C 142.88 373.831 144.4 379.464 144.4 381.207 C 144.4 384.753 144.4 388.299 144.4 391.845 C 144.4 395.391 144.4 398.937 144.4 402.484 C 144.4 404.177 142.458 405.861 144.4 407.803 C 144.4 411.427 145.92 414.603 145.92 417.681 C 145.92 421.504 146.68 422.977 146.68 426.8 C 148.486 428.606 147.497 430.599 150.479 430.599 C 150.479 432.015 152.759 433.222 152.759 435.918 C 152.759 439.321 155.039 442.032 155.039 445.037 C 156.317 445.037 159.598 450.889 159.598 452.636 C 160.039 452.636 163.397 457.92 163.397 458.715 C 166.055 461.372 167.193 464.03 169.476 466.314 C 169.476 467.443 175.237 471.633 175.555 471.633 C 177.291 471.633 179.569 475.432 181.634 475.432 C 184.267 475.432 188.9 475.887 192.273 476.192 C 196.068 476.959 201.801 476.952 205.616 478.485 C 209.45 479.688 220.605 480.751 223.853 480.751 C 227.399 480.751 232.804 481.128 238.228 481.511 C 243.134 482.583 248.152 482.271 250.784 482.271 C 254.675 482.271 260.374 481.894 265.256 480.744 C 270.776 479.978 275.529 478.862 280.036 477.329 C 284.65 474.631 285.852 471.917 289.524 468.244 C 293.595 464.794 295.596 461.183 297.896 459.475 C 300.463 456.408 302.774 453.786 304.735 452.636 C 306.652 450.818 314.401 450.363 319.166 450.363 C 323.315 451.896 325.992 452.246 329.812 453.396 C 334.263 455.696 338.861 457.182 342.73 458.715 C 346.414 460.865 350.046 462.145 354.155 462.912 C 358.372 463.526 368.059 462.917 371.605 462.917 C 375.405 462.917 383.275 462.336 387.074 462.336 C 390.475 462.336 396.566 461.762 398.331 461.762 C 402.332 461.762 406.989 461.385 412.639 460.235 C 416.882 458.702 420.336 457.578 423.681 455.662 C 427.131 453.052 430.697 450.709 431.279 446.154 C 431.186 440.115 435.819 424.938 438.157 420.733 C 439.896 416.84 443.759 410.502 446.443 405.906 C 449.758 400.674 454.757 393.935 456.897 391.441 C 459.326 388.802 464.094 383.051 466.816 380.44 C 469.611 377.704 475.941 372.38 478.702 370.054 C 482.76 367.045 490.449 362.078 491.892 360.915 C 486.248 355.892 481.441 351.586 477.975 349.285 C 474.062 346.602 469.302 344.829 466.618 342.467 C 463.37 340.55 457.527 337.664 454.843 334.881 C 451.499 332.581 446.121 328.72 443.821 326.516 C 440.714 324.216 436.209 320.464 434.675 318.896 C 433.018 316.979 430.116 315.482 430.116 313.577 C 427.918 313.577 427.636 309.401 424.42 309.401 C 422.883 307.864 419.646 306.369 416.438 305.219 C 412.604 302.82 410.78 303.322 406.902 301.405 C 402.685 300.711 398.455 299.892 393.237 300.276 C 386.72 299.075 376.924 290.752 376.924 290.021 C 374.767 290.021 372.201 286.981 369.325 286.981 C 365.779 286.981 363 286.598 359.07 286.598 C 355.673 285.883 352.191 285.462 350.328 285.462 C 348.198 285.462 345.085 284.702 341.97 284.702 C 341.97 283.32 333.801 283.942 332.091 283.942 C 328.119 283.942 326.371 282.422 322.213 282.422 C 320.87 282.422 312.334 281.594 312.334 280.902 C 309.549 280.902 305.128 281.295 303.216 279.383 C 299.675 279.383 297.8 277.863 294.857 277.863 C 294.857 275.356 288.516 274.823 285.738 274.823 C 281.681 274.823 276.671 273.116 275.24 272.544 z "
       transform="matrix(0.429369,-1.05162e-16,1.05162e-16,0.429369,415.67,233.078)"
       style="fill:#070508;fill-opacity:1;fill-rule:evenodd;stroke:#ffffff;stroke-width:3.20238;"
       id="path220" />
    <path
       d="M 189.396 452.636 C 196.175 451.078 199.364 449.246 202.904 446.08 C 205.329 443.956 210.53 440.523 212.313 439.673 C 214.238 438.823 225.02 434.051 229.127 433.259 C 232.202 432.126 248.052 428.742 250.884 428.572 "
       transform="matrix(0.429369,-1.05162e-16,1.05162e-16,0.429369,415.479,233.078)"
       style="fill:none;fill-opacity:1;fill-rule:evenodd;stroke:#ffffff;stroke-width:3.20238;"
       id="path222" />
    <path
       d="M 311.965 450.994 C 310.269 449.994 293.035 441.288 289.618 438.288 C 285.993 434.516 283.434 431.467 281.684 428.17 C 280.815 426.17 278.529 419.297 277.779 416.176 C 277.154 412.863 276.64 408.194 276.64 402.609 C 276.64 398.154 277.42 395.505 280.434 392.13 C 282.809 389.025 285.642 385.121 288.413 382.371 C 290.788 378.943 296.255 373.61 297.377 371.863 C 300.002 368.946 302.48 365.676 304.73 362.215 C 307.04 357.965 307.525 353.75 307.525 351.191 C 307.525 344.817 305.111 344.007 299.252 343.882 C 294.691 344.382 289.605 345.103 284.169 346.353 C 277.859 347.853 271.845 348.823 266.616 348.823 C 260.513 348.823 259.065 344.736 261.013 339.749 C 262.961 334.887 266.13 332.111 268.837 328.77 C 271.543 325.554 277.44 320.416 278.14 320.416 "
       transform="matrix(0.429369,-1.05162e-16,1.05162e-16,0.429369,415.095,233.078)"
       style="fill:none;fill-opacity:1;fill-rule:evenodd;stroke:#ffffff;stroke-width:3.20238;"
       id="path224" />
    <path
       d="M 460.511 340.808 C 460.131 340.808 460.377 340.308 459.997 340.308 C 460.872 340.308 451.358 339.793 447.973 339.793 C 442.309 339.793 439.295 340.448 434.656 341.823 C 431.41 342.943 426.227 345.757 423.522 347.132 C 421.397 348.427 417.971 349.816 415.418 351.691 C 412.418 353.534 411.383 354.361 408.315 355.486 C 406.69 356.327 403.21 356.751 401.505 356.751 "
       transform="matrix(0.429369,-1.05162e-16,1.05162e-16,0.429369,417.541,234.057)"
       style="fill:none;fill-opacity:1;fill-rule:evenodd;stroke:#ffffff;stroke-width:2.91125;"
       id="path236" />
    <path
       d="M 380.724 314.717 C 381.104 314.717 381.484 314.717 381.864 314.717 C 378.343 314.717 386.548 314.326 390.298 314.982 C 395.861 315.732 398.655 316.497 401.366 317.122 C 403.741 317.791 407.332 319.416 409.719 320.416 C 412.149 321.541 416.838 324.416 419.088 327.755 C 419.963 329.604 420.717 331.329 417.573 332.954 C 414.823 334.902 410.819 334.469 407.755 334.094 C 404.649 333.844 394.698 329.861 391.732 327.895 C 388.605 325.395 386.941 324.041 383.989 321.041 C 382.864 319.085 381.206 317.895 380.724 314.717 z "
       transform="matrix(0.429369,-1.05162e-16,1.05162e-16,0.429369,415.095,233.078)"
       style="fill:#ffffff;fill-opacity:1;fill-rule:evenodd;stroke:#000000;stroke-width:1pt;"
       id="path237" />
    <path
       d="M 498.321 363.284 C 499.709 361.896 506.699 356.352 508.398 353.564 C 509.857 352.106 512.781 347.172 514.48 344.8 C 515.821 342.043 515.643 341.322 516.493 338.481 C 516.632 333.526 514.793 331.386 514.793 329.195 C 513.824 326.692 512.886 323.659 512.319 320.967 C 510.912 317.012 513.556 315.151 514.689 312.636 C 516.569 310.574 520.338 306.243 521.754 302.859 C 523.331 300.15 525.183 297.76 524.899 292.858 C 524.899 290.957 524.602 285.2 523.378 281.71 C 521.848 278.197 520.439 275.463 519.147 273.604 C 517.613 270.937 511.979 264.035 510.249 264.035 C 508.824 262.61 502.226 257.669 498.859 255.97 C 495.997 254.525 488.458 250.396 485.774 249.546 C 482.963 248.15 478.237 246.372 474.298 246.088 C 469.815 245.547 466.497 244.569 463.388 244.569 C 459.742 244.569 453.572 243.048 449.929 243.048 C 446.476 242.482 438.49 242.065 437.411 242.065 C 435.316 242.065 429.975 240.35 427.425 239.069 C 424.579 237.923 419.284 234.554 416.694 231.155 C 413.726 228.82 412.561 226.051 408.916 223.539 C 405.269 221.107 399.093 219.694 394.92 217.995 C 391.267 216.042 384.448 213.231 380.24 211.005 C 377.528 209.197 366.334 205.072 362.443 203.449 C 357.502 201.802 351.277 198.915 343.814 197.309 C 338.968 196.097 327.998 192.538 323.991 191.971 C 320.92 190.838 314.193 191.018 310.339 190.735 C 306.581 190.837 303.724 191.063 299.325 191.063 C 295.621 190.366 291.472 191.272 289.085 191.272 C 286.515 191.859 282.465 191.186 279.621 192.047 C 276.44 192.047 274.607 192.642 272.318 194.625 C 269.901 195.908 269.247 197.393 266.981 199.008 C 265.575 201.27 263.923 202.201 262.674 205.432 C 261.167 206.939 260.5 215.359 260.662 218.637 C 260.379 222.156 259.917 223.809 261.05 228.13 C 262.52 231.018 265.819 235.645 268.652 239.086 C 270.621 241.622 274.614 249.294 274.614 252.842 C 274.614 254.249 273.179 258.34 271.96 261.456 C 271.282 263.945 269.838 266.388 268.861 269.221 C 271.299 271.092 280.437 272.691 284.345 274.616 C 288.165 276.316 296.908 277.789 302.857 279.773 C 307.529 280.056 322.261 282.738 326.748 283.305 C 330.664 283.564 343.047 284.826 346.156 284.826 C 349.669 284.826 359.136 286.347 362.49 286.347 C 367.702 286.064 373.586 287.897 376.32 289.03 C 379.922 290.406 381.953 295.736 385.351 296.869 C 386.498 299.148 390.745 299.685 393.1 299.685 C 395.914 299.685 401.828 300.743 405.784 300.743 C 408.724 301.133 415.515 304.077 419.197 305.721 C 421.074 306.659 427.067 310.439 428.483 312.145 C 429.798 314.026 434.308 319.386 436.769 321.846 C 440.865 325.376 447.888 329.902 451.287 332.936 C 453.812 334.612 460.94 339.907 463.792 341.909 C 466.553 343.609 473.774 347.437 477.443 349.703 C 479.723 350.843 484.376 352.489 487.654 355.039 C 490.701 357.554 496.264 363.284 498.321 363.284 z "
       transform="matrix(0.429369,-1.05162e-16,1.05162e-16,0.429369,415.095,233.078)"
       style="fill:#961c1e;fill-opacity:1;fill-rule:evenodd;stroke:#ffffff;stroke-width:2.91125;"
       id="path238" />
    <path
       d="M 84.7713 252.056 C 83.7697 253.619 82.6778 257.871 82.0371 261.046 C 80.7297 265.164 80.5305 270.927 79.4099 273.355 C 78.1085 275.777 74.8753 281.014 73.3812 284.212 C 72.5908 285.937 71.731 289.078 70.3804 291.736 C 68.8863 295.109 68.0197 295.023 65.5917 298.444 C 63.7568 300.279 62.0308 303.429 62.0308 306.313 C 61.2475 309.338 62.738 315.912 62.738 318.638 C 62.738 322.836 63.1514 327.26 63.1514 331.561 C 63.7478 335.893 61.2439 344.92 60.3101 347.646 C 60.3101 351.954 59.1496 357.302 59.1496 361.503 C 59.1496 365.438 57.6555 371.8 59.3364 376.482 C 59.3364 378.795 64.2047 384.875 65.6988 388.485 C 66.9692 391.436 68.58 396.27 69.1403 398.942 C 69.1403 402.182 68.0595 407.49 68.0595 410.133 C 67.8359 413.084 67.6462 415.455 67.6462 418.574 C 67.0374 421.01 67.8713 424.723 69.1403 427.151 C 70.5301 431.02 71.1673 433.725 74.1556 436.994 C 75.7914 438.63 79.3968 440.874 82.1043 442.369 C 85.5138 443.91 90.0929 449.615 91.9606 451.25 C 93.3772 453.788 93.3875 456.849 93.3875 461.254 C 93.3875 465.759 93.8008 467.399 93.8008 471.897 C 93.8008 475.67 93.9203 483.298 95.6012 485.715 C 97.8424 488.627 100.46 492.169 102.79 493.103 C 105.996 494.442 107.595 494.904 111.259 495.838 C 115.204 496.607 120.182 498.292 121.863 500.226 C 124.287 502.649 125.548 505.818 126.437 507.081 C 127.714 509.851 130.183 513.163 132.585 516.151 C 136.236 517.976 141.672 518.324 145.47 518.324 C 149.046 518.324 152.158 519.111 156.487 519.111 C 158.589 519.111 163.916 519.092 167.091 517.911 C 169.846 517.023 171.064 516.911 173.119 514.35 C 175.361 509.866 177.653 505.107 178.96 502.225 C 180.792 498.526 183.654 491.812 184.588 488.649 C 185.522 484.534 184.549 482 183.989 478.979 C 182.975 477.031 179.299 473.872 176.267 471.817 C 174.828 470.378 170.273 467.47 168.25 465.415 C 166.762 463.179 161.728 455.27 160.421 453.011 C 159.356 450.694 157.381 446.87 155.7 443.568 C 154.428 440.802 151.086 432.652 149.031 429.591 C 147.887 426.952 146.217 423.833 145.47 420.748 C 144.959 417.296 144.683 412.593 144.683 408.945 C 144.647 405.734 143.896 400.654 143.896 397.928 C 143.896 393.993 143.896 390.059 143.896 386.124 C 143.896 382.19 143.896 378.255 143.896 374.321 C 143.896 372.215 142.67 367.28 141.536 364.091 C 139.855 360.171 138.014 352.656 138.014 349.008 C 138.014 344.428 138.054 334.679 139.175 330.254 C 139.728 325.779 139.962 321.748 139.962 318.825 C 139.962 315.282 142.096 310.607 143.777 306.767 C 144.554 303.531 147.089 296.52 149.365 294.243 C 150.574 291.824 155.094 288.922 158.435 287.988 C 161.593 286.68 165.515 286.6 169.077 286.414 C 173.499 286.444 180.944 286.934 185.07 286.934 C 187.07 285.934 187.47 282.521 188.03 280.092 C 189.193 275.754 187.736 273.627 186.616 270.621 C 185.277 267.198 180.26 263.16 177.733 260.632 C 174.055 257.141 172.237 256.297 169.077 253.137 C 167.4 251.46 164.687 250.174 161.141 248.869 C 157.534 246.815 150.38 244.988 143.856 243.508 C 140.584 242.948 137.15 242.534 132.653 241.974 C 128.945 241.414 123.455 241.334 121.076 241.334 C 117.516 241.521 113.207 241.334 109.272 241.334 C 105.151 241.334 101.423 240.547 98.2558 240.547 C 96.2146 240.547 93.6415 240.261 92.1474 241.747 C 90.3861 243.508 85.3316 249.62 84.7713 252.056 z "
       transform="matrix(0.429369,-1.05162e-16,1.05162e-16,0.429369,416.324,233.516)"
       style="fill:#ffffff;fill-opacity:1;fill-rule:evenodd;stroke:#000000;stroke-width:2pt;"
       id="path239" />
    <path
       d="M 470.719 401.03 C 474.938 403.198 491.959 415.976 495.33 419.351 C 498.705 422.11 507.581 433.683 510.956 436.973 C 514.332 441.973 520.795 452.104 523.046 458.575 C 525.867 465.616 525.948 473.795 525.859 483.358 C 521.077 491.807 528.554 482.772 529.398 480.409 C 532.492 474.901 533.582 473.121 535.551 468.611 C 537.499 464.111 538.891 460.494 540.86 451.505 C 541.985 446.221 542.575 439.351 542.575 437.012 C 542.575 434.259 542.294 431.226 542.013 428.191 C 542.013 425.453 541.059 420.126 539.934 414.062 C 537.308 408.061 535.586 403.001 532.211 397.662 C 529.942 393.162 526.765 389.041 523.109 385.412 C 520.736 381.755 514.021 376.31 510.296 373.216 C 506.961 370.725 504.241 369.039 499.851 365.491 C 497.199 362.96 491.001 359.172 491.001 360.883 C 489.182 360.883 482.729 366.465 478.54 369.559 C 475.165 372.509 469.969 376.864 466.117 380.801 C 463.204 383.996 454.28 393.471 454.793 393.471 C 454.793 393.471 467.304 399.623 470.719 401.03 z "
       transform="matrix(0.409016,-1.00177e-16,1.00177e-16,0.409016,424.213,241.1)"
       style="fill:url(#linearGradient20);fill-opacity:1;fill-rule:evenodd;stroke:#000000;stroke-width:2.5;"
       id="path262" />
    <path
       d="M 453.98 394.498 C 451.815 396.871 448.613 400.376 446.362 405.041 C 444.465 408.416 441.644 413.203 440.518 415.859 C 439.1 418.683 436.507 424.615 435.944 426.75 C 435.373 429.009 432.795 435.579 432.795 437.122 C 432.795 438.687 443.871 445.352 446.624 447.602 C 451.687 451.209 459.907 456.388 463.797 457.232 C 467.688 459.436 481.256 463.329 485.239 464.455 C 488.885 465.298 500.642 466.815 503.444 467.096 C 506.196 467.096 522.944 467.386 524.165 467.021 C 523.031 465.276 522.067 456.87 518.191 451.587 C 514.254 444.241 510.748 438.928 507.092 434.309 C 502.494 427.559 496.265 421.374 490.385 416.312 C 484.76 412.012 474.576 403.608 472.481 403.608 C 472.481 402.961 458.555 396.185 453.98 394.498 z "
       transform="matrix(0.409016,-1.00177e-16,1.00177e-16,0.409016,424.333,241.024)"
       style="fill:url(#linearGradient21);fill-opacity:1;fill-rule:evenodd;stroke:#000000;stroke-width:2.5;"
       id="path263" />
  </g>
</svg>
