<?xml version="1.0" encoding="UTF-8" standalone="no"?>
<!DOCTYPE svg PUBLIC "-//W3C//DTD SVG 20010904//EN"
"http://www.w3.org/TR/2001/REC-SVG-20010904/DTD/svg10.dtd">
<!-- Created with Sodipodi ("http://www.sodipodi.com/") -->
<svg
   id="svg675"
   sodipodi:version="0.32"
   width="210mm"
   height="297mm"
   sodipodi:docbase="/home/aldo/nany/"
   sodipodi:docname="/home/aldo/nany/fred2.svg"
   xmlns="http://www.w3.org/2000/svg"
   xmlns:sodipodi="http://sodipodi.sourceforge.net/DTD/sodipodi-0.dtd"
   xmlns:xlink="http://www.w3.org/1999/xlink">
  <defs
     id="defs677">
    <linearGradient
       id="linearGradient906">
      <stop
         style="stop-color:#ffffff;stop-opacity:0.654902;"
         offset="0.000000"
         id="stop907" />
      <stop
         style="stop-color:#ffffff;stop-opacity:0;"
         offset="1.000000"
         id="stop908" />
    </linearGradient>
    <linearGradient
       id="linearGradient684">
      <stop
         style="stop-color:#8f2217;stop-opacity:1;"
         offset="0.000000"
         id="stop685" />
      <stop
         style="stop-color:#350000;stop-opacity:1;"
         offset="1.000000"
         id="stop686" />
    </linearGradient>
    <linearGradient
       id="linearGradient680">
      <stop
         style="stop-color:#000;stop-opacity:1;"
         offset="0"
         id="stop681" />
      <stop
         style="stop-color:#fff;stop-opacity:1;"
         offset="1"
         id="stop682" />
    </linearGradient>
    <linearGradient
       xlink:href="#linearGradient906"
       id="linearGradient683"
       x1="0.48808879"
       y1="0.31818670"
       x2="0.53571391"
       y2="0.51136428"
       gradientUnits="objectBoundingBox"
       spreadMethod="pad" />
    <linearGradient
       xlink:href="#linearGradient906"
       id="linearGradient630"
       x1="0.29604533"
       y1="0.23438141"
       x2="0.75657862"
       y2="0.67187524"
       gradientUnits="objectBoundingBox"
       spreadMethod="pad" />
  </defs>
  <sodipodi:namedview
     id="base" />
  <g
     id="g868">
    <path
       style="fill:#feebb6;fill-rule:evenodd;stroke:none;stroke-opacity:1;stroke-width:1pt;stroke-linejoin:miter;stroke-linecap:butt;fill-opacity:1;"
       d="M 578.75 774.862 L 482.5 792.362 C 482.5 792.362 185.633 556.496 177.799 499.95 C 170.74 466.255 178.416 452.977 186.549 435.161 C 204.9 412.081 221.865 402.902 247.025 406.975 C 258.662 408.471 270.299 411.517 281.936 416.887 C 293.902 397.978 305.094 378.295 310.863 357.837 C 318.257 332.286 321.778 318.741 323.75 298.612 L 480 234.862 L 659.049 411.024 C 652.799 458.941 647.711 506.47 640.687 554.387 C 637.189 589.715 639.501 619.234 644.137 655.725 C 649.519 690.854 650.639 724.434 648.275 761.112 L 578.75 774.862 z "
       id="path631"
       transform="translate(0.000000,-0.223343)"
       sodipodi:nodetypes="ccccsccccccccc" />
    <path
       style="fill:#ecba7c;fill-rule:evenodd;stroke:none;stroke-opacity:1;stroke-width:1pt;stroke-linejoin:miter;stroke-linecap:butt;fill-opacity:1;"
       d="M 283.234 785.548 C 283.234 784.863 483.003 790.337 483.003 790.337 C 498.738 771.637 504.853 760.229 507.632 742.446 C 515.157 698.661 510.492 691.093 510.369 677.453 C 509.908 625.778 483.003 599.461 470.688 585.094 C 450.293 562.433 417.35 538.903 394.065 535.152 C 388.844 551.901 382.266 563.618 368.752 568.675 C 319.969 586.674 266.659 572.954 223.714 553.624 C 198.358 541.903 186.903 517.445 176.508 498.209 L 106.041 530.364 C 92.6354 536.481 88.9437 581.674 88.9382 582.358 C 89.6223 672.665 124.514 782.127 125.198 782.127 C 125.882 782.127 283.918 785.548 283.234 785.548 z "
       id="path629"
       sodipodi:nodetypes="ccssscsscsscc" />
    <path
       style="fill:#ffffff;fill-rule:evenodd;stroke:none;stroke-opacity:1;stroke-width:1pt;stroke-linejoin:miter;stroke-linecap:butt;fill-opacity:1;"
       d="M 331.163 420.406 L 352.824 436.93 C 352.824 436.93 368.232 402.541 368.232 401.871 C 368.232 401.201 368.232 364.803 368.232 364.803 L 356.397 348.948 L 342.552 347.161 C 342.552 347.161 330.27 354.977 330.27 355.424 C 330.27 355.87 315.755 378.648 315.755 378.871 C 315.755 379.094 309.949 402.541 310.396 402.765 C 310.842 402.988 330.94 420.852 331.163 420.406 z "
       id="path634" />
    <path
       style="fill:#000000;fill-rule:evenodd;stroke:none;stroke-opacity:1;stroke-width:1pt;stroke-linejoin:miter;stroke-linecap:butt;fill-opacity:1;"
       d="M 350.638 436.536 C 350.638 436.241 345.629 413.553 345.629 413.553 L 327.36 399.704 L 310.86 402.945 L 310.86 425.928 L 316.458 444.492 L 327.36 453.331 C 327.36 453.331 340.03 450.09 340.325 450.09 C 340.62 450.09 351.227 437.125 350.638 436.536 z "
       id="path632" />
    <path
       style="fill:#5d0909;fill-rule:evenodd;stroke:none;stroke-opacity:1;stroke-width:1pt;stroke-linejoin:miter;stroke-linecap:butt;fill-opacity:1;"
       d="M 234.716 701.715 C 234.716 701.715 241.85 688.517 242.563 687.09 C 243.277 685.663 246.131 669.968 246.131 666.758 C 246.131 663.547 246.131 653.203 246.131 651.776 C 246.131 650.349 245.417 641.788 245.417 641.788 C 245.417 641.788 261.112 645.712 262.183 646.068 C 263.253 646.425 299.637 653.916 302.491 653.916 C 305.345 653.916 329.958 653.916 331.028 653.916 C 332.098 653.916 355.641 651.419 357.068 651.419 C 358.495 651.419 376.33 644.642 376.33 644.285 C 376.33 643.928 391.312 635.01 392.382 633.94 C 393.452 632.87 402.013 625.022 403.083 623.952 C 404.154 622.882 410.574 614.321 410.931 613.964 C 411.288 613.608 415.568 609.684 415.568 609.684 C 415.568 609.684 417.352 631.8 417.352 632.157 C 417.352 632.513 413.071 650.706 413.071 651.419 C 413.071 652.132 409.861 664.261 409.504 664.261 C 409.148 664.261 405.224 672.822 404.867 672.822 C 404.51 672.822 396.663 669.611 395.949 669.255 C 395.236 668.898 382.394 667.471 378.827 667.471 C 375.26 667.471 362.062 667.471 360.992 667.471 C 359.921 667.471 347.793 669.968 346.723 670.325 C 345.653 670.681 337.805 676.032 333.168 677.102 C 328.531 678.172 319.613 683.523 317.473 684.95 C 315.333 686.377 303.204 696.008 302.491 696.365 C 301.778 696.721 296.784 701.359 295.713 702.072 C 294.643 702.785 290.006 708.493 289.649 709.206 C 289.293 709.92 286.082 717.767 286.082 718.124 C 286.082 718.481 285.012 721.334 282.872 721.334 C 280.732 721.334 272.527 719.551 268.247 718.481 C 263.966 717.411 251.125 712.06 251.125 711.703 C 251.125 711.346 240.067 706.353 239.353 705.639 C 238.64 704.926 235.429 701.359 234.716 701.715 z "
       id="path679" />
    <path
       transform="translate(0.351410,0.702713)"
       style="font-size:12;fill:#da2929;fill-rule:evenodd;stroke:none;stroke-width:5;stroke-linejoin:round;fill-opacity:1;"
       d="M 406.26 674.685 C 393.199 697.408 369.705 732.019 284.377 722.48 C 287.977 708.984 297.789 701.9 308.08 693.33 C 318.374 685.826 331.013 677.539 344.434 672.379 C 354.72 668.455 365.788 666.875 379.983 666.858 C 390.227 666.488 399.925 670.365 406.26 674.685 z "
       id="path589"
       sodipodi:nodetypes="cccccc" />
    <path
       style="fill:#ffffff;fill-rule:evenodd;stroke:none;stroke-opacity:1;stroke-width:1pt;stroke-linejoin:miter;stroke-linecap:butt;fill-opacity:1;"
       d="M 427.855 445.639 C 427.855 445.639 453.981 460.601 454.205 460.601 C 454.428 460.601 460.234 425.095 460.234 424.649 C 460.234 424.202 452.642 382.667 452.642 382.667 L 438.35 362.346 C 438.35 362.346 420.262 363.016 420.039 363.016 C 419.816 363.016 405.971 378.201 405.971 378.201 L 401.058 401.871 L 401.504 431.571 L 427.855 445.639 z "
       id="path635" />
    <path
       style="fill:#000000;fill-rule:evenodd;stroke:none;stroke-opacity:1;stroke-width:1pt;stroke-linejoin:miter;stroke-linecap:butt;fill-opacity:1;"
       d="M 449.642 466.001 C 449.642 466.001 450.231 449.206 450.231 448.322 C 450.231 447.438 439.034 431.527 439.034 431.232 C 439.034 430.938 421.944 423.571 421.649 423.571 C 421.355 423.571 407.211 426.223 406.917 426.223 C 406.622 426.223 401.318 428.58 401.318 429.464 C 401.318 430.348 404.56 453.921 405.149 455.099 C 405.738 456.278 416.346 474.546 416.64 474.546 C 416.935 474.546 425.775 482.207 426.364 482.207 C 426.953 482.207 437.855 483.681 438.445 483.681 C 439.034 483.681 447.579 474.841 447.874 474.546 C 448.168 474.252 449.347 465.707 449.642 466.001 z "
       id="path633" />
    <path
       style="fill:#000000;fill-rule:evenodd;stroke:none;stroke-opacity:1;stroke-width:5;stroke-linejoin:round;stroke-linecap:butt;fill-opacity:1;stroke-dasharray:none;"
       d="M 332.329 318.106 C 339.097 311.518 344.991 307.231 352.949 303.263 C 358.563 300.515 370.782 296.75 375.157 296.577 C 378.756 296.437 378.914 297.024 380.44 297.729 C 384.411 300.472 382.031 310.198 381.477 311.83 C 380.753 313.102 380.631 316.072 376.624 316.551 C 374.131 316.801 362.534 317.202 358.397 317.72 C 354.132 317.785 340.485 319.906 336.136 320.562 C 332.406 321.113 331.196 319.827 332.329 318.106 z "
       id="path844"
       sodipodi:nodetypes="ccsccscsc" />
    <path
       style="fill:#000000;fill-rule:evenodd;stroke:none;stroke-opacity:1;stroke-width:5;stroke-linejoin:round;stroke-linecap:butt;fill-opacity:1;stroke-dasharray:none;"
       d="M 484.4 332.97 C 485.118 331.446 479.404 320.442 470.741 313.828 C 464.496 308.065 451.7 301.487 447.628 301.029 C 446.71 300.924 444.634 301.341 443.649 302.569 C 440.65 305.379 437.617 317.611 437.197 319.561 C 437.021 321.273 437.626 322.31 440.228 323.199 C 442.75 324.217 454.321 324.798 461.254 326.823 C 465.97 328.416 476.624 331.663 480.487 333.66 C 482.165 334.608 484.489 334.033 484.4 332.97 z "
       id="path845"
       sodipodi:nodetypes="ccsccscsc" />
    <path
       style="fill:#000000;fill-rule:evenodd;stroke:none;stroke-opacity:1;stroke-width:5;stroke-linejoin:round;stroke-linecap:butt;fill-opacity:1;stroke-dasharray:none;"
       d="M 588.831 348.517 C 572.951 328.007 551.797 314.243 529.24 303.248 C 503.286 292.963 492.543 289.614 469.393 286.04 C 440.878 280.907 419.755 280.79 390.558 282.626 C 368.066 284.94 350.066 289.575 326.725 298.5 C 303.756 305.32 282.673 311.359 256.968 316.225 C 242.028 318.81 229.109 320.614 215.342 318.509 C 207.591 316.616 202.576 313.159 197.171 306.966 C 208.552 310.941 216.415 306.709 223.496 305.994 C 248.203 298.702 269.208 287.152 287.324 277.155 C 307.233 267.441 323.858 255.168 343.436 242.481 C 328.773 240.246 318.381 241.582 297.223 243.379 C 323.267 230.342 361.685 215.371 396.379 212.16 C 423.239 208.375 471.729 209.937 505.366 218.316 C 526.625 223.194 540.165 227.425 562.316 236.453 C 580.856 245.908 594.555 256.552 611.786 269.916 C 621.978 278.052 629.488 284.066 637.334 292.984 C 644.786 284.985 651.729 279.566 659.689 276.805 C 670.109 272.698 679.317 274.178 688.604 277.184 C 704.51 284.274 713.068 295.078 718.147 308.071 C 723.679 323.098 725.301 334.217 726.142 350.808 C 726.1 367.055 727.894 377.633 724.372 388.877 C 722.229 396.584 716.412 409.565 706.139 415.197 C 696.449 417.666 688.557 415.99 680.939 410.133 C 675.505 405.33 672.416 400.528 670.891 396.507 C 668.537 388.3 667.748 385.565 666.958 378.14 C 665.396 387.489 664.89 396.604 661.921 403.49 C 656.705 411.077 655.555 409.245 652.684 410.774 C 648.952 412.4 641.897 409.923 639.337 406.859 C 634.608 400.68 633.709 391.281 631.814 380.272 C 630.877 394.205 630.27 410.923 627.757 419.21 C 626.566 425.771 625.851 430.009 621.943 438.218 C 617.772 449.402 609.482 452.645 603.802 453.231 C 584.431 450.918 573.897 424.961 571.404 416.516 C 568.977 411.37 564.562 392.11 566.971 377.382 C 567.728 368.007 571.766 361.149 576.521 356.706 C 580.78 352.751 582.637 351.951 588.831 348.517 z "
       id="path846"
       sodipodi:nodetypes="ccccccccccccccccccccccccccccccccccccc" />
  </g>
  <g
     id="g1013">
    <path
       style="fill:url(#linearGradient630);fill-rule:evenodd;stroke:none;stroke-opacity:1;stroke-width:1pt;stroke-linejoin:miter;stroke-linecap:butt;fill-opacity:0.470588;"
       d="M 151.5 581.497 C 158.729 580.207 175.59 575.068 185.634 569.106 C 195.649 563.022 203.803 554.496 206.909 543.388 C 215.103 550.443 225.439 555.812 232.861 559.053 C 234.245 568.047 223.355 584.083 214.391 592.018 C 204.339 600.916 194.237 607.915 179.79 612.359 C 170.233 604.642 154.521 588.313 151.5 581.497 z "
       id="path911"
       sodipodi:nodetypes="csccscc"
       transform="translate(0.000000,-3.051758e-5)" />
    <path
       style="fill:url(#linearGradient683);fill-rule:evenodd;stroke:none;stroke-opacity:1;stroke-width:1pt;stroke-linejoin:miter;stroke-linecap:butt;fill-opacity:0.507353;"
       d="M 301.784 432.807 C 301.784 432.807 291.569 422.658 285.797 420.018 C 261.489 408.881 250.38 405.998 232.179 406.49 C 212.659 407.281 199.025 419.881 193.565 426.167 C 187.756 432.571 179.791 448.302 179.545 448.302 C 179.3 448.302 206.858 435.851 237.836 431.824 C 263.413 428.253 278.5 429.692 301.784 432.807 z "
       id="path910"
       sodipodi:nodetypes="cssssss" />
    <path
       style="fill:#000000;fill-rule:evenodd;stroke:none;stroke-opacity:1;stroke-width:1pt;stroke-linejoin:miter;stroke-linecap:butt;fill-opacity:0.08;"
       d="M 647.084 760.304 L 648.373 677.798 C 648.746 653.946 637.958 602.789 638.995 570.872 C 640.721 538.347 647.766 503.078 647.766 501.738 C 647.766 500.399 659.141 403.939 659.141 403.939 L 605.552 397.24 C 623.382 420.794 635.847 491.131 625.864 526.168 C 606.923 589.802 560.487 609.751 485.229 672.62 C 392.814 749.153 304.597 751.432 198.278 785.076 L 484.978 788.438 L 647.084 760.304 z "
       id="path905"
       sodipodi:nodetypes="csssccssccc" />
    <path
       style="fill:#000000;fill-rule:evenodd;stroke:none;stroke-opacity:1;stroke-width:1pt;stroke-linejoin:miter;stroke-linecap:butt;fill-opacity:0.08;"
       d="M 386.362 524.947 C 379.626 522.702 337.839 546.063 276.709 529.684 C 226.625 516.992 197.473 507.623 175.019 482.283 C 177.013 501.058 187.013 521.896 199.285 534.759 C 215.019 551.265 244.033 564.665 268.293 571.028 C 293.913 577.748 323.096 578.879 348.924 574.971 C 364.499 572.664 377.769 563.677 387.004 554.705 C 392.078 549.454 393.137 540.829 393.137 533.91 C 393.137 530.375 389.432 525.824 386.362 524.947 z "
       id="path909"
       sodipodi:nodetypes="cscssssss" />
  </g>
  <g
     id="g880">
    <path
       style="fill:none;fill-rule:evenodd;stroke:black;stroke-opacity:1;stroke-width:5;stroke-linejoin:round;stroke-linecap:butt;fill-opacity:1;stroke-dasharray:none;"
       d="M 376.806 481.631 C 357.086 472.146 342.21 462.328 323.887 451.606 C 311.152 440.65 299.463 428.88 285.592 419.612 C 271.1 412.352 258.558 408.67 241.725 406.908 C 228.77 406.241 219.132 407.464 206.177 416.033 C 192.516 425.517 183.465 436.384 176.887 459.894 C 170.377 488.641 181.348 512.541 194.767 530.107 C 208.201 546.963 227.049 558.79 245.125 564.564 C 263.454 571.546 322.633 587.182 365.247 571.244 C 390.091 561.272 399.319 535.735 391.025 534.55 C 391.131 534.419 391.237 534.289 391.343 534.158 "
       id="path684"
       sodipodi:nodetypes="ccccccscccc" />
    <path
       style="fill:none;fill-rule:evenodd;stroke:black;stroke-opacity:1;stroke-width:5;stroke-linejoin:round;stroke-linecap:butt;fill-opacity:1;stroke-dasharray:none;"
       d="M 207.177 542.263 C 203.598 554.861 196.294 563.778 186.461 568.558 C 177.73 574.072 165.873 579.585 150.888 581.972 C 164.334 598.914 179.343 614.294 195.916 623.419 C 213.295 632.487 229.892 639.21 248.052 643.588 C 262.32 648.312 284.406 652.696 304.929 653.85 C 320.696 655.066 335.446 655.397 349.883 653.278 C 362.411 650.133 375.251 649.776 396.143 631.336 C 405.059 621.082 408.815 617.084 417.496 604.486 C 417.102 603.696 416.707 602.906 416.312 602.116 "
       id="path685"
       sodipodi:nodetypes="cccccccccc" />
    <path
       style="fill:none;fill-rule:evenodd;stroke:black;stroke-opacity:1;stroke-width:5;stroke-linejoin:round;stroke-linecap:butt;fill-opacity:1;stroke-dasharray:none;"
       d="M 397.695 595.382 C 411.223 596.986 415.354 599.396 421.394 607.231 C 424.549 611.036 426.397 620.252 425.793 621.793 "
       id="path686"
       sodipodi:nodetypes="ccc"
       transform="translate(0.000000,-3.051758e-5)" />
    <path
       style="fill:none;fill-rule:evenodd;stroke:black;stroke-opacity:1;stroke-width:5;stroke-linejoin:round;stroke-linecap:butt;fill-opacity:1;stroke-dasharray:none;"
       d="M 227.103 697.313 C 245.65 709.5 258.178 716.187 275.71 721.026 C 293.458 724.839 311.311 725.394 326.611 723.735 C 341.017 722.035 356.387 719.187 369.672 712.588 C 382.69 705.059 393.805 696.852 402.471 682.288 C 409.161 670.043 412.489 658.346 414.723 647.118 C 417.858 631.336 417.867 615.553 417.093 604.461 "
       id="path687"
       sodipodi:nodetypes="ccccccc" />
    <path
       style="fill:none;fill-rule:evenodd;stroke:black;stroke-opacity:1;stroke-width:5;stroke-linejoin:round;stroke-linecap:butt;fill-opacity:1;stroke-dasharray:none;"
       d="M 243.974 642.943 C 246.723 655.308 247.722 663.804 246.168 677.926 C 244.319 688.407 241.193 694.927 235.559 702.346 "
       id="path688"
       sodipodi:nodetypes="ccc" />
    <path
       transform="translate(0.000000,-3.051758e-5)"
       style="font-size:12;fill:none;fill-rule:evenodd;stroke:#000000;stroke-width:5;stroke-linejoin:round;fill-opacity:1;"
       d="M 284.377 722.48 C 287.977 708.984 297.789 701.9 308.08 693.33 C 318.374 685.826 331.013 677.539 344.434 672.379 C 354.72 668.455 365.788 666.875 379.983 666.858 C 390.227 666.488 400.628 671.068 406.963 675.388 "
       id="path668"
       sodipodi:nodetypes="ccccc" />
    <path
       style="fill:none;fill-rule:evenodd;stroke:black;stroke-opacity:1;stroke-width:5;stroke-linejoin:round;stroke-linecap:butt;fill-opacity:1;stroke-dasharray:none;"
       d="M 178.903 499.011 C 165.869 504.146 152.835 509.281 139.801 514.416 C 139.801 514.416 104.253 531.004 104.253 532.189 C 81.0316 557.073 92.197 628.651 97.9954 668.075 C 104.569 699.685 112.746 745.883 125.609 783.384 C 126.004 783.254 126.399 783.124 126.794 782.994 "
       id="path690"
       sodipodi:nodetypes="cccccc" />
    <path
       style="fill:none;fill-rule:evenodd;stroke:black;stroke-opacity:1;stroke-width:5;stroke-linejoin:round;stroke-linecap:butt;fill-opacity:1;stroke-dasharray:none;"
       d="M 391.013 533.768 C 408.797 539.532 424.235 547.642 439.674 558.096 C 454.308 567.618 464.643 577.531 474.587 590.571 C 483.982 601.843 496.896 622.495 502.383 638.066 C 505.365 647.871 509.933 665.418 510.714 680.284 C 511.161 698.163 509.708 729.855 505.609 745.076 C 500.429 761.653 494.077 775.884 482.252 790.897 C 482.252 790.897 482.252 790.897 482.252 790.897 "
       id="path691"
       sodipodi:nodetypes="cccccccc" />
    <path
       style="fill:none;fill-rule:evenodd;stroke:black;stroke-opacity:1;stroke-width:5;stroke-linejoin:round;stroke-linecap:butt;fill-opacity:1;stroke-dasharray:none;"
       d="M 319.101 447.339 C 312.664 442.364 310.333 420.912 310.609 412.068 C 309.714 399.614 311.583 388.541 316.216 379.404 C 320.048 369.399 324.986 361.604 331.858 354.363 C 336.835 349.716 339.601 347.004 348.447 346.226 C 354.134 346.925 359.942 350.664 364.77 358.796 C 368.646 366.215 370.065 374.192 370.408 386.712 C 370.341 400.64 366.681 410.7 362.745 420.482 C 357.505 430.106 355.858 436.689 345.642 446.036 C 341.337 450.157 336.202 453.448 329.409 453.975 C 329.409 453.975 326.921 454.528 329.409 454.251 "
       id="path692"
       sodipodi:nodetypes="ccccccccccc" />
    <path
       style="fill:none;fill-rule:evenodd;stroke:black;stroke-opacity:1;stroke-width:5;stroke-linejoin:round;stroke-linecap:butt;fill-opacity:1;stroke-dasharray:none;"
       d="M 411.586 370.578 C 407.559 375.759 405.518 380.546 403.602 387.71 C 400.487 399.355 400.512 409.654 400.517 419.063 C 400.526 433.636 402.222 444.77 404.816 453.01 C 407.345 461.042 410.174 465.642 415.102 472.177 C 420.044 478.731 423.217 482.53 430.672 483.922 C 436.652 485.039 441.841 482.464 446.337 477.674 C 454.764 468.697 455.343 461.982 457.139 455.12 C 459.164 447.379 460.673 438.078 460.557 426.734 C 460.409 412.184 458.686 403.716 457.027 397.172 C 454.161 385.868 451.899 378.595 446.143 370.327 C 441.942 363.769 436.102 359.204 428.999 360.125 C 419.618 361.823 414.468 366.61 411.586 370.578 z "
       id="path693"
       sodipodi:nodetypes="cssssssssssss" />
    <path
       style="fill:none;fill-rule:evenodd;stroke:black;stroke-opacity:1;stroke-width:5;stroke-linejoin:round;stroke-linecap:butt;fill-opacity:1;stroke-dasharray:none;"
       d="M 409.769 463.885 C 409.613 474.971 408.487 490.059 416.067 499.081 C 419.325 503.279 429.803 511.087 439.766 513.221 C 449.251 514.999 460.282 512.65 465.125 509.27 C 472.627 505.573 476.003 501.877 479.894 496.633 "
       id="path694"
       sodipodi:nodetypes="ccccc" />
    <path
       style="fill:none;fill-rule:evenodd;stroke:black;stroke-opacity:1;stroke-width:5;stroke-linejoin:round;stroke-linecap:butt;fill-opacity:1;stroke-dasharray:none;"
       d="M 310.475 403.805 C 316.821 400.836 324.346 398.823 331.858 401.448 C 337.4 403.805 339.979 405.885 343.876 411.006 C 345.83 415.306 348.87 417.803 350.738 433.441 C 350.935 437.863 351.094 440.157 351.923 439.328 "
       id="path695"
       sodipodi:nodetypes="ccccc" />
    <path
       style="fill:none;fill-rule:evenodd;stroke:black;stroke-opacity:1;stroke-width:5;stroke-linejoin:round;stroke-linecap:butt;fill-opacity:1;stroke-dasharray:none;"
       d="M 401.226 429.14 C 409.12 424.458 411.761 423.259 419.969 423.649 C 424.63 423.697 430.072 425.307 436.296 429.263 C 439.887 431.609 443.479 433.173 448.634 444.509 C 452.168 454.228 451.402 460.43 449.464 473.667 "
       id="path696"
       sodipodi:nodetypes="ccccc" />
    <path
       style="fill:none;fill-rule:evenodd;stroke:black;stroke-opacity:1;stroke-width:5;stroke-linejoin:round;stroke-linecap:butt;fill-opacity:1;stroke-dasharray:none;"
       d="M 332.329 318.106 C 339.097 311.518 344.991 307.231 352.949 303.263 C 358.563 300.515 370.782 296.75 375.157 296.577 C 378.756 296.437 378.914 297.024 380.44 297.729 C 384.411 300.472 382.031 310.198 381.477 311.83 C 380.753 313.102 380.631 316.072 376.624 316.551 C 374.131 316.801 362.534 317.202 358.397 317.72 C 354.132 317.785 340.485 319.906 336.136 320.562 C 332.406 321.113 331.196 319.827 332.329 318.106 z "
       id="path697"
       sodipodi:nodetypes="ccsccscsc" />
    <path
       style="fill:none;fill-rule:evenodd;stroke:black;stroke-opacity:1;stroke-width:5;stroke-linejoin:round;stroke-linecap:butt;fill-opacity:1;stroke-dasharray:none;"
       d="M 484.4 332.97 C 485.118 331.446 479.404 320.442 470.741 313.828 C 464.496 308.065 451.7 301.487 447.628 301.029 C 446.71 300.924 444.634 301.341 443.649 302.569 C 440.65 305.379 437.617 317.611 437.197 319.561 C 437.021 321.273 437.626 322.31 440.228 323.199 C 442.75 324.217 454.321 324.798 461.254 326.823 C 465.97 328.416 476.624 331.663 480.487 333.66 C 482.165 334.608 484.489 334.033 484.4 332.97 z "
       id="path698"
       sodipodi:nodetypes="ccsccscsc" />
    <path
       style="fill:none;fill-rule:evenodd;stroke:black;stroke-opacity:1;stroke-width:5;stroke-linejoin:round;stroke-linecap:butt;fill-opacity:1;stroke-dasharray:none;"
       d="M 324.669 299.935 C 323.279 315.139 319.529 326.804 315.78 343.777 C 312.025 357.991 308.86 368.666 302.156 382.88 C 295.441 397.284 288.727 405.789 282.012 417.243 "
       id="path699"
       sodipodi:nodetypes="cccc" />
    <path
       style="fill:none;fill-rule:evenodd;stroke:black;stroke-opacity:1;stroke-width:5;stroke-linejoin:round;stroke-linecap:butt;fill-opacity:1;stroke-dasharray:none;"
       d="M 660.81 403.904 C 653.338 445.286 649.775 485.105 647.776 502.253 C 641.488 538.138 637.547 563.079 638.296 593.492 C 639.892 623.485 643.052 650.352 647.776 676.437 C 649.339 689.634 650.903 734.103 647.776 762.936 C 647.38 762.936 646.985 762.936 646.591 762.936 "
       id="path700"
       sodipodi:nodetypes="cccccc" />
    <path
       style="fill:none;fill-rule:evenodd;stroke:black;stroke-opacity:1;stroke-width:5;stroke-linejoin:round;stroke-linecap:butt;fill-opacity:1;stroke-dasharray:none;"
       d="M 588.831 348.517 C 572.951 328.007 551.797 314.243 529.24 303.248 C 503.286 292.963 492.543 289.614 469.393 286.04 C 440.878 280.907 419.755 280.79 390.558 282.626 C 368.066 284.94 350.066 289.575 326.725 298.5 C 303.756 305.32 282.673 311.359 256.968 316.225 C 242.028 318.81 229.109 320.614 215.342 318.509 C 207.591 316.616 202.576 313.159 197.171 306.966 C 208.552 310.941 216.415 306.709 223.496 305.994 C 248.203 298.702 269.208 287.152 287.324 277.155 C 307.233 267.441 323.858 255.168 343.436 242.481 C 328.773 240.246 318.381 241.582 297.223 243.379 C 323.267 230.342 361.685 215.371 396.379 212.16 C 423.239 208.375 471.729 209.937 505.366 218.316 C 526.625 223.194 540.165 227.425 562.316 236.453 C 580.856 245.908 594.555 256.552 611.786 269.916 C 621.978 278.052 629.488 284.066 637.334 292.984 C 644.786 284.985 651.729 279.566 659.689 276.805 C 670.109 272.698 679.317 274.178 688.604 277.184 C 704.51 284.274 713.068 295.078 718.147 308.071 C 723.679 323.098 725.301 334.217 726.142 350.808 C 726.1 367.055 727.894 377.633 724.372 388.877 C 722.229 396.584 716.412 409.565 706.139 415.197 C 696.449 417.666 688.557 415.99 680.939 410.133 C 675.505 405.33 672.416 400.528 670.891 396.507 C 668.537 388.3 667.748 385.565 666.958 378.14 C 665.396 387.489 664.89 396.604 661.921 403.49 C 656.705 411.077 655.555 409.245 652.684 410.774 C 648.952 412.4 641.897 409.923 639.337 406.859 C 634.608 400.68 633.709 391.281 631.814 380.272 C 630.877 394.205 630.27 410.923 627.757 419.21 C 626.566 425.771 625.851 430.009 621.943 438.218 C 617.772 449.402 609.482 452.645 603.802 453.231 C 584.431 450.918 573.897 424.961 571.404 416.516 C 568.977 411.37 564.562 392.11 566.971 377.382 C 567.728 368.007 571.766 361.149 576.521 356.706 C 580.78 352.751 582.637 351.951 588.831 348.517 z "
       id="path701"
       sodipodi:nodetypes="ccccccccccccccccccccccccccccccccccccc" />
    <path
       style="fill:none;fill-rule:evenodd;stroke:black;stroke-opacity:1;stroke-width:5;stroke-linejoin:round;stroke-linecap:butt;fill-opacity:1;stroke-dasharray:none;"
       d="M 612.606 481.229 C 619.3 491.901 625.212 501.792 627.607 514.809 C 629.154 520.359 627.574 528.646 622.867 536.151 C 619.292 542.071 611.807 549.555 605.496 554.694 C 605.101 555.089 603.534 555.875 604.312 555.488 "
       id="path702"
       sodipodi:nodetypes="ccccc" />
    <path
       style="fill:none;fill-rule:evenodd;stroke:black;stroke-opacity:1;stroke-width:5;stroke-linejoin:round;stroke-linecap:butt;fill-opacity:1;stroke-dasharray:none;"
       d="M 637.524 292.541 C 637.215 286.055 637.7 276.756 640.755 270.524 C 643.965 263.676 652.095 258.505 652.095 258.505 "
       id="path572"
       sodipodi:nodetypes="ccc"
       transform="matrix(0.954586,0.297934,-0.297934,0.954586,115.8931,-177.5505)" />
    <path
       style="fill:none;fill-rule:evenodd;stroke:black;stroke-opacity:1;stroke-width:5;stroke-linejoin:round;stroke-linecap:butt;fill-opacity:1;stroke-dasharray:none;"
       d="M 636.664 293.18 C 637.094 283.722 636.388 277.219 632.795 267.387 C 629.501 260.367 622.621 254.92 616.889 251.911 "
       id="path573"
       sodipodi:nodetypes="ccc" />
    <path
       style="fill:none;fill-rule:evenodd;stroke:black;stroke-opacity:1;stroke-width:1pt;stroke-linejoin:miter;stroke-linecap:butt;fill-opacity:1;"
       d="M 347.543 784.863 C 347.543 784.863 347.543 784.863 347.543 784.863 "
       id="path625" />
    <path
       style="fill:none;fill-rule:evenodd;stroke:black;stroke-opacity:1;stroke-width:1pt;stroke-linejoin:miter;stroke-linecap:butt;fill-opacity:1;"
       d="M 348.227 796.494 C 348.227 796.494 348.227 796.494 348.227 796.494 "
       id="path626" />
  </g>
</svg>
