<?xml version="1.0" encoding="UTF-8" standalone="no"?>
<!DOCTYPE svg PUBLIC "-//W3C//DTD SVG 20010904//EN"
"http://www.w3.org/TR/2001/REC-SVG-20010904/DTD/svg10.dtd">
<!-- Created with Sodipodi ("http://www.sodipodi.com/") -->
<svg
   version="1.0"
   x="0"
   y="0"
   width="744.094482"
   height="1052.36218"
   id="svg559"
   sodipodi:version="0.33"
   sodipodi:docname="/home/rvb/doc/art/kettensaegenhase/hase.svg"
   xmlns="http://www.w3.org/2000/svg"
   xmlns:sodipodi="http://sodipodi.sourceforge.net/DTD/sodipodi-0.dtd"
   xmlns:xlink="http://www.w3.org/1999/xlink"
   sodipodi:docbase="/home/rvb/doc/art/kettensaegenhase/">
  <sodipodi:namedview
     id="base" />
  <defs
     id="defs561">
    <linearGradient
       id="linearGradient699">
      <stop
         style="stop-color:#000000;stop-opacity:1.0000;"
         offset="0"
         id="stop700" />
      <stop
         style="stop-color:#ffffff;stop-opacity:1.0000;"
         offset="1"
         id="stop701" />
    </linearGradient>
    <linearGradient
       id="linearGradient702"
       xlink:href="#linearGradient699" />
    <radialGradient
       cx="0.500000"
       cy="0.500000"
       r="0.500000"
       fx="0.500000"
       fy="0.500000"
       id="radialGradient703"
       xlink:href="#linearGradient699" />
    <defs
       id="defs562" />
    <sodipodi:namedview
       id="namedview586" />
  </defs>
  <path
     style="font-size:12.000;fill-rule:evenodd;stroke:none;stroke-width:0;stroke-opacity:1.0000;stroke-dasharray:none;"
     d="M 502.1596 734.6462 C 503.9141 741.8700 503.5395 761.1180 512.8786 763.1240 C 652.0777 791.4392 712.9045 780.4543 729.0521 727.1568 C 747.9975 660.9835 728.6181 644.9398 566.9262 622.1378 C 554.6362 619.7987 543.5357 632.9063 537.8464 637.0830 C 493.4712 669.2578 489.1700 677.7374 502.1596 734.6462 z "
     id="path587"
     sodipodi:nodetypes="ccscss" />
  <path
     style="font-size:12.000;fill:#ffffff;fill-rule:evenodd;stroke:none;stroke-width:0;stroke-opacity:1.0000;stroke-dasharray:none;"
     d="M 549.2637 640.6477 C 506.9265 666.5334 504.7064 677.5812 512.9279 733.1427 C 512.9279 733.1427 507.3508 751.6004 524.5863 754.8754 C 624.9410 774.2083 701.2230 784.7701 723.5250 719.1041 C 741.5150 666.2452 707.2550 650.5036 576.1000 632.7412 C 556.3237 630.0626 551.3787 635.2637 549.2637 640.6477 z "
     id="path588"
     sodipodi:nodetypes="cccccc" />
  <path
     style="font-size:12.000;fill:#000000;fill-rule:evenodd;stroke:none;stroke-width:0;fill-opacity:1.0000;stroke-dasharray:none;stroke-opacity:1.0000;"
     d="M 445.0792 316.4666 C 452.2233 320.0387 458.4910 329.2087 459.6963 337.1402 C 461.0309 345.3725 452.6098 344.6877 452.7489 337.4957 C 452.8418 332.3199 450.0210 325.4727 445.0792 316.4666 z M 422.6022 369.6911 C 419.9841 362.4186 412.1544 360.6320 409.7233 360.6413 C 408.3313 360.9296 407.2117 361.2747 409.0048 362.0930 C 418.2609 363.7799 419.7901 368.6522 420.8946 370.7775 C 421.8026 372.3140 423.2853 371.7762 422.6022 369.6911 z M 345.2958 368.3355 C 342.6777 361.0630 334.8480 359.2763 332.4170 359.2856 C 331.0249 359.5738 329.9053 359.9190 331.6984 360.7374 C 340.9545 362.4244 342.4837 367.2965 343.5882 369.4217 C 344.4962 370.9584 345.9789 370.4205 345.2958 368.3355 z M 425.9509 371.2786 C 425.9509 378.3850 419.3397 384.1459 411.1844 384.1459 C 403.0291 384.1459 396.4179 378.3850 396.4179 371.2786 C 396.4179 364.1722 403.0291 358.4111 411.1844 358.4111 C 419.3397 358.4111 425.9509 364.1722 425.9509 371.2786 z M 348.2324 369.8487 C 348.2324 376.9551 341.6213 382.7162 333.4660 382.7162 C 325.3106 382.7162 318.6995 376.9551 318.6995 369.8487 C 318.6995 362.7423 325.3106 356.9814 333.4660 356.9814 C 341.6213 356.9814 348.2324 362.7423 348.2324 369.8487 z M 410.3958 388.6785 C 377.0139 388.2656 382.9371 311.9386 402.6312 314.8762 C 456.0009 331.3627 483.6356 388.6975 410.3958 388.6785 z M 349.9360 387.6064 C 383.3179 387.1934 382.4464 306.5772 357.7006 313.8039 C 294.2275 330.2906 280.1935 388.3402 349.9360 387.6064 z M 446.7588 465.6019 C 594.5883 584.6415 625.5622 638.0362 628.3933 651.7678 C 630.0829 661.6684 631.5908 717.3723 604.1544 714.9839 C 576.7433 711.1107 587.6083 669.1914 587.5206 661.7916 C 587.1733 630.1582 517.7311 593.2205 488.2972 587.6601 C 534.3579 729.8902 489.8256 814.4705 473.7897 841.6709 C 470.9373 847.6460 468.6829 857.0523 505.5726 866.0338 C 509.1446 867.0899 558.9774 870.8544 560.1432 896.8674 C 560.4586 903.1586 523.7520 918.0957 500.1155 910.4912 C 496.2527 908.7147 465.2103 898.4453 414.3616 891.8478 C 392.7305 887.9065 397.1978 880.1984 403.8361 863.8893 C 406.6879 853.9286 400.4840 849.5713 390.9886 849.1864 C 384.5093 849.4749 373.0486 852.1176 378.5009 864.5997 C 387.1679 878.5271 390.9327 888.1769 363.6889 896.8674 C 306.1687 914.5344 280.6880 935.4184 277.1554 937.7395 C 271.5387 941.5426 209.7381 948.3493 209.3318 929.1348 C 209.3318 915.0143 208.5820 904.6513 267.8004 878.2238 C 272.9786 875.3880 301.4297 860.9845 294.3157 849.9256 C 241.1606 787.5612 244.2049 653.6546 281.8013 581.9654 C 251.7698 635.2567 217.6014 717.9113 237.0268 754.9886 C 252.1267 783.0169 247.4258 791.1707 239.1005 802.7217 C 234.8111 806.9871 232.1186 809.2944 225.7691 810.2677 C 180.3975 813.1525 155.7218 580.2535 292.1050 496.5734 C 300.3179 491.3655 305.0218 484.8728 304.5711 481.1613 C 281.4955 506.6022 269.5134 505.9897 245.6669 504.1537 C 249.9959 503.3283 261.0868 495.2683 260.1013 483.0059 C 255.5841 486.1434 240.4509 493.8965 220.9613 472.9039 C 229.4446 473.5145 239.3562 473.9619 244.2034 461.2434 C 245.5055 453.7817 241.9458 442.9872 218.1380 442.9840 C 234.9524 404.2351 289.0107 446.4273 287.1430 431.2864 C 274.1156 344.5261 308.8377 310.2937 297.5811 307.5318 C 171.2923 263.0087 89.28203 112.8988 157.4991 90.29884 C 231.1217 69.93283 221.5661 204.7082 303.7432 275.1921 C 306.0315 277.7651 316.0271 284.9577 318.8740 284.9777 C 307.9729 282.3115 319.9361 255.0586 334.6409 263.2146 C 328.6462 241.4560 360.8575 235.9075 364.7343 251.7230 C 371.1915 224.8788 398.7383 233.8116 407.8411 232.3789 C 403.0824 237.3883 412.9311 253.2887 403.9776 260.5334 C 415.7814 254.8530 428.4347 261.7688 421.6886 274.2452 C 491.4819 244.1691 475.4950 28.49657 548.1866 52.66479 C 623.6897 82.83606 598.8733 203.2021 470.5410 296.0129 C 467.7823 298.6116 457.2141 303.4517 459.0432 307.9964 C 471.4796 351.5087 471.8575 406.9300 460.9630 423.7947 C 460.0013 429.7397 500.1123 411.0544 527.3086 433.6758 C 517.6145 435.0371 506.2360 437.4982 499.7796 444.3139 C 509.7364 450.5864 513.6752 448.7907 528.0144 448.3032 C 510.3547 464.4810 506.5136 467.3815 483.5446 466.2551 C 486.7810 469.3035 495.4962 478.4881 493.4269 494.1803 C 490.4207 492.4014 477.6477 488.6611 466.8784 475.3710 C 463.9330 471.8783 456.0235 466.4481 446.7588 465.6019 z M 290.1001 286.0762 C 231.3281 286.1182 108.2629 137.4235 161.8794 111.3804 C 207.6734 86.06376 232.3323 236.2706 290.1001 286.0762 z M 461.0738 269.7713 C 483.0977 247.6627 506.3720 53.29419 544.0798 69.23866 C 622.2412 100.1541 533.9142 252.4605 461.0738 269.7713 z M 308.2880 603.0217 C 320.2876 596.3809 317.3361 558.2649 350.8655 541.2637 C 352.5584 549.3481 361.7357 551.4194 362.9508 558.8238 C 368.0201 554.0217 371.6332 546.9821 376.3561 540.8573 C 378.1027 550.7094 388.3585 560.7875 390.9850 566.2714 C 397.2020 562.1655 397.0968 549.3372 397.5425 540.9238 C 408.7952 546.0196 410.2585 547.8297 412.7833 557.4724 C 422.4012 556.7247 425.0157 549.4150 424.9649 542.8233 C 482.4955 630.2784 460.7238 714.5505 459.6212 757.2615 C 456.7962 748.2284 452.9018 737.6165 447.4555 732.3341 C 446.1941 738.6284 462.0119 793.2671 444.3299 803.5670 C 438.0606 802.3260 436.5534 795.9506 432.8106 790.5529 C 429.0346 798.7451 423.1119 799.4353 419.3705 804.8616 C 418.6254 800.0682 413.4073 797.3453 412.1663 794.6614 C 408.5846 797.8155 404.2106 796.9730 401.8466 803.3779 C 401.3711 798.4911 399.3839 786.9264 395.9167 783.1100 C 394.7997 788.7940 388.8531 793.7111 385.4413 796.9463 C 383.5654 790.5747 383.2359 786.7438 377.5849 781.9568 C 370.8631 786.8862 374.6041 802.9291 366.9541 806.0902 C 363.9197 800.6158 363.4693 797.8805 356.8652 794.0119 C 353.7765 805.1081 345.0588 808.7516 342.6925 810.6268 C 340.4709 806.2446 338.8495 801.5083 338.5334 796.3179 C 329.9859 801.5879 332.2604 804.8364 328.0583 807.8482 C 315.1205 792.7108 312.6837 738.7834 319.3647 702.3342 C 316.2378 703.6653 307.3698 729.5589 306.1254 742.7637 C 300.5873 735.7791 305.8143 677.7742 300.9682 658.3284 C 298.6450 664.9593 296.1871 692.8933 289.4949 696.3500 C 295.4947 684.0825 281.4931 631.3377 313.2038 576.0530 C 311.9114 580.8093 310.6189 598.1639 308.2880 603.0217 z M 219.8635 932.6111 C 215.4671 913.7713 233.4306 908.8897 234.4716 909.0339 C 222.8823 918.4268 222.0724 923.8663 219.8635 932.6111 z M 236.3787 935.1130 C 233.6338 918.2391 250.8201 911.1234 251.8609 911.2677 C 243.7023 919.5850 239.2746 926.2797 236.3787 935.1130 z M 259.2085 937.3470 C 256.4636 920.4731 273.6497 913.3574 274.6908 913.5017 C 266.7831 921.4401 261.8296 928.2516 259.2085 937.3470 z M 522.1855 909.2260 C 520.7893 893.5111 501.1382 886.6663 500.0972 886.8105 C 505.9715 892.4345 514.0454 895.4642 522.1855 909.2260 z M 537.1608 905.9405 C 535.7645 890.2256 516.1135 883.3807 515.0725 883.5249 C 522.1125 889.1491 528.0826 892.0524 537.1608 905.9405 z M 549.8004 900.5067 C 548.4042 884.7917 528.7532 877.9468 527.7122 878.0910 C 533.5864 883.3267 541.5466 886.6090 549.8004 900.5067 z M 450.1935 441.9013 C 472.4697 436.6068 484.4313 414.0489 519.5461 432.3459 C 489.2426 436.3790 505.8637 446.7837 450.1935 441.9013 z M 470.4109 456.4605 C 482.0172 453.1493 487.0576 444.4640 498.4060 448.5077 C 503.5333 449.9201 501.8675 454.3614 520.4021 451.1079 C 518.2173 453.1661 497.4600 473.5462 470.4109 456.4605 z M 459.4478 454.5572 C 470.5367 464.8884 475.3978 466.5548 480.4940 468.9061 C 485.2916 471.0477 489.4281 477.2808 490.6771 489.6022 C 484.5844 487.3971 469.6369 481.3789 459.4478 454.5572 z M 255.9624 501.7428 C 259.8148 499.1509 264.0030 492.8282 264.0775 487.3355 C 265.1133 469.0486 286.3629 464.7926 285.2669 457.8162 C 301.8014 474.9104 293.3004 500.8433 255.9624 501.7428 z M 229.7299 476.5200 C 244.8522 474.2431 245.7292 469.4677 252.8481 459.7325 C 259.6685 451.7874 275.6925 455.0150 281.3253 454.4311 C 269.4387 462.4284 256.9708 496.6970 229.7299 476.5200 z M 287.9105 445.7070 C 257.8167 433.3160 242.6142 419.5883 224.4120 439.2447 C 244.8344 438.6014 241.2310 455.3338 265.2884 448.4819 C 269.8459 447.4126 272.9907 443.1623 287.9105 445.7070 z M 339.3929 455.2524 C 340.3117 458.9005 365.0912 447.8937 382.8778 447.4591 C 400.6640 447.0248 422.9416 458.9555 422.6833 454.8325 C 420.0901 444.5658 386.1946 450.9765 385.3416 430.7464 C 382.2099 411.3197 371.9130 421.2604 382.7758 440.7437 C 385.4488 446.6127 336.7383 444.0449 339.3929 455.2524 z M 380.7179 383.7361 C 358.2945 383.9006 359.1794 415.3137 379.6739 415.8983 C 398.4870 417.6424 399.2744 383.3978 380.7179 383.7361 z "
     id="path604"
     sodipodi:nodetypes="ccccccccccccccccccccccccccccccccccccccccccccccccccccccccccccccccccccccccccccccccccccccccccccccccccccccccccccccccccccccccccccccccccccccccccccccccccccccccccccccccccccc" />
  <path
     style="font-size:12.000;fill:#ffffff;fill-rule:evenodd;stroke:none;stroke-width:0;fill-opacity:1.0000;stroke-opacity:1.0000;stroke-dasharray:none;"
     d="M 541.6653 662.0110 L 523.7071 618.4883 L 498.2585 630.4732 L 489.5490 609.6833 L 464.1438 621.7318 L 457.1238 598.3854 L 432.3849 611.0271 L 423.0019 588.4482 L 396.1224 601.5258 L 390.6328 577.1166 L 359.4986 590.6960 L 347.3802 564.1199 L 315.3893 578.7783 L 303.6736 551.0905 L 275.9173 566.1167 L 267.1873 538.9379 L 233.9305 554.9370 L 217.9503 521.8751 L 191.5898 540.4430 L 171.3481 507.6304 L 142.1633 534.2927 L 108.9356 513.7576 L 101.3090 547.8643 L 63.38374 546.9169 L 81.81986 579.8847 L 65.03515 614.0235 L 100.2674 612.8394 L 110.9061 635.9418 L 141.2017 624.9608 L 156.2496 647.0765 L 185.3705 635.3389 L 193.4635 657.3587 L 223.3264 644.2778 L 235.3393 665.3912 L 256.5887 653.9455 L 266.0874 672.8467 L 285.8350 663.5696 L 292.8433 682.1674 L 314.6713 669.8395 L 321.1736 687.8114 L 339.3815 676.1362 L 345.7777 692.4087 L 362.3144 682.3055 L 368.9769 698.0462 L 386.0041 688.7852 L 391.8309 705.3116 L 409.9728 695.8744 L 416.8228 712.1794 L 434.1348 702.1320 L 438.2320 716.5483 L 457.9544 706.8062 L 463.3141 722.1589 L 483.0137 713.3025 L 487.7805 732.5148 L 512.7410 705.1373 L 541.6653 662.0110 z "
     id="path789"
     sodipodi:nodetypes="cccccccccccccccccccccccccccccccccccccccccccccccccccccccc" />
  <path
     style="font-size:12.000;fill-rule:evenodd;stroke:none;stroke-width:0;stroke-opacity:1.0000;stroke-dasharray:none;"
     d="M 716.1413 674.2336 C 719.4971 679.3319 730.5952 693.1411 712.4686 700.6051 C 703.6201 704.2663 702.3713 696.8746 706.6859 694.9761 C 717.6718 690.1138 716.2500 685.7242 711.0221 675.3260 C 709.0409 671.5722 715.2881 672.5554 716.1413 674.2336 z "
     id="path594"
     sodipodi:nodetypes="ccccc" />
  <path
     style="font-size:12.000;fill-rule:evenodd;stroke:none;stroke-width:0;stroke-opacity:1.0000;stroke-dasharray:none;"
     d="M 694.1265 661.9813 C 699.7310 669.2828 715.7319 689.2594 694.3951 698.8751 C 686.3068 703.0026 683.2567 694.2958 688.3050 691.8368 C 701.1500 685.5345 698.2057 679.3164 688.8479 664.5011 C 685.3498 659.1481 692.6043 659.5894 694.1265 661.9813 z "
     id="path595"
     sodipodi:nodetypes="ccccc" />
  <path
     style="font-size:12.000;fill-rule:evenodd;stroke:none;stroke-width:0;stroke-opacity:1.0000;stroke-dasharray:none;"
     d="M 676.6195 653.4416 C 682.1857 661.1845 699.9465 681.9235 673.0318 695.5446 C 664.5764 699.4065 659.8602 692.8102 666.2560 689.3757 C 682.5375 680.5841 679.9781 673.7719 671.0855 657.8209 C 667.7327 652.0710 675.1703 650.8677 676.6195 653.4416 z "
     id="path597"
     sodipodi:nodetypes="ccccc" />
  <path
     d="M 154.8711 494.9799 C 102.1359 478.1400 81.52816 482.8565 47.41865 499.4533 C 29.49107 507.9570 23.71664 504.1066 47.34566 493.0514 C 82.97624 477.2812 99.67055 469.9159 159.8128 490.1789 C 167.1520 492.8921 163.9927 498.0485 154.8711 494.9799 z "
     style="font-size:12.000;fill-rule:evenodd;stroke:none;stroke-width:0;stroke-opacity:1.0000;stroke-dasharray:none;"
     id="path593" />
  <path
     d="M 69.00908 517.1747 C 28.43161 554.7377 23.35009 571.6800 23.32265 601.4842 C 23.09977 617.1053 16.74281 620.8162 17.18303 600.2582 C 18.70446 569.4393 19.44066 555.0040 66.72734 512.3764 C 72.72806 507.2227 76.17661 510.7089 69.00908 517.1747 z "
     style="font-size:12.000;fill-rule:evenodd;stroke:none;stroke-width:0;stroke-opacity:1.0000;stroke-dasharray:none;"
     id="path700" />
  <path
     id="selection_to_path"
     fill="none"
     stroke="black"
     stroke-width="1"
     d="M 591.1886 982.1460 C 591.1886 982.1460 591.1886 982.3994 591.1886 982.3994 C 591.1886 982.3994 590.9350 982.1460 590.9350 982.1460 C 590.9350 982.1460 591.1886 982.1460 591.1886 982.1460 z M 590.9350 981.8925 C 590.9350 981.8925 590.9350 982.1460 590.9350 982.1460 C 590.9350 982.1460 590.6815 981.8925 590.6815 981.8925 C 590.6815 981.8925 590.9350 981.8925 590.9350 981.8925 z M 590.6815 980.6249 C 590.6815 980.6249 590.6815 981.8925 590.6815 981.8925 C 590.6815 981.8925 590.6815 980.6249 590.6815 980.6249 z M 625.1600 976.0615 C 625.1600 976.0615 625.1600 976.3150 625.1600 976.3150 C 625.1600 976.3150 624.9065 976.0615 624.9065 976.0615 C 624.9065 976.0615 625.1600 976.0615 625.1600 976.0615 z M 667.4971 974.0334 C 667.4971 974.0334 667.4971 974.2869 667.4971 974.2869 C 667.4971 974.2869 667.2438 974.0334 667.2438 974.0334 C 667.2438 974.0334 667.4971 974.0334 667.4971 974.0334 z M 668.0043 973.7798 C 668.0043 973.7798 668.0043 974.0334 668.0043 974.0334 C 668.0043 974.0334 667.7509 973.7798 667.7509 973.7798 C 667.7509 973.7798 668.0043 973.7798 668.0043 973.7798 z M 489.2742 972.5123 C 488.5392 972.3023 488.7673 971.4982 488.7673 970.4841 C 488.7673 969.4701 488.8142 968.7307 489.2742 967.6954 C 489.8282 966.4489 490.7850 965.0344 492.3165 964.9067 C 493.8271 964.7808 494.9735 965.3940 495.3587 966.9349 C 495.4805 967.4221 495.5153 967.7324 495.3587 968.2025 C 495.0083 969.2535 493.1087 970.5385 492.3165 970.9911 C 491.3340 971.5526 490.3139 972.8093 489.2742 972.5123 z M 666.2297 964.9067 C 668.2948 965.1133 668.1732 967.4213 667.7509 969.2166 C 667.1590 971.7312 663.9438 975.0870 661.1592 974.7939 C 659.1268 974.5800 659.0284 971.9649 659.6382 970.4841 C 660.8031 967.6552 663.2247 964.6062 666.2297 964.9067 z M 634.0331 964.3997 C 635.0352 964.2661 636.6284 964.2997 637.5823 964.9067 C 639.4171 966.0743 638.8243 969.4535 637.8359 970.9911 C 636.5427 973.0028 633.5400 974.1100 631.2444 974.5403 C 629.4836 974.8705 627.8946 974.8937 626.1740 974.0334 C 625.3594 973.6261 624.6529 973.0193 624.6529 972.0053 C 624.6529 971.2447 625.5001 970.0481 625.9205 969.4701 C 627.5282 967.2594 631.2322 964.7732 634.0331 964.3997 z M 462.4013 963.3857 C 463.2672 965.2257 456.0588 969.5898 455.3029 968.4561 C 454.5377 967.3082 461.2391 960.9158 462.4013 963.3857 z M 533.3864 972.0053 C 533.9508 971.8923 534.7080 975.4922 535.6680 976.3150 C 536.4827 977.0133 538.7332 977.7242 539.7243 977.5826 C 540.5078 977.4707 540.8899 976.9340 541.4990 976.5686 C 543.4251 975.4129 545.0482 974.5403 546.0623 972.2587 C 546.0623 972.2587 546.5693 972.2587 546.5693 972.2587 C 546.8229 972.7658 546.8043 973.0396 547.0763 973.2729 C 548.5789 974.5607 551.6873 974.7187 553.4143 974.2869 C 554.7295 973.9581 554.9325 973.2919 556.4565 973.5263 C 558.2282 973.7989 558.9917 975.0474 560.5129 975.8081 C 562.5410 976.8221 564.5692 976.5686 566.8508 976.5686 C 568.6254 976.5686 569.6751 976.8030 570.6536 978.5968 C 571.1962 979.5916 572.1807 982.1191 573.4422 982.3994 C 574.4624 982.6262 575.2169 981.8925 574.7098 980.6249 C 574.7098 980.6249 573.4422 978.5968 573.4422 978.5968 C 571.9212 976.0615 571.4141 974.2869 568.1184 974.2869 C 566.0902 974.2869 563.8191 974.5149 562.0340 973.7798 C 559.5093 972.7403 560.0058 971.2447 556.4565 971.2447 C 556.4565 971.2447 553.9214 971.2447 553.9214 971.2447 C 553.1609 971.4982 552.6538 972.0053 551.6397 972.0053 C 551.1326 972.0053 550.8639 972.1188 550.3721 972.0053 C 547.5681 971.3582 548.5974 968.4561 549.1045 966.4278 C 549.3581 965.4138 549.5776 963.9916 548.3439 963.6391 C 547.8030 963.4846 547.5564 963.5926 547.0763 963.8927 C 545.5282 964.8602 546.3753 966.6972 546.0623 967.9490 C 545.8682 968.7253 544.9697 969.6592 544.5411 970.2306 C 543.4486 971.6874 540.9795 975.1987 538.7103 975.0474 C 537.1767 974.9453 536.3061 973.0590 535.9216 971.7517 C 535.0385 968.7491 536.1727 963.8203 539.9779 963.6391 C 541.4966 963.5668 543.1861 965.1872 543.0200 966.6814 C 542.9326 967.4689 542.0419 968.8375 543.2736 969.2166 C 545.3376 969.8516 545.6717 966.3933 545.3018 965.1603 C 544.9110 963.8581 543.5135 962.1484 542.2595 961.6110 C 541.7389 961.3879 540.9919 961.3575 540.4850 961.3575 C 539.4708 961.3575 538.4469 961.3241 537.4427 961.6110 C 536.6724 961.8310 536.0927 962.8786 535.6680 962.8786 C 535.3322 962.8786 535.3948 961.9864 534.9075 961.8644 C 533.3666 961.4793 533.1061 964.3935 532.8794 965.4138 C 532.0921 968.9568 531.1703 971.3998 529.0765 974.5403 C 528.6353 975.2025 527.5627 977.0988 526.7949 977.3291 C 525.0275 977.8593 524.7668 974.7939 524.7668 973.7798 C 524.7668 973.7798 523.2457 963.8927 523.2457 963.8927 C 523.2457 962.8786 522.9824 961.1373 521.9780 960.8504 C 521.2077 960.6304 520.4569 961.1039 520.4569 961.8644 C 520.4569 961.8644 520.9640 965.6673 520.9640 965.6673 C 520.9640 965.6673 522.2316 973.7798 522.2316 973.7798 C 522.4851 975.0474 522.4300 976.8524 522.9921 977.8361 C 524.4581 980.4016 527.0742 980.6523 529.0765 978.8502 C 529.6094 978.3707 530.4226 977.1400 530.8512 976.5686 C 531.9438 975.1118 532.6832 972.1459 533.3864 972.0053 z M 434.2609 954.7660 C 434.2609 954.7660 433.7538 960.3434 433.7538 960.3434 C 433.7538 960.3434 433.7538 963.1321 433.7538 963.1321 C 433.7538 963.1321 432.7397 970.4841 432.7397 970.4841 C 432.7397 970.4841 432.7397 973.0193 432.7397 973.0193 C 432.7397 973.0193 432.4862 975.5545 432.4862 975.5545 C 431.9791 974.2869 431.4722 970.4841 431.4722 968.9630 C 431.4722 965.6673 431.4722 964.3997 431.9791 961.1039 C 431.9791 961.1039 432.2327 959.3294 432.2327 959.3294 C 432.2327 959.3294 432.9933 957.3012 432.9933 957.3012 C 433.5003 956.2871 433.5003 955.7800 434.2609 954.7660 z M 457.8380 979.3573 C 459.3895 979.3573 462.4013 978.8502 463.9224 977.8361 C 463.9224 977.8361 465.9505 976.5686 465.9505 976.5686 C 466.7111 976.3150 467.1839 976.7138 467.7252 976.8221 C 468.4515 976.9673 469.2670 976.7165 470.0068 976.5686 C 471.8022 976.2095 473.0641 974.5811 474.5702 974.0334 C 475.8527 973.5670 475.8378 974.5403 477.8659 974.5403 C 479.6406 974.5403 481.1662 973.6247 482.9363 973.5263 C 485.7295 973.3711 487.2462 975.0474 489.2742 976.3150 C 489.2742 976.3150 492.5699 978.0897 492.5699 978.0897 C 493.8375 978.5968 497.8938 978.3432 499.6685 978.3432 C 500.6826 978.3432 502.8529 978.0485 503.2177 977.0755 C 503.6135 976.0204 502.7108 975.5545 501.9501 975.5545 C 501.9501 975.5545 499.6685 976.0615 499.6685 976.0615 C 499.6685 976.0615 494.5981 976.0615 494.5981 976.0615 C 493.5841 975.8081 490.7228 975.1112 491.0489 974.5403 C 491.7368 973.3365 496.3570 971.2354 497.3869 969.4701 C 498.1316 968.1932 497.5804 965.4508 496.8798 964.3997 C 496.5664 963.9296 495.6303 963.0886 495.1051 962.8786 C 494.3626 962.5815 493.0770 962.6251 492.3165 962.6251 C 491.8094 962.6251 491.0737 962.6851 490.5418 962.8786 C 488.2851 963.6993 486.4855 966.9349 486.4855 969.2166 C 486.4855 969.2166 486.4855 971.7517 486.4855 971.7517 C 484.9644 970.9911 482.7093 971.1544 481.1616 971.4982 C 480.4276 971.6613 478.6266 972.0053 478.1195 972.0053 C 477.1054 972.0053 476.0772 970.6978 473.8096 971.4982 C 471.7674 972.2190 469.4562 975.2573 468.4857 974.2869 C 467.4280 973.2292 470.0068 969.7235 470.0068 967.1885 C 470.0068 966.4278 470.2192 965.0181 469.2463 964.6533 C 468.1911 964.2575 467.4717 965.4138 467.2181 966.1743 C 467.2181 966.1743 466.2041 970.2306 466.2041 970.2306 C 466.2041 971.4982 466.5080 972.0462 465.6971 973.0193 C 463.9729 975.0883 461.3972 976.6265 458.8521 977.0755 C 457.0873 977.3870 455.3941 976.5348 454.7958 974.5403 C 454.6335 973.9996 454.5422 973.0193 454.5422 972.5123 C 454.5422 970.2306 455.7677 971.1508 457.8380 970.2306 C 460.3311 969.1226 461.2280 968.5376 463.1619 966.4278 C 464.0166 965.4955 464.8867 964.6601 464.6829 963.1321 C 464.3797 960.8574 462.4013 960.5970 460.6267 960.5970 C 460.1197 960.5970 459.3965 960.7019 458.8521 960.8504 C 456.6077 961.4626 454.5422 964.6533 453.5282 966.6814 C 453.5282 966.6814 452.5141 968.4561 452.5141 968.4561 C 451.5001 969.7235 450.3361 969.4281 449.9789 970.7377 C 449.5756 972.2168 452.0010 971.0379 452.2606 971.7517 C 453.0152 973.8266 451.7536 975.8081 454.2888 978.3432 C 454.2888 978.3432 448.7113 979.1037 448.7113 979.1037 C 446.4297 979.3573 443.9549 979.4824 441.8663 978.3432 C 441.1662 977.9613 440.2346 977.3543 440.0918 976.5686 C 439.7275 974.5655 442.3734 970.4841 443.3876 968.7095 C 443.3876 968.7095 445.1621 964.9067 445.1621 964.9067 C 448.2044 959.8363 451.7818 955.2736 452.0070 949.1886 C 452.0352 948.4287 452.0275 947.9139 451.7536 947.1604 C 449.9994 942.3365 443.1340 943.8647 439.8382 945.8928 C 439.8382 945.8928 436.2890 948.4280 436.2890 948.4280 C 435.7819 948.6816 435.1481 949.0618 434.7679 949.4422 C 434.3876 949.8224 434.2609 950.2027 433.7538 951.2167 C 433.7538 951.2167 431.7257 954.0055 431.7257 954.0055 C 431.7257 954.0055 429.9510 958.5687 429.9510 958.5687 C 429.6975 959.3294 429.1905 963.6391 429.1905 964.6533 C 429.1905 964.6533 429.1905 969.2166 429.1905 969.2166 C 429.1905 969.2166 430.4581 979.6108 430.4581 979.6108 C 430.7115 980.8784 431.2544 983.7951 432.4862 984.1741 C 434.5502 984.8092 434.2609 981.8925 434.2609 980.8784 C 434.2609 980.8784 435.0214 974.0334 435.0214 974.0334 C 435.0214 974.0334 435.0214 971.2447 435.0214 971.2447 C 435.0214 971.2447 436.0354 963.6391 436.0354 963.6391 C 436.0354 963.6391 436.0354 961.1039 436.0354 961.1039 C 436.0354 961.1039 436.5425 957.0476 436.5425 957.0476 C 436.5425 956.0336 436.5657 952.9986 436.7959 952.2308 C 437.3263 950.4634 440.7705 948.2771 442.3734 947.4140 C 444.0663 946.5024 446.9654 945.6085 448.7113 947.1604 C 449.2470 947.6366 449.3729 948.1867 449.4718 948.6816 C 449.8800 950.7219 448.2044 954.7660 447.1902 956.5406 C 447.1902 956.5406 443.1340 963.3857 443.1340 963.3857 C 443.1340 963.3857 440.3453 968.9630 440.3453 968.9630 C 439.0777 971.7517 437.8101 972.7658 437.8101 976.0615 C 437.8101 976.5686 437.8535 977.5646 438.0635 978.0897 C 438.3606 978.8322 439.2336 979.7277 440.0918 980.3713 C 443.2900 982.7699 447.6956 981.3321 451.5001 981.1320 C 452.5124 981.0786 456.4084 980.7727 457.0774 980.3713 C 457.6760 980.0122 457.3614 979.3573 457.8380 979.3573 z M 591.1886 982.6530 C 591.0915 982.3619 592.2201 982.1621 592.4562 981.8925 C 593.9947 980.1340 592.2027 976.5686 592.9631 974.7939 C 593.7238 973.0193 596.2866 973.0296 596.7659 971.7517 C 597.0473 971.0014 596.5124 970.4841 595.7518 970.4841 C 595.2448 970.4841 593.4702 971.2447 592.9631 971.4982 C 592.9631 971.4982 593.9772 963.3857 593.9772 963.3857 C 593.9772 963.3857 595.4983 953.2450 595.4983 953.2450 C 595.4983 953.2450 595.4983 950.4562 595.4983 950.4562 C 595.4983 950.4562 596.2588 945.6393 596.2588 945.6393 C 596.2588 944.8788 597.0195 944.1183 596.2588 943.6112 C 595.4983 943.1041 594.6887 943.3151 594.2307 943.8647 C 593.4211 944.8363 593.7238 946.3999 593.4702 947.4140 C 593.4702 947.4140 593.2167 952.9914 593.2167 952.9914 C 593.2167 952.9914 592.4562 959.0758 592.4562 959.0758 C 592.4562 959.0758 591.6956 964.1462 591.6956 964.1462 C 590.9350 963.1321 590.9350 961.8644 590.6815 960.5970 C 590.6815 960.5970 589.6673 956.0336 589.6673 956.0336 C 588.6533 952.9914 586.1181 949.1886 586.1181 946.3999 C 586.1181 942.8507 588.6937 942.2209 591.4420 941.3296 C 598.0739 939.1786 601.5827 939.5549 608.1742 939.5549 C 609.6954 939.5549 613.3160 940.0323 614.0051 941.5831 C 614.3300 942.3141 613.7046 943.8510 613.4981 944.6253 C 612.6905 947.6538 610.4559 949.9492 608.4278 952.2308 C 608.4278 952.2308 605.6391 955.5266 605.6391 955.5266 C 603.1038 958.0618 600.8858 961.0807 602.3432 964.9067 C 602.9139 966.4045 604.1179 967.4419 605.3855 968.2025 C 605.3855 968.2025 610.9629 971.4982 610.9629 971.4982 C 612.7375 972.2587 614.4573 972.8605 616.0333 973.7798 C 617.4994 974.6351 620.4183 976.3069 620.5966 978.0897 C 620.9254 981.3771 615.7977 983.2243 613.2446 983.9206 C 607.4317 985.5060 605.3891 985.8616 599.3011 985.4417 C 598.0371 985.3545 595.7773 985.1267 594.7378 984.6812 C 594.0026 984.3661 591.3450 983.1224 591.1886 982.6530 z M 622.8782 978.0897 C 623.2697 977.9592 624.7131 980.0178 625.6670 980.6249 C 627.5017 981.7925 629.4908 982.2632 631.7513 982.6530 C 636.8430 983.5308 641.6284 981.6604 645.1879 979.3573 C 645.9383 978.8717 645.9951 980.8357 646.7089 981.6389 C 648.0232 983.1175 650.2464 983.9035 652.0328 982.6530 C 652.7817 982.1288 653.3167 981.3960 653.8074 980.6249 C 655.0913 978.6073 656.5960 976.3150 656.8495 973.7798 C 656.8495 973.7798 657.8635 975.8081 657.8635 975.8081 C 657.3566 976.0615 656.9464 976.1214 656.5960 976.8221 C 656.4394 977.1354 656.3725 977.5567 656.5960 977.8361 C 657.3865 978.8243 659.6382 977.5826 660.6524 977.5826 C 660.6524 977.5826 664.2017 977.3291 664.2017 977.3291 C 664.2017 977.3291 669.0183 976.3150 669.0183 976.3150 C 669.0183 976.3150 672.5677 976.3150 672.5677 976.3150 C 672.5677 976.3150 675.8634 975.8081 675.8634 975.8081 C 680.6804 975.8081 679.9165 979.2085 684.2296 979.3573 C 687.2686 979.4621 689.5532 978.3432 692.0886 978.3432 C 692.8490 978.3432 694.5212 978.5621 694.8773 977.5826 C 695.5352 975.7735 692.3421 976.0615 691.3281 976.0615 C 691.3281 976.0615 684.4830 977.0755 684.4830 977.0755 C 682.4548 976.8221 681.4500 974.5068 678.9058 973.7798 C 677.9008 973.4928 674.8494 973.5263 673.8354 973.7798 C 673.8354 973.7798 671.5535 974.0334 671.5535 974.0334 C 671.5535 974.0334 668.0043 973.7798 668.0043 973.7798 C 668.7649 973.0193 669.0183 972.5123 669.5255 971.4982 C 670.5395 969.4701 670.8807 965.3326 669.2718 963.6391 C 666.0640 960.2622 660.1452 963.8927 658.8778 967.4419 C 658.8778 967.4419 658.8778 966.4278 658.8778 966.4278 C 658.8778 965.6673 658.8608 964.9507 658.1172 964.6533 C 656.3259 963.9367 656.2462 967.1554 655.8355 968.4561 C 654.7250 971.9723 654.6326 975.3570 652.2863 978.3432 C 651.8438 978.9062 651.0119 980.5411 650.2582 980.6249 C 648.7301 980.7947 647.3484 978.3903 646.9625 977.3291 C 646.3342 975.6017 645.6949 972.0053 645.6949 970.2306 C 645.6949 970.2306 645.6949 966.9349 645.6949 966.9349 C 645.9484 966.4278 646.1267 965.4416 645.9484 964.9067 C 645.6197 963.9205 643.9537 964.1559 643.6668 965.1603 C 643.4466 965.9305 643.4132 969.7235 643.4132 970.7377 C 643.4132 972.5123 645.0468 975.8366 644.4273 977.0755 C 643.7792 978.3718 642.1456 979.1037 639.3569 980.1178 C 639.3569 980.1178 635.8077 980.8784 635.8077 980.8784 C 635.0471 980.8784 634.2782 980.7252 633.5260 980.6249 C 630.4756 980.2181 626.6810 979.3573 625.1600 976.3150 C 625.1600 976.3150 628.4557 977.0755 628.4557 977.0755 C 629.2162 977.0755 629.7246 976.8642 630.4838 976.8221 C 634.2880 976.6107 639.1948 974.8224 640.6245 970.7377 C 640.9694 969.7521 640.8780 968.4561 640.8780 967.4419 C 640.8780 966.6814 640.9017 965.9124 640.6245 965.1603 C 639.1270 961.0956 633.8558 961.8126 630.4838 963.1321 C 628.0250 964.0943 625.0455 966.5212 623.6389 968.7095 C 622.7639 970.0704 622.1177 970.2306 622.1177 972.0053 C 622.1177 972.0053 622.1177 975.5545 622.1177 975.5545 C 621.6108 975.0474 620.8926 973.9843 620.3430 973.5263 C 619.3715 972.7167 615.0193 970.4841 613.4981 969.7235 C 613.4981 969.7235 611.4699 968.9630 611.4699 968.9630 C 611.4699 968.9630 609.4418 967.6954 609.4418 967.6954 C 607.6671 966.6814 605.0922 965.6814 604.3714 963.6391 C 603.5711 961.3716 605.3855 959.3294 606.6531 957.8082 C 606.6531 957.8082 609.4418 954.7660 609.4418 954.7660 C 612.4841 951.2167 615.0539 948.9424 616.0333 944.3717 C 616.5750 941.8439 617.0564 940.3022 614.5122 938.5408 C 613.7606 938.0205 613.2389 938.0552 612.2305 937.7803 C 610.4502 937.2947 610.9629 937.2733 608.9347 937.2733 C 605.3855 937.2733 598.7940 937.0197 595.4983 937.5268 C 595.4983 937.5268 591.1886 938.7944 591.1886 938.7944 C 588.6533 939.5549 584.9378 940.8558 584.0900 943.6112 C 583.9237 944.1516 583.8364 946.1464 583.8364 946.9069 C 583.8364 949.6956 585.4437 952.0381 586.3716 954.5126 C 587.7254 958.1225 588.6533 962.1180 589.1604 965.9207 C 589.1604 965.9207 590.1744 973.2729 590.1744 973.2729 C 589.9210 974.0334 589.0491 974.7528 588.6533 975.8081 C 588.2885 976.7809 588.1463 978.3432 588.1463 979.3573 C 588.1463 980.1178 588.1463 981.8925 588.3997 982.6530 C 588.9068 984.1741 592.4921 986.3688 593.9772 986.9628 C 595.0273 987.3828 595.5038 987.3722 596.5124 987.4698 C 603.3627 988.1328 606.9066 988.2304 613.4981 986.4558 C 613.4981 986.4558 616.0333 985.6953 616.0333 985.6953 C 618.0614 984.9348 621.0667 983.1372 622.1177 981.3854 C 622.5877 980.6020 622.5091 978.2127 622.8782 978.0897 z M 399.7070 961.1671 C 397.4002 961.5131 395.3668 962.1596 393.8760 964.2093 C 393.3386 964.9483 393.3691 965.4769 393.3691 966.4910 C 393.3691 968.7726 393.1738 972.2824 394.3831 974.0965 C 396.7230 977.6063 400.7127 977.7734 404.5238 977.3922 C 405.7831 977.2663 406.8198 977.4150 408.0731 976.6317 C 408.8480 976.1474 410.3399 974.1371 408.8337 973.5894 C 407.5511 973.1231 407.0824 974.7197 405.0309 975.1105 C 401.7585 975.7339 397.8282 975.4092 396.1578 972.0684 C 395.8000 971.3529 395.6507 969.7868 395.6507 968.7726 C 395.6507 967.7585 395.5491 966.6096 396.1578 965.7305 C 397.8307 963.3139 402.7803 962.8837 405.2845 964.2093 C 407.0902 965.1653 406.8213 967.1921 408.0731 967.5050 C 408.8494 967.6991 409.5942 967.2516 409.5942 966.4910 C 409.5942 965.7305 408.7853 963.9991 408.3266 963.4488 C 406.2501 960.9569 402.4705 960.7526 399.7070 961.1671 z M 411.1153 955.3362 C 414.2685 957.7887 414.0450 960.1732 414.6646 964.7164 C 414.8055 965.7507 415.2722 966.7528 415.1716 967.7585 C 415.0186 969.2880 414.2371 970.3295 413.6505 971.5613 C 411.7019 975.6534 407.3126 980.9415 402.2422 980.9415 C 398.1859 980.9415 393.3942 978.6318 390.3268 975.8712 C 388.3238 974.0684 387.2846 970.8008 387.2846 968.0121 C 387.2846 968.0121 387.2846 966.4910 387.2846 966.4910 C 387.2846 961.6741 390.7915 955.4806 395.3972 953.5615 C 396.8759 952.9454 398.1859 953.0545 399.7070 953.0545 C 400.9746 953.0545 404.4894 953.4145 405.7914 953.8151 C 407.7852 954.4286 409.7052 954.2394 411.1153 955.3362 z M 396.1578 951.0263 C 396.1578 951.0263 394.1296 951.5334 394.1296 951.5334 C 391.0874 953.0545 387.5382 956.8573 386.2706 959.8995 C 386.2706 959.8995 385.7635 961.9277 385.7635 961.9277 C 385.2564 963.4488 385.0030 963.7024 385.0030 965.2234 C 385.0030 969.0262 385.0211 972.5630 387.2846 975.8712 C 388.3169 977.3798 389.9186 978.4958 391.3410 979.4204 C 394.9888 981.7916 397.9239 983.0588 402.2422 983.4767 C 405.7830 983.8194 409.8477 980.6880 412.1294 978.1528 C 414.4110 975.6176 416.5765 972.2984 417.1997 969.0262 C 417.5905 966.9746 417.1885 965.7320 416.9462 963.9558 C 416.4279 960.1546 415.5976 957.6686 413.1434 954.3221 C 412.8089 953.8658 408.8337 952.0405 407.5661 951.7870 C 407.5661 951.7870 405.5379 951.2799 405.5379 951.2799 C 403.5098 950.7729 398.1859 950.5194 396.1578 951.0263 z "
     sodipodi:nodetypes="cssscssscsscssscssscssscssssssscsssscssssssscsscssssssssssssssssssssssssssssssssssssssssssssssssscsssssssssscsssssssssssssssssssssssssssssssssssssssssssssssssssssssssssssssssssssssssssssssscssssssssssssssssssssssssssssssssscssssssssssssssssssssssssssssssssssssssssssssssssssssssssssssssssssssssssssssssscssssssssssssssscssssssssssscssssssssssssss"
     style="font-size:12.000;stroke:none;stroke-width:0;fill:#000000;fill-opacity:1.0000;stroke-opacity:1.0000;stroke-dasharray:none;" />
  <path
     style="font-size:12.000;fill-rule:evenodd;stroke-width:0;stroke:none;stroke-opacity:1.0000;stroke-dasharray:none;"
     d="M 687.8151 743.3421 C 689.0096 749.3954 680.8476 756.8216 669.5849 759.9290 C 658.3220 763.0363 648.2235 760.6482 647.0289 754.5949 C 645.8344 748.5415 653.9963 741.1155 665.2590 738.0081 C 676.5218 734.9007 686.6205 737.2888 687.8151 743.3421 z "
     id="path590" />
  <path
     style="font-size:12.000;fill:#ffffff;fill-rule:evenodd;stroke-width:0;stroke:none;stroke-opacity:1.0000;stroke-dasharray:none;"
     d="M 681.2531 745.8518 C 682.1116 749.2055 676.2459 753.3198 668.1519 755.0414 C 660.0579 756.7630 652.8007 755.4400 651.9422 752.0862 C 651.0838 748.7324 656.9492 744.6181 665.0432 742.8965 C 673.1372 741.1749 680.3947 742.4980 681.2531 745.8518 z "
     id="path589" />
  <path
     style="font-size:12.000;fill-rule:evenodd;stroke:none;stroke-width:0;stroke-opacity:1.0000;stroke-dasharray:none;"
     d="M 656.9887 752.8386 C 659.7138 758.6080 665.5024 768.6645 649.7407 771.2087 C 619.2120 778.8045 629.2198 795.4027 631.1315 799.9621 C 632.7916 803.9209 642.4900 812.4084 661.6909 805.0095 C 680.8917 797.6108 709.3312 786.3254 709.3312 786.3254 C 709.3312 786.3254 726.2697 778.6599 720.1839 765.9683 C 714.0978 753.2765 704.0647 751.9676 695.6166 756.7801 C 687.1686 761.5925 677.9579 746.5211 677.9579 746.5211 C 676.5840 743.7734 672.3337 743.3896 665.1651 745.1138 C 657.9965 746.8381 656.4061 751.8798 656.9887 752.8386 z "
     id="path602"
     sodipodi:nodetypes="ccscssscss" />
  <path
     style="font-size:12.000;fill:#ffffff;fill-rule:evenodd;stroke:none;stroke-width:0;stroke-opacity:1.0000;stroke-dasharray:none;"
     d="M 662.4842 756.1358 C 665.2094 761.9051 665.4830 770.8763 653.9957 774.1977 C 627.8635 780.9693 634.2797 792.1524 636.1914 796.7118 C 637.8518 800.6705 642.8786 806.6852 662.0795 799.2862 C 681.2803 791.8876 696.6008 785.6221 701.9596 783.4637 C 706.1986 782.0310 720.9406 775.6798 715.3989 765.7407 C 709.9593 756.1752 704.9001 759.7215 695.6778 762.0340 C 685.5607 764.6728 678.2327 754.7643 677.1336 752.2913 C 675.7597 749.5435 673.1580 746.1372 665.9894 747.8615 C 658.8208 749.5857 661.9016 755.1770 662.4842 756.1358 z "
     id="path603"
     sodipodi:nodetypes="ccscssscss" />
  <path
     style="font-size:12.000;fill-rule:evenodd;stroke:none;stroke-width:0;stroke-opacity:1.0000;stroke-dasharray:none;"
     d="M 536.0180 661.6534 L 520.4954 626.0521 L 496.1272 639.8872 L 486.8876 616.6278 L 461.0248 629.5764 L 453.9993 608.0344 L 428.1363 620.9831 L 419.7833 596.2291 L 392.2587 610.6168 L 386.2311 586.0297 L 355.6615 599.4197 L 343.5436 572.8372 L 312.0873 587.7220 L 299.3055 559.5334 L 271.6140 576.2467 L 263.4278 549.1672 L 231.2520 563.2212 L 214.7612 532.4290 L 190.1148 550.1400 L 170.5231 519.1253 L 141.5002 543.5349 L 113.2667 524.3670 L 107.7880 554.7567 L 76.03116 554.0849 L 93.23751 579.6016 L 77.32710 606.0100 L 105.9314 604.8755 L 115.2821 626.5847 L 144.8442 615.7405 L 160.5177 636.8430 L 190.1454 625.7229 L 197.2263 646.4897 L 224.5842 634.4277 L 236.2605 656.3034 L 258.1920 643.8517 L 268.4292 664.0660 L 290.2494 653.1648 L 296.6663 672.3256 L 317.7112 661.3689 L 324.2393 678.9792 L 342.9588 667.8556 L 348.8231 683.8601 L 365.8808 674.1754 L 372.5202 690.2355 L 389.6335 679.7757 L 395.4423 696.5554 L 412.5001 686.8708 L 419.9146 702.9864 L 437.7475 693.3576 L 442.9479 707.7561 L 460.6696 699.6775 L 466.5894 714.9066 L 486.7479 705.4446 L 490.1754 722.8327 L 516.3318 694.4544 L 536.0180 661.6534 z "
     id="path599"
     sodipodi:nodetypes="cccccccccccccccccccccccccccccccccccccccccccccccccccccccc" />
  <path
     style="font-size:12.000;fill:#ffffff;fill-rule:evenodd;stroke:none;stroke-width:0;stroke-opacity:1.0000;stroke-dasharray:none;"
     d="M 545.6034 662.8035 L 180.6709 556.0974 C 172.5007 553.8698 122.4743 537.4620 104.4016 570.4524 C 93.68215 589.2432 107.8456 597.6942 117.0326 600.1028 L 511.1161 703.4180 L 545.6034 662.8035 z "
     id="path598"
     sodipodi:nodetypes="ccsscc" />
  <path
     style="font-size:12.000;fill-rule:evenodd;stroke:none;stroke-width:0;stroke-opacity:1.0000;stroke-dasharray:none;"
     d="M 556.4924 626.9884 C 559.4127 654.3963 586.4895 678.5901 511.6071 741.9837 C 500.5322 747.7652 498.3866 737.0804 503.8285 733.9184 C 558.3619 685.1102 553.8389 668.8337 545.8570 637.9342 L 556.4924 626.9884 z "
     id="path609"
     sodipodi:nodetypes="ccccc" />
  <path
     style="font-size:12.000;fill-rule:evenodd;stroke:none;stroke-width:0;stroke-opacity:1.0000;stroke-dasharray:none;"
     d="M 634.6701 612.3794 C 685.0271 623.2145 669.1146 685.8700 642.1808 680.2335 C 623.1759 676.3351 647.7878 644.1940 629.7824 638.8031 C 584.2457 625.5735 598.8095 672.2538 577.9957 668.1914 C 547.8133 662.3070 566.5399 597.8786 634.6701 612.3794 z "
     id="path607"
     sodipodi:nodetypes="cssss" />
  <path
     style="font-size:12.000;fill:#ffffff;fill-rule:evenodd;stroke:none;stroke-width:0;stroke-opacity:1.0000;stroke-dasharray:none;"
     d="M 634.1927 618.4200 C 678.1756 628.1082 658.0651 680.9359 644.1336 674.9965 C 633.5512 670.7192 658.3543 639.0456 628.7286 632.6891 C 581.9164 622.4551 587.9526 662.8461 579.0394 660.8342 C 563.3705 657.4152 574.9778 605.9826 634.1927 618.4200 z "
     id="path608"
     sodipodi:nodetypes="cssss" />
  <path
     style="font-size:12.000;fill-rule:evenodd;stroke:none;stroke-width:0;stroke-opacity:1.0000;stroke-dasharray:none;"
     d="M 728.2064 705.1441 C 725.4936 725.2760 608.5150 691.0684 560.3839 680.6557 C 551.0297 677.9666 553.1300 669.5258 561.4722 672.9415 C 600.0138 682.6428 725.8559 721.0712 727.7723 696.8539 C 728.3870 689.2134 729.0704 698.9804 728.2064 705.1441 z "
     id="path591"
     sodipodi:nodetypes="cccss" />
  <path
     style="font-size:12.000;fill-rule:evenodd;stroke:none;stroke-width:0;stroke-opacity:1.0000;stroke-dasharray:none;"
     d="M 541.8511 665.9060 C 539.4827 675.2910 534.9620 687.0050 517.5605 705.8375 C 512.7977 709.6020 515.3445 702.0296 517.6946 700.0633 C 527.7246 687.1381 534.4095 678.7313 536.5606 668.1526 C 537.5476 664.2983 543.0330 662.2977 541.8511 665.9060 z "
     id="path605"
     sodipodi:nodetypes="cccss" />
  <path
     style="font-size:12.000;fill-rule:evenodd;stroke:none;stroke-opacity:1.0000;stroke-width:0;stroke-dasharray:none;"
     d="M 141.7315 568.9454 C 143.2027 573.9524 139.2583 581.3659 132.9218 585.5035 C 126.5849 589.6410 120.2555 588.9360 118.7840 583.9289 C 117.3127 578.9218 121.2571 571.5087 127.5936 567.3711 C 133.9303 563.2334 140.2600 563.9382 141.7315 568.9454 z "
     id="path611" />
  <path
     style="font-size:48.000;font-weight:normal;stroke-width:0;stroke:none;stroke-opacity:1.0000;"
     d="M 221.8516 585.2376 L 252.8969 593.8829 C 253.5701 594.0704 254.3209 594.2908 255.1503 594.5442 C 256.0629 594.8216 256.8554 595.1338 257.5269 595.4810 C 258.2106 595.8085 258.7737 596.1713 259.2156 596.5687 C 259.7418 596.9901 259.8640 597.4243 259.5825 597.8722 L 258.1498 600.1503 L 281.3698 606.6165 L 283.9416 602.5278 C 284.4192 601.7683 284.3781 601.0479 283.8184 600.3653 C 283.2709 599.6640 282.3198 598.9757 280.9645 598.3008 C 279.6931 597.6493 278.1206 597.0055 276.2471 596.3696 C 274.4571 595.7565 272.5952 595.1808 270.6604 594.6422 L 223.0831 581.3935 L 220.8421 584.9565 L 221.8516 585.2376 z M 189.5223 607.8790 L 251.4854 625.1341 C 253.4205 625.6729 255.3440 626.1515 257.2562 626.5696 C 259.2517 627.0110 261.0450 627.3046 262.6345 627.4495 C 264.3204 627.5985 265.7250 627.5669 266.8476 627.3530 C 267.9831 627.1200 268.7892 626.6236 269.2669 625.8641 L 274.9423 616.8389 C 275.4199 616.0800 275.3786 615.3591 274.8187 614.6769 C 274.2715 613.9754 273.3201 613.2869 271.9650 612.6122 C 270.7059 611.9413 269.1395 611.2878 267.2660 610.6515 C 265.4761 610.0389 263.6139 609.4631 261.6789 608.9241 L 215.1114 595.9566 C 214.4382 595.7690 213.6873 595.5485 212.8585 595.2947 C 212.0293 595.0411 211.2308 594.7385 210.4629 594.3870 C 209.7791 594.0599 209.2164 593.6969 208.7743 593.2996 C 208.3445 592.8822 208.2646 592.4597 208.5340 592.0312 L 216.3949 579.5308 L 193.9516 572.2874 L 184.1928 587.3467 C 183.7154 588.1061 183.7506 588.8365 184.2974 589.5380 C 184.8578 590.2203 185.7667 590.8968 187.0254 591.5679 C 188.3809 592.2422 189.9535 592.8865 191.7426 593.4991 C 193.6166 594.1351 195.5215 594.7228 197.4567 595.2617 L 243.8974 608.1941 C 244.5705 608.3817 245.3216 608.6022 246.1506 608.8559 C 247.0635 609.1329 247.8624 609.4355 248.5461 609.7633 C 249.2296 610.0910 249.7865 610.4632 250.2163 610.8803 C 250.7424 611.3014 250.8707 611.7262 250.6014 612.1548 L 247.1668 617.6163 C 246.8973 618.0446 246.3468 618.2917 245.5142 618.3574 C 244.7786 618.4268 243.9950 618.4149 243.1647 618.3211 C 242.3341 618.2268 241.4495 618.0606 240.5117 617.8224 C 239.6584 617.6076 238.8949 617.4065 238.2224 617.2191 L 207.1771 608.5738 C 206.5040 608.3867 205.7532 608.1662 204.9241 607.9122 C 204.0951 607.6585 203.2966 607.3563 202.5284 607.0050 C 201.8449 606.6772 201.2821 606.3145 200.8400 605.9170 C 200.4101 605.4999 200.3304 605.0771 200.6000 604.6488 L 202.0326 602.3708 L 178.8117 595.9045 L 176.2590 599.9642 C 175.7815 600.7235 175.8159 601.4541 176.3634 602.1555 C 176.9233 602.8376 177.8324 603.5140 179.0913 604.1851 C 180.4466 604.8599 182.0188 605.5036 183.8084 606.1163 C 185.6825 606.7529 187.5870 607.3402 189.5223 607.8790 z M 339.0546 645.2979 L 308.0096 636.6529 L 305.7505 640.2456 L 352.3177 653.2130 C 354.2530 653.7519 356.1766 654.2302 358.0884 654.6485 C 360.0848 655.0900 361.8778 655.3834 363.4672 655.5283 C 365.1527 655.6775 366.5572 655.6454 367.6807 655.4319 C 368.8153 655.1989 369.6221 654.7026 370.0996 653.9432 L 372.3216 650.4091 L 349.1015 643.9433 L 347.9994 645.6952 C 347.7302 646.1236 347.1790 646.3706 346.3469 646.4364 C 345.6113 646.5062 344.8280 646.4940 343.9970 646.4000 C 343.1659 646.3057 342.2824 646.1399 341.3443 645.9014 C 340.4914 645.6867 339.7277 645.4854 339.0546 645.2979 z M 384.7376 630.6650 C 385.2032 629.9255 385.1618 629.2044 384.6145 628.5029 C 384.0668 627.8013 383.1155 627.1131 381.7599 626.4379 C 380.4893 625.7868 378.9168 625.1429 377.0427 624.5069 C 375.2533 623.8940 373.3907 623.3182 371.4554 622.7792 L 324.8882 609.8116 L 322.6479 613.3751 L 353.6925 622.0200 C 354.3655 622.2074 355.1170 622.4280 355.9458 622.6817 C 356.8589 622.9590 357.6514 623.2710 358.3231 623.6185 C 359.0067 623.9460 359.5697 624.3087 360.0117 624.7063 C 360.5379 625.1274 360.6601 625.5621 360.3787 626.0097 L 359.2580 627.7913 L 382.4788 634.2575 L 384.7376 630.6650 z M 274.8322 631.6353 L 298.0529 638.1018 L 317.1901 607.6684 L 293.9698 601.2015 L 274.8322 631.6353 z M 439.8874 673.3772 L 408.8426 664.7320 L 406.5835 668.3244 L 453.1503 681.2921 C 455.0855 681.8310 457.0089 682.3093 458.9212 682.7274 C 460.9177 683.1688 462.7103 683.4622 464.2998 683.6074 C 465.9854 683.7565 467.3901 683.7244 468.5129 683.5108 C 469.6481 683.2779 470.4540 682.7815 470.9316 682.0221 L 473.1542 678.4880 L 449.9336 672.0220 L 448.8316 673.7743 C 448.5622 674.2028 448.0115 674.4495 447.1793 674.5154 C 446.4432 674.5850 445.6602 674.5730 444.8299 674.4789 C 443.9990 674.3846 443.1144 674.2186 442.1774 673.9805 C 441.3235 673.7654 440.5606 673.5647 439.8874 673.3772 z M 485.5700 658.7440 C 486.0357 658.0042 485.9944 657.2833 485.4465 656.5818 C 484.8995 655.8805 483.9474 655.1918 482.5930 654.5171 C 481.3218 653.8659 479.7495 653.2220 477.8757 652.5856 C 476.0856 651.9727 474.2234 651.3972 472.2880 650.8583 L 425.7212 637.8908 L 423.4809 641.4539 L 454.5253 650.0991 C 455.1981 650.2863 455.9493 650.5070 456.7784 650.7607 C 457.6915 651.0380 458.4840 651.3503 459.1553 651.6973 C 459.8390 652.0247 460.4018 652.3875 460.8440 652.7852 C 461.3701 653.2063 461.4925 653.6408 461.2105 654.0885 L 460.0904 655.8700 L 483.3108 662.3364 L 485.5700 658.7440 z M 375.6648 659.7144 L 398.8850 666.1809 L 418.0227 635.7471 L 394.8026 629.2807 L 375.6648 659.7144 z "
     id="path596"
     sodipodi:nodetypes="ccccccccccccccccccccccccccccccccccccccccccccccccccccccccccccccccccccccccccccccccccccccccccccccccccccccccccccccccccccccccccccccccccc" />
  <path
     d="M 43.15276 601.0247 C 60.80361 637.7614 73.69608 640.2134 96.72125 649.7996 C 115.1986 657.0307 116.3507 663.8748 92.10827 654.2393 C 56.20805 639.0931 54.94847 638.9748 36.26998 600.7150 C 33.21741 593.5103 39.13779 592.2783 43.15276 601.0247 z "
     style="font-size:12.000;fill-rule:evenodd;stroke:none;stroke-width:0;stroke-opacity:1.0000;stroke-dasharray:none;"
     id="path860"
     sodipodi:nodetypes="ccccc" />
</svg>
