<?xml version="1.0" standalone="no"?>
<!DOCTYPE svg PUBLIC "-//W3C//DTD SVG 20010904//EN"
"http://www.w3.org/TR/2001/REC-SVG-20010904/DTD/svg10.dtd"
[
 <!ATTLIST svg
  xmlns:xlink CDATA #FIXED "http://www.w3.org/1999/xlink">
]>
<!-- Created with Sodipodi ("http://www.sodipodi.com/") -->
<svg
   xmlns="http://www.w3.org/2000/svg"
   xmlns:xlink="http://www.w3.org/1999/xlink"
   width="744.094"
   height="744.094"
   id="svg1">
  <defs
     id="defs599" />
  <g
     transform="matrix(0.987643,0,0,0.987643,26.8407,131.371)"
     style="font-size:12;"
     id="g600">
    <rect
       width="526.667"
       height="465.333"
       x="13.8607"
       y="9.02026"
       transform="matrix(1.29493,0,0,1.02579,-9.42143,-4.23261)"
       style="fill:#ffffff;"
       id="rect367" />
    <g
       id="g81">
      <path
         d="M 48.8777 238.604 L 52.3777 241.354 L 54.8777 240.354 L 70.1277 238.604 L 81.1277 238.604 C 81.961 233.854 82.5444 229.354 85.8777 224.354 L 86.8777 218.104 L 91.8777 209.354 L 92.8777 205.104 L 98.6277 191.104 L 97.3777 187.354 L 97.8777 175.604 L 100.378 172.104 L 99.8777 153.604 L 97.6277 143.354 L 98.6277 139.854 L 94.8777 132.104 L 93.1277 131.604 L 92.6277 128.854 L 89.8777 125.354 L 87.3777 121.104 L 81.3777 116.104 L 76.3777 108.604 L 71.8777 106.854 L 65.1277 100.854 L 63.3777 102.604 L 72.1277 111.104 L 87.1277 126.854 L 90.1277 133.854 L 91.3777 137.104 L 93.1277 138.854 L 93.1277 141.854 L 89.6277 140.854 L 87.8777 142.354 L 85.3777 140.604 C 83.5444 131.437 81.211 128.771 75.3777 122.104 L 60.8777 106.354 C 59.6277 105.521 56.1277 102.938 54.8777 99.3544 L 52.8777 94.3544 C 52.6277 94.3544 52.3777 94.3544 52.1277 94.3544 L 51.3777 92.1044 L 47.3777 95.8544 L 49.6277 97.1044 L 53.8777 104.104 C 56.211 108.687 56.5444 111.021 60.8777 110.854 C 90.211 139.187 79.0444 139.521 85.6277 165.854 L 82.1277 180.854 L 74.8777 191.854 L 68.3777 201.604 C 59.961 212.937 52.7944 218.271 51.3777 231.854 L 51.3777 233.604 L 49.8777 234.354 L 50.3777 238.104 L 48.8777 238.604 z "
         id="path78" />
      <path
         d="M 53.3777 234.604 L 55.3777 236.354 L 70.8777 234.604 L 73.3777 235.354 L 78.3777 234.354 C 78.4611 234.354 78.5444 234.354 78.6277 234.354 L 78.6277 232.104 L 77.6277 230.354 C 80.8777 230.021 81.1277 224.437 81.3777 220.354 C 69.3777 217.104 68.6277 225.354 75.3777 230.104 L 75.3777 231.354 L 71.8777 229.354 C 69.461 227.354 57.0444 230.354 53.3777 234.604 z "
         style="fill:#ffffff;"
         id="path79" />
      <path
         d="M 59.3777 97.8544 L 59.8777 93.8544 L 56.3777 90.6044 L 51.8777 82.6044 L 50.1277 88.3544 L 51.1277 90.8544 L 59.3777 97.8544 z "
         id="path80" />
    </g>
    <g
       id="g71">
      <path
         d="M 134.544 314.604 L 136.044 308.854 L 136.294 296.854 L 140.044 298.604 L 139.044 295.854 L 135.794 293.604 L 135.044 295.854 L 135.294 303.354 C 133.877 292.521 128.961 287.687 125.794 281.354 C 111.544 280.854 102.294 279.104 92.7944 271.604 L 91.7944 269.354 C 88.9611 267.354 84.8777 262.854 83.2944 258.104 L 81.5444 255.354 L 82.5444 248.104 L 79.7944 246.604 L 77.2944 248.854 C 68.8777 249.771 58.9611 250.937 49.7944 255.354 L 51.0444 262.104 L 53.7944 274.354 C 61.4611 292.271 73.1277 299.437 88.0444 304.104 L 89.0444 306.354 L 97.0444 308.354 L 107.044 312.354 L 119.044 314.354 L 127.794 315.104 L 129.794 313.354 C 126.127 310.437 116.961 294.771 122.544 288.104 C 127.127 291.687 129.838 299.004 130.294 301.854 C 131.211 306.021 130.377 307.187 130.794 315.104 L 134.544 314.604 z "
         id="path67" />
      <path
         d="M 55.0444 260.354 C 54.7944 253.854 66.0444 255.604 73.7944 254.354 L 77.5444 252.854 L 77.2944 257.854 L 70.5444 259.854 L 69.2944 261.854 L 63.5444 261.854 L 62.7944 263.104 L 58.0444 261.604 L 55.7944 262.604 L 55.0444 260.354 z "
         style="fill:#ffffff;"
         id="path70" />
    </g>
    <g
       id="g86">
      <path
         d="M 273.352 252.72 C 264.269 251.97 249.935 255.72 231.102 258.72 C 227.269 265.97 220.185 271.47 216.602 271.47 L 213.602 273.47 L 212.852 275.47 L 206.852 274.22 C 209.602 269.137 210.602 264.553 210.602 257.47 L 208.602 257.22 L 209.102 248.72 C 202.185 237.22 200.269 233.97 190.852 227.22 L 191.102 232.72 L 188.602 225.22 C 183.852 220.887 169.102 218.053 157.852 223.47 L 157.602 228.47 L 159.852 233.47 L 160.102 236.72 L 157.352 236.72 L 151.352 236.22 L 155.852 229.97 L 155.602 226.97 L 153.602 226.97 C 149.269 230.637 145.935 235.803 143.602 241.72 L 141.352 260.22 L 143.852 264.72 L 144.352 270.47 L 147.102 275.47 L 149.102 275.97 L 148.602 279.72 L 150.102 280.97 L 145.352 283.47 L 141.852 282.22 L 140.602 289.97 C 145.519 299.887 150.185 310.303 149.352 315.22 L 156.102 314.47 L 179.852 303.47 L 185.852 303.72 L 210.352 308.22 L 215.352 307.97 C 221.935 304.97 227.769 304.47 235.102 304.22 L 240.102 299.47 L 242.602 300.72 C 254.019 294.637 258.685 291.053 268.602 275.72 L 273.352 252.72 z "
         style="stroke:#000000;"
         id="path82" />
      <path
         d="M 180.852 267.97 L 180.352 263.47 C 181.602 263.137 183.352 253.303 176.602 251.22 L 176.852 247.72 C 180.769 247.97 183.685 244.72 181.852 240.22 C 180.352 236.72 174.852 236.47 173.602 241.72 L 175.602 242.97 L 174.102 244.47 L 174.602 248.47 L 168.602 247.97 C 165.769 257.387 170.185 261.053 174.352 265.72 L 174.352 268.22 L 177.102 267.47 L 180.852 267.97 z "
         style="fill:#ffffff;"
         id="path83" />
      <path
         d="M 267.102 258.22 C 268.185 265.303 246.769 273.637 236.602 267.47 L 234.602 266.72 L 234.852 268.97 C 241.269 269.97 240.435 274.47 239.852 280.22 L 236.852 279.22 L 229.852 278.47 C 229.935 273.137 230.019 268.553 233.852 263.22 L 240.352 262.47 L 243.602 260.47 L 250.352 260.47 L 252.102 259.47 L 267.102 258.22 z "
         style="fill:#ffffff;"
         id="path84" />
      <path
         d="M 156.352 308.97 C 154.602 309.47 151.102 308.22 150.352 303.72 L 149.852 305.72 L 146.352 293.72 L 145.602 288.22 L 145.602 286.47 C 149.102 286.887 151.852 285.053 154.602 283.22 C 153.435 291.137 158.269 290.553 160.102 293.47 C 159.102 297.887 160.852 309.303 156.352 308.97 z "
         style="fill:#ffffff;"
         id="path85" />
    </g>
    <g
       id="g78">
      <path
         d="M 232.102 249.22 C 245.435 243.303 265.269 243.387 272.852 242.72 L 272.102 234.72 C 264.769 225.97 254.185 203.47 248.602 202.47 L 229.352 183.97 L 229.102 181.97 L 223.352 177.22 L 223.102 174.22 C 219.269 172.387 212.935 158.803 211.602 146.22 L 206.602 143.72 C 206.519 143.72 206.436 143.72 206.352 143.72 L 204.352 140.97 L 201.602 140.72 L 188.102 135.22 L 185.102 137.47 C 178.935 136.387 170.519 139.053 169.602 147.72 C 173.352 154.637 166.352 167.053 183.102 181.22 L 191.352 191.47 L 208.852 209.97 L 220.352 220.22 C 226.519 229.887 233.685 235.303 232.102 249.22 z "
         id="path71" />
      <path
         d="M 176.352 146.97 C 185.352 159.47 200.102 151.97 204.852 149.97 L 206.602 149.22 C 208.685 146.72 204.019 144.22 197.102 143.97 C 190.435 141.72 179.019 139.72 176.352 146.97 z "
         style="fill:#ffffff;"
         id="path76" />
      <path
         d="M 237.102 242.22 C 233.185 240.22 231.519 234.22 234.352 230.97 C 241.269 232.803 245.685 233.137 249.102 231.22 L 252.352 231.97 L 262.102 230.97 L 262.852 228.72 L 267.852 237.47 L 267.102 239.72 C 261.935 240.053 255.519 238.637 251.602 240.72 L 250.352 241.72 L 240.602 241.97 L 239.102 240.72 L 237.102 242.22 z "
         style="fill:#ffffff;"
         id="path77" />
    </g>
    <g
       id="g67">
      <path
         d="M 191.602 96.97 L 191.977 90.47 L 188.852 90.97 C 187.769 93.47 185.935 96.72 182.602 97.72 L 178.352 106.72 L 178.852 110.72 L 189.102 122.47 L 189.602 124.97 L 214.852 127.97 C 218.935 123.553 221.519 121.387 227.852 117.72 L 227.852 114.47 L 229.102 117.47 C 245.852 112.553 257.102 115.887 269.602 129.72 C 277.269 134.553 281.185 146.887 282.102 158.47 L 283.852 160.97 L 282.102 163.47 L 284.852 176.97 C 297.435 182.553 309.769 178.887 320.352 172.72 L 320.352 168.47 L 321.352 163.47 L 322.352 145.47 L 323.352 139.22 C 315.769 107.47 302.185 100.72 291.852 90.47 L 263.602 76.22 L 239.852 73.72 L 235.102 74.22 L 217.852 76.97 L 211.102 79.22 L 205.977 81.095 L 205.352 91.97 L 202.852 92.72 L 202.852 96.97 C 198.352 98.97 196.352 99.47 191.602 96.97 z "
         id="path64" />
      <path
         d="M 192.102 117.47 L 192.602 121.22 L 195.102 117.97 L 195.102 120.97 L 198.352 122.97 C 216.185 128.97 213.019 116.72 202.352 106.47 C 182.185 94.6367 178.769 110.303 192.102 117.47 z "
         style="fill:#ffffff;"
         id="path65" />
      <path
         d="M 287.352 171.47 L 294.102 165.22 L 302.602 160.97 L 304.852 161.97 L 314.852 162.72 L 317.852 164.72 L 319.352 167.97 L 316.602 168.47 L 315.602 170.47 L 310.602 171.22 L 308.602 173.72 L 296.352 175.47 L 291.352 172.97 L 291.602 174.72 L 287.352 171.47 z "
         style="fill:#ffffff;"
         id="path66" />
    </g>
    <g
       id="g53">
      <path
         d="M 288.602 203.22 C 291.769 191.803 312.935 179.137 323.602 189.22 C 328.769 201.137 328.685 211.553 336.102 216.72 L 342.852 220.22 C 350.269 226.137 356.185 228.303 370.352 228.22 L 377.102 226.97 L 380.852 238.22 L 387.102 252.72 L 390.102 258.22 L 389.602 259.97 L 380.352 263.97 L 377.352 262.72 L 371.852 264.97 L 365.852 267.97 L 362.602 267.22 L 364.602 263.22 L 372.102 261.97 L 372.102 260.22 L 370.602 258.72 L 371.352 254.72 L 373.102 253.22 L 373.602 248.97 L 375.102 260.72 L 378.852 259.47 L 379.102 256.97 L 381.102 257.72 L 381.852 258.97 L 385.352 258.22 L 381.102 249.22 L 380.602 246.47 L 377.852 242.97 L 376.602 237.22 L 373.352 231.47 L 370.352 235.47 L 370.602 239.47 L 370.852 243.47 L 367.352 243.72 C 363.852 247.637 364.352 248.803 366.602 255.47 L 361.352 255.47 L 359.102 264.97 C 343.435 263.887 338.019 263.553 327.852 257.97 L 323.102 255.72 C 319.935 250.97 316.019 246.97 309.852 243.72 C 310.185 241.803 305.769 236.637 301.102 232.72 L 289.852 209.22 L 288.602 203.22 z "
         id="path50" />
      <ellipse
         cx="372.102417"
         cy="267.595032"
         rx="2.000000"
         ry="1.875000"
         id="ellipse51" />
      <path
         d="M 293.602 204.97 C 295.102 195.97 305.852 190.72 317.602 189.97 L 317.852 191.97 L 319.352 192.22 L 319.602 196.97 L 316.352 196.97 C 314.019 204.137 303.935 206.303 293.602 204.97 z "
         style="fill:#ffffff;"
         id="path52" />
    </g>
    <g
       id="g62">
      <path
         d="M 380.657 130.341 L 385.657 130.591 L 385.657 133.591 L 383.407 136.591 L 391.657 138.091 L 394.407 139.341 L 395.157 136.841 C 398.907 138.091 400.907 142.841 401.157 146.591 C 406.157 147.924 406.907 151.758 406.407 156.591 C 409.49 158.841 409.574 161.841 406.657 165.591 L 406.407 173.841 L 407.657 180.841 L 406.407 183.091 C 410.074 186.258 411.24 190.174 412.157 194.841 L 414.907 200.841 C 417.907 204.674 418.657 209.258 416.407 213.091 C 411.574 215.008 409.74 222.174 416.157 222.591 L 422.157 223.591 C 420.824 235.924 415.74 246.758 406.157 253.091 L 402.157 253.841 L 395.407 243.841 L 394.157 237.341 L 392.407 237.341 L 384.907 225.341 L 384.907 223.091 L 383.407 222.341 L 383.907 208.841 L 380.657 202.591 L 376.657 197.341 L 375.407 188.841 L 365.657 174.341 L 366.657 159.841 L 367.657 146.591 L 369.157 143.841 L 374.157 139.841 L 380.657 130.341 z "
         id="path59" />
      <path
         d="M 385.907 138.591 L 382.907 140.591 C 383.907 148.758 386.407 153.424 389.657 155.341 C 389.907 160.924 395.407 162.758 399.407 164.591 L 402.157 164.841 L 406.407 160.841 L 405.907 159.091 L 403.907 159.841 C 401.657 149.258 393.907 148.174 385.907 138.591 z "
         style="fill:#ffffff;"
         id="path60" />
      <path
         d="M 388.657 221.591 C 393.407 217.924 397.907 216.258 401.407 220.341 L 401.907 227.091 L 403.657 227.341 C 405.324 233.841 406.99 239.591 409.407 242.341 L 409.907 245.341 C 407.907 250.758 402.157 248.174 397.157 238.341 L 388.657 221.591 z "
         style="fill:#ffffff;stroke:#000000;"
         id="path61" />
    </g>
    <g
       id="g56">
      <path
         d="M 536.907 201.508 C 530.657 203.425 529.657 212.341 534.657 215.508 L 535.407 219.258 C 509.824 219.258 496.74 213.508 482.657 202.008 L 479.157 196.008 L 470.157 190.508 L 468.407 185.508 L 462.907 180.758 L 462.407 177.008 C 446.49 162.425 441.324 158.091 428.157 156.508 C 425.574 153.508 422.24 149.008 416.657 147.508 L 415.407 137.008 L 413.157 136.758 L 413.907 134.758 L 410.907 135.258 L 412.657 130.508 L 408.157 131.258 L 408.407 126.008 L 409.657 125.258 L 410.157 121.008 L 412.907 120.508 L 414.157 115.758 C 424.324 112.508 429.74 119.508 440.157 115.758 L 455.407 122.508 L 459.407 123.008 L 480.157 140.508 L 482.907 142.508 L 488.407 151.258 L 492.157 154.258 C 502.324 170.175 516.74 178.591 534.657 179.508 L 534.157 185.008 C 528.99 187.341 531.324 195.925 534.407 196.508 L 535.407 200.008 L 536.907 201.508 z "
         id="path54" />
      <path
         d="M 413.157 120.966 C 419.49 118.883 422.824 123.799 427.657 128.966 C 433.574 137.966 434.99 151.716 430.407 152.216 C 415.907 140.299 415.907 134.383 413.157 120.966 z "
         style="fill:#ffffff;"
         id="path55" />
    </g>
    <path
       d="M 17.2944 14.6044 L 31.2944 28.6044 L 33.2944 51.6044 C 33.2944 53.854 34.113 64.6044 32.2944 64.6044 L 31.2944 236.604 L 30.2944 334.604 L 30.2944 452.604 L 15.2944 460.604 L 15.2944 211.604 L 17.2944 122.604 L 17.2944 14.6044 z "
       id="path4" />
    <path
       d="M 10.2944 474.604 L 26.2944 461.604 L 117.294 463.604 L 300.294 459.604 L 377.294 460.604 L 522.294 458.604 L 668.294 458.604 L 682.294 472.604 L 679.294 476.604 L 670.294 475.604 L 497.294 475.604 L 475.294 474.604 L 424.294 476.604 L 88.2944 479.604 L 29.2944 478.604 L 10.2944 474.604 z "
       id="path6" />
    <path
       d="M 669.128 452.604 L 674.461 455.271 L 675.128 461.938 L 679.128 459.938 L 681.128 464.604 C 681.128 467.264 682.461 466.612 682.461 469.271 C 684.397 469.271 683.307 469.938 685.128 469.938 L 683.794 457.271 L 687.128 234.604 L 685.128 128.604 L 685.794 33.9377 L 680.461 27.9377 L 683.794 15.9377 L 681.794 14.6044 L 679.128 19.9377 L 676.461 27.9377 L 670.461 33.2711 L 670.461 147.938 L 671.794 235.271 L 669.794 371.938 C 670.683 371.938 670.461 371.716 670.461 372.604 L 669.128 452.604 z "
       id="path7" />
    <path
       d="M 35.1277 29.2711 L 22.1277 16.7711 L 24.1277 13.7711 L 63.6277 12.2711 L 314.128 9.27108 L 410.628 9.27108 L 550.128 11.2711 L 655.128 12.7711 L 655.128 8.77108 L 660.128 9.77108 L 662.628 7.77108 L 665.628 13.7711 L 678.628 13.2711 L 678.128 17.2711 L 667.628 28.2711 L 550.628 25.2711 L 369.128 24.7711 L 236.628 26.2711 L 99.6277 28.2711 C 99.7944 28.2711 99.9611 28.2711 100.128 28.2711 L 35.1277 29.2711 z "
       id="path10" />
    <path
       d="M 40.1277 36.2711 L 45.6277 43.2711 L 46.6277 49.7711 L 46.1277 110.771 L 44.6277 197.271 L 44.1277 289.771 L 44.1277 343.271 L 44.1277 380.771 L 43.6277 441.271 L 42.6277 443.771 L 47.1277 442.771 L 43.1277 446.271 L 38.6277 446.771 L 37.6277 326.771 L 39.1277 290.271 L 39.1277 266.771 L 39.6277 180.271 L 41.6277 41.2711 L 40.1277 36.2711 z "
       id="path11" />
    <path
       d="M 44.1277 36.7711 L 43.6277 39.2711 L 51.1277 44.0211 L 193.253 42.1877 L 195.919 44.1877 L 199.253 42.1877 L 337.919 40.1877 L 527.253 40.8544 L 654.586 42.8544 L 661.253 35.5211 L 623.253 36.1877 L 541.253 34.1877 L 537.253 32.1877 L 537.919 34.1877 L 533.253 34.1877 L 533.919 32.1877 L 528.586 34.8544 L 317.253 34.1877 L 49.2527 38.8544 L 44.1277 36.7711 z "
       id="path12" />
    <path
       d="M 661.253 39.0211 L 656.753 45.5211 L 656.753 142.021 L 658.253 199.021 L 657.253 234.021 L 655.753 426.021 L 655.753 440.021 L 659.753 445.521 L 661.753 420.521 L 662.253 300.021 L 661.753 295.521 L 664.753 297.021 L 665.253 293.021 L 663.253 291.021 L 662.253 267.521 L 664.253 261.021 L 663.253 240.021 L 665.253 241.521 L 664.753 237.521 L 662.253 235.021 L 662.753 181.021 L 666.253 177.521 L 665.253 175.021 L 663.253 176.521 L 662.753 123.021 L 664.753 115.021 L 665.753 111.521 L 662.753 109.521 L 661.253 39.0211 z "
       id="path13" />
    <path
       d="M 32.7527 454.021 L 40.2527 448.021 L 141.253 448.021 L 157.253 446.521 L 185.253 447.021 L 299.753 445.021 C 299.919 445.021 300.086 445.021 300.253 445.021 L 544.753 443.021 L 651.753 443.521 L 659.253 450.021 L 657.253 451.021 L 651.753 449.021 L 572.253 448.521 L 551.753 449.521 L 457.753 449.521 L 402.753 450.521 L 266.753 452.021 L 127.753 454.521 L 40.2527 453.021 L 32.7527 454.021 z "
       id="path14" />
    <path
       d="M 62.2527 354.021 L 61.7527 352.021 L 63.7527 350.271 L 259.461 347.688 L 430.794 347.021 L 439.461 345.688 L 451.461 346.354 L 602.794 345.021 L 618.128 343.021 L 634.794 343.688 L 635.461 347.021 L 622.128 347.688 L 606.128 349.021 L 320.794 351.688 L 62.2527 354.021 z "
       id="path15" />
    <g
       id="g49">
      <path
         d="M 104.628 380.854 C 104.628 380.358 104.434 379.604 105.128 379.604 C 105.882 378.85 106.616 378.604 107.878 378.604 C 105.882 378.85 106.616 378.604 107.878 378.604 L 122.128 378.104 L 122.378 381.104 L 116.628 381.354 L 116.628 393.354 L 120.878 393.854 L 119.878 396.854 L 116.878 399.604 L 116.878 416.104 C 116.878 416.789 116.128 418.076 116.128 418.854 C 115.816 419.477 114.49 422.104 113.878 422.104 C 113.352 422.63 110.21 426.354 109.628 426.354 C 108.811 427.171 108.555 427.604 107.128 427.604 C 106.632 428.1 104.732 428.104 104.128 428.104 C 103.353 428.104 99.8777 427.258 99.8777 426.604 C 98.9574 425.684 98.8777 424.722 98.8777 423.354 C 99.3858 422.846 99.3432 422.354 100.128 422.354 C 100.952 421.53 102.184 421.604 103.378 421.604 C 104.196 421.604 106.288 424.104 107.128 424.104 C 107.958 424.934 109.536 422.354 110.128 422.354 C 110.128 422.188 110.128 422.021 110.128 421.854 L 111.378 416.354 L 111.378 381.854 L 108.378 381.354 L 104.628 380.854 z "
         id="path19" />
      <path
         d="M 265.128 405.854 L 260.128 407.354 L 260.628 409.604 L 272.378 409.354 L 273.878 407.354 L 269.378 406.104 L 267.628 384.104 L 290.628 409.104 L 293.128 409.104 L 292.628 400.104 L 295.878 399.354 L 292.878 395.104 L 293.128 380.104 L 298.378 377.854 L 298.128 375.604 L 284.128 375.854 L 284.128 378.104 L 286.628 378.854 L 288.628 379.604 L 289.378 381.604 L 289.378 398.104 L 267.628 375.354 L 260.128 377.604 L 261.128 380.104 L 265.128 380.854 L 265.128 405.854 z "
         id="path23" />
      <path
         d="M 214.878 377.104 L 230.878 376.604 L 231.128 379.104 L 226.378 380.854 L 226.628 394.854 L 227.378 397.354 L 226.128 398.854 L 226.378 406.854 L 230.878 407.854 L 230.878 410.854 L 214.878 411.104 L 214.878 408.354 L 219.628 407.104 L 219.628 380.354 L 215.128 380.104 L 214.878 377.104 z "
         id="path24" />
      <path
         d="M 300.378 407.854 L 300.628 404.104 L 302.378 402.354 L 305.628 402.104 L 309.378 406.104 L 309.878 410.604 L 308.878 414.854 L 303.628 418.854 L 300.628 418.854 L 300.128 416.354 L 304.128 414.854 L 304.878 412.104 L 303.378 409.604 L 300.378 407.854 z "
         id="path25" />
      <g
         id="g26">
        <ellipse
           cx="168.877747"
           cy="394.979401"
           rx="17.500000"
           ry="17.375000"
           id="ellipse22" />
        <ellipse
           cx="169.252747"
           cy="395.229401"
           rx="10.375000"
           ry="14.875000"
           style="fill:#ffffff;"
           id="ellipse21" />
      </g>
      <g
         id="g34">
        <ellipse
           cx="373.252747"
           cy="398.854401"
           rx="11.375000"
           ry="11.250000"
           id="ellipse33" />
        <ellipse
           cx="373.627747"
           cy="398.604401"
           rx="6.500000"
           ry="8.750000"
           style="fill:#ffffff;"
           id="ellipse31" />
        <path
           d="M 365.128 400.354 L 370.378 397.354 L 369.378 401.354 L 367.378 403.854 L 365.128 400.354 z "
           id="path32" />
      </g>
      <path
         d="M 388.753 393.354 C 387.953 393.354 386.253 393.036 386.253 392.104 C 385.272 391.124 386.003 389.998 386.003 389.104 C 386.504 388.603 387.295 388.354 388.003 388.354 C 388.498 387.859 390.398 387.854 391.003 387.854 C 391.753 387.854 392.503 387.854 393.253 387.854 L 393.253 390.854 C 393.253 390.35 394.263 389.604 394.753 389.604 C 395.313 389.044 396.188 388.354 396.753 388.354 C 397.3 387.807 397.367 387.604 398.253 387.604 C 399.471 386.995 399.91 387.854 401.003 387.854 C 401.961 388.812 402.003 389.259 402.003 390.854 C 402.003 391.452 402.042 392.604 401.503 392.604 C 401.031 393.076 400.882 394.104 400.253 394.104 C 399.492 394.865 397.567 394.104 397.003 394.104 C 396.314 393.416 396.048 392.104 395.003 392.104 C 394.836 391.938 394.669 391.771 394.503 391.604 L 393.253 393.354 L 393.253 405.604 L 396.003 407.104 L 395.503 410.104 L 386.003 410.104 L 385.253 407.854 L 388.753 405.854 L 388.753 393.354 z "
         id="path38" />
      <g
         id="g42">
        <path
           d="M 451.253 378.354 L 451.503 404.354 L 447.503 404.354 L 446.753 406.354 L 447.003 408.354 L 468.003 408.604 C 475.67 406.687 482.086 402.021 482.003 390.854 C 480.67 382.104 475.586 375.854 468.503 375.604 L 448.503 374.854 L 446.503 376.354 L 446.503 378.104 L 451.253 378.354 z "
           id="path40" />
        <path
           d="M 457.503 377.104 L 457.503 406.354 L 467.503 405.854 C 473.753 405.271 476.253 398.187 477.003 391.104 C 475.92 382.271 470.086 378.687 466.503 377.354 L 457.503 377.104 z "
           style="fill:#ffffff;"
           id="path41" />
      </g>
      <path
         d="M 512.253 374.104 L 510.253 375.604 L 510.503 377.604 L 515.253 377.604 L 515.003 404.854 L 510.003 404.604 L 510.003 408.104 L 526.003 407.854 L 527.253 405.354 L 525.503 404.354 L 522.253 404.604 L 522.753 377.354 L 526.503 377.354 L 527.253 374.104 L 512.253 374.104 z "
         id="path45" />
      <ellipse
         cx="591.377747"
         cy="404.354401"
         rx="3.875000"
         ry="4.500000"
         id="ellipse46" />
      <path
         d="M 560.253 378.354 L 560.503 404.104 L 554.753 404.104 L 554.753 408.354 L 582.753 407.854 L 583.753 406.104 L 584.253 397.604 C 584.003 397.604 583.753 397.604 583.503 397.604 L 581.003 397.854 L 580.503 402.854 L 578.753 404.354 L 566.503 404.354 L 566.753 391.354 L 573.753 391.604 L 575.003 392.354 L 575.003 397.104 L 576.753 398.354 L 578.253 396.604 L 578.253 384.104 L 576.503 383.104 L 574.753 384.354 L 574.253 388.354 L 566.253 388.604 L 566.503 378.354 L 568.003 377.354 L 577.003 377.354 L 580.753 382.104 L 582.753 382.604 L 582.003 374.104 L 557.003 374.104 L 555.503 375.854 L 556.003 378.354 L 560.253 378.354 z "
         id="path47" />
    </g>
    <g
       id="g44">
      <path
         d="M 601.128 196.354 C 593.545 199.521 590.711 200.187 589.628 204.354 C 597.378 207.104 603.128 212.854 609.128 214.104 C 604.628 214.437 592.878 213.771 586.878 212.354 C 587.878 214.437 586.378 216.271 584.628 217.104 C 602.211 220.521 608.295 219.687 622.128 218.604 C 621.545 216.104 619.961 214.354 615.878 213.604 C 607.295 211.271 603.961 207.437 599.378 205.354 C 617.211 204.437 625.045 209.271 637.878 213.854 C 637.545 215.187 634.961 216.021 634.628 220.104 L 643.128 215.854 C 645.295 215.354 647.711 215.854 649.628 214.354 C 647.878 209.354 644.878 206.854 639.128 205.354 L 639.878 210.104 C 629.211 205.521 613.295 201.187 598.128 200.854 C 603.378 199.354 602.628 198.354 601.128 196.354 z "
         id="path68" />
      <path
         d="M 577.628 211.604 L 578.128 215.604 L 581.878 216.354 L 570.378 218.104 L 576.628 215.354 L 577.628 211.604 z "
         id="path69" />
      <g
         id="g76">
        <path
           d="M 576.878 193.104 L 578.378 191.604 C 586.795 193.687 591.461 190.771 590.378 186.354 L 594.128 187.104 C 593.128 194.604 585.878 197.104 576.878 193.104 z "
           id="path72" />
        <path
           d="M 578.628 184.604 L 578.378 187.354 L 589.628 186.604 C 587.961 184.437 583.545 184.021 578.628 184.604 z "
           id="path73" />
        <path
           d="M 578.878 180.354 L 580.628 177.104 C 591.878 176.937 594.628 179.021 602.378 186.354 L 598.378 187.854 C 595.628 182.104 590.378 180.354 578.878 180.354 z "
           id="path74" />
        <path
           d="M 565.878 189.604 C 571.961 185.271 574.045 181.937 577.128 181.354 L 577.128 178.854 C 575.295 179.187 575.211 181.021 569.378 182.104 C 567.628 183.937 566.378 187.271 565.878 189.604 z "
           id="path75" />
      </g>
      <path
         d="M 606.657 195.299 L 608.657 198.799 L 626.907 198.799 C 629.24 200.049 631.574 200.299 633.907 200.299 L 635.157 198.799 L 638.657 198.549 C 637.49 191.299 623.574 184.549 605.157 179.799 L 605.157 176.299 C 601.24 173.466 593.324 170.632 581.407 168.549 C 573.157 171.799 564.157 177.799 534.157 179.799 C 533.574 186.882 535.49 188.716 535.407 195.799 L 538.157 198.299 C 541.907 198.716 544.157 197.132 547.157 194.299 C 546.324 191.966 542.49 193.632 541.657 189.549 L 538.157 191.549 L 540.407 187.549 L 538.407 184.799 C 566.74 182.632 571.074 178.966 580.657 174.549 C 583.24 173.382 592.574 172.466 606.407 185.299 C 614.24 186.216 626.574 190.382 629.907 194.799 L 624.907 195.799 L 606.657 195.299 z "
         id="path42" />
      <path
         d="M 534.157 204.549 L 537.157 211.049 L 534.157 212.799 L 534.407 219.049 L 550.907 218.799 L 553.907 220.299 L 564.407 220.549 L 564.907 213.299 L 561.657 213.299 L 560.657 212.049 L 558.907 213.549 L 557.157 213.549 L 556.907 210.299 L 554.907 214.049 L 550.407 212.799 L 543.157 214.049 L 541.157 213.549 L 538.657 215.299 L 538.657 213.299 L 543.407 211.049 L 539.407 209.549 L 541.407 207.299 L 542.657 209.299 L 546.407 208.049 L 545.407 204.549 L 543.157 206.299 L 543.407 202.799 L 540.157 203.299 L 538.657 207.299 L 536.907 204.049 L 534.157 204.549 z "
         id="path43" />
    </g>
    <path
       d="M 486.124 127.516 L 493.124 130.266 L 493.124 127.266 L 490.874 127.016 L 493.874 119.266 L 498.374 131.516 L 500.374 131.516 L 504.874 119.266 L 507.374 119.266 L 507.374 116.516 L 501.624 114.766 L 499.874 116.766 L 502.624 118.516 L 499.874 127.016 L 496.124 113.016 L 490.624 112.516 L 490.624 114.766 L 492.124 117.016 L 488.874 125.766 L 486.624 126.016 L 486.124 127.516 z "
       id="path81" />
    <path
       d="M 522.124 124.766 L 535.874 130.016 L 534.124 133.266 L 527.874 130.766 L 527.374 134.766 L 528.874 135.016 L 528.874 131.766 L 532.124 133.016 L 529.874 139.016 L 526.624 135.766 L 524.124 141.016 L 528.874 142.766 L 532.124 140.266 L 532.374 143.516 L 530.374 145.266 L 517.624 142.766 C 517.708 142.766 517.791 142.766 517.874 142.766 L 518.624 139.766 C 518.624 139.849 518.624 139.932 518.624 140.016 L 521.874 140.766 L 524.374 129.766 L 521.624 127.266 L 522.124 124.766 z "
       id="path86" />
    <path
       d="M 509.374 134.891 C 509.374 136.616 507.922 137.766 506.749 137.766 C 505.576 137.766 505.124 136.616 505.124 134.891 C 505.124 133.166 507.076 131.766 508.249 131.766 C 509.422 131.766 509.374 133.166 509.374 134.891 z "
       transform="translate(-0.75,0)"
       id="path88" />
    <path
       d="M 509.374 134.891 C 509.374 136.616 507.922 137.766 506.749 137.766 C 505.576 137.766 505.124 136.616 505.124 134.891 C 505.124 133.166 507.076 131.766 508.249 131.766 C 509.422 131.766 509.374 133.166 509.374 134.891 z "
       transform="translate(30,9.5)"
       id="path89" />
    <path
       d="M 423.999 196.891 L 427.249 202.891 L 429.499 199.141 L 434.999 196.641 L 429.249 208.641 L 430.499 210.641 L 442.749 204.891 L 444.499 206.891 L 446.499 205.391 L 443.749 199.391 L 440.999 199.891 L 441.249 203.141 L 433.749 206.641 L 441.499 193.891 L 438.249 189.891 L 436.749 191.141 L 436.499 193.141 L 428.249 197.141 L 423.999 196.891 z "
       id="path90" />
    <path
       d="M 441.499 227.891 L 444.749 236.891 L 448.249 232.641 L 452.749 232.391 L 462.249 236.141 L 461.499 230.891 L 458.249 228.641 L 457.999 231.391 L 451.249 230.391 L 455.749 225.391 L 458.749 226.641 L 457.999 222.141 L 453.999 217.641 L 453.499 222.141 L 448.249 228.641 L 444.499 229.141 L 441.499 227.891 z "
       id="path91" />
    <ellipse
       cx="435.124176"
       cy="215.015518"
       rx="2.875000"
       ry="2.375000"
       transform="translate(0,0.75)"
       id="ellipse92" />
    <ellipse
       cx="449.874176"
       cy="244.390518"
       rx="3.125000"
       ry="2.750000"
       id="ellipse93" />
    <path
       d="M 302.999 268.641 L 310.249 271.641 L 308.999 266.641 L 310.999 261.641 L 314.749 273.891 L 316.999 274.141 L 321.249 264.141 L 324.999 261.641 L 318.999 258.141 L 318.999 262.141 L 316.499 267.891 L 314.749 259.891 L 310.249 253.391 L 308.749 255.391 L 308.249 259.391 L 305.249 266.141 L 302.999 268.641 z "
       id="path94" />
    <path
       d="M 335.499 266.891 L 341.999 269.641 L 339.499 272.141 L 332.249 288.141 L 327.499 288.391 L 324.999 285.891 L 324.999 283.141 C 325.083 283.141 325.166 283.141 325.249 283.141 L 328.249 283.641 L 329.999 286.141 L 336.999 271.141 L 335.499 266.891 z "
       id="path95" />
    <ellipse
       cx="341.874176"
       cy="293.765533"
       rx="2.375000"
       ry="2.375000"
       transform="translate(-0.5,-7.5)"
       id="ellipse97" />
    <path
       d="M 316.249 283.891 C 316.249 285.409 315.241 285.391 313.999 285.391 C 312.757 285.641 313.499 283.659 313.499 282.141 C 313.499 280.623 314.007 280.891 316.499 280.391 C 317.741 280.391 316.249 282.373 316.249 283.891 z "
       transform="matrix(1.21088,0,0,1,-57.5656,-6.5)"
       id="path98" />
    <path
       d="M 289.749 70.3905 L 295.249 75.8905 L 295.999 72.3905 L 298.499 68.8905 L 300.499 68.6405 L 300.999 65.3905 L 303.249 63.3905 L 306.249 65.6405 L 305.749 67.6405 L 303.249 64.8905 L 300.249 69.3905 L 304.999 81.8905 L 308.249 81.8905 L 309.749 78.1405 L 305.999 73.8905 L 309.999 69.6405 L 309.749 65.8905 L 300.999 59.1405 L 293.749 69.8905 L 289.749 70.3905 z "
       id="path99" />
    <path
       d="M 225.044 164.604 L 230.294 169.104 L 231.044 166.104 L 236.044 160.854 L 232.794 170.104 L 234.044 171.854 L 247.044 166.104 L 240.044 173.104 L 236.544 173.854 L 241.294 178.354 L 242.294 174.854 L 249.794 167.104 L 253.794 168.104 L 249.544 162.354 L 236.794 168.104 L 242.294 156.354 L 235.544 152.354 L 235.544 157.104 L 229.294 164.104 L 225.044 164.604 z "
       id="path87" />
    <path
       d="M 260.044 183.979 C 260.044 185.842 261.174 186.354 259.544 187.854 C 258.164 187.854 257.044 187.592 256.294 185.979 C 256.294 184.116 256.414 183.354 257.044 182.104 C 258.424 182.104 259.044 182.116 260.044 183.979 z "
       transform="matrix(6.12303e-17,1,-1,6.12303e-17,434.774,-79.565)"
       id="path92" />
    <path
       d="M 143.794 194.604 L 154.044 193.854 L 151.544 197.104 L 155.294 204.854 L 158.294 195.604 L 154.794 195.354 L 155.294 193.354 L 163.044 192.104 L 163.794 195.104 L 161.044 195.604 L 155.044 210.854 L 147.044 197.104 L 143.794 197.104 L 143.794 194.604 z "
       id="path93" />
    <ellipse
       cx="169.294418"
       cy="206.854416"
       rx="2.500000"
       ry="3.000000"
       id="ellipse94" />
    <path
       d="M 53.2944 309.354 L 60.5444 296.104 L 65.7944 309.104 L 69.7944 299.604 L 70.2944 304.104 L 66.5444 315.604 L 63.0444 314.354 L 59.7944 300.604 L 57.2944 308.604 L 58.7944 311.854 L 53.2944 309.354 z "
       id="path96" />
    <path
       d="M 92.5444 315.354 C 88.7944 320.521 95.7944 322.937 95.7944 315.604 C 91.0444 310.687 84.2944 307.771 80.5444 317.354 L 79.5444 322.604 C 82.9611 329.271 90.1277 329.687 91.2944 324.604 L 89.2944 323.854 C 88.7111 326.354 83.3777 326.354 83.0444 320.104 C 83.4611 313.604 88.8777 310.854 92.5444 315.354 z "
       id="path97" />
    <ellipse
       cx="95.294411"
       cy="328.104401"
       rx="2.250000"
       ry="2.750000"
       transform="translate(0.25,0.75)"
       id="ellipse98" />
    <path
       d="M 73.0444 315.104 L 70.2944 316.104 L 70.2944 319.854 L 73.0444 319.354 C 73.7944 318.687 74.2944 316.521 73.0444 315.104 z "
       id="path100" />
    <path
       d="M 67.5027 175.396 C 63.586 172.563 66.1694 164.979 72.2527 165.396 C 77.7527 165.563 82.0027 170.229 74.5027 173.396 L 73.2527 175.646 C 82.836 173.563 81.6694 163.229 71.2527 162.396 C 63.586 161.896 60.6694 173.896 67.5027 175.396 z "
       id="path101" />
    <path
       d="M 69.7527 142.646 L 72.5027 143.396 C 75.6694 134.313 68.336 132.979 65.5027 137.896 C 61.836 145.563 59.4194 140.229 60.7527 137.646 L 61.7527 134.896 L 58.7527 134.896 L 58.7527 137.396 C 55.836 146.229 65.1694 146.313 66.2527 142.146 C 67.9194 135.313 73.336 135.479 69.7527 142.646 z "
       id="path102" />
    <ellipse
       cx="63.627743"
       cy="148.771072"
       rx="1.875000"
       ry="2.125000"
       transform="translate(1,0.25)"
       id="ellipse103" />
    <ellipse
       cx="62.502743"
       cy="180.896072"
       rx="2.000000"
       ry="1.500000"
       id="ellipse104" />
    <g
       id="g135">
      <path
         d="M 526.878 184.021 L 526.628 191.521 L 521.378 188.271 L 519.628 180.271 L 526.878 184.021 z "
         transform="translate(0.25,0)"
         style="fill:#ffffff;"
         id="path105" />
      <path
         d="M 524.878 193.771 L 529.628 198.021 L 530.378 201.771 L 527.628 205.521 L 523.378 203.771 L 523.128 197.021 L 524.878 193.771 z "
         transform="translate(0.25,0)"
         style="fill:#ffffff;"
         id="path106" />
      <path
         d="M 525.128 208.521 L 526.628 212.771 L 524.628 215.521 L 520.878 215.521 L 522.128 211.271 L 525.128 208.521 z "
         transform="translate(0.5,0.25)"
         style="fill:#ffffff;"
         id="path107" />
      <path
         d="M 515.878 205.521 L 513.628 200.521 L 518.128 199.521 L 520.378 200.771 L 519.628 205.771 L 520.128 208.771 L 517.378 212.271 L 514.128 213.021 L 512.628 210.271 L 513.378 205.771 L 515.878 205.521 z "
         transform="translate(0.25,0)"
         style="fill:#ffffff;"
         id="path108" />
      <path
         d="M 512.628 187.771 L 515.878 196.771 L 519.878 197.271 L 518.628 188.271 L 515.128 186.521 L 512.628 187.771 z "
         transform="translate(0.25,0)"
         style="fill:#ffffff;"
         id="path109" />
      <path
         d="M 508.128 211.771 L 511.878 198.521 L 509.378 191.271 L 504.128 195.521 L 504.628 201.521 L 507.128 202.771 L 506.378 206.271 L 503.128 207.021 L 503.128 210.271 L 508.128 211.771 z "
         transform="translate(0.25,0)"
         style="fill:#ffffff;"
         id="path110" />
      <path
         d="M 510.878 188.271 L 506.378 185.521 L 506.878 174.521 L 515.378 179.271 L 514.628 182.521 L 510.628 185.521 L 510.878 188.271 z "
         transform="translate(0.25,0)"
         style="fill:#ffffff;"
         id="path111" />
      <path
         d="M 500.378 205.021 L 500.378 199.771 L 498.628 196.771 L 495.128 201.021 L 497.878 205.521 L 500.378 205.021 z "
         transform="translate(0.5,0)"
         style="fill:#ffffff;"
         id="path112" />
      <path
         d="M 503.128 182.271 L 502.878 187.271 L 501.128 192.771 L 497.128 193.521 L 498.378 185.271 L 501.378 184.271 L 503.128 182.271 z "
         transform="translate(0.5,0)"
         style="fill:#ffffff;"
         id="path113" />
      <path
         d="M 503.128 172.271 L 504.378 180.271 L 497.878 180.771 L 497.878 183.271 L 493.628 182.771 L 494.378 176.771 L 498.378 173.021 L 503.128 172.271 z "
         transform="translate(0.5,0)"
         style="fill:#ffffff;"
         id="path114" />
      <path
         d="M 490.878 203.771 L 492.878 197.771 L 495.128 197.771 L 495.628 194.521 L 492.878 196.021 L 493.628 191.521 L 486.628 193.021 L 485.128 199.271 L 490.878 203.771 z "
         transform="translate(0.5,0)"
         style="fill:#ffffff;"
         id="path115" />
      <path
         d="M 484.128 191.271 L 490.128 190.021 L 493.128 189.521 L 493.628 186.521 L 496.128 188.771 L 496.128 184.771 L 493.628 184.521 L 489.378 184.271 L 485.128 185.771 L 484.128 191.271 z "
         transform="translate(0.5,0)"
         style="fill:#ffffff;"
         id="path116" />
      <path
         d="M 480.628 192.771 L 473.128 187.271 L 474.128 182.771 L 478.128 180.271 L 482.128 184.021 L 482.628 187.521 L 480.628 189.521 L 480.628 192.771 z "
         transform="translate(0.5,0)"
         style="fill:#ffffff;"
         id="path117" />
      <path
         d="M 481.378 179.521 L 483.628 181.521 C 483.711 181.521 485.044 180.771 485.128 180.771 L 492.128 181.271 L 493.628 173.521 L 490.378 172.771 L 487.878 174.021 L 486.878 170.021 L 488.878 168.271 L 490.878 170.271 L 492.878 169.771 L 489.878 165.521 L 491.128 160.271 L 486.128 160.771 L 489.128 156.771 L 480.128 148.021 L 474.628 155.771 L 485.378 157.021 L 483.128 161.271 L 482.378 166.771 L 485.378 173.021 L 485.378 176.521 L 481.378 179.521 z "
         transform="translate(0.5,0)"
         style="fill:#ffffff;"
         id="path118" />
      <path
         d="M 495.378 164.271 L 492.628 167.771 L 493.628 171.521 L 502.378 171.771 L 495.378 164.271 z "
         transform="translate(0.5,0)"
         style="fill:#ffffff;"
         id="path119" />
      <path
         d="M 472.628 178.771 L 477.878 179.021 L 482.128 176.521 L 482.128 172.021 L 477.878 171.021 L 473.878 173.271 L 472.628 178.771 z "
         transform="translate(0.5,0)"
         style="fill:#ffffff;"
         id="path120" />
      <path
         d="M 476.628 169.521 L 480.128 166.521 L 481.128 159.271 L 475.128 159.521 L 471.378 163.521 L 471.628 168.521 L 476.628 169.521 z "
         transform="translate(0.5,0)"
         style="fill:#ffffff;"
         id="path121" />
      <path
         d="M 468.628 179.521 L 470.628 175.021 L 470.128 170.771 L 467.878 169.021 L 464.628 171.771 L 461.128 171.771 L 468.628 179.521 z "
         transform="translate(0.5,0)"
         style="fill:#ffffff;"
         id="path122" />
      <path
         d="M 460.878 167.521 L 468.628 166.771 L 469.128 164.521 L 469.878 158.521 L 465.378 158.521 L 461.878 162.021 L 460.878 167.521 z "
         transform="translate(0.5,0)"
         style="fill:#ffffff;"
         id="path123" />
      <path
         d="M 466.378 154.271 L 470.878 156.021 L 475.378 151.521 L 475.378 145.271 L 473.378 143.021 L 466.378 147.771 L 466.378 154.271 z "
         transform="translate(0.5,0)"
         style="fill:#ffffff;"
         id="path124" />
      <path
         d="M 460.628 156.521 L 459.628 160.771 C 459.711 160.771 459.794 160.771 459.878 160.771 L 459.378 166.521 L 455.128 166.771 L 451.378 161.021 L 452.378 156.021 L 454.878 154.021 L 460.628 156.521 z "
         transform="translate(0.25,0)"
         style="fill:#ffffff;"
         id="path125" />
      <path
         d="M 453.378 152.271 L 456.128 152.771 L 462.128 153.271 L 464.378 149.521 L 463.128 144.021 L 459.378 143.021 L 456.378 145.021 L 455.378 143.021 L 460.878 136.021 L 460.128 131.271 L 455.378 131.271 L 451.378 137.271 L 453.378 143.521 L 454.378 149.771 L 453.378 152.271 z "
         transform="translate(0.5,0)"
         style="fill:#ffffff;"
         id="path126" />
      <path
         d="M 464.878 133.021 L 462.628 141.771 L 466.378 143.271 L 471.628 141.271 L 470.378 136.521 L 464.878 133.021 z "
         transform="translate(0.5,0)"
         style="fill:#ffffff;"
         id="path127" />
      <path
         d="M 449.628 159.771 L 445.878 159.771 L 441.878 155.521 L 444.628 150.021 L 449.878 148.521 L 449.628 159.771 z "
         transform="translate(0.25,0)"
         style="fill:#ffffff;"
         id="path128" />
      <path
         d="M 442.128 147.021 L 445.128 145.021 L 449.878 144.271 L 448.378 135.521 L 444.628 133.271 L 441.628 138.521 L 441.878 143.271 L 442.128 147.021 z "
         transform="translate(0.25,0)"
         style="fill:#ffffff;"
         id="path129" />
      <path
         d="M 446.128 131.771 L 452.378 131.021 L 456.128 127.521 L 450.878 123.521 L 444.878 121.771 L 440.878 124.771 L 442.628 129.271 L 445.628 129.521 L 446.128 131.771 z "
         transform="translate(0.5,0)"
         style="fill:#ffffff;"
         id="path130" />
      <path
         d="M 421.628 119.521 L 428.378 127.271 L 432.878 120.021 L 421.628 119.521 z "
         transform="translate(0.75,0)"
         style="fill:#ffffff;"
         id="path131" />
      <path
         d="M 440.128 120.271 L 433.878 122.021 L 431.628 126.021 L 431.628 130.521 L 434.128 133.021 L 437.628 131.271 L 441.128 132.771 L 438.878 125.271 L 440.128 120.271 z "
         transform="translate(0.75,0)"
         style="fill:#ffffff;"
         id="path132" />
      <path
         d="M 438.128 134.521 L 434.628 135.021 L 433.378 140.771 L 435.628 143.521 L 438.878 139.521 L 438.128 134.521 z "
         transform="translate(0.75,0)"
         style="fill:#ffffff;"
         id="path133" />
      <path
         d="M 440.128 146.771 L 439.878 153.521 L 434.628 154.271 L 434.128 149.521 L 437.128 146.021 L 440.128 146.771 z "
         transform="translate(0.75,0)"
         style="fill:#ffffff;"
         id="path134" />
    </g>
    <g
       id="g183">
      <path
         d="M 413.503 239.646 L 417.753 230.896 L 415.253 230.396 L 410.253 233.896 L 411.003 238.146 L 413.503 239.646 z "
         style="fill:#fdfdfd;"
         id="path166" />
      <path
         d="M 407.003 229.896 L 410.253 227.896 L 412.753 229.646 L 414.503 227.896 L 413.753 225.396 L 410.253 222.646 L 408.003 221.646 L 404.753 222.896 L 404.253 226.146 L 406.503 228.146 L 407.003 229.896 z "
         style="fill:#ffffff;"
         id="path167" />
      <path
         d="M 398.753 216.146 L 403.003 218.896 L 408.253 217.396 L 411.503 214.146 L 405.003 211.396 L 401.753 211.396 C 401.753 211.479 401.753 211.563 401.753 211.646 L 398.753 216.146 z "
         style="fill:#ffffff;"
         id="path168" />
      <path
         d="M 405.753 206.646 L 409.003 209.896 L 412.503 209.896 L 414.003 206.396 L 411.503 202.146 L 409.753 199.146 L 405.753 206.646 z "
         style="fill:#ffffff;"
         id="path169" />
      <path
         d="M 387.253 214.146 L 392.253 217.396 L 394.253 214.396 L 396.753 212.646 L 393.753 208.396 L 389.253 203.396 L 387.753 206.146 L 389.753 210.896 L 387.253 214.146 z "
         style="fill:#ffffff;"
         id="path170" />
      <path
         d="M 399.503 207.896 L 397.753 211.396 L 397.003 206.646 L 395.253 206.896 L 397.503 198.646 L 403.003 199.646 L 404.753 199.646 L 404.503 203.896 L 403.003 207.396 L 403.253 209.146 L 399.503 207.896 z "
         style="fill:#ffffff;"
         id="path171" />
      <path
         d="M 402.253 185.396 L 406.003 191.396 L 408.253 193.646 L 403.753 197.146 L 399.003 193.646 L 400.253 189.396 L 402.253 185.396 z "
         style="fill:#ffffff;"
         id="path172" />
      <path
         d="M 401.753 172.896 L 402.253 178.146 L 404.253 179.146 L 403.753 183.146 L 399.003 183.896 L 397.753 181.146 L 395.503 180.146 L 397.253 176.646 L 401.753 172.896 z "
         style="fill:#ffffff;"
         id="path173" />
      <path
         d="M 394.253 193.146 L 393.753 199.646 L 391.503 199.896 L 389.753 201.146 L 387.253 199.146 L 385.003 199.646 L 386.503 196.646 L 384.753 196.146 L 390.503 191.646 L 394.253 193.146 z "
         style="fill:#ffffff;"
         id="path174" />
      <path
         d="M 394.003 189.646 L 397.753 188.396 L 398.003 186.396 L 394.753 184.646 L 394.003 182.146 L 389.253 185.896 L 390.503 189.646 L 394.003 189.646 z "
         style="fill:#ffffff;"
         id="path175" />
      <path
         d="M 383.003 194.646 L 384.753 189.646 L 386.003 187.896 L 381.253 184.146 L 377.253 179.396 L 376.753 184.396 L 379.503 189.646 L 383.003 194.646 z "
         style="fill:#ffffff;"
         id="path176" />
      <path
         d="M 380.253 180.646 L 382.753 176.396 L 389.253 175.396 L 391.253 177.396 L 388.003 180.396 L 387.753 182.146 L 380.253 180.646 z "
         style="fill:#ffffff;"
         id="path177" />
      <path
         d="M 388.503 171.146 L 394.753 174.146 L 396.003 171.396 L 398.003 172.896 L 400.503 169.896 L 397.503 166.646 L 392.503 166.896 L 388.503 171.146 z "
         style="fill:#ffffff;"
         id="path178" />
      <path
         d="M 371.503 171.646 L 375.003 175.146 L 380.503 174.896 L 383.753 172.646 L 384.003 168.646 L 380.503 168.396 L 379.753 165.396 L 377.503 169.396 L 374.253 171.146 L 371.503 171.646 z "
         style="fill:#ffffff;"
         id="path179" />
      <path
         d="M 370.503 166.146 L 376.003 166.896 L 375.753 163.396 L 377.503 164.146 L 377.003 160.646 L 371.253 156.146 L 370.503 160.646 L 370.503 166.146 z "
         style="fill:#ffffff;"
         id="path180" />
      <path
         d="M 379.503 141.646 L 380.003 148.646 L 382.253 149.396 L 383.003 153.396 L 381.753 156.396 L 376.253 157.146 L 373.753 153.396 L 374.003 148.146 L 379.503 141.646 z "
         style="fill:#ffffff;"
         id="path181" />
      <path
         d="M 386.503 155.396 L 382.753 159.146 L 381.253 162.396 L 384.753 166.146 L 388.503 166.646 L 390.003 164.896 L 390.253 162.646 L 388.253 162.646 L 386.503 155.396 z "
         style="fill:#ffffff;"
         id="path182" />
    </g>
    <g
       id="g214">
      <path
         d="M 365.544 233.604 L 368.044 235.604 L 368.044 241.354 L 366.544 242.604 L 363.544 242.854 L 361.294 240.354 L 360.044 235.854 L 365.544 233.604 z "
         style="fill:#ffffff;"
         id="path201" />
      <path
         d="M 353.044 252.354 L 356.044 256.104 L 360.044 250.104 L 361.044 246.104 L 358.294 242.104 L 356.044 244.104 L 351.794 243.854 L 353.044 249.854 L 355.544 251.354 L 353.044 252.354 z "
         style="fill:#ffffff;"
         id="path202" />
      <path
         d="M 347.294 244.104 L 355.794 237.854 L 357.294 237.854 L 356.544 234.354 L 350.544 232.354 L 347.044 235.354 L 347.294 244.104 z "
         style="fill:#ffffff;"
         id="path203" />
      <path
         d="M 339.544 258.604 L 347.544 259.104 L 350.294 260.354 L 352.044 258.104 L 347.544 252.354 L 348.544 249.604 L 344.544 247.354 L 344.044 250.604 L 339.044 254.604 L 339.544 258.604 z "
         style="fill:#ffffff;"
         id="path204" />
      <path
         d="M 339.544 223.354 L 348.794 229.604 L 346.294 232.854 L 342.294 232.604 L 340.794 237.104 L 343.044 237.104 L 344.294 240.604 L 341.544 246.354 L 338.544 249.354 L 337.044 247.604 L 336.044 250.854 L 337.044 252.604 C 337.128 252.604 337.211 252.604 337.294 252.604 L 335.544 256.854 L 327.544 252.604 L 329.794 249.104 L 334.544 249.354 L 335.544 238.604 L 340.044 233.854 L 340.044 228.604 L 339.544 223.354 z "
         style="fill:#ffffff;"
         id="path205" />
      <path
         d="M 334.794 225.104 C 336.127 226.937 338.711 236.271 332.794 236.604 C 332.544 242.187 331.794 249.521 323.794 249.604 C 322.377 243.521 324.711 239.687 330.044 237.354 C 325.377 230.937 327.711 224.521 333.294 227.104 L 334.794 225.104 z "
         style="fill:#ffffff;"
         id="path206" />
      <path
         d="M 318.294 244.854 L 323.294 238.854 L 323.294 235.104 L 320.294 233.104 L 316.794 235.104 L 314.794 232.104 L 312.294 237.604 L 313.044 243.354 L 316.544 242.604 L 318.294 244.854 z "
         style="fill:#ffffff;"
         id="path207" />
      <path
         d="M 309.294 235.854 L 313.294 228.854 L 309.544 224.604 C 305.127 223.187 302.961 226.771 304.544 230.104 L 309.294 235.854 z "
         style="fill:#ffffff;"
         id="path208" />
      <path
         d="M 314.044 226.354 L 315.294 229.604 L 323.044 231.104 L 325.294 228.854 C 327.544 218.771 319.044 219.687 314.044 226.354 z "
         style="fill:#ffffff;"
         id="path209" />
      <path
         d="M 332.544 222.854 L 325.294 219.604 L 325.044 215.604 L 322.044 213.604 L 325.044 208.104 L 326.794 212.604 L 332.794 219.354 L 332.544 222.854 z "
         style="fill:#ffffff;"
         id="path210" />
      <path
         d="M 316.794 211.604 C 319.377 215.771 316.961 220.187 311.794 221.104 L 307.544 219.604 C 308.127 213.937 310.461 210.521 316.794 211.604 z "
         style="fill:#ffffff;"
         id="path211" />
      <path
         d="M 314.044 208.354 C 311.044 204.021 315.044 202.437 317.794 199.854 L 322.044 202.604 C 321.627 207.521 318.461 209.687 314.044 208.354 z "
         style="fill:#ffffff;"
         id="path212" />
      <path
         d="M 303.294 222.604 L 305.044 219.854 C 305.127 216.104 305.711 213.604 308.294 208.604 L 296.544 208.854 C 295.044 216.187 298.544 219.021 303.294 222.604 z "
         style="fill:#ffffff;"
         id="path213" />
    </g>
    <path
       d="M 211.044 87.8544 L 207.544 92.8544 L 206.044 98.1044 L 212.294 104.354 L 215.544 96.8544 L 212.044 92.6044 L 214.294 92.1044 L 211.044 87.8544 z "
       style="fill:#ffffff;"
       id="path228" />
    <path
       d="M 215.544 106.354 L 213.294 113.104 L 213.544 117.104 L 217.044 119.104 L 224.044 113.604 L 215.544 106.354 z "
       style="fill:#ffffff;"
       id="path229" />
    <path
       d="M 221.294 92.3544 L 219.544 96.1044 L 218.294 105.104 L 220.044 108.104 L 225.294 110.104 L 228.544 99.8544 L 225.794 95.1044 L 221.294 92.3544 z "
       style="fill:#ffffff;"
       id="path230" />
    <path
       d="M 212.044 83.8544 L 217.044 91.1044 L 220.544 92.1044 L 223.044 90.6044 L 223.544 86.1044 L 226.544 80.3544 L 223.044 79.8544 L 212.044 83.8544 z "
       style="fill:#ffffff;"
       id="path231" />
    <path
       d="M 228.044 111.854 L 235.794 112.104 L 241.044 109.854 L 236.544 106.104 L 233.794 101.104 L 228.794 105.854 L 228.044 111.854 z "
       style="fill:#ffffff;"
       id="path232" />
    <path
       d="M 233.294 81.6044 C 227.044 83.5211 226.544 95.6877 232.544 98.6044 L 238.544 89.8544 L 233.294 81.6044 z "
       style="fill:#ffffff;"
       id="path233" />
    <path
       d="M 249.044 77.6044 L 244.544 86.8544 L 238.294 84.6044 L 237.294 78.8544 L 238.544 76.1044 L 245.544 77.6044 L 249.044 77.6044 z "
       style="fill:#ffffff;"
       id="path234" />
    <path
       d="M 242.294 89.8544 L 250.044 97.3544 L 245.794 100.104 L 243.544 106.354 L 239.294 104.854 L 237.544 99.3544 L 242.294 89.8544 z "
       style="fill:#ffffff;"
       id="path235" />
    <path
       d="M 244.044 111.104 L 246.544 103.854 L 252.544 102.354 L 256.544 108.604 L 259.044 114.354 L 253.544 113.604 L 249.544 111.604 L 244.044 111.104 z "
       style="fill:#ffffff;"
       id="path236" />
    <path
       d="M 248.044 92.1044 L 251.294 93.6044 L 251.794 95.1044 L 257.794 92.1044 L 258.544 83.8544 L 254.044 81.1044 L 249.794 86.1044 L 248.044 92.1044 z "
       style="fill:#ffffff;"
       id="path237" />
    <path
       d="M 273.544 86.1044 L 262.294 79.3544 L 261.044 84.8544 L 265.294 90.6044 L 273.544 86.1044 z "
       style="fill:#ffffff;"
       id="path238" />
    <path
       d="M 258.294 107.104 L 266.044 101.854 L 266.794 94.8544 L 263.794 93.1044 L 261.544 94.6044 L 259.294 93.1044 L 256.794 98.6044 L 258.294 107.104 z "
       style="fill:#ffffff;"
       id="path239" />
    <path
       d="M 269.294 97.6044 L 272.294 89.3544 L 277.794 91.1044 L 277.294 98.6044 L 279.044 99.3544 L 279.044 101.104 L 275.294 100.854 L 273.544 103.354 L 270.294 102.854 L 269.294 97.6044 z "
       style="fill:#ffffff;"
       id="path240" />
    <path
       d="M 271.044 104.104 L 267.794 106.604 L 264.794 106.354 L 262.044 110.604 L 262.544 114.854 L 266.044 117.854 L 268.044 117.854 L 270.544 113.604 L 271.294 110.604 L 269.544 109.604 L 271.044 104.104 z "
       style="fill:#ffffff;"
       id="path241" />
    <path
       d="M 269.794 123.604 L 269.544 120.104 L 273.794 117.354 L 276.794 117.604 L 278.544 120.354 L 277.294 122.854 L 277.044 128.104 L 274.294 127.854 L 269.794 123.604 z "
       style="fill:#ffffff;"
       id="path242" />
    <path
       d="M 274.294 114.604 L 272.794 109.854 L 277.044 104.104 L 281.544 105.104 L 283.044 109.104 C 283.044 109.188 283.044 109.271 283.044 109.354 L 281.544 112.854 L 274.294 114.604 z "
       style="fill:#ffffff;"
       id="path243" />
    <path
       d="M 283.294 90.6044 L 281.294 95.8544 L 282.544 100.604 L 285.544 102.104 L 292.794 98.1044 L 283.294 90.6044 z "
       style="fill:#ffffff;"
       id="path244" />
    <path
       d="M 285.044 111.354 L 288.044 105.104 L 296.544 102.354 L 298.794 105.854 L 291.794 112.604 C 291.794 112.688 291.794 112.771 291.794 112.854 L 287.794 113.854 L 285.044 111.354 z "
       style="fill:#ffffff;"
       id="path245" />
    <path
       d="M 280.044 121.604 L 285.794 114.854 L 290.544 117.354 L 289.294 121.604 L 287.294 124.354 L 280.044 121.604 z "
       style="fill:#ffffff;"
       id="path246" />
    <path
       d="M 282.544 139.354 L 284.794 132.854 C 284.878 132.854 284.961 132.854 285.044 132.854 L 288.544 128.604 C 275.294 124.687 276.044 132.771 282.544 139.354 z "
       style="fill:#ffffff;"
       id="path247" />
    <path
       d="M 293.794 118.104 L 298.044 116.104 L 297.544 119.354 L 304.044 117.604 L 304.794 113.604 L 302.794 110.354 L 299.294 109.104 L 295.794 111.854 L 293.794 118.104 z "
       style="fill:#ffffff;"
       id="path248" />
    <path
       d="M 306.544 114.354 L 304.294 124.354 L 310.794 128.354 L 312.294 127.854 L 311.294 117.604 L 306.544 114.354 z "
       style="fill:#ffffff;"
       id="path249" />
    <path
       d="M 294.794 121.604 L 290.794 126.854 L 292.794 129.854 L 294.544 131.354 L 299.794 130.354 L 303.294 127.854 L 300.044 123.854 L 294.794 121.604 z "
       style="fill:#ffffff;"
       id="path250" />
    <path
       d="M 286.044 136.604 L 291.544 132.104 L 295.294 134.604 L 296.544 138.354 L 293.044 142.354 L 290.294 139.354 L 286.044 136.604 z "
       style="fill:#ffffff;"
       id="path251" />
    <path
       d="M 285.544 140.354 L 284.044 142.854 L 285.544 151.854 C 293.544 152.271 295.044 144.437 285.544 140.354 z "
       style="fill:#ffffff;"
       id="path252" />
    <path
       d="M 305.044 129.354 L 300.544 136.604 L 305.044 139.854 C 312.294 141.604 313.794 131.854 305.044 129.354 z "
       style="fill:#ffffff;"
       id="path253" />
    <path
       d="M 316.044 137.604 L 317.294 148.104 L 311.294 145.604 L 309.794 140.354 L 316.044 137.604 z "
       style="fill:#ffffff;"
       id="path254" />
    <path
       d="M 289.544 165.104 L 287.294 162.354 L 286.544 154.354 L 296.294 152.854 L 296.044 157.104 L 299.544 158.854 L 294.044 160.354 L 289.544 165.104 z "
       style="fill:#ffffff;"
       id="path255" />
    <path
       d="M 293.544 148.354 L 296.794 142.604 L 303.294 142.354 L 305.294 144.604 L 304.044 149.604 L 302.794 153.604 L 305.794 154.854 L 308.544 152.604 L 312.544 151.354 L 316.794 153.354 L 315.794 161.354 L 311.294 159.604 L 305.794 156.354 L 302.794 156.604 L 302.044 159.604 L 300.294 153.104 L 293.544 148.354 z "
       style="fill:#ffffff;"
       id="path256" />
    <path
       d="M 174.85 151.979 L 177.85 164.729 L 182.85 164.979 L 186.1 160.479 L 186.1 158.479 L 188.1 155.729 L 181.6 155.979 C 181.683 155.979 181.766 155.979 181.85 155.979 L 174.85 151.979 z "
       style="fill:#ffffff;"
       id="path191" />
    <path
       d="M 179.35 167.229 L 189.85 167.229 L 185.85 177.729 L 179.35 167.229 z "
       style="fill:#ffffff;"
       id="path192" />
    <path
       d="M 189.85 163.979 L 196.1 162.979 L 198.6 156.479 L 191.35 157.479 L 189.85 163.979 z "
       style="fill:#ffffff;"
       id="path193" />
    <path
       d="M 201.35 156.479 L 202.85 163.479 L 209.85 159.479 L 210.1 153.229 L 205.35 153.229 L 201.35 156.479 z "
       style="fill:#ffffff;"
       id="path194" />
    <path
       d="M 190.6 177.479 C 199.6 178.896 201.1 174.062 199.6 167.479 C 194.267 165.979 189.933 170.979 191.1 177.229 C 191.1 177.396 191.1 177.562 190.6 177.479 z "
       style="fill:#ffffff;"
       id="path195" />
    <path
       d="M 204.35 171.979 C 203.1 166.062 208.6 161.146 212.6 163.229 L 214.35 168.229 L 210.6 173.229 L 204.35 171.979 z "
       style="fill:#ffffff;"
       id="path196" />
    <path
       d="M 197.85 191.229 L 199.6 187.229 L 201.85 186.729 L 202.6 178.229 L 197.85 181.479 L 191.1 181.979 L 190.6 184.979 L 197.85 191.229 z "
       style="fill:#ffffff;"
       id="path197" />
    <path
       d="M 204.35 174.979 L 215.85 173.979 L 214.85 182.479 L 211.35 185.229 L 208.35 186.229 L 207.6 190.479 L 209.35 192.979 L 210.1 197.479 L 207.85 200.979 L 202.6 197.229 L 199.85 190.979 L 205.35 189.229 L 206.85 184.479 L 206.6 180.979 L 204.6 177.979 L 204.35 174.979 z "
       style="fill:#ffffff;"
       id="path198" />
    <path
       d="M 210.35 201.729 L 213.1 193.979 L 210.1 187.979 L 212.85 187.229 L 212.6 190.479 L 216.1 193.229 L 219.6 192.979 L 220.35 197.229 L 216.85 201.979 L 212.85 203.729 L 210.35 201.729 z "
       style="fill:#ffffff;"
       id="path199" />
    <path
       d="M 214.1 187.229 L 217.35 182.729 L 217.85 177.479 L 225.85 185.229 L 222.35 188.729 L 217.6 189.729 L 214.1 187.229 z "
       style="fill:#ffffff;"
       id="path200" />
    <path
       d="M 211.35 207.229 L 217.1 205.479 L 220.6 208.229 L 219.6 215.729 L 216.6 211.729 L 211.35 207.229 z "
       style="fill:#ffffff;"
       id="path214" />
    <path
       d="M 222.35 200.479 L 221.85 207.729 L 226.85 208.479 L 232.35 201.729 L 229.85 200.479 L 222.35 200.479 z "
       style="fill:#ffffff;"
       id="path215" />
    <path
       d="M 222.85 193.479 L 228.35 187.979 L 230.6 190.979 L 234.85 193.229 L 234.6 196.479 L 231.35 199.479 L 227.1 197.729 L 222.85 193.479 z "
       style="fill:#ffffff;"
       id="path216" />
    <path
       d="M 237.6 196.229 L 234.35 202.479 L 235.6 205.729 L 239.1 207.479 L 244.1 205.479 L 244.35 203.229 L 240.35 200.479 L 238.35 197.479 L 237.6 196.229 z "
       style="fill:#ffffff;"
       id="path217" />
    <path
       d="M 225.1 218.229 L 232.1 216.229 L 232.6 209.479 L 229.1 209.229 L 225.35 211.979 L 225.1 218.229 z "
       style="fill:#ffffff;"
       id="path218" />
    <path
       d="M 226.35 218.979 L 234.6 219.729 L 234.85 212.979 L 237.6 209.479 L 242.1 209.479 L 241.85 213.979 L 239.6 217.979 C 239.516 217.979 239.433 217.979 239.35 217.979 L 236.35 218.979 L 236.85 225.729 L 233.6 229.729 C 233.516 229.729 233.433 229.729 233.35 229.729 L 230.1 226.479 L 229.85 223.979 L 226.35 222.479 L 226.35 218.979 z "
       style="fill:#ffffff;"
       id="path219" />
    <path
       d="M 240.1 228.479 L 240.85 222.979 L 246.1 219.479 L 244.35 217.229 L 244.35 210.979 L 247.85 207.729 L 251.1 212.479 L 253.85 214.229 L 254.85 217.229 L 250.1 218.979 L 249.1 226.979 L 246.6 228.979 L 243.1 229.729 L 240.1 228.479 z "
       style="fill:#ffffff;"
       id="path220" />
    <path
       d="M 252.1 226.229 L 253.6 221.479 C 253.683 221.479 253.766 221.479 253.85 221.479 L 257.35 218.229 L 261.6 225.979 L 259.35 226.479 L 259.1 228.229 L 252.1 226.229 z "
       style="fill:#ffffff;"
       id="path221" />
    <g
       id="g289">
      <path
         d="M 264.85 265.479 L 253.35 272.479 L 256.6 276.979 L 262.6 277.729 L 264.85 272.729 L 264.85 265.479 z "
         style="fill:#ffffff;"
         id="path222" />
      <path
         d="M 259.6 281.729 L 256.1 285.729 L 251.35 289.229 L 250.35 286.729 L 252.35 281.729 L 253.6 280.229 L 256.85 280.229 L 259.6 281.729 z "
         style="fill:#ffffff;"
         id="path223" />
      <path
         d="M 251.1 280.729 L 251.85 272.479 L 243.1 272.229 L 243.35 274.229 L 241.1 274.229 L 242.6 279.479 L 247.85 283.229 L 251.1 280.729 z "
         style="fill:#ffffff;"
         id="path224" />
      <path
         d="M 233.6 299.979 L 236.6 296.729 L 241.1 294.729 C 237.35 287.479 226.1 296.729 233.6 299.979 z "
         style="fill:#ffffff;"
         id="path225" />
      <path
         d="M 218.35 278.979 L 222.1 274.979 L 226.1 273.729 L 228.1 276.979 L 225.35 281.229 L 221.1 279.979 L 218.35 278.979 z "
         style="fill:#ffffff;"
         id="path226" />
      <path
         d="M 228.1 281.229 L 232.85 281.479 L 236.35 284.229 L 237.85 285.979 L 240.85 282.979 L 244.1 283.479 L 246.6 285.479 L 246.85 289.729 L 245.35 291.979 L 241.6 291.229 L 238.35 288.479 L 234.35 290.479 L 230.35 288.979 L 227.35 284.729 L 228.1 281.229 z "
         style="fill:#ffffff;"
         id="path227" />
      <path
         d="M 224.1 289.229 L 228.35 292.479 L 228.6 297.479 L 226.35 301.979 L 222.1 297.229 L 222.35 293.229 L 224.1 289.229 z "
         style="fill:#ffffff;"
         id="path257" />
      <path
         d="M 214.1 279.479 L 222.85 284.729 L 218.85 291.979 L 217.1 291.979 L 217.35 295.979 L 220.1 298.979 L 218.85 300.979 L 215.35 302.729 L 210.85 302.729 L 210.6 299.729 L 213.35 295.229 L 216.1 294.229 L 215.35 291.229 L 213.35 289.229 L 212.35 285.729 L 214.1 279.479 z "
         style="fill:#ffffff;"
         id="path258" />
      <path
         d="M 209.35 278.979 L 200.1 279.479 C 200.933 284.979 206.767 285.479 210.1 283.229 L 209.35 278.979 z "
         style="fill:#ffffff;"
         id="path259" />
      <path
         d="M 205.6 286.229 L 210.1 290.229 L 210.1 293.979 L 206.85 298.979 L 203.35 294.979 L 202.6 289.729 L 205.6 286.229 z "
         style="fill:#ffffff;"
         id="path260" />
      <path
         d="M 190.85 299.729 L 191.85 294.729 L 198.6 292.979 L 203.6 298.979 L 204.1 301.229 L 190.85 299.729 z "
         style="fill:#ffffff;"
         id="path261" />
      <path
         d="M 191.6 279.229 L 190.6 285.229 L 192.1 290.729 L 201.6 286.729 L 196.35 283.479 L 195.1 278.729 L 191.6 279.229 z "
         style="fill:#ffffff;"
         id="path262" />
      <path
         d="M 182.1 299.229 L 183.1 289.479 L 189.1 288.229 L 189.85 291.479 L 187.85 293.729 L 190.1 295.229 L 187.1 299.479 L 182.1 299.229 z "
         style="fill:#ffffff;"
         id="path263" />
      <path
         d="M 180.6 287.479 L 178.35 283.229 L 178.6 280.229 L 182.85 276.479 L 187.6 276.479 L 187.85 283.229 L 184.35 286.229 L 180.6 287.479 z "
         style="fill:#ffffff;"
         id="path264" />
      <path
         d="M 169.1 297.479 L 170.85 293.229 L 175.35 289.479 L 179.1 290.229 L 179.6 293.229 L 177.1 294.479 L 177.1 296.979 L 178.6 297.729 L 176.35 298.729 L 173.1 296.979 L 169.1 297.479 z "
         style="fill:#ffffff;"
         id="path265" />
      <path
         d="M 164.85 290.729 L 166.1 288.479 L 164.85 285.729 L 166.35 281.479 L 169.85 278.729 L 175.1 277.979 L 174.85 285.479 L 169.6 288.229 L 167.1 291.729 L 164.85 290.729 z "
         style="fill:#ffffff;"
         id="path266" />
      <path
         d="M 169.85 276.229 L 175.35 275.979 L 177.1 276.479 L 178.1 273.979 L 180.35 272.479 L 174.6 270.229 L 170.1 271.979 L 169.85 276.229 z "
         style="fill:#ffffff;"
         id="path267" />
      <path
         d="M 157.6 283.729 L 162.35 283.479 L 166.1 279.979 L 165.6 275.729 L 160.85 275.729 L 159.1 277.479 L 158.85 274.479 L 157.1 275.229 L 157.85 280.229 L 157.6 283.729 z "
         style="fill:#ffffff;"
         id="path268" />
      <path
         d="M 154.6 277.979 L 156.35 273.979 L 158.35 271.479 L 158.6 268.729 L 153.35 268.729 L 149.85 270.979 L 154.6 277.979 z "
         style="fill:#ffffff;"
         id="path269" />
      <path
         d="M 164.1 271.479 L 162.1 266.979 L 163.6 260.729 L 167.6 265.229 L 169.6 268.979 L 168.85 271.729 L 164.1 271.479 z "
         style="fill:#ffffff;"
         id="path270" />
      <path
         d="M 152.1 265.729 L 159.85 265.229 L 161.35 258.729 L 155.6 258.229 L 151.6 261.729 L 152.1 265.729 z "
         style="fill:#ffffff;"
         id="path271" />
      <path
         d="M 146.652 264.312 L 149.902 264.312 L 152.902 256.562 L 154.402 255.812 L 152.402 254.062 L 150.152 252.312 L 146.152 251.812 L 145.152 256.312 L 146.652 264.312 z "
         style="fill:#ffffff;"
         id="path272" />
      <path
         d="M 156.902 254.562 L 164.402 257.562 L 163.902 249.562 L 165.152 247.312 L 159.402 247.312 L 157.152 250.562 L 156.902 254.562 z "
         style="fill:#ffffff;"
         id="path273" />
      <path
         d="M 147.152 250.562 L 146.402 246.812 L 146.902 243.562 L 150.652 238.312 L 152.152 240.562 L 156.902 243.562 L 157.652 246.812 L 154.402 250.062 L 149.902 247.562 L 147.152 250.562 z "
         style="fill:#ffffff;"
         id="path274" />
      <path
         d="M 158.402 238.312 L 163.652 238.562 L 164.652 237.062 L 165.902 237.062 L 169.902 239.562 L 170.652 243.562 L 169.402 246.312 L 166.402 246.312 L 160.902 242.812 L 158.402 238.312 z "
         style="fill:#ffffff;"
         id="path275" />
      <path
         d="M 172.152 238.812 L 171.902 232.312 L 167.652 228.562 L 163.402 227.062 L 161.652 232.812 L 163.902 234.062 L 169.152 236.312 L 172.152 238.812 z "
         style="fill:#ffffff;"
         id="path276" />
      <path
         d="M 171.152 225.562 L 174.402 231.812 L 176.402 236.562 L 181.152 231.312 L 181.152 227.062 L 175.402 225.562 L 171.152 225.562 z "
         style="fill:#ffffff;"
         id="path277" />
      <path
         d="M 183.152 236.812 L 181.902 232.562 L 183.902 228.312 L 187.652 232.812 L 190.652 231.562 L 189.402 235.312 L 184.652 236.062 L 183.152 236.812 z "
         style="fill:#ffffff;"
         id="path278" />
      <path
         d="M 186.152 245.312 L 188.902 244.812 L 192.152 238.812 L 191.652 236.812 L 187.902 237.812 L 184.402 237.062 L 183.402 240.312 L 186.152 241.062 L 186.152 245.312 z "
         style="fill:#ffffff;"
         id="path279" />
      <path
         d="M 191.152 247.312 L 195.902 240.812 L 196.652 237.812 L 197.902 241.062 L 201.902 246.812 L 197.652 249.812 L 194.652 250.062 L 191.152 247.312 z "
         style="fill:#ffffff;"
         id="path280" />
      <path
         d="M 202.402 248.562 L 200.902 251.312 L 202.152 255.812 L 205.402 259.562 L 206.402 254.812 L 203.402 252.312 L 202.402 248.562 z "
         style="fill:#ffffff;"
         id="path281" />
      <path
         d="M 183.152 247.062 L 182.152 249.562 L 182.902 253.562 L 186.402 260.312 L 188.152 255.062 L 189.152 250.562 L 187.402 247.312 L 183.152 247.062 z "
         style="fill:#ffffff;"
         id="path282" />
      <path
         d="M 188.402 257.062 L 191.652 251.562 L 197.152 252.562 L 198.652 254.812 L 195.652 258.562 L 192.652 259.562 L 188.402 257.062 z "
         style="fill:#ffffff;"
         id="path283" />
      <path
         d="M 189.402 259.062 L 185.152 261.812 L 185.652 266.312 L 188.652 268.312 L 190.652 265.812 L 194.152 263.812 L 189.402 259.062 z "
         style="fill:#ffffff;"
         id="path284" />
      <path
         d="M 196.152 265.562 L 196.402 261.312 L 199.402 260.062 L 203.652 260.562 L 206.402 263.312 L 205.402 266.312 L 201.652 267.812 L 196.152 265.562 z "
         style="fill:#ffffff;"
         id="path285" />
      <path
         d="M 182.152 268.812 L 185.902 272.062 L 189.152 271.562 L 188.402 269.562 L 184.402 267.312 L 182.152 268.812 z "
         style="fill:#ffffff;"
         id="path286" />
      <path
         d="M 191.152 270.812 L 194.152 273.562 L 201.652 274.312 L 203.152 271.562 L 197.902 269.062 L 195.902 269.062 L 194.152 268.062 L 191.152 270.812 z "
         style="fill:#ffffff;"
         id="path287" />
      <path
         d="M 162.152 296.312 L 161.152 301.062 L 164.152 303.312 L 166.902 303.812 L 173.652 301.812 L 164.652 296.312 L 162.152 296.312 z "
         style="fill:#ffffff;"
         id="path288" />
    </g>
    <path
       d="M 110.027 306.687 L 113.277 307.937 L 118.027 311.687 L 120.527 311.187 L 121.027 306.937 L 117.027 298.937 L 113.527 301.937 L 114.777 304.937 L 110.777 304.187 L 110.027 306.687 z "
       style="fill:#ffffff;"
       id="path328" />
    <path
       d="M 109.277 286.437 C 112.277 283.854 117.277 285.77 119.777 289.187 L 115.777 297.437 L 114.777 294.687 L 114.027 297.187 L 112.027 296.937 L 110.027 293.687 L 108.777 287.687 L 109.277 286.437 z "
       style="fill:#ffffff;"
       id="path329" />
    <path
       d="M 92.2773 301.437 L 98.7773 294.937 L 101.527 302.187 L 105.277 307.437 L 98.5273 305.687 L 92.2773 301.437 z "
       style="fill:#ffffff;"
       id="path330" />
    <path
       d="M 105.277 290.937 L 104.277 293.687 L 102.277 292.937 L 101.027 295.187 L 104.027 298.687 L 103.027 300.437 L 107.527 304.187 L 110.277 302.937 L 109.027 300.437 L 111.027 299.437 L 109.777 295.437 L 105.277 290.937 z "
       style="fill:#ffffff;"
       id="path331" />
    <path
       d="M 108.777 283.687 L 102.277 283.187 L 93.0273 278.187 L 89.0273 277.187 L 88.7773 272.687 L 86.2773 278.187 L 86.7773 284.937 L 90.2773 283.937 L 89.2773 289.437 L 87.0273 294.937 L 89.7773 298.437 L 94.0273 293.687 L 95.2773 288.687 L 94.7773 284.937 L 91.7773 287.187 L 92.0273 283.437 L 94.0273 280.687 L 96.7773 283.437 L 97.5273 291.187 L 103.027 289.187 L 108.277 285.937 L 108.777 283.687 z "
       style="fill:#ffffff;"
       id="path332" />
    <path
       d="M 75.7773 292.937 L 85.2773 286.937 L 84.7773 294.437 L 85.2773 299.437 L 81.5273 296.437 L 75.7773 292.937 z "
       style="fill:#ffffff;"
       id="path333" />
    <path
       d="M 68.2773 286.437 L 69.7773 289.937 C 76.2773 290.77 79.5273 290.354 81.0273 281.937 C 75.7773 280.187 70.5273 282.187 68.2773 286.437 z "
       style="fill:#ffffff;"
       id="path334" />
    <path
       d="M 73.7773 276.187 L 76.7773 279.187 C 80.7773 279.854 85.0273 278.02 86.5273 272.187 C 79.7773 270.27 76.2773 271.354 73.7773 276.187 z "
       style="fill:#ffffff;"
       id="path335" />
    <path
       d="M 60.0273 278.437 C 64.0273 286.02 67.5273 285.604 70.5273 277.937 L 65.5273 275.187 L 61.7773 276.437 C 63.0273 270.937 63.0273 266.937 58.7773 262.937 L 57.5273 267.937 L 56.2773 270.187 L 59.2773 275.687 L 60.0273 278.437 z "
       style="fill:#ffffff;"
       id="path336" />
    <path
       d="M 63.0273 270.187 C 65.444 264.104 68.8606 260.27 73.2773 264.687 L 75.2773 264.937 L 75.2773 261.937 L 76.7773 259.937 L 84.2773 266.687 L 79.0273 268.437 L 74.2773 266.687 L 73.0273 267.687 C 74.944 273.77 68.6106 273.604 63.0273 270.187 z "
       style="fill:#ffffff;"
       id="path337" />
    <g
       id="g346">
      <path
         d="M 55.7773 226.687 L 59.0273 218.687 L 62.7773 219.937 L 64.0273 223.187 L 66.7773 223.437 L 64.5273 225.437 L 59.5273 228.937 L 55.7773 226.687 z "
         style="fill:#ffffff;"
         id="path338" />
      <path
         d="M 65.0273 221.687 L 68.2773 221.937 L 72.5273 218.187 L 74.2773 217.687 C 72.8606 211.77 67.194 210.854 63.2773 215.687 L 65.0273 217.687 L 64.5273 220.437 L 65.0273 221.687 z "
         style="fill:#ffffff;"
         id="path339" />
      <path
         d="M 74.2773 212.437 L 81.7773 219.687 L 82.5273 215.687 L 84.7773 214.187 L 84.7773 209.937 L 80.2773 208.187 L 74.2773 212.437 z "
         style="fill:#ffffff;"
         id="path340" />
      <path
         d="M 73.0273 209.687 L 67.2773 209.937 L 68.2773 204.937 L 73.5273 200.937 L 73.0273 209.687 z "
         style="fill:#ffffff;"
         id="path341" />
      <path
         d="M 76.5273 198.437 L 76.5273 204.187 L 78.7773 204.687 L 78.7773 206.187 L 84.5273 205.437 L 86.7773 200.437 L 92.0273 194.437 L 92.0273 191.687 L 89.7773 190.437 L 91.7773 187.687 L 93.5273 187.687 L 94.0273 182.687 L 96.2773 181.687 L 90.0273 175.187 L 86.2773 182.937 L 89.0273 187.687 L 88.5273 192.687 L 85.5273 194.437 L 84.7773 200.937 L 82.0273 200.437 L 81.7773 198.187 L 76.5273 198.437 z "
         style="fill:#ffffff;"
         id="path342" />
      <path
         d="M 81.5273 195.687 L 86.0273 190.187 L 85.5273 187.687 L 82.7773 185.687 L 80.0273 189.687 L 79.5273 194.187 L 81.5273 195.687 z "
         style="fill:#ffffff;"
         id="path343" />
      <path
         d="M 89.2773 166.187 L 88.5273 172.187 L 93.0273 175.187 L 95.7773 173.937 L 94.5273 170.937 L 95.0273 168.687 L 92.5273 167.437 L 96.2773 164.687 L 94.5273 163.437 L 95.2773 158.937 L 92.0273 155.187 L 88.2773 155.187 L 87.2773 159.187 L 88.7773 162.437 L 91.7773 164.187 L 89.2773 166.187 z "
         style="fill:#ffffff;"
         id="path344" />
      <path
         d="M 87.0273 145.437 L 86.2773 150.687 L 92.7773 152.187 L 95.2773 151.187 C 95.2773 146.27 91.0273 143.604 87.0273 145.437 z "
         style="fill:#ffffff;"
         id="path345" />
    </g>
    <path
       d="M 46.1523 96.5619 L 49.6523 99.8119 L 49.4023 104.062 L 46.6523 102.312 L 46.1523 96.5619 z "
       id="path363" />
    <ellipse
       cx="47.777340"
       cy="90.436928"
       rx="1.375000"
       ry="1.125000"
       id="ellipse364" />
  </g>
</svg>
