<?xml version="1.0" standalone="no"?>
<!DOCTYPE svg PUBLIC "-//W3C//DTD SVG 20010904//EN"
"http://www.w3.org/TR/2001/REC-SVG-20010904/DTD/svg10.dtd"
[
 <!ATTLIST svg
  xmlns:xlink CDATA #FIXED "http://www.w3.org/1999/xlink">
]>
<!-- Created with Sodipodi ("http://www.sodipodi.com/") -->
<svg
   xmlns="http://www.w3.org/2000/svg"
   xmlns:xlink="http://www.w3.org/1999/xlink"
   width="744.094"
   height="744.094"
   id="svg1">
  <defs
     id="defs3" />
  <g
     transform="translate(-71.8988,-315.12)"
     style="font-size:12;"
     id="g326">
    <path
       d="M 544.906 749.764 C 561.346 721.816 561.346 684.005 558.606 670.853 C 555.866 657.701 454.487 746.476 452.295 759.628 C 450.103 772.78 470.379 800.728 483.531 799.084 C 496.683 797.44 535.042 768.396 544.906 749.764 z "
       style="fill:#ccdefd;fill-rule:evenodd;stroke:#000000;stroke-width:1pt;"
       id="path277" />
    <path
       d="M 400.295 804.799 C 395.049 813.761 387.18 817.04 383.901 820.974 C 380.622 824.909 379.311 823.597 384.994 827.969 C 390.677 832.341 397.672 838.461 400.732 842.833 C 403.792 847.205 402.918 848.516 398.983 848.516 C 395.049 848.516 379.748 840.21 373.19 834.527 C 366.633 828.843 363.135 828.406 355.703 834.089 C 348.272 839.773 317.233 874.309 310.675 901.851 C 304.118 929.392 301.932 928.081 318.544 942.945 C 335.157 957.808 336.468 957.808 339.091 959.994 C 352.643 959.994 409.912 958.683 448.821 958.246 C 487.729 957.808 557.665 977.929 576.9 972.683 C 572.092 896.615 572.539 842.396 558.113 816.166 C 543.686 789.935 532.757 778.569 515.27 779.443 C 497.784 780.318 485.543 786.001 479.422 789.935 C 475.925 785.564 475.051 785.564 472.428 780.755 C 440.951 795.181 425.651 799.99 400.295 804.799 z "
       style="fill:#c2c2cf;fill-rule:evenodd;stroke-width:1pt;"
       id="path129" />
    <path
       d="M 400.295 804.799 C 395.049 813.761 387.18 817.04 383.901 820.974 C 380.622 824.909 379.311 823.597 384.994 827.969 C 390.677 832.341 397.672 838.461 400.732 842.833 C 403.792 847.205 402.918 848.516 398.983 848.516 C 395.049 848.516 379.748 840.21 373.19 834.527 C 366.633 828.843 363.135 828.406 355.703 834.089 C 348.272 839.773 317.233 874.309 310.675 901.851 C 306.158 921.232 308.052 919.047 329.036 918.755 C 351.325 918.449 353.906 927.495 366.779 931.141 C 379.395 934.428 404.375 933.618 445.324 925.895 C 460.042 917.005 486.188 870.463 473.593 828.697 C 470.314 818.791 443.259 829.483 429.003 813.397 C 424.306 808.085 425.651 799.99 400.295 804.799 z "
       style="fill:#ffffff;fill-rule:evenodd;stroke-width:1pt;"
       id="path138" />
    <path
       d="M 400.295 804.799 C 395.049 813.761 387.18 817.04 383.901 820.974 C 380.622 824.909 379.311 823.597 384.994 827.969 C 390.677 832.341 397.672 838.461 400.732 842.833 C 403.792 847.205 402.918 848.516 398.983 848.516 C 395.049 848.516 379.748 840.21 373.19 834.527 C 366.633 828.843 363.135 828.406 355.703 834.089 C 348.272 839.773 317.233 874.309 310.675 901.851 C 304.118 929.392 301.932 928.081 318.544 942.945 C 335.157 957.808 336.468 957.808 339.091 959.994 C 352.643 959.994 409.912 958.683 448.821 958.246 C 487.729 957.808 557.665 977.929 576.9 972.683 C 572.092 896.615 572.539 842.396 558.113 816.166 C 543.686 789.935 532.757 778.569 515.27 779.443 C 497.784 780.318 485.543 786.001 479.422 789.935 C 475.925 785.564 475.051 785.564 472.428 780.755 C 440.951 795.181 425.651 799.99 400.295 804.799 z "
       style="fill:none;fill-rule:evenodd;stroke:#000000;stroke-width:1pt;"
       id="path307" />
    <path
       d="M 507.911 522.697 C 534.141 503.681 541.355 503.681 555.126 502.369 C 568.896 501.058 581.356 497.779 584.634 511.55 C 587.913 525.32 583.979 555.485 595.127 574.502 C 606.274 593.519 606.93 604.667 599.061 623.684 C 591.192 642.7 586.602 645.323 584.634 649.914 C 572.175 648.602 566.274 648.602 557.093 648.602 C 544.634 580.404 540.043 565.977 507.911 522.697 z "
       style="fill:#ff988c;fill-rule:evenodd;stroke-width:1pt;"
       id="path87" />
    <path
       d="M 519.715 539.091 C 530.862 533.19 542.199 528.763 552.503 525.976 C 559.689 523.855 576.11 515.484 579.388 529.255 C 580.044 544.993 580.7 556.141 591.848 575.158 C 602.995 594.175 606.93 604.667 599.061 623.684 C 591.192 642.7 586.602 645.323 584.634 649.914 C 572.175 648.602 566.274 648.602 557.093 648.602 C 544.634 580.404 538.076 568.6 519.715 539.091 z "
       style="fill:#ff5454;fill-rule:evenodd;stroke-width:1pt;"
       id="path95" />
    <path
       d="M 507.911 522.697 C 534.141 503.681 541.355 503.681 555.126 502.369 C 568.896 501.058 581.356 497.779 584.634 511.55 C 587.913 525.32 583.979 555.485 595.127 574.502 C 606.274 593.519 606.93 604.667 599.061 623.684 C 591.192 642.7 586.602 645.323 584.634 649.914 C 572.175 648.602 566.274 648.602 557.093 648.602 C 544.634 580.404 540.043 565.977 507.911 522.697 z "
       style="fill:none;fill-rule:evenodd;stroke:#000000;stroke-width:1pt;"
       id="path324" />
    <path
       d="M 556.656 647.509 C 596.365 648.748 605.641 652.797 614.143 655.524 C 622.801 658.597 636.439 664.34 635.128 668.931 C 633.816 673.521 623.324 674.832 616.766 676.8 C 589.225 666.963 571.009 661.061 559.861 658.438 L 556.656 647.509 z "
       style="fill:#ff988c;fill-rule:evenodd;stroke:#000000;stroke-width:1pt;"
       id="path91" />
    <path
       d="M 557.603 653.848 C 592.358 654.504 603.233 659.098 610.208 661.717 C 616.509 663.988 627.258 668.93 625.947 673.521 C 624.635 675.488 620.045 674.832 616.766 676.8 C 589.225 666.963 570.426 661.061 559.278 658.438 L 557.603 653.848 z "
       style="fill:#ff5454;fill-rule:evenodd;stroke-width:1pt;"
       id="path94" />
    <path
       d="M 557.821 658.292 C 592.212 662.008 610.719 672.719 624.49 681.244 C 638.261 689.768 635.128 694.505 633.816 698.439 C 632.505 702.374 593.159 732.539 585.946 734.506 C 578.733 736.473 573.487 734.506 566.929 731.883 C 560.372 729.26 554.47 723.358 542.01 716.801 C 548.568 694.505 558.404 684.013 560.372 674.177 C 562.339 664.34 559.133 658.948 557.821 658.292 z "
       style="fill:#ff988c;fill-rule:evenodd;stroke-width:1pt;"
       id="path92" />
    <path
       d="M 561.027 666.963 C 595.127 676.799 607.607 686.227 615.673 692.683 C 623.308 698.581 622.669 705.653 621.357 709.587 C 620.046 713.522 593.159 732.539 585.946 734.506 C 578.733 736.473 573.487 734.506 566.929 731.883 C 560.372 729.26 553.304 723.067 540.844 716.51 C 547.402 694.214 556.072 683.43 560.372 674.177 C 560.372 670.898 561.538 669.587 561.027 666.963 z "
       style="fill:#ff5454;fill-rule:evenodd;stroke-width:1pt;"
       id="path93" />
    <path
       d="M 557.821 658.292 C 592.212 662.008 610.719 672.719 624.49 681.244 C 638.261 689.768 635.128 694.505 633.816 698.439 C 632.505 702.374 593.159 732.539 585.946 734.506 C 578.733 736.473 573.487 734.506 566.929 731.883 C 560.372 729.26 554.47 723.358 542.01 716.801 C 548.568 694.505 558.404 684.013 560.372 674.177 C 562.339 664.34 559.133 658.948 557.821 658.292 z "
       style="fill:none;fill-rule:evenodd;stroke:#000000;stroke-width:1pt;"
       id="path325" />
    <path
       d="M 253.479 584.994 C 254.134 537.78 267.905 520.074 288.889 514.173 C 309.874 508.271 313.152 485.319 334.136 473.516 C 355.121 461.712 376.105 462.368 396.433 471.549 C 416.761 480.729 423.319 478.106 448.893 478.762 C 474.468 479.418 482.993 485.975 496.108 504.336 C 509.223 522.697 515.78 535.157 538.076 551.551 C 569.115 572.462 562.995 588.929 559.716 619.749 C 556.437 643.356 557.093 646.635 561.027 661.717 C 564.962 676.8 549.879 694.505 545.289 707.62 C 540.699 720.735 533.486 730.571 523.649 739.096 C 513.813 747.621 505.944 755.49 500.042 767.294 C 498.075 689.915 469.41 572.59 397.745 556.797 C 326.589 540.465 283.643 554.829 253.479 584.994 z "
       style="fill:#ff988c;fill-rule:evenodd;stroke-width:1pt;"
       id="path86" />
    <path
       d="M 480.37 527.943 C 456.762 541.059 450.86 551.55 445.614 573.847 C 463.32 547.616 477.09 536.468 506.599 532.534 C 484.96 552.206 463.976 565.977 463.976 600.077 C 464.631 602.699 469.878 606.634 471.189 609.913 C 478.403 603.356 490.206 594.174 511.19 598.765 C 501.026 604.011 485.021 610.607 488.976 618.52 C 491.758 625.192 501.353 622.045 510.534 621.717 C 521.027 606.306 539.552 591.224 561.437 580.322 C 564.306 591.716 562.449 605.906 560.809 617.709 C 557.53 641.316 557.093 646.635 561.027 661.717 C 564.962 676.8 549.879 694.505 545.289 707.62 C 540.699 720.735 533.486 730.571 523.649 739.096 C 513.813 747.621 505.944 755.49 500.042 767.294 C 498.075 689.915 470.066 601.443 431.188 573.847 C 444.114 537.304 463.975 525.32 480.37 527.943 z "
       style="fill:#ff5454;fill-rule:evenodd;stroke-width:1pt;"
       id="path96" />
    <path
       d="M 253.479 584.994 C 254.134 537.78 267.905 520.074 288.889 514.173 C 309.874 508.271 313.152 485.319 334.136 473.516 C 355.121 461.712 376.105 462.368 396.433 471.549 C 416.761 480.729 423.319 478.106 448.893 478.762 C 474.468 479.418 482.993 485.975 496.108 504.336 C 509.223 522.697 515.78 535.157 538.076 551.551 C 569.115 572.462 562.995 588.929 559.716 619.749 C 556.437 643.356 557.093 646.635 561.027 661.717 C 564.962 676.8 549.879 694.505 545.289 707.62 C 540.699 720.735 533.486 730.571 523.649 739.096 C 513.813 747.621 505.944 755.49 500.042 767.294 C 498.075 689.915 469.41 572.59 397.745 556.797 C 326.589 540.465 283.643 554.829 253.479 584.994 z "
       style="fill:none;fill-rule:evenodd;stroke:#000000;stroke-width:1pt;"
       id="path323" />
    <path
       d="M 302.66 544.337 C 301.349 533.189 300.693 527.943 301.349 522.697 "
       style="fill:none;fill-rule:evenodd;stroke:#450018;stroke-width:1.25;"
       id="path97" />
    <path
       d="M 391.187 520.074 C 397.745 501.713 401.679 497.123 411.515 485.319 "
       style="fill:none;fill-rule:evenodd;stroke:#450018;stroke-width:1.25;"
       id="path98" />
    <path
       d="M 461.353 564.01 C 475.124 545.649 479.714 544.337 489.55 539.747 "
       style="fill:none;fill-rule:evenodd;stroke:#450018;stroke-width:1.25;"
       id="path101" />
    <path
       d="M 506.6 685.98 C 523.649 680.734 530.863 675.488 538.076 667.619 C 545.289 659.75 551.191 654.504 550.535 645.979 C 549.88 637.454 549.88 632.208 552.503 624.995 "
       style="fill:none;fill-rule:evenodd;stroke:#450018;stroke-width:1.25;"
       id="path103" />
    <path
       d="M 503.321 677.455 C 518.403 674.177 526.928 671.554 532.83 668.275 "
       style="fill:none;fill-rule:evenodd;stroke:#450018;stroke-width:1.25;"
       id="path104" />
    <path
       d="M 513.813 716.801 C 527.584 720.079 530.207 716.145 537.42 713.522 "
       style="fill:none;fill-rule:evenodd;stroke:#450018;stroke-width:1.25;"
       id="path105" />
    <path
       d="M 558.404 633.52 C 578.077 625.651 587.913 623.684 591.848 637.454 "
       style="fill:none;fill-rule:evenodd;stroke:#450018;stroke-width:1.25;"
       id="path106" />
    <g
       id="g298">
      <path
         d="M 505.653 780.755 C 520.953 761.082 532.32 752.339 556.801 747.093 C 620.191 689.386 667.842 640.861 690.575 615.505 C 713.308 590.149 737.299 568.499 751.779 557.361 C 778.009 537.688 789.376 553.209 782.381 592.335 C 777.748 617.814 728.172 664.905 705.002 683.703 C 681.832 702.501 638.115 735.726 617.131 747.53 C 670.465 722.174 725.112 696.818 743.91 692.884 C 762.708 688.949 788.938 681.736 788.064 707.748 C 787.325 729.174 757.462 753.213 729.92 764.58 C 702.379 775.946 652.979 790.81 621.065 798.242 C 692.761 797.367 733.418 797.804 754.839 800.427 C 776.26 803.05 795.059 816.166 790.25 828.406 C 785.441 840.647 770.14 852.888 732.543 856.385 C 694.947 859.882 635.929 849.828 613.633 844.144 C 656.913 872.998 687.515 897.479 695.384 907.971 C 703.253 918.463 695.384 928.955 678.772 929.392 C 662.159 929.83 615.382 922.398 596.147 893.544 C 609.262 918.026 627.186 955.185 619.317 961.743 C 611.448 968.3 584.343 963.054 575.162 950.814 C 565.982 938.573 555.927 914.966 556.364 884.364 C 531.446 855.948 495.16 796.056 505.653 780.755 z "
         style="fill:#fffffd;fill-rule:evenodd;stroke-width:1pt;"
         id="path133" />
      <path
         d="M 568.26 842.396 C 577.435 828.554 582.576 819.565 577.225 808.106 C 571.649 796.714 582.017 801.251 586.604 804.811 C 592.073 808.602 600.718 825.506 613.247 829.502 C 627.282 833.431 737.185 837.536 747.388 839.647 C 772.238 844.674 751.341 854.637 732.543 856.385 C 694.947 859.882 635.929 849.828 613.633 844.144 C 656.913 872.998 687.515 897.479 695.384 907.971 C 703.253 918.463 695.384 928.955 678.772 929.392 C 662.159 929.83 615.382 922.398 596.147 893.544 C 609.262 918.026 627.186 955.185 619.317 961.743 C 611.448 968.3 584.343 963.054 575.162 950.814 C 565.982 938.573 555.927 914.966 556.364 884.364 C 558.298 872.388 551.579 867.084 568.26 842.396 z "
         style="fill:#ccdefd;fill-rule:evenodd;stroke-width:1pt;"
         id="path274" />
      <path
         d="M 624.366 797.44 C 669.85 771.136 728.486 735.516 749.858 754.148 C 699.442 778.26 652.314 790.316 624.366 797.44 z "
         style="fill:#ccdefd;fill-rule:evenodd;stroke-width:1pt;"
         id="path275" />
      <path
         d="M 617.242 747.572 C 613.954 748.12 610.666 748.668 605.186 748.12 C 676.426 688.937 747.118 594.681 779.998 599.065 C 767.942 624.821 743.83 648.385 723.554 668.113 C 703.278 687.841 632.586 738.804 617.242 747.572 z "
         style="fill:#ccdefd;fill-rule:evenodd;stroke-width:1pt;"
         id="path276" />
      <path
         d="M 505.653 780.755 C 520.953 761.082 532.32 752.339 556.801 747.093 C 620.191 689.386 667.842 640.861 690.575 615.505 C 713.308 590.149 737.299 568.499 751.779 557.361 C 778.009 537.688 789.376 553.209 782.381 592.335 C 777.748 617.814 728.172 664.905 705.002 683.703 C 681.832 702.501 638.115 735.726 617.131 747.53 C 670.465 722.174 725.112 696.818 743.91 692.884 C 762.708 688.949 788.938 681.736 788.064 707.748 C 787.325 729.174 757.462 753.213 729.92 764.58 C 702.379 775.946 652.979 790.81 621.065 798.242 C 692.761 797.367 733.418 797.804 754.839 800.427 C 776.26 803.05 795.059 816.166 790.25 828.406 C 785.441 840.647 770.14 852.888 732.543 856.385 C 694.947 859.882 635.929 849.828 613.633 844.144 C 656.913 872.998 687.515 897.479 695.384 907.971 C 703.253 918.463 695.384 928.955 678.772 929.392 C 662.159 929.83 615.382 922.398 596.147 893.544 C 609.262 918.026 627.186 955.185 619.317 961.743 C 611.448 968.3 584.343 963.054 575.162 950.814 C 565.982 938.573 555.927 914.966 556.364 884.364 C 531.446 855.948 495.16 796.056 505.653 780.755 z "
         style="fill:none;fill-rule:evenodd;stroke:#000000;stroke-width:1pt;"
         id="path282" />
      <path
         d="M 576.69 861.556 C 592.582 829.772 589.842 794.152 559.154 800.18 "
         style="fill:none;fill-rule:evenodd;stroke:#000000;stroke-width:1pt;"
         id="path273" />
    </g>
    <path
       d="M 591.623 1045.64 L 591.623 1045.64 C 583.369 1007.84 579.024 998.717 576.852 967.438 C 574.68 936.159 573.377 899.667 572.074 880.553 C 504.303 882.29 405.253 914.872 369.63 963.963 C 370.933 994.807 371.802 1027.39 371.802 1045.2 C 444.786 1046.5 546.442 1046.5 591.623 1045.64 z "
       style="fill:#ff988c;fill-rule:evenodd;stroke:#000000;stroke-width:1pt;"
       id="path268" />
    <path
       d="M 462.598 1046.29 C 475.848 1033.91 475.554 1022.16 488.88 1023.48 C 516.493 1024.87 524.83 1012.91 525.156 995.894 C 526.609 970.611 481.495 965.592 458.796 904.5 C 421.11 918.999 387.442 939.418 369.63 963.963 C 370.933 994.807 371.802 1027.39 371.802 1045.2 L 462.598 1046.29 z "
       style="fill:#ff5454;fill-rule:evenodd;stroke-width:1pt;"
       id="path269" />
    <path
       d="M 451.638 958.61 C 461.6 931.434 472.727 909.696 458.796 904.5 C 421.11 918.999 387.442 939.418 369.63 963.963 C 370.281 979.385 370.277 977.706 370.657 991.934 C 400.629 1014.38 400.298 985.884 423.314 1004.1 C 427.641 983.64 421.007 953.863 451.638 958.61 z "
       style="fill:#9f0000;fill-rule:evenodd;stroke-width:1pt;"
       id="path270" />
    <path
       d="M 332.893 951.765 C 316.718 952.203 314.969 950.891 310.16 951.765 C 305.352 952.64 306.226 954.388 305.789 957.449 C 305.352 960.509 303.603 973.624 312.346 986.739 C 321.09 999.854 320.215 995.92 323.276 997.231 C 326.336 998.543 325.899 997.231 327.21 994.608 C 328.522 991.985 334.642 960.072 335.516 956.574 C 336.391 953.077 335.953 951.765 332.893 951.765 z "
       style="fill:#c2c2cf;fill-rule:evenodd;stroke-width:1pt;"
       id="path118" />
    <path
       d="M 332.893 951.765 C 316.718 952.203 314.969 950.891 310.16 951.765 C 305.352 952.64 306.226 954.388 305.789 957.449 C 305.352 960.509 305.566 971.847 311.472 979.744 C 315.447 984.769 317.009 985.136 320.07 983.824 C 323.13 982.221 325.899 977.121 327.21 974.498 C 328.522 971.875 324.15 956.283 335.516 956.574 C 336.391 953.077 335.953 951.765 332.893 951.765 z "
       style="fill:#ffffff;fill-rule:evenodd;stroke-width:1pt;"
       id="path137" />
    <path
       d="M 332.893 951.765 C 316.718 952.203 314.969 950.891 310.16 951.765 C 305.352 952.64 306.226 954.388 305.789 957.449 C 305.352 960.509 303.603 973.624 312.346 986.739 C 321.09 999.854 320.215 995.92 323.276 997.231 C 326.336 998.543 325.899 997.231 327.21 994.608 C 328.522 991.985 334.642 960.072 335.516 956.574 C 336.391 953.077 335.953 951.765 332.893 951.765 z "
       style="fill:none;fill-rule:evenodd;stroke:#000000;stroke-width:1pt;"
       id="path306" />
    <path
       d="M 320.215 1021.71 C 320.653 1035.26 320.653 1038.76 320.653 1046.19 C 344.697 1045.76 366.118 1045.76 379.233 1045.76 C 379.67 1030.46 377.922 1030.02 378.359 1017.78 C 351.692 1020.4 336.828 1021.28 320.215 1021.71 z "
       style="fill:#ffaa85;fill-rule:evenodd;stroke:#000000;stroke-width:1pt;"
       id="path121" />
    <path
       d="M 419.89 939.719 C 420.085 975.858 422.804 1018.02 423.193 1028.32 C 430.965 1010.64 434.851 1003.84 437.377 995.094 C 429.605 976.636 427.662 964.395 424.165 936.805 C 422.222 937.776 420.862 938.748 419.89 939.719 z "
       style="fill:#ffffff;fill-rule:evenodd;stroke:#000000;stroke-width:1pt;"
       id="path148" />
    <path
       d="M 359.561 926.847 C 339.888 936.464 329.833 946.082 329.833 959.634 C 329.833 973.187 331.582 970.564 332.456 972.75 C 321.964 990.673 315.406 1005.54 313.658 1025.21 C 317.817 1027.49 316.794 1028.18 319.531 1025.94 C 322.323 1023.8 327.181 1023.1 329.692 1025.18 C 332.565 1027.37 336.48 1027.6 338.912 1025.69 C 341.352 1023.91 346.638 1022.8 348.759 1024.6 C 351.532 1026.75 354.699 1026.26 357.5 1024.45 C 360.811 1022.44 364.962 1021.82 366.511 1023.54 C 368.816 1026.28 373.339 1023.8 375.224 1021.91 C 376.772 1020.51 378.881 1023.57 380.739 1023.46 C 382.05 1005.1 381.419 998.543 385.791 992.859 C 390.162 987.176 389.725 987.613 385.791 982.804 C 381.856 977.996 379.233 974.935 378.796 971.001 C 378.359 967.066 372.676 937.776 359.561 926.847 z "
       style="fill:#ffffff;fill-rule:evenodd;stroke:#000000;stroke-width:1pt;"
       id="path120" />
    <path
       d="M 390.6 845.533 C 383.605 863.894 381.856 882.256 381.856 892.31 C 386.665 894.933 387.539 895.371 394.534 897.994 C 395.408 877.884 398.469 856.9 400.217 848.156 C 396.72 845.533 394.971 844.659 390.6 845.533 z "
       style="fill:#ff988c;fill-rule:evenodd;stroke:#000000;stroke-width:1pt;"
       id="path112" />
    <path
       d="M 407.212 904.114 C 393.223 894.933 382.731 890.999 371.801 890.999 C 360.872 890.999 356.938 888.376 355.626 895.808 C 354.315 903.24 357.812 929.907 359.123 936.902 C 360.435 943.896 359.561 955.7 359.561 959.197 C 359.561 962.695 359.561 964.881 362.621 967.066 C 365.681 969.252 368.304 976.247 380.545 975.81 C 392.785 975.373 394.971 975.373 399.78 965.755 C 404.589 956.137 403.715 954.388 408.086 953.951 C 412.458 953.514 416.393 950.017 416.393 947.394 C 416.393 944.771 418.141 942.148 421.639 939.962 C 425.136 937.776 428.633 934.279 437.814 935.153 C 446.994 936.027 464.044 932.093 469.29 931.218 C 474.536 930.344 479.345 929.47 475.41 920.289 C 471.476 911.109 451.366 871.763 448.306 866.517 C 445.246 861.271 443.934 860.397 437.377 864.769 C 430.819 869.14 417.704 884.879 419.016 898.868 C 415.081 901.054 411.584 901.928 407.212 904.114 z "
       style="fill:#9f0000;fill-rule:evenodd;stroke:#000000;stroke-width:1pt;"
       id="path113" />
    <path
       d="M 507.296 972.217 C 515.695 970.118 515.099 974.598 517.799 976.689 C 524.414 982.519 524.71 974.152 529.609 977.484 C 535.946 981.42 535.171 974.462 540.891 976.851 C 540.891 971.058 540.602 968.451 540.312 964.976 C 550.448 966.28 546.282 960.878 551.317 961.791 C 556.031 962.592 554.504 957.734 559.101 957.917 C 563.655 958.111 561.889 954.84 562.902 951.943 C 554.793 942.096 550.159 934.277 545.815 929.064 C 531.913 929.353 519.749 931.091 510.771 930.222 C 509.323 944.413 508.165 963.239 507.296 972.217 z "
       style="fill:#c2c2cf;fill-rule:evenodd;stroke:#000000;stroke-width:1pt;"
       id="path265" />
    <path
       d="M 461.178 926.41 C 447.48 966.046 437.571 997.814 414.547 1047.07 C 439.611 1046.19 468.173 1046.78 484.785 1046.19 C 498.192 1003.64 498.775 996.065 505.187 981.493 C 511.598 966.921 517.427 954.388 519.176 945.936 C 497.318 937.776 475.459 929.907 461.178 926.41 z "
       style="fill:#ffaa85;fill-rule:evenodd;stroke:#000000;stroke-width:1pt;"
       id="path141" />
    <path
       d="M 407.212 907.611 C 393.223 898.43 385.354 897.994 374.424 897.994 C 363.495 897.994 360.144 898.285 358.832 905.717 C 357.521 913.149 359.269 929.616 360.58 936.611 C 361.892 943.605 360.872 950.891 360.872 954.388 C 360.872 957.886 361.798 960.239 365.535 960.654 C 369.47 961.383 376.229 961.924 382.585 957.157 C 385.555 954.93 390.207 950.6 396.574 950.891 C 407.048 951.661 411.584 946.519 410.418 941.419 C 409.675 937.088 409.101 933.516 398.906 933.987 C 390.153 934.405 388.668 930.591 400.655 930.344 C 408.243 930.184 410.619 935.051 415.955 934.279 C 423.72 933.112 427.096 925.983 427.905 920.726 C 428.779 913.148 425.129 908.681 430.819 900.471 C 437.724 890.86 441.986 885.319 441.355 880.471 C 440.957 877.26 437.277 868.191 430.674 875.261 C 426.959 879.422 426.156 888.668 421.639 900.617 C 417.704 902.803 411.584 905.425 407.212 907.611 z "
       style="fill:#ff5454;fill-rule:evenodd;stroke-width:1pt;"
       id="path135" />
    <path
       d="M 511.117 775.727 C 496.035 775.072 460.624 794.744 452.099 808.515 C 443.575 822.286 443.575 822.942 443.575 822.942 C 443.575 822.942 435.705 844.582 437.673 853.106 C 439.64 861.631 440.296 872.779 444.23 883.271 C 429.148 899.665 421.484 910.386 414.926 918.255 C 416.082 923.591 417.959 927.062 421.697 926.619 C 427.648 925.965 424.019 933.694 427.959 932.871 C 433.41 932.166 429.743 939.209 433.903 939.188 C 440.074 938.724 437.795 945.125 441.887 944.272 C 448.264 943.034 447.317 947.552 453.083 946.393 C 461.034 944.883 507.437 953.502 513.83 954.116 C 520.224 954.731 519.531 957.48 524.805 955.52 C 530.855 952.838 533.724 958.975 536.134 956.494 C 540.88 951.175 542.604 957.952 546.488 954.777 C 550.63 951.035 552.871 956.383 556.815 952.576 C 559.659 949.395 562.785 955.747 565.469 951.765 C 567.192 948.565 570.463 951.797 573.414 951.469 C 573.414 939.666 558.331 916.714 555.053 902.288 C 565.545 889.829 574.07 884.583 575.381 879.336 C 576.693 874.09 576.037 849.828 565.545 821.63 C 555.053 793.433 540.626 775.727 511.117 775.727 z "
       style="fill:#c2c2cf;fill-rule:evenodd;stroke:#000000;stroke-width:1pt;"
       id="path124" />
    <path
       d="M 512.091 776.458 C 497.009 775.803 461.111 795.231 452.586 809.002 C 443.088 822.773 436.436 844.582 438.404 853.106 C 440.371 861.631 440.155 861.058 444.23 856.749 C 456.315 844.836 477.294 824.052 504.56 821.193 C 529.971 818.236 538.544 819.253 553.742 826.22 C 559.303 828.576 565.625 856.794 567.536 864.157 C 569.27 856.069 569.389 851.369 571.186 843.015 C 569.681 836.021 566.922 827.716 564.327 820.656 C 554.323 793.189 538.921 775.971 512.091 776.458 z "
       style="fill:#ffffff;fill-rule:evenodd;stroke-width:1pt;"
       id="path143" />
    <path
       d="M 431.552 936.606 C 446.707 908.336 455.738 896.099 463.898 887.064 L 464.36 887.069 C 470.442 884.028 484.778 880.118 500.852 881.856 C 504.761 889.676 518.663 930.946 522.138 948.323 C 517.903 949.59 515.186 944.907 512.185 948.093 C 508.923 951.925 506.233 944.449 501.666 948.215 C 497.113 951.68 496.258 944.476 490.884 947.197 C 484.16 950.311 486.366 940.951 481.591 941.517 C 473.496 942.539 478.296 935.219 472.005 935.99 C 466.204 936.666 469.898 929.354 463.925 931.381 C 460.65 932.549 460.124 926.675 454.402 933.481 C 452.478 935.672 449.837 929.065 445.017 934.278 C 443.088 936.25 440.986 941.159 437.717 937.83 C 436.081 936.02 433.491 942.975 431.552 936.606 z "
       style="fill:#ffffff;fill-rule:evenodd;stroke-width:1pt;"
       id="path136" />
    <path
       d="M 475.655 883.014 C 482.316 882.58 484.778 880.118 500.852 881.856 C 504.761 889.676 518.663 930.946 522.138 948.323 C 517.903 949.59 515.186 944.907 512.185 948.093 C 508.923 951.925 506.233 944.449 501.666 948.215 C 497.113 951.68 496.258 944.476 490.884 947.197 C 484.16 950.311 486.366 940.951 481.591 941.517 C 473.496 942.539 478.296 935.219 472.005 935.99 C 466.204 936.666 471.346 931.381 463.925 931.381 C 469.339 929.363 479.528 931.599 477.282 922.475 C 476.563 919.65 478.09 899.777 476.875 891.414 L 475.655 883.014 z "
       style="fill:#c2c2cf;fill-rule:evenodd;stroke-width:1pt;"
       id="path260" />
    <path
       d="M 518.33 892.452 C 532.101 911.468 537.347 922.616 539.97 926.551 C 542.593 930.485 543.905 930.485 547.839 929.174 C 551.774 927.862 558.987 923.272 561.61 921.305 C 564.233 919.337 566.2 916.714 564.233 913.436 C 562.266 910.157 540.626 892.452 530.134 887.861 C 525.544 890.484 522.921 892.452 518.33 892.452 z "
       style="fill:#c2c2cf;fill-rule:evenodd;stroke:#000000;stroke-width:1pt;"
       id="path128" />
    <path
       d="M 431.552 936.606 C 446.707 908.336 455.738 896.099 463.898 887.064 L 464.36 887.069 C 470.442 884.028 484.778 880.118 500.852 881.856 C 504.761 889.676 518.663 930.946 522.138 948.323 C 517.903 949.59 515.186 944.907 512.185 948.093 C 508.923 951.925 506.233 944.449 501.666 948.215 C 497.113 951.68 496.258 944.476 490.884 947.197 C 484.16 950.311 486.366 940.951 481.591 941.517 C 473.496 942.539 478.296 935.219 472.005 935.99 C 466.204 936.666 469.898 929.354 463.925 931.381 C 460.65 932.549 460.124 926.675 454.402 933.481 C 452.478 935.672 449.837 929.065 445.017 934.278 C 443.088 936.25 440.986 941.159 437.717 937.83 C 436.081 936.02 433.491 942.975 431.552 936.606 z "
       style="fill:none;fill-rule:evenodd;stroke:#000000;stroke-width:1pt;"
       id="path305" />
    <path
       d="M 486.199 897.042 C 486.199 913.436 488.166 923.272 490.133 928.518 C 492.1 933.764 493.412 936.387 499.969 935.731 C 506.527 935.076 513.74 933.764 518.986 932.453 C 524.232 931.141 523.576 925.895 521.609 921.96 C 519.642 918.026 507.183 892.452 504.56 888.517 C 495.379 893.107 492.756 894.419 486.199 897.042 z "
       style="fill:#c2c2cf;fill-rule:evenodd;stroke:#000000;stroke-width:1pt;"
       id="path127" />
    <path
       d="M 519.642 870.156 C 533.413 862.287 540.626 859.664 544.561 859.008 C 548.495 858.352 553.741 857.041 555.708 864.254 C 557.676 871.467 561.61 892.452 559.643 899.009 C 557.676 905.567 555.708 909.501 545.872 906.222 C 536.036 902.944 526.199 895.075 518.33 891.796 C 510.461 888.517 515.052 888.517 503.248 890.484 C 491.445 892.452 486.199 899.009 478.329 896.386 C 470.46 893.763 465.87 896.386 462.591 880.648 C 459.313 864.91 458.657 853.106 459.968 849.828 C 461.28 846.549 466.526 840.647 474.395 842.614 C 482.264 844.582 495.379 855.729 503.248 863.598 C 511.117 871.467 519.642 870.812 519.642 870.156 z "
       style="fill:#ffffff;fill-rule:evenodd;stroke:#000000;stroke-width:1pt;"
       id="path125" />
    <g
       id="g104">
      <path
         d="M 262.818 663.688 C 270.75 688.924 277.641 695.63 281.383 711.133 C 286.196 731.763 281.441 745.474 289.634 756.516 C 297.51 767.791 308.2 774.394 319.202 781.27 C 330.204 788.146 344.644 800.523 353.583 801.211 C 362.522 801.899 381.775 798.461 394.152 794.335 C 396.903 799.836 397.59 801.899 398.965 803.962 C 418.906 801.211 438.847 797.085 456.037 788.146 C 453.287 777.145 452.599 770.268 453.975 765.455 C 455.35 760.642 470.053 739.441 475.978 711.133 C 481.479 681.567 488.049 641.407 453.287 594.24 C 425.615 556.144 381.087 552.983 341.206 561.234 C 301.324 569.485 273.435 592.807 266.256 618.994 C 261.55 637.976 258.981 650.791 262.818 663.688 z "
         style="fill:#ffbc99;fill-rule:evenodd;stroke:#000000;stroke-width:1pt;"
         id="path6" />
      <path
         d="M 262.818 663.688 C 270.75 688.924 277.641 695.63 281.383 711.133 C 286.196 731.763 281.441 745.474 289.634 756.516 C 297.51 767.791 308.2 774.394 319.202 781.27 C 330.204 788.146 344.644 799.211 353.583 799.899 C 362.522 800.587 389.893 790.686 407.704 773.351 C 415.384 765.688 444.014 734.573 440.13 690.586 C 431.916 598.939 395.951 549.048 341.206 561.234 C 301.386 569.779 273.435 592.807 266.256 618.994 C 261.55 637.976 258.981 650.791 262.818 663.688 z "
         style="fill:#ffd4b5;fill-rule:evenodd;stroke-width:1pt;"
         id="path102" />
    </g>
    <path
       d="M 363.758 644.948 C 363.466 645.822 363.758 645.531 365.215 646.988 C 370.267 642.325 384.062 653.692 389.988 661.561 C 390.863 660.978 390.863 660.395 390.863 658.938 C 382.897 648.445 371.724 637.079 363.758 644.948 z "
       transform="matrix(-1,-0,0,1,670.101,20.4013)"
       style="fill:#7d5438;fill-rule:evenodd;stroke-width:1pt;"
       id="path123" />
    <path
       d="M 364.632 645.531 C 364.632 646.988 364.632 647.28 366.089 648.737 C 376.096 637.079 385.811 627.753 422.339 646.406 C 422.339 644.948 421.173 644.948 421.173 643.491 C 391.057 626.004 378.427 627.461 364.632 645.531 z "
       style="fill:#7d5438;fill-rule:evenodd;stroke-width:1pt;"
       id="path122" />
    <path
       d="M 455.994 788.188 C 453.372 776.031 452.595 773.506 453.178 767.677 C 453.76 761.848 468.041 743.487 474.162 718.714 C 480.282 693.941 480.574 674.123 480.282 661.591 C 499.226 705.016 499.906 715.52 500.878 736.893 C 501.849 758.266 503.015 765.26 504.764 773.615 C 496.02 767.009 494.077 765.26 492.328 762.54 C 491.357 770.895 490.386 774.004 490.191 780.027 C 486.888 769.341 485.14 768.563 483.974 766.426 C 482.419 773.032 480.282 777.695 478.728 780.998 C 478.339 773.227 477.951 771.478 477.562 768.369 C 473.482 774.392 472.704 776.53 472.316 780.998 C 466.293 783.913 463.379 787.993 455.994 788.188 z "
       style="fill:#7a4d2a;fill-rule:evenodd;stroke:#000000;stroke-width:1pt;"
       id="path204" />
    <g
       id="g235">
      <path
         d="M 384.169 697.566 C 394.791 693.55 409.428 689.794 415.775 688.757 C 414.48 690.182 411.63 692.514 409.299 693.551 C 399.066 695.494 392.33 696.659 386.76 698.861 C 385.335 698.214 384.946 697.954 384.169 697.566 z "
         style="fill-opacity:0.519685;fill-rule:evenodd;stroke-width:1pt;"
         id="path132" />
      <path
         d="M 276.561 695.076 C 269.275 733.839 258.2 757.737 253.828 773.475 C 249.457 789.214 242.462 803.494 250.331 837.302 C 250.331 810.198 253.245 790.088 262.863 768.812 C 260.532 798.831 261.697 821.564 269.858 839.342 C 270.441 814.569 275.979 790.088 280.642 779.887 C 281.807 812.092 288.51 856.538 338.931 875.482 C 326.107 862.658 303.374 851.583 298.128 823.021 C 292.882 794.46 295.505 788.339 299.003 785.425 C 303.374 802.62 306.872 811.655 311.826 821.856 C 315.032 801.454 314.449 786.882 315.032 779.304 C 321.152 782.219 320.57 783.385 323.484 784.842 C 328.439 804.369 331.644 810.781 333.976 826.81 C 340.388 816.901 342.428 816.318 343.011 812.821 C 343.594 809.323 344.177 807.283 343.885 804.66 C 352.92 818.067 355.543 820.398 357 825.061 C 361.372 816.027 361.955 814.569 363.121 811.072 C 368.95 820.107 368.95 819.815 371.864 823.313 C 385.854 818.358 395.18 816.318 399.843 803.786 C 396.637 798.54 397.22 797.957 394.888 794.46 C 375.653 799.414 360.206 803.203 352.337 801.163 C 344.468 799.123 330.187 788.048 319.987 781.636 C 309.786 775.224 292.882 764.732 287.636 753.366 C 282.39 741.999 284.139 733.839 282.973 722.472 C 281.807 711.106 280.35 703.82 276.561 695.076 z "
         style="fill:#7a4d2a;fill-rule:evenodd;stroke:#000000;stroke-width:1pt;"
         id="path177" />
      <path
         d="M 344.031 803.743 C 344.031 803.743 343.594 801.12 343.594 801.12 C 343.594 801.12 343.594 800.683 343.594 798.497 "
         style="fill:none;fill-rule:evenodd;stroke:#000000;stroke-width:1pt;"
         id="path228" />
      <path
         d="M 363.704 810.738 C 361.518 805.055 361.081 803.743 360.643 801.558 "
         style="fill:none;fill-rule:evenodd;stroke:#000000;stroke-width:1pt;"
         id="path229" />
      <path
         d="M 299.003 786.257 C 298.128 775.765 299.44 771.393 299.877 768.333 "
         style="fill:none;fill-rule:evenodd;stroke:#000000;stroke-width:1pt;"
         id="path230" />
      <path
         d="M 280.642 781.011 C 281.952 771.83 284.576 761.775 287.636 752.595 "
         style="fill:none;fill-rule:evenodd;stroke:#000000;stroke-width:1pt;"
         id="path231" />
      <path
         d="M 262.717 769.644 C 270.587 743.414 278.018 730.299 280.204 706.692 "
         style="fill:none;fill-rule:evenodd;stroke:#000000;stroke-width:1pt;"
         id="path232" />
      <path
         d="M 287.199 807.241 C 285.45 781.448 288.948 767.895 289.822 757.403 "
         style="fill:none;fill-rule:evenodd;stroke:#000000;stroke-width:1pt;"
         id="path233" />
    </g>
    <g
       id="g85">
      <g
         id="g190">
        <path
           d="M 383.133 699.315 C 377.175 693.875 374.584 687.657 373.418 682.993 C 372.512 669.652 372.739 664.147 373.904 659.354 C 375.07 654.562 377.045 648.441 381.709 647.146 C 384.623 646.433 385.336 644.815 390.647 647.405 C 395.957 649.996 398.354 655.565 403.405 668.389 C 404.28 677.359 403.956 686.07 401.203 690.507 C 395.05 692.838 390.257 696.336 383.133 699.315 z "
           transform="translate(-83.0622,26.8496)"
           style="fill:#ffffff;fill-rule:evenodd;stroke:#000000;stroke-width:0.625;stroke-opacity:0.299213;"
           id="path178" />
        <path
           d="M 384.169 697.566 C 394.791 693.55 409.428 689.794 415.775 688.757 C 414.48 690.182 411.63 692.514 409.299 693.551 C 399.066 695.494 392.33 696.659 386.76 698.861 C 385.335 698.214 384.946 697.954 384.169 697.566 z "
           transform="matrix(0.672571,-0.0597724,0.0880804,0.990045,-20.3784,58.7667)"
           style="fill-opacity:0.519685;fill-rule:evenodd;stroke-width:1pt;"
           id="path179" />
        <g
           transform="matrix(0.672571,-0.0597724,0.0880804,0.990045,-20.3784,58.7667)"
           id="g180">
          <path
             d="M 415.468 672.627 C 415.454 681.357 413.464 688.567 410.103 694.293 C 402.855 695.932 394.164 696.995 384.838 698.971 C 378.879 691.01 377.617 683.049 378.337 672.627 C 379.808 651.427 386.654 640.997 396.903 640.997 C 407.151 640.997 415.514 653.479 415.468 672.627 z "
             transform="matrix(0.971686,-0.0986621,0.104411,0.91819,-59.5512,92.8986)"
             style="fill-rule:evenodd;stroke-width:1.24575;"
             id="path181" />
          <path
             d="M 415.468 672.627 C 415.468 681.357 414.149 687.959 409.608 696.024 C 401.77 697.26 394.714 697.984 385.704 700.13 C 377.593 689.578 378.129 680.41 378.337 672.627 C 378.831 655.174 386.654 640.997 396.903 640.997 C 407.151 640.997 415.468 655.167 415.468 672.627 z "
             transform="matrix(0.847883,-0.0902956,0.0911083,0.840328,-1.46374,141.953)"
             style="fill:#3c704c;fill-rule:evenodd;stroke-width:0.15478;"
             id="path182" />
          <path
             d="M 384.607 685.148 C 393.409 679.28 403.607 679.001 411.012 681.236 C 413.947 664.052 406.121 643.782 394.247 644.353 C 382.238 644.937 377.901 668.523 384.607 685.148 z "
             transform="matrix(1.11057,0,0,1.06287,-44.3721,-40.8036)"
             style="fill-opacity:0.5;fill-rule:evenodd;stroke-width:0.125;"
             id="path183" />
          <path
             d="M 384.607 685.148 C 393.409 679.28 403.607 679.001 411.012 681.236 C 413.947 664.052 406.121 643.782 394.247 644.353 C 382.238 644.937 377.901 668.523 384.607 685.148 z "
             transform="matrix(1.11057,0,0,1.01094,-44.372,-7.34127)"
             style="fill-opacity:0.5;fill-rule:evenodd;stroke-width:0.125;"
             id="path184" />
          <ellipse
             cx="396.902588"
             cy="672.627319"
             rx="18.565598"
             ry="31.630249"
             transform="matrix(0.509364,-0.0395237,0.0547329,0.367824,157.738,440.664)"
             style="fill-opacity:0.5;fill-rule:evenodd;stroke-width:1.24899;"
             id="path185" />
          <ellipse
             cx="396.902588"
             cy="672.627319"
             rx="18.565598"
             ry="31.630249"
             transform="matrix(0.460011,-0.0366449,0.0494296,0.341032,180.894,457.543)"
             style="fill-rule:evenodd;stroke-width:1.24899;"
             id="path186" />
          <path
             d="M 387.541 672.853 C 391.592 672.714 393.409 669.919 396.063 666.706 C 398.718 663.493 400.813 660 400.813 656.088 C 400.813 652.176 397.879 649.522 392.151 649.801 C 386.423 650.081 381.952 656.507 382.232 662.515 C 382.511 668.522 382.791 670.897 387.541 672.853 z "
             transform="matrix(1.09309,0,0,1.01094,-37.1787,-7.34127)"
             style="fill:#ffffff;fill-opacity:0.5;fill-rule:evenodd;stroke-width:0.125;"
             id="path187" />
          <path
             d="M 387.541 672.853 C 391.592 672.714 393.409 669.919 396.063 666.706 C 398.718 663.493 400.813 660 400.813 656.088 C 400.813 652.176 397.879 649.522 392.151 649.801 C 386.423 650.081 381.952 656.507 382.232 662.515 C 382.511 668.522 382.791 670.897 387.541 672.853 z "
             transform="matrix(0.912277,0,0,0.876151,33.6132,81.7989)"
             style="fill:#ffffff;fill-rule:evenodd;stroke-width:0.132279;"
             id="path188" />
        </g>
      </g>
      <path
         d="M 367.381 656.016 C 372.557 638.655 382.499 631.039 396.474 630.041 C 397.114 631.531 396.94 631.766 397.028 633.467 C 380.071 631.857 374.229 651.047 373.601 661.403 C 370.443 659.543 367.765 658.061 367.381 656.016 z "
         transform="translate(-86.2681,38.5075)"
         style="fill-rule:evenodd;stroke-width:1pt;"
         id="path189" />
    </g>
    <g
       id="g73">
      <path
         d="M 384.299 697.566 C 378.341 692.126 375.75 688.24 374.584 683.576 C 373.678 670.235 374.196 662.981 375.361 658.188 C 376.527 653.396 381.708 648.732 386.372 647.437 C 391.035 646.142 399.325 645.106 404.636 647.696 C 409.946 650.287 418.755 653.525 423.806 666.349 C 421.475 677.359 420.568 681.115 415.775 688.758 C 399.713 692.255 391.423 694.587 384.299 697.566 z "
         style="fill:#ffffff;fill-rule:evenodd;stroke:#000000;stroke-width:0.625;stroke-opacity:0.299213;"
         id="path142" />
      <g
         id="g133">
        <path
           d="M 415.468 672.627 C 415.454 681.357 413.464 688.567 410.103 694.293 C 402.855 695.932 394.164 696.995 384.838 698.971 C 378.879 691.01 377.617 683.049 378.337 672.627 C 379.808 651.427 386.654 640.997 396.903 640.997 C 407.151 640.997 415.514 653.479 415.468 672.627 z "
           transform="matrix(0.971686,-0.0986621,0.104411,0.91819,-59.5512,92.8986)"
           style="fill-rule:evenodd;stroke-width:1.24575;"
           id="path130" />
        <path
           d="M 415.468 672.627 C 415.468 681.357 414.149 687.959 409.608 696.024 C 401.77 697.26 394.714 697.984 385.704 700.13 C 377.593 689.578 378.129 680.41 378.337 672.627 C 378.831 655.174 386.654 640.997 396.903 640.997 C 407.151 640.997 415.468 655.167 415.468 672.627 z "
           transform="matrix(0.847883,-0.0902956,0.0911083,0.840328,-1.46374,141.953)"
           style="fill:#3c704c;fill-rule:evenodd;stroke-width:0.15478;"
           id="path131" />
        <path
           d="M 384.607 685.148 C 393.409 679.28 403.607 679.001 411.012 681.236 C 413.947 664.052 406.121 643.782 394.247 644.353 C 382.238 644.937 377.901 668.523 384.607 685.148 z "
           transform="matrix(1.11057,0,0,1.06287,-44.3721,-40.8036)"
           style="fill-opacity:0.5;fill-rule:evenodd;stroke-width:0.125;"
           id="path33" />
        <path
           d="M 384.607 685.148 C 393.409 679.28 403.607 679.001 411.012 681.236 C 413.947 664.052 406.121 643.782 394.247 644.353 C 382.238 644.937 377.901 668.523 384.607 685.148 z "
           transform="matrix(1.11057,0,0,1.01094,-44.372,-7.34127)"
           style="fill-opacity:0.5;fill-rule:evenodd;stroke-width:0.125;"
           id="path11" />
        <ellipse
           cx="396.902588"
           cy="672.627319"
           rx="18.565598"
           ry="31.630249"
           transform="matrix(0.509364,-0.0395237,0.0547329,0.367824,157.738,440.664)"
           style="fill-opacity:0.5;fill-rule:evenodd;stroke-width:1.24899;"
           id="path8" />
        <ellipse
           cx="396.902588"
           cy="672.627319"
           rx="18.565598"
           ry="31.630249"
           transform="matrix(0.460011,-0.0366449,0.0494296,0.341032,180.894,457.543)"
           style="fill-rule:evenodd;stroke-width:1.24899;"
           id="path13" />
        <path
           d="M 387.541 672.853 C 391.592 672.714 393.409 669.919 396.063 666.706 C 398.718 663.493 400.813 660 400.813 656.088 C 400.813 652.176 397.879 649.522 392.151 649.801 C 386.423 650.081 381.952 656.507 382.232 662.515 C 382.511 668.522 382.791 670.897 387.541 672.853 z "
           transform="matrix(1.09309,0,0,1.01094,-37.1787,-7.34127)"
           style="fill:#ffffff;fill-opacity:0.5;fill-rule:evenodd;stroke-width:0.125;"
           id="path10" />
        <path
           d="M 387.541 672.853 C 391.592 672.714 393.409 669.919 396.063 666.706 C 398.718 663.493 400.813 660 400.813 656.088 C 400.813 652.176 397.879 649.522 392.151 649.801 C 386.423 650.081 381.952 656.507 382.232 662.515 C 382.511 668.522 382.791 670.897 387.541 672.853 z "
           transform="matrix(0.912277,0,0,0.876151,33.6132,81.7989)"
           style="fill:#ffffff;fill-rule:evenodd;stroke-width:0.132279;"
           id="path14" />
      </g>
      <path
         d="M 367.381 657.182 C 377.414 643.125 383.306 642.995 395.402 642.364 C 407.288 641.754 417.181 643.862 428.825 661.808 C 427.716 664.756 426.668 667.614 425.007 670.773 C 418.93 657.99 409.233 645.507 395.192 646.765 C 381.151 648.022 375.104 653.767 374.475 662.569 C 371.317 661.583 369.805 659.518 367.381 657.182 z "
         style="fill-rule:evenodd;stroke-width:1pt;"
         id="path15" />
    </g>
    <path
       d="M 333.96 555.853 C 315.099 539.35 311.327 538.407 303.311 539.35 C 295.296 540.293 288.223 542.651 278.792 552.081 C 269.362 561.511 254.273 582.73 237.299 603.005 C 220.324 623.28 181.659 661.002 207.593 719.942 C 208.064 669.018 211.365 652.986 242.485 617.622 C 231.64 671.375 238.242 712.398 280.207 741.16 C 267.004 709.097 264.647 704.382 261.818 696.838 C 275.02 715.698 284.922 725.129 298.125 735.031 C 283.036 712.398 275.02 694.48 272.191 683.635 C 280.207 694.48 284.922 697.309 292.466 702.024 C 283.979 684.106 283.508 676.562 281.621 668.546 C 288.694 680.806 291.523 685.049 297.653 692.594 C 297.182 666.189 298.125 640.255 303.311 621.866 C 303.783 654.872 306.14 659.116 325.944 682.692 C 313.685 651.1 312.742 646.856 312.742 638.369 C 323.115 655.344 342.447 663.831 357.065 672.79 C 341.033 646.385 333.96 635.54 331.603 621.394 C 346.22 637.898 364.137 651.572 377.34 660.059 C 364.137 636.483 360.837 633.654 356.122 623.752 C 370.267 631.768 382.998 638.369 396.672 647.328 C 384.413 631.768 382.527 629.882 377.34 624.224 C 393.843 633.654 403.745 638.369 417.891 644.027 C 407.517 635.068 407.517 634.125 405.16 632.239 C 417.891 636.483 420.248 637.426 425.906 638.369 C 435.337 661.474 437.223 675.619 437.223 697.309 C 440.995 690.236 441.467 690.236 442.881 686.936 C 448.539 722.771 450.425 748.705 442.881 774.167 C 452.783 755.777 456.084 748.233 457.027 739.746 C 459.856 757.192 460.327 765.679 459.384 774.638 C 466.929 765.208 468.343 760.021 468.815 756.72 C 469.286 764.265 469.286 764.736 468.343 768.98 C 476.359 757.192 481.546 746.347 482.017 700.138 C 488.618 718.999 490.976 736.917 489.562 755.306 C 496.163 726.072 496.163 722.771 495.691 714.284 C 498.992 724.186 499.935 724.657 500.878 729.844 C 502.764 703.439 501.821 697.781 500.406 688.822 C 504.179 694.008 508.319 714.3 510.205 725.145 C 513.334 696.066 506.999 681.179 495.323 657.942 C 482.36 631.709 461.545 570.813 453.726 561.511 C 441.944 548.236 432.508 539.822 410.346 526.147 C 388.185 512.473 372.153 507.758 363.194 510.587 C 354.235 513.416 349.992 520.018 346.692 525.204 C 349.52 506.344 356.307 500.782 371.682 489.369 C 387.852 477.016 401.859 468.623 412.704 466.265 C 382.998 461.078 359.678 472.08 348.577 489.841 C 333.96 512.473 334.431 526.619 338.203 548.78 C 322.172 522.847 316.985 515.774 315.571 507.287 C 314.156 498.799 313.685 472.394 333.489 455.42 C 305.197 466.736 300.954 485.125 301.897 503.986 C 302.521 528.946 334.432 556.796 333.96 555.853 z "
       style="fill:#b0744b;fill-rule:evenodd;stroke:#000000;stroke-width:1pt;"
       id="path43" />
    <path
       d="M 477.95 664.642 C 472.558 641.618 470.154 635.789 444.144 586.534 C 465.127 616.262 475.619 640.916 477.95 664.642 z "
       transform="translate(-42.5512,2.62302)"
       style="fill:#7a4d2a;fill-rule:evenodd;stroke-width:1pt;"
       id="path100" />
    <path
       d="M 419.661 570.732 C 439.188 616.753 442.686 642.081 442.102 677.173 C 437.731 617.719 426.875 585.514 407.421 564.967 C 413.541 566.716 414.415 567.153 419.661 570.732 z "
       style="fill:#7a4d2a;fill-rule:evenodd;stroke-width:1pt;"
       id="path249" />
    <path
       d="M 282.25 669.054 C 274.084 634.996 272.335 610.952 288.073 582.973 C 290.264 580.308 292.887 577.685 296.458 574.26 C 280.064 605.591 275.693 621.839 282.25 669.054 z "
       style="fill:#7a4d2a;fill-rule:evenodd;stroke-width:1pt;"
       id="path99" />
    <path
       d="M 325.601 717.941 C 325.522 720.085 327.725 722.965 329.409 725.248 L 327.551 726.342 C 325.912 725.044 323.807 723.728 323.893 717.552 L 325.601 717.941 z "
       style="fill-opacity:0.496063;stroke-width:1pt;"
       id="path202" />
    <path
       d="M 332.814 738.36 C 344.322 733.745 350.348 732.374 357.429 732.349 L 358.485 734.395 C 358.396 734.42 358.307 734.445 358.218 734.469 C 350.799 735.684 336.863 739.226 332.814 740.648 L 332.814 738.36 z "
       style="fill-opacity:0.503937;stroke-width:1pt;"
       id="path203" />
    <path
       d="M 501.072 741.75 C 493.106 767.981 496.797 776.141 502.626 783.136 C 508.455 790.13 530.411 808.005 530.411 816.555 C 530.41 826.426 527.302 829.961 523.61 834.625 C 532.742 828.018 535.338 822.682 536.046 816.166 C 536.874 806.753 529.633 798.291 516.421 783.719 C 507.172 773.366 502.043 767.592 501.072 741.75 z "
       style="fill:#b0744b;fill-rule:evenodd;stroke:#000000;stroke-width:1pt;"
       id="path205" />
    <path
       d="M 323.29 560.859 C 320.764 556.585 317.655 550.562 312.409 552.31 C 307.163 554.059 296.477 562.802 288.122 583.009 C 298.42 572.129 303.86 567.66 318.044 566.3 C 319.792 563.385 321.347 562.608 323.29 560.859 z "
       style="fill:#5e3c1f;fill-rule:evenodd;stroke:#000000;stroke-width:1pt;"
       id="path206" />
    <path
       d="M 352.629 559.499 C 348.937 547.064 347.771 537.932 350.88 530.938 C 353.989 523.943 357.875 518.891 368.755 519.863 C 379.636 520.834 386.825 528.8 392.848 534.435 C 379.053 533.658 367.395 539.098 364.675 559.111 C 360.012 559.111 355.932 558.722 352.629 559.499 z "
       style="fill:#5e3c1f;fill-rule:evenodd;stroke:#000000;stroke-width:1pt;"
       id="path207" />
    <path
       d="M 371.475 558.916 C 376.527 546.093 380.996 541.624 399.843 542.79 C 408.003 551.922 415.581 561.637 420.438 571.934 C 398.677 558.139 390.905 556.391 371.475 558.916 z "
       style="fill:#5e3c1f;fill-rule:evenodd;stroke:#000000;stroke-width:1pt;"
       id="path208" />
    <path
       d="M 262.28 697.948 C 255.286 682.21 253.1 669.532 251.351 655.543 "
       style="fill:none;fill-rule:evenodd;stroke:#000000;stroke-width:1pt;"
       id="path211" />
    <path
       d="M 281.516 669.095 C 274.084 634.996 272.335 610.952 288.073 582.973 "
       style="fill:none;fill-rule:evenodd;stroke:#000000;stroke-width:1pt;"
       id="path212" />
    <path
       d="M 303.083 622.026 C 303.957 610.66 305.997 608.426 307.746 603.957 "
       style="fill:none;fill-rule:evenodd;stroke:#000000;stroke-width:1pt;"
       id="path213" />
    <path
       d="M 312.992 638.493 C 311.243 621.444 312.118 616.635 313.429 603.957 "
       style="fill:none;fill-rule:evenodd;stroke:#000000;stroke-width:1pt;"
       id="path214" />
    <path
       d="M 399.551 630.187 C 388.185 625.815 380.753 619.695 375.944 615.323 "
       style="fill:none;fill-rule:evenodd;stroke:#000000;stroke-width:1pt;"
       id="path218" />
    <path
       d="M 426.219 638.493 C 406.546 596.962 399.073 580.144 380.316 571.169 C 375.609 568.863 368.95 568.984 363.704 569.858 "
       style="fill:none;fill-rule:evenodd;stroke:#000000;stroke-width:1pt;"
       id="path219" />
    <path
       d="M 420.973 573.355 C 438.46 610.952 442.831 650.297 442.394 677.401 "
       style="fill:none;fill-rule:evenodd;stroke:#000000;stroke-width:1pt;"
       id="path220" />
    <path
       d="M 443.706 614.449 C 449.826 655.98 447.203 667.347 443.706 686.582 "
       style="fill:none;fill-rule:evenodd;stroke:#000000;stroke-width:1pt;"
       id="path221" />
    <path
       d="M 448.952 683.085 C 455.072 706.692 458.569 725.927 457.258 740.354 "
       style="fill:none;fill-rule:evenodd;stroke:#000000;stroke-width:1pt;"
       id="path222" />
    <path
       d="M 468.624 757.403 C 469.936 735.108 466.876 722.43 463.378 707.129 "
       style="fill:none;fill-rule:evenodd;stroke:#000000;stroke-width:1pt;"
       id="path223" />
    <path
       d="M 482.176 701.446 C 479.991 687.019 477.805 678.713 473.87 670.407 "
       style="fill:none;fill-rule:evenodd;stroke:#000000;stroke-width:1pt;"
       id="path224" />
    <path
       d="M 495.729 714.998 C 488.297 687.456 480.428 660.789 466.438 641.554 "
       style="fill:none;fill-rule:evenodd;stroke:#000000;stroke-width:1pt;"
       id="path225" />
    <path
       d="M 501.412 690.079 C 493.98 669.97 490.046 661.226 485.237 646.8 "
       style="fill:none;fill-rule:evenodd;stroke:#000000;stroke-width:1pt;"
       id="path226" />
    <path
       d="M 272.335 684.833 C 264.903 658.166 264.466 649.423 262.717 632.81 "
       style="fill:none;fill-rule:evenodd;stroke:#000000;stroke-width:1pt;"
       id="path227" />
    <path
       d="M 246.979 600.788 C 216.378 637.073 198.016 663.74 203.262 706.582 C 205.011 712.266 204.574 714.014 207.197 719.26 C 208.508 684.287 204.574 660.68 240.859 619.586 C 244.356 608.657 245.231 604.285 246.979 600.788 z "
       style="fill:#5e3c1f;fill-rule:evenodd;stroke:#000000;stroke-width:1pt;"
       id="path244" />
    <path
       d="M 237.362 624.504 C 226.059 664.417 219.438 689.205 222.498 709.752 C 225.558 730.299 226.87 728.987 230.367 735.108 C 230.367 697.948 231.241 673.467 238.236 653.794 C 240.859 628.438 242.608 615.76 250.914 591.279 C 243.045 606.58 240.049 615.017 237.362 624.504 z "
       style="fill:#5e3c1f;fill-rule:evenodd;stroke:#000000;stroke-width:1pt;"
       id="path209" />
    <path
       d="M 392.994 534.775 C 396.054 537.835 396.928 538.709 400.426 543.081 "
       style="fill:none;fill-rule:evenodd;stroke:#000000;stroke-width:1pt;"
       id="path246" />
    <path
       d="M 347.091 524.72 C 344.031 535.212 344.031 544.393 345.342 554.885 "
       style="fill:none;fill-rule:evenodd;stroke:#000000;stroke-width:1pt;"
       id="path247" />
    <path
       d="M 338.785 549.202 C 341.845 554.448 343.157 556.633 344.905 559.256 "
       style="fill:none;fill-rule:evenodd;stroke:#000000;stroke-width:1pt;"
       id="path248" />
    <path
       d="M 467.847 635.206 C 464.373 634.38 464.44 634.356 461.735 633.773 C 455.145 612.594 435.68 576.673 422.286 568.756 C 429.474 572.156 432.607 574.482 440.986 584.413 C 449.364 594.344 458.715 616.154 467.847 635.206 z "
       transform="translate(-42.5512,2.62302)"
       style="fill:#7a4d2a;fill-rule:evenodd;stroke-width:1pt;"
       id="path107" />
    <path
       d="M 356.272 623.921 C 350.346 617.121 346.703 613.478 343.059 604.346 "
       style="fill:none;fill-rule:evenodd;stroke:#000000;stroke-width:1pt;"
       id="path216" />
    <path
       d="M 331.742 621.978 C 329.119 614.983 327.856 610.952 328.293 604.831 "
       style="fill:none;fill-rule:evenodd;stroke:#000000;stroke-width:1pt;"
       id="path215" />
    <path
       d="M 377.693 624.552 C 370.261 617.995 367.201 614.012 362.829 609.64 "
       style="fill:none;fill-rule:evenodd;stroke:#000000;stroke-width:1pt;"
       id="path217" />
    <path
       d="M 331.645 687.084 C 329.325 684.243 326.401 680.651 324.489 678.196 C 320.632 666.998 317.546 660.222 314.839 643.56 C 317.365 653.177 323.096 670.557 331.645 687.084 z "
       transform="translate(-62.3695,18.944)"
       style="fill:#7a4d2a;fill-rule:evenodd;stroke-width:1pt;"
       id="path116" />
    <path
       d="M 367.59 641.035 C 367.116 641.399 366.617 642.468 365.941 643.169 C 363.128 639.013 361.885 636.432 360.505 633.384 C 351.751 593.892 374.088 573.175 409.462 563.51 C 375.07 587.892 372.362 590.989 368.512 610.643 C 367.119 619.419 364.481 628.201 367.59 641.035 z "
       transform="translate(-22.1499,-85.9766)"
       style="fill:#7a4d2a;fill-rule:evenodd;stroke-width:1pt;"
       id="path117" />
    <path
       d="M 503.904 864.91 C 508.494 861.631 515.707 864.254 518.33 868.844 C 520.953 873.435 520.298 888.517 518.33 891.14 C 516.363 893.763 508.494 895.73 507.183 891.796 C 505.871 887.861 504.56 865.566 503.904 864.91 z "
       style="fill:#ffffff;fill-rule:evenodd;stroke:#000000;stroke-width:1pt;"
       id="path126" />
    <path
       d="M 445.246 882.693 C 450.492 877.884 453.552 879.195 450.492 873.075 C 447.432 866.955 448.743 863.894 441.748 862.146 "
       style="fill:none;fill-rule:evenodd;stroke:#000000;stroke-width:1pt;"
       id="path114" />
    <path
       d="M 376.61 890.125 C 375.299 867.392 376.173 859.086 377.047 850.342 "
       style="fill:none;fill-rule:evenodd;stroke:#000000;stroke-width:1pt;"
       id="path115" />
    <path
       d="M 333.768 972.75 C 344.697 978.433 346.446 985.865 358.249 990.236 "
       style="fill:none;fill-rule:evenodd;stroke:#000000;stroke-width:1pt;"
       id="path134" />
    <path
       d="M 339.451 939.233 C 330.707 927.575 323.421 921.164 319.632 913.295 "
       style="fill:none;fill-rule:evenodd;stroke:#000000;stroke-width:1pt;"
       id="path139" />
    <path
       d="M 333.622 945.062 C 328.376 936.027 327.501 933.987 326.919 924.078 "
       style="fill:none;fill-rule:evenodd;stroke:#000000;stroke-width:1pt;"
       id="path140" />
    <path
       d="M 559.978 884.15 C 565.807 873.075 568.722 862.777 571.636 843.542 "
       style="fill:none;fill-rule:evenodd;stroke:#000000;stroke-width:1pt;"
       id="path144" />
    <path
       d="M 497.026 856.56 C 494.5 845.873 492.557 844.319 487.311 838.296 "
       style="fill:none;fill-rule:evenodd;stroke:#000000;stroke-width:1pt;"
       id="path145" />
    <path
       d="M 501.106 860.057 C 506.741 848.982 511.015 843.736 518.01 837.324 "
       style="fill:none;fill-rule:evenodd;stroke:#000000;stroke-width:1pt;"
       id="path146" />
    <path
       d="M 511.987 848.982 C 518.01 855.2 519.176 857.531 521.702 862.389 "
       style="fill:none;fill-rule:evenodd;stroke:#000000;stroke-width:1pt;"
       id="path147" />
    <path
       d="M 469.355 893.73 C 475.437 885.042 478.334 881.277 488.181 880.408 C 498.028 879.539 500.924 883.304 505.268 887.938 C 495.711 892.861 487.022 900.681 469.355 893.73 z "
       style="fill:#c2c2cf;fill-rule:evenodd;stroke:#000000;stroke-width:1pt;"
       id="path261" />
    <path
       d="M 473.7 891.992 C 481.23 883.594 489.339 880.408 499.186 886.2 "
       style="fill:none;fill-rule:evenodd;stroke:#000000;stroke-width:1pt;"
       id="path262" />
    <path
       d="M 519.749 889.965 C 537.416 888.227 553.055 886.779 560.006 899.233 C 555.662 911.397 549.29 907.342 541.181 904.156 C 533.072 900.971 520.039 892.282 518.301 891.703 C 519.17 891.703 519.46 890.544 519.749 889.965 z "
       style="fill:#c2c2cf;fill-rule:evenodd;stroke:#000000;stroke-width:1pt;"
       id="path263" />
    <path
       d="M 523.225 891.413 C 539.733 891.703 546.973 891.413 556.241 897.785 "
       style="fill:none;fill-rule:evenodd;stroke:#000000;stroke-width:1pt;"
       id="path264" />
    <path
       d="M 540.891 975.692 C 535.968 968.162 535.968 966.135 535.968 956.577 "
       style="fill:none;fill-rule:evenodd;stroke:#000000;stroke-width:1pt;"
       id="path266" />
    <path
       d="M 537.126 965.266 C 539.154 965.556 539.443 964.108 541.181 964.687 "
       transform="translate(-1.15849,0.193081)"
       style="fill:none;fill-rule:evenodd;stroke:#000000;stroke-width:1pt;"
       id="path267" />
  </g>
</svg>
