<?xml version="1.0" encoding="UTF-8" standalone="no"?>
<!DOCTYPE svg PUBLIC "-//W3C//DTD SVG 20010904//EN"
"http://www.w3.org/TR/2001/REC-SVG-20010904/DTD/svg10.dtd">
<!-- Created with Sodipodi ("http://www.sodipodi.com/") -->
<svg
   id="svg831"
   sodipodi:version="0.33pre"
   width="90.28pt"
   height="98.89pt"
   sodipodi:docbase="/home/aki/myndir_ymisl/mapsymbols-svg"
   sodipodi:docname="/home/aki/myndir_ymisl/mapsymbols-svg/bakery.svg"
   xmlns="http://www.w3.org/2000/svg"
   xmlns:sodipodi="http://sodipodi.sourceforge.net/DTD/sodipodi-0.dtd"
   xmlns:xlink="http://www.w3.org/1999/xlink">
  <defs
     id="defs833" />
  <sodipodi:namedview
     id="base" />
  <path
     style="font-size:12;fill-rule:evenodd;stroke:#000000;stroke-width:0.521563pt;"
     d="M 57.3852 19.6464 C 96.4889 19.6464 109.683 50.6614 108.059 65.6409 C 106.15 83.2697 95.8589 95.7476 76.4495 96.2317 C 72.1905 96.3456 63.687 95.994 57.3852 91.0097 C 50.3009 96.1408 44.1603 96.5417 38.161 96.2317 C 22.2856 96.2317 8.52235 83.0616 6.36902 65.6409 C 4.34719 46.5153 18.2809 19.6464 57.3852 19.6464 z M 46.939 39.9906 C 54.3194 36.7602 60.4611 37.3058 68.0914 40.365 L 57.2038 49.0333 L 46.939 39.9906 z M 57.0723 57.6682 C 52.1649 62.7194 50.9237 78.3258 57.2747 84.228 C 63.687 78.3258 61.8004 62.7194 57.0723 57.6682 z M 74.2842 43.1591 L 62.7246 52.9567 C 70.8899 61.1744 70.8255 78.3258 64.2665 87.5016 C 67.3651 89.7772 72.3885 89.1657 75.9683 88.0729 C 95.6392 75.8959 91.2488 51.9829 74.2842 43.1591 z M 40.3263 42.9185 L 51.6455 52.9567 C 42.9998 62.1368 43.4304 79.2882 50.9237 87.3272 C 47.8724 90.4629 41.934 89.9897 37.4392 88.0729 C 17.7687 75.8959 22.6396 51.0206 40.3263 42.9185 z "
     id="path613"
     sodipodi:nodetypes="csscsscccccccccccccccccc" />
</svg>
