<?xml version="1.0" encoding="UTF-8" standalone="no"?>
<!DOCTYPE svg PUBLIC "-//W3C//DTD SVG 20010904//EN"
"http://www.w3.org/TR/2001/REC-SVG-20010904/DTD/svg10.dtd">
<!-- Created with Sodipodi ("http://www.sodipodi.com/") -->
<svg
   id="svg831"
   sodipodi:version="0.33pre"
   width="90.28pt"
   height="98.89pt"
   sodipodi:docbase="/home/aki/myndir_ymisl/servicesigns2-svg"
   sodipodi:docname="/home/aki/myndir_ymisl/servicesigns2-svg/boatservice.svg"
   xmlns="http://www.w3.org/2000/svg"
   xmlns:sodipodi="http://sodipodi.sourceforge.net/DTD/sodipodi-0.dtd"
   xmlns:xlink="http://www.w3.org/1999/xlink">
  <defs
     id="defs833" />
  <sodipodi:namedview
     id="base" />
  <g
     id="g814"
     transform="matrix(1.230340,0.000000,0.000000,1.208736,-613.1428,-865.8889)">
    <path
       style="font-size:12;fill-rule:evenodd;stroke-width:1pt;fill:#000000;fill-opacity:1;"
       d="M 504.034 790.344 L 504.034 794.358 C 503.572 794.336 503.66 798.401 509.607 798.401 C 515.556 798.401 515.556 790.344 521.503 790.344 C 527.452 790.344 527.452 798.401 533.4 798.401 C 539.348 798.401 539.348 790.344 545.295 790.344 C 551.245 790.344 550.602 798.677 557.191 798.669 C 563.696 798.661 563.139 790.344 569.087 790.344 C 575.034 790.344 575.545 798.401 580.982 798.401 C 586.93 798.401 587.461 794.127 587.461 794.127 L 587.461 789.845 C 587.461 789.31 586.93 794.373 580.982 794.373 C 577.8 794.64 575.034 786.315 569.087 786.315 C 563.139 786.315 560.993 794.013 557.191 794.373 C 552.987 794.733 551.818 786.416 545.582 786.366 C 539.348 786.315 537.372 794.373 533.4 794.373 C 529.428 794.373 527.452 786.315 521.503 786.315 C 515.123 786.315 513.185 794.373 509.607 794.373 C 503.66 794.373 504.034 790.344 504.034 790.344 z M 504.034 797.837 L 504.034 801.851 C 503.572 801.829 503.66 805.894 509.607 805.894 C 515.556 805.894 515.556 797.837 521.503 797.837 C 527.452 797.837 527.452 805.894 533.4 805.894 C 539.348 805.894 539.348 797.837 545.295 797.837 C 551.245 797.837 550.602 806.17 557.191 806.162 C 563.696 806.154 563.139 797.837 569.087 797.837 C 575.034 797.837 575.545 805.894 580.982 805.894 C 586.93 805.894 587.461 801.62 587.461 801.62 L 587.461 797.338 C 587.461 796.803 586.93 801.866 580.982 801.866 C 577.8 802.134 575.034 793.808 569.087 793.808 C 563.139 793.808 560.993 801.506 557.191 801.866 C 552.987 802.226 551.818 793.909 545.582 793.859 C 539.348 793.808 537.372 801.866 533.4 801.866 C 529.428 801.866 527.452 793.808 521.503 793.808 C 515.123 793.808 513.185 801.866 509.607 801.866 C 503.66 801.866 504.034 797.837 504.034 797.837 z "
       id="path762" />
    <path
       style="fill:#000000;fill-rule:evenodd;stroke:none;stroke-opacity:1;stroke-width:1pt;stroke-linejoin:miter;stroke-linecap:butt;fill-opacity:1;"
       d="M 562.513 769.458 L 587.461 769.458 L 587.461 790.641 C 582.597 798.016 579.146 794.564 573.34 790.17 L 573.339 772.283 L 561.101 772.282 L 562.513 769.458 z "
       id="path768"
       sodipodi:nodetypes="ccccccc" />
    <path
       style="font-size:12;fill-rule:evenodd;stroke-width:1pt;"
       d="M 504.614 768.988 L 506.027 786.404 C 506.498 789.385 507.91 790.954 510.263 791.582 C 512.931 791.582 516.076 783.968 521.561 784.521 C 526.002 785.01 530.504 791.739 532.387 791.582 L 532.386 763.809 C 522.501 763.809 511.675 764.751 504.614 768.988 z "
       id="path763"
       sodipodi:nodetypes="cccsccc" />
    <path
       style="font-size:12;fill-rule:evenodd;stroke-width:1pt;"
       d="M 562.042 768.988 L 560.629 786.404 C 560.158 789.385 558.746 790.954 556.393 791.582 C 553.725 791.582 550.58 783.968 545.095 784.521 C 540.654 785.01 536.152 791.739 534.269 791.582 L 534.27 763.809 C 544.155 763.809 554.981 764.751 562.042 768.988 z "
       id="path765"
       sodipodi:nodetypes="cccsccc" />
    <path
       style="font-size:12;fill-rule:evenodd;stroke-width:1pt;"
       d="M 531.886 747.427 L 531.886 761.001 C 529.424 762.011 515.293 762.46 514.402 761.001 C 515.373 758.207 516.345 753.017 519.745 750.222 C 524.116 747.826 531.886 747.028 531.886 747.427 z "
       id="path766"
       sodipodi:nodetypes="ccccc" />
    <path
       style="font-size:12;fill-rule:evenodd;stroke-width:1pt;"
       d="M 534.314 747.427 L 534.314 761.001 C 540.142 762.011 547.429 762.46 551.798 761.001 C 550.827 758.207 549.856 753.017 546.455 750.222 C 542.084 747.826 534.314 747.028 534.314 747.427 z "
       id="path767"
       sodipodi:nodetypes="ccccc" />
    <path
       style="font-size:12;fill-rule:evenodd;stroke-width:1pt;"
       d="M 505.587 768.987 C 505.587 768.987 510.999 762.2 510.526 756.61 C 510.638 753.853 510.841 750.909 511.243 748.625 L 533.4 743.435 L 555.554 748.625 C 556.498 750.621 556.026 753.017 556.498 757.01 C 556.969 763.797 561.211 768.588 561.211 768.588 L 558.384 767.39 C 558.384 767.39 553.198 760.603 553.198 760.603 C 553.198 756.61 552.254 752.218 552.254 750.621 L 533.4 745.032 L 515.015 750.222 C 515.015 750.222 514.545 758.207 513.129 760.203 C 511.715 762.2 508.416 767.789 508.416 767.789 L 505.587 768.987 z "
       id="path769"
       sodipodi:nodetypes="ccccccccccccccc" />
    <path
       style="font-size:12;fill-rule:evenodd;stroke-width:1pt;"
       d="M 519.3 747.357 C 518.843 747.401 517.886 740.675 522.659 740.64 C 528.022 740.594 526.585 745.415 526.062 745.63 C 524.642 746.213 526.822 741.736 522.697 741.804 C 519.305 741.86 521.365 747.161 519.3 747.357 z "
       id="path770"
       sodipodi:nodetypes="cssss" />
    <path
       style="font-size:12;fill-rule:evenodd;stroke-width:1pt;"
       d="M 526.059 746.229 L 526.544 739.442 L 528.487 739.442 L 528.487 745.032 L 526.059 746.229 z "
       id="path771"
       sodipodi:nodetypes="ccccc" />
  </g>
</svg>
