<?xml version="1.0" encoding="UTF-8" standalone="no"?>
<!DOCTYPE svg PUBLIC "-//W3C//DTD SVG 20010904//EN"
"http://www.w3.org/TR/2001/REC-SVG-20010904/DTD/svg10.dtd">
<!-- Created with Sodipodi ("http://www.sodipodi.com/") -->
<svg
   id="svg831"
   sodipodi:version="0.33pre"
   width="90.28pt"
   height="98.89pt"
   sodipodi:docbase="/home/aki/myndir_ymisl/servicesigns2-svg"
   sodipodi:docname="/home/aki/myndir_ymisl/servicesigns2-svg/bus.svg"
   xmlns="http://www.w3.org/2000/svg"
   xmlns:sodipodi="http://sodipodi.sourceforge.net/DTD/sodipodi-0.dtd"
   xmlns:xlink="http://www.w3.org/1999/xlink">
  <defs
     id="defs833" />
  <sodipodi:namedview
     id="base" />
  <g
     id="g650"
     transform="matrix(0.636740,0.000000,0.000000,0.626157,-86.18292,-284.4154)">
    <path
       style="font-size:12;fill-rule:evenodd;stroke-width:1pt;"
       d="M 297.905 695.405 C 297.905 714.379 282.111 729.779 262.65 729.779 C 243.189 729.779 227.395 714.379 227.395 695.405 C 227.395 676.431 243.189 661.031 262.65 661.031 C 282.111 661.031 297.905 676.431 297.905 695.405 z M 282.04 696.287 C 282.04 706.017 273.748 713.915 263.531 713.915 C 253.314 713.915 245.022 706.017 245.022 696.287 C 245.022 686.557 253.314 678.659 263.531 678.659 C 273.748 678.659 282.04 686.557 282.04 696.287 z "
       id="path626"
       transform="matrix(0.322834,0.000000,0.000000,0.316954,97.72854,366.2661)" />
    <path
       style="font-size:12;fill:#000006;fill-rule:evenodd;stroke-width:1pt;"
       d="M 548.216 695.405 C 548.216 714.379 532.422 729.779 512.961 729.779 C 493.5 729.779 477.706 714.379 477.706 695.405 C 477.706 676.431 493.5 661.031 512.961 661.031 C 532.422 661.031 548.216 676.431 548.216 695.405 z M 532.351 696.287 C 532.351 706.017 524.059 713.915 513.842 713.915 C 503.625 713.915 495.333 706.017 495.333 696.287 C 495.333 686.557 503.625 678.659 513.842 678.659 C 524.059 678.659 532.351 686.557 532.351 696.287 z "
       id="path627"
       transform="matrix(0.322834,0.000000,0.000000,0.316954,97.72854,366.2661)" />
    <path
       style="font-size:12;fill-rule:evenodd;stroke:#000000;stroke-width:1pt;"
       d="M 303.277 560.555 L 306.719 616.963 L 373.703 617.537 L 368.989 560.596 L 303.277 560.555 z M 384.169 560.555 L 387.611 616.963 L 454.595 617.537 L 449.881 560.596 L 384.169 560.555 z M 465.061 560.555 L 468.503 616.963 L 535.487 617.537 L 530.773 560.596 L 465.061 560.555 z M 546.201 560.555 L 549.643 616.963 L 616.627 617.537 L 611.913 560.596 L 546.201 560.555 z M 222.137 560.555 L 225.579 616.963 L 292.563 617.537 L 287.849 560.596 L 222.137 560.555 z M 161.054 560.857 L 161.178 617.114 L 211.423 617.537 L 206.709 560.596 L 161.054 560.857 z M 144.358 545.365 C 143.912 551.486 147.957 552.562 150.996 552.456 C 152.036 559.014 143.691 615.638 144.358 622.302 L 145.024 700.039 L 223.508 700.039 C 223.508 700.039 223.423 657.833 263.522 658.345 C 304.946 658.873 301.138 700.892 301.138 700.892 L 474.314 700.892 C 474.314 700.892 471.676 658.544 514.702 658.345 C 553.736 658.831 550.612 700.892 551.945 700.892 L 641.518 700.039 L 638.959 548.19 C 639.332 541.5 636.666 536.62 628.722 536.247 L 153.555 536.247 C 146.97 535.874 144.772 540.286 144.358 545.365 z "
       id="path642"
       transform="matrix(0.322834,0.000000,0.000000,0.316954,97.72854,366.2661)" />
  </g>
</svg>
