<?xml version="1.0" encoding="UTF-8" standalone="no"?>
<!DOCTYPE svg PUBLIC "-//W3C//DTD SVG 20010904//EN"
"http://www.w3.org/TR/2001/REC-SVG-20010904/DTD/svg10.dtd">
<!-- Created with Sodipodi ("http://www.sodipodi.com/") -->
<svg
   id="svg831"
   sodipodi:version="0.33pre"
   width="90.28pt"
   height="98.89pt"
   sodipodi:docbase="/home/aki/myndir_ymisl/servicesigns2-svg"
   sodipodi:docname="/home/aki/myndir_ymisl/servicesigns2-svg/cookingfacilities.svg"
   xmlns="http://www.w3.org/2000/svg"
   xmlns:sodipodi="http://sodipodi.sourceforge.net/DTD/sodipodi-0.dtd"
   xmlns:xlink="http://www.w3.org/1999/xlink">
  <defs
     id="defs833" />
  <sodipodi:namedview
     id="base" />
  <g
     id="g610"
     transform="matrix(0.610963,0.000000,0.000000,0.567648,-245.7097,-155.3892)">
    <path
       style="fill:#000000;fill-rule:evenodd;stroke:none;stroke-opacity:1;stroke-width:2.5;stroke-linejoin:miter;stroke-linecap:butt;fill-opacity:1;stroke-dasharray:none;"
       d="M 440.627 371.51 C 436.611 377.503 445.846 378.816 450.422 385.961 C 452.992 397.523 447.869 444.208 452.509 452.843 C 461.467 468.769 479.728 474.28 501.567 474.28 C 523.405 474.28 538.844 470.807 548.215 453.245 C 552.838 445.331 548.054 391.983 551.105 384.356 C 552.149 379.137 565.581 376.411 561.061 370.546 C 557.473 365.892 551.745 374.081 545.724 379.7 L 454.758 380.503 C 449.646 376.703 444.865 365.39 440.627 371.51 z "
       id="path607"
       sodipodi:nodetypes="ccssscsccs" />
    <path
       style="fill:#000000;fill-rule:evenodd;stroke:none;stroke-opacity:1;stroke-width:1pt;stroke-linejoin:miter;stroke-linecap:butt;fill-opacity:1;"
       d="M 500.909 309.426 C 484.065 309.237 460.016 318.681 455.555 344.747 C 451.1 368.627 439.116 370.911 442.309 375.251 C 446.043 380.872 455.52 366.02 461.174 344.747 C 466.983 321.38 490.876 314.644 500.909 314.644 C 510.141 314.644 535.769 323.721 538.237 343.944 C 540.231 360.6 555.59 379.976 559.109 376.456 C 564.593 370.344 547.249 367.557 544.258 343.944 C 541.406 323.032 520.239 309.634 500.909 309.426 z "
       id="path608"
       sodipodi:nodetypes="cssssssss" />
    <path
       style="fill:#000000;fill-rule:evenodd;stroke:none;stroke-opacity:1;stroke-width:1pt;stroke-linejoin:miter;stroke-linecap:butt;fill-opacity:1;"
       d="M 410.602 373.244 C 412.459 377.329 516.563 320.665 517.366 321.467 C 529.407 322.271 534.546 322.519 543.054 318.257 C 549.778 314.687 557.303 305.054 552.686 297.384 C 548.131 290.212 533.86 293.614 528.203 297.386 C 522.69 300.279 517.366 307.42 513.754 316.25 C 513.353 317.053 408.194 368.428 410.602 373.244 z "
       id="path609"
       sodipodi:nodetypes="ccssscs" />
  </g>
</svg>
