<?xml version="1.0" encoding="UTF-8" standalone="no"?>
<!DOCTYPE svg PUBLIC "-//W3C//DTD SVG 20010904//EN"
"http://www.w3.org/TR/2001/REC-SVG-20010904/DTD/svg10.dtd">
<!-- Created with Sodipodi ("http://www.sodipodi.com/") -->
<svg
   id="svg831"
   sodipodi:version="0.33pre"
   width="90.28pt"
   height="98.89pt"
   sodipodi:docbase="/home/aki/myndir_ymisl"
   sodipodi:docname="/home/aki/myndir_ymisl/homecooking.svg"
   xmlns="http://www.w3.org/2000/svg"
   xmlns:sodipodi="http://sodipodi.sourceforge.net/DTD/sodipodi-0.dtd"
   xmlns:xlink="http://www.w3.org/1999/xlink">
  <defs
     id="defs833" />
  <sodipodi:namedview
     id="base" />
  <path
     style="font-size:12;fill-rule:evenodd;stroke-width:1pt;"
     d="M 24.6384 10.0037 C 27.5537 7.10414 42.973 25.1285 49.5556 33.4116 C 51.9465 36.4612 53.1879 40.6596 46.984 46.704 C 102.7 102.081 112.219 110.693 107.195 115.544 C 101.854 120.696 93.8833 108.698 42.9353 50.506 C 36.9085 56.3763 33.5728 55.3204 29.5829 51.8209 C 21.9576 44.2922 4.90668 29.3212 8.40768 25.5714 C 12.7627 20.9354 28.2057 45.8995 32.1921 42.8842 C 36.815 39.3405 12.0027 21.4754 15.9601 17.5617 C 20.5036 13.062 36.855 39.0155 40.6839 34.8554 C 43.9623 31.3154 20.6508 13.9931 24.6384 10.0037 z "
     id="path703"
     sodipodi:nodetypes="cscscssssss" />
</svg>
