<?xml version="1.0" encoding="UTF-8" standalone="no"?>
<!DOCTYPE svg PUBLIC "-//W3C//DTD SVG 20010904//EN"
"http://www.w3.org/TR/2001/REC-SVG-20010904/DTD/svg10.dtd">
<!-- Created with Sodipodi ("http://www.sodipodi.com/") -->
<svg
   id="svg831"
   sodipodi:version="0.33pre"
   width="90.28pt"
   height="98.89pt"
   sodipodi:docbase="/home/aki/myndir_ymisl/servicesigns2-svg"
   sodipodi:docname="/home/aki/myndir_ymisl/servicesigns2-svg/localcrafts.svg"
   xmlns="http://www.w3.org/2000/svg"
   xmlns:sodipodi="http://sodipodi.sourceforge.net/DTD/sodipodi-0.dtd"
   xmlns:xlink="http://www.w3.org/1999/xlink">
  <defs
     id="defs833" />
  <sodipodi:namedview
     id="base" />
  <g
     id="g722"
     transform="matrix(1.000000,0.000000,0.000000,0.951389,0.356135,3.004223)">
    <path
       style="font-size:12;fill-rule:evenodd;stroke:#000000;stroke-width:1pt;"
       d="M 478.346 520.866 L 496.063 520.866 L 496.063 538.583 L 513.78 538.583 L 513.78 556.299 L 531.496 556.299 L 531.496 574.016 L 549.213 574.016 L 549.213 485.433 L 531.496 485.433 L 531.496 467.717 L 513.78 467.717 L 513.78 450 L 496.063 450 L 496.063 432.283 L 478.346 432.283 L 478.346 520.866 z "
       id="path688"
       sodipodi:nodetypes="ccccccccccccccccc"
       transform="matrix(0.305087,0.000000,0.000000,0.313559,-113.1219,-125.0882)" />
    <path
       style="font-size:12;fill-rule:evenodd;stroke:#000000;stroke-width:0.309294pt;"
       d="M 79.3215 38.234 L 73.9163 38.234 L 73.9163 43.7893 L 68.511 43.7893 L 68.511 49.3443 L 63.1061 49.3443 L 63.1061 54.8997 L 57.7009 54.8997 L 57.7009 27.1237 L 63.1061 27.1237 L 63.1061 21.5687 L 68.511 21.5687 L 68.511 16.0133 L 73.9163 16.0133 L 73.9163 10.458 L 79.3215 10.458 L 79.3215 38.234 z "
       id="path689"
       sodipodi:nodetypes="ccccccccccccccccc" />
    <path
       style="font-size:12;fill-rule:evenodd;stroke:#000000;stroke-width:0.309294pt;"
       d="M 79.3215 38.234 L 79.3215 43.7893 L 73.9163 43.7893 L 73.9163 49.3447 L 68.5113 49.3447 L 68.5113 54.8997 L 63.1061 54.8997 L 63.1061 60.455 L 90.1316 60.455 L 90.1316 54.8997 L 95.5366 54.8997 L 95.5366 49.3447 L 100.942 49.3447 L 100.942 43.7893 L 106.348 43.7893 L 106.348 38.234 L 79.3215 38.234 z "
       id="path690"
       sodipodi:nodetypes="ccccccccccccccccc" />
    <path
       style="font-size:12;fill-rule:evenodd;stroke:#000000;stroke-width:1pt;"
       d="M 478.346 520.866 L 478.346 538.583 L 496.063 538.583 L 496.063 556.3 L 513.779 556.3 L 513.779 574.016 L 531.496 574.016 L 531.496 591.733 L 442.913 591.733 L 442.913 574.016 L 425.197 574.016 L 425.197 556.3 L 407.48 556.3 L 407.48 538.583 L 389.763 538.583 L 389.763 520.866 L 478.346 520.866 z "
       id="path691"
       sodipodi:nodetypes="ccccccccccccccccc"
       transform="matrix(0.305087,0.000000,0.000000,0.313559,-113.1219,-125.0882)" />
    <path
       style="font-size:12;fill-rule:evenodd;stroke:#000000;stroke-width:0.309294pt;"
       d="M 22.0054 63.1569 L 22.0054 68.7122 L 16.6002 68.7122 L 16.6002 74.2676 L 11.1953 74.2676 L 11.1953 79.8226 L 5.79003 79.8226 L 5.79003 85.3779 L 32.8155 85.3779 L 32.8155 79.8226 L 38.2205 79.8226 L 38.2205 74.2676 L 43.6257 74.2676 L 43.6257 68.7122 L 49.0309 68.7122 L 49.0309 63.1569 L 22.0054 63.1569 z "
       id="path692"
       sodipodi:nodetypes="ccccccccccccccccc" />
    <path
       style="font-size:12;fill-rule:evenodd;stroke:#000000;stroke-width:0.309294pt;"
       d="M 90.1319 63.1569 L 90.1319 68.7122 L 95.5372 68.7122 L 95.5372 74.2675 L 100.942 74.2675 L 100.942 79.8225 L 106.348 79.8225 L 106.348 85.3779 L 79.3218 85.3779 L 79.3218 79.8225 L 73.9169 79.8225 L 73.9169 74.2675 L 68.5117 74.2675 L 68.5117 68.7122 L 63.1064 68.7122 L 63.1064 63.1569 L 90.1319 63.1569 z "
       id="path693"
       sodipodi:nodetypes="ccccccccccccccccc" />
    <path
       style="font-size:12;fill-rule:evenodd;stroke:#000000;stroke-width:0.309294pt;"
       d="M 32.8152 85.3779 L 38.2205 85.3779 L 38.2205 79.8226 L 43.6257 79.8226 L 43.6257 74.2676 L 49.0306 74.2676 L 49.0306 68.7122 L 54.4358 68.7122 L 54.4358 96.4882 L 49.0306 96.4882 L 49.0306 102.044 L 43.6257 102.044 L 43.6257 107.599 L 38.2205 107.599 L 38.2205 113.154 L 32.8152 113.154 L 32.8152 85.3779 z "
       id="path694"
       sodipodi:nodetypes="ccccccccccccccccc" />
    <path
       style="font-size:12;fill-rule:evenodd;stroke:#000000;stroke-width:0.309294pt;"
       d="M 79.3215 85.3779 L 73.9163 85.3779 L 73.9163 79.8225 L 68.511 79.8225 L 68.511 74.2675 L 63.1061 74.2675 L 63.1061 68.7122 L 57.7009 68.7122 L 57.7009 96.4882 L 63.1061 96.4882 L 63.1061 102.044 L 68.511 102.044 L 68.511 107.599 L 73.9163 107.599 L 73.9163 113.155 L 79.3215 113.155 L 79.3215 85.3779 z "
       id="path695"
       sodipodi:nodetypes="ccccccccccccccccc" />
  </g>
</svg>
