<?xml version="1.0" encoding="UTF-8" standalone="no"?>
<!DOCTYPE svg PUBLIC "-//W3C//DTD SVG 20010904//EN"
"http://www.w3.org/TR/2001/REC-SVG-20010904/DTD/svg10.dtd">
<!-- Created with Sodipodi ("http://www.sodipodi.com/") -->
<svg
   id="svg831"
   sodipodi:version="0.33pre"
   width="90.28pt"
   height="98.89pt"
   sodipodi:docbase="/home/aki/myndir_ymisl/mapsymbols-svg"
   sodipodi:docname="/home/aki/myndir_ymisl/mapsymbols-svg/postalservice.svg"
   xmlns="http://www.w3.org/2000/svg"
   xmlns:sodipodi="http://sodipodi.sourceforge.net/DTD/sodipodi-0.dtd"
   xmlns:xlink="http://www.w3.org/1999/xlink">
  <defs
     id="defs833" />
  <sodipodi:namedview
     id="base" />
  <path
     style="font-size:12;fill-rule:evenodd;stroke:#000000;stroke-width:0.612482pt;"
     d="M 70.6184 64.425 C 70.6184 72.4065 64.097 78.8845 56.062 78.8845 C 48.027 78.8845 41.5056 72.4065 41.5056 64.425 C 41.5056 56.4435 48.027 49.9656 56.062 49.9656 C 64.097 49.9656 70.6184 56.4435 70.6184 64.425 z M 9.274 46.8676 L 33.1879 46.8676 C 33.1879 50.999 33.7041 56.6755 36.1352 59.7741 C 37.8756 50.1395 45.5922 43.9228 57.2739 43.769 C 68.4885 43.9631 76.62 53.4438 76.8566 61.3264 C 76.8904 66.0433 76.1732 70.9757 73.4004 74.4185 C 89.3432 68.9105 95.2176 57.5399 95.5641 47.9004 L 104.929 47.9004 C 102.156 59.5934 84.0656 91.238 57.1018 90.7722 C 31.8427 91.251 9.274 65.4579 9.274 46.8676 z "
     id="path630"
     sodipodi:nodetypes="ccccccccccccccc" />
</svg>
