<?xml version="1.0" encoding="UTF-8" standalone="no"?>
<!DOCTYPE svg PUBLIC "-//W3C//DTD SVG 1.0//EN"
"http://www.w3.org/TR/2001/REC-SVG-20010904/DTD/svg10.dtd">
<!-- Created with Sodipodi ("http://www.sodipodi.com/") -->
<svg
   id="svg831"
   sodipodi:version="0.33pre"
   xmlns="http://www.w3.org/2000/svg"
   xmlns:sodipodi="http://sodipodi.sourceforge.net/DTD/sodipodi-0.dtd"
   xmlns:xlink="http://www.w3.org/1999/xlink"
   width="90.28pt"
   height="98.89pt"
   sodipodi:docbase="/home/aki/myndir_ymisl"
   sodipodi:docname="/home/aki/myndir_ymisl/sleepingbagaccomodation.svg">
  <defs
     id="defs833" />
  <sodipodi:namedview
     id="base" />
  <g
     id="g787"
     transform="matrix(0.323229,0.000000,0.000000,0.345838,10.41910,12.76369)">
    <path
       style="font-size:12;fill-rule:evenodd;stroke:#000000;stroke-width:0.379182pt;"
       d="M 383.686 335.295 C 385.447 338.98 389.083 338.98 391.127 335.295 L 391.127 323.898 L 412.541 343.129 L 412.825 359.884 C 414.671 363.538 419.358 363.538 420.834 359.977 L 420.834 343.221 L 450.598 343.221 L 450.598 358.645 C 452.16 362.608 456.648 363.042 458.039 358.552 L 458.039 333.869 C 448.033 332.657 427.175 332.051 417.169 333.869 L 390.928 311.078 C 389.223 309.457 383.971 306.005 383.971 304.694 L 383.686 335.295 z "
       id="path778"
       sodipodi:nodetypes="ccccccccccccccc"
       transform="matrix(2.846145,0.000000,0.000000,2.830766,-1048.074,-770.2836)" />
    <path
       style="font-size:12;fill:#000000;fill-rule:evenodd;stroke:#000000;stroke-width:1pt;fill-opacity:1;"
       d="M 164.719 74.3389 C 170.439 80.6303 184.737 97.2167 190.456 103.508 C 170.439 94.357 122.967 100.648 97.8024 101.792 C 116.104 117.806 137.838 135.537 159.572 149.835 L 226.49 149.835 L 233.352 154.983 L 156.141 154.983 C 147.562 149.835 72.0649 88.0656 68.6332 79.4865 C 73.2088 58.3245 142.986 74.9109 164.719 74.3389 z M 51.475 82.9181 C 49.7591 93.213 135.551 153.267 147.562 163.562 C 163.004 163.561 231.638 166.994 241.932 161.847 C 240.216 146.403 200.752 103.508 163.004 65.7599 C 109.813 57.1807 51.4749 45.1699 51.475 82.9181 z "
       id="path786"
       sodipodi:nodetypes="cccccccccccccc" />
  </g>
</svg>
