<?xml version="1.0" encoding="UTF-8" standalone="no"?>
<!DOCTYPE svg PUBLIC "-//W3C//DTD SVG 20010904//EN"
"http://www.w3.org/TR/2001/REC-SVG-20010904/DTD/svg10.dtd">
<!-- Created with Sodipodi ("http://www.sodipodi.com/") -->
<svg
   id="svg831"
   sodipodi:version="0.33pre"
   width="90.28pt"
   height="98.89pt"
   sodipodi:docbase="/home/aki/myndir_ymisl/servicesigns2-svg"
   sodipodi:docname="/home/aki/myndir_ymisl/servicesigns2-svg/view.svg"
   xmlns="http://www.w3.org/2000/svg"
   xmlns:sodipodi="http://sodipodi.sourceforge.net/DTD/sodipodi-0.dtd"
   xmlns:xlink="http://www.w3.org/1999/xlink">
  <defs
     id="defs833" />
  <sodipodi:namedview
     id="base" />
  <g
     id="g596"
     transform="matrix(0.529508,0.000000,0.000000,0.494900,-185.0206,-145.6188)">
    <path
       style="fill:#000000;fill-rule:evenodd;stroke:none;stroke-opacity:1;stroke-width:4.875;stroke-linejoin:miter;stroke-linecap:butt;fill-opacity:1;stroke-dasharray:none;"
       d="M 359.565 475.245 L 359.565 535.676 L 555.966 537.187 L 555.966 503.95 C 555.966 503.95 500.068 449.562 451.722 449.562 C 397.334 452.583 359.565 476.756 359.565 475.245 z "
       id="path592"
       sodipodi:nodetypes="cccccc" />
    <path
       style="fill:#000000;fill-rule:evenodd;stroke:none;stroke-opacity:1;stroke-width:2.5;stroke-linejoin:miter;stroke-linecap:butt;fill-opacity:1;stroke-dasharray:none;"
       d="M 404.091 321.425 C 389.74 342.072 383.282 355.166 360.32 370.526 C 379.694 364.482 394.763 347.108 403.374 336.533 C 417.724 357.684 462.214 396.964 477.282 403.007 C 514.595 379.842 521.771 370.274 535.404 353.152 C 538.992 359.195 542.579 362.216 552.625 369.014 C 544.015 354.158 539.709 345.345 536.121 333.511 C 528.228 351.64 504.55 387.144 477.282 399.23 C 438.534 379.59 417.007 339.554 404.091 321.425 z "
       id="path593"
       sodipodi:nodetypes="ccccccccc" />
    <path
       style="fill:#000000;fill-rule:evenodd;stroke:none;stroke-opacity:1;stroke-width:1.25;stroke-linejoin:miter;stroke-linecap:butt;fill-opacity:1;stroke-dasharray:none;"
       d="M 398.845 358.439 C 407.91 358.439 407.91 373.924 404.888 375.435 C 399.978 376.19 401.111 376.569 401.111 379.59 C 402.244 382.612 403.378 378.079 409.421 381.856 C 415.464 385.633 423.773 420.381 422.262 425.669 C 416.975 428.69 413.953 403.007 410.176 400.741 C 406.399 398.475 407.154 412.827 409.42 418.87 C 411.687 424.913 413.953 455.884 413.953 455.884 L 405.644 459.661 C 405.644 459.661 404.888 436.244 399.601 434.733 C 392.802 433.222 395.068 461.927 395.068 461.927 L 386.759 466.459 C 386.759 466.459 386.759 428.69 389.781 420.381 C 390.536 409.805 392.047 403.762 389.026 403.007 C 381.471 400.74 381.471 427.179 376.939 427.179 C 372.407 427.179 380.338 387.143 385.248 383.367 C 389.025 380.345 392.802 380.345 392.802 380.345 C 392.802 380.345 388.27 358.439 398.845 358.439 z "
       id="path594"
       sodipodi:nodetypes="cccccccccccccccccc" />
    <path
       style="fill:#000000;fill-rule:evenodd;stroke:none;stroke-opacity:1;stroke-width:1.25;stroke-linejoin:miter;stroke-linecap:butt;fill-opacity:1;stroke-dasharray:none;"
       d="M 447.945 349.235 C 458.143 349.235 458.143 362.076 456.255 366.231 C 451.345 366.986 450.589 368.12 450.589 371.141 C 451.722 374.163 452.856 369.63 458.899 373.407 C 483.827 375.296 484.582 365.098 488.736 369.253 C 489.115 373.407 484.96 379.828 461.92 381.717 C 458.143 379.451 455.499 399.468 457.765 405.511 C 460.032 411.554 462.298 445.169 461.92 451.212 L 453.611 450.834 C 453.611 450.834 453.233 422.885 447.946 421.374 C 445.302 419.863 442.658 447.057 443.035 451.59 L 435.104 453.1 C 435.104 453.1 435.104 415.331 438.126 407.022 C 438.881 396.446 440.392 390.403 437.371 389.648 C 429.816 387.381 432.46 419.863 427.928 419.863 C 423.396 419.863 427.928 382.471 432.838 378.695 C 436.615 375.673 440.392 374.54 443.035 373.407 C 446.435 368.119 435.86 353.389 447.945 349.235 z "
       id="path595"
       sodipodi:nodetypes="cccccccccccccccccc" />
  </g>
</svg>
