<?xml version="1.0" encoding="UTF-8" standalone="no"?>
<!DOCTYPE svg PUBLIC "-//W3C//DTD SVG 20010904//EN"
"http://www.w3.org/TR/2001/REC-SVG-20010904/DTD/svg10.dtd">
<!-- Created with Sodipodi ("http://www.sodipodi.com/") -->
<svg
   id="svg566"
   sodipodi:version="0.32"
   width="187mm"
   height="140mm"
   sodipodi:docbase="/home/scarlet/"
   sodipodi:docname="/home/scarlet/Australia.svg"
   xmlns="http://www.w3.org/2000/svg"
   xmlns:sodipodi="http://sodipodi.sourceforge.net/DTD/sodipodi-0.dtd"
   xmlns:xlink="http://www.w3.org/1999/xlink">
  <defs
     id="defs568" />
  <sodipodi:namedview
     id="base" />
  <rect
     style="font-size:12;fill:#000095;fill-rule:evenodd;stroke-width:1pt;fill-opacity:1;"
     id="rect580"
     width="659.051147"
     height="496.062866"
     x="0.003939"
     y="0.000102" />
  <g
     id="g560"
     transform="matrix(1.093652,0.000000,0.000000,1.027531,-1.063918e-3,-1.121765)">
    <path
       transform="matrix(0.462370,0.000000,0.000000,0.474578,-29.82254,-137.2798)"
       style="font-size:12;fill:#ffffff;fill-rule:evenodd;stroke-width:1pt;fill-opacity:1;"
       d="M 64.5014 291.568 L 578.582 800.199 L 684.029 800.199 L 181.047 291.814 L 64.5014 291.568 z "
       id="path572"
       sodipodi:nodetypes="ccccc" />
    <path
       transform="matrix(-0.461902,1.787436e-16,-1.661416e-16,-0.476346,317.3934,383.4745)"
       style="font-size:12;fill:#ff0000;fill-rule:evenodd;stroke-width:1pt;fill-opacity:1;"
       d="M 105.539 296.008 L 609.377 802.733 L 648.588 802.114 L 142.639 296.008 L 105.539 296.008 z "
       id="path577"
       sodipodi:nodetypes="ccccc" />
    <path
       transform="matrix(-0.462370,0.000000,0.000000,0.474578,316.2764,-137.2798)"
       style="font-size:12;fill:#ffffff;fill-rule:evenodd;stroke-width:1pt;fill-opacity:1;"
       d="M 64.5014 291.568 L 578.582 800.199 L 684.029 800.199 L 181.047 291.814 L 64.5014 291.568 z "
       id="path581"
       sodipodi:nodetypes="ccccc" />
    <path
       transform="matrix(-0.461718,0.000000,0.000000,0.476346,317.3236,-139.9103)"
       style="font-size:12;fill:#ff0000;fill-rule:evenodd;stroke-width:1pt;fill-opacity:1;"
       d="M 105.539 296.008 L 609.377 802.733 L 648.588 802.753 L 142.639 296.008 L 105.539 296.008 z "
       id="path579"
       sodipodi:nodetypes="ccccc" />
    <rect
       style="font-size:12;fill:#ffffff;fill-rule:evenodd;stroke-width:1pt;fill-opacity:1;"
       id="rect570"
       width="45.831038"
       height="241.379689"
       x="120.311425"
       y="1.094477" />
    <rect
       style="font-size:12;fill:#ffffff;fill-rule:evenodd;stroke-width:1pt;fill-opacity:1;"
       id="rect569"
       width="286.444075"
       height="48.275916"
       x="0.004935"
       y="97.646349" />
    <rect
       style="font-size:12;fill:#ff0000;fill-rule:evenodd;stroke-width:1pt;fill-opacity:1;"
       id="rect574"
       width="25.779947"
       height="241.379631"
       x="130.336997"
       y="1.094487" />
    <rect
       style="font-size:12;fill:#ff0000;fill-rule:evenodd;stroke-width:1pt;fill-opacity:1;"
       id="rect575"
       width="286.444075"
       height="24.137976"
       x="0.004934"
       y="109.715326" />
  </g>
  <polygon
     sodipodi:type="star"
     style="font-size:12;fill:#ffffff;fill-rule:evenodd;stroke-width:1pt;fill-opacity:1;"
     id="polygon604"
     sodipodi:sides="7"
     sodipodi:cx="491.541870"
     sodipodi:cy="87.1001663"
     sodipodi:r1="34.3376160"
     sodipodi:r2="17.1688080"
     sodipodi:arg1="1.15838623"
     sodipodi:arg2="1.60718513"
     points="505.305,118.559 490.917,104.258 475.528,117.475 477.738,97.3093 457.809,93.518 474.954,82.6733 465.492,64.7285 484.66,71.3708 492.791,52.7853 499.549,71.9129 519.149,66.6819 508.408,83.8912 524.718,95.9539 504.567,98.286 505.305,118.559 "
     transform="matrix(0.994645,0.000000,0.000000,1.000000,-9.673230e-4,2.517700e-4)" />
  <polygon
     sodipodi:type="star"
     style="font-size:12;fill:#ffffff;fill-rule:evenodd;stroke-width:1pt;fill-opacity:1;"
     id="polygon605"
     sodipodi:sides="7"
     sodipodi:cx="491.541870"
     sodipodi:cy="87.1001663"
     sodipodi:r1="34.3376160"
     sodipodi:r2="17.1688080"
     sodipodi:arg1="1.15838623"
     sodipodi:arg2="1.60718513"
     points="505.305,118.559 490.917,104.258 475.528,117.475 477.738,97.3093 457.809,93.518 474.954,82.6733 465.492,64.7285 484.66,71.3708 492.791,52.7853 499.549,71.9129 519.149,66.6819 508.408,83.8912 524.718,95.9539 504.567,98.286 505.305,118.559 "
     transform="matrix(0.994645,0.000000,0.000000,1.000000,-103.6499,121.9027)" />
  <polygon
     sodipodi:type="star"
     style="font-size:12;fill:#ffffff;fill-rule:evenodd;stroke-width:1pt;fill-opacity:1;"
     id="polygon606"
     sodipodi:sides="7"
     sodipodi:cx="491.541870"
     sodipodi:cy="87.1001663"
     sodipodi:r1="34.3376160"
     sodipodi:r2="17.1688080"
     sodipodi:arg1="1.15838623"
     sodipodi:arg2="1.60718513"
     points="505.305,118.559 490.917,104.258 475.528,117.475 477.738,97.3093 457.809,93.518 474.954,82.6733 465.492,64.7285 484.66,71.3708 492.791,52.7853 499.549,71.9129 519.149,66.6819 508.408,83.8912 524.718,95.9539 504.567,98.286 505.305,118.559 "
     transform="matrix(0.994645,0.000000,0.000000,1.000000,97.78099,110.1056)" />
  <polygon
     sodipodi:type="star"
     style="font-size:12;fill:#ffffff;fill-rule:evenodd;stroke-width:1pt;fill-opacity:1;"
     id="polygon607"
     sodipodi:sides="7"
     sodipodi:cx="491.541870"
     sodipodi:cy="87.1001663"
     sodipodi:r1="34.3376160"
     sodipodi:r2="17.1688080"
     sodipodi:arg1="1.15838623"
     sodipodi:arg2="1.60718513"
     points="505.305,118.559 490.917,104.258 475.528,117.475 477.738,97.3093 457.809,93.518 474.954,82.6733 465.492,64.7285 484.66,71.3708 492.791,52.7853 499.549,71.9129 519.149,66.6819 508.408,83.8912 524.718,95.9539 504.567,98.286 505.305,118.559 "
     transform="matrix(0.994645,0.000000,0.000000,1.000000,-15.64608,346.0455)" />
  <polygon
     sodipodi:type="star"
     style="font-size:12;fill:#ffffff;fill-rule:evenodd;stroke-width:1pt;fill-opacity:1;"
     id="polygon608"
     sodipodi:sides="7"
     sodipodi:cx="491.541870"
     sodipodi:cy="87.1001663"
     sodipodi:r1="34.3376160"
     sodipodi:r2="17.1688080"
     sodipodi:arg1="1.15838623"
     sodipodi:arg2="1.60718513"
     points="505.305,118.559 490.917,104.258 475.528,117.475 477.738,97.3093 457.809,93.518 474.954,82.6733 465.492,64.7285 484.66,71.3708 492.791,52.7853 499.549,71.9129 519.149,66.6819 508.408,83.8912 524.718,95.9539 504.567,98.286 505.305,118.559 "
     transform="matrix(1.898093,-0.100527,9.299085e-2,1.774757,-787.1909,272.0370)" />
  <polygon
     sodipodi:type="star"
     style="font-size:12;fill:#ffffff;fill-rule:evenodd;stroke-width:1pt;fill-opacity:1;"
     id="polygon609"
     sodipodi:sides="5"
     sodipodi:cx="530.865234"
     sodipodi:cy="305.344757"
     sodipodi:r1="32.2475128"
     sodipodi:r2="12.8990059"
     sodipodi:arg1="0.91510206"
     sodipodi:arg2="1.54342067"
     points="550.527,330.905 531.218,318.239 512.632,331.943 518.711,309.665 499.935,296.223 523.001,295.121 529.983,273.109 538.159,294.706 561.25,294.544 543.237,308.993 550.527,330.905 "
     transform="matrix(0.675699,0.000000,0.000000,0.732646,155.5407,78.91570)" />
</svg>
