<?xml version="1.0" encoding="UTF-8" standalone="no"?>
<!DOCTYPE svg PUBLIC "-//W3C//DTD SVG 20010904//EN"
"http://www.w3.org/TR/2001/REC-SVG-20010904/DTD/svg10.dtd">
<!-- Created with Sodipodi ("http://www.sodipodi.com/") -->
<svg
   id="svg1451"
   sodipodi:version="0.32"
   width="210mm"
   height="140mm"
   sodipodi:docbase="/home/gustav/bilder/brunei/"
   sodipodi:docname="/home/gustav/bilder/brunei/brunei-32.svg"
   xmlns="http://www.w3.org/2000/svg"
   xmlns:sodipodi="http://sodipodi.sourceforge.net/DTD/sodipodi-0.dtd"
   xmlns:xlink="http://www.w3.org/1999/xlink">
  <defs
     id="defs1453" />
  <sodipodi:namedview
     id="base" />
  <g
     id="g1818">
    <path
       style="font-size:12;fill:#ffffff;fill-rule:evenodd;stroke-width:1pt;"
       d="M 1.43067 35.1057 L 1.43067 152.248 L 992.126 358.264 L 992.126 241.122 L 1.43067 35.1057 z "
       id="path1456"
       sodipodi:nodetypes="ccccc"
       transform="matrix(0.751083,0.000000,0.000000,1.000001,-1.074552,-2.059937e-4)" />
    <path
       style="font-size:12;fill:#f7db00;fill-rule:evenodd;stroke-width:1pt;"
       d="M 0 254.906 L 0 496.063 L 992.126 496.063 L 992.126 461.622 L 0 254.906 z "
       id="path654"
       sodipodi:nodetypes="ccccc"
       transform="matrix(0.749999,0.000000,0.000000,1.000001,1.312907e-5,-2.059937e-4)" />
    <path
       style="font-size:12;fill:#f7db00;fill-rule:evenodd;stroke-width:1pt;"
       d="M 0 254.906 L 0 496.063 L 992.126 496.063 L 992.126 461.622 L 0 254.906 z "
       id="path656"
       sodipodi:nodetypes="ccccc"
       transform="matrix(-0.749999,0.000000,0.000000,-1.000001,744.0943,496.0634)" />
    <path
       style="font-size:12;fill-rule:evenodd;stroke-width:1pt;"
       d="M 0 -0.667959 L 0 153.464 L 992.126 461.622 L 992.126 307.49 L 0 -0.667959 z "
       id="path658"
       transform="matrix(0.749999,0.000000,0.000000,0.670583,1.312907e-5,152.0659)"
       sodipodi:nodetypes="ccccc" />
    <rect
       style="font-size:12;fill:#cb4f46;fill-rule:evenodd;stroke:#000000;stroke-width:1.46831;"
       id="rect694"
       width="8.964505"
       height="23.929577"
       x="373.741802"
       y="206.413671" />
    <path
       style="font-size:12;fill:#cb4f46;fill-rule:evenodd;stroke:#000000;stroke-width:3.20735;"
       d="M 415.123 645.682 C 414.882 612.116 416.248 579.837 418.889 570.68 C 421.53 561.523 425.445 559.62 430.305 555.072 C 418.793 554.029 406.087 563.719 400.245 576.48 C 396.538 562.082 389.606 552.324 383.506 547.424 C 377.407 552.324 370.214 562.232 366.938 576.607 C 360.928 565.895 350.383 554.019 337.91 555.353 C 342.344 559.973 346.391 561.685 349.088 570.638 C 351.785 579.591 353.132 611.654 352.163 645.238 "
       id="path611"
       sodipodi:nodetypes="cscccccsc"
       transform="matrix(0.428238,0.000000,0.000000,0.489397,213.9088,-46.41897)" />
    <path
       style="font-size:12;fill:#cb4f46;fill-rule:evenodd;stroke:#000000;stroke-width:2.80364;"
       d="M 414.444 641.956 C 414.203 608.391 415.814 579.736 418.121 570.629 C 420.43 561.523 424.114 559.823 429.379 555.883 C 417.867 554.84 406.898 557.639 400.477 573.238 C 396.885 558.738 389.838 551.615 383.738 546.715 C 377.639 551.615 370.446 558.989 367.17 573.364 C 360.117 557.89 350.267 554.424 337.794 555.758 C 342.98 560.074 347.056 561.685 349.594 570.613 C 352.132 579.541 352.453 607.928 351.484 641.512 "
       id="path610"
       sodipodi:nodetypes="cscccccsc"
       transform="matrix(0.466978,0.000000,0.000000,0.587353,198.9447,-66.36980)" />
    <path
       style="font-size:12;fill:#cb4f46;fill-rule:evenodd;stroke:#000000;stroke-width:2.5;"
       d="M 417.496 590.829 C 417.184 583.017 418.256 572.526 420.031 568.472 C 421.807 564.417 424.285 561.456 426.785 558.019 C 416.063 556.473 405.16 557.262 399.371 572.987 C 395.621 558.612 389.996 551.112 383.896 546.212 C 377.797 551.112 372.5 558.612 368.75 572.987 C 362.961 557.262 352.005 556.309 340.954 558.019 C 343.454 561.456 346.028 564.417 347.899 568.472 C 349.77 572.526 350.938 583.017 350.625 590.829 "
       id="path609"
       sodipodi:nodetypes="cscccccsc"
       transform="matrix(0.587300,0.000000,0.000000,0.587353,152.7338,-25.41902)" />
    <path
       style="font-size:12;fill:#cb4f46;fill-rule:evenodd;stroke:#000000;stroke-width:2.5;"
       d="M 378.953 610.77 L 378.953 642.981 L 390.322 642.981 L 390.322 610.77 L 378.953 610.77 z "
       id="path689"
       transform="matrix(0.587300,0.000000,0.000000,0.587353,152.3183,-198.8207)" />
    <path
       style="font-size:12;opacity:0.99;fill:#cb4f46;fill-rule:evenodd;stroke:#000000;stroke-width:2.5;stroke-linejoin:bevel;"
       d="M 457.893 1168.67 C 460.706 1170.55 471.928 1172.52 492.269 1168.98 C 527.782 1162.76 527.485 1127.73 582.798 1143.98 C 580.298 1138.98 571.548 1123.67 549.985 1123.05 C 552.173 1115.86 553.735 1105.24 549.673 1098.67 C 545.506 1107.94 539.055 1112.25 534.377 1115.28 C 532.936 1114.5 524.577 1107.67 523.671 1097.38 C 522.415 1076.98 512.46 1073.38 511.403 1073.92 C 505.013 1073.74 466.533 1134.57 384.134 1134.97 C 302.945 1135.36 262.312 1074.46 257.728 1073.92 C 256.671 1073.38 246.716 1076.98 245.46 1097.38 C 244.554 1107.67 236.097 1114.2 234.676 1115.11 C 230.018 1112.21 223.625 1107.94 219.458 1098.67 C 215.396 1105.24 216.958 1115.86 219.146 1123.05 C 197.583 1123.67 188.833 1138.98 186.333 1143.98 C 241.646 1127.73 241.757 1162.76 277.27 1168.98 C 297.611 1172.52 308.156 1170.86 310.969 1168.99 "
       id="path660"
       transform="matrix(0.587300,0.000000,0.000000,0.587353,152.3183,-293.1643)" />
    <path
       style="font-size:12;opacity:0.99;fill:#cb4f46;fill-rule:evenodd;stroke:#000000;stroke-width:2.5;stroke-linejoin:bevel;"
       d="M 286.282 1151.19 C 267.017 1150.42 229.434 1121.12 234.768 1115.09 C 236.461 1113.38 244.741 1115.14 259.076 1125.17 C 280.351 1139.67 298.605 1185.39 383.953 1185.04 C 470.933 1184.69 488.78 1139.67 510.055 1125.17 C 524.39 1115.14 533.334 1113.54 534.343 1115.5 C 539.463 1121.28 501.844 1150.51 482.579 1151.28 "
       id="path661"
       transform="matrix(0.587300,0.000000,0.000000,0.587353,152.3183,-293.1643)" />
    <path
       style="font-size:12;fill:#cb4f46;fill-rule:evenodd;stroke:#000000;stroke-width:2.5;"
       d="M 259.195 399.543 C 183.085 479.728 224.027 663.902 382.211 666.561 C 541.247 668.343 587.644 482.297 508.621 399.187 M 274.605 402.29 C 234.115 470.468 276.209 589.935 384.486 589.935 C 493.654 589.935 533.666 469.606 493.571 401.889 "
       id="path590"
       sodipodi:nodetypes="cccccc"
       transform="matrix(0.587300,0.000000,0.000000,0.587353,152.7338,-25.41902)" />
    <path
       style="font-size:12;fill:#e9c720;fill-rule:evenodd;stroke:#cb4f46;stroke-width:0.375;"
       d="M 412.204 690.074 C 417.737 691.303 422.786 697.016 420.753 702.888 C 418.495 709.89 410.16 711.591 407.01 711.079 C 403.621 709.047 405.654 706.111 416.044 704.981 C 422.82 702.497 416.65 697.916 411.527 695.721 C 408.744 694.528 409.605 689.497 412.204 690.074 z "
       id="path596"
       sodipodi:nodetypes="ccccss"
       transform="matrix(0.587300,0.000000,0.000000,0.587353,152.7338,-25.41910)" />
    <path
       style="font-size:12;fill:#e9c720;fill-rule:evenodd;stroke:#cb4f46;stroke-width:0.375;"
       d="M 410.172 689.622 C 412.745 686.696 414.836 695.667 415.407 701.887 C 416.157 707.961 416.234 715.452 413.786 715.823 C 412.293 716.073 413.546 708.85 412.003 702.222 C 409.99 694.547 409.121 690.91 410.172 689.622 z "
       id="path597"
       sodipodi:nodetypes="cssss"
       transform="matrix(0.587300,0.000000,0.000000,0.587353,143.8462,-26.21507)" />
    <path
       style="font-size:12;fill:#e9c720;fill-rule:evenodd;stroke:#cb4f46;stroke-width:0.375;"
       d="M 421.43 695.494 C 427.891 701.754 416.947 719.888 393.006 711.983 C 391.65 709.499 402.513 711.955 410.171 710.628 C 424.742 708.328 418.49 692.716 421.43 695.494 z "
       id="path598"
       sodipodi:nodetypes="ccss"
       transform="matrix(0.587300,0.000000,0.000000,0.587353,133.7648,-23.16347)" />
    <path
       style="font-size:12;fill:#e9c720;fill-rule:evenodd;stroke:#cb4f46;stroke-width:0.375;"
       d="M 412.882 689.848 C 415.456 686.922 413.955 696.187 414.492 702.411 C 415.016 708.259 414.362 715.378 411.588 714.457 C 410.084 713.732 412.548 707.163 411.005 700.987 C 409.351 693.227 410.928 691.813 412.882 689.848 z "
       id="path599"
       sodipodi:nodetypes="cssss"
       transform="matrix(0.587300,0.000000,0.000000,0.587353,131.9077,-27.14361)" />
    <path
       style="font-size:12;fill:#e9c720;fill-rule:evenodd;stroke:#cb4f46;stroke-width:0.375;"
       d="M 421.964 692.332 C 426.533 692.304 425.308 693.585 424.984 705.788 C 424.626 719.463 413.077 720.993 410.331 717.241 C 408.024 714.297 408.87 713.412 398.549 714.397 C 396.24 713.234 396.329 710.761 388.787 711.395 C 386.838 711.753 386.903 708.056 383.384 705.846 C 377.252 702.182 375.21 708.547 363.515 701.81 C 362.786 701.402 358.039 698.396 358.907 692.452 C 359.81 684.941 352.96 693.37 345.433 690.092 C 343.977 689.441 339.565 687.607 335.673 684.191 C 330.178 679.467 335.932 678.511 343.355 683.328 C 347.94 686.234 354.672 679.547 354.854 672.854 C 355.264 665.771 351.739 663.909 357.202 664.083 C 360.248 664.174 359.524 676.459 354.349 681.898 C 347.421 689.384 352.095 687.94 354.57 687.564 C 357.149 686.919 368.884 672.378 370.841 673.627 C 373.889 675.697 361.693 684.992 364.424 693.792 C 365.727 697.715 372.998 701.471 378.983 702.079 C 386.02 703.251 386.041 693.696 388.893 695.506 C 392.839 698.096 381.35 702.972 393.414 706.528 C 396.079 707.326 397.618 700.543 399.195 700.837 C 402.98 701.454 396.72 708.76 403.489 709.922 C 408.207 710.706 406.915 703.099 409.839 703.562 C 413.224 703.346 410.047 715.73 419.431 714.468 C 423.386 713.949 417.198 692.36 421.964 692.332 z "
       id="path600"
       sodipodi:nodetypes="csscsssssssssssssssssssss"
       transform="matrix(0.587300,0.000000,0.000000,0.587353,116.9181,-30.06185)" />
    <path
       style="font-size:12;fill:#e9c720;fill-rule:evenodd;stroke:#cb4f46;stroke-width:0.375;"
       d="M 275.931 668.348 C 278.648 667.766 283.305 665.243 283.499 661.168 C 283.887 656.705 277.678 655.153 270.304 656.317 C 266.423 656.899 259.826 654.376 255.945 651.077 C 252.064 646.226 252.064 640.794 247.407 643.122 C 243.914 644.674 252.258 653.6 256.333 655.735 C 260.408 657.869 267.006 657.675 267.394 660.78 C 267.782 663.885 265.841 668.736 275.931 668.348 z "
       id="path601"
       sodipodi:nodetypes="cccccccc"
       transform="matrix(0.587300,0.000000,0.000000,0.587353,152.7338,-25.41910)" />
    <path
       style="font-size:12;fill:#e9c720;fill-rule:evenodd;stroke:#cb4f46;stroke-width:0.375;"
       d="M 441.776 689.24 C 440.277 689.966 439.061 703.524 447.528 703.818 C 458.165 704.198 463.514 698.804 466.178 696.886 C 470.603 693.524 478.58 686.802 474.888 681.006 C 473.041 678.902 472.021 684.878 469.89 688.376 C 466.992 693.503 457.071 699.588 449.471 698.759 C 440.163 698.187 443.671 688.755 441.776 689.24 z "
       id="path604"
       sodipodi:nodetypes="csscsss"
       transform="matrix(0.587300,0.000000,0.000000,0.587353,152.3183,-25.45374)" />
    <path
       style="font-size:12;fill:#e9c720;fill-rule:evenodd;stroke:#cb4f46;stroke-width:0.375;"
       d="M 463.634 682.959 C 461.471 681.323 468.446 678.645 469.169 676.113 C 469.892 673.582 466.087 671.196 468.203 668.423 C 470.421 664.772 470.542 675.307 473.362 675.609 C 481.171 676.424 475.596 681.467 472.651 680.493 C 469.316 679.498 464.94 684.191 463.634 682.959 z "
       id="path605"
       sodipodi:nodetypes="csssss"
       transform="matrix(0.587300,0.000000,0.000000,0.587353,152.3183,-25.45374)" />
    <path
       style="font-size:12;fill:#e9c720;fill-rule:evenodd;stroke:#cb4f46;stroke-width:0.375;"
       d="M 457.592 666.995 C 457.09 670.512 459.225 671.391 459.854 669.382 C 460.607 665.613 458.471 663.854 457.592 666.995 z "
       id="path606"
       sodipodi:nodetypes="ccc"
       transform="matrix(0.587300,0.000000,0.000000,0.587353,152.3183,-25.45374)" />
    <path
       style="font-size:12;fill:#e9c720;fill-rule:evenodd;stroke:#cb4f46;stroke-width:0.375;"
       d="M 457.718 664.86 C 456.462 664.96 456.286 669.323 457.922 669.444 C 459.688 669.584 458.872 672.561 460.356 672.522 C 462.119 672.477 462.254 667.527 460.259 667.481 C 458.403 667.435 458.84 664.882 457.718 664.86 z "
       id="path607"
       sodipodi:nodetypes="cssss"
       transform="matrix(0.587300,0.000000,0.000000,0.587353,155.5642,-26.33928)" />
    <path
       style="font-size:12;fill:#e9c720;fill-rule:evenodd;stroke:#cb4f46;stroke-width:0.375;"
       d="M 477.372 662.516 C 475.878 664.405 473.044 655.234 482.583 653.921 C 487.117 654.321 490.984 661.788 490.584 668.989 C 490.431 671.652 490.318 677.657 488.851 680.59 C 487.65 683.39 483.25 692.592 481.116 691.792 C 478.983 690.991 481.674 687.137 485.25 681.79 C 488.142 677.411 489.251 665.255 487.784 663.122 C 486.317 660.988 484.84 668.455 481.783 670.056 C 479.24 671.389 476.583 667.533 476.183 665.666 C 475.867 663.453 477.883 662.091 479.249 664.722 C 480.339 666.698 483.687 662.776 483.609 659.973 C 483.698 655.441 480.692 659.035 477.372 662.516 z "
       id="path608"
       sodipodi:nodetypes="ccsccscsssss"
       transform="matrix(0.587300,0.000000,0.000000,0.587353,152.3183,-25.45374)" />
    <path
       style="font-size:12;fill:#e9c720;fill-rule:evenodd;stroke:#cb4f46;stroke-width:0.375;"
       d="M 497.918 642.053 C 496.718 643.787 492.585 647.654 491.785 649.254 C 490.985 650.854 490.851 653.654 492.184 656.321 C 493.518 658.988 496.318 663.255 495.785 667.122 C 495.251 670.989 492.584 678.99 494.051 678.323 C 495.518 677.657 499.119 669.789 498.319 663.788 C 497.518 657.788 494.718 654.454 495.251 652.454 C 495.784 650.454 499.118 646.72 499.785 644.187 C 500.452 641.653 499.385 634.852 498.452 634.319 C 497.518 633.786 494.184 634.986 495.251 637.253 C 496.318 639.52 498.585 638.186 497.918 642.053 z "
       id="path614"
       sodipodi:nodetypes="ccccccccccc"
       transform="matrix(0.587300,0.000000,0.000000,0.587353,152.3183,-25.45374)" />
    <path
       style="font-size:12;fill:#e9c720;fill-rule:evenodd;stroke:#cb4f46;stroke-width:0.375;"
       d="M 503.603 644.978 C 502.24 646.672 502.919 655.892 504.789 652.599 C 506.49 649.391 504.692 643.472 503.603 644.978 z "
       id="path615"
       transform="matrix(0.646071,0.000000,0.000000,0.473165,122.6089,48.30332)"
       sodipodi:nodetypes="css" />
    <path
       style="font-size:12;fill:#e9c720;fill-rule:evenodd;stroke:#cb4f46;stroke-width:0.375;"
       d="M 457.437 666.761 C 456.935 670.278 459.225 671.391 459.854 669.382 C 460.607 665.613 458.316 663.62 457.437 666.761 z "
       id="path616"
       sodipodi:nodetypes="ccc"
       transform="matrix(0.821348,0.000000,0.000000,0.543023,49.23640,23.81426)" />
    <path
       style="font-size:12;fill:#e9c720;fill-rule:evenodd;stroke:#cb4f46;stroke-width:0.375;"
       d="M 457.54 667.566 C 457.038 671.083 459.277 671.391 459.906 669.382 C 460.659 665.613 458.419 664.425 457.54 667.566 z "
       id="path620"
       sodipodi:nodetypes="ccc"
       transform="matrix(1.217429,0.000000,0.000000,0.445486,-129.1914,86.87083)" />
    <path
       style="font-size:12;fill:#c64d44;fill-rule:evenodd;stroke:#cb4f46;stroke-width:0.375;"
       d="M 275.349 659.034 C 272.866 657.924 273.021 662.914 274.185 664.273 C 275.349 665.631 282.119 662.148 275.349 659.034 z "
       id="path603"
       sodipodi:nodetypes="ccs"
       transform="matrix(0.587300,0.000000,0.000000,0.587353,152.7338,-25.41902)" />
    <path
       style="font-size:12;fill:#cb4f46;fill-rule:evenodd;stroke:#000000;stroke-width:2.5;stroke-linecap:round;"
       d="M 385.652 680.278 C 360.707 685.271 343.579 699.893 351.609 704.866 C 356.526 708.144 379.622 699.138 384.495 691.493 C 393.356 705.016 417.395 710.117 423.201 707.085 "
       id="path676"
       sodipodi:nodetypes="cscc"
       transform="matrix(0.587300,0.000000,0.000000,0.587353,152.3183,-198.8207)" />
    <path
       style="font-size:12;fill:#cb4f46;fill-rule:evenodd;stroke-width:1pt;"
       d="M 256.274 672.278 C 260.414 678.676 281.864 694.105 297.293 695.234 C 312.723 696.363 347.72 703.513 354.494 700.502 C 361.268 697.492 380.46 684.32 385.352 686.578 C 390.245 688.836 418.845 704.642 429.382 704.265 C 439.919 703.889 508.033 684.697 510.291 680.934 C 512.549 677.17 496.743 667.386 486.583 667.386 C 476.422 667.386 256.274 672.655 256.274 672.278 z "
       id="path696"
       transform="matrix(0.587300,0.000000,0.000000,0.587353,152.3183,-198.8207)" />
    <path
       style="font-size:12;fill:#cb4f46;fill-rule:evenodd;stroke:#000000;stroke-width:2.5;stroke-linecap:round;"
       d="M 316.201 703.328 C 316.325 707.174 319.282 709.955 326.374 710.028 C 338.284 710.276 358.431 704.643 370.465 691.121 "
       id="path675"
       transform="matrix(0.587300,0.000000,0.000000,0.587353,152.3183,-198.8207)" />
    <path
       style="font-size:12;fill:#cb4f46;fill-rule:evenodd;stroke:#000000;stroke-width:2.5;stroke-linecap:round;"
       d="M 280.47 697.621 C 279.85 700.847 285.185 705.065 295.606 705.189 C 306.027 705.313 342.378 700.847 354.04 688.689 "
       id="path674"
       transform="matrix(0.587300,0.000000,0.000000,0.587353,152.3183,-198.8207)" />
    <path
       style="font-size:12;fill:#cb4f46;fill-rule:evenodd;stroke:#000000;stroke-width:2.5;stroke-linecap:round;"
       d="M 255.86 687.848 C 250.277 695.043 268.064 697.622 278.733 697.497 C 289.403 697.373 316.939 697.231 329.272 688.051 "
       id="path673"
       transform="matrix(0.587300,0.000000,0.000000,0.587353,152.3183,-198.8207)" />
    <path
       style="font-size:12;fill:#cb4f46;fill-rule:evenodd;stroke:#000000;stroke-width:2.5;stroke-linecap:round;"
       d="M 236.367 675.778 C 231.032 682.85 248.958 689.061 270.793 688.565 C 290.891 688.069 311.362 681.121 311.362 681.121 "
       id="path672"
       transform="matrix(0.587300,0.000000,0.000000,0.587353,152.3183,-198.8207)" />
    <path
       style="font-size:12;fill:#cb4f46;fill-rule:evenodd;stroke:#000000;stroke-width:2.5;stroke-linecap:round;"
       d="M 452.476 703.328 C 452.352 707.174 449.395 709.955 442.303 710.028 C 430.393 710.276 410.246 704.643 398.212 691.121 "
       id="path680"
       transform="matrix(0.587300,0.000000,0.000000,0.587353,152.3183,-198.8207)" />
    <path
       style="font-size:12;fill:#cb4f46;fill-rule:evenodd;stroke:#000000;stroke-width:2.5;stroke-linecap:round;"
       d="M 488.207 697.621 C 488.827 700.847 483.492 705.065 473.071 705.189 C 462.65 705.313 426.299 700.847 414.637 688.689 "
       id="path679"
       transform="matrix(0.587300,0.000000,0.000000,0.587353,152.3183,-198.8207)" />
    <path
       style="font-size:12;fill:#cb4f46;fill-rule:evenodd;stroke:#000000;stroke-width:2.5;stroke-linecap:round;"
       d="M 512.661 688.004 C 518.244 695.2 500.613 697.622 489.944 697.497 C 479.274 697.373 451.738 697.231 439.405 688.051 "
       id="path678"
       transform="matrix(0.587300,0.000000,0.000000,0.587353,152.3183,-198.8207)" />
    <path
       style="font-size:12;fill:#cb4f46;fill-rule:evenodd;stroke:#000000;stroke-width:2.5;stroke-linecap:round;"
       d="M 532.37 675.657 C 537.705 682.729 519.719 689.061 497.884 688.565 C 477.786 688.069 457.315 681.121 457.315 681.121 "
       id="path677"
       transform="matrix(0.587300,0.000000,0.000000,0.587353,152.3183,-198.8207)" />
    <path
       style="font-size:12;fill:#cb4f46;fill-rule:evenodd;stroke:#000000;stroke-width:2.5;stroke-linecap:round;"
       d="M 279.214 675.125 C 251.479 679.13 238.704 677.089 233.169 674.443 C 226.254 671.4 214.412 662.134 231.904 661.797 C 243.494 661.571 249.335 662.456 262.511 662.387 C 296.216 661.965 344.871 635.351 359.621 635.242 C 373.322 635.141 376.957 641.475 384.768 641.604 C 392.766 641.697 395.355 635.141 409.056 635.242 C 423.806 635.351 472.461 661.965 506.166 662.387 C 519.342 662.456 525.183 661.571 536.773 661.797 C 554.265 662.134 542.423 671.4 535.508 674.443 C 529.973 677.089 517.198 679.13 489.463 675.125 "
       id="path681"
       transform="matrix(0.587300,0.000000,0.000000,0.587353,152.3183,-198.8207)" />
    <path
       style="font-size:12;fill:#cb4f46;fill-rule:evenodd;stroke:#000000;stroke-width:2.5;"
       d="M 383.546 280.288 C 370.498 280.943 352.539 278.714 346.772 293.265 C 337.989 309.912 340.466 328.783 344.412 329.181 C 351.477 329.96 352.149 310.334 355.161 310.305 C 358.31 310.269 358.307 327.346 364.468 327.215 C 369.056 327.084 371.94 310.043 373.382 310.174 C 374.824 310.305 377.839 326.559 383.642 326.559 C 389.839 326.559 392.46 310.305 393.902 310.174 C 395.344 310.043 398.228 327.084 402.816 327.215 C 408.977 327.346 408.974 310.269 412.123 310.305 C 415.135 310.334 416.462 329.829 423.527 329.05 C 427.473 328.652 429.426 309.912 420.643 293.265 C 414.876 278.714 396.524 280.943 383.546 280.288 z "
       id="path618"
       sodipodi:nodetypes="ccccccccccccc"
       transform="matrix(0.587300,0.000000,0.000000,0.587353,152.7338,-25.41902)" />
    <path
       style="font-size:12;fill:none;fill-rule:evenodd;stroke:#000000;stroke-width:2.5;"
       d="M 352.22 286.251 C 355.724 292.138 383.055 291.998 384.597 291.998 C 386.139 291.998 409.966 292.278 415.572 286.532 "
       id="path619"
       sodipodi:nodetypes="ccc"
       transform="matrix(0.587300,0.000000,0.000000,0.587353,152.7338,-25.41902)" />
    <path
       style="font-size:12;fill:#cb4f46;fill-rule:evenodd;stroke:#000000;stroke-width:2.5;"
       d="M 378.616 224.864 L 378.616 282.896 C 378.616 282.896 378.93 286.136 383.74 286.241 C 388.55 286.346 389.281 283.523 389.281 283.104 L 389.072 224.759 "
       id="path628"
       sodipodi:nodetypes="ccccc"
       transform="matrix(0.587300,0.000000,0.000000,0.587353,152.7338,-25.41902)" />
    <path
       style="font-size:12;fill:#cb4f46;fill-rule:evenodd;stroke:#000000;stroke-width:2.5;"
       d="M 384.246 231.589 C 406.11 230.468 412.629 243.363 418.796 246.166 C 424.963 248.969 427.766 250.09 436.176 249.529 C 444.585 248.969 421.599 263.546 421.599 264.106 L 430.009 279.243 C 422.16 280.364 407.296 273.118 401.417 269.152 C 394.767 265.225 387.401 267.47 384.598 266.909 L 384.246 231.589 z "
       id="path625"
       sodipodi:nodetypes="cccccscc"
       transform="matrix(0.587300,0.000000,0.000000,0.587353,152.7338,-25.41902)" />
    <path
       transform="matrix(0.852533,0.000000,0.000000,0.902007,118.3419,-138.4982)"
       style="font-size:12;fill:#cb4f46;fill-rule:evenodd;stroke:#000000;stroke-width:1.6744;"
       d="M 313.396 264.666 C 313.396 268.999 309.503 272.515 304.707 272.515 C 299.91 272.515 296.017 268.999 296.017 264.666 C 296.017 260.334 299.91 256.818 304.707 256.818 C 309.503 256.818 313.396 260.334 313.396 264.666 z "
       id="path690" />
    <g
       id="g796"
       style="font-size:12;fill:#e9c720;stroke:#cb4f46;stroke-width:0.375;"
       transform="matrix(0.587300,0.000000,0.000000,0.587353,152.3183,-198.8207)">
      <path
         style="font-size:12;fill:#e9c720;fill-rule:evenodd;stroke:#cb4f46;stroke-width:0.375;stroke-dasharray:none;stroke-linejoin:miter;stroke-linecap:butt;stroke-opacity:1;fill-opacity:1;"
         d="M 249.321 508.254 C 247.655 510.585 246.218 504.455 240.494 508.753 C 237.266 511.512 235.973 515.74 235.996 524.575 C 236.016 532.066 240.327 537.067 242.826 536.567 C 246.656 536.067 244.657 526.907 248.821 525.242 C 254.817 522.41 263.311 526.74 264.81 532.236 C 266.309 537.732 261.978 543.728 257.315 543.062 C 254.65 542.063 258.814 538.233 259.147 536.567 C 259.48 534.902 259.979 529.405 255.982 527.907 C 251.985 526.408 252.652 531.904 252.485 533.403 C 252.319 534.902 249.487 539.565 246.323 539.398 C 243.159 539.232 238.13 539.249 233.165 533.903 C 230.533 531.16 227.336 523.743 230.168 514.416 C 232.999 505.09 237.829 504.257 240.494 504.09 C 243.158 503.924 249.987 505.589 249.321 508.254 z "
         id="path621"
         sodipodi:nodetypes="cssccccccccsccc"
         transform="translate(0.000000,295.1666)" />
      <path
         style="font-size:12;fill:#e9c720;fill-rule:evenodd;stroke:#cb4f46;stroke-width:0.375;stroke-dasharray:none;stroke-linejoin:miter;stroke-linecap:butt;stroke-opacity:1;fill-opacity:1;"
         d="M 242.492 547.059 C 239.713 545.574 243.537 540.163 236.33 542.063 C 233.43 542.871 240.66 551.223 243.824 551.557 C 247.322 551.223 246.347 548.953 242.492 547.059 z "
         id="path622"
         sodipodi:nodetypes="cscs"
         transform="translate(0.000000,295.1666)" />
      <path
         style="font-size:12;fill:#e9c720;fill-rule:evenodd;stroke:#cb4f46;stroke-width:0.375;stroke-dasharray:none;stroke-linejoin:miter;stroke-linecap:butt;stroke-opacity:1;fill-opacity:1;"
         d="M 250.154 551.557 C 251.652 558.385 253.071 557.806 253.318 561.216 C 253.442 565.572 245.989 563.714 244.99 565.712 C 243.991 567.711 242.659 572.874 247.488 573.207 C 252.318 573.54 259.25 571.684 260.645 575.039 C 264.406 584.482 272.427 583.113 276.167 581.644 C 280.397 579.951 290.352 570.98 292.622 570.209 C 296.002 568.971 289.458 566.545 285.628 569.876 C 284.629 570.876 276.301 579.37 271.971 579.536 C 268.808 579.888 263.908 571.87 264.143 569.044 C 264.476 567.045 271.763 568.694 272.804 564.547 C 273.579 561.584 273.636 558.384 271.305 558.218 C 268.973 558.051 257.981 559.55 257.648 557.885 C 255.649 553.055 259.647 551.057 258.148 549.724 C 256.482 549.058 250.32 548.059 250.154 551.557 z "
         id="path623"
         sodipodi:nodetypes="csccssscssscccc"
         transform="translate(0.000000,295.1666)" />
      <path
         style="font-size:12;fill:#e9c720;fill-rule:evenodd;stroke:#cb4f46;stroke-width:0.375;stroke-dasharray:none;stroke-linejoin:miter;stroke-linecap:butt;stroke-opacity:1;fill-opacity:1;"
         d="M 287.182 578.04 C 283.658 581.731 274.381 587.64 274.381 591.814 C 274.381 594.18 276.97 597.889 279.111 598.771 C 282.307 600.03 287.209 599.715 290.938 596.823 C 295.155 593.397 297.052 589.924 295.252 589.31 C 288.874 587.487 288.713 596.278 285.651 596.545 C 282.726 596.788 278.277 592.092 284.121 586.248 C 289.964 580.405 298.035 574.561 297.756 572.891 C 297.478 571.222 289.711 575.491 287.182 578.04 z "
         id="path638"
         sodipodi:nodetypes="csssssccs"
         transform="translate(0.000000,295.1666)" />
      <path
         style="font-size:12;fill:#e9c720;fill-rule:evenodd;stroke:#cb4f46;stroke-width:0.375;stroke-dasharray:none;stroke-linejoin:miter;stroke-linecap:butt;stroke-opacity:1;fill-opacity:1;"
         d="M 259.354 585.692 C 259.093 588.043 265.337 588.057 266.45 585.97 C 267.284 584.44 259.632 583.327 259.354 585.692 z "
         id="path639"
         sodipodi:nodetypes="ccs"
         transform="translate(12.66161,312.0024)" />
      <path
         style="font-size:12;fill:#e9c720;fill-rule:evenodd;stroke:#cb4f46;stroke-width:0.375;stroke-dasharray:none;stroke-linejoin:miter;stroke-linecap:butt;stroke-opacity:1;fill-opacity:1;"
         d="M 273.842 583.058 C 270.318 586.749 274.259 590.945 276.951 594.384 C 278.442 596.221 281.866 598.011 284.007 598.893 C 287.203 600.152 293.573 599.715 297.302 596.823 C 301.519 593.397 301.852 587.38 299.291 587.352 C 292.672 587.278 297.28 596.156 294.218 596.423 C 291.293 596.666 283.092 594.817 279.103 586.37 C 276.824 581.391 283.305 580.439 282.335 578.276 C 281.347 575.952 276.371 580.509 273.842 583.058 z "
         id="path640"
         sodipodi:nodetypes="cssssssss"
         transform="translate(19.20111,316.1765)" />
      <path
         style="font-size:12;fill:#e9c720;fill-rule:evenodd;stroke:#cb4f46;stroke-width:0.375;stroke-dasharray:none;stroke-linejoin:miter;stroke-linecap:butt;stroke-opacity:1;fill-opacity:1;"
         d="M 259.354 585.692 C 259.093 588.043 265.337 588.057 266.45 585.97 C 267.284 584.44 259.632 583.327 259.354 585.692 z "
         id="path641"
         sodipodi:nodetypes="ccs"
         transform="matrix(0.746044,-0.665897,0.665897,0.746044,-273.2715,634.6580)" />
      <path
         style="font-size:12;fill:#e9c720;fill-rule:evenodd;stroke:#cb4f46;stroke-width:0.375;stroke-dasharray:none;stroke-linejoin:miter;stroke-linecap:butt;stroke-opacity:1;fill-opacity:1;"
         d="M 319.557 621.309 C 319.367 624.017 320.169 627.673 316.987 627.796 C 313.805 627.918 309.766 623.634 306.584 623.757 C 303.402 623.879 302.055 626.327 302.422 627.674 C 302.789 629.02 308.297 630.611 317.721 629.999 C 327.145 629.387 325.064 635.139 331.673 634.649 C 338.282 634.16 339.261 631.957 338.772 630.489 C 338.282 629.02 332.653 629.999 330.572 629.632 C 328.491 629.264 324.82 625.96 324.33 623.145 C 323.841 620.33 323.841 615.478 326.288 615.435 C 330.817 615.356 328.725 619.55 328.898 621.022 C 329.051 622.325 330.532 623.676 332.53 621.309 C 335.183 618.168 333.754 613.231 331.184 611.518 C 328.614 609.805 320.036 614.718 319.557 621.309 z "
         id="path642"
         sodipodi:nodetypes="cccccccccssscs"
         transform="translate(0.000000,295.1666)" />
      <path
         style="font-size:12;fill:#e9c720;fill-rule:evenodd;stroke:#cb4f46;stroke-width:0.375;stroke-dasharray:none;stroke-linejoin:miter;stroke-linecap:butt;stroke-opacity:1;fill-opacity:1;"
         d="M 342.933 621.799 C 342.451 626.652 338.978 627.005 339.384 628.775 C 339.886 630.809 341.143 631.447 341.954 636.485 C 342.413 638.969 345.503 640.022 349.42 639.79 C 352.621 639.702 354.809 635.366 356.885 635.506 C 359.82 635.663 357.375 642.307 364.229 642.238 C 369.736 642.186 371.083 637.464 373.041 637.342 C 374.999 637.219 374.754 642.849 379.283 642.849 C 383.811 642.849 385.769 637.709 387.85 637.587 C 390.053 637.709 390.053 643.094 396.784 642.727 C 403.516 642.359 408.534 641.381 410.125 640.035 C 411.716 638.688 412.45 634.282 414.653 634.037 C 416.856 633.793 420.283 638.198 423.343 638.198 C 426.403 638.198 432.766 630.489 434.724 630.366 C 436.683 630.244 438.274 635.139 442.68 635.139 C 449.534 635.017 450.335 626.106 453.527 625.685 C 459.281 625.125 459.508 622.778 459.814 622.166 C 460.426 620.452 459.77 612.417 458.463 608.748 C 457.828 606.812 450.513 590.467 447.209 590.1 C 443.904 589.733 444.883 594.506 446.841 597.321 C 448.8 600.136 458.835 613.231 457.489 617.025 C 456.143 620.82 449.044 615.434 443.414 615.434 C 435.581 615.434 430.822 631.27 425.3 631.834 C 422.875 632.094 420.283 629.754 421.14 628.04 C 422.731 625.593 424.566 619.718 418.447 620.575 C 412.328 621.431 406.086 624.246 407.065 627.551 C 408.044 630.855 411.716 634.16 407.677 635.506 C 403.638 636.852 396.662 637.22 393.235 636.118 C 389.808 635.017 391.888 627.306 389.808 627.306 C 387.483 627.306 387.361 636.363 384.056 636.608 C 380.752 636.852 377.814 635.506 377.08 632.936 C 376.345 630.366 378.304 627.184 376.101 626.817 C 373.898 626.449 371.694 636.975 368.39 636.73 C 365.086 636.485 364.963 635.751 363.005 633.67 C 361.047 631.59 364.718 624.491 361.414 623.879 C 358.109 623.267 354.804 634.405 352.602 634.283 C 350.398 634.16 347.094 634.038 346.115 631.835 C 345.625 630.733 345.762 623.842 345.872 621.048 C 345.811 619.726 342.69 620.307 342.933 621.799 z "
         id="path643"
         sodipodi:nodetypes="cssssscccccccccscsccccsccccccsccsscscss"
         transform="translate(0.000000,295.1666)" />
      <path
         style="font-size:12;fill:#e9c720;fill-rule:evenodd;stroke:#cb4f46;stroke-width:0.375;stroke-dasharray:none;stroke-linejoin:miter;stroke-linecap:butt;stroke-opacity:1;fill-opacity:1;"
         d="M 454.185 591.813 C 460.216 600.944 465.648 613.292 468.994 613.965 C 471.222 614.292 462.017 597.444 458.958 593.649 C 456.388 589.733 448.997 583.854 454.185 591.813 z "
         id="path644"
         sodipodi:nodetypes="cscs"
         transform="translate(0.000000,295.1666)" />
      <path
         style="font-size:12;fill:#e9c720;fill-rule:evenodd;stroke:#cb4f46;stroke-width:0.375;stroke-dasharray:none;stroke-linejoin:miter;stroke-linecap:butt;stroke-opacity:1;fill-opacity:1;"
         d="M 342.157 613.741 C 341.013 616.028 341.422 618.234 343.382 617.907 C 345.342 617.58 347.874 613.741 347.221 613.006 C 346.568 612.271 343.709 611.618 342.157 613.741 z "
         id="path645"
         transform="matrix(0.787223,0.000000,0.000000,0.968727,73.02130,314.6675)" />
      <path
         style="font-size:12;fill:#e9c720;fill-rule:evenodd;stroke:#cb4f46;stroke-width:0.375;stroke-dasharray:none;stroke-linejoin:miter;stroke-linecap:butt;stroke-opacity:1;fill-opacity:1;"
         d="M 471.9 595.862 C 471.879 600.813 475.385 606.413 481.909 606.06 C 488.434 605.708 495.588 598.492 496.117 591.086 C 496.646 583.68 487.505 578.243 485.213 579.83 C 482.92 581.417 486.073 586.94 491.929 587.281 C 494.437 587.433 493.618 592.337 488.813 596.217 C 483.778 600.197 476.324 600.121 474.501 597.375 C 473.091 593.495 471.807 593.468 471.9 595.862 z "
         id="path646"
         sodipodi:nodetypes="ccccsscs"
         transform="translate(0.000000,295.1666)" />
      <path
         style="font-size:12;fill:#e9c720;fill-rule:evenodd;stroke:#cb4f46;stroke-width:0.375;stroke-dasharray:none;stroke-linejoin:miter;stroke-linecap:butt;stroke-opacity:1;fill-opacity:1;"
         d="M 475.832 580.855 C 474.878 582.816 476.867 587.336 479.024 587.136 C 481.211 586.922 476.532 579.557 475.832 580.855 z "
         id="path647"
         sodipodi:nodetypes="css"
         transform="translate(0.000000,295.1666)" />
      <path
         style="font-size:12;fill:#e9c720;fill-rule:evenodd;stroke:#cb4f46;stroke-width:0.375;stroke-dasharray:none;stroke-linejoin:miter;stroke-linecap:butt;stroke-opacity:1;fill-opacity:1;"
         d="M 494.985 577.354 C 496.255 580.291 497.765 584.768 500.442 584.768 C 503.12 584.768 505.282 585.489 505.282 587.754 C 505.282 590.019 498.302 597.56 498.074 600.111 C 497.685 604.459 500.854 604.23 502.399 601.861 C 503.943 599.493 508.12 588.354 508.989 585.282 C 509.367 582.854 512.369 578.29 512.49 573.54 C 512.298 568.188 517.226 572.514 519.595 572.72 C 521.765 572.815 524.126 568.807 524.435 565.924 C 524.744 563.04 522.169 562.526 522.169 559.952 C 522.169 558.51 524.923 553.876 525.052 550.787 C 525.359 548.055 519.698 540.181 517.33 540.284 C 515.373 540.387 517.021 543.27 518.154 544.506 C 519.286 545.742 522.169 548.316 521.14 550.581 C 519.286 555.009 510.224 556.142 509.813 560.879 C 509.401 564.277 510.224 574.986 507.444 574.986 C 504.664 574.986 502.388 568.296 498.074 568.292 C 493.236 568.163 493.982 575.117 494.985 577.354 z "
         id="path648"
         sodipodi:nodetypes="cccscsssssscccccss"
         transform="translate(0.000000,295.1666)" />
      <path
         style="font-size:12;fill:#e9c720;fill-rule:evenodd;stroke:#cb4f46;stroke-width:0.375;stroke-dasharray:none;stroke-linejoin:miter;stroke-linecap:butt;stroke-opacity:1;fill-opacity:1;"
         d="M 502.09 536.68 C 502.223 538.587 506.209 546.874 508.577 546.874 C 511.975 546.874 507.032 542.962 507.341 541.52 C 507.65 540.078 512.518 537.906 510.533 537.401 C 506.983 536.314 501.914 534.159 502.09 536.68 z "
         id="path651"
         sodipodi:nodetypes="cssss"
         transform="translate(0.000000,295.1666)" />
      <path
         style="font-size:12;fill:#e9c720;fill-rule:evenodd;stroke:#cb4f46;stroke-width:0.375;stroke-dasharray:none;stroke-linejoin:miter;stroke-linecap:butt;stroke-opacity:1;fill-opacity:1;"
         d="M 501.781 525.971 C 502.502 528.648 513.519 532.664 518.256 534.003 C 522.993 535.342 528.759 541.005 530.922 539.151 C 533.084 537.298 516.403 530.708 513.932 529.781 C 511.461 528.854 501.266 523.294 501.781 525.971 z "
         id="path652"
         sodipodi:nodetypes="ccccc"
         transform="translate(0.000000,295.1666)" />
      <path
         style="font-size:12;fill:#e9c720;fill-rule:evenodd;stroke:#cb4f46;stroke-width:0.375;stroke-dasharray:none;stroke-linejoin:miter;stroke-linecap:butt;stroke-opacity:1;fill-opacity:1;"
         d="M 535.041 543.271 C 539.16 543.373 536.894 535.238 535.864 533.282 C 534.835 531.325 533.29 536.989 533.496 538.637 C 533.702 540.284 533.805 543.168 535.041 543.271 z "
         id="path718"
         sodipodi:nodetypes="cccc"
         transform="translate(0.000000,295.1666)" />
      <path
         style="font-size:12;fill:#e9c720;fill-rule:evenodd;stroke:#cb4f46;stroke-width:0.375;stroke-dasharray:none;stroke-linejoin:miter;stroke-linecap:butt;stroke-opacity:1;fill-opacity:1;"
         d="M 511.048 502.803 C 511.013 504.646 522.427 503.338 527.73 504.759 C 530.018 505.4 537.821 509.598 539.262 508.569 C 540.91 506.406 528.656 501.773 521.654 501.773 C 519.387 501.807 511.088 500.63 511.048 502.803 z "
         id="path655"
         sodipodi:nodetypes="cscss"
         transform="translate(0.000000,295.1666)" />
      <path
         style="font-size:12;fill:#e9c720;fill-rule:evenodd;stroke:#cb4f46;stroke-width:0.375;stroke-dasharray:none;stroke-linejoin:miter;stroke-linecap:butt;stroke-opacity:1;fill-opacity:1;"
         d="M 508.062 508.054 C 506.019 510.241 514.946 512.687 522.89 512.996 C 530.803 513.305 535.931 518.059 535.247 521.543 C 534.114 527.413 524.229 523.602 525.465 526.795 C 526.185 529.266 530.532 528.359 531.025 531.017 C 531.366 533.695 534.156 534.166 534.007 530.865 C 533.991 528.238 540.138 523.911 539.984 522.676 C 539.675 520.205 535.968 511.555 526.494 510.628 C 517.021 509.702 510.67 505.137 508.062 508.054 z "
         id="path720"
         sodipodi:nodetypes="csscsssss"
         transform="translate(0.000000,295.1666)" />
    </g>
    <path
       style="font-size:12;fill:#cb4f46;fill-rule:evenodd;stroke:#cb4f46;stroke-width:0.125;"
       d="M 254.864 565.801 C 253.594 565.068 249.067 569.137 250.691 570.043 C 253.773 571.789 256.795 566.881 254.864 565.801 z "
       id="path629"
       sodipodi:nodetypes="css"
       transform="matrix(0.587300,0.000000,0.000000,0.587353,152.3183,-25.45362)" />
    <path
       style="font-size:12;fill:#cb4f46;fill-rule:evenodd;stroke:#cb4f46;stroke-width:0.125;"
       d="M 253.213 565.923 C 251.015 565.65 249.953 570.316 251.792 570.594 C 256.464 571.239 257.385 566.428 253.213 565.923 z "
       id="path634"
       sodipodi:nodetypes="css"
       transform="matrix(0.587300,0.000000,0.000000,0.587353,158.9996,-28.36370)" />
    <path
       style="font-size:12;fill:#cb4f46;fill-rule:evenodd;stroke:#cb4f46;stroke-width:0.125;"
       d="M 501.575 574.059 C 500.534 574.053 497.25 575.5 498.383 577.766 C 499.515 580.031 502.767 580.086 504.252 578.796 C 505.577 577.542 505.278 574.08 501.575 574.059 z "
       id="path649"
       sodipodi:nodetypes="csss"
       transform="matrix(0.587300,0.000000,0.000000,0.587353,152.3183,-25.45362)" />
    <path
       style="font-size:12;fill:#cb4f46;fill-rule:evenodd;stroke:#cb4f46;stroke-width:0.125;"
       d="M 514.446 564.174 C 514.778 566.665 516.601 566.261 518.05 565.718 C 519.698 564.997 520.178 562.818 518.566 562.011 C 516.883 561.17 514.106 562.396 514.446 564.174 z "
       id="path650"
       sodipodi:nodetypes="csss"
       transform="matrix(0.587300,0.000000,0.000000,0.587353,152.3183,-25.45362)" />
    <path
       style="font-size:12;fill:#cb4f46;fill-rule:evenodd;stroke:#cb4f46;stroke-width:0.125;"
       d="M 440.03 917.584 C 437.811 922.484 439.722 927.277 443.26 926.354 C 446.799 925.431 450.338 918.661 447.722 916.507 C 445.107 914.353 441.503 914.329 440.03 917.584 z "
       id="path657"
       sodipodi:nodetypes="cccs"
       transform="matrix(0.587300,0.000000,0.000000,0.587353,152.3183,-198.8207)" />
    <g
       id="g919"
       transform="matrix(0.587300,0.000000,0.000000,0.587353,152.3183,-198.8207)"
       style="font-size:12;">
      <path
         style="font-size:12;fill:#cb4f46;fill-rule:evenodd;stroke-width:1pt;"
         d="M 140.719 708.258 C 132.463 707.508 113.701 703.755 112.95 707.508 C 112.2 711.26 123.082 755.165 128.711 760.793 C 134.339 766.422 160.607 778.43 163.234 776.929 C 165.86 775.428 157.98 748.035 154.978 743.157 C 151.976 738.278 142.97 720.642 143.721 719.891 C 144.471 719.141 140.343 708.258 140.719 708.258 z "
         id="path697"
         transform="translate(0.750504,-3.051758e-5)"
         sodipodi:nodetypes="ccccccc" />
      <path
         style="font-size:12;fill:#cb4f46;fill-rule:evenodd;stroke:#000000;stroke-width:2.5;stroke-dasharray:none;"
         d="M 124.242 411.536 C 126.254 400.973 138.536 413.616 137.32 427.377 C 136.721 432.046 139.332 437.189 141.847 439.704 "
         id="path632"
         sodipodi:nodetypes="ccc"
         transform="translate(0.707550,295.2256)" />
      <path
         style="font-size:12;fill:#cb4f46;fill-rule:evenodd;stroke:#000000;stroke-width:2.5;stroke-dasharray:none;"
         d="M 134.805 412.039 L 134.344 412.653 C 140.504 402.229 146.46 417.069 147.38 434.171 "
         id="path633"
         sodipodi:nodetypes="ccc"
         transform="translate(0.707550,295.2256)" />
      <path
         style="font-size:12;fill:#cb4f46;fill-rule:evenodd;stroke:#000000;stroke-width:2.5;stroke-dasharray:none;"
         d="M 113.615 410.414 C 113.259 401.878 127.124 399.426 126.266 430.284 C 132.311 434.196 139.426 449.134 139.781 454.47 C 144.318 455.537 151.874 461.116 153.714 465.74 "
         id="path631"
         sodipodi:nodetypes="cccc"
         transform="translate(0.707550,295.2256)" />
      <path
         style="font-size:12;fill:#cb4f46;fill-rule:evenodd;stroke:#000000;stroke-width:2.5;stroke-dasharray:none;"
         d="M 147.625 581.395 C 148.273 557.9 148.643 507.589 146.183 502.131 C 141.857 492.028 120.093 480.313 113.461 464.429 C 106.822 447.625 101.162 409.295 103.857 404.675 C 107.386 398.016 119.152 412.856 115.951 429.217 C 130.179 445.934 127.188 455.892 129.822 458.027 C 138.596 464.784 151.993 469.409 154.363 475.455 C 159.24 486.272 153.297 460.16 149.384 454.825 C 145.472 449.49 138.714 437.753 143.338 434.908 C 147.961 432.062 156.142 439.532 157.209 441.666 C 158.276 443.8 169.302 455.893 172.503 458.738 C 178.194 463.006 192.567 472.547 192.281 480.726 C 192.266 493.948 193.44 580.938 193.44 580.938 "
         id="path630"
         sodipodi:nodetypes="cssscssccccsc"
         transform="translate(0.707550,295.2256)" />
      <path
         style="font-size:12;fill:#cb4f46;fill-rule:evenodd;stroke:#000000;stroke-width:2.5;stroke-dasharray:none;"
         d="M 144.968 612.374 C 144.968 612.374 144.878 621.831 144.879 622.009 C 148.983 627.005 166.113 627.561 169.947 627.54 C 173.699 627.43 189.817 627.718 193.564 621.563 C 193.653 621.385 193.796 613.53 193.796 611.371 "
         id="path581"
         sodipodi:nodetypes="ccscc"
         transform="translate(0.707550,295.2256)" />
      <path
         style="font-size:12;fill:#cb4f46;fill-rule:evenodd;stroke:#000000;stroke-width:2.5;stroke-dasharray:none;"
         d="M 144.202 585.22 C 139.457 586.275 138.217 592.072 141.565 596.293 C 144.28 599.717 155.538 603.674 168.456 603.939 C 181.373 604.201 198.51 599.72 199.3 592.602 C 199.564 585.484 192.879 585.918 193.67 586.182 "
         id="path637"
         sodipodi:nodetypes="csccc"
         transform="translate(0.707550,308.4084)" />
      <path
         style="font-size:12;fill:#cb4f46;fill-rule:evenodd;stroke:#000000;stroke-width:2.5;stroke-dasharray:none;"
         d="M 144.202 585.306 C 139.457 586.361 138.57 592.336 141.918 596.557 C 144.633 599.981 156.065 604.729 168.983 604.993 C 181.9 605.256 198.246 599.984 199.036 592.866 C 199.3 585.748 194.384 586.361 194.027 586.539 "
         id="path636"
         sodipodi:nodetypes="csccc"
         transform="translate(0.707550,295.2256)" />
      <path
         style="font-size:12;fill:#cb4f46;fill-rule:evenodd;stroke:#000000;stroke-width:2.5;stroke-dasharray:none;"
         d="M 171.092 592.602 C 188.227 592.866 199.3 584.43 199.3 579.949 C 199.3 575.467 193.764 575.203 190.336 576.521 C 186.909 577.839 181.637 581.186 170.565 581.266 C 159.231 581.611 149.211 573.358 145.784 573.621 C 142.357 573.885 139.672 577.601 140.775 581.53 C 142.132 585.427 154.22 593.129 171.092 592.602 z "
         id="path635"
         sodipodi:nodetypes="cccscsc"
         transform="translate(0.707550,295.2256)" />
    </g>
    <g
       id="g929"
       transform="matrix(0.587300,0.000000,0.000000,0.587353,152.3183,-198.8207)"
       style="font-size:12;">
      <path
         style="font-size:12;fill:#cb4f46;fill-rule:evenodd;stroke-width:1pt;"
         d="M 140.719 708.258 C 132.463 707.508 113.701 703.755 112.95 707.508 C 112.2 711.26 123.082 755.165 128.711 760.793 C 134.339 766.422 160.607 778.43 163.234 776.929 C 165.86 775.428 157.98 748.035 154.978 743.157 C 151.976 738.278 142.97 720.642 143.721 719.891 C 144.471 719.141 140.343 708.258 140.719 708.258 z "
         id="path869"
         transform="matrix(-1.000000,0.000000,0.000000,1.000000,770.0846,-6.103516e-5)"
         sodipodi:nodetypes="ccccccc" />
      <path
         style="font-size:12;fill:#cb4f46;fill-rule:evenodd;stroke:#000000;stroke-width:2.5;stroke-dasharray:none;"
         d="M 124.242 411.536 C 126.254 400.973 138.536 413.616 137.32 427.377 C 136.721 432.046 139.332 437.189 141.847 439.704 "
         id="path870"
         sodipodi:nodetypes="ccc"
         transform="matrix(-1.000000,0.000000,0.000000,1.000000,770.1276,295.2256)" />
      <path
         style="font-size:12;fill:#cb4f46;fill-rule:evenodd;stroke:#000000;stroke-width:2.5;stroke-dasharray:none;"
         d="M 134.805 412.039 L 134.344 412.653 C 140.504 402.229 146.46 417.069 147.38 434.171 "
         id="path871"
         sodipodi:nodetypes="ccc"
         transform="matrix(-1.000000,0.000000,0.000000,1.000000,770.1276,295.2256)" />
      <path
         style="font-size:12;fill:#cb4f46;fill-rule:evenodd;stroke:#000000;stroke-width:2.5;stroke-dasharray:none;"
         d="M 113.615 410.414 C 113.259 401.878 127.124 399.426 126.266 430.284 C 132.311 434.196 139.426 449.134 139.781 454.47 C 144.318 455.537 151.874 461.116 153.714 465.74 "
         id="path872"
         sodipodi:nodetypes="cccc"
         transform="matrix(-1.000000,0.000000,0.000000,1.000000,770.1276,295.2256)" />
      <path
         style="font-size:12;fill:#cb4f46;fill-rule:evenodd;stroke:#000000;stroke-width:2.5;stroke-dasharray:none;"
         d="M 147.625 581.395 C 148.273 557.9 148.643 507.589 146.183 502.131 C 141.857 492.028 120.093 480.313 113.461 464.429 C 106.822 447.625 101.162 409.295 103.857 404.675 C 107.386 398.016 119.152 412.856 115.951 429.217 C 130.179 445.934 127.188 455.892 129.822 458.027 C 138.596 464.784 151.993 469.409 154.363 475.455 C 159.24 486.272 153.297 460.16 149.384 454.825 C 145.472 449.49 138.714 437.753 143.338 434.908 C 147.961 432.062 156.142 439.532 157.209 441.666 C 158.276 443.8 169.302 455.893 172.503 458.738 C 178.194 463.006 192.567 472.547 192.281 480.726 C 192.266 493.948 193.44 580.938 193.44 580.938 "
         id="path873"
         sodipodi:nodetypes="cssscssccccsc"
         transform="matrix(-1.000000,0.000000,0.000000,1.000000,770.1276,295.2256)" />
      <path
         style="font-size:12;fill:#cb4f46;fill-rule:evenodd;stroke:#000000;stroke-width:2.5;stroke-dasharray:none;"
         d="M 144.968 612.374 C 144.968 612.374 144.878 621.831 144.879 622.009 C 148.983 627.005 166.113 627.561 169.947 627.54 C 173.699 627.43 189.817 627.718 193.564 621.563 C 193.653 621.385 193.796 613.53 193.796 611.371 "
         id="path874"
         sodipodi:nodetypes="ccscc"
         transform="matrix(-1.000000,0.000000,0.000000,1.000000,770.1276,295.2256)" />
      <path
         style="font-size:12;fill:#cb4f46;fill-rule:evenodd;stroke:#000000;stroke-width:2.5;stroke-dasharray:none;"
         d="M 144.202 585.22 C 139.457 586.275 138.217 592.072 141.565 596.293 C 144.28 599.717 155.538 603.674 168.456 603.939 C 181.373 604.201 198.51 599.72 199.3 592.602 C 199.564 585.484 192.879 585.918 193.67 586.182 "
         id="path876"
         sodipodi:nodetypes="csccc"
         transform="matrix(-1.000000,0.000000,0.000000,1.000000,770.1276,308.4084)" />
      <path
         style="font-size:12;fill:#cb4f46;fill-rule:evenodd;stroke:#000000;stroke-width:2.5;stroke-dasharray:none;"
         d="M 144.202 585.306 C 139.457 586.361 138.57 592.336 141.918 596.557 C 144.633 599.981 156.065 604.729 168.983 604.993 C 181.9 605.256 198.246 599.984 199.036 592.866 C 199.3 585.748 194.384 586.361 194.027 586.539 "
         id="path877"
         sodipodi:nodetypes="csccc"
         transform="matrix(-1.000000,0.000000,0.000000,1.000000,770.1276,295.2256)" />
      <path
         style="font-size:12;fill:#cb4f46;fill-rule:evenodd;stroke:#000000;stroke-width:2.5;stroke-dasharray:none;"
         d="M 171.092 592.602 C 188.227 592.866 199.3 584.43 199.3 579.949 C 199.3 575.467 193.764 575.203 190.336 576.521 C 186.909 577.839 181.637 581.186 170.565 581.266 C 159.231 581.611 149.211 573.358 145.784 573.621 C 142.357 573.885 139.672 577.601 140.775 581.53 C 142.132 585.427 154.22 593.129 171.092 592.602 z "
         id="path878"
         sodipodi:nodetypes="cccscsc"
         transform="matrix(-1.000000,0.000000,0.000000,1.000000,770.1276,295.2256)" />
    </g>
  </g>
</svg>
