<?xml version="1.0" encoding="UTF-8" standalone="no"?>
<!DOCTYPE svg PUBLIC "-//W3C//DTD SVG 20010904//EN"
"http://www.w3.org/TR/2001/REC-SVG-20010904/DTD/svg10.dtd"
[
 <!ATTLIST svg
  xmlns:xlink CDATA #FIXED "http://www.w3.org/1999/xlink">
]>
<!-- Created with Sodipodi ("http://www.sodipodi.com/") -->
<svg
   xmlns="http://www.w3.org/2000/svg"
   xmlns:xlink="http://www.w3.org/1999/xlink"
   version="1"
   x="0"
   y="0"
   width="744.095"
   height="1052.36"
   id="svg5">
  <defs
     id="defs61">
    <linearGradient
       x1="0"
       y1="0"
       x2="1"
       y2="0"
       id="linearGradient85"
       gradientUnits="objectBoundingBox"
       spreadMethod="pad">
      <stop
         style="stop-color:#000000;stop-opacity:1;"
         offset="0"
         id="stop86" />
      <stop
         style="stop-color:#ffffff;stop-opacity:1;"
         offset="1"
         id="stop87" />
    </linearGradient>
    <linearGradient
       x1="0"
       y1="0"
       x2="1"
       y2="0"
       id="linearGradient88"
       xlink:href="#linearGradient85"
       gradientUnits="objectBoundingBox"
       spreadMethod="pad" />
  </defs>
  <g
     transform="matrix(4.70715,0,0,4.70715,-93.7827,-22.5139)"
     style="font-size:12;"
     id="g62">
    <path
       d="M 0 0 L 0 45 C 0 50.3732 -1.79447 58.5423 3 62 L 3 57 L 4 57 C 4 66.0567 4.2824 76.0545 14 80 L 14 82 L 10 83 L 1 64 L 0 64 L 0 235 L 203 235 L 203 220 L 176 218 L 177 226 L 182 230 L 149 230 L 149 231 L 153 232 C 144.358 236.588 133.14 229.981 124 228.894 C 118.929 228.29 114.067 230.117 109.015 229.725 C 92.9412 228.475 77.3 225 61 225 L 61 224 L 67 224 L 67 223 L 48 221 L 38 220 L 38 219 L 41 219 L 41 218 L 37 217 L 37 216 L 42 217 L 48 207 L 31 205 L 31 204 L 50 193 L 50 194 L 36 204 L 40 205 L 51 199 L 51 200 L 45 203 L 45 204 L 60 196 L 53 202 L 53 203 L 61 201 L 62 201 C 70.1146 193.966 75.6865 199.459 76 186 L 71 187 L 71 186 C 78.0415 184.43 78.0228 181.466 77 175 L 73 175 L 73 174 L 77 174 L 78 167 L 59 174 C 67.5094 167.8 76.3316 171.098 77 158 C 69.0219 158.431 50.0942 149.527 49.8472 140 C 49.7131 134.825 54.2461 129.661 56 125 C 47.2783 127.199 41.2858 132.893 32 129 C 39.7207 128.692 55.11 128.739 49 117 L 48 117 L 49 120 L 34 121 L 34 120 L 37 118 L 38 118 L 41 121 L 37 114 L 33 118 L 32 118 L 25 111 L 33 113 L 37 104 L 36 104 L 37 108 L 35 106 L 33 107 L 30 105 L 30 104 C 35.7571 103.223 37.4347 100.499 38 95 L 32 95 L 32 94 L 39 93 L 42 86 C 34.5893 88.0866 28.4542 88.0643 21 86 L 19 92 L 32 95 L 32 96 C 24.2383 95.3823 17.5205 93.5235 14 86 L 15 86 L 16 89 L 17 84 C 26.7396 86.737 36.086 87.0877 45 82 C 43.724 90.4569 37.5426 96.0549 39.3673 105.424 C 40.3972 110.713 44.9605 112.482 48.6744 115.619 C 56.9506 122.61 64.4961 133.534 77 130 C 81.2881 140.358 104.081 141.712 112.682 135.972 C 115.857 133.854 115.661 127.252 118 124 C 125.726 129.841 128.038 110.615 129.334 106.961 C 135.74 88.8976 135.966 73.2687 125 57 L 124 57 L 124 61 L 123 61 C 122.395 56.2626 126.209 54.1438 126.252 49.9691 C 126.317 43.773 110.348 49.0322 106 48 L 106 47 L 110 47 L 110 46 C 88.8371 38.5919 72.7566 41.881 54.9606 54.2392 C 42.306 63.0271 36.5641 66.3085 43 82 L 42 82 L 40 78 L 30 81 L 27 78 L 36 77 L 35 71 L 32 76 L 31 76 L 32 70 L 29 68 L 26 70 L 27 67 L 23 64 L 28 66 L 33 64 L 34 64 L 36 66 L 37 61 L 38 61 L 38 64 L 39 64 L 36 58 L 47 57 L 47 55 L 36 43 C 40.6905 48.324 49.2221 58.4544 56 51 C 47.082 45.7904 44.5044 39.6554 42 30 C 33.3403 30.8825 32.3763 35.7812 36 43 L 30 30 L 42 29 L 36 21 C 43.283 13.9439 48.4554 6.39774 58.9961 3.44136 C 63.4983 2.17863 68.3756 2.85118 73 2 L 73 3 L 72 5 C 61.4573 4.56917 50.8027 4.77362 43.4591 14.0787 C 36.0198 23.5051 48.2143 45.4307 57 50 L 61 45 L 60 42 L 54 44 L 59 35 L 60 35 L 63 41 C 66.3699 40.4383 71.9267 38.2934 71 42 L 78 40 L 78 33 L 69 33 L 69 32 C 72.9871 31.9969 76.6677 32.5976 79 29 L 65 29 L 65 28 L 79 28 L 80 19 L 83 22 C 80.7257 24.3379 80.3406 27.2795 84 28 L 84 29 L 81 29 L 82 32 L 91 32 L 91 33 L 83 33 L 83 34 L 97 34 L 86 36 L 97 41 L 96 38 L 98 34 C 100.814 38.1276 109.963 49.6742 116.397 44.9537 C 118.991 43.0504 117.862 37.7732 118.326 35 C 119.565 27.5796 124.201 21.7541 127 15 L 132 14 C 129.308 17.2939 128.58 18.9385 130 23 C 135.709 18.2357 139.635 9.70923 132 5 L 132 4 L 140 6 L 128 28 L 126 22 C 121.227 26.1025 114.64 44.9101 126 43 C 130.75 48.9614 140.508 35.3902 142 31 L 133 34 C 134.911 27.3651 138.348 22.0169 144 18 L 136 31 L 147 21 C 147.706 35.7598 129.832 39.962 128 53 L 134 56 L 131 57 L 136 65 L 137 65 L 136 58 L 137 58 C 137.74 62.0362 138.798 64.277 143 65 L 141 55 L 142 55 L 145 64 L 146 64 L 145 57 L 146 57 L 150 63 L 149 58 L 152 62 L 154 62 L 155 59 L 163 55 L 148 68 L 146 66 L 145 75 L 144 75 L 144 67 L 141 67 L 143 77 L 143 78 L 139 80 L 140 77 L 136 76 C 136.186 91.7583 159.625 85.734 167.961 79.2909 C 171.006 76.9368 173.401 73.8137 176 71 C 169.532 81.7705 179.935 87.6707 177 100 L 176 100 C 176 91.6976 175.178 86.7428 170 80 L 169 80 L 166 82 L 168 89 L 171 87 C 162.094 98.0581 148.14 95.5678 136 94 L 138 96 L 144 102 L 144 103 C 139.92 102.006 135.413 98.1747 133 103 L 135 102 L 135 106 L 138 104 L 137 110 L 139 109 L 139 113 L 140 113 L 141 111 C 142.612 113.87 143.983 111.609 146 110 L 145 114 L 148 113 L 151 116 L 151 117 L 142 117 L 136 113 L 133 119 L 133 120 L 135 122 C 131.205 120.509 129.096 120.247 127 124 C 132.835 127.249 140.986 135.852 148 135.253 C 153.474 134.786 168.257 122.685 163 117 L 163 116 L 175 100 L 176 100 L 174 106 C 185.003 109.926 181.824 116.134 183.512 125.004 C 186.573 141.084 181.477 158.772 191 173 L 185 169 C 184.108 173.241 185.025 174.917 188 178 L 184 177 L 199 207 L 198 207 L 195 200 L 192 201 C 191.967 194.629 189.664 192.07 184 189 L 189 198 L 195 211 L 194 211 L 188 200 C 187.057 206.279 192.664 211.101 196 216 L 194 215 L 194 218 L 197 216 L 203 219 L 203 0 L 121 0 L 121 1 L 128 1 L 128 2 C 116.413 1.96803 111.29 2.13531 101 8 C 95.321 0.431152 81.343 2 73 2 L 73 1 L 77 1 L 53 0 L 0 0 z "
       transform="matrix(0.713396,0,0,0.713396,29.0477,33.676)"
       style="fill:#ffffff;"
       id="path6" />
    <path
       d="M 73 1 L 73 2 C 82.402 2 93.4607 1.34784 101 8 C 111.582 3.76082 116.398 1.99232 128 2 C 117.281 -2.62396 110.001 3.69635 100 3.81404 C 90.7553 3.92282 83.0312 -0.267761 73 1 z "
       transform="matrix(0.713396,0,0,0.713396,29.0477,33.676)"
       id="path7" />
    <path
       d="M 86 0 L 87 1 L 86 0 M 88 0 L 88 1 L 110 1 L 88 0 z "
       transform="matrix(0.713396,0,0,0.713396,29.0477,33.676)"
       style="fill:#ffffff;"
       id="path8" />
    <path
       d="M 36 21 L 42 29 L 30 30 L 36 43 C 33.3787 35.5551 33.6223 32.0615 42 30 C 43.8515 39.5417 46.3748 47.1126 56 51 C 48.0405 57.2071 42.0692 47.8745 36 43 C 38.0463 48.3162 41.5023 53.0768 47 55 L 47 57 L 36 58 L 39 64 L 38 64 L 38 61 L 37 61 L 36 66 L 34 64 L 33 64 L 28 66 L 23 64 L 27 67 L 26 70 L 29 68 C 29.3145 70.5947 29.4599 70.5229 32 70 L 31 76 L 32 76 L 35 71 L 36 77 L 27 78 L 30 81 L 40 78 L 42 82 L 43 82 C 41.8459 77.9628 38.7005 73.3161 39.527 69 C 40.9537 61.5493 49.3889 58.411 54.9606 54.8681 C 59.9154 51.7175 63.4919 47.7946 69 45.3117 C 82.4079 39.2677 96.4494 42.616 110 46 L 110 47 L 106 47 L 106 48 L 125.542 49.1127 L 123 61 L 124 61 L 124 57 L 125 57 C 134.281 76.6236 135.078 87.1199 128.63 108 C 127.408 111.959 125.792 127.954 118 124 C 114.665 127.266 116.115 132.504 112.682 135.397 C 104.172 142.566 82.5223 138.94 77 130 C 64.5804 132.147 57.7542 123.003 49.4823 115.619 C 44.6126 111.272 39.8769 109.239 39.2546 102 C 38.5964 94.3432 44.4596 89.2426 45 82 C 34.9215 86.0225 27.6375 86.1944 17 84 L 16 89 L 15 86 L 14 86 C 16.3163 94.2242 24.4019 95.6729 32 96 L 32 95 L 19 92 L 21 86 C 28.1356 88.9275 34.8534 88.6961 42 86 L 39 93 L 32 94 L 32 95 L 38 95 C 36.8556 100.087 35.259 102.737 30 104 L 30 105 L 33 107 L 35 106 L 37 108 L 36 104 L 37 104 L 33 113 L 25 111 L 32 118 L 33 118 L 37 114 L 41 121 L 38 118 L 37 118 L 34 120 L 34 121 L 49 120 L 48 117 L 49 117 C 52.7717 128.645 40.2036 128.199 32 129 C 40.45 134.06 48.1223 127.907 56 125 C 53.5321 129.5 49.2152 135.159 49.5648 140.576 C 50.1891 150.247 68.7227 158.841 77 158 C 74.9388 171.33 66.0775 166.261 59 174 L 78 167 L 77 174 L 73 174 L 73 175 L 77 175 C 77.5714 181.41 77.7208 183.865 71 186 L 71 187 L 76 186 L 76 195 L 62 201 L 61 201 L 60 199 L 53 203 L 53 202 L 60 196 L 45 204 L 45 203 L 51 200 L 51 199 L 40 205 L 36 204 L 50 194 L 50 193 L 31 204 L 31 205 L 48 207 L 42 217 L 37 216 L 37 217 L 41 218 L 41 219 L 38 219 L 38 220 L 48 221 C 51.1013 225.252 61.9098 222.997 67 223 L 67 224 L 61 224 L 61 225 C 76.6427 225 91.6172 228.35 107 229.768 C 113.11 230.331 119.021 228.24 125.09 229.239 C 132.951 230.534 145.99 237.31 153 232 L 149 231 L 149 230 C 158.303 232.334 172.803 232.395 182 230 L 179 229 L 177 226 L 176 218 L 203 220 L 203 219 L 197 216 L 194 218 L 194 215 L 196 216 L 196 215 L 188 200 L 194 211 L 195 211 L 189 198 C 191.432 194.84 186.23 191.166 184 189 C 188.916 192.8 191.405 194.757 192 201 L 195 200 L 198 207 L 199 207 L 184 177 L 188 178 L 185 169 L 191 173 C 183.803 156.872 187.389 141.857 183.853 125 C 182.066 116.48 185.684 108.512 174 106 L 176 100 L 175 100 L 163 116 L 163 117 C 165.469 124.083 153.203 136.106 146 134.676 C 139.104 133.307 133.591 126.498 127 124 C 129.615 121.093 131.26 121.109 135 122 L 133 120 L 133 119 L 136 113 L 142 117 L 151 117 L 151 116 L 148 113 L 145 114 L 146 110 L 144 113 L 140 113 L 139 113 L 139 109 L 137 110 L 138 104 L 135 106 L 135 102 L 133 103 L 134 100 L 144 103 L 144 102 L 136 94 C 146.579 96.0517 164.742 98.7368 171 87 L 168 89 L 166 82 L 169 80 L 170 80 C 174.035 87.2492 176 91.6112 176 100 L 177 100 L 177.258 86.1698 L 172.607 78.5718 L 176 71 C 172.734 73.4952 170.269 76.8033 166.985 79.2909 C 158.951 85.3768 136.495 91.2376 136 76 L 140 77 L 139 80 L 143 78 L 143 77 L 141 67 L 144 67 L 144 75 L 145 75 L 146 66 L 148 68 L 163 55 L 155 59 L 154 62 L 152 62 L 149 58 L 150 63 L 146 57 L 145 57 L 146 64 L 145 64 L 142 55 L 141 55 L 143 65 L 137 58 L 136 58 L 137 65 L 136 65 L 131 57 L 134 57 L 134 56 L 128 53 C 131.077 40.3346 148.561 36.069 147 21 L 144 22 C 143.859 26.9924 140.247 29.1259 136 31 L 144 18 C 137.702 20.9637 134.197 27.2871 133 34 L 142 31 C 139.83 35.1836 131.094 47.4814 126 43 C 114.327 43.3782 122.103 26.7549 126 22 L 128 28 C 135.542 22.2276 137.721 14.7851 140 6 L 132 4 L 132 5 C 138.695 11.0849 135.09 16.9689 130 23 L 132 14 L 127 15 C 123.413 20.9587 119.496 26.9957 118.326 34 C 117.812 37.0769 119.089 43.102 115.682 44.8426 C 108.906 48.3047 101.609 37.7368 98 34 L 96 38 L 97 41 L 86 36 L 97 34 L 83 34 L 83 33 L 91 33 L 91 32 C 89.0402 31.9918 78.579 31.5472 84 29 L 84 28 L 81 28 L 83 22 L 80 19 L 79 28 L 65 28 L 65 29 L 79 29 L 69 32 L 69 33 L 78 33 L 78 40 L 71 42 C 70.4465 38.6792 65.6228 40.3381 63 41 L 60 35 L 59 35 L 54 44 L 60 42 L 61 45 L 57 50 C 49.8559 44.5465 37.1264 26.3996 42.4113 16.4861 C 48.2097 5.60928 61.4646 4.86398 72 5 L 73 3 C 57.7135 -1.75934 44.4081 9.95087 36 21 M 128 2 L 128 3 L 132 4 L 132 3 L 128 2 M 73 4 L 74 5 L 73 4 M 84 10 L 82 14 L 84 10 M 144 17 L 144 18 C 157.639 16.3139 173.865 23.1197 172 39 L 173 39 L 173 36 L 174 36 C 173.557 39.8437 171.988 46.3801 177 47 C 179.908 57.1927 180.071 61.0786 176 71 C 186.552 64.0283 181.064 52.394 177.223 43.8302 C 174.971 38.8093 175.365 32.9665 172.721 28 C 167.273 17.7655 154.492 13.6752 144 17 M 17 26 L 18 26 C 23.2084 19.7798 28.3124 18.4465 36 20 C 28.9701 15.0189 20.6717 19.0011 17 26 M 76 17 L 77 18 L 76 17 M 81.3333 17.6667 L 81.6667 18.3333 L 81.3333 17.6667 M 106 19 L 105 21 L 106 19 M 73 21 L 74 22 L 73 21 M 76 21 L 77 22 L 76 21 M 83 22 L 84 23 L 83 22 M 61 24 L 59 31 L 60 31 L 61 24 M 71 24 L 71 25 L 77 25 L 71 24 M 15 26 L 16 27 L 15 26 M 100.333 26.6667 L 100.667 27.3333 L 100.333 26.6667 M 14 28 L 1 60 L 2 60 C 4.08876 48.4256 17.2983 40.8268 14 28 M 85 28 L 84 30 L 85 28 M 63 29 L 64 30 L 63 29 M 87 29 L 88 30 L 87 29 M 92 32 L 93 33 L 92 32 M 65 33 L 65 34 L 69 34 L 65 33 M 102 35 L 105 37 L 105 36 L 102 35 M 68 37 L 68 38 L 77 37 L 68 37 M 106 36 L 107 37 L 106 36 M 64 38 L 64 39 L 67 39 L 64 38 M 90 38 L 91 39 L 90 38 M 93 38 L 94 39 L 93 38 M 73 39 L 74 40 L 73 39 M 103 39 L 104 40 L 103 39 M 170 39 L 171 40 L 170 39 z "
       transform="matrix(0.713396,0,0,0.713396,29.0477,33.676)"
       id="path9" />
    <path
       d="M 69 41 L 70 42 L 69 41 z "
       transform="matrix(0.713396,0,0,0.713396,29.0477,33.676)"
       style="fill:#ffffff;"
       id="path10" />
    <path
       d="M 171 41 L 170 51 L 171 51 L 170 49 L 172 51 L 173 51 L 171 41 M 149.333 43.6667 L 149.667 44.3333 L 149.333 43.6667 M 28 45 L 28 48 L 29 48 L 28 45 M 13 46 L 14 47 L 13 46 M 144 47 L 143 49 L 145 49 L 144 47 z "
       transform="matrix(0.713396,0,0,0.713396,29.0477,33.676)"
       id="path11" />
    <path
       d="M 170 47 L 171 48 L 170 47 z "
       transform="matrix(0.713396,0,0,0.713396,29.0477,33.676)"
       style="fill:#ffffff;"
       id="path12" />
    <path
       d="M 174 49 L 176 51 L 174 49 M 30 51 L 35 57 L 30 51 M 122 51 C 114.971 56.6977 107.244 63.2436 101.174 70.0008 C 95.1194 76.7397 90.2318 84.6719 81 87 L 78 80 L 77 80 L 78 86 C 62.3153 87.7841 57.5395 70.1069 44 67 L 44 68 L 50 83 L 51 83 C 50.0472 70.4114 60.7808 82.5641 65 86 L 52 84 L 45 101 L 46 101 C 51.1998 96.4086 65.2614 102.943 72 103 L 72 104 L 63 109 L 85 101.047 L 107 107 L 107 106 L 99 103 L 99 102 C 108.464 104.248 126.124 102.609 123.509 90 C 123.063 87.8501 123.187 84.5175 121.258 83.0432 C 118.972 81.2963 114.816 83.0374 112.258 83.3974 C 104.18 84.5343 96.1821 86.8311 88 87 L 88 86 C 95.7608 82.3809 109.814 68.4563 114 61 L 116 62 L 117 62 L 117 58 L 119 61 L 120 61 L 122 51 M 165 51 L 163 55 L 164 55 L 165 51 M 16 52 L 17 53 L 16 52 M 138 55 L 143 53 L 138 55 M 134 55 L 134 56 L 137 56 L 134 55 M 4 56 L 5 57 L 4 56 M 3 57 L 3 62 L 0 61 L 10 83 L 14 82 L 14 80 C 3.94688 73.91 6.76971 65.9837 3 57 M 65 64 L 79 64 L 77 72 L 78 72 L 99 57 L 79.0039 62.7083 L 65 64 z "
       transform="matrix(0.713396,0,0,0.713396,29.0477,33.676)"
       id="path13" />
    <path
       d="M 127 57 L 133 63 L 127 57 z "
       transform="matrix(0.713396,0,0,0.713396,29.0477,33.676)"
       style="fill:#ffffff;"
       id="path14" />
    <path
       d="M 18 58 L 21 61 L 18 58 M 154 58 L 155 59 L 154 58 M 21 62 L 23 64 L 21 62 M 34 62 L 35 63 L 34 62 M 118 63 L 122 72 L 123 72 C 122.433 67.9023 121.747 65.0459 118 63 z "
       transform="matrix(0.713396,0,0,0.713396,29.0477,33.676)"
       id="path15" />
    <path
       d="M 133 67 L 140 75 L 139 68 L 137 70 L 136 70 L 133 67 z "
       transform="matrix(0.713396,0,0,0.713396,29.0477,33.676)"
       style="fill:#ffffff;"
       id="path16" />
    <path
       d="M 137 70 L 138 71 L 137 70 M 160 71 L 159 74 L 162 72 L 160 71 z "
       transform="matrix(0.713396,0,0,0.713396,29.0477,33.676)"
       id="path17" />
    <path
       d="M 36.6667 72.3333 L 37.3333 72.6667 L 36.6667 72.3333 z "
       transform="matrix(0.713396,0,0,0.713396,29.0477,33.676)"
       style="fill:#ffffff;"
       id="path18" />
    <path
       d="M 20 73 L 21 74 L 20 73 M 150 77 L 150 78 L 155 76 L 150 77 M 23 76 L 24 77 L 23 76 M 26 77 L 27 78 L 26 77 M 118 78 L 119 79 L 118 78 M 116 79 L 117 80 L 116 79 M 31.6667 81.3333 L 32.3333 81.6667 L 31.6667 81.3333 M 14 82 L 17 84 L 14 82 M 9 83 L 4 102 L 9 83 z "
       transform="matrix(0.713396,0,0,0.713396,29.0477,33.676)"
       id="path19" />
    <path
       d="M 83 92 L 85 89 L 67 92 L 68 88 L 53 87 C 53.1191 100.154 78.4289 109.235 81 95 C 94.3453 99.9154 122.897 108.671 120 84 L 83 92 M 137 86 C 137.465 99.9778 156.043 92.3525 164 91 L 164 84 L 137 86 M 86 90 L 86 91 L 92 89 L 86 90 M 72 90 L 72 91 L 77 91 L 72 90 z "
       transform="matrix(0.713396,0,0,0.713396,29.0477,33.676)"
       style="fill:#ffffff;"
       id="path20" />
    <path
       d="M 19 100 L 19 101 L 22 101 L 19 100 M 25 102 L 27 104 L 25 102 M 6 103 C 7.69241 114.291 21.1152 122.741 30 129 L 6 103 M 146 104 L 146 105 L 152 105 L 146 104 M 153.667 103.333 L 154.333 103.667 L 153.667 103.333 M 140 104 L 139 109 L 140 109 L 140 104 M 142 106 L 141 111 L 142 111 L 142 106 M 34 108 L 35 109 L 34 108 z "
       transform="matrix(0.713396,0,0,0.713396,29.0477,33.676)"
       id="path21" />
    <path
       d="M 168 114 C 172.181 117.77 172.85 120.755 171 126 C 173.841 125.876 177.299 125.872 179.682 124.062 C 187.365 118.226 174.611 100.293 168 114 z "
       transform="matrix(0.713396,0,0,0.713396,29.0477,33.676)"
       style="fill:#ffffff;"
       id="path22" />
    <path
       d="M 32 109 L 33 110 L 32 109 M 30 110 L 31 111 L 30 110 z "
       transform="matrix(0.713396,0,0,0.713396,29.0477,33.676)"
       id="path23" />
    <path
       d="M 130 111 L 132 117 C 136.321 115.602 134.212 110.211 133 113 L 130 111 z "
       transform="matrix(0.713396,0,0,0.713396,29.0477,33.676)"
       style="fill:#ffffff;"
       id="path24" />
    <path
       d="M 164 111 L 163 114 L 159 113 L 159 114 C 161.713 114.098 164.081 114.114 164 111 M 63 116 C 66.2113 126.547 84.0597 121.627 92 121 C 90.0003 127.44 82.4444 124.102 77 125 C 77.1733 129.892 83.8038 137.725 86 130 C 84.4027 130.159 78.0236 128.612 82.0872 126.492 C 86.1492 124.372 97.1701 131.301 100 134 C 108.248 131.86 122.574 118.626 106.985 114.529 C 91.705 110.514 76.5969 120.198 63 116 z "
       transform="matrix(0.713396,0,0,0.713396,29.0477,33.676)"
       id="path25" />
    <path
       d="M 38 114 L 43 119 L 38 114 M 91 117 L 90 117 C 85.0557 113.274 77.9613 116.396 73 119 C 77.6602 123.893 94.0473 120.489 100 118 C 101.92 120.957 103.696 120.883 107 120 L 111 121 C 108.719 116.938 106.532 116.065 102 117 C 99.0342 113.116 94.1607 113.733 91 117 z "
       transform="matrix(0.713396,0,0,0.713396,29.0477,33.676)"
       style="fill:#ffffff;"
       id="path26" />
    <path
       d="M 153 115 L 153 116 L 157 116 L 153 115 M 35.3333 115.667 L 35.6667 116.333 L 35.3333 115.667 M 151 115 L 152 116 L 151 115 M 138 116 L 137 118 L 138 116 M 141.333 117.667 L 141.667 118.333 L 141.333 117.667 M 33.3333 118.667 L 33.6667 119.333 L 33.3333 118.667 M 157 118 L 158 119 L 157 118 M 151 120 L 152 121 L 151 120 M 154 120 L 155 121 L 154 120 M 147 121 L 147 122 L 150 122 L 147 121 M 136 122 L 136 123 L 140 123 L 136 122 M 145 122 L 146 123 L 145 122 M 141.667 123.333 L 142.333 123.667 L 141.667 123.333 M 144.667 124.333 L 145.333 124.667 L 144.667 124.333 M 48 125 L 49 126 L 48 125 z "
       transform="matrix(0.713396,0,0,0.713396,29.0477,33.676)"
       id="path27" />
    <path
       d="M 123 126 L 124 127 L 123 126 M 171 128 C 173.769 132.881 174 135.564 173 141 L 180 142 L 180 143 L 172 142 C 175.214 153.27 174.566 165.361 172 177 L 178 177 L 178 178 L 171 178 C 174.804 186.961 172.619 200.431 171 210 L 177 216 L 178 216 C 181.387 208.224 180.669 203.086 179 195 L 173 195 L 173 194 L 179 193 L 179 187 C 184.099 183.881 184.914 164.186 180 161 C 185.307 152.804 181.772 149.451 182.723 141 C 183.203 136.734 185.729 129.913 180.606 127.121 C 177.968 125.684 173.776 127.592 171 128 M 87 147 C 80.3953 148.84 81.8006 143.594 83 139 L 76 139 L 76 143 L 75 143 L 75 138 L 68 137 L 68 138 L 74 139 L 74 140 L 68 140 L 68 143 L 65 142 L 62 138 L 62 137 L 66 137 L 66 136 L 58 135 C 63.8796 123.837 48.5335 131.871 51.8981 141.282 C 55.877 152.41 84.2726 165.052 87 147 z "
       transform="matrix(0.713396,0,0,0.713396,29.0477,33.676)"
       style="fill:#ffffff;"
       id="path28" />
    <path
       d="M 31 128 L 32 129 L 31 128 z "
       transform="matrix(0.713396,0,0,0.713396,29.0477,33.676)"
       id="path29" />
    <path
       d="M 118 136 L 121 135 C 119.914 138.258 119.176 139.435 122 140 C 120.253 142.046 120.355 142.474 123 143 L 123 144 L 114 147 L 118 144 L 118 143 L 111 145 L 103 144 C 102.567 140.472 99.1373 141.186 96 141 L 100 154 L 94 149 C 94.5153 158.38 112.033 161.513 114 153 C 120.504 152.177 130.946 151.043 132.675 142.96 C 133.547 138.882 128.227 128.397 123.27 129.211 C 120.532 129.661 119.1 133.886 118 136 M 63 133 L 64 134 L 63 133 M 65 133 L 66 134 L 65 133 M 70 134 L 76 137 L 70 134 z "
       transform="matrix(0.713396,0,0,0.713396,29.0477,33.676)"
       style="fill:#ffffff;"
       id="path30" />
    <path
       d="M 122.667 134.333 L 123.333 134.667 L 122.667 134.333 z "
       transform="matrix(0.713396,0,0,0.713396,29.0477,33.676)"
       id="path31" />
    <path
       d="M 78 137 L 79 138 L 78 137 z "
       transform="matrix(0.713396,0,0,0.713396,29.0477,33.676)"
       style="fill:#ffffff;"
       id="path32" />
    <path
       d="M 121 137 L 121 138 L 126 139 L 121 137 M 59.6667 138.333 L 60.3333 138.667 L 59.6667 138.333 M 64 140 L 65 141 L 64 140 M 69 142 L 70 143 L 69 142 M 66 143 L 68 146 L 66 143 M 121 146 L 120 148 L 121 146 z "
       transform="matrix(0.713396,0,0,0.713396,29.0477,33.676)"
       id="path33" />
    <path
       d="M 130 160 L 129 156 L 125 158 C 123.009 165.296 116.028 158.628 111.225 161.117 C 106.954 163.331 103.591 177.459 103 182 L 99 180 C 106.449 192.749 111.999 173.124 112 167 L 115 169 L 116 166 L 117 166 L 119 170 L 120 170 L 118 164 L 123 164 L 130 170 L 129 176 L 125 185 L 128 184 L 128 185 L 125 188 L 129 187 L 132 189 C 131.314 183.401 131.206 168.313 138 168 L 139 165 L 142 167 L 144 161 L 145 161 L 145 165 L 146 165 L 150 159 L 150 162 L 151 162 L 154 157 L 155 157 C 149.664 169.816 145.538 185.163 150.955 198.995 C 152.74 203.552 157.03 205.696 159 210 L 161 209 L 161 212 L 164 211 L 162 214 L 165 212 C 165.593 221.879 156.281 220.135 154 228 L 155 228 L 156 225 L 157 225 C 158.974 230.949 173.487 230.478 174.372 223.881 C 176.284 209.62 157.645 205.741 153.441 192.17 C 148.813 177.228 160.088 165.361 163 152 L 130 160 M 124 153 L 125 154 L 124 153 M 126 154 L 124 155 L 124 156 L 126 154 z "
       transform="matrix(0.713396,0,0,0.713396,29.0477,33.676)"
       style="fill:#ffffff;"
       id="path34" />
    <path
       d="M 150.333 157.667 L 150.667 158.333 L 150.333 157.667 M 173 161 L 173 162 L 180 162 L 180 161 L 173 161 M 55 164 L 58 162 L 55 164 M 71 164 L 60 168 L 60 169 L 72 165 L 71 164 M 140 164 L 141 165 L 140 164 M 113 166 L 114 167 L 113 166 M 47 172 L 47 173 L 53 170 L 47 172 M 56 171 L 44 179 C 47.1882 178.297 56.6507 174.674 56 171 M 58.6667 171.333 L 59.3333 171.667 L 58.6667 171.333 M 186 171 L 189 174 L 186 171 M 42 190 C 52.1666 182.923 60.0167 176.566 73 176 C 64.0464 170.888 44.7245 180.79 42 190 M 180 175 L 178 176 L 178 177 L 180 175 M 65 178 L 66 179 L 65 178 M 188 178 L 189 179 L 188 178 M 190 178 L 190 179 L 195 184 L 196 184 L 190 178 M 196 178 L 198 180 L 196 178 M 61 182 L 51 184 L 51 185 L 67 182 L 67 183 L 64 184 L 64 185 L 72 181 C 68.6164 179.598 63.335 178.832 61 182 M 73 179 L 75 181 L 73 179 z "
       transform="matrix(0.713396,0,0,0.713396,29.0477,33.676)"
       id="path35" />
    <path
       d="M 63 180 L 64 181 L 63 180 z "
       transform="matrix(0.713396,0,0,0.713396,29.0477,33.676)"
       style="fill:#ffffff;"
       id="path36" />
    <path
       d="M 129 180 L 127 181 L 127 182 L 129 180 M 187 180 L 201 197 L 190 180 L 187 180 z "
       transform="matrix(0.713396,0,0,0.713396,29.0477,33.676)"
       id="path37" />
    <path
       d="M 67 181 L 68 182 L 67 181 M 96 183 L 97 186 C 90.0372 187.618 87.0517 189.19 84 196 L 87 197 L 75 201 L 75 200 L 82 196 C 75.5968 195.987 56.5493 201.628 51.4182 205.843 C 48.501 208.24 47.1769 212.916 45 216 L 45 217 C 48.947 221.063 51.5205 221.576 57 221 L 59 217 L 58 220 L 59 220 L 60 216 L 61 216 L 61 218 L 62 218 L 57 209 L 63 205 L 63 208 L 64 208 L 67 204 L 66 207 L 69 204 L 70 204 L 73 207 L 75 201 C 75.5195 207.238 68.1974 209.195 68.4923 215.003 C 69.0329 225.652 93.0935 224.955 101 225 C 95.068 219.304 86.2086 225.136 81 216 L 78 218 C 83.9602 209.581 87.1312 198.053 99.7106 200.72 C 108.502 202.584 113.465 232.832 124 214 L 125 214 L 120 223 L 122 220 C 103.085 224.892 110.326 196.592 90 204 L 91 202 C 89.0022 203.484 87.315 204.834 86.0054 207.019 C 78.5965 219.379 98.092 226.653 99 215 L 100 215 C 103.734 229.285 114.089 224.951 124.996 225.898 C 132.283 226.531 137.47 229.792 145 228 L 142 223 L 148 225 L 146 219 L 149 220 L 141 204 L 143 206 L 142 199 L 138 199 L 138 203 L 137 203 C 134.662 194.705 129.85 187.671 120 189 L 121 192 L 98 183 L 96 183 z "
       transform="matrix(0.713396,0,0,0.713396,29.0477,33.676)"
       style="fill:#ffffff;"
       id="path38" />
    <path
       d="M 129 183 L 130 184 L 129 183 z "
       transform="matrix(0.713396,0,0,0.713396,29.0477,33.676)"
       id="path39" />
    <path
       d="M 184 184 L 189 190 L 190 189 L 184 184 z "
       transform="matrix(0.713396,0,0,0.713396,29.0477,33.676)"
       style="fill:#ffffff;"
       id="path40" />
    <path
       d="M 197 184 L 198 185 L 197 184 M 61.6667 185.333 L 62.3333 185.667 L 61.6667 185.333 z "
       transform="matrix(0.713396,0,0,0.713396,29.0477,33.676)"
       id="path41" />
    <path
       d="M 111 187 L 111 188 C 114.688 188.372 118.38 190.061 120 186 L 111 187 z "
       transform="matrix(0.713396,0,0,0.713396,29.0477,33.676)"
       style="fill:#ffffff;"
       id="path42" />
    <path
       d="M 53 186 L 43 194 L 53 186 M 59 186 L 60 187 L 59 186 M 55 189 L 58 188 L 55 189 M 65 187 L 65 188 L 67 189 L 53 195 L 51 198 L 51 199 L 62 192 L 60 196 L 70 189 L 65 187 M 91 188 L 89 192 L 90 192 L 91 188 M 87 196 L 87 197 C 97.337 195.03 115.701 187.458 123 200 C 117.792 199.077 113.036 199.135 110 204 C 120.45 199.976 126.415 202.082 125 214 C 129.625 208.183 127.18 196.905 119.906 194.004 C 107.908 189.218 98.1437 191.521 87 196 z "
       transform="matrix(0.713396,0,0,0.713396,29.0477,33.676)"
       id="path43" />
    <path
       d="M 181 190 L 184 193 L 181 190 z "
       transform="matrix(0.713396,0,0,0.713396,29.0477,33.676)"
       style="fill:#ffffff;"
       id="path44" />
    <path
       d="M 123 192 L 131 200 L 123 192 M 62 198 L 69 194 L 62 198 z "
       transform="matrix(0.713396,0,0,0.713396,29.0477,33.676)"
       id="path45" />
    <path
       d="M 186 194 L 187 195 L 186 194 z "
       transform="matrix(0.713396,0,0,0.713396,29.0477,33.676)"
       style="fill:#ffffff;"
       id="path46" />
    <path
       d="M 50 195 L 49 197 L 50 195 z "
       transform="matrix(0.713396,0,0,0.713396,29.0477,33.676)"
       id="path47" />
    <path
       d="M 181 195 L 189 214 L 183 207 L 184 211 L 183 216 L 188 215 L 193 218 C 191.58 210.986 186.078 200.029 181 195 z "
       transform="matrix(0.713396,0,0,0.713396,29.0477,33.676)"
       style="fill:#ffffff;"
       id="path48" />
    <path
       d="M 38 196 L 36 199 L 38 196 M 47 197 L 40 202 L 40 203 L 47 197 M 199 207 L 199 210 L 200 210 L 199 207 M 87 209 L 86 213 L 87 213 L 87 209 M 93 210 L 90 213 L 93 215 L 92 219 C 94.6406 216.693 94.2959 213.089 93 210 M 184 211 L 185 215 L 186 215 L 184 211 M 166 212 L 167 213 L 166 212 M 88 213 L 88 216 L 89 216 L 88 213 M 105 213 L 106 214 L 105 213 z "
       transform="matrix(0.713396,0,0,0.713396,29.0477,33.676)"
       id="path49" />
    <path
       d="M 64 214 L 64 219 L 67 217 L 67 214 L 64 214 z "
       transform="matrix(0.713396,0,0,0.713396,29.0477,33.676)"
       style="fill:#ffffff;"
       id="path50" />
    <path
       d="M 76 214 L 74 219 L 78 219 L 76 214 M 59 215 L 60 216 L 59 215 M 104 215 L 103 217 L 104 215 z "
       transform="matrix(0.713396,0,0,0.713396,29.0477,33.676)"
       id="path51" />
    <path
       d="M 152 215 L 151 219 C 155.282 220.806 160.219 222.366 162 217 L 152 215 z "
       transform="matrix(0.713396,0,0,0.713396,29.0477,33.676)"
       style="fill:#ffffff;"
       id="path52" />
    <path
       d="M 36 217 L 37 218 L 36 217 M 90 217 L 91 218 L 90 217 z "
       transform="matrix(0.713396,0,0,0.713396,29.0477,33.676)"
       id="path53" />
    <path
       d="M 66 218 L 67 219 L 66 218 z "
       transform="matrix(0.713396,0,0,0.713396,29.0477,33.676)"
       style="fill:#ffffff;"
       id="path54" />
    <path
       d="M 104 218 L 104 221 L 105 221 L 104 218 M 127 220 L 125 224 L 126 224 L 127 220 M 129 221 L 128 223 L 129 221 M 131.333 222.667 L 131.667 223.333 L 131.333 222.667 z "
       transform="matrix(0.713396,0,0,0.713396,29.0477,33.676)"
       id="path55" />
    <path
       d="M 150 222 L 149 226 L 150 226 L 150 222 z "
       transform="matrix(0.713396,0,0,0.713396,29.0477,33.676)"
       style="fill:#ffffff;"
       id="path56" />
    <path
       d="M 134 223 L 135 224 L 134 223 z "
       transform="matrix(0.713396,0,0,0.713396,29.0477,33.676)"
       id="path57" />
    <path
       d="M 153 223 L 152 225 L 153 223 M 152 226 L 153 227 L 152 226 z "
       transform="matrix(0.713396,0,0,0.713396,29.0477,33.676)"
       style="fill:#ffffff;"
       id="path58" />
    <path
       d="M 180 226 L 181 227 L 180 226 M 184 229 L 185 230 L 184 229 M 156 234 L 156 235 L 161 235 L 156 234 z "
       transform="matrix(0.713396,0,0,0.713396,29.0477,33.676)"
       id="path59" />
  </g>
</svg>
