<?xml version="1.0" encoding="UTF-8" standalone="no"?>
<!DOCTYPE svg PUBLIC "-//W3C//DTD SVG 20010904//EN"
"http://www.w3.org/TR/2001/REC-SVG-20010904/DTD/svg10.dtd"
[
 <!ATTLIST svg
  xmlns:xlink CDATA #FIXED "http://www.w3.org/1999/xlink">
]>
<!-- Created with Sodipodi ("http://www.sodipodi.com/") -->
<svg
   xmlns="http://www.w3.org/2000/svg"
   xmlns:xlink="http://www.w3.org/1999/xlink"
   version="1"
   x="0"
   y="0"
   width="457.812"
   height="449.925"
   id="svg812">
  <defs
     id="defs816">
    <linearGradient
       x1="0"
       y1="0"
       x2="1"
       y2="0"
       id="linearGradient830"
       gradientUnits="objectBoundingBox"
       spreadMethod="pad">
      <stop
         style="stop-color:#ffffff;stop-opacity:0.74902;"
         offset="0"
         id="stop831" />
      <stop
         style="stop-color:#bfbffd;stop-opacity:0.74902;"
         offset="1"
         id="stop832" />
    </linearGradient>
    <linearGradient
       x1="0"
       y1="0"
       x2="1"
       y2="0"
       id="linearGradient825"
       gradientUnits="objectBoundingBox"
       spreadMethod="pad">
      <stop
         style="stop-color:#00bfff;stop-opacity:1;"
         offset="0"
         id="stop826" />
      <stop
         style="stop-color:#0000fd;stop-opacity:1;"
         offset="1"
         id="stop827" />
    </linearGradient>
    <linearGradient
       x1="0.52"
       y1="0.132812"
       x2="0.49"
       y2="0.679688"
       id="linearGradient828"
       xlink:href="#linearGradient830"
       gradientUnits="objectBoundingBox"
       spreadMethod="reflect" />
    <radialGradient
       cx="0.5"
       cy="0.5"
       fx="0.5"
       fy="0.5"
       r="0.5"
       id="radialGradient829"
       xlink:href="#linearGradient830"
       gradientUnits="objectBoundingBox"
       spreadMethod="pad" />
    <radialGradient
       cx="0.484615"
       cy="0.71875"
       fx="0.484615"
       fy="0.71875"
       r="0.700044"
       id="radialGradient834"
       xlink:href="#linearGradient825"
       gradientUnits="objectBoundingBox"
       spreadMethod="reflect" />
  </defs>
  <ellipse
     cx="348.056946"
     cy="254.564758"
     rx="207.351013"
     ry="207.351013"
     transform="matrix(1.06103,0,0,1.06103,-139.661,-44.6473)"
     style="font-size:12;fill:url(#radialGradient834);fill-rule:evenodd;stroke-width:1pt;"
     id="path1652" />
  <path
     d="M 512 16.4244 C 452.308 24.3583 409.306 67.5945 396.424 126 C 388.535 161.77 394.223 221.807 444 216.829 C 461.573 215.072 477.731 205.371 492 195.656 C 528.32 170.928 559.562 133.582 576.576 93 C 583.344 76.8553 588.724 54.32 579.651 38 C 567.433 16.0219 534.33 13.4565 512 16.4244 M 298 41.439 C 247.39 49.4053 244.643 111.043 255.86 150 C 260.822 167.23 273.84 195.556 296 191.671 C 310.303 189.164 320.211 172.89 326.244 161 C 338.919 136.019 347.076 105.069 343.13 77 C 339.664 52.3408 323.473 37.4294 298 41.439 M 167 95.4398 C 115.973 103.226 122.505 163.678 142.012 197 C 149.32 209.485 164.087 229.348 181 226.517 C 194.969 224.179 200.324 207.887 203.37 196 C 209.686 171.352 209.255 141.757 199.546 118 C 194.276 105.104 181.959 93.1573 167 95.4398 M 61 181.529 C 11.8142 192.817 35.9912 255.92 59.0394 278.961 C 67.9943 287.913 82.4876 298.305 96 294.427 C 109.723 290.49 110 271.351 110 260 C 110 238.413 105.776 215.137 93.2261 197 C 85.7552 186.203 74.6104 178.406 61 181.529 M 330 246.424 C 231.792 259.319 110.813 296.185 82.1543 405 C 72.0388 443.407 80.2847 485.206 95.7191 521 C 124.995 588.893 181.787 647.638 250 676.85 C 285.805 692.183 328.665 701.107 367 690.575 C 418.217 676.503 464.345 639.295 487.219 591 C 498.741 566.674 513.176 529.794 479 517.699 C 473.627 515.798 467.669 514.718 462 514.17 C 440.063 512.047 417.377 516.13 397 524.204 C 387.464 527.982 376.759 533.78 371.533 543 C 367.257 550.544 370.27 558.022 369.675 566 C 368.304 584.388 359.186 603.075 340 608.243 C 311.667 615.875 273.659 588.687 265.22 562 C 255.903 532.539 288.348 508.494 309 493.71 C 360.908 456.551 427.714 430.107 467.102 378 C 473.806 369.13 479.634 359.524 483.305 349 C 485.962 341.382 486.831 333.999 487.015 326 C 488.114 278.113 444.901 256.629 403 249.586 C 379.733 245.676 353.53 243.335 330 246.424 z "
     transform="matrix(0.479005,0,0,0.479005,83.9341,55.6664)"
     style="font-size:12;"
     id="path814" />
  <path
     d="M 565.143 132.88 C 565.143 196.826 482.716 248.724 381.155 248.724 C 279.594 248.724 197.168 196.826 197.168 132.88 C 197.168 94.9368 263.279 -2.06332 381.079 -1.95712 C 499.119 -2.06332 565.143 94.9653 565.143 132.88 z "
     transform="matrix(1.02414,0,0,0.966638,-160.718,13.8763)"
     style="font-size:12;fill:url(#linearGradient828);fill-opacity:0.596491;fill-rule:evenodd;stroke-width:1pt;"
     id="path672" />
</svg>
