<?xml version="1.0" encoding="UTF-8" standalone="no"?>
<!DOCTYPE svg PUBLIC "-//W3C//DTD SVG 20010904//EN"
"http://www.w3.org/TR/2001/REC-SVG-20010904/DTD/svg10.dtd"
[
 <!ATTLIST svg
  xmlns:xlink CDATA #FIXED "http://www.w3.org/1999/xlink">
]>
<!-- Created with Sodipodi ("http://www.sodipodi.com/") -->
<svg
   xmlns="http://www.w3.org/2000/svg"
   xmlns:xlink="http://www.w3.org/1999/xlink"
   version="1"
   x="0"
   y="0"
   width="474.3"
   height="512.1"
   id="svg1">
  <defs
     id="defs15" />
  <ellipse
     cx="100.571846"
     cy="121.271408"
     rx="87.738029"
     ry="87.738022"
     transform="matrix(2.34934,0,0,2.37297,4.67116,-43.6031)"
     style="font-size:12;fill:none;fill-rule:evenodd;stroke:#000000;stroke-width:1pt;"
     id="path6" />
  <rect
     width="361.844"
     height="335.604"
     rx="0"
     ry="0"
     x="57.6104"
     y="116.703"
     style="font-size:12;fill:none;fill-rule:evenodd;stroke:#000000;stroke-width:2.52871pt;"
     id="rect7" />
  <path
     d="M 44.4211 -84.4145 C 29.4197 -90.8789 38.6864 -125.29 58.323 -125.796 C 74.412 -126.203 80.3666 -96.7092 74.9139 -90.886 C 68.2076 -84.0141 51.9516 -81.0445 44.4211 -84.4145 z M 33.4868 396.283 C 60.2569 395.683 131.889 390.782 161.478 397.062 C 174.73 413.257 104.122 444.536 139.589 457.25 C 169.058 467.975 196.569 454.409 228.484 452.994 C 250.055 452.573 319.224 472.988 331.907 457.644 C 352.899 432.897 266.5 424.623 244.889 394.258 C 233.542 378.314 252.012 355.829 260.081 342.246 C 285.258 299.876 286.548 252.635 318.167 212.733 C 354.087 167.405 423.771 140.226 474.896 115.658 C 490.051 108.374 526.123 91.7131 520.187 69.7526 C 513.172 43.8185 471.643 48.0744 452.093 50.0008 C 397.528 55.3722 308.096 64.1976 256.725 42.5731 C 231.494 31.9558 220.877 -4.53293 215.304 -28.8238 C 203.706 -79.3619 204.315 -138.183 181.606 -177.311 C 137.072 -249.607 43.1365 -237.804 9.55662 -165.086 C -14.7795 -115.409 2.68446 2.94401 -58.1171 42.9584 C -107.901 75.7198 -198.833 43.9171 -254.925 46.9993 C -272.88 47.9848 -315.494 47.3935 -320.85 69.9318 C -329.179 104.978 -242.814 135.307 -219.487 147.712 C -168.222 174.972 -121.809 196.726 -95.8996 252.649 C -85.4511 275.2 -84.4817 301.188 -75.353 324.327 C -67.7197 343.676 -47.5315 361.707 -42.9706 381.221 C -36.8542 407.389 -99.9167 421.491 -115.962 431.056 C -123.803 435.733 -138.946 448.962 -129.568 459.301 C -116.534 473.668 -61.4076 457.129 -44.7715 456.067 C -21.3851 454.571 113.938 481.92 53.4093 421.715 L 33.4868 396.283 z M -89.5704 239.209 C -86.8558 187.69 -76.0498 128.946 -49.2514 82.4128 C -84.5574 155.292 -115.946 326.621 -26.4335 373.969 C 28.558 402.577 40.2913 388.855 102.46 388.833 C 145.158 388.819 151.331 394.253 181.987 389.281 C 301.392 370.184 286.982 213.339 262.459 112.412 C 272.319 130.811 285.914 241.115 288.269 241.578 C 297.617 227.798 316.942 193.36 349.526 173.964 C 387.686 146.964 433.363 129.411 474.878 108.181 C 486.315 102.335 526.617 82.7065 509.58 65.1185 C 495.432 50.514 461.787 57.3394 439.057 57.3394 C 388.304 57.3394 283.802 74.9269 242.77 40.1988 C 167.625 -23.4013 236.315 -217.821 98.585 -217.644 C -37.9889 -217.468 27.6146 -24.0021 -45.6012 40.7364 C -88.3362 78.5198 -189.28 55.5335 -241.887 55.5335 C -260.001 55.5335 -291.135 49.4005 -305.658 62.7147 C -327.263 82.5248 -292.775 103.822 -279.122 111.456 C -238.324 134.272 -193.167 147.147 -155.147 174.734 C -129.891 193.062 -110.772 219.067 -89.5704 239.209 z M 26.9068 -74.3833 C 12.0734 -61.4056 22.4309 -42.6828 20.5534 -25.1046 C 17.6477 2.10179 4.77299 42.8912 -4.30013 68.9731 C -28.4606 138.425 -67.1633 221.419 -21.774 292.968 C 40.2107 390.679 198.666 376.038 232.785 261.608 C 255.551 185.244 214.789 129.649 198.903 60.0134 C 192.569 32.256 178.703 -1.58516 176.979 -29.5844 C 175.903 -47.0529 186.18 -69.692 171.665 -75.0836 C 190.718 -142.733 103.867 -178.835 103.065 -90.4832 C 100.31 -90.8707 96.6228 -91.027 93.8708 -90.5616 C 93.5626 -177.858 5.08703 -148.367 26.9068 -74.3833 z M 140.552 -125.142 C 124.243 -127.982 116.922 -102.742 121.47 -91.527 C 125.412 -82.1799 143.177 -79.8826 149.918 -85.2838 C 157.637 -91.5037 156.851 -122.661 140.552 -125.142 z M 107.231 -89.7803 C 109.313 -89.6218 112.758 -88.9013 114.4 -88.0061 C 113.94 -145.138 169.705 -144.287 155.581 -78.9734 C 160.061 -78.5528 164.013 -77.3869 166.745 -76.2897 C 184.438 -142.605 109.21 -168.946 107.231 -89.7803 z M 41.9914 -74.4222 C 9.65722 -63.2703 23.3797 -47.6917 53.7861 -29.5844 C 88.4642 -9.57688 128.178 -6.44188 164.815 -45.0403 C 180.541 -62.1173 178.306 -68.8893 152.18 -75.2964 C 124.953 -82.504 81.4356 -87.9362 41.9914 -74.4222 z M 26.9068 -60.9437 C 59.4052 -43.9671 108.311 -22.439 169.636 -64.0935 C 154.584 -42.383 121.065 -30.811 98.585 -30.811 C 74.773 -30.811 54.2995 -37.8333 26.9068 -60.9437 z M 108.665 -78.5134 L 118.955 -70.6032 L 118.816 -74.3135 M 89.6252 -78.8632 L 80.6654 -74.3833 L 80.6654 -69.9035 L 89.6252 -78.8632 M 26.9068 -43.0241 C 26.1125 51.6808 -45.4502 133.246 -35.034 230.249 C -20.6155 364.52 166.626 394.58 221.652 270.568 C 268.664 164.614 171.137 60.9048 170.263 -43.0241 C 117.177 2.7021 87.4278 -1.80915 26.9068 -43.0241 z M 273.301 122.732 L 277.781 127.212 L 273.301 122.732 z M -31.3318 382.565 C -43.6331 425.362 -135.092 431.558 -127.439 454.244 C -122.04 470.492 -70.8673 451.076 -40.9913 451.076 C -6.65521 451.076 48.9218 462.204 62.396 451.793 C 71.3213 444.899 36.0534 414.368 24.1068 394.957 C 5.27742 392.224 -15.3023 388.094 -31.3318 382.565 z M 488.335 485.603 L 488.335 485.603 z M 234.142 382.458 C 246.444 425.254 333.596 428.758 325.944 451.444 C 320.546 467.692 269.372 448.276 239.495 448.276 C 205.162 448.276 147.111 461.385 135.84 448.993 C 125.249 437.35 177.525 419.645 168.207 395.656 C 187.036 392.923 218.113 387.986 234.142 382.458 z M 37.4672 -81.0358 C 35.4661 -80.1226 32.4291 -78.5016 29.896 -76.7237 C 9.5178 -131.769 83.759 -181.339 90.6241 -89.9283 C 87.9052 -90.1682 84.407 -89.449 82.1616 -89.0426 C 78.7071 -161.906 17.4103 -123.728 37.4672 -81.0358 z "
     transform="matrix(0.489447,0,0,0.489447,190.958,226.683)"
     style="font-size:12;fill-rule:evenodd;stroke-width:1pt;"
     id="path117" />
  <path
     d="M 64.7757 178.643 C 54.1635 185.63 45.4693 176.547 42.4452 181.739 C 41.3419 183.675 55.8519 188.234 60.2708 190.622 C 65.3018 193.276 73.1308 199.846 79.8646 198.873 C 82.2477 198.532 76.8584 191.197 78.3232 186.707 L 64.7757 178.643 z M 136.678 175.526 C 130.771 183.027 126.614 186.235 119.962 186.444 C 125.06 188.68 118.689 195.309 120.061 198.692 C 120.999 201.293 131.961 194.872 140.29 191.254 C 148.62 187.636 159.256 184.273 159.386 180.847 C 159.541 178.217 132.672 186.635 136.678 175.526 z M 62.9946 175.187 C 64.4767 179.488 58.9356 180.645 54.6207 180.353 C 51.1384 180.118 43.592 177.183 41.1115 181.361 C 39.1905 184.596 56.1254 190.165 58.8774 191.896 C 62.2747 194.07 78.6131 201.743 80.5285 200.052 C 84.0728 196.861 75.6239 188.559 80.5506 186.384 C 72.914 185.239 68.5626 179.766 62.9946 175.187 z M 137.874 172.975 C 130.505 183.224 128.667 186.73 118.177 186.637 C 124.827 189.71 116.848 195.84 118.994 199.384 C 121.065 202.748 132.858 196.366 141.119 192.606 C 149.38 188.847 160.328 185.473 160.819 180.63 C 161.455 174.647 134.338 187.801 137.874 172.975 z M 140.917 107.35 C 151.045 102.741 160.671 90.8334 169.717 84.4692 C 171.898 82.935 179.034 77.0483 181.235 81.4785 C 184.077 87.1956 171.51 104.013 168.825 107.803 C 156.47 125.241 144.444 137.82 140.869 158.548 C 144.138 153.171 145.278 146.187 148.378 140.501 C 156.315 126.475 168.099 111.498 176.632 98 C 178.669 94.8831 187.734 81.2794 181.597 78.6435 C 176.833 76.5971 170.419 82.0189 166.955 84.5756 C 160.069 89.6592 143.756 109.291 134.467 106.621 C 131.142 105.665 133.828 110.576 140.917 107.35 z M 58.7477 159.246 C 58.7281 129.621 11.1849 88.5475 18.7509 80.6341 C 27.0091 71.6606 65.2494 129.826 73.8973 95.789 C 70.7982 98.9184 69.1991 105.629 63.1838 104.774 C 51.7898 103.155 41.514 90.5799 32.3884 84.2436 C 28.9206 81.8357 23.0715 75.8201 18.5659 78.2641 C 11.6077 82.0385 22.4339 95.114 24.9232 99.0419 C 36.2818 116.965 51.6178 130.697 58.7477 159.246 z "
     transform="matrix(2.16221,0,0,2.16221,22.7331,14.907)"
     style="font-size:12;fill-rule:evenodd;"
     id="path13" />
</svg>
