<?xml version="1.0" encoding="UTF-8" standalone="no"?>
<!DOCTYPE svg PUBLIC "-//W3C//DTD SVG 20010904//EN"
"http://www.w3.org/TR/2001/REC-SVG-20010904/DTD/svg10.dtd">
<!-- Created with Sodipodi ("http://www.sodipodi.com/") -->
<svg
   width="11.91000cm"
   height="15.19000cm"
   id="svg101"
   sodipodi:version="0.33"
   sodipodi:docname="/foo/img/vec/Finished/bofh-again.svg"
   sodipodi:docbase="/foo/img/vec/Finished/"
   xmlns="http://www.w3.org/2000/svg"
   xmlns:sodipodi="http://sodipodi.sourceforge.net/DTD/sodipodi-0.dtd"
   xmlns:xlink="http://www.w3.org/1999/xlink">
  <defs
     id="defs582" />
  <sodipodi:namedview
     id="base" />
  <g
     id="g585"
     transform="translate(27.29911,26.59232)">
    <path
       style="font-size:12;fill:#000000;fill-rule:evenodd;stroke-width:1pt;fill-opacity:1;"
       d="M 229.0258 126.1313 C 225.9347 126.1265 213.3669 123.4799 201.5123 123.5073 C 189.6584 123.5354 178.5165 125.9457 174.0615 126.1241 C 158.4230 126.7505 152.8950 105.1242 161.3928 103.3385 C 167.5909 102.0361 184.8965 98.25115 201.5161 98.21237 C 217.9922 98.17359 235.3711 102.2115 241.6878 103.3451 C 250.0210 104.8402 245.4605 126.1563 229.0258 126.1313 z M 302.5906 53.71281 C 321.2815 47.96735 310.0931 4.203485 293.2875 -9.492115 C 351.7462 21.21468 330.3675 53.46103 338.7679 63.85715 C 341.3674 67.07413 383.5151 73.80581 383.3397 132.8426 L 292.8412 132.7185 C 293.0238 121.4603 287.0033 116.5853 266.5982 109.6228 C 263.0477 110.1484 260.1413 111.0045 258.6139 116.4028 C 257.2449 121.4925 258.7851 128.2242 261.8002 133.5258 C 265.6114 140.2384 268.1894 139.8416 277.1161 147.7946 C 293.6299 162.9541 322.0935 236.7454 323.9425 264.8445 C 325.1655 281.7306 322.1096 294.5562 316.1381 295.0150 L 86.97123 295.0150 C 79.82663 292.9381 77.67283 279.7075 79.58443 264.8015 C 83.61523 234.2223 89.46623 223.8226 89.18103 222.0614 C 88.43943 217.0217 78.37683 212.4987 59.41563 212.4981 C 22.12803 212.5900 4.859426 241.4199 5.096326 278.6061 C 5.422026 328.2253 35.82113 346.6316 61.37853 346.5594 C 104.9211 346.4359 259.0168 278.6467 260.0748 406.7883 C 260.3322 438.2219 245.7972 447.2810 244.6925 452.8385 C 243.5085 458.6466 246.2591 465.1653 262.7882 466.6205 C 248.8393 472.3606 243.6689 473.0813 204.0936 503.2864 C 215.9397 457.8149 214.3538 449.6454 213.6050 434.7018 C 223.7114 451.2658 227.4657 448.2046 231.9124 445.7692 C 238.9095 441.5224 243.6391 407.4858 242.8640 396.8952 C 236.7702 309.7688 135.8231 361.4201 52.61413 361.5024 C 18.75593 361.5358 -9.551974 323.4434 -9.697474 278.5864 C -9.933774 205.8995 38.21533 197.1506 59.43173 196.7014 C 92.79963 195.9974 97.35893 201.0412 101.1141 191.6301 C 105.4223 181.1672 117.2127 156.1628 125.6793 147.5649 C 130.6062 142.5610 138.8682 138.8142 141.2857 133.5001 C 143.2636 128.7379 146.0545 124.6397 144.4885 116.4004 C 143.7556 112.0373 140.2202 109.7761 136.4525 109.5881 C 134.4998 110.2749 127.0223 112.7675 122.0555 115.5209 C 118.5843 117.5143 110.2973 121.2801 110.2048 132.7669 L 19.73203 132.7275 C 20.03333 85.30269 38.43553 77.31931 64.36043 63.85715 C 72.85933 59.59012 49.27253 22.47236 109.7955 -9.492715 C 91.41123 7.685525 82.98813 47.43456 100.5216 53.71161 C 129.4929 48.58187 160.2658 46.55037 201.5232 46.55932 C 244.3601 46.61540 273.5984 48.60991 302.5906 53.71281 z M 201.5398 270.1812 C 168.2241 270.1705 141.1939 243.1233 141.2046 209.8074 C 141.2153 176.4920 168.2624 149.4615 201.5781 149.4723 C 234.8937 149.4830 261.9243 176.5302 261.9136 209.8461 C 261.9034 243.1549 234.8680 270.1812 201.5590 270.1812 L 201.5398 270.1812 z M 292.9056 139.8983 C 292.9050 156.3018 292.9194 156.3006 338.0866 156.3036 C 383.4393 156.2833 383.3785 156.2815 383.3570 139.8989 L 292.9056 139.8983 z M 110.2364 139.8983 C 110.2370 156.3018 110.2227 156.3006 65.05553 156.3036 C 19.70273 156.2833 19.76363 156.2815 19.78513 139.8989 L 110.2364 139.8983 z "
       id="path3786"
       sodipodi:nodetypes="cccccccccccccccccccccccccsccccccccccccccccccccccccccccccccccc" />
    <path
       style="font-size:12;fill:#ff0000;fill-rule:evenodd;stroke-width:1pt;"
       d="M 222.7758 117.3812 C 219.6847 117.3765 207.1169 114.7299 195.2623 114.7573 C 183.4084 114.7853 172.2665 117.1957 167.8115 117.3741 C 152.1730 118.0005 146.6450 96.37422 155.1428 94.58854 C 161.3409 93.28611 178.6465 89.50115 195.2661 89.46237 C 211.7422 89.42359 229.1211 93.46152 235.4378 94.59510 C 243.7710 96.09023 239.2105 117.4063 222.7758 117.3812 z M 296.3406 44.96280 C 315.0315 39.21734 303.8431 -4.546515 287.0375 -18.24211 C 345.4962 12.46467 324.1175 44.71102 332.5179 55.10714 C 335.1174 58.32413 377.2651 65.05580 377.0897 124.0926 L 286.5912 123.9685 C 286.7738 112.7103 280.7533 107.8353 260.3482 100.8727 C 256.7977 101.3984 253.8913 102.2545 252.3639 107.6527 C 250.9949 112.7425 252.5351 119.4742 255.5502 124.7758 C 259.3614 131.4883 261.9394 131.0916 270.8661 139.0446 C 287.3799 154.2041 315.8435 227.9954 317.6925 256.0944 C 318.9155 272.9806 315.8596 285.8062 309.8881 286.2650 L 80.72123 286.2650 C 73.57663 284.1881 71.42283 270.9575 73.33443 256.0515 C 77.36523 225.4723 83.21623 215.0726 82.93103 213.3113 C 82.18943 208.2717 72.12683 203.7487 53.16563 203.7481 C 15.87803 203.8400 -1.390574 232.6699 -1.153674 269.8561 C -0.827974 319.4753 29.57113 337.8816 55.12853 337.8094 C 98.67113 337.6859 252.7668 269.8967 253.8248 398.0383 C 254.0822 429.4719 239.5472 438.5310 238.4425 444.0885 C 237.2585 449.8966 240.0091 456.4153 256.5382 457.8705 C 242.5893 463.6106 237.4189 464.3313 197.8436 494.5364 C 209.6897 449.0649 208.1038 440.8954 207.3550 425.9518 C 217.4614 442.5158 221.2157 439.4546 225.6624 437.0192 C 232.6595 432.7724 237.3891 398.7358 236.6140 388.1452 C 230.5202 301.0188 129.5731 352.6701 46.36413 352.7524 C 12.50593 352.7858 -15.80197 314.6934 -15.94747 269.8364 C -16.18377 197.1495 31.96533 188.4006 53.18173 187.9514 C 86.54963 187.2474 91.10893 192.2912 94.86413 182.8801 C 99.17233 172.4171 110.9627 147.4128 119.4293 138.8149 C 124.3562 133.8110 132.6182 130.0642 135.0357 124.7501 C 137.0136 119.9879 139.8045 115.8897 138.2385 107.6504 C 137.5056 103.2873 133.9702 101.0261 130.2025 100.8381 C 128.2498 101.5248 120.7723 104.0175 115.8055 106.7709 C 112.3343 108.7642 104.0473 112.5301 103.9548 124.0169 L 13.48203 123.9775 C 13.78333 76.55269 32.18553 68.56930 58.11043 55.10714 C 66.60933 50.84011 43.02253 13.72235 103.5455 -18.24271 C 85.16123 -1.064515 76.73813 38.68456 94.27163 44.96161 C 123.2429 39.83186 154.0158 37.80036 195.2732 37.80931 C 238.1101 37.86540 267.3484 39.85990 296.3406 44.96280 z M 195.2898 261.4312 C 161.9741 261.4205 134.9439 234.3733 134.9546 201.0573 C 134.9653 167.7420 162.0124 140.7115 195.3281 140.7223 C 228.6437 140.7330 255.6743 167.7802 255.6636 201.0961 C 255.6534 234.4049 228.6180 261.4312 195.3090 261.4312 L 195.2898 261.4312 z M 286.6556 131.1483 C 286.6550 147.5518 286.6694 147.5506 331.8366 147.5536 C 377.1893 147.5333 377.1285 147.5315 377.1070 131.1489 L 286.6556 131.1483 z M 103.9864 131.1483 C 103.9870 147.5518 103.9727 147.5506 58.80553 147.5536 C 13.45273 147.5333 13.51363 147.5315 13.53513 131.1489 L 103.9864 131.1483 z "
       id="path2016"
       sodipodi:nodetypes="cccccccccccccccccccccccccsccccccccccccccccccccccccccccccccccc" />
  </g>
</svg>
