<?xml version="1.0" encoding="UTF-8" standalone="no"?>
<!DOCTYPE svg PUBLIC "-//W3C//DTD SVG 20010904//EN"
"http://www.w3.org/TR/2001/REC-SVG-20010904/DTD/svg10.dtd">
<!-- Created with Sodipodi ("http://www.sodipodi.com/") -->
<svg
   width="309.28pt"
   height="373.89pt"
   id="svg101"
   sodipodi:version="0.31"
   sodipodi:docname="/foo/img/vec/Finished/bofh-again.svg"
   sodipodi:docbase="/foo/img/vec/Finished/"
   xmlns="http://www.w3.org/2000/svg"
   xmlns:sodipodi="http://sodipodi.sourceforge.net/DTD/sodipodi-0.dtd"
   xmlns:xlink="http://www.w3.org/1999/xlink">
  <sodipodi:namedview
     id="base" />
  <path
     style="font-size:12;fill:#ff0000;fill-rule:evenodd;stroke-width:1pt;"
     d="M 286.093 68.6471 C 302.392 63.637 292.636 25.4743 277.981 13.5315 C 328.958 40.3082 310.315 68.4275 317.64 77.4931 C 319.907 80.2983 356.661 86.1685 356.508 137.649 L 277.592 137.541 C 277.751 127.724 272.501 123.473 254.707 117.401 C 251.611 117.86 249.077 118.606 247.745 123.314 C 246.551 127.752 247.894 133.622 250.524 138.245 C 253.847 144.099 256.095 143.753 263.879 150.688 C 278.28 163.907 303.1 228.254 304.712 252.757 C 305.779 267.482 303.114 278.666 297.907 279.066 L 98.0701 279.066 C 91.84 277.255 89.9619 265.718 91.6288 252.719 C 95.1437 226.054 100.246 216.985 99.9972 215.449 C 99.3505 211.055 90.5758 207.111 74.0413 207.11 C 41.526 207.19 26.4675 232.33 26.6741 264.757 C 26.9581 308.026 53.4665 324.076 75.753 324.014 C 113.723 323.906 248.096 264.793 249.019 376.534 C 249.243 403.944 233.72 412.258 235.605 416.69 C 238.863 423.872 247.912 418.402 248.014 425.759 C 248.211 440.175 227.729 435.1 197.815 463.631 C 212.536 425.429 202.97 403.232 212.71 402.701 C 222.817 402.163 220.583 412.65 224.461 410.526 C 230.563 406.823 234.687 377.142 234.011 367.907 C 228.697 291.932 140.67 336.972 68.1103 337.044 C 38.5855 337.073 13.9006 303.856 13.7736 264.74 C 13.5676 201.356 55.5543 193.727 74.0554 193.335 C 103.153 192.721 107.128 197.12 110.403 188.913 C 114.16 179.789 124.441 157.985 131.824 150.487 C 136.121 146.124 143.325 142.857 145.433 138.223 C 147.158 134.07 149.592 130.496 148.226 123.312 C 147.587 119.507 144.504 117.535 141.219 117.371 C 139.516 117.97 132.995 120.144 128.664 122.545 C 125.637 124.283 118.411 127.567 118.33 137.583 L 39.4366 137.549 C 39.6993 96.1939 55.7463 89.2323 78.3532 77.4931 C 85.7644 73.7722 65.1963 41.405 117.973 13.5309 C 101.942 28.5106 94.5969 63.1724 109.886 68.646 C 135.15 64.1728 161.984 62.4013 197.961 62.4091 C 235.316 62.458 260.812 64.1973 286.093 68.6471 z "
     id="path3389" />
  <path
     style="fill:none;fill-rule:evenodd;stroke:black;stroke-opacity:1;stroke-width:0.025;stroke-linejoin:miter;stroke-linecap:butt;fill-opacity:1;stroke-dasharray:none;"
     d="M -228.679 265.841 L -228.679 297.296 "
     id="path145"
     transform="translate(-0.00798225,0)" />
  <path
     style="font-size:12;fill:#ff0000;fill-rule:evenodd;stroke-width:1pt;"
     d="M 118.358 143.802 C 118.358 158.106 118.346 158.105 78.9594 158.108 C 39.4111 158.09 39.4642 158.088 39.4829 143.803 L 118.358 143.802 z "
     id="path3386" />
  <path
     style="font-size:12;fill:#ff0000;fill-rule:evenodd;stroke-width:1pt;"
     d="M 277.648 143.802 C 277.647 158.106 277.66 158.105 317.046 158.108 C 356.595 158.09 356.541 158.088 356.523 143.803 L 277.648 143.802 z "
     id="path3387" />
  <path
     style="font-size:12;fill:#ffffff;fill-rule:evenodd;stroke-width:1pt;fill-opacity:1;"
     d="M 198.009 152.151 C 227.061 152.16 250.632 175.746 250.622 204.798 C 250.614 233.843 227.038 257.411 197.992 257.411 L 197.976 257.411 C 168.924 257.401 145.353 233.816 145.362 204.764 C 145.372 175.712 168.957 152.141 198.009 152.151 "
     id="path3388" />
  <path
     style="font-size:12;fill:#ffffff;fill-rule:evenodd;stroke-width:1pt;fill-opacity:1;"
     d="M 197.952 129.509 C 187.615 129.533 177.899 131.635 174.014 131.791 C 160.377 132.337 155.557 113.479 162.967 111.921 C 168.372 110.786 183.462 107.485 197.955 107.451 C 212.322 107.418 227.477 110.939 232.985 111.927 C 240.252 113.231 236.275 131.819 221.944 131.797 C 219.248 131.793 208.289 129.485 197.952 129.509 "
     id="path3390" />
</svg>
