<?xml version="1.0" standalone="no"?>
<!DOCTYPE svg PUBLIC "-//W3C//DTD SVG 20010904//EN"
"http://www.w3.org/TR/2001/REC-SVG-20010904/DTD/svg10.dtd">
<svg
   style="fill:#000000;fill-opacity:0.5;stroke:none"
   xmlns="http://www.w3.org/2000/svg"
   xmlns:sodipodi="http://sodipodi.sourceforge.net/DTD/sodipodi-0.dtd"
   xmlns:xlink="http://www.w3.org/1999/xlink"
   width="595.275591"
   height="841.889764"
   id="svg2236"
   sodipodi:docbase="/home/trent/"
   sodipodi:docname="/home/trent/requited.svg">  <defs
     id="defs2238">
  </defs>
  <sodipodi:namedview
     id="base">
  </sodipodi:namedview>
  <g
     id="g2245"
     transform="matrix(0.922246 0 0 0.922246 118.465 266.987)">    <path
       d="M 32 0 V 128 H 128 V 16 l -32 -16 Z"
       id="path33"
       transform="matrix(1 0 0 1 -31.99 0)"
       style="fill:#000000; fill-opacity:1; stroke:none; ">
    </path>
    <path
       d="M 36 4 V 124 H 124 V 20 L 92 4 Z"
       style="fill:#FFF; fill-opacity:1; stroke:none; "
       id="path34"
       transform="matrix(1 0 0 1 -31.99 0)">
    </path>
    <path
       d="M 128 20 h -36 q 4 -10 0 -20 Z"
       id="path35"
       transform="matrix(1 0 0 1 -31.99 0)"
       style="fill:#000000; fill-opacity:1; stroke:none; ">
    </path>
    <path
       d="M 56 48 h 48 l -40 40"
       style="fill:none; stroke:#000; stroke-opacity:100%; stroke-width:4; stroke-linejoin:round; stroke-linecap:round; fill-opacity:1; "
       id="path36"
       transform="matrix(0.96614 0.258018 -0.258018 0.96614 -13.2296 -13.887)">
    </path>
    <path
       d="M 68 48 Q 58 68 78 74"
       style="fill:none; stroke:#000; stroke-opacity:100%; stroke-width:4; stroke-linejoin:round; stroke-linecap:round; fill-opacity:1; "
       id="path37"
       transform="matrix(0.96614 0.258018 -0.258018 0.96614 -13.2296 -13.887)">
    </path>
    <path
       transform="matrix(0.96614 0.258018 -0.258018 0.96614 -13.2296 -13.887)"
       style="fill:#000000; fill-opacity:1; stroke:none; "
       d="M 73.5 62.5 C 73.5 65.26 71.26 67.5 68.5 67.5 C 65.74 67.5 63.5 65.26 63.5 62.5 C 63.5 59.74 65.74 57.5 68.5 57.5 C 71.26 57.5 73.5 59.74 73.5 62.5 z "
       id="path84">
    </path>

  </g>
  <g
     id="g2257"
     transform="matrix(0.922246 0 0 0.922246 434.306 572.235)">    <g
       id="g9"
       transform="matrix(1 0 0 1 -0.7 -0.3)"
       style="fill:#000000; fill-opacity:0.5; stroke:none; ">      <path
         d="M 32 0 V 128 H 128  V 16 l -32  -16 Z"
         style="fill:#000; fill-opacity:100%"
         id="path3"
         transform="matrix(1 0 0 1 -31.1028 0.398754)">
      </path>
      <path
         d="M 36 4 V 124 H 124  V 20 L 92 4 Z"
         style="fill:#FFF; fill-opacity:100%"
         id="path4"
         transform="matrix(1 0 0 1 -31.1028 0.398754)">
      </path>
      <path
         d="M 128 20 h -36 q 4 -10 0 -20 Z"
         style="fill:#000; fill-opacity:100%"
         id="path5"
         transform="matrix(1 0 0 1 -31.1028 0.398754)">
      </path>

    </g>
    <path
       style="fill-rule:evenodd; clip-rule:evenodd; stroke:#000000; stroke-miterlimit:4; fill:none; fill-opacity:100%; stroke-opacity:100%; stroke-width:4; stroke-linejoin:round; stroke-linecap:butt; "
       d="M 189.326 83.49 L 152.242 74.301 L 133.4 41.657 L 114.556 74.301 L 77.687 82.134 L 102.91 110.141 L 98.969 147.627 L 133.4 132.291 L 167.829 147.627 L 163.884 110.141 L 189.328 83.491 L 189.326 83.49 z "
       id="path627"
       transform="matrix(0.617755 0 0 0.617755 -33.8706 -3.3094)"
       sodipodi:nodetypes="ccccccccczcc">
    </path>

  </g>
  <g
     id="g2323"
     transform="matrix(0.922246 0 0 0.922246 61.474 107.322)">    <g
       id="g86"
       style="fill:#000000; fill-opacity:1; stroke:none; "
       transform="matrix(1 0 0 1 262.271 23.6044)">      <g
         id="g47">        <path
           d="M 32 0 V 128 H 128 V 16 l -32 -16 Z"
           id="path2295"
           transform="matrix(1 0 0 1 -31.99 0)"
           style="fill:#000000; fill-opacity:1; stroke:none; ">
        </path>
        <path
           d="M 128 20 h -36 q 4 -10 0 -20 Z"
           id="path2296"
           transform="matrix(1 0 0 1 -31.99 0)"
           style="fill:#000000; fill-opacity:1; stroke:none; ">
        </path>

      </g>
      <path
         d="M 36 4 V 124 H 124 V 20 L 92 4 Z"
         style="fill:#FFF; fill-opacity:1; stroke:none; "
         id="path2297"
         transform="matrix(1 0 0 1 -31.99 0)">
      </path>

    </g>
    <g
       id="g39"
       style="fill:#000000; fill-opacity:1; stroke:none; "
       transform="matrix(0.666968 0 0 0.666968 256.321 60.7685)">      <path
         d="M 56 48 h 48 l -40 40"
         style="fill:none; stroke:#000; stroke-opacity:100%; stroke-width:4; stroke-linejoin:round; stroke-linecap:round; fill-opacity:1; "
         id="path44"
         transform="matrix(0.96614 0.258018 -0.258018 0.96614 -13.2296 -13.887)">
      </path>
      <path
         d="M 68 48 Q 58 68 78 74"
         style="fill:none; stroke:#000; stroke-opacity:100%; stroke-width:4; stroke-linejoin:round; stroke-linecap:round; fill-opacity:1; "
         id="path45"
         transform="matrix(0.96614 0.258018 -0.258018 0.96614 -13.2296 -13.887)">
      </path>
      <path
         transform="matrix(0.96614 0.258018 -0.258018 0.96614 -13.2296 -13.887)"
         style="fill:#000000; fill-opacity:1; stroke:none; "
         d="M 73.5 62.5 C 73.5 65.26 71.26 67.5 68.5 67.5 C 65.74 67.5 63.5 65.26 63.5 62.5 C 63.5 59.74 65.74 57.5 68.5 57.5 C 71.26 57.5 73.5 59.74 73.5 62.5 z "
         id="path2301">
      </path>

    </g>
    <g
       id="g70"
       transform="matrix(1 0 0 1 262.271 23.6044)"
       style="fill:#000000; fill-opacity:1; stroke:none; ">      <path
         d="M 40 16 h 48 v 4 h -48 v -4 Z"
         id="path6"
         transform="matrix(1 0 0 1 -31.99 0)"
         style="fill:#000000; fill-opacity:1; stroke:none; ">
      </path>
      <path
         d="M 40 24 h 48 v 4 h -48 v -4 Z"
         id="path7"
         transform="matrix(1 0 0 1 -31.99 0)"
         style="fill:#000000; fill-opacity:1; stroke:none; ">
      </path>
      <path
         d="M 40 32 h 32 v 4 h -32 v -4 Z"
         id="path8"
         transform="matrix(1 0 0 1 -31.99 0)"
         style="fill:#000000; fill-opacity:1; stroke:none; ">
      </path>

    </g>
    <path
       d="M 82 44 h 38 v 4 h -38 v -4 Z"
       id="path10"
       transform="matrix(1 0 0 1 230.281 23.6044)"
       style="fill:#000000; fill-opacity:1; stroke:none; ">
    </path>
    <path
       d="M 82 52 h 38 v 4 h -38 v -4 Z"
       id="path12"
       transform="matrix(1 0 0 1 230.281 23.6044)"
       style="fill:#000000; fill-opacity:1; stroke:none; ">
    </path>
    <path
       d="M 82 60 h 38 v 4 h -38 v -4 Z"
       id="path14"
       transform="matrix(1 0 0 1 230.281 23.6044)"
       style="fill:#000000; fill-opacity:1; stroke:none; ">
    </path>
    <path
       d="M 82 68 h 38 v 4 h -38 v -4 Z"
       id="path16"
       transform="matrix(1 0 0 1 230.281 23.6044)"
       style="fill:#000000; fill-opacity:1; stroke:none; ">
    </path>
    <path
       d="M 82 76 h 38 v 4 h -38 v -4 Z"
       id="path18"
       transform="matrix(1 0 0 1 230.281 23.6044)"
       style="fill:#000000; fill-opacity:1; stroke:none; ">
    </path>
    <path
       d="M 82 84 h 38 v 4 h -38 v -4 Z"
       id="path20"
       transform="matrix(1 0 0 1 230.281 23.6044)"
       style="fill:#000000; fill-opacity:1; stroke:none; ">
    </path>
    <path
       d="M 82 92 h 38 v 4 h -38 v -4 Z"
       id="path22"
       transform="matrix(1 0 0 1 230.281 23.6044)"
       style="fill:#000000; fill-opacity:1; stroke:none; ">
    </path>
    <path
       d="M 82 100 h 38 v 4 h -38 v -4 Z"
       id="path24"
       transform="matrix(1 0 0 1 230.281 23.6044)"
       style="fill:#000000; fill-opacity:1; stroke:none; ">
    </path>
    <path
       d="M 82 108 h 38 v 4 h -38 v -4 Z"
       id="path26"
       transform="matrix(1 0 0 1 230.281 23.6044)"
       style="fill:#000000; fill-opacity:1; stroke:none; ">
    </path>
    <path
       d="M 82 116 h 38 v 4 h -38 v -4 Z"
       id="path28"
       transform="matrix(1 0 0 1 230.281 23.6044)"
       style="fill:#000000; fill-opacity:1; stroke:none; ">
    </path>
    <g
       id="g110"
       style="fill:#000000; fill-opacity:1; stroke:none; "
       transform="matrix(1 0 0 1 262.271 23.6044)">      <path
         d="M 82 44 h 38 v 4 h -38 v -4 Z"
         id="path78"
         transform="matrix(1 0 0 1 -74.0579 4.26326e-14)"
         style="fill:#000000; fill-opacity:100%; stroke:none; ">
      </path>
      <path
         d="M 82 52 h 38 v 4 h -38 v -4 Z"
         id="path79"
         transform="matrix(1 0 0 1 -74.0579 4.26326e-14)"
         style="fill:#000000; fill-opacity:100%; stroke:none; ">
      </path>
      <path
         d="M 82 60 h 38 v 4 h -38 v -4 Z"
         id="path80"
         transform="matrix(1 0 0 1 -74.0579 4.26326e-14)"
         style="fill:#000000; fill-opacity:100%; stroke:none; ">
      </path>
      <path
         d="M 82 100 h 38 v 4 h -38 v -4 Z"
         id="path86"
         transform="matrix(1 0 0 1 -74.0579 4.26326e-14)"
         style="fill:#000000; fill-opacity:100%; stroke:none; ">
      </path>
      <path
         d="M 82 108 h 38 v 4 h -38 v -4 Z"
         id="path87"
         transform="matrix(1 0 0 1 -74.0579 4.26326e-14)"
         style="fill:#000000; fill-opacity:100%; stroke:none; ">
      </path>
      <path
         d="M 82 116 h 38 v 4 h -38 v -4 Z"
         id="path88"
         transform="matrix(1 0 0 1 -74.0579 4.26326e-14)"
         style="fill:#000000; fill-opacity:100%; stroke:none; ">
      </path>

    </g>

  </g>
  <g
     id="g7"
     transform="matrix(2.12117 0 0 2.12117 232.096 724.923)"
     style="fill:#000000; fill-opacity:1; stroke:nones; ">    <path
       d="M 0 42 h 46 l 6 -6 v -32 h -4 l -2 -4 h -16 l -2 4 h -22 l -2 2 v 2 l -4 4 Z"
       id="path2">
    </path>
    <path
       d="M 2 40 v -28 h 44 v 28 Z"
       style="fill:white"
       id="path2395">
    </path>
    <path
       d="M 6 10 v -4 h 23  l 2 -4 h 14 l 2 4 h 3 v 30 l -2 2 v -28 Z"
       style="fill:white"
       id="path2396">
    </path>

  </g>
  <g
     id="g2409"
     transform="matrix(0.922246 0 0 0.922246 231.33 120.861)">    <g
       id="g2397"
       transform="matrix(1 0 0 1 175.022 157.063)"
       style="fill:#000000; fill-opacity:0.5; stroke:none; ">      <path
         d="M 32 0 V 128 H 128  V 16 l -32  -16 Z"
         style="fill:#000; fill-opacity:100%"
         id="path2398"
         transform="matrix(1 0 0 1 -31.1028 0.398754)">
      </path>
      <path
         d="M 36 4 V 124 H 124  V 20 L 92 4 Z"
         style="fill:#FFF; fill-opacity:100%"
         id="path2399"
         transform="matrix(1 0 0 1 -31.1028 0.398754)">
      </path>
      <path
         d="M 128 20 h -36 q 4 -10 0 -20 Z"
         style="fill:#000; fill-opacity:100%"
         id="path2400"
         transform="matrix(1 0 0 1 -31.1028 0.398754)">
      </path>

    </g>
    <g
       id="g315"
       style="fill:#000000; fill-opacity:0.5; stroke:none; "
       transform="matrix(0.789835 0 0 0.789835 154.452 43.1426)">      <path
         d="M 0 42 h 46 l 6 -6 v -32 h -4 l -2 -4 h -16 l -2 4 h -22 l -2 2 v 2 l -4 4 Z"
         id="path2402"
         style="fill:#000000; fill-opacity:1; stroke:none; "
         transform="matrix(1.80699 0 0 1.80699 41.9634 191.458)">
      </path>
      <path
         d="M 2 40 v -28 h 44 v 28 Z"
         style="fill:white; fill-opacity:1; stroke:none; "
         id="path2403"
         transform="matrix(1.80699 0 0 1.80699 41.9634 191.458)">
      </path>
      <path
         d="M 6 10 v -4 h 23  l 2 -4 h 14 l 2 4 h 3 v 30 l -2 2 v -28 Z"
         style="fill:white; fill-opacity:1; stroke:none; "
         id="path2404"
         transform="matrix(1.80699 0 0 1.80699 41.9634 191.458)">
      </path>

    </g>
    <g
       id="g84"
       transform="matrix(1 -0.2578 0 1 180.108 171.384)"
       style="fill:#000000; fill-opacity:0.5; stroke:none; ">      <path
         d="M106.785,200.693c0-2.839,0.126-3.596,0.883-4.604c0.82-1.199,2.334-1.956,3.911-1.956c2.523,0,4.037,1.388,4.668,4.101c1.703-3.028,3.154-4.101,5.614-4.101c2.649,0,4.479,1.767,4.479,4.227c0,2.586-1.956,4.416-4.668,4.416h-0.568 c-0.694-0.063-1.198-0.063-1.388-0.063c-2.208,0-3.028,1.262-3.028,4.604v10.472c0,4.731-0.063,5.173-1.009,6.308c-1.009,1.262-2.397,1.956-3.911,1.956c-1.766,0-3.469-0.946-4.353-2.46c-0.567-1.01-0.63-1.515-0.63-5.804v-17.095z"
         id="path650"
         style="fill:#000000; fill-opacity:1; opacity:1; stroke:none; fill-rule:nonzero; clip-rule:nonzero; stroke-miterlimit:4; "
         transform="matrix(0.592956 0.162653 0 0.623728 -47.5996 -85.045)">
      </path>
      <path
         d="M139.586,228.132c0,4.731-0.063,5.173-1.009,6.309c-1.009,1.262-2.397,1.955-3.911,1.955c-1.766,0-3.469-0.946-4.353-2.46c-0.568-1.01-0.631-1.514-0.631-5.804v-28.196c0-3.785,1.703-5.804,4.92-5.804c2.649,0,3.911,1.136,4.983,4.227 c1.766-2.901,4.163-4.353,7.191-4.353c2.586,0,5.425,1.514,6.623,3.659c1.262,2.081,1.515,4.289,1.515,13.057c0,8.074-0.189,9.589-1.577,12.111c-1.136,2.082-3.533,3.344-6.561,3.344c-2.965,0-4.29-0.631-7.191-3.658v5.613z M139.712,209.965l-0.063,3.911 c0,2.713,0.883,4.037,2.775,4.037c1.766,0,2.334-1.072,2.46-4.353c0.063-0.946,0.126-4.479,0.126-5.299c0-3.027-0.126-4.289-0.505-5.172c-0.378-0.757-1.198-1.262-2.145-1.262c-1.956,0-2.712,1.135-2.649,4.1v4.037z"
         id="path651"
         style="fill:#000000; fill-opacity:1; opacity:1; stroke:none; fill-rule:nonzero; clip-rule:nonzero; stroke-miterlimit:4; "
         transform="matrix(0.592956 0.162653 0 0.623728 -48.7959 -85.8425)">
      </path>
      <path
         d="M158.951,200.567c0-2.397,0.253-3.532,1.01-4.604c0.82-1.136,2.46-1.893,4.1-1.893c2.587,0,3.911,1.198,4.795,4.353c2.207-3.218,4.226-4.416,7.38-4.416c3.344,0,5.299,1.262,6.876,4.416c2.019-3.218,4.037-4.416,7.443-4.416 c4.668,0,6.938,2.713,6.938,8.264v15.518c0,4.731-0.063,5.109-1.009,6.308c-1.01,1.262-2.397,1.956-3.911,1.956c-1.767,0-3.47-0.946-4.353-2.46c-0.567-1.01-0.631-1.515-0.631-5.804v-11.165c0-1.893,0-2.208-0.189-2.775c-0.252-0.884-1.009-1.451-1.955-1.451 c-1.01,0-1.893,0.694-2.145,1.703c-0.127,0.694-0.127,0.694-0.127,2.901v10.787c0,4.731-0.063,5.109-1.009,6.308c-1.01,1.262-2.397,1.956-3.911,1.956c-1.767,0-3.47-0.946-4.353-2.46c-0.567-1.01-0.631-1.515-0.631-5.804v-11.229c0-2.46,0-2.46-0.189-2.965 c-0.188-0.757-0.946-1.261-1.829-1.261c-1.009,0-1.893,0.63-2.208,1.576c-0.126,0.568-0.188,1.01-0.188,2.334v11.544c0,4.731-0.063,5.173-1.01,6.308c-1.009,1.262-2.396,1.956-3.911,1.956c-1.766,0-3.469-0.946-4.353-2.46c-0.567-1.01-0.631-1.515-0.631-5.804 v-17.221z"
         id="path652"
         style="fill:#000000; fill-opacity:1; opacity:1; stroke:none; fill-rule:nonzero; clip-rule:nonzero; stroke-miterlimit:4; "
         transform="matrix(0.592956 0.162653 0 0.623728 -48.7959 -85.8425)">
      </path>

    </g>

  </g>
  <g
     id="g2435"
     transform="matrix(0.922246 0 0 0.922246 483.724 265.875)">    <g
       id="g2423"
       transform="matrix(1 0 0 1 -0.7 -0.3)"
       style="fill:#000000; fill-opacity:0.5; stroke:none; ">      <path
         d="M 32 0 V 128 H 128  V 16 l -32  -16 Z"
         style="fill:#000; fill-opacity:100%"
         id="path2424"
         transform="matrix(1 0 0 1 -31.1028 0.398754)">
      </path>
      <path
         d="M 36 4 V 124 H 124  V 20 L 92 4 Z"
         style="fill:#FFF; fill-opacity:100%"
         id="path2425"
         transform="matrix(1 0 0 1 -31.1028 0.398754)">
      </path>
      <path
         d="M 128 20 h -36 q 4 -10 0 -20 Z"
         style="fill:#000; fill-opacity:100%"
         id="path2426"
         transform="matrix(1 0 0 1 -31.1028 0.398754)">
      </path>

    </g>
    <g
       id="g2427"
       style="fill:#000000; fill-opacity:0.5; stroke:none; "
       transform="matrix(0.789835 0 0 0.789835 -21.2699 -114.22)">      <path
         d="M 0 42 h 46 l 6 -6 v -32 h -4 l -2 -4 h -16 l -2 4 h -22 l -2 2 v 2 l -4 4 Z"
         id="path2428"
         style="fill:#000000; fill-opacity:1; stroke:none; "
         transform="matrix(1.80699 0 0 1.80699 41.9634 191.458)">
      </path>
      <path
         d="M 2 40 v -28 h 44 v 28 Z"
         style="fill:white; fill-opacity:1; stroke:none; "
         id="path2429"
         transform="matrix(1.80699 0 0 1.80699 41.9634 191.458)">
      </path>
      <path
         d="M 6 10 v -4 h 23  l 2 -4 h 14 l 2 4 h 3 v 30 l -2 2 v -28 Z"
         style="fill:white; fill-opacity:1; stroke:none; "
         id="path2430"
         transform="matrix(1.80699 0 0 1.80699 41.9634 191.458)">
      </path>

    </g>
    <g
       style="opacity:1; stroke:none; clip-rule:nonzero; stroke-miterlimit:4; fill:#000000; fill-opacity:1; "
       id="g1381"
       transform="matrix(0.602013 0.00781714 0 0.634568 -45.8302 -57.8943)">      <path
         d="M125.735,191.231c0-4.731,0.063-5.109,1.009-6.308c1.009-1.262,2.397-1.956,3.911-1.956c1.766,0,3.469,0.946,4.353,2.46c0.567,1.01,0.63,1.515,0.63,5.804v27.503c0,3.027-0.315,4.479-1.135,5.488c-0.82,1.135-2.334,1.829-3.722,1.829 c-2.586,0-4.227-1.451-5.046-4.542c-1.829,3.406-3.722,4.668-7.191,4.668c-2.839,0-5.11-1.136-6.371-3.344c-1.451-2.396-1.703-4.226-1.703-12.931c0-9.336,0.189-10.598,1.955-13.184c1.136-1.641,3.533-2.713,6.182-2.713c3.217,0,5.362,1.198,7.128,4.101v-6.876z M120.373,210.092c0,4.353,0.063,5.803,0.378,6.623c0.315,0.757,1.136,1.262,2.271,1.262c2.334,0,2.712-1.01,2.712-7.759c0-4.227-0.126-6.182-0.441-6.876c-0.378-0.757-1.262-1.324-2.208-1.324c-2.334,0-2.712,1.198-2.712,8.074z"
         id="path1382"
         style="fill:#000000; fill-opacity:1; ">
      </path>
      <path
         d="M149.706,212.552c0,2.334,0.063,3.091,0.126,4.1c0.252,1.956,1.262,3.028,2.902,3.028c1.009,0,1.893-0.441,2.271-1.198c0.063-0.127,0.253-0.694,0.441-1.641c0.253-1.577,1.767-2.523,3.911-2.523c2.839,0,4.416,1.515,4.416,4.227 c0,4.731-4.353,7.633-11.354,7.633c-4.731,0-8.011-1.262-10.156-3.785c-2.019-2.46-2.586-4.983-2.586-11.354c0-8.011,0.694-11.102,2.965-13.625c1.956-2.145,5.677-3.406,9.84-3.406c8.327,0,12.238,4.037,12.238,12.49c0,4.353-1.451,6.056-5.047,6.056h-9.966z M155.067,205.866c-0.063-4.037-0.567-4.983-2.839-4.983c-1.766,0-2.46,1.136-2.46,4.227v0.757h5.299z"
         id="path1383"
         style="fill:#000000; fill-opacity:1; ">
      </path>
      <path
         d="M178.47,198.233c2.208-3.091,4.227-4.227,7.191-4.227c2.522,0,4.794,1.01,6.056,2.775c1.703,2.208,2.145,4.921,2.145,12.806c0,8.642-0.315,10.976-1.767,13.436c-1.136,1.956-3.47,3.154-6.182,3.154c-3.532,0-5.804-1.388-7.507-4.542 c-0.819,3.091-2.271,4.416-4.92,4.416c-1.64,0-2.965-0.757-3.911-2.271c-0.757-1.198-1.009-2.649-1.009-5.298v-27.251c0-4.731,0.063-5.109,1.009-6.308c1.01-1.262,2.397-1.956,3.911-1.956c1.767,0,3.47,0.946,4.353,2.46c0.567,1.01,0.631,1.515,0.631,5.804v7.002 z M178.722,204.225c-0.189,0.82-0.252,2.965-0.252,6.245c0,4.289,0.126,5.93,0.631,6.75c0.315,0.631,1.324,1.072,2.208,1.072c1.009,0,1.829-0.441,2.145-1.199c0.315-0.819,0.505-3.153,0.505-7.443c0-6.056-0.505-7.506-2.649-7.506 c-1.451,0-2.397,0.757-2.587,2.081z"
         id="path1384"
         style="fill:#000000; fill-opacity:1; ">
      </path>

    </g>

  </g>
  <g
     id="g2454"
     transform="matrix(0.922246 0 0 0.922246 201.789 91.321)">    <g
       id="g2448"
       transform="matrix(1 0 0 1 203.871 340.652)"
       style="fill:#000000; fill-opacity:0.5; stroke:none; ">      <path
         d="M 32 0 V 128 H 128  V 16 l -32  -16 Z"
         style="fill:#000; fill-opacity:100%"
         id="path2449"
         transform="matrix(1 0 0 1 -31.1028 0.398754)">
      </path>
      <path
         d="M 36 4 V 124 H 124  V 20 L 92 4 Z"
         style="fill:#FFF; fill-opacity:100%"
         id="path2450"
         transform="matrix(1 0 0 1 -31.1028 0.398754)">
      </path>
      <path
         d="M 128 20 h -36 q 4 -10 0 -20 Z"
         style="fill:#000; fill-opacity:100%"
         id="path2451"
         transform="matrix(1 0 0 1 -31.1028 0.398754)">
      </path>

    </g>
    <g
       id="Layer_x0020_2"
       style="fill-rule:nonzero; clip-rule:nonzero; stroke:#000000; stroke-miterlimit:4; fill:#000000; fill-opacity:100%; "
       transform="matrix(1.24347 0 0 1.24347 138.118 293.874)">      <path
         style="stroke:none; fill:#000000; fill-opacity:100%; "
         d="M100.965,69.401H84.581v7.592h16.385v8.427H84.581v7.825h-8.658v12.521h8.658v7.855h16.385h1.465h6.793V76.993v-7.592h-8.258z M84.581,105.664V93.377h16.385v12.286H84.581z"
         id="path2453">
      </path>

    </g>

  </g>
  <g
     id="g23"
     transform="matrix(0.922246 0 0 0.922246 89.506 129.215)"
     style="fill:#000000; fill-opacity:0.5; stroke:none; ">    <path
       d="M 32 0 V 128 H 128  V 16 l -32  -16 Z"
       style="fill:#000; fill-opacity:100%"
       id="path2462">
    </path>
    <path
       d="M 36 4 V 124 H 124  V 20 L 92 4 Z"
       style="fill:#FFF; fill-opacity:100%"
       id="path2463">
    </path>
    <path
       d="M 128 20 h -36 q 4 -10 0 -20 Z"
       style="fill:#000; fill-opacity:100%"
       id="path2464">
    </path>
    <path
       d="M 40 16 h 48 v 4 h -48 v -4 Z"
       style="fill:#000; fill-opacity:100%"
       id="path2465">
    </path>
    <path
       d="M 40 16 h 48 v 4 h -48 v -4 Z"
       style="fill:#000; fill-opacity:100%"
       id="path2466">
    </path>
    <path
       d="M 40 24 h 48 v 4 h -48 v -4 Z"
       style="fill:#000; fill-opacity:100%"
       id="path2467">
    </path>
    <path
       d="M 40 32 h 32 v 4 h -32 v -4 Z"
       style="fill:#000; fill-opacity:100%"
       id="path9">
    </path>
    <path
       d="M 40 44 h 80 v 4 h -80 v -4 Z"
       style="fill:#000; fill-opacity:100%"
       id="path2469">
    </path>
    <path
       d="M 40 52 h 80 v 4 h -80 v -4 Z"
       style="fill:#000; fill-opacity:100%"
       id="path11">
    </path>
    <path
       d="M 40 60 h 80 v 4 h -80 v -4 Z"
       style="fill:#000; fill-opacity:100%"
       id="path2471">
    </path>
    <path
       d="M 40 68 h 80 v 4 h -80 v -4 Z"
       style="fill:#000; fill-opacity:100%"
       id="path13">
    </path>
    <path
       d="M 40 76 h 80 v 4 h -80 v -4 Z"
       style="fill:#000; fill-opacity:100%"
       id="path2473">
    </path>
    <path
       d="M 40 84 h 80 v 4 h -80 v -4 Z"
       style="fill:#000; fill-opacity:100%"
       id="path15">
    </path>
    <path
       d="M 40 92 h 80 v 4 h -80 v -4 Z"
       style="fill:#000; fill-opacity:100%"
       id="path2475">
    </path>
    <path
       d="M 40 100 h 80 v 4 h -80 v -4 Z"
       style="fill:#000; fill-opacity:100%"
       id="path17">
    </path>
    <path
       d="M 40 108 h 32 v 4 h -32 v -4 Z"
       style="fill:#000; fill-opacity:100%"
       id="path2477">
    </path>
    <path
       d="M 40 116 h 32 v 4 h -32 v -4 Z"
       style="fill:#000; fill-opacity:100%"
       id="path19">
    </path>

  </g>
  <g
     id="g2485"
     transform="matrix(0.922246 0 0 0.922246 428.262 -68.6874)">    <g
       id="g2479"
       transform="matrix(1 0 0 1 56.9996 513.751)"
       style="fill:#000000; fill-opacity:0.5; stroke:none; ">      <path
         d="M 32 0 V 128 H 128  V 16 l -32  -16 Z"
         style="fill:#000; fill-opacity:100%"
         id="path2480"
         transform="matrix(1 0 0 1 -31.1028 0.398754)">
      </path>
      <path
         d="M 36 4 V 124 H 124  V 20 L 92 4 Z"
         style="fill:#FFF; fill-opacity:100%"
         id="path2481"
         transform="matrix(1 0 0 1 -31.1028 0.398754)">
      </path>
      <path
         d="M 128 20 h -36 q 4 -10 0 -20 Z"
         style="fill:#000; fill-opacity:100%"
         id="path2482"
         transform="matrix(1 0 0 1 -31.1028 0.398754)">
      </path>

    </g>
    <path
       d="M86.84,104.511c0,3.369,0.16,6.658,0.562,9.305h-6.337l-0.642-4.893h-0.241c-2.086,3.049-6.336,5.775-11.872,5.775c-7.86,0-11.872-5.533-11.872-11.15c0-9.385,8.343-14.518,23.344-14.438v-0.802c0-3.209-0.884-9.064-8.824-8.984 c-3.689,0-7.461,1.043-10.188,2.888l-1.604-4.733c3.207-2.004,7.939-3.367,12.834-3.367c11.952,0,14.84,8.101,14.84,15.881v14.52z M79.942,94.003c-7.701-0.16-16.445,1.203-16.445,8.742c0,4.654,3.049,6.738,6.578,6.738c5.135,0,8.423-3.207,9.546-6.496 c0.24-0.723,0.321-1.523,0.321-2.246v-6.738z"
       id="path662"
       transform="matrix(0.87216 0 0 1.09082 63.3196 488.185)"
       style="stroke:none; fill-rule:nonzero; clip-rule:nonzero; stroke-miterlimit:4; fill:#000000; fill-opacity:100%; ">
    </path>
    <path
       d="M108.738,99.781l-6.337,14.035H90.047l26.392-54.064h14.839l6.258,54.064h-12.113l-1.123-14.035h-15.562z M123.819,90.955l-1.043-11.631c-0.241-2.968-0.481-7.299-0.722-10.588h-0.242c-1.363,3.289-2.888,7.46-4.33,10.588l-5.295,11.631h11.632z"
       id="path663"
       transform="matrix(-0.87216 -0 0 1.09082 188.039 488.584)"
       style="stroke:none; fill-rule:nonzero; clip-rule:nonzero; stroke-miterlimit:4; fill:#000000; fill-opacity:100%; ">
    </path>

  </g>
  <g
     id="g2492"
     transform="matrix(0.922246 0 0 0.922246 26.9265 128.395)"
     style="fill:#000000; fill-opacity:0.5; stroke:none; ">    <path
       d="M 32 0 V 128 H 128  V 16 l -32  -16 Z"
       style="fill:#000; fill-opacity:100%"
       id="path2493"
       transform="matrix(1 0 0 1 -31.1028 0.398754)">
    </path>
    <path
       d="M 36 4 V 124 H 124  V 20 L 92 4 Z"
       style="fill:#FFF; fill-opacity:100%"
       id="path2494"
       transform="matrix(1 0 0 1 -31.1028 0.398754)">
    </path>
    <path
       d="M 128 20 h -36 q 4 -10 0 -20 Z"
       style="fill:#000; fill-opacity:100%"
       id="path2495"
       transform="matrix(1 0 0 1 -31.1028 0.398754)">
    </path>

  </g>
  <g
     id="g2503"
     transform="matrix(0.922246 0 0 0.922246 -118.227 104.859)">    <g
       id="g2496"
       transform="matrix(1 0 0 1 300.912 505.883)"
       style="fill:#000000; fill-opacity:0.5; stroke:none; ">      <path
         d="M 32 0 V 128 H 128  V 16 l -32  -16 Z"
         style="fill:#000; fill-opacity:100%"
         id="path2497"
         transform="matrix(1 0 0 1 -31.1028 0.398754)">
      </path>
      <path
         d="M 36 4 V 124 H 124  V 20 L 92 4 Z"
         style="fill:#FFF; fill-opacity:100%"
         id="path2498"
         transform="matrix(1 0 0 1 -31.1028 0.398754)">
      </path>
      <path
         d="M 128 20 h -36 q 4 -10 0 -20 Z"
         style="fill:#000; fill-opacity:100%"
         id="path2499"
         transform="matrix(1 0 0 1 -31.1028 0.398754)">
      </path>

    </g>
    <path
       style="fill:#ffffff; stroke-width:2.3505; fill-rule:nonzero; clip-rule:nonzero; stroke:#000000; stroke-miterlimit:4; fill-opacity:1; "
       d="M159.27,76.478c-11.534-11.534-87.346-28.099-59.567,19.499c14.061,24.093-24.042,48.41-3.249,79.922c25.068,37.989,95.354-1.446,56.531-37.037c-27.291-25.017,17.817-50.851,6.284-62.384z"
       id="path943"
       transform="matrix(0.607901 0 0 0.607901 272.429 497.392)">
    </path>
    <path
       style="stroke:none; fill-rule:nonzero; clip-rule:nonzero; stroke-miterlimit:4; fill:#000000; fill-opacity:0.5; "
       d="M189.4,100.33h-6.418l-21.874-21.874c0.308-0.464,0.489-1.019,0.489-1.618c0-1.622-1.315-2.937-2.936-2.937c-0.6,0-1.155,0.182-1.619,0.488l-22.481-22.482v-7.005h-0.587h-7.248v7.836h7.004l22.483,22.483 c-0.307,0.464-0.488,1.019-0.488,1.617c0,1.622,1.313,2.937,2.937,2.937c0.599,0,1.152-0.181,1.618-0.488l21.873,21.874v7.005h7.834v-7.836H189.4z M133.387,51.563c-0.883,0-4.603,0-5.485,0c0-0.882,0-4.603,0-5.485c0.883,0,4.603,0,5.485,0 c0,0.883,0,4.603,0,5.485z M188.813,106.991c-0.884,0-4.603,0-5.483,0c0-0.882,0-4.604,0-5.486c0.881,0,4.6,0,5.483,0c0,0.882,0,4.604,0,5.486z"
       id="path944"
       transform="matrix(0.607901 0 0 0.607901 272.429 497.392)">
    </path>
    <path
       style="stroke:none; fill-rule:nonzero; clip-rule:nonzero; stroke-miterlimit:4; fill:#000000; fill-opacity:0.5; "
       d="M111.96,60.073v-7.834h-0.587h-7.249v7.004l-7.257,7.256c-0.464-0.306-1.019-0.488-1.617-0.488c-1.622,0-2.937,1.315-2.937,2.936c0,0.599,0.181,1.153,0.488,1.618l-7.675,7.675H78.12v7.837h7.836v-7.005l7.676-7.676 c0.463,0.308,1.019,0.488,1.617,0.488c1.622,0,2.937-1.315,2.937-2.937c0-0.598-0.182-1.153-0.488-1.617l7.257-7.257h7.005z M105.299,53.414c0.883,0,4.604,0,5.486,0c0,0.882,0,4.601,0,5.484c-0.883,0-4.604,0-5.486,0c0-0.883,0-4.602,0-5.484z M79.295,84.901 c0-0.883,0-4.604,0-5.486c0.852,0,4.328,0,5.362,0l0.124,0.124c0,1.034,0,4.51,0,5.362c-0.882,0-4.603,0-5.485,0z"
       id="path946"
       transform="matrix(0.607901 0 0 0.607901 272.429 497.392)">
    </path>

  </g>
  <g
     transform="matrix(0.922246 0 0 0.922246 87.4094 406.088)"
     id="g781"
     style="fill:#000000; fill-opacity:1; stroke:none; ">    <path
       d="M 32 0 V 128 H 128 V 16 l -32 -16 Z"
       id="path782">
    </path>
    <path
       d="M 36 4 V 124 H 124 V 20 L 92 4 Z"
       style="fill:#FFF"
       id="path783">
    </path>
    <path
       d="M 128 20 h -36 q 4 -10 0 -20 Z"
       id="path784">
    </path>
    <path
       d="M 72 40 l 24 -16 v 64 l -24 -16 h -8 v -32 Z"
       style="fill:none;stroke:#000;stroke-opacity:100%;stroke-width:4;stroke-linejoin:round"
       id="path785">
    </path>
    <path
       d="M 48 108 h 18 l2 -16l2 28l2 -22l2 12l2 -14l2 22l2 -28l2 28l2 -14l2 12l2 -24l2 28l2 -26l2 22  L 96 108 H 112 Z"
       style="fill:none;stroke:#000;stroke-opacity:100%;stroke-width:1;stroke-linejoin:round"
       id="path786">
    </path>

  </g>
  <g
     transform="matrix(0.922246 0 0 0.922246 178.364 406.063)"
     id="g763"
     style="fill:#000000; fill-opacity:1; stroke:none; ">    <path
       d="M 32 0 V 128 H 128 V 16 l -32 -16 Z"
       id="path764">
    </path>
    <path
       d="M 36 4 V 124 H 124 V 20 L 92 4 Z"
       style="fill:#FFF"
       id="path765">
    </path>
    <path
       d="M 128 20 h -36 q 4 -10 0 -20 Z"
       id="path766">
    </path>
    <path
       d="M 72 40 l 24 -16 v 64 l -24 -16 h -8 v -32 Z"
       style="fill:none;stroke:#000;stroke-opacity:100%;stroke-width:4;stroke-linejoin:round"
       id="path767">
    </path>
    <path
       d="M 48 108 h 14 v-10 h4 v20 h4 v-20 h4 v20 h4 v-20 h4 v20 h4 v-20 h4 v20 h4 v-20 h4 v10 H 96  H 112 Z"
       style="fill:none;stroke:#000;stroke-opacity:100%;stroke-width:1;"
       id="path768">
    </path>

  </g>
  <g
     transform="matrix(0.922246 0 0 0.922246 269.918 405.61)"
     id="g790"
     style="fill:#000000; fill-opacity:1; stroke:none; ">    <path
       d="M 32 0 V 128 H 128 V 16 l -32 -16 Z"
       id="path791">
    </path>
    <path
       d="M 36 4 V 124 H 124 V 20 L 92 4 Z"
       style="fill:#FFF"
       id="path792">
    </path>
    <path
       d="M 128 20 h -36 q 4 -10 0 -20 Z"
       id="path793">
    </path>
    <path
       d="M 72 40 l 24 -16 v 64 l -24 -16 h -8 v -32 Z"
       style="fill:none;stroke:#000;stroke-opacity:100%;stroke-width:4;stroke-linejoin:round"
       id="path794">
    </path>
    <path
       d="M 48 100 h4 v-3 h28 v6 h-28 v-3 H 112 Z"
       style="fill:none;stroke:#000;stroke-opacity:100%;stroke-width:1"
       id="path795">
    </path>
    <path
       d="M 48 108 h8 v-3 h48 v6 h-48 v-3 H 112 Z"
       style="fill:none;stroke:#000;stroke-opacity:100%;stroke-width:1"
       id="path796">
    </path>
    <path
       d="M 48 116 h4 v-3 h8 v6 h-8 v-3 h8 h16 v-3 h32 v6 h-32 v-3 H 112 Z"
       style="fill:none;stroke:#000;stroke-opacity:100%;stroke-width:1"
       id="path797">
    </path>

  </g>
  <g
     id="g2539"
     transform="matrix(0.922246 0 0 0.922246 210.649 266.285)">    <g
       id="g2531"
       transform="matrix(1 0 0 1 -0.7 -0.3)"
       style="fill:#000000; fill-opacity:0.5; stroke:none; ">      <path
         d="M 32 0 V 128 H 128  V 16 l -32  -16 Z"
         style="fill:#000; fill-opacity:100%"
         id="path2532"
         transform="matrix(1 0 0 1 -31.1028 0.398754)">
      </path>
      <path
         d="M 36 4 V 124 H 124  V 20 L 92 4 Z"
         style="fill:#FFF; fill-opacity:100%"
         id="path2533"
         transform="matrix(1 0 0 1 -31.1028 0.398754)">
      </path>
      <path
         d="M 128 20 h -36 q 4 -10 0 -20 Z"
         style="fill:#000; fill-opacity:100%"
         id="path2534"
         transform="matrix(1 0 0 1 -31.1028 0.398754)">
      </path>

    </g>
    <g
       id="g10"
       transform="matrix(0.663551 0 0 0.663551 15.7514 21.3669)"
       style="fill:#000000; fill-opacity:0.5; stroke:none; ">      <path
         d="M 32 0 V 128 H 128  V 16 l -32  -16 Z"
         style="fill:#000; fill-opacity:100%"
         id="path2536"
         transform="matrix(1 0 0 1 -31.1028 0.398754)">
      </path>
      <path
         d="M 36 4 V 124 H 124  V 20 L 92 4 Z"
         style="fill:#FFF; fill-opacity:100%"
         id="path2537"
         transform="matrix(1 0 0 1 -31.1028 0.398754)">
      </path>
      <path
         d="M 128 20 h -36 q 4 -10 0 -20 Z"
         style="fill:#000; fill-opacity:100%"
         id="path2538"
         transform="matrix(1 0 0 1 -31.1028 0.398754)">
      </path>

    </g>

  </g>
  <g
     id="g2555"
     transform="matrix(0.922246 0 0 0.922246 172.249 -35.4544)">    <g
       id="g2548"
       transform="matrix(1 0 0 0.996884 185.512 658.4)"
       style="fill:#000000; fill-opacity:0.5; stroke:none; ">      <path
         d="M 32 0 V 128 H 128  V 16 l -32  -16 Z"
         style="fill:#000; fill-opacity:100%"
         id="path2549"
         transform="matrix(1 0 0 1 -31.1028 0.398754)">
      </path>
      <path
         d="M 36 4 V 124 H 124  V 20 L 92 4 Z"
         style="fill:#FFF; fill-opacity:100%"
         id="path2550"
         transform="matrix(1 0 0 1 -31.1028 0.398754)">
      </path>
      <path
         d="M 128 20 h -36 q 4 -10 0 -20 Z"
         style="fill:#000; fill-opacity:100%"
         id="path2551"
         transform="matrix(1 0 0 1 -31.1028 0.398754)">
      </path>

    </g>
    <g
       id="g12"
       transform="matrix(3.45417 0 0 3.45417 195.015 686.156)"
       style="fill:#000000; fill-opacity:0.5; stroke:none; ">      <path
         style="stroke:none; fill-rule:nonzero; clip-rule:nonzero; stroke-miterlimit:4; fill:#000000; fill-opacity:100%; "
         d="M94.873,4.018c-11.393,0-19.047,7.654-19.047,19.047v56.395c0,11.041,7.134,18.175,18.175,18.175h13.802c10.103,0,16.14-8.898,16.14-17.5V48.785c0-4.411-3.589-8-8-8s-8,3.589-8,8v31.349c0,0.793-0.222,1.286-0.36,1.5 c-0.427,0-13.582,0-13.582,0c-1.138,0-1.72-0.164-1.919-0.255c-0.091-0.2-0.255-0.781-0.255-1.919V23.064c0-2.534,0.513-3.047,3.047-3.047h20.93c4.411,0,11-0.589,11-5s-3.279-11-11-11h-20.93z"
         id="path1068"
         transform="matrix(0.216945 0 0 0.216945 -10.6237 -0.686022)">
      </path>
      <path
         style="fill:#ffffff; stroke:none; fill-rule:nonzero; clip-rule:nonzero; stroke-miterlimit:4; fill-opacity:1; "
         d="M94.873,10.018c-8.047,0-13.047,5-13.047,13.047v56.395c0,7.737,4.438,12.175,12.175,12.175h13.802c6.586,0,10.14-5.925,10.14-11.5V48.785c0-1.104-0.896-2-2-2s-2,0.896-2,2v31.349c0,3.727-2.109,7.5-6.14,7.5H94.001 c-5.577,0-8.175-2.598-8.175-8.175V23.064c0-5.834,3.213-9.047,9.047-9.047h24.06c0,0-0.26-4-3.13-4h-20.93z"
         id="path1072"
         transform="matrix(0.216945 0 0 0.216945 -10.6237 -0.686022)">
      </path>

    </g>

  </g>
  <g
     transform="matrix(0.922246 0 0 0.922246 -2.99737 405.986)"
     id="g773"
     style="fill:#000000; fill-opacity:1; stroke:none; ">    <path
       d="M 32 0 V 128 H 128 V 16 l -32 -16 Z"
       id="path774">
    </path>
    <path
       d="M 36 4 V 124 H 124 V 20 L 92 4 Z"
       style="fill:#FFF"
       id="path775">
    </path>
    <path
       d="M 128 20 h -36 q 4 -10 0 -20 Z"
       id="path776">
    </path>
    <path
       d="M 72 48 l 24 -16 v 64 l -24 -16 h -8 v -32 Z"
       style="fill:none;stroke:#000;stroke-opacity:100%;stroke-width:4;stroke-linejoin:round"
       id="path777">
    </path>

  </g>
  <g
     transform="matrix(0.922246 0 0 0.922246 181.443 129.065)"
     id="g216"
     style="fill:#000000; fill-opacity:1; stroke:none; ">    <path
       d="M 32 0 V 128 H 128 V 16 l -32 -16 Z"
       id="path217">
    </path>
    <path
       d="M 36 4 V 124 H 124 V 20 L 92 4 Z"
       style="fill:#FFF"
       id="path218">
    </path>
    <path
       d="M 128 20 h -36 q 4 -10 0 -20 Z"
       id="path219">
    </path>
    <path
       d="M 40 16 h 48 v 4 h -48 v -4 Z"
       id="path220">
    </path>
    <path
       d="M 40 24 h 48 v 4 h -48 v -4 Z"
       id="path221">
    </path>
    <path
       d="M 40 32 h 32 v 4 h -32 v -4 Z"
       id="path222">
    </path>
    <path
       d="M 40 44 h 38 v 4 h -38 v -4 Z"
       id="path223">
    </path>
    <path
       d="M 82 44 h 38 v 4 h -38 v -4 Z"
       id="path224">
    </path>
    <path
       d="M 40 52 h 38 v 4 h -38 v -4 Z"
       id="path225">
    </path>
    <path
       d="M 82 52 h 38 v 4 h -38 v -4 Z"
       id="path226">
    </path>
    <path
       d="M 40 60 h 38 v 4 h -38 v -4 Z"
       id="path227">
    </path>
    <path
       d="M 82 60 h 38 v 4 h -38 v -4 Z"
       id="path228">
    </path>
    <path
       d="M 40 68 h 38 v 4 h -38 v -4 Z"
       id="path229">
    </path>
    <path
       d="M 82 68 h 38 v 4 h -38 v -4 Z"
       id="path230">
    </path>
    <path
       d="M 40 76 h 38 v 4 h -38 v -4 Z"
       id="path231">
    </path>
    <path
       d="M 82 76 h 38 v 4 h -38 v -4 Z"
       id="path232">
    </path>
    <path
       d="M 40 84 h 38 v 4 h -38 v -4 Z"
       id="path233">
    </path>
    <path
       d="M 82 84 h 38 v 4 h -38 v -4 Z"
       id="path234">
    </path>
    <path
       d="M 40 92 h 38 v 4 h -38 v -4 Z"
       id="path235">
    </path>
    <path
       d="M 82 92 h 38 v 4 h -38 v -4 Z"
       id="path236">
    </path>
    <path
       d="M 40 100 h 38 v 4 h -38 v -4 Z"
       id="path237">
    </path>
    <path
       d="M 82 100 h 38 v 4 h -38 v -4 Z"
       id="path238">
    </path>
    <path
       d="M 40 108 h 38 v 4 h -38 v -4 Z"
       id="path239">
    </path>
    <path
       d="M 82 108 h 38 v 4 h -38 v -4 Z"
       id="path240">
    </path>
    <path
       d="M 40 116 h 38 v 4 h -38 v -4 Z"
       id="path241">
    </path>
    <path
       d="M 82 116 h 38 v 4 h -38 v -4 Z"
       id="path242">
    </path>

  </g>
  <g
     id="g2715"
     transform="matrix(1 0 0 1 -228.934 -350.788)">    <g
       id="g2563"
       style="fill:#000000; fill-opacity:1; stroke:none; "
       transform="matrix(0.922246 0 0 0.922246 254.792 615.798)">      <g
         id="g2564">        <path
           d="M 32 0 V 128 H 128 V 16 l -32 -16 Z"
           id="path2565"
           transform="matrix(1 0 0 1 -31.99 0)"
           style="fill:#000000; fill-opacity:1; stroke:none; ">
        </path>
        <path
           d="M 128 20 h -36 q 4 -10 0 -20 Z"
           id="path2566"
           transform="matrix(1 0 0 1 -31.99 0)"
           style="fill:#000000; fill-opacity:1; stroke:none; ">
        </path>

      </g>
      <path
         d="M 36 4 V 124 H 124 V 20 L 92 4 Z"
         style="fill:#FFF; fill-opacity:1; stroke:none; "
         id="path2567"
         transform="matrix(1 0 0 1 -31.99 0)">
      </path>

    </g>
    <g
       id="g2568"
       transform="matrix(0.922246 0 0 0.922246 254.792 615.798)"
       style="fill:#000000; fill-opacity:1; stroke:none; ">      <path
         d="M 40 16 h 48 v 4 h -48 v -4 Z"
         id="path2569"
         transform="matrix(1 0 0 1 -31.99 0)"
         style="fill:#000000; fill-opacity:1; stroke:none; ">
      </path>
      <path
         d="M 40 24 h 48 v 4 h -48 v -4 Z"
         id="path2570"
         transform="matrix(1 0 0 1 -31.99 0)"
         style="fill:#000000; fill-opacity:1; stroke:none; ">
      </path>
      <path
         d="M 40 32 h 32 v 4 h -32 v -4 Z"
         id="path2571"
         transform="matrix(1 0 0 1 -31.99 0)"
         style="fill:#000000; fill-opacity:1; stroke:none; ">
      </path>

    </g>
    <path
       d="M 82 44 h 38 v 4 h -38 v -4 Z"
       id="path2572"
       transform="matrix(0.922246 0 0 0.922246 225.289 615.798)"
       style="fill:#000000; fill-opacity:1; stroke:none; ">
    </path>
    <path
       d="M 82 52 h 38 v 4 h -38 v -4 Z"
       id="path2573"
       transform="matrix(0.922246 0 0 0.922246 225.289 615.798)"
       style="fill:#000000; fill-opacity:1; stroke:none; ">
    </path>
    <path
       d="M 82 60 h 38 v 4 h -38 v -4 Z"
       id="path2574"
       transform="matrix(0.922246 0 0 0.922246 225.289 615.798)"
       style="fill:#000000; fill-opacity:1; stroke:none; ">
    </path>
    <path
       d="M 82 68 h 38 v 4 h -38 v -4 Z"
       id="path2575"
       transform="matrix(0.922246 0 0 0.922246 225.289 615.798)"
       style="fill:#000000; fill-opacity:1; stroke:none; ">
    </path>
    <path
       d="M 82 76 h 38 v 4 h -38 v -4 Z"
       id="path2576"
       transform="matrix(0.922246 0 0 0.922246 225.289 615.798)"
       style="fill:#000000; fill-opacity:1; stroke:none; ">
    </path>
    <path
       d="M 82 84 h 38 v 4 h -38 v -4 Z"
       id="path2577"
       transform="matrix(0.922246 0 0 0.922246 225.289 615.798)"
       style="fill:#000000; fill-opacity:1; stroke:none; ">
    </path>
    <path
       d="M 82 92 h 38 v 4 h -38 v -4 Z"
       id="path2578"
       transform="matrix(0.922246 0 0 0.922246 225.289 615.798)"
       style="fill:#000000; fill-opacity:1; stroke:none; ">
    </path>
    <path
       d="M 82 100 h 38 v 4 h -38 v -4 Z"
       id="path2579"
       transform="matrix(0.922246 0 0 0.922246 225.289 615.798)"
       style="fill:#000000; fill-opacity:1; stroke:none; ">
    </path>
    <path
       d="M 82 108 h 38 v 4 h -38 v -4 Z"
       id="path2580"
       transform="matrix(0.922246 0 0 0.922246 225.289 615.798)"
       style="fill:#000000; fill-opacity:1; stroke:none; ">
    </path>
    <path
       d="M 82 116 h 38 v 4 h -38 v -4 Z"
       id="path2581"
       transform="matrix(0.922246 0 0 0.922246 225.289 615.798)"
       style="fill:#000000; fill-opacity:1; stroke:none; ">
    </path>
    <g
       id="g2582"
       style="fill:#000000; fill-opacity:1; stroke:none; "
       transform="matrix(0.922246 0 0 0.922246 254.792 615.798)">      <path
         d="M 82 44 h 38 v 4 h -38 v -4 Z"
         id="path2583"
         transform="matrix(1 0 0 1 -74.0579 4.26326e-14)"
         style="fill:#000000; fill-opacity:100%; stroke:none; ">
      </path>
      <path
         d="M 82 52 h 38 v 4 h -38 v -4 Z"
         id="path2584"
         transform="matrix(1 0 0 1 -74.0579 4.26326e-14)"
         style="fill:#000000; fill-opacity:100%; stroke:none; ">
      </path>
      <path
         d="M 82 60 h 38 v 4 h -38 v -4 Z"
         id="path2585"
         transform="matrix(1 0 0 1 -74.0579 4.26326e-14)"
         style="fill:#000000; fill-opacity:100%; stroke:none; ">
      </path>
      <path
         d="M 82 100 h 38 v 4 h -38 v -4 Z"
         id="path2586"
         transform="matrix(1 0 0 1 -74.0579 4.26326e-14)"
         style="fill:#000000; fill-opacity:100%; stroke:none; ">
      </path>
      <path
         d="M 82 108 h 38 v 4 h -38 v -4 Z"
         id="path2587"
         transform="matrix(1 0 0 1 -74.0579 4.26326e-14)"
         style="fill:#000000; fill-opacity:100%; stroke:none; ">
      </path>
      <path
         d="M 82 116 h 38 v 4 h -38 v -4 Z"
         id="path2588"
         transform="matrix(1 0 0 1 -74.0579 4.26326e-14)"
         style="fill:#000000; fill-opacity:100%; stroke:none; ">
      </path>

    </g>
    <g
       id="g122"
       style="fill:#000000; fill-opacity:1; stroke:none; "
       transform="matrix(0.236435 0 0 0.236435 194.301 640.077)">      <path
         transform="matrix(1 0 0 1 4.08752 1.6831)"
         style="stroke:none; fill:#000000; fill-opacity:100%; fill-rule:evenodd; stroke-opacity:100%; stroke-width:1px; stroke-linejoin:miter; stroke-linecap:butt; "
         d="M 396.955 224.052 C 378.442 224.861 355.747 224.653 340.691 243.648 C 330.204 232.106 308.712 227.265 275.772 236.074 C 295.248 215.067 327.319 218.642 339.008 226.817 C 349.255 217.44 371.227 210.74 396.955 224.052 z "
         id="path120"
         sodipodi:nodetypes="ccccc">
      </path>
      <path
         transform="matrix(0.732143 0.0803571 0 0.732143 153.334 7.30446)"
         style="stroke:none; fill:#000000; fill-opacity:100%; fill-rule:evenodd; stroke-opacity:100%; stroke-width:1px; stroke-linejoin:miter; stroke-linecap:butt; "
         d="M 399.418 227.23 C 379.427 225.245 355.747 224.653 340.691 243.648 C 330.204 232.106 306.742 228.466 273.802 237.275 C 295.248 218.023 327.319 222.09 339.008 230.265 C 349.255 220.888 373.69 213.918 399.418 227.23 z "
         id="path121"
         sodipodi:nodetypes="ccccc">
      </path>

    </g>

  </g>
  <g
     id="g2745"
     transform="matrix(1 0 0 1 -4.92353 -333.556)">    <g
       id="g2639"
       style="fill:#000000; fill-opacity:1; stroke:none; "
       transform="matrix(0.922246 0 0 0.922246 494.251 463.415)">      <g
         id="g2640">        <path
           d="M 32 0 V 128 H 128 V 16 l -32 -16 Z"
           id="path2641"
           transform="matrix(1 0 0 1 -31.99 0)"
           style="fill:#000000; fill-opacity:1; stroke:none; ">
        </path>
        <path
           d="M 128 20 h -36 q 4 -10 0 -20 Z"
           id="path2642"
           transform="matrix(1 0 0 1 -31.99 0)"
           style="fill:#000000; fill-opacity:1; stroke:none; ">
        </path>

      </g>
      <path
         d="M 36 4 V 124 H 124 V 20 L 92 4 Z"
         style="fill:#FFF; fill-opacity:1; stroke:none; "
         id="path2643"
         transform="matrix(1 0 0 1 -31.99 0)">
      </path>

    </g>
    <g
       id="g2644"
       transform="matrix(0.922246 0 0 0.922246 494.251 463.415)"
       style="fill:#000000; fill-opacity:1; stroke:none; ">      <path
         d="M 40 16 h 48 v 4 h -48 v -4 Z"
         id="path2645"
         transform="matrix(1 0 0 1 -31.99 0)"
         style="fill:#000000; fill-opacity:1; stroke:none; ">
      </path>
      <path
         d="M 40 24 h 48 v 4 h -48 v -4 Z"
         id="path2646"
         transform="matrix(1 0 0 1 -31.99 0)"
         style="fill:#000000; fill-opacity:1; stroke:none; ">
      </path>
      <path
         d="M 40 32 h 32 v 4 h -32 v -4 Z"
         id="path2647"
         transform="matrix(1 0 0 1 -31.99 0)"
         style="fill:#000000; fill-opacity:1; stroke:none; ">
      </path>

    </g>
    <path
       d="M 82 44 h 38 v 4 h -38 v -4 Z"
       id="path2648"
       transform="matrix(0.922246 0 0 0.922246 464.748 463.415)"
       style="fill:#000000; fill-opacity:1; stroke:none; ">
    </path>
    <path
       d="M 82 52 h 38 v 4 h -38 v -4 Z"
       id="path2649"
       transform="matrix(0.922246 0 0 0.922246 464.748 463.415)"
       style="fill:#000000; fill-opacity:1; stroke:none; ">
    </path>
    <path
       d="M 82 60 h 38 v 4 h -38 v -4 Z"
       id="path2650"
       transform="matrix(0.922246 0 0 0.922246 464.748 463.415)"
       style="fill:#000000; fill-opacity:1; stroke:none; ">
    </path>
    <path
       d="M 82 68 h 38 v 4 h -38 v -4 Z"
       id="path2651"
       transform="matrix(0.922246 0 0 0.922246 464.748 463.415)"
       style="fill:#000000; fill-opacity:1; stroke:none; ">
    </path>
    <path
       d="M 82 76 h 38 v 4 h -38 v -4 Z"
       id="path2652"
       transform="matrix(0.922246 0 0 0.922246 464.748 463.415)"
       style="fill:#000000; fill-opacity:1; stroke:none; ">
    </path>
    <path
       d="M 82 84 h 38 v 4 h -38 v -4 Z"
       id="path2653"
       transform="matrix(0.922246 0 0 0.922246 464.748 463.415)"
       style="fill:#000000; fill-opacity:1; stroke:none; ">
    </path>
    <path
       d="M 82 92 h 38 v 4 h -38 v -4 Z"
       id="path2654"
       transform="matrix(0.922246 0 0 0.922246 464.748 463.415)"
       style="fill:#000000; fill-opacity:1; stroke:none; ">
    </path>
    <path
       d="M 82 100 h 38 v 4 h -38 v -4 Z"
       id="path2655"
       transform="matrix(0.922246 0 0 0.922246 464.748 463.415)"
       style="fill:#000000; fill-opacity:1; stroke:none; ">
    </path>
    <path
       d="M 82 108 h 38 v 4 h -38 v -4 Z"
       id="path2656"
       transform="matrix(0.922246 0 0 0.922246 464.748 463.415)"
       style="fill:#000000; fill-opacity:1; stroke:none; ">
    </path>
    <path
       d="M 82 116 h 38 v 4 h -38 v -4 Z"
       id="path2657"
       transform="matrix(0.922246 0 0 0.922246 464.748 463.415)"
       style="fill:#000000; fill-opacity:1; stroke:none; ">
    </path>
    <g
       id="g2658"
       style="fill:#000000; fill-opacity:1; stroke:none; "
       transform="matrix(0.922246 0 0 0.922246 494.251 463.415)">      <path
         d="M 82 44 h 38 v 4 h -38 v -4 Z"
         id="path2659"
         transform="matrix(1 0 0 1 -74.0579 4.26326e-14)"
         style="fill:#000000; fill-opacity:100%; stroke:none; ">
      </path>
      <path
         d="M 82 52 h 38 v 4 h -38 v -4 Z"
         id="path2660"
         transform="matrix(1 0 0 1 -74.0579 4.26326e-14)"
         style="fill:#000000; fill-opacity:100%; stroke:none; ">
      </path>
      <path
         d="M 82 60 h 38 v 4 h -38 v -4 Z"
         id="path2661"
         transform="matrix(1 0 0 1 -74.0579 4.26326e-14)"
         style="fill:#000000; fill-opacity:100%; stroke:none; ">
      </path>
      <path
         d="M 82 100 h 38 v 4 h -38 v -4 Z"
         id="path2662"
         transform="matrix(1 0 0 1 -74.0579 4.26326e-14)"
         style="fill:#000000; fill-opacity:100%; stroke:none; ">
      </path>
      <path
         d="M 82 108 h 38 v 4 h -38 v -4 Z"
         id="path2663"
         transform="matrix(1 0 0 1 -74.0579 4.26326e-14)"
         style="fill:#000000; fill-opacity:100%; stroke:none; ">
      </path>
      <path
         d="M 82 116 h 38 v 4 h -38 v -4 Z"
         id="path2664"
         transform="matrix(1 0 0 1 -74.0579 4.26326e-14)"
         style="fill:#000000; fill-opacity:100%; stroke:none; ">
      </path>

    </g>
    <path
       style="fill:#000000; stroke:none; fill-rule:nonzero; clip-rule:nonzero; stroke-miterlimit:4; fill-opacity:1; "
       d="M88.735,107.738c0,6.523,1.844,13.105,5.319,19.307c-3.41,4.205-4.293,9.725-4.293,15.412c0,2.938,0.227,5.914,0.443,8.768l0.172,2.316c0.004,0.048,0.005,0.097,0.005,0.146c0,2.8-5.498,6.337-9.157,8.691 c-3.83,2.465-9.742,6.269-9.742,11.486c0,1.247,0.339,2.576,1.124,3.986c0.001,0.003,4.05,3.146,4.05,3.146c3.623,0.973,6.904-0.986,12.858-4.543c2.401-1.434,6.536-3.896,8.827-4.732c2.401,2.047,5.342,3.21,8.676,3.311c4.315,0.132,8.71-1.458,12.702-3.679 c-0.037,0.522-0.062,1.031-0.062,1.508c0,4.377,1.516,6.854,4.55,8.081c1.25,0.506,2.516,0.707,3.844,0.451c0.262,2.82,0.992,5.336,2.432,7.219c0.814,1.064,1.834,1.887,2.967,2.496c-0.141,2.322-0.576,5.619-0.859,7.707c-0.432,3.197-0.764,5.652-0.764,7.621 c0,2.637,0.596,4.398,2.348,5.896c1.619,1.385,3.809,1.848,5.859,1.236c5.582-1.668,6.551-7.697,7.574-14.082c0.764-4.756,1.809-11.268,4.521-13.529l1.615-1.338c5.912-4.879,12.613-10.411,15.053-17.758c0.473-1.426,0.713-2.864,0.84-4.304 c5.188-2.331,9.996-5.829,14.072-10.362c10.23-11.385,21.254-32.119,21.254-46.079c0-3.228-0.59-6.095-1.914-8.398c-1.789-3.11-4.758-5.032-8.363-5.413c-12.627-1.332-30.852,17.752-36.137,23.632c0,0.001-2.846,3.144-3.758,4.151 c-0.643-2.289-1.971-3.806-4.082-4.66c-1.061-0.429-2.064-0.525-3.033-0.455c-0.002-0.305-0.039-7.234-0.039-7.234c0-24.331-9.4-50.189-26.821-50.189c-17.771,0-32.081,27.457-32.081,50.189z M135.95,149.324c0.316,0.146,2.311,1.066,4.588,2.117 c-2.396-0.447-4.76-0.888-4.879-0.91c0.076-0.316,0.146-0.604,0.291-1.207z"
       id="path331"
       transform="matrix(0.194455 0 0 0.194455 493.067 512.326)">
    </path>
    <path
       style="fill:#ffffff; stroke:none; fill-rule:nonzero; clip-rule:nonzero; stroke-miterlimit:4; fill-opacity:100%; "
       d="M178.915,146.797c-13.51,15.031-32.227,13.704-36.744,5.848c-4.518-7.857,7.002-19.054,20.51-34.084c13.508-15.031,30.318-27.096,34.836-19.239c4.518,7.857-5.094,32.444-18.602,47.476z"
       id="path335"
       transform="matrix(0.194455 0 0 0.194455 493.067 512.326)">
    </path>
    <path
       style="fill:#ffffff; stroke:none; fill-rule:nonzero; clip-rule:nonzero; stroke-miterlimit:4; fill-opacity:100%; "
       d="M94.403,106.351c0,21.103,22.442,38.21,35.493,38.21c13.052,0,11.409-17.107,11.409-38.21s-7.771-44.188-20.821-44.188c-13.052,0-26.081,23.086-26.081,44.188z"
       id="path339"
       transform="matrix(0.194455 0 0 0.194455 493.067 512.326)">
    </path>
    <path
       style="fill:#000000; stroke:none; fill-rule:nonzero; clip-rule:nonzero; stroke-miterlimit:4; fill-opacity:1; "
       d="M151.675,116.33l0.816,0.576c8.051-11.413,30.679-39.828,38.605-34.336l0.57-0.822c-10.36-7.178-38.787,32.873-39.992,34.582z"
       id="path343"
       transform="matrix(0.194455 0 0 0.194455 493.067 512.326)">
    </path>
    <path
       style="fill:#000000; stroke:none; fill-rule:nonzero; clip-rule:nonzero; stroke-miterlimit:4; fill-opacity:1; "
       d="M150.118,64.332c9.372,2.275,3.17,38.066-0.011,51.666l0.975,0.227c0.476-2.035,11.521-49.891-0.728-52.863l-0.236,0.971z"
       id="path347"
       transform="matrix(0.194455 0 0 0.194455 493.067 512.326)">
    </path>
    <path
       style="fill:#ffffff; stroke:none; fill-rule:nonzero; clip-rule:nonzero; stroke-miterlimit:4; fill-opacity:100%; "
       d="M137.987,206.43c4.473-1.336,2.035-19.855,9.969-26.469c5.883-4.902,12.729-10.093,14.814-16.377c3.418-10.298-7.115-18.56-13.928-19.188c-6.814-0.627-9.438,8.447-11.443,14.398c-3.467,10.293-6.693,26.477,0.428,26.055 c3.842-0.227-2.021,22.229,0.16,21.58z"
       id="path351"
       transform="matrix(0.194455 0 0 0.194455 493.067 512.326)">
    </path>
    <path
       style="fill:#ffffff; stroke:none; fill-rule:nonzero; clip-rule:nonzero; stroke-miterlimit:4; fill-opacity:100%; "
       d="M77.516,173.544c-3.021-5.425,19.311-10.435,18.514-21.81c-0.59-8.436-1.831-18.038,2.844-22.91c7.663-7.982,27.033,0.069,34.495,7.229c7.462,7.161,0.323,13.772-4.075,18.419c-7.606,8.035-21.786,18.244-28.426,10.315 c-3.584-4.278-21.878,11.399-23.352,8.756z"
       id="path355"
       transform="matrix(0.194455 0 0 0.194455 493.067 512.326)">
    </path>
    <path
       style="fill:#ffffff; stroke:none; fill-rule:nonzero; clip-rule:nonzero; stroke-miterlimit:4; fill-opacity:100%; "
       d="M132.865,145.074c-6.074,15.019-9.094,27.966-6.74,28.917c2.352,0.952,9.186-10.452,15.261-25.472s9.094-27.965,6.741-28.916c-2.352-0.953-9.186,10.451-15.262,25.471z"
       id="path359"
       transform="matrix(0.194455 0 -0.00927567 0.194455 494.429 512.326)">
    </path>
    <path
       style="fill:#000000; stroke:none; fill-rule:nonzero; clip-rule:nonzero; stroke-miterlimit:4; fill-opacity:1; "
       d="M148.333,63.847c0,1.05,0.852,1.901,1.902,1.901c1.05,0,1.9-0.852,1.9-1.901s-0.851-1.901-1.9-1.901c-1.051,0-1.902,0.852-1.902,1.901z"
       id="path363"
       transform="matrix(0.194455 0 0 0.194455 493.067 512.326)">
    </path>
    <path
       style="fill:#000000; stroke:none; fill-rule:nonzero; clip-rule:nonzero; stroke-miterlimit:4; fill-opacity:1; "
       d="M189.481,82.159c0,1.05,0.852,1.901,1.901,1.901c1.051,0,1.902-0.852,1.902-1.901s-0.852-1.901-1.902-1.901c-1.05,0-1.901,0.852-1.901,1.901z"
       id="path367"
       transform="matrix(0.194455 0 0 0.194455 493.067 512.326)">
    </path>

  </g>
  <g
     id="g2782"
     transform="matrix(1 0 0 1 -73.85 -486.179)">    <g
       id="g2609"
       style="fill:#000000; fill-opacity:1; stroke:none; "
       transform="matrix(0.922246 0 0 0.922246 470.063 615.798)">      <g
         id="g2610">        <path
           d="M 32 0 V 128 H 128 V 16 l -32 -16 Z"
           id="path2611"
           transform="matrix(1 0 0 1 -31.99 0)"
           style="fill:#000000; fill-opacity:1; stroke:none; ">
        </path>
        <path
           d="M 128 20 h -36 q 4 -10 0 -20 Z"
           id="path2612"
           transform="matrix(1 0 0 1 -31.99 0)"
           style="fill:#000000; fill-opacity:1; stroke:none; ">
        </path>

      </g>
      <path
         d="M 36 4 V 124 H 124 V 20 L 92 4 Z"
         style="fill:#FFF; fill-opacity:1; stroke:none; "
         id="path2613"
         transform="matrix(1 0 0 1 -31.99 0)">
      </path>

    </g>
    <g
       id="g2614"
       transform="matrix(0.922246 0 0 0.922246 470.063 615.798)"
       style="fill:#000000; fill-opacity:1; stroke:none; ">      <path
         d="M 40 16 h 48 v 4 h -48 v -4 Z"
         id="path2615"
         transform="matrix(1 0 0 1 -31.99 0)"
         style="fill:#000000; fill-opacity:1; stroke:none; ">
      </path>
      <path
         d="M 40 24 h 48 v 4 h -48 v -4 Z"
         id="path2616"
         transform="matrix(1 0 0 1 -31.99 0)"
         style="fill:#000000; fill-opacity:1; stroke:none; ">
      </path>
      <path
         d="M 40 32 h 32 v 4 h -32 v -4 Z"
         id="path2617"
         transform="matrix(1 0 0 1 -31.99 0)"
         style="fill:#000000; fill-opacity:1; stroke:none; ">
      </path>

    </g>
    <path
       d="M 82 44 h 38 v 4 h -38 v -4 Z"
       id="path2618"
       transform="matrix(0.922246 0 0 0.922246 440.561 615.798)"
       style="fill:#000000; fill-opacity:1; stroke:none; ">
    </path>
    <path
       d="M 82 52 h 38 v 4 h -38 v -4 Z"
       id="path2619"
       transform="matrix(0.922246 0 0 0.922246 440.561 615.798)"
       style="fill:#000000; fill-opacity:1; stroke:none; ">
    </path>
    <path
       d="M 82 60 h 38 v 4 h -38 v -4 Z"
       id="path2620"
       transform="matrix(0.922246 0 0 0.922246 440.561 615.798)"
       style="fill:#000000; fill-opacity:1; stroke:none; ">
    </path>
    <path
       d="M 82 68 h 38 v 4 h -38 v -4 Z"
       id="path2621"
       transform="matrix(0.922246 0 0 0.922246 440.561 615.798)"
       style="fill:#000000; fill-opacity:1; stroke:none; ">
    </path>
    <path
       d="M 82 76 h 38 v 4 h -38 v -4 Z"
       id="path2622"
       transform="matrix(0.922246 0 0 0.922246 440.561 615.798)"
       style="fill:#000000; fill-opacity:1; stroke:none; ">
    </path>
    <path
       d="M 82 84 h 38 v 4 h -38 v -4 Z"
       id="path2623"
       transform="matrix(0.922246 0 0 0.922246 440.561 615.798)"
       style="fill:#000000; fill-opacity:1; stroke:none; ">
    </path>
    <path
       d="M 82 92 h 38 v 4 h -38 v -4 Z"
       id="path2624"
       transform="matrix(0.922246 0 0 0.922246 440.561 615.798)"
       style="fill:#000000; fill-opacity:1; stroke:none; ">
    </path>
    <path
       d="M 82 100 h 38 v 4 h -38 v -4 Z"
       id="path2625"
       transform="matrix(0.922246 0 0 0.922246 440.561 615.798)"
       style="fill:#000000; fill-opacity:1; stroke:none; ">
    </path>
    <path
       d="M 82 108 h 38 v 4 h -38 v -4 Z"
       id="path2626"
       transform="matrix(0.922246 0 0 0.922246 440.561 615.798)"
       style="fill:#000000; fill-opacity:1; stroke:none; ">
    </path>
    <path
       d="M 82 116 h 38 v 4 h -38 v -4 Z"
       id="path2627"
       transform="matrix(0.922246 0 0 0.922246 440.561 615.798)"
       style="fill:#000000; fill-opacity:1; stroke:none; ">
    </path>
    <g
       id="g2628"
       style="fill:#000000; fill-opacity:1; stroke:none; "
       transform="matrix(0.922246 0 0 0.922246 470.063 615.798)">      <path
         d="M 82 44 h 38 v 4 h -38 v -4 Z"
         id="path2629"
         transform="matrix(1 0 0 1 -74.0579 4.26326e-14)"
         style="fill:#000000; fill-opacity:100%; stroke:none; ">
      </path>
      <path
         d="M 82 52 h 38 v 4 h -38 v -4 Z"
         id="path2630"
         transform="matrix(1 0 0 1 -74.0579 4.26326e-14)"
         style="fill:#000000; fill-opacity:100%; stroke:none; ">
      </path>
      <path
         d="M 82 60 h 38 v 4 h -38 v -4 Z"
         id="path2631"
         transform="matrix(1 0 0 1 -74.0579 4.26326e-14)"
         style="fill:#000000; fill-opacity:100%; stroke:none; ">
      </path>
      <path
         d="M 82 100 h 38 v 4 h -38 v -4 Z"
         id="path2632"
         transform="matrix(1 0 0 1 -74.0579 4.26326e-14)"
         style="fill:#000000; fill-opacity:100%; stroke:none; ">
      </path>
      <path
         d="M 82 108 h 38 v 4 h -38 v -4 Z"
         id="path2633"
         transform="matrix(1 0 0 1 -74.0579 4.26326e-14)"
         style="fill:#000000; fill-opacity:100%; stroke:none; ">
      </path>
      <path
         d="M 82 116 h 38 v 4 h -38 v -4 Z"
         id="path2634"
         transform="matrix(1 0 0 1 -74.0579 4.26326e-14)"
         style="fill:#000000; fill-opacity:100%; stroke:none; ">
      </path>

    </g>
    <g
       style="fill-rule:evenodd; clip-rule:evenodd; stroke:none; stroke-miterlimit:4; fill:#000000; fill-opacity:1; "
       id="g837"
       transform="matrix(0.27176 0 0 0.27176 458.881 658.679)">      <path
         d="M118.624,66.197l20.001-1.455v36.001l26.909-35.637l21.458,5.455l-27.275,34.546l26.911,37.456l-20.727,6.185l-27.276-38.913v35.641l-20,2.542l-0.001-81.821z"
         id="path838">
      </path>
      <path
         d="M154.806,139.767c-5.683,8.243-15.189,13.663-25.921,13.663c-17.331,0-31.466-14.136-31.466-31.466c0-12.25,6.864-22.816,17.083-28.009l-0.009-8.929c-0.506,0.194-1.009,0.401-1.506,0.621c-1.758,0.78-3.451,1.689-5.066,2.729l-12.852-9.047l-8.619,8.305 l8.917,13.28c-2.268,3.559-3.973,7.514-4.999,11.762l-16.297,3.006l-0.47,12.064l16.619,2.943c0.964,4.259,2.619,8.264,4.843,11.994l-10.023,14.054l8.618,8.773l14.511-9.844c3.605,2.273,7.623,3.962,11.862,4.924l3.086,17.214h12.379l2.896-17.348 c4.202-1.06,8.134-2.777,11.759-5.005l14.021,9.902l8.616-8.775l-3.418-4.761l-5.097,1.564l-9.469-13.616z"
         id="path839">
      </path>
      <path
         d="M170.59,113.332l13.638,2.35l0.159,12.064l-3.444,0.591l-10.353-15.005z"
         id="path840">
      </path>

    </g>

  </g>
  <g
     id="g2813"
     transform="matrix(1 0 0 1 -295.4 -41.8474)">    <g
       id="g2592"
       transform="matrix(0.922246 0 0 0.922246 360.572 613.102)"
       style="fill:#000000; fill-opacity:0.5; stroke:none; ">      <path
         d="M 32 0 V 128 H 128  V 16 l -32  -16 Z"
         style="fill:#000; fill-opacity:100%"
         id="path2593"
         transform="matrix(1 0 0 1 -31.1028 0.398754)">
      </path>
      <path
         d="M 36 4 V 124 H 124  V 20 L 92 4 Z"
         style="fill:#FFF; fill-opacity:100%"
         id="path2594"
         transform="matrix(1 0 0 1 -31.1028 0.398754)">
      </path>
      <path
         d="M 128 20 h -36 q 4 -10 0 -20 Z"
         style="fill:#000; fill-opacity:100%"
         id="path2595"
         transform="matrix(1 0 0 1 -31.1028 0.398754)">
      </path>

    </g>
    <path
       style="fill:#000000; stroke:none; fill-rule:nonzero; clip-rule:nonzero; stroke-miterlimit:4; fill-opacity:100%; "
       d="M107.384,43.67c-14.229,3.75-28.421,12.186-39.961,23.756C55.885,78.994,47.51,93.18,43.842,107.368c-1.468,5.68-2.202,11.355-2.202,16.875c0,5.592,0.754,11.025,2.261,16.141c2.956,10.035,8.701,18.424,16.606,24.412 c9.047,12.697,23.536,19.688,40.983,19.688c20.462,0,41.515-9.285,57.763-25.477c16.262-16.203,25.588-37.219,25.588-57.658c0-16.857-6.623-31.034-18.654-40.102c-5.949-8.324-14.482-14.38-24.82-17.505c-10.436-3.155-22.186-3.179-33.981-0.072z"
       id="path27"
       transform="matrix(0.481664 0.0343806 0 0.481664 350.923 615.684)">
    </path>
    <path
       style="fill:#000000; stroke:none; fill-rule:nonzero; clip-rule:nonzero; stroke-miterlimit:4; fill-opacity:1; "
       d="M150.59,103.112c0,24.243-23.193,47.325-47.46,47.323c-20.517,0.002-30.477-17.328-25.58-36.271c4.318-16.705,19.637-32.07,36.41-36.491c19.095-5.032,36.63,4.869,36.63,25.439z"
       id="path2598"
       transform="matrix(0.481664 0.0343806 0 0.481664 350.923 615.684)">
    </path>
    <path
       style="fill:#ffffff; stroke:none; fill-rule:nonzero; clip-rule:nonzero; stroke-miterlimit:4; fill-opacity:100%; "
       d="M 117.096 59.456 C 90.265 66.526 65.767 91.102 58.861 117.82 C 51.028 148.121 66.958 175.836 99.771 175.836 C 138.586 175.836 175.682 138.922 175.682 100.144 C 175.682 67.243 147.637 51.409 117.096 59.456 L 117.096 59.456 z M 100.143 135.444 C 100.143 135.444 36.0521 181.349 100.143 135.444 z M 94.568 77.982 C 102.777 76.065 86.664 79.826 94.568 77.982 z M 152.844 130.433 C 152.258 142.38 153.404 119.066 152.844 130.433 z M 155.34 79.696 C 155.34 79.696 155.784 70.654 155.34 79.696 z "
       id="path31"
       transform="matrix(0.481664 0.0343806 0 0.481664 350.923 615.684)"
       sodipodi:nodetypes="cccccccccccccc">
    </path>
    <path
       style="fill:#000000; stroke:none; fill-rule:nonzero; clip-rule:nonzero; stroke-miterlimit:4; fill-opacity:1; "
       d="M143.52,96.042c0,24.244-23.193,47.324-47.46,47.324c-20.516,0-30.475-17.328-25.578-36.273c4.318-16.703,19.634-32.07,36.41-36.49c19.095-5.031,36.628,4.868,36.628,25.439z"
       id="path39"
       transform="matrix(0.66515 0.0474776 0 0.737085 330 587.731)">
    </path>
    <path
       style="fill:#ffffff; stroke:none; fill-rule:nonzero; clip-rule:nonzero; stroke-miterlimit:4; fill-opacity:100%; "
       d="M107.564,49.66c-26.832,7.07-51.329,31.647-58.235,58.365c-7.833,30.299,8.098,58.016,40.91,58.014c38.816,0.002,75.91-36.914,75.91-75.691c0-32.901-28.043-48.735-58.585-40.688z M90.612,125.649c-1.724,10.713-11.179,20.156-20.638,20.617 c-9.036,0.445-14.156-7.584-11.883-17.525c2.182-9.541,10.541-17.91,19.065-19.078c8.892-1.221,15.104,5.736,13.455,15.986z M97.738,79.53c-1.402,8.687-9.906,17.197-18.604,18.627c-8.346,1.369-13.293-4.427-11.416-12.612c1.807-7.886,9.414-15.514,17.315-17.359 c8.211-1.916,14.052,3,12.704,11.345z M143.313,120.636c-0.588,11.949-11.275,22.596-23.258,23.182c-11.384,0.557-18.938-8.313-17.448-19.311c1.426-10.504,10.734-19.805,21.28-21.25c11.057-1.516,19.984,6.014,19.426,17.379z M145.807,69.9 c-0.465,9.456-9.961,18.939-20.725,20.707c-10.28,1.689-17.271-4.465-16.067-13.337c1.154-8.512,9.546-16.912,19.138-19.151c10.01-2.337,18.098,2.738,17.654,11.781z"
       id="path53"
       transform="matrix(0.481664 0.0343806 0 0.481664 350.923 615.684)">
    </path>
    <path
       style="fill:#000000; stroke:none; fill-rule:nonzero; clip-rule:nonzero; stroke-miterlimit:4; fill-opacity:1; "
       d="M155.454,60.668c15.826,15.826,16.254,51.465-8.133,78.985c-24.389,27.521-61.166,33.705-83.113,18.729c61.41,29.186,123.988-52.992,91.246-97.713z"
       id="path62"
       transform="matrix(0.481664 0.0343806 0 0.481664 350.923 615.684)">
    </path>

  </g>
  <g
     id="g2824"
     transform="matrix(1 0 0 1 -211.702 -41.8484)">    <g
       id="g2675"
       transform="matrix(0.922246 0 0 0.922246 512.956 308.336)"
       style="fill:#000000; fill-opacity:0.5; stroke:none; ">      <path
         d="M 32 0 V 128 H 128  V 16 l -32  -16 Z"
         style="fill:#000; fill-opacity:100%"
         id="path2676"
         transform="matrix(1 0 0 1 -31.1028 0.398754)">
      </path>
      <path
         d="M 36 4 V 124 H 124  V 20 L 92 4 Z"
         style="fill:#FFF; fill-opacity:100%"
         id="path2677"
         transform="matrix(1 0 0 1 -31.1028 0.398754)">
      </path>
      <path
         d="M 128 20 h -36 q 4 -10 0 -20 Z"
         style="fill:#000; fill-opacity:100%"
         id="path2678"
         transform="matrix(1 0 0 1 -31.1028 0.398754)">
      </path>

    </g>
    <g
       id="g2679"
       style="fill:#000000; fill-opacity:0.5; stroke:none; "
       transform="matrix(0.728422 0 0 0.728422 493.985 203.274)">      <path
         d="M 0 42 h 46 l 6 -6 v -32 h -4 l -2 -4 h -16 l -2 4 h -22 l -2 2 v 2 l -4 4 Z"
         id="path2680"
         style="fill:#000000; fill-opacity:1; stroke:none; "
         transform="matrix(1.80699 0 0 1.80699 41.9634 191.458)">
      </path>
      <path
         d="M 2 40 v -28 h 44 v 28 Z"
         style="fill:white; fill-opacity:1; stroke:none; "
         id="path2681"
         transform="matrix(1.80699 0 0 1.80699 41.9634 191.458)">
      </path>
      <path
         d="M 6 10 v -4 h 23  l 2 -4 h 14 l 2 4 h 3 v 30 l -2 2 v -28 Z"
         style="fill:white; fill-opacity:1; stroke:none; "
         id="path2682"
         transform="matrix(1.80699 0 0 1.80699 41.9634 191.458)">
      </path>

    </g>

  </g>
  <g
     id="g2833"
     transform="matrix(1 0 0 1 -183.394 676.958)">    <g
       id="g2710"
       transform="matrix(2.12117 0 0 2.12117 533.002 45.0578)"
       style="fill:#000000; fill-opacity:1; stroke:nones; ">      <path
         d="M 0 42 h 46 l 6 -6 v -32 h -4 l -2 -4 h -16 l -2 4 h -22 l -2 2 v 2 l -4 4 Z"
         id="path2711">
      </path>
      <path
         d="M 2 40 v -28 h 44 v 28 Z"
         style="fill:white"
         id="path2712">
      </path>
      <path
         d="M 6 10 v -4 h 23  l 2 -4 h 14 l 2 4 h 3 v 30 l -2 2 v -28 Z"
         style="fill:white"
         id="path2713">
      </path>

    </g>
    <path
       style="opacity:1; fill-rule:evenodd; clip-rule:evenodd; fill:none; stroke:#000000; stroke-miterlimit:4; fill-opacity:100%; stroke-opacity:100%; stroke-width:4; stroke-linejoin:miter; stroke-linecap:butt; "
       d="M105.976,114.104l-10.313-7.685V92.165H82.306v4.303l-12.101-9.017c-2.368-1.764-5.613-1.764-7.98,0l-35.771,26.653c-2.308,1.721-3.254,4.726-2.349,7.457 c0.906,2.732,3.46,4.577,6.338,4.577c0,0,1.846,0,3.317,0c0,8.47,0,26.112,0,26.112c0,3.688,2.99,6.679,6.678,6.679h51.729c3.688,0,6.678-2.99,6.678-6.679c0,0,0-17.643,0-26.112c1.367,0,3.141,0,3.141,0c2.879,0,5.433-1.845,6.339-4.577 c0.23-0.69,0.341-1.399,0.341-2.101c0-2.069-0.965-4.071-2.69-5.356z"
       id="path1662"
       transform="matrix(0.650688 0 0 0.650688 541.636 19.9377)">
    </path>

  </g>
  <g
     id="g2839"
     transform="matrix(1 0 0 1 -65.2342 551.414)">    <g
       id="g2354"
       transform="matrix(0.922246 0 0 0.922246 317.035 20.5011)"
       style="fill:#000000; fill-opacity:0.5; stroke:none; ">      <path
         d="M 32 0 V 128 H 128  V 16 l -32  -16 Z"
         style="fill:#000; fill-opacity:100%"
         id="path2355"
         transform="matrix(1 0 0 1 -31.1028 0.398754)">
      </path>
      <path
         d="M 36 4 V 124 H 124  V 20 L 92 4 Z"
         style="fill:#FFF; fill-opacity:100%"
         id="path2356"
         transform="matrix(1 0 0 1 -31.1028 0.398754)">
      </path>
      <path
         d="M 128 20 h -36 q 4 -10 0 -20 Z"
         style="fill:#000; fill-opacity:100%"
         id="path2357"
         transform="matrix(1 0 0 1 -31.1028 0.398754)">
      </path>

    </g>
    <path
       style="stroke:none; fill-rule:nonzero; clip-rule:nonzero; stroke-miterlimit:4; fill:#000000; fill-opacity:100%; "
       d="M124.633,27.6h-10v5c0,1.852-0.326,2.325-0.33,2.332c-0.602,0.633-4.493,1.103-6.155,1.304c-6.896,0.832-19.187,2.362-22.773,16.879c-1.521,0-8.108,0-8.108,0s0,9.713,0,13.197c-15.403,5.784-25.869,20.612-25.869,37.339 c0,22.003,17.901,39.904,39.905,39.904s39.905-17.901,39.905-39.904c0-16.27-10.106-30.964-24.982-36.989c0-3.533,0-13.547,0-13.547s-3.062,0-4.195,0c1.568-1.125,4.009-1.516,7.914-1.987c6.391-0.771,19.688-2.375,19.688-18.527v-5h-5z"
       id="path602"
       transform="matrix(0.550643 0 0 0.550643 312.723 34.678)">
    </path>
    <path
       style="fill:#ffffff; stroke:none; fill-rule:nonzero; clip-rule:nonzero; stroke-miterlimit:4; fill-opacity:100%; "
       d="M100.226,69.184v-12.07h-6.659c1.259-10.311,7.578-11.082,14.779-11.951c6.811-0.822,15.287-1.844,15.287-13.563h-5c0,6.976-3.534,7.712-10.886,8.599c-7.548,0.911-17.659,2.143-19.204,16.915h-7.276v11.819 c-14.896,3.982-25.869,17.565-25.869,33.717c0,19.277,15.627,34.904,34.905,34.904s34.905-15.627,34.905-34.904c0-15.829-10.54-29.189-24.982-33.465z"
       id="path603"
       transform="matrix(0.550643 0 0 0.550643 312.723 34.678)">
    </path>

  </g>
  <path
     style="fill:#ffffff; stroke:#000000; fill-rule:nonzero; clip-rule:nonzero; stroke-miterlimit:4; fill-opacity:1; stroke-opacity:100%; stroke-width:12; stroke-linejoin:miter; stroke-linecap:butt; "
     d="M107.611,94.487c-35.998,30.618-55.823,71.553-55.823,115.265s19.825,84.647,55.823,115.265c35.349,30.066,82.229,46.625,132.002,46.625c49.774,0,96.653-16.559,132.002-46.625 c35.998-30.618,55.823-71.553,55.823-115.265c0-43.711-19.825-84.646-55.823-115.265c-35.349-30.066-82.228-46.625-132.002-46.625c-49.774,0-96.654,16.559-132.002,46.625z M189.464,209.752c0-22.343,22.497-40.521,50.15-40.521 c27.652,0,50.149,18.178,50.149,40.521c0,22.344-22.497,40.522-50.149,40.522c-27.653,0-50.15-18.178-50.15-40.522z"
     id="path762"
     transform="matrix(0.275719 0 0 0.327273 98.9566 697.526)">
  </path>

</svg>
