<?xml version="1.0" encoding="UTF-8" standalone="no"?>
<!DOCTYPE svg PUBLIC "-//W3C//DTD SVG 20010904//EN"
"http://www.w3.org/TR/2001/REC-SVG-20010904/DTD/svg10.dtd">
<!-- Created with Sodipodi ("http://www.sodipodi.com/") -->
<svg
   width="210mm"
   height="210mm"
   id="svg5"
   sodipodi:version="0.30.1"
   sodipodi:docname="/var/www/html/www.sodipodi.com/gallery/twb/spud.svg"
   sodipodi:docbase="/var/www/html/www.sodipodi.com/gallery/twb/"
   xmlns="http://www.w3.org/2000/svg"
   xmlns:sodipodi="http://sodipodi.sourceforge.net/DTD/sodipodi-0.dtd"
   xmlns:xlink="http://www.w3.org/1999/xlink">
  <defs
     id="defs4827" />
  <sodipodi:namedview
     id="base" />
  <g
     id="g6872"
     transform="matrix(2.88475,0,0,2.88475,47.5129,99.9637)">
    <path
       style="fill:#000000;stroke:none;"
       d="M86 56L85 56L78 22L75 22L81 61L80 61C77.8392 45.0319 67.1521 31.0049 59.9344 17C56.7811 10.8814 55.9337 3.60475 48 3C48.0862 12.5244 53.5198 19.8044 57.7114 28C65.3684 42.9711 72.1974 58.6665 81 73C73.0854 66.0588 63.9687 50.0885 61 40L57 41L62 52L61 52C58.2396 46.5668 52.9267 35.9006 47 34C47.9541 45.5721 58.8385 54.676 65 64C57.3291 56.0458 44.278 34.8682 33 34C33.2677 45.067 44.0157 50.7191 50 59L41 54C42.4887 63.2334 57.2159 71.088 64 77C52.7208 71.633 44.0301 61.4302 33 55.3804C30.3693 53.9375 22.0683 52.1609 22.9213 57.8997C23.3946 61.0841 28.67 62.0493 31 63.3627C36.6263 66.5339 42.7216 71.1799 47 76C41.7459 72.978 37.4354 67.7612 31 69C35.5176 76.6232 50.8456 84.8463 59 88L59 89L23 74C26.3455 84.6915 47.5635 85.4336 54 96C48.5306 93.7338 43.3897 90.5329 38 88.0162C34.6328 86.4439 31.2624 85.0196 28 83.2191C24.6609 81.3763 20.9289 78.0303 17.0201 77.6227C11.2684 77.0229 13.1731 82.8192 16.1096 85.0455C24.4262 91.3508 35.6056 95.2672 45 99.6998C49.8783 102.002 55.0084 101.926 56 108C47.9445 103.336 38.9473 101.033 30 98.5147C25.6251 97.2831 20.867 94.3938 19 100L56 111L56 112C43.782 112.829 32.7718 108.044 21 106.305C15.4295 105.482 12.5745 107.34 13 113L56 117L56 118C49.0636 119.671 31.6058 116.642 30 124L52 123C49.2113 128.057 44.0979 126.738 39 127.425C27.5991 128.961 16.1572 128.695 5 132L5 134L40 135L40 136L35 141L50 141L50 142C37.7887 145.534 24.9491 148.143 13 152.27C7.80035 154.066 1.97656 156.078 1 162L45 150L39 161C48.5541 159.829 54.0364 155.018 61 149C59.0008 161.39 38.6572 168 28 168L28 169L35 169L35 171C28.4444 171.822 22.7885 175.067 22 182L51 170L48 175C56.0179 174.462 60.0359 168.508 66 164L53 184C58.45 183.823 61.6405 182 64 177L69 178L72 175L71 178L76 172L79 173C69.8456 183.613 86.5811 178.194 91 176L90 183L96 180L97 180L98 184L101 184L105 178C108.174 182.756 117.954 179.638 123 179L123 180L120 181L120 182L131 181L128 182L128 183L149 182L148 185L156 183L156 185L176 188L175 185C192.064 188.215 207.275 189.007 224 183L224 182L202 181.871L163 176.468L147.213 174.682L140 165L141 164L148 171L144 163C151.679 168.63 151.862 171.303 161 167L153 158L164 164L155 154L156 154C159.388 159.449 174.791 166.755 180.999 168.482C185.014 169.599 189.604 166.979 187.392 162.32C186.111 159.623 181.464 159.776 179 158.731C172.649 156.039 163.767 152.992 159 148L180 154C177.258 144.965 163.88 151.125 161 142L204 154C203.196 143.683 172.919 138.907 164 136L164 135L190 140L190 136L163 132L163 128C177.863 132.713 196.395 135.957 212 136C211.267 126.568 194.563 127.005 187 127C183.861 118.072 169.016 127.198 164 119L211 118C210.373 109.935 204.214 111.835 198 111.985C186.592 112.261 175.386 114.969 164 115L165 112L193 109L193 106L164 108L164 102C173.442 101.249 198.412 97.6432 199 87L165 98.3611L150 100C150 112.965 143.425 126.832 128 126.682C123.467 126.638 120.978 121.675 116.831 121.617C112.976 121.563 110.544 125.859 106.91 126.693C97.3055 128.897 86.6699 121.679 83.3403 113C79.2891 102.44 84.6274 87.8248 95.0895 82.9738C101.067 80.2022 114.741 86.4385 113 76L118 77C117.129 71.935 113.621 71.4829 109 71C116.294 60.1343 118.775 47.5847 121.615 35C122.043 33.1055 126.253 19.0968 119.4 23.0864C109.413 28.9004 117.666 50.7743 107 57L109 38C103.902 42.988 102.152 58.8511 102 66L101 66C101.124 50.9944 104.952 36.0156 105 21C105.006 19.1771 107.009 1.65631 101.723 6.66203C98.6397 9.58183 100.268 16.2181 99.8156 20C98.4557 31.3644 97.2563 42.5819 96.1698 54C95.6655 59.2993 96.8975 63.8717 93 68C93.0482 50.5427 91 34.2446 91 17C91 13.3155 92.985 0.635818 87 0.635818C80.4307 0.635818 84.7248 10.7604 84.946 14C85.8856 27.7598 85.9985 42.2309 86 56z"
       id="path8" />
    <path
       style="fill:#000000;stroke:none;"
       d="M121 82C126.412 81.6846 132.728 81.1177 137.999 82.6381C141.326 83.5976 144.496 86.8745 148.09 86.473C155.15 85.6841 163.644 74.6716 169 70.25C171.41 68.261 182.319 62.7753 181.248 59.2215C178.471 50.0017 163.017 65.6661 161 69L158 68L166 54C155.087 55.8382 155.115 74.8244 143 76L154 62L149 65C150.96 61.0602 153.581 57.5781 156.14 54C158.745 50.3586 163.042 46.0105 164.417 41.7191C165.839 37.2842 161.831 35.3662 158.668 38.3225C148.554 47.778 145.632 63.3383 135 72L147 47C137.205 48.6836 134.141 66.8629 127 73C133.298 60.1406 140.976 47.7 147.65 35C149.26 31.9379 154.255 23.5584 150.654 20.7122C145.683 16.7838 142.21 30.1984 140.961 33C134.36 47.8094 121.844 65.5462 121 82z"
       id="path56" />
    <path
       style="fill:#000000;stroke:none;"
       d="M160 92C163.863 90.8871 167.291 88.9738 171 87.4522C173.373 86.4788 175.761 85.6775 178 84.4028C179.267 83.6816 191.52 76.3718 185.663 74.8665C179.625 73.3148 160.967 86.2442 160 92z"
       id="path749" />
    <path
       style="fill:#000000;stroke:none;"
       d="M111 105L114 105C122.748 119.299 135.989 89.9547 117.002 91.8627C114.493 92.1148 112.291 93.023 110 94C103.984 82.5781 91.1602 109.11 106.945 107.812C109.195 107.627 109.883 106.722 111 105z"
       id="path956" />
  </g>
</svg>
