<?xml version="1.0" encoding="UTF-8" standalone="no"?>
<!DOCTYPE svg PUBLIC "-//W3C//DTD SVG 20010904//EN"
"http://www.w3.org/TR/2001/REC-SVG-20010904/DTD/svg10.dtd">
<!-- Created with Sodipodi ("http://www.sodipodi.com/") -->
<svg
   id="svg205"
   sodipodi:version="0.30.1"
   width="600pt"
   height="600pt"
   sodipodi:docbase="/var/www/html/www.sodipodi.com/gallery/twb/"
   sodipodi:docname="/var/www/html/www.sodipodi.com/gallery/twb/wabbit.svg"
   xmlns="http://www.w3.org/2000/svg"
   xmlns:sodipodi="http://sodipodi.sourceforge.net/DTD/sodipodi-0.dtd"
   xmlns:xlink="http://www.w3.org/1999/xlink">
  <defs
     id="defs207" />
  <sodipodi:namedview
     id="base" />
  <path
     style="font-size:12;fill:#ff9100;fill-rule:nonzero;stroke-width:15;stroke:#000000;stroke-opacity:1;stroke-dasharray:none;stroke-dashoffset:0;fill-opacity:1;"
     d="M 488.496 344.201 C 488.496 382.823 488.496 305.58 488.496 344.201 z M 601.875 390.461 C 601.875 493.285 496.803 576.736 367.339 576.736 C 237.874 576.736 132.802 493.285 132.802 390.461 C 132.802 287.638 237.874 204.186 367.339 204.186 C 496.803 204.186 601.875 287.638 601.875 390.461 z M 298.833 340.294 C 298.833 365.182 298.833 315.406 298.833 340.294 z M 371.392 209.266 C 333.902 304.613 230.604 304.613 268.094 209.266 C 305.584 113.921 359.15 36.5382 387.661 36.5382 C 416.171 36.5382 408.882 113.921 371.392 209.266 z M 636.015 248.422 C 598.525 343.769 544.959 421.15 516.449 421.15 C 487.939 421.15 495.227 343.769 532.717 248.422 C 570.207 153.077 623.773 75.6942 652.284 75.6942 C 680.794 75.6942 673.505 153.077 636.015 248.422 z "
     id="path245"
     sodipodi:nodetypes="cccccccccccccccccc" />
  <path
     sodipodi:type="arc"
     style="fill-rule:evenodd;stroke:none;fill:#ffffd9;fill-opacity:1;stroke-opacity:1;stroke-width:1pt;stroke-linejoin:miter;stroke-linecap:butt;"
     id="path211"
     d="M 589.946045 365.755005 A 160.053909 127.118652 0 1 0 269.838257,365.755005 A 160.054 127.119 0 1 0 589.946 365.755 L 429.892151 365.755005 z"
     sodipodi:cx="429.892151"
     sodipodi:cy="365.755005"
     sodipodi:rx="160.053909"
     sodipodi:ry="127.118652"
     transform="matrix(0.322698,0,-0.534281,1.35879,641.057,-248.562)" />
  <path
     sodipodi:type="arc"
     style="fill-rule:evenodd;stroke:#000000;fill:#ffffff;fill-opacity:1;stroke-opacity:1;stroke-width:19.7779;stroke-linejoin:miter;stroke-linecap:butt;stroke-dasharray:none;"
     id="path236"
     d="M 589.946045 365.755005 A 160.053909 127.118652 0 1 0 269.838257,365.755005 A 160.054 127.119 0 1 0 589.946 365.755 L 429.892151 365.755005 z"
     sodipodi:cx="429.892151"
     sodipodi:cy="365.755005"
     sodipodi:rx="160.053909"
     sodipodi:ry="127.118652"
     transform="matrix(0.184801,0,-0.305969,0.778143,622.209,-51.1126)" />
  <path
     sodipodi:type="arc"
     style="fill-rule:evenodd;stroke:none;fill:#ffffd9;fill-opacity:1;stroke-opacity:1;stroke-width:1pt;stroke-linejoin:miter;stroke-linecap:butt;"
     id="path212"
     d="M 589.946045 365.755005 A 160.053909 127.118652 0 1 0 269.838257,365.755005 A 160.054 127.119 0 1 0 589.946 365.755 L 429.892151 365.755005 z"
     sodipodi:cx="429.892151"
     sodipodi:cy="365.755005"
     sodipodi:rx="160.053909"
     sodipodi:ry="127.118652"
     transform="matrix(0.322698,0,-0.534281,1.35879,376.434,-287.718)" />
  <path
     sodipodi:type="arc"
     style="fill-rule:evenodd;stroke:#000000;fill:#ffffff;fill-opacity:1;stroke-opacity:1;stroke-width:19.7779;stroke-linejoin:miter;stroke-linecap:butt;stroke-dasharray:none;"
     id="path234"
     d="M 589.946045 365.755005 A 160.053909 127.118652 0 1 0 269.838257,365.755005 A 160.054 127.119 0 1 0 589.946 365.755 L 429.892151 365.755005 z"
     sodipodi:cx="429.892151"
     sodipodi:cy="365.755005"
     sodipodi:rx="160.053909"
     sodipodi:ry="127.118652"
     transform="matrix(0.184801,0,-0.305969,0.778143,360.285,-100.728)" />
  <path
     sodipodi:type="arc"
     style="fill-rule:evenodd;stroke:#000000;fill:#ffffff;fill-opacity:1;stroke-opacity:1;stroke-width:42.2919;stroke-linejoin:miter;stroke-linecap:butt;stroke-dasharray:none;"
     id="path217"
     d="M 589.946045 365.755005 A 160.053909 127.118652 0 1 0 269.838257,365.755005 A 160.054 127.119 0 1 0 589.946 365.755 L 429.892151 365.755005 z"
     sodipodi:cx="429.892151"
     sodipodi:cy="365.755005"
     sodipodi:rx="160.053909"
     sodipodi:ry="127.118652"
     transform="matrix(0.354678,0,0,0.354678,89.5933,210.569)" />
  <path
     sodipodi:type="arc"
     style="fill-rule:evenodd;stroke:#000000;fill:#ffffff;fill-opacity:1;stroke-opacity:1;stroke-width:27.2523;stroke-linejoin:miter;stroke-linecap:butt;stroke-dasharray:none;"
     id="path216"
     d="M 589.946045 365.755005 A 160.053909 127.118652 0 1 0 269.838257,365.755005 A 160.054 127.119 0 1 0 589.946 365.755 L 429.892151 365.755005 z"
     sodipodi:cx="429.892151"
     sodipodi:cy="365.755005"
     sodipodi:rx="160.053909"
     sodipodi:ry="127.118652"
     transform="matrix(0.550412,0,0,0.550412,163.783,142.886)" />
  <path
     sodipodi:type="arc"
     style="fill-rule:evenodd;stroke:none;fill:#000000;fill-opacity:1;stroke-opacity:1;stroke-width:1pt;stroke-linejoin:miter;stroke-linecap:butt;"
     id="path215"
     d="M 589.946045 365.755005 A 160.053909 127.118652 0 1 0 269.838257,365.755005 A 160.054 127.119 0 1 0 589.946 365.755 L 429.892151 365.755005 z"
     sodipodi:cx="429.892151"
     sodipodi:cy="365.755005"
     sodipodi:rx="160.053909"
     sodipodi:ry="127.118652"
     transform="matrix(0.224036,0,0,0.224036,272.082,260.127)" />
  <path
     sodipodi:type="arc"
     style="fill-rule:evenodd;stroke:none;fill:#000000;fill-opacity:1;stroke-opacity:1;stroke-width:1pt;stroke-linejoin:miter;stroke-linecap:butt;"
     id="path222"
     d="M 589.946045 365.755005 A 160.053909 127.118652 0 1 0 269.838257,365.755005 A 160.054 127.119 0 1 0 589.946 365.755 L 429.892151 365.755005 z"
     sodipodi:cx="429.892151"
     sodipodi:cy="365.755005"
     sodipodi:rx="160.053909"
     sodipodi:ry="127.118652"
     transform="matrix(0.115899,0,0,0.115899,218.251,301.745)" />
  <path
     style="font-size:12;fill:#ffffd9;fill-rule:evenodd;stroke:none;stroke-width:1pt;fill-opacity:1;"
     d="M 383.142 331.52 C 383.142 348.504 365.787 362.288 344.402 362.288 C 323.018 362.288 305.663 348.504 305.663 331.52 C 305.663 314.536 323.018 300.752 344.402 300.752 C 365.787 300.752 383.142 314.536 383.142 331.52 z M 589.946 365.755 C 589.946 435.925 518.242 492.874 429.892 492.874 C 341.542 492.874 269.838 435.925 269.838 365.755 C 269.838 295.586 341.542 238.636 429.892 238.636 C 518.242 238.636 589.946 295.586 589.946 365.755 z M 512.573 334.186 C 512.573 360.543 485.639 381.934 452.454 381.934 C 419.268 381.934 392.335 360.543 392.335 334.186 C 392.335 307.83 419.268 286.438 452.454 286.438 C 485.639 286.438 512.573 307.83 512.573 334.186 z "
     id="path221"
     transform="matrix(1.46536,0,0,1.46536,-262.608,-145.502)" />
  <path
     sodipodi:type="arc"
     style="fill-rule:evenodd;stroke:none;fill:#000000;fill-opacity:1;stroke-opacity:1;stroke-width:1pt;stroke-linejoin:miter;stroke-linecap:butt;"
     id="path209"
     d="M 589.946045 365.755005 A 160.053909 127.118652 0 1 0 269.838257,365.755005 A 160.054 127.119 0 1 0 589.946 365.755 L 429.892151 365.755005 z"
     sodipodi:cx="429.892151"
     sodipodi:cy="365.755005"
     sodipodi:rx="160.053909"
     sodipodi:ry="127.118652"
     transform="matrix(0.373237,0.0341408,0,0.294132,115.955,312.566)" />
  <path
     style="font-size:12;fill:#000000;fill-rule:evenodd;stroke:none;stroke-width:1pt;fill-opacity:1;"
     d="M 531.471 364.108 C 531.471 390.465 540.92 336.177 531.471 364.108 z M 399.108 479.729 C 429.568 482.743 525.314 483.209 530.682 408.405 C 612.428 435.964 503.295 495.614 399.108 479.729 z M 440.623 428.372 C 440.623 445.356 440.623 411.388 440.623 428.372 z "
     id="path239"
     transform="matrix(1.46536,0,0,1.46536,-299.531,-167.424)"
     sodipodi:nodetypes="ccccccc" />
  <path
     style="font-size:12;fill:#000000;fill-rule:evenodd;stroke:none;stroke-width:1pt;fill-opacity:1;"
     d="M 531.471 364.108 C 531.471 390.465 540.92 336.177 531.471 364.108 z M 399.108 479.729 C 429.568 482.743 525.314 483.209 530.682 408.405 C 612.428 435.964 503.295 495.614 399.108 479.729 z M 440.623 428.372 C 440.623 445.356 440.623 411.388 440.623 428.372 z "
     id="path246"
     transform="matrix(-1.06244,-1.00921,1.00921,-1.06244,486.412,1258.07)"
     sodipodi:nodetypes="ccccccc" />
  <path
     style="font-size:12;fill:#000000;fill-rule:evenodd;stroke:none;stroke-width:1pt;fill-opacity:1;"
     d="M 531.471 364.108 C 531.471 390.465 540.92 336.177 531.471 364.108 z M 430.993 452.7 C 481.718 469.045 548.977 472.678 530.682 408.405 C 612.428 435.964 514.028 489.763 430.993 452.7 z M 440.623 428.372 C 440.623 445.356 440.623 411.388 440.623 428.372 z "
     id="path247"
     transform="matrix(0.970602,-1.00921,-1.1059,-1.06244,236.078,1283.44)"
     sodipodi:nodetypes="ccccccc" />
</svg>
