<?xml version="1.0" encoding="UTF-8" standalone="no"?>
<!DOCTYPE svg PUBLIC "-//W3C//DTD SVG 20010904//EN"
"http://www.w3.org/TR/2001/REC-SVG-20010904/DTD/svg10.dtd"
[
 <!ATTLIST svg
  xmlns:xlink CDATA #FIXED "http://www.w3.org/1999/xlink">
]>
<!-- Created with Sodipodi ("http://www.sodipodi.com/") -->
<svg
   id="svg548"
   sodipodi:version="0.31.1win"
   xmlns="http://www.w3.org/2000/svg"
   xmlns:sodipodi="http://sodipodi.sourceforge.net/DTD/sodipodi-0.dtd"
   xmlns:xlink="http://www.w3.org/1999/xlink"
   width="990"
   height="720"
   sodipodi:docname="israel_flag.svg">
  <defs
     id="defs550" />
  <sodipodi:namedview
     id="base" />
  <g
     id="g579"
     transform="scale(4.5)">
    <g
       id="g575">
      <rect
         style="font-size:12;fill:#ffffff;fill-rule:evenodd;stroke-width:1pt;"
         id="rect551"
         width="220.000000"
         height="160.000000"
         x="0.000000"
         y="0.000000" />
      <rect
         style="font-size:12;fill:#0000cc;fill-rule:evenodd;stroke-width:1pt;fill-opacity:1;"
         id="rect552"
         width="220"
         height="25"
         x="0"
         y="15" />
      <rect
         style="font-size:12;fill:#0000cc;fill-rule:evenodd;stroke-width:1pt;fill-opacity:1;"
         id="rect553"
         width="220"
         height="25"
         x="0"
         y="120" />
    </g>
    <g
       id="g571"
       style="fill:#0000cc;fill-opacity:1;">
      <path
         style="font-size:12;fill:#0000cc;fill-rule:evenodd;stroke-width:1pt;fill-opacity:1;"
         d="M 110 47 L 124.289 71.75 L 138.579 96.5 L 110 96.5 L 81.4212 96.5 L 95.7106 71.75 L 110 47 z M 110 58 L 119.526 74.5 L 129.053 91 L 110 91 L 90.9474 91 L 100.474 74.5 L 110 58 z "
         id="path565" />
      <path
         style="font-size:12;fill:#0000cc;fill-rule:evenodd;stroke-width:1pt;fill-opacity:1;"
         d="M 110 102 L 100.474 85.5 L 90.9474 69 L 110 69 L 129.053 69 L 119.526 85.5 L 110 102 z M 110 113 L 95.7106 88.25 L 81.4212 63.5 L 110 63.5 L 138.579 63.5 L 124.289 88.25 L 110 113 z "
         id="path570" />
    </g>
  </g>
</svg>
