<?xml version="1.0" encoding="UTF-8" standalone="no"?>
<!DOCTYPE svg PUBLIC "-//W3C//DTD SVG 20010904//EN"
"http://www.w3.org/TR/2001/REC-SVG-20010904/DTD/svg10.dtd">
<!-- Created with Sodipodi ("http://www.sodipodi.com/") -->
<svg
   style="fill:#000000;fill-opacity:0.5;stroke:none"
   width="595.275591"
   height="841.889764"
   id="svg1"
   sodipodi:docbase="/art/gallery/"
   sodipodi:docname="/art/gallery/ximian.svg"
   xmlns="http://www.w3.org/2000/svg"
   xmlns:sodipodi="http://sodipodi.sourceforge.net/DTD/sodipodi-0.dtd"
   xmlns:xlink="http://www.w3.org/1999/xlink"
   sodipodi:version="0.31.1">
  <defs
     id="defs3">
    <linearGradient
       id="linearGradient377">
      <stop
         style="stop-color:#000;stop-opacity:1;"
         offset="0"
         id="stop378" />
      <stop
         style="stop-color:#fff;stop-opacity:1;"
         offset="1"
         id="stop379" />
    </linearGradient>
    <linearGradient
       xlink:href="#linearGradient377"
       id="linearGradient380" />
    <radialGradient
       xlink:href="#linearGradient377"
       id="radialGradient381"
       cx="0.666667"
       cy="0.273438"
       fx="0.666667"
       fy="0.273438"
       r="0.132751"
       gradientUnits="objectBoundingBox"
       spreadMethod="pad" />
  </defs>
  <sodipodi:namedview
     id="base" />
  <path
     style="fill:#f67c28;fill-opacity:1;stroke:#000000;stroke-opacity:1;stroke-width:0.831505;stroke-linejoin:miter;stroke-linecap:round;fill-rule:evenodd;stroke-dasharray:none;"
     id="path5"
     d="M 264.388 172.362 C 257.638 182.445 250.888 194.029 248.888 206.862 C 248.888 218.529 261.721 224.779 269.888 226.112 C 273.305 219.695 278.721 213.779 285.888 210.612 C 291.555 207.445 299.971 207.862 304.138 207.862 C 301.305 200.695 298.471 193.529 295.638 186.362 C 290.471 187.529 285.305 188.695 280.138 189.862 C 279.805 191.862 279.471 193.862 279.138 195.862 C 276.805 195.029 274.471 194.195 272.138 193.362 C 272.638 190.695 273.138 188.029 273.638 185.362 C 281.638 183.695 289.638 182.029 297.638 180.362 C 302.805 188.862 307.971 197.362 313.138 205.862 C 318.971 210.195 317.555 211.279 317.138 213.612 C 316.888 213.612 321.305 211.362 323.638 212.862 C 336.388 219.362 333.138 227.362 325.888 231.612 L 321.138 232.862 C 317.888 231.862 318.305 230.695 316.388 227.112 C 315.388 228.445 313.888 228.029 312.888 229.362 C 312.888 234.862 312.138 239.362 312.138 244.862 C 316.138 248.529 321.138 252.195 325.138 255.862 C 328.305 255.529 329.471 255.695 332.638 255.362 C 332.138 258.029 333.638 260.695 332.638 262.362 C 331.305 266.029 327.471 265.695 325.138 263.362 C 317.305 257.195 310.971 253.529 302.888 245.862 C 304.888 239.862 304.388 233.362 304.138 227.862 C 293.388 225.862 289.638 231.779 282.638 233.112 C 288.805 238.695 288.721 245.279 291.888 251.112 C 279.471 261.029 271.305 274.195 266.138 277.112 C 262.638 275.529 264.138 269.695 264.138 265.362 L 269.107 265.786 C 271.107 262.036 273.669 256.786 276.919 253.036 C 277.752 251.786 280.909 250.087 284.076 249.087 C 280.743 245.754 276.971 242.195 273.638 238.862 C 272.471 243.195 271.305 247.529 270.138 251.862 C 261.138 255.695 252.138 259.529 243.138 263.362 C 242.971 257.862 245.805 254.362 248.638 251.362 C 250.138 252.195 251.638 253.029 253.138 253.862 C 256.638 251.945 257.638 247.029 265.138 248.862 C 265.805 243.195 266.471 237.779 267.138 232.112 C 242.971 224.529 243.471 211.612 244.388 204.112 C 247.638 192.362 255.888 180.362 259.888 174.612 C 264.221 168.112 265.555 170.112 264.388 172.362 z "
     transform="matrix(2.28492 0 0 2.22537 -421.412 -295.565)" />
</svg>
