<?xml version="1.0" standalone="no"?>
<!DOCTYPE svg PUBLIC "-//W3C//DTD SVG 20010904//EN"
"http://www.w3.org/TR/2001/REC-SVG-20010904/DTD/svg10.dtd"
[
 <!ATTLIST svg
  xmlns:xlink CDATA #FIXED "http://www.w3.org/1999/xlink">
]>
<!-- Created with Sodipodi ("http://www.sodipodi.com/") -->
<svg
   xmlns="http://www.w3.org/2000/svg"
   xmlns:xlink="http://www.w3.org/1999/xlink"
   width="617.953"
   height="617.953"
   id="svg7">
  <defs
     id="defs9" />
  <path
     d="M 455.415 171.336 C 521.978 164.29 557.7 192.279 558.536 237.39 C 558.965 327.087 481.659 293.47 480.711 320.054 C 481.339 378.688 584.08 442.031 583.694 486.581 C 584.265 522.922 530.135 578.718 498.272 579.36 C 437.626 580.6 433.714 544.939 400.033 544.198 C 365.598 544.326 364.9 553.702 319.76 554.313 C 273.31 554.056 268.883 541.72 250.278 541.939 C 235.709 542.996 203.319 595.508 132.925 595.564 C 68.9147 594.799 41.8442 583.839 40.6409 537.644 C 38.8144 469.393 115.225 439.532 111.942 369.852 C 110.659 343.101 94.7921 292.48 77.8574 277.819 C 58.2913 262.304 22.3072 278.572 20.295 224.956 C 19.2067 196.626 49.8781 138.218 120.138 146.684 C 120.138 76.2608 195.331 -11.7776 295.173 -9.24485 C 408.618 -6.33108 454.183 84.8892 455.415 171.336 z "
     transform="translate(15.3807,17.204)"
     style="font-size:12;fill-opacity:1;fill-rule:evenodd;"
     id="path15" />
  <path
     d="M 443.903 196.13 C 491.87 168.718 549.928 190.501 549.681 235.619 C 549.225 318.232 460.407 284.615 461.23 318.283 C 462.701 376.902 565.484 442.031 565.098 486.581 C 565.669 522.922 524.828 553.841 492.959 553.68 C 387.152 553.149 419.984 433.298 411.545 434.394 C 406.271 435.014 425.097 538.678 315.332 536.603 C 234.347 535.088 241.513 464.643 234.339 464.899 C 228.725 465.131 262.648 574.255 128.497 578.739 C 64.5055 580.455 65.7532 577.64 64.5499 531.445 C 62.7234 463.194 137.363 435.99 134.08 366.31 C 132.797 339.559 113.388 279.197 96.4533 264.536 C 76.8872 249.021 37.1436 268.862 38.0054 215.216 C 38.6881 173.603 85.2988 155.043 137.848 176.792 C 134.306 104.598 164.317 12.2847 289.86 12.0076 C 426.343 11.7041 443.557 107.027 443.903 196.13 z "
     transform="translate(15.3807,17.204)"
     style="font-size:12;fill:#ffffff;fill-opacity:1;fill-rule:evenodd;"
     id="path17" />
  <path
     d="M 268.055 159.626 C 268.055 175.956 250.66 189.209 229.227 189.209 C 207.793 189.209 190.399 175.956 190.399 159.626 C 190.399 143.296 207.793 130.043 229.227 130.043 C 250.66 130.043 268.055 143.296 268.055 159.626 z "
     transform="translate(19.0786,18.4366)"
     style="font-size:12;fill-opacity:1;fill-rule:evenodd;"
     id="path9" />
  <path
     d="M 268.055 159.626 C 268.055 175.956 250.66 189.209 229.227 189.209 C 207.793 189.209 190.399 175.956 190.399 159.626 C 190.399 143.296 207.793 130.043 229.227 130.043 C 250.66 130.043 268.055 143.296 268.055 159.626 z "
     transform="translate(139.877,17.204)"
     style="font-size:12;fill-opacity:1;fill-rule:evenodd;"
     id="path8" />
</svg>
