<?xml version="1.0" encoding="UTF-8" standalone="no"?>
<!DOCTYPE svg PUBLIC "-//W3C//DTD SVG 20010904//EN"
"http://www.w3.org/TR/2001/REC-SVG-20010904/DTD/svg10.dtd">
<!-- Created with Sodipodi ("http://www.sodipodi.com/") -->
<svg
   id="svg27738"
   sodipodi:version="0.32"
   width="21cm"
   height="27.9cm"
   sodipodi:docname="/foo/img/vec/tuxfinal.svg"
   sodipodi:docbase="/foo/img/vec/"
   xmlns="http://www.w3.org/2000/svg"
   xmlns:sodipodi="http://sodipodi.sourceforge.net/DTD/sodipodi-0.dtd"
   xmlns:xlink="http://www.w3.org/1999/xlink">
  <defs
     id="defs27740" />
  <sodipodi:namedview
     id="base" />
  <g
     id="g568"
     transform="matrix(1.324198,0.000000,0.000000,1.324198,-150.6905,-167.6428)">
    <path
       style="font-size:12;fill:#ffba0b;fill-rule:evenodd;stroke-width:1pt;"
       d="M 178.481 292.942 C 189.279 297.802 199.546 289.383 206.961 282.288 C 214.462 275.21 245.305 266.53 245.227 259.009 C 245.438 249.45 236.142 246.821 230.819 241.413 C 218.324 228.822 229.209 220.617 222.74 215.341 C 213.981 208.082 206.192 235.038 194.16 232.761 C 182.392 230.516 183.6 207.964 172.757 216 C 164.228 222.214 171.484 244.671 171.894 256.971 C 172.253 267.727 163.203 286.132 178.481 292.942 z M 90.1665 288.41 C 80.084 303.974 68.941 292.84 58.7138 289.239 C 53.9876 287.575 17.4854 283.716 12.4362 276.916 C 7.6766 270.506 14.7484 269.592 16.6341 261.235 C 18.5347 252.812 7.66382 241.327 13.0593 235.393 C 19.1294 228.753 23.8284 235.019 31.3409 229.48 C 38.0251 224.552 34.9168 208.738 45.8689 208.395 C 59.9585 208.082 70.4304 230.277 80.6803 246.36 C 96.8699 271.764 97.5873 276.648 90.1665 288.41 z "
       id="path134"
       sodipodi:nodetypes="csssssssscssssssss"
       transform="matrix(2.214073,0.000000,0.000000,2.214073,111.6237,160.1118)" />
    <path
       style="font-size:12;fill-rule:evenodd;stroke-width:1pt;"
       d="M 173.944 66.0343 C 173.147 77.7454 180.326 94.0369 186.04 105.338 C 195.12 123.048 203.981 132.066 211.666 146.957 C 219.351 161.848 225.358 178.982 224.973 199.279 C 224.662 211.641 219.32 217.357 213.15 223.28 C 206.981 229.203 202.652 233.122 196.797 232.959 C 191.545 232.811 186.648 228.04 183.985 224.001 C 181.261 219.959 182.239 215.297 178.515 215.225 C 173.942 215.134 172.627 220.978 172.411 231.589 C 172.283 237.78 175.689 251.761 175.607 256.298 C 175.527 260.788 173.314 268.392 173.322 272.996 C 173.331 278.297 174.454 283.866 178.264 288.207 C 183.461 294.053 197.775 289.926 201.498 285.347 C 202.612 284.134 212.308 276.017 213.531 275.411 C 221.964 270.963 245.364 263.253 245.213 257.801 C 245.072 249.223 229.282 251.777 225.755 243.929 C 223.803 239.683 220.873 229.177 226.379 220.086 C 226.964 225.3 227.576 234.269 231.582 238.94 C 236.538 244.605 250.147 249.78 249.742 257.65 C 249.482 262.853 240.733 269.489 231.349 273.882 C 223.313 277.629 213.086 284.677 209.713 287.713 C 201.163 295.698 199.901 301.806 186.417 301.494 C 160.018 300.889 172.274 292.14 158.582 286.524 C 141.91 287.29 126.68 287.28 115.034 287.028 C 109.282 287.825 102.924 289.986 96.4288 292.092 C 95.5811 297.03 89.57 301.907 82.4598 301.91 C 75.7802 301.913 76.5914 298.891 46.3054 291.706 C 25.8583 286.837 14.6648 283.893 11.6468 280.38 C 5.1985 272.632 12.4573 262.5 12.6972 257.965 C 12.9295 253.33 6.63145 237.404 12.1542 232.651 C 19.5876 226.346 24.8138 232.961 32.5485 227.73 C 35.4312 225.861 34.9637 223.279 39.3044 213.44 C 42.0625 215.916 43.1453 227.961 35.5636 233.595 C 28.3588 238.898 21.5619 229.147 16.9137 235.278 C 11.9553 241.983 21.3836 248.899 20.443 259.925 C 19.7345 268.886 12.8848 270.429 14.9337 273.649 C 20.5949 282.596 53.8511 282.308 62.6627 286.631 C 79.2707 294.994 85.0406 293.783 90.6445 286.427 C 97.5604 277.455 94.0723 266.454 87.4625 257.072 C 78.5981 244.328 76.6994 233.659 56.2733 211.367 C 50.9249 205.532 46.092 212.401 42.4078 208.04 C 37.1959 201.674 43.5851 189.891 48.4297 178.091 C 53.2744 166.292 57.5006 156.357 61.0683 146.774 C 69.0989 126.067 89.9174 110.578 88.9047 100.501 C 83.1622 39.8324 82.058 2.73808 127.076 1.93275 C 157.529 1.38222 176.733 23.9314 173.944 66.0343 z "
       id="path136"
       sodipodi:nodetypes="cssssssssssssssscssssscccsssssscssssssssssssss"
       transform="matrix(2.214073,0.000000,0.000000,2.214073,108.3292,163.5212)" />
    <path
       style="font-size:12;fill:#ffffff;fill-rule:evenodd;stroke-width:1pt;"
       d="M 150.071 94.581 C 152.688 107.247 157.656 110.871 161.753 121.074 C 164.21 127.257 164.061 131.801 165.489 135.945 C 167.831 142.733 173.821 145.37 175.959 156.564 C 179.181 173.657 179.852 180.956 180.011 187.208 C 180.237 196.203 181.051 198.921 185.343 198.746 C 193.679 198.402 196.591 190.429 196.583 181.298 C 196.478 164.642 188.415 142.117 177.699 130.855 C 194.649 145.849 199.212 175.944 199.198 181.198 C 199.174 189.979 194.945 193.297 196.145 195.354 C 198.587 199.204 201.762 196.388 205.942 203.06 C 194.481 195.168 177.151 199.287 178.996 209.842 C 167.934 207.453 168.209 218.623 168.523 235.211 C 168.562 239.502 167.523 245.568 167.169 254.454 C 166.999 263.526 164.814 274.489 165.592 280.49 C 156.388 279.618 165.968 270.803 166.018 254.457 C 166.042 249.97 165.716 247.778 163.875 247.778 C 158.339 247.778 156.554 266.474 121.219 267.577 C 110.399 267.911 107.888 260.857 102.935 260.793 C 100.944 260.799 99.8887 261.787 99.832 262.724 C 99.7516 265.799 110.129 274.322 101.915 283.428 C 104.97 276.275 101.989 265.661 92.5263 256.384 C 98.2276 253.9 101.746 250.749 101.781 244.828 C 101.832 236.139 85.0703 226.18 74.6482 216.292 C 65.9676 208.06 57.001 202.029 57.0914 187.842 C 57.1145 184.294 57.0377 182.932 59.0053 173.988 C 56.0525 193.898 61.3312 203.83 67.2323 203.745 C 71.8708 203.681 70.3154 197.858 70.4181 187.04 C 70.6482 162.999 86.4349 144.462 86.6966 138.384 C 86.6621 136.258 85.2121 134.565 85.1774 131.767 C 85.0649 127.95 92.492 116.118 94.5867 110.155 C 96.0175 106.038 93.6504 100.416 95.5457 92.235 C 106.842 120.446 133.116 107.466 150.071 94.581 z "
       id="path108"
       sodipodi:nodetypes="csssssscssccsscsssssccssscssssscc"
       transform="matrix(2.214073,0.000000,0.000000,2.214073,108.7145,164.5790)" />
    <path
       style="font-size:12;fill:#dddddd;fill-rule:evenodd;stroke-width:1pt;fill-opacity:1;"
       d="M 464.967 361.889 C 453.225 340.343 445.746 339.596 441.772 339.414 C 428.218 338.873 371.024 397.033 347.471 396.858 C 319.232 396.975 302.9 357.578 288.8 353.197 C 288.8 344.943 285.794 329.39 290.183 310.868 C 306.047 349.567 329.505 358.753 349.903 359.558 C 375.284 360.035 407.157 348.513 447.9 317.559 C 452.982 339.086 457.006 347.512 464.967 361.889 z "
       id="path116"
       sodipodi:nodetypes="cscccccc"
       transform="matrix(0.765241,0.000000,0.000000,0.765241,98.21875,130.8790)" />
    <path
       style="font-size:12;fill:#ffffff;fill-rule:evenodd;stroke-width:1pt;"
       d="M 589.04 469.366 C 589.04 511.341 564.142 545.405 533.464 545.405 C 502.785 545.405 477.887 511.341 477.887 469.366 C 477.887 427.392 502.785 393.326 533.464 393.326 C 564.142 393.326 589.04 427.392 589.04 469.366 z "
       id="path149"
       transform="matrix(0.584305,0.000000,0.000000,0.584305,103.7908,30.47437)" />
    <path
       style="font-size:12;fill:#ffffff;fill-rule:evenodd;stroke-width:1pt;"
       d="M 438.753 459.465 C 438.753 493.169 422.216 520.523 401.84 520.523 C 381.464 520.523 364.927 493.169 364.927 459.465 C 364.927 425.762 381.464 398.409 401.84 398.409 C 422.216 398.409 438.753 425.762 438.753 459.465 z "
       id="path150"
       transform="matrix(0.584305,0.000000,0.000000,0.584305,103.7908,30.47437)" />
    <path
       style="font-size:12;fill-rule:evenodd;stroke-width:1pt;"
       d="M 426.291 471.479 C 426.291 492.708 414.901 509.938 400.867 509.938 C 386.831 509.938 375.441 492.708 375.441 471.479 C 375.441 450.25 386.831 433.02 400.867 433.02 C 414.901 433.02 426.291 450.25 426.291 471.479 z "
       id="path147"
       transform="matrix(0.584305,0.000000,0.000000,0.584305,103.7908,30.47437)" />
    <path
       style="font-size:12;fill-rule:evenodd;stroke-width:1pt;"
       d="M 564.839 475.515 C 564.839 498.854 551.276 517.796 534.562 517.796 C 517.851 517.796 504.287 498.854 504.287 475.515 C 504.287 452.174 517.851 433.233 534.562 433.233 C 551.276 433.233 564.839 452.174 564.839 475.515 z "
       id="path148"
       transform="matrix(0.584305,0.000000,0.000000,0.584305,103.7908,30.47437)" />
    <path
       style="font-size:12;fill:#ffffff;fill-rule:evenodd;stroke-width:1pt;fill-opacity:1;"
       d="M 658.787 615.776 C 651.312 625.14 621.676 599.788 618.671 566.558 C 641.899 594.978 673.795 596.347 658.787 615.776 z "
       id="path162"
       sodipodi:nodetypes="ccs"
       transform="matrix(0.584305,0.000000,0.000000,0.584305,103.7908,30.47437)" />
    <path
       style="font-size:12;fill:#ffffff;fill-rule:evenodd;stroke-width:1pt;fill-opacity:1;"
       d="M 498.389 665.17 C 489.991 668.409 485.576 678.054 481.708 677.725 C 474.9 677.224 482.148 639.599 494.118 638.897 C 501.554 638.465 521.419 655.129 521.558 660.37 C 521.759 667.918 508.899 661.086 498.389 665.17 z "
       id="path164"
       sodipodi:nodetypes="cssss"
       transform="matrix(0.584305,0.000000,0.000000,0.584305,142.6349,-166.9379)" />
    <path
       style="font-size:12;fill:#dddddd;fill-rule:evenodd;stroke-width:1pt;fill-opacity:1;"
       d="M 389.363 340.712 C 361.227 339.285 351.504 324.898 342.86 320.723 C 343.225 329.409 347.461 334.56 347.244 339.897 C 346.938 348.234 334.709 367.07 322.076 393.904 C 340.102 368.884 362.991 349.328 389.363 340.712 z "
       id="path200"
       sodipodi:nodetypes="ccscc"
       transform="matrix(0.765241,0.000000,0.000000,0.765241,34.92746,211.0533)" />
    <path
       style="font-size:12;fill:#ffba0b;fill-rule:evenodd;stroke-width:1pt;"
       d="M 266.505 299.228 C 221.967 340.779 166.976 345.146 141.377 338.734 C 174.72 390.568 285.728 327.054 284.589 293.166 C 284.152 271.126 199.58 245.668 178.788 246.668 C 159.365 247.552 113.92 281.056 115.203 295.945 C 116.804 316.033 141.965 334.429 169.376 332.769 C 203.269 330.206 227.563 314.76 266.505 299.228 z "
       id="path141"
       transform="matrix(0.765241,0.000000,0.000000,0.765241,231.8729,125.2452)"
       sodipodi:nodetypes="ccssssc" />
    <path
       style="font-size:12;fill:#dddddd;fill-rule:evenodd;stroke-width:1.25;fill-opacity:1;stroke:none;stroke-opacity:0.07;stroke-dasharray:none;"
       d="M 433.013 930.276 C 433.023 920.017 433.348 872.264 434.309 851.742 C 418.148 874.605 409.662 1012.61 427.186 1050.54 C 425.441 1007.86 432.607 941.213 433.013 930.276 z "
       id="path564"
       sodipodi:nodetypes="cccs"
       transform="matrix(0.584305,0.000000,0.000000,0.584305,103.7908,30.47437)" />
    <path
       style="font-size:12;fill:#ffffff;fill-rule:evenodd;stroke-width:1pt;fill-opacity:1;"
       d="M 271.502 791.759 C 273.434 787.443 275.844 778.285 276.489 772.687 C 264.908 783.311 266.65 793.376 256.379 805.88 C 268.453 801.733 269.855 795.297 271.502 791.759 z "
       id="path566"
       sodipodi:nodetypes="cccs"
       transform="matrix(0.584305,0.000000,0.000000,0.584305,103.7908,30.47437)" />
    <path
       style="font-size:12;fill:#dddddd;fill-rule:evenodd;stroke-width:1pt;fill-opacity:1;"
       d="M 472.849 749.687 C 461.311 741.015 445.08 738.794 431.241 747.018 C 438.831 750.399 444.535 753.692 445.128 772.757 C 453.629 752.8 462.782 754.124 472.849 749.687 z "
       id="path567"
       sodipodi:nodetypes="cccc"
       transform="matrix(0.584305,0.000000,0.000000,0.584305,103.7908,30.47437)" />
    <path
       style="font-size:12;fill:#dddddd;fill-rule:evenodd;stroke-width:1pt;fill-opacity:1;"
       d="M 647.272 1068.44 C 600.922 1066.84 629.604 1119.68 643.083 1173.06 C 649.566 1141.33 646.054 1078.15 647.272 1068.44 z "
       id="path568"
       sodipodi:nodetypes="ccc"
       transform="matrix(0.584305,0.000000,0.000000,0.584305,103.7908,30.47437)" />
    <path
       style="font-size:12;fill:#dddddd;fill-rule:evenodd;stroke-width:1pt;fill-opacity:1;"
       d="M 670.285 821.902 C 653.15 779.255 630.487 746.85 622.179 739.565 C 610.686 729.387 556.501 743.447 538.014 753.844 C 565.128 771.399 584.035 761.737 602.983 773.03 C 645.087 798.309 640.294 808.421 670.285 821.902 z "
       id="path580"
       sodipodi:nodetypes="cscsc"
       transform="matrix(0.584305,0.000000,0.000000,0.584305,103.7908,30.47437)" />
  </g>
</svg>
