<?xml version="1.0" standalone="no"?>
<!DOCTYPE svg PUBLIC "-//W3C//DTD SVG 20010904//EN"
"http://www.w3.org/TR/2001/REC-SVG-20010904/DTD/svg10.dtd"
[
 <!ATTLIST svg
  xmlns:xlink CDATA #FIXED "http://www.w3.org/1999/xlink">
]>
<!-- Created with Sodipodi ("http://www.sodipodi.com/") -->
<svg
   width="308.278"
   height="197.227"
   id="svg10"
   sodipodi:version="0.26"
   xmlns="http://www.w3.org/2000/svg"
   xmlns:sodipodi="http://sodipodi.sourceforge.net/DTD/sodipodi-0.dtd"
   xmlns:xlink="http://www.w3.org/1999/xlink"
   sodipodi:docname="/home/trent/blackstar2.svg"
   sodipodi:docbase="/home/trent/">
  <sodipodi:namedview
     id="base" />
  <defs
     id="defs12" />
  <g
     id="g17"
     transform="matrix(1,0,0,0.995563,-2.375,0.502349)">
    <path
       transform="translate(-55.7237,-85.3831)"
       style="font-size:12;fill-rule:evenodd;stroke-width:1pt;"
       d="M 57.313 85.9126 L 57.313 283.14 L 365.591 283.14 L 365.591 85.9126 L 57.313 85.9126 z "
       id="path13" />
    <path
       transform="matrix(0.507009,0,0,0.507009,9.59447,-284.106)"
       style="font-size:12;fill:#ff0000;fill-rule:evenodd;stroke-width:1pt;"
       d="M 389.965 907.673 L 284.686 835.077 L 181.548 907.773 L 218.058 785.213 L 117.049 709.587 L 244.893 706.437 L 285.604 587.002 L 328.105 707.615 L 454.275 709.426 L 352.699 787.119 L 389.965 907.673 z "
       id="path16" />
    <path
       d="M 311.094 677.291 C 315.008 704.221 330.875 744.614 333.455 774.62 C 335.99 804.564 328.111 829.816 309.51 882.046 C 333.663 841.068 334.374 817.73 353.943 791.142 C 369.626 770.207 386.407 765.82 430.753 739.233 C 395.267 773.481 394.95 801.384 376.113 823.641 C 351.942 852.666 331.078 866.837 314.393 886.694 C 334.105 868.58 349.282 855.813 367.786 846.276 C 393.939 833.036 420.15 830.008 438.702 826.284 C 421.711 839.119 408.318 857.872 387.961 869.431 C 369.723 880.029 343.533 885.352 324.221 887.974 C 339.407 887.834 354.013 887.461 368.793 892.253 C 383.573 897.045 395.742 910.715 406.983 916.377 C 390.52 913.631 372.2 916.921 356.259 913.537 C 340.318 910.154 324.9 904.274 308.669 895.726 L 302.874 964.556 L 296.615 964.219 L 302.89 894.25 C 285.832 906.418 270.862 909.301 253.165 911.198 C 235.468 913.096 219.222 906.579 195.897 906.446 C 220.024 899.825 227.903 891.811 243.094 888.382 C 258.285 884.952 272.896 886.106 295.63 890.394 C 276.733 878.769 251.008 880.032 229.772 866.08 C 200.661 847.259 187.683 823.448 178.999 814.608 C 194.713 820.782 230.976 830.661 245.87 838.759 C 264.716 849.259 283.1 867.994 301.134 886.933 C 288.905 868.482 263.904 841.096 245.822 815.564 C 221.002 780.981 236.974 761.254 227.763 724.234 C 237.01 753.605 262.281 772.661 276.221 796.507 C 295.042 827.909 290.944 848.113 304.137 879.573 C 303.672 843.306 288.468 807.156 289.976 769.496 C 291.2 739.283 308.774 712.629 311.094 677.291 z "
       transform="matrix(0.507009,0,0,0.507009,-2.12251,-321.764)"
       style="font-size:12;fill:#a7c77f;fill-rule:evenodd;stroke-width:1pt;"
       id="path15" />
  </g>
</svg>
