<?xml version="1.0" encoding="UTF-8" standalone="no"?>
<!DOCTYPE svg PUBLIC "-//W3C//DTD SVG 20010904//EN"
"http://www.w3.org/TR/2001/REC-SVG-20010904/DTD/svg10.dtd">
<!-- Created with Sodipodi ("http://www.sodipodi.com/") -->
<svg
   id="svg1350"
   sodipodi:version="0.33beta"
   width="10.15000cm"
   height="6.100000cm"
   sodipodi:docname="E:\sodipodi\sthelena_flag.svg"
   xmlns="http://www.w3.org/2000/svg"
   xmlns:sodipodi="http://sodipodi.sourceforge.net/DTD/sodipodi-0.dtd"
   xmlns:xlink="http://www.w3.org/1999/xlink">
  <defs
     id="defs1352">
    <defs
       id="defs5117" />
    <sodipodi:namedview
       id="namedview5116" />
  </defs>
  <sodipodi:namedview
     id="base"
     showgrid="false"
     borderlayer="top"
     bordercolor="#000000"
     borderopacity="1" />
  <rect
     style="font-size:12.000;fill:#ffffff;fill-rule:evenodd;"
     id="rect1310"
     width="181.362488"
     height="108.124991"
     x="0.000000"
     y="-0.000304"
     transform="translate(9.478229e-2,0.193708)" />
  <path
     style="font-size:12.000;fill:#cc0000;"
     d="M 0.055719 0.392583 L 0.048164 8.585828 L 42.85907 34.92916 L 58.44004 34.90961 L 0.055719 0.392583 L 0.055719 0.392583 L 0.055719 0.392583 z "
     id="path549"
     sodipodi:nodetypes="cccccc" />
  <path
     style="font-size:12.000;fill:#000066;"
     d="M 18.58612 0.591487 L 71.01666 35.17088 L 71.09478 0.630549 L 18.58612 0.591487 L 18.58612 0.591487 L 18.58612 0.591487 z "
     id="path551"
     sodipodi:nodetypes="ccccc" />
  <path
     style="font-size:12.000;fill:#cc0000;"
     d="M 78.09478 0.353678 L 78.09478 42.61967 L 0.094782 42.61967 L 0.094782 66.70445 L 78.09478 66.70445 L 78.09478 108.8528 L 102.0948 108.8528 L 102.0948 66.70445 L 180.0948 66.70445 L 180.0948 42.61967 L 102.0948 42.61967 L 102.0948 0.314477 L 78.09478 0.353677 L 78.09478 0.353678 z "
     id="path552"
     sodipodi:nodetypes="ccccccccccccc" />
  <path
     style="font-size:12.000;fill:#000066;"
     d="M 109.0948 0.353534 L 109.0948 31.47072 L 160.8154 0.320231 L 109.0948 0.353533 L 109.0948 0.353534 z "
     id="path554"
     sodipodi:nodetypes="cccc" />
  <path
     style="font-size:12.000;fill:#cc0000;"
     d="M 110.5976 35.20578 L 124.8794 35.18327 L 181.2739 0.597261 L 166.7044 0.653929 L 110.7148 35.12765 L 110.7148 35.12765 L 110.5976 35.20578 L 110.5976 35.20578 z "
     id="path555"
     sodipodi:nodetypes="ccccccc" />
  <path
     style="font-size:12.000;fill:#000066;"
     d="M 180.6648 10.05624 L 138.2946 35.20629 L 180.0948 35.74775 L 180.0948 73.74775 L 144.0948 73.74775 L 179.7618 96.94675 L 180.2848 108.7477 L 161.2348 108.4747 L 109.0948 77.74775 L 109.0948 108.7477 L 71.09478 108.7477 L 71.09478 77.74775 L 22.18448 108.6647 L 0.094782 108.7477 L 0.094782 216.7477 L 360.0948 216.7477 L 360.0948 0.747751 L 181.0448 0.557798 M 0.094782 12.74776 L 0.022001 35.21692 L 37.68729 35.20088 L 0.094782 12.74776 L 0.094782 12.74776 L 0.094782 12.74776 z "
     id="path556"
     sodipodi:nodetypes="ccccccccccccccccccccccc" />
  <path
     style="font-size:12.000;fill:#000066;"
     d="M 0 73 L 0 96 L 36 73.2401 L 0 73 z "
     id="path901"
     sodipodi:nodetypes="cccc"
     transform="translate(9.478229e-2,0.193708)" />
  <path
     style="font-size:12.000;fill:#cc0000;"
     d="M 138.7228 74.14505 L 123.7148 74.00369 L 180.2848 108.1895 L 179.9128 100.3684 L 138.7228 74.14505 z M 14.15248 108.7658 L 67.19508 74.96415 L 53.26348 75.07628 L 0.094783 108.7153 "
     id="path902"
     sodipodi:nodetypes="ccccccccc" />
  <g
     id="g2423"
     transform="translate(-10.51181,2.403357)"
     style="font-size:12.000;">
    <path
       style="font-size:12.000;fill:#0e0e6e;"
       d="M273 152L274 153L273 152M267 153L268 154L267 153z"
       id="path1514" />
    <path
       style="font-size:12.000;fill:#666677;"
       d="M268 153L269 154L268 153z"
       id="path1515" />
    <path
       style="font-size:12.000;fill:#a4a43d;"
       d="M269 153L270 154L269 153z"
       id="path1516" />
    <path
       style="font-size:12.000;fill:#99994e;"
       d="M270 153L271 154L270 153z"
       id="path1341" />
    <path
       style="font-size:12.000;fill:#32327b;"
       d="M271 153L272 154L271 153z"
       id="path1518" />
    <path
       style="font-size:12.000;fill:#262678;"
       d="M269 154L270 155L269 154z"
       id="path1519" />
    <path
       style="font-size:12.000;fill:#0e0e6e;"
       d="M270 154L271 155L270 154z"
       id="path1344" />
    <path
       style="font-size:12.000;fill:#00e2ff;fill-rule:evenodd;stroke:#ffffff;stroke-width:2.987500;"
       d="M 460.1937 226.9469 C 507.7539 205.7158 582.1083 205.6983 628.9984 226.2830 C 629.6683 232.9233 629.6683 282.1425 629.6684 288.0312 C 631.6779 386.9704 590.4131 421.3780 544.8615 436.3947 C 485.7299 415.0518 458.2668 364.6487 458.8541 288.6836 C 458.8541 283.1686 460.1937 230.9602 460.1937 226.2771 L 460.1937 226.9469 L 460.1937 226.9469 L 460.1937 226.9469 L 460.1937 226.9469 L 460.1937 226.9469 L 460.1937 226.9469 z "
       id="path1646"
       sodipodi:nodetypes="ccccccccccc"
       transform="matrix(0.382819,0,0,0.388885,67.76319,-11.33893)" />
    <path
       style="font-size:12.000;fill:#ffd800;fill-rule:evenodd;stroke-width:1.000000;"
       d="M 461.6789 227.5197 C 519.5422 204.3130 589.8754 209.2326 627.4936 227.0147 C 628.8398 227.6729 628.6974 288.3405 628.1667 288.0750 L 460.2934 289.3914 L 461.6789 227.5197 L 461.6789 227.5197 L 461.6789 227.5197 L 461.6789 227.5197 L 461.6789 227.5197 L 461.6789 227.5197 z "
       id="path1465"
       sodipodi:nodetypes="ccccccccc"
       transform="matrix(0.382819,0,0,0.388885,67.76319,-11.33893)" />
    <g
       id="g797"
       transform="matrix(0.382819,0,0,0.388885,76.75702,57.86553)"
       style="font-size:12.000;">
      <path
         style="fill:#ffffff;fill-rule:evenodd;stroke:#000000;stroke-opacity:1.0000;stroke-width:1.2500;stroke-linejoin:miter;stroke-linecap:butt;fill-opacity:1.0000;stroke-dasharray:none;"
         d="M 507.8478 46.61972 C 503.3312 47.75002 505.8548 50.47226 497.2729 50.23224 C 491.1611 50.05867 491.1970 51.21826 498.5881 53.10577 C 500.5888 53.53210 504.2348 56.40862 503.9915 59.85847 C 504.0687 63.19405 504.0789 65.75607 504.4994 69.53163 C 505.3419 78.01041 511.3152 81.00464 513.4889 83.29277 C 514.4872 84.01367 515.6620 85.45189 515.2195 87.52846 C 514.9594 87.95235 514.8122 88.89442 514.1554 90.71999 C 513.9578 92.27310 512.9941 94.88503 512.2224 96.72951 C 503.4843 96.09276 501.0494 98.23418 501.0159 104.3742 C 502.9415 102.0257 503.5794 100.4283 505.6387 99.88647 C 504.9554 101.0425 503.5532 103.3932 505.3148 107.2324 C 505.7703 102.9743 507.9418 101.9326 509.2833 101.6683 C 508.6660 104.1465 509.3524 106.4626 511.3924 107.4459 C 511.6040 103.8581 510.6433 101.2655 513.4193 100.7875 C 514.7587 100.4400 516.1315 100.3072 518.0926 103.1827 C 517.9641 100.3116 517.5259 98.41660 515.5984 97.46780 C 514.4543 95.86609 516.9174 93.24982 518.0786 92.17056 C 518.9787 91.09131 521.1190 90.61852 521.6910 89.86519 C 522.2630 87.80586 522.2630 88.49228 523.0639 85.97534 C 523.8647 83.45840 526.1205 83.96461 526.6924 86.25275 C 526.7421 87.36549 528.3276 88.47824 529.1264 90.61958 C 528.4885 92.23846 528.1562 94.08424 527.9425 96.82884 C 521.8518 96.17790 519.1903 98.56293 518.8340 101.9899 C 521.7429 99.53979 526.4120 100.4714 524.6959 100.7346 C 523.1104 101.3898 518.9625 103.8580 521.0067 107.3001 C 521.7449 104.7346 523.5722 103.3629 525.7772 102.5501 C 525.6314 106.3082 526.7929 107.9425 528.6698 109.0650 C 528.4572 107.0532 527.5562 103.9977 529.6551 102.2209 C 531.0216 101.0641 534.3619 102.1227 537.4121 105.4677 C 537.7198 101.2379 535.0268 99.14810 530.9266 98.64197 C 530.6135 96.56860 531.2504 95.76889 531.5613 94.45969 C 532.1333 91.71394 532.3631 90.87746 533.2784 87.21649 C 534.1937 83.55553 539.0645 82.28081 542.3823 84.34013 C 545.7001 86.39946 548.6584 88.03490 552.0906 89.63654 C 554.7391 90.84641 558.9302 91.33003 561.3464 89.94759 C 563.1462 88.91792 555.4175 84.60686 552.7133 80.74501 C 554.5042 80.76378 557.0919 80.66307 558.6226 79.55040 C 558.6624 78.64082 554.6540 77.67220 552.4855 77.36038 C 553.8433 76.26495 562.2696 72.90062 554.5255 73.27629 C 549.2628 73.39073 541.5488 72.68219 539.0807 71.10260 C 536.1063 69.50089 529.3562 63.32298 526.9537 62.06451 C 524.5512 60.80605 522.9494 60.34843 522.9494 57.37389 C 522.2630 52.56882 518.7418 43.92212 507.8478 46.61972 L 507.8478 46.61972 L 507.8478 46.61972 L 507.8478 46.61972 L 507.8478 46.61972 L 507.8478 46.61972 L 507.8478 46.61972 L 507.8478 46.61972 L 507.8478 46.61972 L 507.8478 46.61972 L 507.8478 46.61972 L 507.8478 46.61972 L 507.8478 46.61972 L 507.8478 46.61972 L 507.8478 46.61972 L 507.8478 46.61972 L 507.8478 46.61972 L 507.8478 46.61972 L 507.8478 46.61972 L 507.8478 46.61972 L 507.8478 46.61972 L 507.8478 46.61972 L 507.8478 46.61972 L 507.8478 46.61972 L 507.8478 46.61972 L 507.8478 46.61972 L 507.8478 46.61972 L 507.8478 46.61972 z "
         id="path1132"
         sodipodi:nodetypes="csssscccccccccccccccccccccccsccccccsccccsccscccccccccccccccccccccccccc" />
      <path
         sodipodi:type="arc"
         style="fill-rule:evenodd;stroke:#000000;fill:#000000;fill-opacity:1.0000;stroke-opacity:1.0000;stroke-width:1.2500;stroke-linejoin:miter;stroke-linecap:butt;stroke-dasharray:none;"
         id="path787"
         d="M 512.1034 51.66604 A 2.028839 1.074104 0 1 "
         sodipodi:cx="510.0746"
         sodipodi:cy="51.66604"
         sodipodi:rx="2.028839"
         sodipodi:ry="1.074104"
         transform="translate(-0.477371,-0.954871)" />
      <path
         style="font-size:12.000;fill:none;fill-rule:evenodd;stroke:#990000;stroke-width:1.482946;"
         d="M 511.3071 46.95740 C 516.6702 47.67517 519.8712 50.67711 520.7927 54.54262 C 522.4504 58.23257 521.5969 58.54881 520.7927 54.36699 "
         id="path788"
         sodipodi:nodetypes="ccc" />
      <path
         style="font-size:12.000;fill-rule:evenodd;stroke:none;stroke-width:1.250000;fill:#000000;fill-opacity:1.0000;"
         d="M 519.7403 88.14010 C 519.1871 88.38364 515.5426 87.48039 515.4581 87.52815 C 515.1980 87.95204 515.0508 88.89412 514.3940 90.71968 C 514.1964 92.27280 513.2327 94.88480 512.4610 96.72920 C 503.7229 96.09245 501.2880 98.23387 501.2545 104.3740 C 503.1801 102.0255 503.8180 100.4280 505.8773 99.88617 C 505.1940 101.0423 503.7918 103.3930 505.5534 107.2322 C 506.0089 102.9741 508.1804 101.9324 509.5219 101.6681 C 508.9046 104.1463 509.5910 106.4624 511.6310 107.4457 C 511.8426 103.8579 510.8819 101.2653 513.6579 100.7872 C 514.9973 100.4398 516.3701 100.3069 518.3312 103.1825 C 518.2027 100.3114 517.7645 98.41637 515.8370 97.46750 C 514.6929 95.86578 517.1560 93.24951 518.3172 92.17026 C 519.2173 91.09100 521.3576 90.61829 521.9296 89.86488 C 522.5016 87.80556 522.8597 88.96935 523.6606 86.45241 C 524.4613 83.93555 526.3591 83.96439 526.9310 86.25244 C 526.9807 87.36519 528.5662 88.47794 529.3650 90.61928 C 528.7271 92.23816 528.3948 94.08394 528.1811 96.82854 C 522.0904 96.17760 519.4289 98.56262 519.0726 101.9897 C 521.9815 99.53949 526.6506 100.4711 524.9345 100.7343 C 523.3490 101.3896 519.2011 103.8578 521.2453 107.2999 C 521.9835 104.7344 523.8108 103.3627 526.0158 102.5499 C 525.8700 106.3080 527.0315 107.9423 528.9084 109.0648 C 528.6958 107.0530 527.7948 103.9975 529.8937 102.2207 C 531.2602 101.0639 534.6005 102.1225 537.6507 105.4675 C 537.9584 101.2377 535.2654 99.14780 531.1652 98.64166 C 530.8521 96.56830 531.4890 95.76859 531.7999 94.45938 C 532.3719 91.71364 532.6017 90.87715 533.5170 87.21619 C 534.4323 83.55530 535.9725 80.97641 533.7242 82.26540 C 531.0748 95.30426 525.4520 84.05319 524.6420 83.95447 L 519.7403 88.14011 L 519.7403 88.14011 L 519.7403 88.14011 L 519.7403 88.14010 z "
         id="path794"
         sodipodi:nodetypes="cccccccccccccccccccccccsccccccccc" />
      <path
         style="fill:#000000;fill-rule:evenodd;stroke:none;stroke-opacity:1.0000;stroke-width:1pt;stroke-linejoin:miter;stroke-linecap:butt;fill-opacity:1.0000;"
         d="M 554.6883 83.76706 C 554.6883 84.09024 554.8310 85.19559 554.8446 85.95456 C 554.9685 87.00414 554.9826 87.86526 554.8446 88.92331 C 554.4267 89.22864 554.3897 89.54030 553.7508 89.70456 C 554.9094 90.10197 555.7353 90.29431 556.8758 90.32956 C 557.8133 90.32956 558.7508 90.32956 559.6883 90.32956 C 560.5882 90.18513 560.7906 89.95061 561.2508 89.23581 C 561.4945 88.52223 561.1403 88.27252 560.4696 87.82956 C 559.9631 87.39545 559.1971 86.78387 558.7508 86.26706 C 558.1225 85.81181 557.5574 85.33711 556.8758 84.86081 C 556.0209 84.42639 555.6722 84.10825 554.6883 83.76706 z "
         id="path770" />
      <path
         style="font-size:12.000;fill:none;fill-rule:evenodd;stroke:#000000;stroke-width:1;stroke-linecap:round;"
         d="M 525.9114 61.74820 C 525.9114 61.82190 525.9489 61.68571 525.2484 62.85309 C 524.5413 63.41881 524.0306 64.01024 523.0387 64.39987 "
         id="path773"
         sodipodi:nodetypes="ccc" />
      <path
         style="font-size:12.000;fill:none;fill-rule:evenodd;stroke:#000100;stroke-width:1;stroke-opacity:1.0000;stroke-linecap:round;"
         d="M 528.1211 63.95790 C 528.0475 64.03160 528.1878 63.87459 527.2372 65.06279 C 526.6425 65.95497 526.2170 66.29707 525.0275 66.38863 "
         id="path775"
         sodipodi:nodetypes="ccc" />
      <path
         style="font-size:12.000;fill:none;fill-rule:evenodd;stroke:#000000;stroke-width:1;stroke-opacity:1.0000;stroke-linecap:round;"
         d="M 530.3308 65.50468 C 530.3308 65.57838 530.3690 65.44106 529.6679 66.60957 C 529.1259 67.30652 528.6807 67.51572 528.1211 67.93541 "
         id="path776"
         sodipodi:nodetypes="ccc" />
      <path
         style="fill:none;fill-rule:evenodd;stroke:#000000;stroke-opacity:1.0000;stroke-width:1pt;stroke-linejoin:miter;stroke-linecap:round;fill-opacity:1;"
         d="M 519.7242 67.49359 C 519.6506 67.49359 519.7870 67.45590 518.6194 68.15651 C 517.6340 68.49762 517.0126 68.59848 515.7468 68.59848 C 515.3048 68.59848 514.8629 68.59848 514.4209 68.59848 "
         id="path782"
         sodipodi:nodetypes="cccc" />
      <path
         style="fill:none;fill-rule:evenodd;stroke:#000000;stroke-opacity:1.0000;stroke-width:1pt;stroke-linejoin:miter;stroke-linecap:round;fill-opacity:1;"
         d="M 523.2598 69.70337 C 523.1861 69.77699 523.3409 69.63844 522.1549 70.58723 C 521.0884 70.74791 520.6421 71.17729 519.2823 71.25015 C 518.2408 71.44852 517.4974 71.69205 516.1887 71.69205 C 515.7468 71.69205 515.3048 71.69205 514.8629 71.69205 "
         id="path783"
         sodipodi:nodetypes="ccccc" />
      <path
         style="font-size:12.000;fill:none;fill-rule:evenodd;stroke:#000000;stroke-width:1;stroke-linecap:round;"
         d="M 526.1961 71.84929 C 526.1224 71.92299 524.6009 73.63091 523.1025 74.05899 C 522.1405 74.47838 521.4852 74.70695 520.2299 74.72191 C 519.5641 74.75693 519.5697 74.90791 518.9040 74.94293 "
         id="path784"
         sodipodi:nodetypes="cccc" />
      <path
         style="font-size:12.000;fill-rule:evenodd;stroke:#000000;stroke-width:1.500000;stroke-linecap:round;"
         d="M 528.4096 73.65082 C 528.3360 73.72444 528.4907 73.58597 527.3048 74.53468 C 526.4649 75.37460 525.7913 75.77484 524.4322 75.86052 C 523.9058 76.12366 523.2232 76.13480 522.6644 76.30249 "
         id="path785"
         sodipodi:nodetypes="cccc" />
      <path
         style="font-size:12.000;fill:none;fill-rule:evenodd;stroke:#990000;stroke-width:2.2250;stroke-linecap:round;stroke-dasharray:none;"
         d="M 512.5938 53.71240 C 515.1637 54.80785 517.4125 56.37284 518.5370 57.93774 C 519.5007 59.50265 519.5007 59.50265 519.5007 59.50265 "
         id="path791"
         sodipodi:nodetypes="ccc" />
      <path
         style="font-size:12.000;fill:none;fill-rule:evenodd;stroke:#000000;stroke-width:1.7000;stroke-dasharray:none;"
         d="M 510.6639 54.35600 C 514.1044 55.67749 517.1829 58.15521 517.7261 59.64180 C 518.2694 61.12846 517.0019 60.13733 516.0964 60.30251 "
         id="path790"
         sodipodi:nodetypes="ccc" />
      <path
         style="font-size:12.000;fill:none;fill-rule:evenodd;stroke:#ffbe00;stroke-width:2.578017;stroke-linecap:round;"
         d="M 524.4546 71.00960 C 524.3683 71.07452 522.5683 72.60117 520.9362 72.85835 C 519.8721 73.16719 519.1537 73.32077 517.8247 73.19466 C 517.1170 73.15468 517.1060 73.30536 516.3982 73.26546 "
         id="path780"
         sodipodi:nodetypes="cccc" />
      <path
         style="font-size:12.000;fill:none;fill-rule:evenodd;stroke:#ffbe00;stroke-width:2.5;stroke-linecap:round;"
         d="M 521.7207 68.55919 C 521.6332 68.61580 519.7871 69.96635 518.2323 70.07050 C 517.2037 70.27863 516.5150 70.36461 515.2845 70.11574 C 514.6262 70.01022 514.6000 70.15907 513.9418 70.05356 "
         id="path781"
         sodipodi:nodetypes="cccc" />
      <path
         style="font-size:12.000;fill:none;fill-rule:evenodd;stroke:#ffbe00;stroke-width:1.814211;stroke-linecap:round;"
         d="M 518.6387 66.57619 C 518.5900 66.62410 517.1148 67.16236 516.2067 67.27420 C 515.0420 67.22560 514.7647 67.55969 514.1323 67.19402 "
         id="path786"
         sodipodi:nodetypes="ccc" />
      <path
         style="font-size:12.000;fill:none;fill-rule:evenodd;stroke:#ffbe00;stroke-width:2.5;stroke-linecap:round;"
         d="M 525.7913 77.65228 C 525.6886 77.67113 523.4667 78.21373 521.9901 77.71576 C 520.9600 77.51503 520.2907 77.33131 519.2487 76.63116 C 518.6806 76.28212 514.3528 74.05037 514.5713 71.97113 "
         id="path789"
         sodipodi:nodetypes="cccc" />
      <path
         style="fill:none;fill-rule:evenodd;stroke:#000000;stroke-opacity:1.0000;stroke-width:1.2500;stroke-linejoin:miter;stroke-linecap:butt;fill-opacity:1;stroke-dasharray:none;"
         d="M 509.1247 46.21399 C 516.4561 47.73186 515.2409 54.88136 505.3011 54.18983 C 504.8456 54.16130 519.0704 53.55438 515.3891 63.37708 C 511.2144 69.60228 513.5876 77.24815 522.2346 78.86940 C 528.3595 78.86940 558.3304 79.88205 558.5107 79.52179 "
         id="path765"
         sodipodi:nodetypes="csccc" />
      <path
         style="font-size:12.000;fill:none;fill-rule:evenodd;stroke:#000000;stroke-width:1.250000;stroke-linecap:round;"
         d="M 518.3272 64.68378 C 520.3088 68.28661 553.5881 87.71768 553.5881 87.71768 "
         id="path767"
         sodipodi:nodetypes="cc" />
      <path
         style="font-size:12.000;stroke:#ffb300;stroke-width:1.503228;stroke-linecap:round;stroke-linejoin:round;"
         id="path793"
         d="M 514.1797 60.39463 C 514.0426 61.04121 513.7890 61.54371 513.5059 62.12750 C 513.0954 62.93196 512.6696 63.72490 512.2589 64.52924 C 511.7814 65.44115 511.2852 66.26782 510.6743 67.05957 C 510.0726 67.73436 509.4503 68.37303 508.8129 68.99977 C 508.4170 69.37913 508.0180 69.75418 507.6218 70.13293 L 505.7317 68.20673 C 506.1212 67.84109 506.5120 67.47728 506.8998 67.10892 C 507.4711 66.54566 508.0282 65.97077 508.5674 65.36426 C 509.0576 64.74701 509.4423 64.09014 509.8210 63.37027 C 510.2279 62.56852 511.8614 59.71282 512.2605 58.90536 L 514.1797 60.39463 L 514.1797 60.39463 z "
         sodipodi:nodetypes="cccccccccccc" />
      <path
         style="font-size:12.000;fill:none;fill-rule:evenodd;stroke:#ffb300;stroke-width:4.256243;stroke-linecap:round;"
         d="M 533.2777 70.36439 C 533.3797 70.46518 537.1954 73.56068 538.4724 74.59900 C 539.0009 75.15298 539.5862 75.41762 540.0003 76.11131 "
         id="path796"
         sodipodi:nodetypes="ccc" />
      <path
         style="font-size:12.000;stroke:#990000;stroke-width:2.021611;stroke-linecap:round;stroke-linejoin:round;"
         id="path795"
         d="M 518.7959 84.89136 C 517.8855 84.51061 517.2371 84.05037 516.4789 83.52868 C 515.4425 82.78686 514.4293 82.03208 513.3933 81.29021 C 512.2232 80.43589 511.1879 79.59061 510.2507 78.62956 C 509.4848 77.71994 508.7809 76.80002 508.1009 75.86754 C 507.6932 75.29182 507.2933 74.71414 506.8868 74.13829 L 510.5208 72.70580 C 510.9105 73.26956 511.2968 73.83413 511.6914 74.39692 C 512.3033 75.23325 512.9380 76.05788 513.6273 76.87361 C 514.3521 77.63850 515.1787 78.29940 516.1015 78.97586 C 517.1352 79.71261 520.7437 82.54246 521.7892 83.27256 L 518.7959 84.89136 L 518.7959 84.89136 z "
         sodipodi:nodetypes="cccccccccccc" />
      <path
         style="fill:#000000;fill-rule:evenodd;stroke:none;stroke-opacity:1.0000;stroke-width:1pt;stroke-linejoin:miter;stroke-linecap:butt;fill-opacity:1.0000;"
         d="M 538.7803 71.73569 C 538.8380 71.78780 538.8958 71.83983 538.9536 71.89194 C 538.5193 71.50040 538.7264 71.67496 539.4737 72.51694 C 540.0364 73.18649 540.4735 73.56858 541.0337 74.39194 C 541.5206 74.82147 541.8333 75.26459 541.9004 76.11069 C 541.2290 76.30928 540.0684 76.26694 539.1270 76.26694 C 538.3417 75.93827 537.5902 75.70832 537.0470 75.32944 C 536.3761 75.23743 535.8284 75.33135 535.3136 75.95444 C 535.3136 76.39931 535.2673 76.81717 535.4869 77.04819 C 535.7426 77.44332 535.6667 77.53426 536.1803 77.67319 C 536.7047 78.35495 537.1162 78.51540 538.2602 78.76694 C 539.1943 78.76694 540.2062 78.70102 541.0337 78.92319 C 542.0568 78.92319 543.2451 78.80638 544.1538 79.07944 C 545.2306 79.11408 546.1567 79.32823 547.2739 79.39194 C 548.3657 79.41658 549.2771 79.54819 550.3939 79.54819 C 550.7686 79.72595 551.5035 79.70444 552.1274 79.70444 C 553.3763 79.70444 554.6081 79.73526 555.7673 79.86069 C 556.8966 79.79470 557.1913 79.62883 557.5007 78.76694 C 557.2500 77.80342 556.6938 77.63199 555.5940 77.51694 C 554.5891 77.31880 553.5854 77.22939 552.6472 77.04819 C 551.7317 77.00234 552.5879 76.81015 552.8206 76.57944 C 553.5987 76.03661 554.3779 75.80292 555.2474 75.48569 C 555.9603 75.21645 556.5149 74.94004 556.9807 74.54819 C 557.3082 74.22005 557.3983 73.81203 557.1540 73.29819 C 556.2019 73.10120 555.2135 73.14194 554.2073 73.14194 C 552.9147 73.14194 551.6566 73.12927 550.3939 72.98569 C 549.0153 72.98569 547.4980 73.07488 546.2339 72.82944 C 545.0125 72.82944 543.9426 72.63977 542.7670 72.51694 C 541.7590 72.28195 541.0806 72.31323 540.1671 71.89194 C 539.6507 71.89194 539.3477 71.83159 538.7803 71.73569 z "
         id="path771" />
      <path
         style="font-size:12.000;fill:none;fill-rule:evenodd;stroke:#000000;stroke-width:1.108343;stroke-linecap:round;"
         d="M 533.3741 67.90283 C 533.6475 67.64313 532.7447 68.55988 532.4339 68.90419 C 531.9813 69.46243 531.2033 69.64157 530.5518 69.92409 "
         id="path777"
         sodipodi:nodetypes="csc" />
    </g>
    <g
       id="g1384"
       transform="matrix(0.382819,0,0,0.388885,158.0420,-20.87205)"
       style="font-size:12.000;">
      <path
         style="fill:#007f00;fill-rule:evenodd;stroke:none;stroke-opacity:1.0000;stroke-width:1pt;stroke-linejoin:miter;stroke-linecap:butt;fill-opacity:1.0000;"
         d="M 283.7268 392.5426 C 281.9590 391.2169 247.4876 390.7748 243.9521 404.9170 C 257.6522 437.6207 302.2883 459.2760 309.3594 460.1598 C 316.8725 459.7179 361.5086 439.3886 376.0927 403.1493 C 372.1152 403.5912 358.4151 403.5911 350.4601 403.5912 C 344.2729 401.8234 316.8726 399.6136 302.2884 398.7299 C 297.4271 397.4042 288.5882 392.1007 283.7268 392.5426 L 283.7268 392.5426 z "
         id="path1374"
         sodipodi:nodetypes="ccccccc" />
      <path
         style="fill:#00b48c;fill-rule:evenodd;stroke:none;stroke-opacity:1.0000;stroke-width:1pt;stroke-linejoin:miter;stroke-linecap:butt;fill-opacity:1.0000;"
         d="M 364.6022 413.3139 C 358.8570 413.7558 358.8570 413.3139 353.1117 411.1042 C 347.3665 408.8945 348.6923 409.7783 342.0632 410.2203 C 335.4341 410.6623 324.8274 410.6623 322.1758 411.5461 C 319.5241 412.4300 326.1533 412.8720 331.4566 413.3139 C 336.7599 413.7558 340.7373 416.8494 344.2729 416.8494 C 347.8084 416.8494 364.1603 413.7558 364.6022 413.3139 z "
         id="path1375" />
      <path
         style="fill:#00b48c;fill-rule:evenodd;stroke:none;stroke-opacity:1.0000;stroke-width:1pt;stroke-linejoin:miter;stroke-linecap:butt;fill-opacity:1.0000;"
         d="M 306.2659 419.5011 C 302.2884 421.2689 300.0787 423.0367 295.6593 422.1528 C 291.2399 421.2689 292.1237 423.4786 297.4270 424.3625 C 302.7304 425.2463 304.9401 425.2463 305.8239 423.0366 C 306.7078 420.8269 306.7078 419.5011 306.2659 419.5011 z "
         id="path1376" />
      <path
         style="fill:#00b48c;fill-rule:evenodd;stroke:none;stroke-opacity:1.0000;stroke-width:1pt;stroke-linejoin:miter;stroke-linecap:butt;fill-opacity:1.0000;"
         d="M 321.2919 418.6172 C 324.3855 417.2914 325.7113 417.2914 329.2469 419.5011 C 332.7824 421.7108 337.2018 420.3849 338.0857 425.2463 C 338.9696 430.1077 340.2954 430.9916 335.8760 429.2238 C 331.4566 427.4561 329.6888 426.5722 328.3630 424.8044 C 327.0372 423.0366 330.1307 423.0366 331.4566 423.0366 C 332.7824 423.0366 331.0146 421.7108 327.4791 421.7108 C 323.9436 421.7108 321.7339 419.0592 321.2919 418.6172 z "
         id="path1377" />
      <path
         style="fill:#00b48c;fill-rule:evenodd;stroke:none;stroke-opacity:1.0000;stroke-width:1pt;stroke-linejoin:miter;stroke-linecap:butt;fill-opacity:1.0000;"
         d="M 297.4270 427.0141 C 291.6818 427.4561 287.7043 430.1077 292.1237 431.8755 C 296.5432 433.6432 296.5431 432.7593 299.6367 431.8755 C 302.7304 430.9916 307.5917 431.4335 307.5917 431.4335 C 307.5917 431.4335 302.2884 433.2013 300.5206 434.5271 C 298.7529 435.8529 297.4271 437.1788 301.8465 437.1788 C 306.2659 437.1788 307.1498 434.9691 309.3595 432.7594 C 311.5692 430.5496 314.2208 424.8044 309.3595 426.1302 C 304.4981 427.4561 297.4270 427.4561 297.4270 427.0141 z "
         id="path1378" />
      <path
         style="fill:#00b48c;fill-rule:evenodd;stroke:none;stroke-opacity:1.0000;stroke-width:1pt;stroke-linejoin:miter;stroke-linecap:butt;fill-opacity:1.0000;"
         d="M 327.9210 438.9465 C 320.4080 437.1788 317.7564 433.2013 314.2208 435.4110 C 310.6853 437.6207 312.4530 439.8304 306.2659 440.7143 C 300.0787 441.5982 299.6367 442.4820 296.9851 441.1562 C 294.3334 439.8304 294.3334 440.7143 291.6818 441.5982 C 289.0301 442.4821 287.2624 443.8079 294.3334 444.2498 C 301.4045 444.6918 307.1498 444.2498 310.2434 446.9015 C 313.3369 449.5532 304.4981 449.9951 301.8465 449.5532 C 299.1948 449.1112 311.5692 453.0887 314.6628 452.6468 C 317.7564 452.2048 320.4081 453.5307 321.2919 450.8790 C 322.1758 448.2273 325.7113 449.1112 329.2469 446.9015 C 332.7824 444.6918 334.9921 444.2498 326.5952 444.6918 C 318.1983 445.1337 314.2208 448.2273 313.3369 444.6918 C 312.4531 441.1562 308.4756 438.9466 315.1047 439.8304 C 321.7339 440.7143 327.9210 439.3885 327.9210 438.9465 z "
         id="path1379" />
      <path
         style="fill:#00b48c;fill-rule:evenodd;stroke:none;stroke-opacity:1.0000;stroke-width:1pt;stroke-linejoin:miter;stroke-linecap:butt;fill-opacity:1.0000;"
         d="M 277.9816 400.9395 C 282.8429 400.0557 284.1688 398.7298 285.9365 400.0557 C 287.7043 401.3815 290.7979 399.1718 293.0076 401.3815 C 295.2173 403.5912 295.2173 406.2428 291.2399 406.2428 C 287.2624 406.2428 286.3785 405.3590 284.6107 403.5912 C 282.8429 401.8234 281.5171 402.7073 277.9816 400.9395 z "
         id="path1380" />
      <path
         style="fill:#00b48c;fill-rule:evenodd;stroke:none;stroke-opacity:1.0000;stroke-width:1pt;stroke-linejoin:miter;stroke-linecap:butt;fill-opacity:1.0000;"
         d="M 346.0406 421.7108 C 349.5762 419.5011 350.9020 419.0592 353.1117 420.8269 C 355.3215 422.5947 357.0892 423.9205 357.5312 423.9205 C 357.9731 423.9205 353.9957 424.3625 351.7859 424.8044 C 349.5762 425.2463 346.0406 422.5947 346.0406 421.7108 z "
         id="path1381" />
      <path
         style="fill:#00b48c;fill-rule:evenodd;stroke:none;stroke-opacity:1.0000;stroke-width:1pt;stroke-linejoin:miter;stroke-linecap:butt;fill-opacity:1.0000;"
         d="M 276.2138 426.1302 C 277.9816 424.8044 275.7719 424.8044 274.8880 423.9205 C 274.0041 423.0366 271.7944 424.3625 270.0266 424.8044 C 268.2589 425.2463 269.5847 427.4561 271.3524 427.4561 C 273.1202 427.4561 276.6558 426.5722 276.2138 426.1302 z "
         id="path1382" />
      <path
         style="fill:#00b48c;fill-rule:evenodd;stroke:none;stroke-opacity:1.0000;stroke-width:1pt;stroke-linejoin:miter;stroke-linecap:butt;fill-opacity:1.0000;"
         d="M 285.4946 434.0852 C 281.0752 434.0852 279.7494 435.8530 280.6332 436.2949 C 281.5171 436.7368 277.9816 440.2724 281.0752 439.8304 C 284.1688 439.3885 285.4946 439.8304 285.4946 438.0627 C 285.4946 436.2949 286.3785 435.4110 285.4946 434.0852 z "
         id="path1383" />
    </g>
    <path
       style="font-size:12.000;fill-rule:evenodd;stroke:#000000;stroke-width:0.986013;"
       d="M 378.0816 318.8193 C 377.8606 316.8860 378.5236 315.8119 379.8494 314.7377 C 381.1752 313.6635 383.8268 313.2337 383.8268 316.2414 C 383.8268 319.2492 385.8156 320.9677 387.8043 321.3974 C 389.7930 321.8270 392.2237 324.1902 391.7818 326.9832 C 391.3398 329.7760 392.6657 342.8805 394.6544 346.1032 C 396.6431 349.3257 403.7142 362.2157 404.8191 366.2976 C 405.9239 370.3792 407.6917 377.4687 404.5981 379.8320 C 401.5045 382.1951 399.7367 382.6248 395.9802 382.1952 C 392.2237 381.7653 391.3399 382.1950 389.7931 383.2694 C 388.2462 384.3436 387.3624 381.9805 387.5834 380.0469 C 387.8043 378.1133 386.4785 376.6095 385.8156 375.7502 C 385.1527 374.8909 383.8269 373.3871 384.0478 371.0238 C 384.2688 368.6607 384.0478 366.5123 382.2800 365.0086 C 380.5123 363.5046 379.6283 361.7862 379.4074 358.7784 C 379.1864 355.7706 378.0816 345.6735 376.3138 342.2364 C 374.5461 338.7988 373.4412 335.3616 371.4524 332.9984 C 369.4637 330.6351 368.7395 329.3470 368.8008 329.3464 C 372.6378 325.6246 376.9241 323.5963 378.0816 318.8193 L 378.0816 318.8193 L 378.0816 318.8193 z "
       id="path1419"
       sodipodi:nodetypes="cccccccccccccccccccc"
       transform="matrix(0.382271,-2.079371e-2,2.046936e-2,0.388328,105.2737,-6.472448)" />
    <path
       style="font-size:12.000;fill:#b30000;fill-rule:evenodd;"
       d="M 374.5865 324.1505 C 376.4824 322.0655 377.8343 320.5695 377.8343 318.8387 C 377.8343 317.1080 378.0800 315.8099 379.3086 315.1608 C 380.5370 314.5117 382.7962 312.9880 383.0417 314.9353 C 383.2875 316.8823 384.7616 320.7766 386.4816 320.9930 C 388.2014 321.2094 392.4028 322.7376 391.9115 327.9301 C 392.4029 331.3917 392.6486 335.2999 392.0103 337.0259 C 392.2560 338.9731 390.1190 340.2574 389.1363 338.0938 C 388.1535 335.9304 385.9421 329.2235 385.2052 333.1179 C 384.4681 337.0122 383.9766 342.8536 383.4854 346.0988 C 383.7309 349.3441 385.4509 350.4258 385.6965 347.1806 C 385.9421 343.9353 387.9077 338.9592 389.6276 342.8535 C 391.3474 346.7478 394.5414 349.7769 396.2613 353.6711 C 397.9811 357.5654 403.1407 365.1377 403.8775 367.7338 C 404.6146 370.3300 405.5976 372.9263 399.9467 369.2482 C 394.2957 365.5703 390.8560 358.4307 390.6103 355.6182 C 390.3647 352.8056 386.1879 346.9642 386.6793 350.4258 C 388.3991 353.4546 387.4163 355.8345 388.1535 358.6471 C 388.8904 361.4597 391.8387 362.7578 393.5586 366.2193 C 395.2785 369.6810 397.2440 372.2771 398.7181 374.2243 C 400.1923 376.1714 400.6836 376.3877 398.7181 376.8205 C 397.2440 377.2532 395.7698 377.9020 393.8044 376.1713 C 390.3647 375.5222 383.9766 367.7338 383.4854 366.0029 C 378.8172 362.1087 381.0283 361.0270 383.4853 361.0269 C 383.4853 359.0797 382.9938 359.0798 382.2569 357.7818 C 381.5197 356.4836 381.5197 356.0510 382.5025 354.3202 C 383.4854 352.5893 382.9939 352.3729 381.2740 350.6421 C 379.5542 348.9114 377.8343 348.2623 378.3258 345.0170 C 378.8172 341.7718 375.3775 338.7428 374.3947 338.3102 C 373.4120 337.8775 374.2218 335.3000 372.7475 333.7854 C 371.2734 332.2707 366.6082 331.1799 367.7857 330.0842 C 369.8471 328.3259 370.8052 327.0138 372.1558 325.9183 L 374.5865 324.1505 L 374.5865 324.1505 z "
       id="path1420"
       sodipodi:nodetypes="ccccccccccccccccccccccccccccccccc"
       transform="matrix(0.382271,-2.079371e-2,2.046936e-2,0.388328,105.2737,-6.472448)" />
    <path
       style="font-size:12.000;fill:none;fill-rule:evenodd;stroke:#8c0000;stroke-width:0.986013;stroke-linecap:round;"
       d="M 377.1977 322.0420 C 377.1977 322.1136 377.1977 322.1852 377.1977 322.2568 C 377.1977 321.7466 377.1799 321.9726 377.4187 322.9013 C 377.8832 323.9096 378.1491 325.2453 378.5235 326.5535 C 379.0130 327.8549 379.6356 328.6483 379.8494 329.9907 C 379.8494 331.3579 379.8072 332.0931 379.1864 332.9984 C 378.5338 333.7709 377.8893 334.1137 376.9767 334.9319 C 376.8430 335.8944 376.5740 336.7435 376.5348 337.9396 C 376.7033 338.6771 376.7558 339.3039 376.7558 340.0879 "
       id="path1421"
       transform="matrix(0.382271,-2.079371e-2,2.046936e-2,0.388328,105.2737,-6.472448)" />
    <path
       style="font-size:12.000;fill:none;fill-rule:evenodd;stroke:#8c0000;stroke-width:0.986013;stroke-linecap:round;"
       d="M 390.0140 329.1315 C 390.0140 329.2747 390.0140 329.4178 390.0140 329.5610 C 390.0140 328.7662 390.0429 328.9910 389.7931 330.2056 C 389.7931 331.3382 389.8267 332.4084 390.0140 333.4281 C 390.0735 334.4691 390.2803 334.8987 390.8979 335.7912 "
       id="path1423"
       transform="matrix(0.382271,-2.079371e-2,2.046936e-2,0.388328,105.2737,-6.472448)" />
    <path
       style="font-size:12.000;fill:none;fill-rule:evenodd;stroke:#8d0000;stroke-width:1.355768;stroke-linecap:round;"
       d="M 389.5721 344.1697 C 389.4201 344.5835 388.7556 345.8295 388.6882 346.7477 C 388.5794 347.7350 388.3335 348.1921 388.2462 349.1109 "
       id="path1424"
       transform="matrix(0.382271,-2.079371e-2,2.046936e-2,0.388328,105.2737,-6.472448)" />
    <path
       style="font-size:12.000;fill:none;fill-rule:evenodd;stroke:#8c0000;stroke-width:1.024671;stroke-linecap:round;"
       d="M 392.2692 337.6543 C 392.9325 338.7880 392.7044 339.7966 392.7044 341.1977 C 393.1256 342.2613 393.2671 343.5319 393.6131 344.6306 C 394.2085 345.7660 394.5182 346.5712 395.1684 347.6060 C 395.9532 348.7656 396.2527 349.3095 396.9605 350.5813 C 397.3187 351.5419 397.6335 352.1560 398.3045 353.0986 C 398.6125 354.0855 399.1573 354.8905 399.8725 355.8452 C 400.3307 356.7813 400.6751 358.0871 401.2165 358.8203 C 401.7986 359.5850 402.5769 361.5868 402.9958 362.5687 C 403.6834 363.6977 403.9236 364.6927 404.3656 365.7807 C 404.7242 366.8670 405.0209 368.2640 405.4727 369.1192 C 405.8183 370.4504 406.1447 370.8808 406.1447 372.3234 C 406.1447 373.7625 406.1228 374.8118 406.1704 376.1038 C 405.8483 376.8802 405.9919 377.8099 405.4727 378.2740 C 405.2031 379.1793 404.2914 379.2419 403.9047 379.8840 C 403.2118 380.5789 401.8230 381.2006 400.8485 381.3755 C 399.6456 382.0046 398.5173 381.7148 397.0533 381.7148 C 395.8585 381.7148 395.0191 381.4780 393.8244 381.4780 C 392.3772 381.4780 391.8288 381.5121 390.9123 382.1646 C 389.9301 382.6406 389.5784 383.0564 388.6722 383.3090 "
       id="path1438"
       sodipodi:nodetypes="cccccccccccccccccccc"
       transform="matrix(0.382271,-2.079371e-2,2.046936e-2,0.388328,105.2737,-6.472448)" />
    <path
       style="font-size:12.000;fill:#b30000;fill-rule:evenodd;stroke:#000000;stroke-width:0.375000;"
       d="M 235.1132 325.3675 C 237.3229 321.8319 239.9746 322.2739 240.4165 324.9255 C 240.8584 327.5771 241.5214 329.3449 242.8472 330.6707 C 244.1730 331.9965 245.2779 333.9854 245.9408 336.4158 C 247.7085 339.5096 250.5812 344.3710 252.3489 346.5806 C 254.1167 348.7902 257.2103 354.9776 258.0942 358.9551 C 258.9781 362.9326 260.3039 371.3293 261.6297 374.4229 C 262.9556 377.5166 264.7233 381.9361 266.0491 387.2392 C 267.3750 392.5425 266.9330 393.8684 270.9105 398.7298 C 274.8880 403.5912 279.7493 406.6848 280.1913 411.9879 C 280.6332 417.2915 283.2849 423.9204 279.3075 422.3737 C 276.6558 421.4898 275.9928 419.0591 274.4460 420.6058 C 272.4572 421.4897 269.8057 421.9317 268.4799 422.8157 C 267.1540 423.6995 265.5724 421.8480 263.3975 423.6996 C 261.5244 425.1038 258.8269 425.4926 257.0592 425.0508 C 228.3639 394.9097 226.9373 336.6370 226.9373 334.2063 L 235.1132 325.3675 L 235.1132 325.3675 L 235.1132 325.3675 z "
       id="path1395"
       sodipodi:nodetypes="cccccccccccccscccc"
       transform="matrix(0.382271,-2.079371e-2,2.046936e-2,0.388328,150.8493,-13.90812)" />
    <path
       style="font-size:12.000;fill:#730000;fill-rule:evenodd;stroke-width:1.000000;"
       d="M 235.5552 341.2771 C 233.3455 345.2546 233.5665 345.0337 234.6713 348.7902 C 235.7762 352.5467 235.7762 355.8613 235.7762 358.0710 C 235.7762 360.2807 236.4391 360.5016 238.6488 360.5016 C 240.8585 360.5016 248.1506 360.0597 248.5925 367.1308 C 249.0344 371.5502 248.5925 376.1906 251.2442 378.4003 C 253.8958 380.6100 254.3377 384.8084 254.3377 387.4601 C 254.3377 390.1117 253.8958 390.3327 256.5475 392.9844 C 259.1991 395.6360 257.6523 397.8457 257.6523 401.3813 C 257.6523 404.9168 258.9781 408.2314 262.2927 408.2314 C 265.6073 408.2314 266.7121 407.7895 267.3750 409.5572 C 268.0380 411.3250 270.2477 412.2089 270.2477 410.4411 C 270.2477 408.6733 270.9106 405.8008 273.1203 410.4411 C 275.3300 415.0815 279.7495 422.1526 277.3188 420.8267 C 274.8881 419.5009 270.9106 421.4897 269.3637 422.8155 C 264.7234 421.9315 260.9668 425.4671 258.3152 424.8042 C 246.6037 415.5235 226.9373 377.7374 227.3792 334.2061 C 227.8213 330.8915 237.5439 323.3785 236.4391 325.5882 C 235.3342 327.7979 232.2406 331.7753 231.5777 333.5431 C 230.9148 335.3109 230.6938 336.8577 231.3568 338.1836 C 232.0197 339.5094 233.7874 341.0562 234.2294 339.0674 C 234.6713 337.0787 236.8810 336.4158 236.8810 337.7416 C 236.8810 339.0674 235.5552 341.0562 235.5552 341.2771 L 235.5552 341.2771 z "
       id="path1397"
       sodipodi:nodetypes="ccccccccccccccccccccccc"
       transform="matrix(0.382271,-2.079371e-2,2.046936e-2,0.388328,150.8493,-13.90812)" />
    <path
       style="font-size:12.000;fill:#b30000;fill-rule:evenodd;stroke-width:1.000000;"
       d="M 238.2069 369.3404 C 236.8811 365.5838 238.8698 364.2580 241.0795 364.0371 C 243.2892 363.8161 244.6151 365.3629 245.4990 367.3516 C 246.3828 369.3404 245.7199 371.9920 244.6151 371.9920 C 243.5102 371.9920 243.5102 372.8759 244.6151 375.0856 C 245.7199 377.2953 245.4990 379.2840 246.3828 382.5986 C 247.2667 385.9132 249.9184 388.7859 249.6974 390.5536 C 249.4764 392.3214 248.8135 392.3214 250.5813 393.6472 C 252.3490 394.9730 253.6749 396.0779 254.3378 397.8457 C 255.0007 399.6134 257.2104 404.9166 253.2329 400.9392 C 249.2555 396.9618 248.5925 395.8569 247.9296 397.4037 C 247.2667 398.9505 246.6038 398.0666 245.9409 394.5311 C 245.2780 390.9955 245.2780 390.9956 243.7312 389.8907 C 242.1844 388.7858 241.7425 387.6810 241.3005 385.6923 C 240.8585 383.7035 240.8586 383.7034 239.3118 381.9357 C 237.7650 380.1680 237.3230 381.4938 238.2069 378.6212 C 239.0908 375.7486 239.0908 374.4226 239.0908 372.6549 C 239.0908 370.8872 237.9859 369.3404 238.2069 369.3404 z "
       id="path1398"
       transform="matrix(0.382271,-2.079371e-2,2.046936e-2,0.388328,150.8493,-13.90812)" />
    <path
       style="font-size:12.000;fill:#b30000;fill-rule:evenodd;stroke-width:1.000000;"
       d="M 255.2216 409.9991 C 255.2216 409.9991 259.6411 413.3137 262.0717 413.7557 C 264.5024 414.1976 264.5024 412.6508 266.2702 413.3137 C 268.0380 413.9766 267.1541 413.9766 267.8170 416.4073 C 268.4799 418.8380 267.3750 421.9316 265.6073 419.7219 C 263.8395 417.5122 264.0605 418.6170 262.5137 419.0590 C 260.9669 419.5009 260.9669 419.2799 258.5362 417.2912 C 256.1055 415.3025 253.8958 414.4186 254.3377 412.8718 C 254.7797 411.3250 255.2216 409.9991 255.2216 409.9991 z "
       id="path1399"
       transform="matrix(0.382271,-2.079371e-2,2.046936e-2,0.388328,150.8493,-13.90812)" />
    <path
       style="font-size:12.000;fill:none;fill-rule:evenodd;stroke:#730000;stroke-width:2.750000;stroke-linecap:round;"
       d="M 260.7459 380.8310 C 260.8196 380.9046 263.1086 384.5096 263.6186 385.6923 C 263.8502 386.7953 263.8395 388.0257 263.8395 389.4488 C 264.2631 390.8442 264.5222 391.0609 265.1654 392.3215 C 265.7219 393.4717 266.0222 394.8030 266.2702 395.8570 C 266.4964 396.9127 267.8600 397.2878 268.2589 398.0666 C 269.4305 398.9136 269.1092 400.6890 270.2477 401.6022 C 271.2890 402.7709 272.2734 403.6403 273.3413 404.4748 C 275.0418 405.6403 275.1831 406.6909 276.6559 408.0104 C 277.5813 409.4890 277.9817 410.2015 277.9817 411.9879 C 278.0517 413.4229 279.5285 414.6882 279.5285 416.1863 C 279.5285 417.3649 279.5285 419.2063 279.5285 420.3848 "
       id="path1401"
       sodipodi:nodetypes="cccccccccccc"
       transform="matrix(0.382271,-2.079371e-2,2.046936e-2,0.388328,150.8493,-13.90812)" />
    <path
       style="font-size:12.000;fill:none;fill-rule:evenodd;stroke:#730000;stroke-width:2.125000;stroke-linecap:round;"
       d="M 238.4278 323.8204 C 238.6482 324.0887 239.2305 325.0821 239.3117 326.0302 C 239.5135 326.9583 239.9244 328.1276 240.4166 329.1237 C 241.2184 330.5764 242.1778 331.9441 243.2892 333.3222 C 243.9715 334.5284 244.1675 335.6205 244.6150 336.8577 C 244.6319 338.2930 245.0564 339.1376 245.4989 340.3933 C 246.4200 342.1444 247.3659 343.4987 248.3715 344.8127 C 249.1429 345.9986 249.7621 346.7522 250.8022 347.9062 C 250.9265 348.4034 251.2291 348.5290 251.6861 348.7902 C 252.2273 349.9266 253.1762 350.9080 253.6748 352.1047 C 253.8728 353.8070 253.9697 355.5442 253.6748 357.1871 C 253.3506 358.9840 252.8876 359.9905 252.3490 361.6065 C 251.7810 362.8235 251.4651 363.6604 251.4651 365.1420 "
       id="path1403"
       transform="matrix(0.382271,-2.079371e-2,2.046936e-2,0.388328,150.8493,-13.90812)" />
    <path
       style="font-size:12.000;fill:none;fill-rule:evenodd;stroke:#720000;stroke-width:2.572426;stroke-linecap:round;"
       d="M 253.8957 357.8499 C 253.8957 357.9972 253.8957 358.1445 253.8957 358.2918 C 253.8957 357.4022 253.8744 357.7036 254.0890 359.1757 C 254.4115 359.9523 254.2824 361.5675 254.2824 362.7112 C 254.2989 364.2938 254.7110 365.0346 255.4425 366.2467 C 255.9360 366.9944 256.5743 367.9058 256.9894 368.8984 "
       id="path1404"
       transform="matrix(0.382271,-2.079371e-2,2.046936e-2,0.388328,150.8493,-13.90812)" />
    <path
       style="font-size:12.000;fill:none;fill-rule:evenodd;stroke:#730000;stroke-width:2.875000;"
       d="M 243.2892 334.8690 C 243.2155 334.9426 243.1419 335.0163 243.0682 335.0899 C 243.5697 334.5885 243.3278 334.7723 242.8473 335.9739 C 242.1197 337.1171 241.0974 338.1151 239.9746 338.6255 C 239.4211 339.8177 239.3117 340.7032 239.3117 342.1610 C 239.3117 342.7843 239.3377 343.3786 239.0907 343.7079 "
       id="path1406"
       transform="matrix(0.382271,-2.079371e-2,2.046936e-2,0.388328,150.8493,-13.90812)" />
    <path
       style="font-size:12.000;fill:none;fill-rule:evenodd;stroke:#720000;stroke-width:2.500000;"
       d="M 243.0682 335.9739 C 243.0682 336.5161 243.0682 338.5135 243.0682 339.7303 C 243.0682 341.1320 243.1530 341.8882 242.4053 343.0449 C 241.8090 344.0785 241.3383 344.5313 240.8585 345.6965 C 240.4220 346.9858 240.4166 348.0639 240.4166 349.4531 C 240.4166 349.9612 240.3210 350.3469 240.6376 350.5579 "
       id="path1407"
       transform="matrix(0.382271,-2.079371e-2,2.046936e-2,0.388328,150.8493,-13.90812)" />
    <path
       style="font-size:12.000;fill:#ffffff;fill-rule:evenodd;stroke-width:0.625000;stroke-opacity:0.382200;"
       d="M 473.2896 398.0661 C 473.2896 398.6472 468.9315 412.8836 468.9315 412.8836 C 468.9315 412.8836 476.1950 413.4647 477.6477 413.4647 C 479.1003 413.4647 480.5530 411.4309 482.2963 411.4309 C 484.0395 411.4309 485.4922 410.5593 485.7828 409.1066 C 486.0733 407.6539 485.7828 399.2283 486.3639 398.3566 C 486.9449 397.4850 476.4855 399.2282 475.3233 398.6472 C 474.1612 398.0661 473.2896 397.7755 473.2896 398.0661 z "
       id="path1218"
       transform="matrix(0.384535,-1.717006e-2,1.699457e-2,0.388506,109.7353,-25.50565)" />
    <path
       style="font-size:12.000;fill:none;fill-rule:evenodd;stroke:#fe0000;stroke-width:4.017056;"
       d="M 475.4990 413.3403 L 478.6950 398.2106 "
       id="path1215"
       sodipodi:nodetypes="cc"
       transform="matrix(0.384535,-1.717006e-2,1.699457e-2,0.388506,109.7353,-25.50565)" />
    <path
       style="font-size:12.000;fill:none;fill-rule:evenodd;stroke:#fe0000;stroke-width:3.663620;"
       d="M 470.9432 406.8211 C 471.7810 407.2117 485.0557 403.9840 485.8438 404.2623 "
       id="path1216"
       sodipodi:nodetypes="cc"
       transform="matrix(0.384535,-1.717006e-2,1.699457e-2,0.388506,109.7353,-25.50565)" />
    <path
       style="font-size:12.000;fill:none;fill-rule:evenodd;stroke:#000000;stroke-width:0.625000;"
       d="M 473.2896 398.0661 C 473.2896 398.6472 468.9315 412.8836 468.9315 412.8836 C 468.9315 412.8836 476.1950 413.4647 477.6477 413.4647 C 479.1003 413.4647 480.5530 411.4309 482.2963 411.4309 C 484.0395 411.4309 485.4922 410.5593 485.7828 409.1066 C 486.0733 407.6539 485.7828 399.2283 486.3639 398.3566 C 486.9449 397.4850 476.4855 399.2282 475.3233 398.6472 C 474.1612 398.0661 473.2896 397.7755 473.2896 398.0661 z "
       id="path1214"
       transform="matrix(0.384535,-1.717006e-2,1.699457e-2,0.388506,109.7353,-25.50565)" />
    <path
       style="font-size:12.000;fill:none;fill-rule:evenodd;stroke:#00e4ff;stroke-width:0.312018;stroke-opacity:1.0000;"
       d="M 298.2767 120.7766 C 298.2874 121.0200 296.7257 127.0616 296.7257 127.0616 C 296.7257 127.0616 299.7744 127.1696 300.3820 127.1424 C 300.9896 127.1154 301.5599 126.2367 302.2891 126.2042 C 303.0182 126.1717 303.6099 125.7797 303.7048 125.1661 C 303.7996 124.5524 303.5236 121.0302 303.7506 120.6544 C 303.9777 120.2787 299.6348 121.2036 299.1380 120.9820 C 298.6413 120.7603 298.2714 120.6549 298.2767 120.7766 z "
       id="path1219" />
    <rect
       style="font-size:12.000;fill:#b30000;fill-rule:evenodd;stroke:#000000;stroke-width:0.148865;stroke-linecap:round;stroke-linejoin:round;"
       id="rect1212"
       width="0.654894"
       height="7.577216"
       x="317.7394"
       y="45.89097"
       transform="matrix(0.971026,0.238975,-0.231982,0.972720,0,0)" />
    <path
       style="font-size:12.000;fill:none;fill-rule:evenodd;stroke:#000000;stroke-width:0.625000;"
       d="M 526.2658 305.1532 L 512.5794 333.1960 "
       id="path822"
       sodipodi:nodetypes="cc"
       transform="matrix(0.382819,0,0,0.388885,78.62153,3.778561)" />
    <path
       style="font-size:12.000;fill:none;fill-rule:evenodd;stroke:#000000;stroke-width:0.625000;"
       d="M 528.8694 304.9502 L 517.9444 334.1797 "
       id="path829"
       sodipodi:nodetypes="cc"
       transform="matrix(0.382819,0,0,0.388885,78.62153,3.778561)" />
    <path
       style="font-size:12.000;fill:none;fill-rule:evenodd;stroke:#000000;stroke-width:0.625000;"
       d="M 530.2028 305.3328 L 520.6732 335.0465 "
       id="path830"
       sodipodi:nodetypes="cc"
       transform="matrix(0.382819,0,0,0.388885,78.62153,3.778561)" />
    <path
       style="font-size:12.000;fill:none;fill-rule:evenodd;stroke:#000000;stroke-width:0.625000;"
       d="M 527.4225 304.9810 L 515.1726 333.6804 "
       id="path828"
       sodipodi:nodetypes="cc"
       transform="matrix(0.382819,0,0,0.388885,78.62153,3.778561)" />
    <g
       id="g929"
       transform="matrix(-0.376148,-7.228361e-2,-7.115610e-2,0.382108,473.3515,40.42628)"
       style="font-size:12.000;stroke:#000000;">
      <path
         style="font-size:12.000;fill:none;fill-rule:evenodd;stroke:#000000;stroke-width:0.625000;stroke-opacity:1.0000;"
         d="M 471.9068 310.0144 L 458.2204 338.0572 "
         id="path930"
         sodipodi:nodetypes="cc" />
      <path
         style="font-size:12.000;fill:none;fill-rule:evenodd;stroke:#000000;stroke-width:0.625000;stroke-opacity:1.0000;"
         d="M 474.5104 309.8114 L 463.5854 339.0409 "
         id="path931"
         sodipodi:nodetypes="cc" />
      <path
         style="font-size:12.000;fill:none;fill-rule:evenodd;stroke:#000000;stroke-width:0.625000;stroke-opacity:1.0000;"
         d="M 475.8438 310.1940 L 466.3142 339.9077 "
         id="path932"
         sodipodi:nodetypes="cc" />
      <path
         style="font-size:12.000;fill:none;fill-rule:evenodd;stroke:#000000;stroke-width:0.694987;stroke-opacity:1.0000;"
         d="M 459.7787 335.4876 L 467.5740 335.8259 "
         id="path933"
         sodipodi:nodetypes="cc" />
      <path
         style="font-size:12.000;fill:none;fill-rule:evenodd;stroke:#000000;stroke-width:0.674997;stroke-opacity:1.0000;"
         d="M 461.1045 332.8357 L 468.4578 333.1740 "
         id="path934"
         sodipodi:nodetypes="cc" />
      <path
         style="font-size:12.000;fill:none;fill-rule:evenodd;stroke:#000000;stroke-width:0.674999;stroke-opacity:1.0000;"
         d="M 461.9884 330.1842 L 469.3417 330.5225 "
         id="path935"
         sodipodi:nodetypes="cc" />
      <path
         style="font-size:12.000;fill:none;fill-rule:evenodd;stroke:#000000;stroke-width:0.674998;stroke-opacity:1.0000;"
         d="M 462.8722 328.1955 L 470.2255 328.5338 "
         id="path936"
         sodipodi:nodetypes="cc" />
      <path
         style="font-size:12.000;fill:none;fill-rule:evenodd;stroke:#000000;stroke-width:0.827795;stroke-opacity:1.0000;"
         d="M 463.9770 325.9857 L 470.6674 326.5449 "
         id="path937"
         sodipodi:nodetypes="cc" />
      <path
         style="font-size:12.000;fill:none;fill-rule:evenodd;stroke:#000000;stroke-width:0.611125;stroke-opacity:1.0000;"
         d="M 465.0817 323.7759 L 471.1093 324.1142 "
         id="path938"
         sodipodi:nodetypes="cc" />
      <path
         style="font-size:12.000;fill:none;fill-rule:evenodd;stroke:#000000;stroke-width:0.633132;stroke-opacity:1.0000;"
         d="M 465.9656 321.5661 L 472.4350 321.9044 "
         id="path939"
         sodipodi:nodetypes="cc" />
      <path
         style="font-size:12.000;fill:none;fill-rule:evenodd;stroke:#000000;stroke-width:0.588295;stroke-opacity:1.0000;"
         d="M 467.2914 319.3563 L 472.8770 319.6946 "
         id="path940"
         sodipodi:nodetypes="cc" />
      <path
         style="font-size:12.000;fill:none;fill-rule:evenodd;stroke:#000000;stroke-width:0.564540;stroke-opacity:1.0000;"
         d="M 468.1752 317.3675 L 473.3189 317.7058 "
         id="path941"
         sodipodi:nodetypes="cc" />
      <path
         style="font-size:12.000;fill:none;fill-rule:evenodd;stroke:#000000;stroke-width:0.552282;stroke-opacity:1.0000;"
         d="M 469.0590 315.5996 L 473.9817 315.9379 "
         id="path942"
         sodipodi:nodetypes="cc" />
      <path
         style="font-size:12.000;fill:none;fill-rule:evenodd;stroke:#000000;stroke-width:0.552282;stroke-opacity:1.0000;"
         d="M 469.9428 314.0527 L 474.8655 314.3910 "
         id="path943"
         sodipodi:nodetypes="cc" />
      <path
         style="font-size:12.000;fill:none;fill-rule:evenodd;stroke:#000000;stroke-width:0.693975;stroke-opacity:1.0000;"
         d="M 470.3848 312.7267 L 475.0865 313.2860 "
         id="path944"
         sodipodi:nodetypes="cc" />
      <path
         style="font-size:12.000;fill:none;fill-rule:evenodd;stroke:#000000;stroke-width:0.625000;stroke-opacity:1.0000;"
         d="M 472.8426 309.8423 L 460.5927 338.5417 "
         id="path945"
         sodipodi:nodetypes="cc" />
    </g>
    <g
       id="g859"
       transform="matrix(0.302183,-5.240342e-2,5.716407e-2,0.277016,110.3383,63.55140)"
       style="font-size:12.000;stroke:#000000;">
      <path
         style="font-size:12.000;fill:none;fill-rule:evenodd;stroke:#000000;stroke-width:0.625000;stroke-opacity:1.0000;"
         d="M 471.9068 310.0144 L 458.2204 338.0572 "
         id="path843"
         sodipodi:nodetypes="cc" />
      <path
         style="font-size:12.000;fill:none;fill-rule:evenodd;stroke:#000000;stroke-width:0.625000;stroke-opacity:1.0000;"
         d="M 474.5104 309.8114 L 463.5854 339.0409 "
         id="path844"
         sodipodi:nodetypes="cc" />
      <path
         style="font-size:12.000;fill:none;fill-rule:evenodd;stroke:#000000;stroke-width:0.625000;stroke-opacity:1.0000;"
         d="M 475.8438 310.1940 L 466.3142 339.9077 "
         id="path845"
         sodipodi:nodetypes="cc" />
      <path
         style="font-size:12.000;fill:none;fill-rule:evenodd;stroke:#000000;stroke-width:0.694987;stroke-opacity:1.0000;"
         d="M 459.7787 335.4876 L 467.5740 335.8259 "
         id="path846"
         sodipodi:nodetypes="cc" />
      <path
         style="font-size:12.000;fill:none;fill-rule:evenodd;stroke:#000000;stroke-width:0.674997;stroke-opacity:1.0000;"
         d="M 461.1045 332.8357 L 468.4578 333.1740 "
         id="path847"
         sodipodi:nodetypes="cc" />
      <path
         style="font-size:12.000;fill:none;fill-rule:evenodd;stroke:#000000;stroke-width:0.674999;stroke-opacity:1.0000;"
         d="M 461.9884 330.1842 L 469.3417 330.5225 "
         id="path848"
         sodipodi:nodetypes="cc" />
      <path
         style="font-size:12.000;fill:none;fill-rule:evenodd;stroke:#000000;stroke-width:0.674998;stroke-opacity:1.0000;"
         d="M 462.8722 328.1955 L 470.2255 328.5338 "
         id="path849"
         sodipodi:nodetypes="cc" />
      <path
         style="font-size:12.000;fill:none;fill-rule:evenodd;stroke:#000000;stroke-width:0.827795;stroke-opacity:1.0000;"
         d="M 463.9770 325.9857 L 470.6674 326.5449 "
         id="path850"
         sodipodi:nodetypes="cc" />
      <path
         style="font-size:12.000;fill:none;fill-rule:evenodd;stroke:#000000;stroke-width:0.611125;stroke-opacity:1.0000;"
         d="M 465.0817 323.7759 L 471.1093 324.1142 "
         id="path851"
         sodipodi:nodetypes="cc" />
      <path
         style="font-size:12.000;fill:none;fill-rule:evenodd;stroke:#000000;stroke-width:0.633132;stroke-opacity:1.0000;"
         d="M 465.9656 321.5661 L 472.4350 321.9044 "
         id="path852"
         sodipodi:nodetypes="cc" />
      <path
         style="font-size:12.000;fill:none;fill-rule:evenodd;stroke:#000000;stroke-width:0.588295;stroke-opacity:1.0000;"
         d="M 467.2914 319.3563 L 472.8770 319.6946 "
         id="path853"
         sodipodi:nodetypes="cc" />
      <path
         style="font-size:12.000;fill:none;fill-rule:evenodd;stroke:#000000;stroke-width:0.564540;stroke-opacity:1.0000;"
         d="M 468.1752 317.3675 L 473.3189 317.7058 "
         id="path854"
         sodipodi:nodetypes="cc" />
      <path
         style="font-size:12.000;fill:none;fill-rule:evenodd;stroke:#000000;stroke-width:0.552282;stroke-opacity:1.0000;"
         d="M 469.0590 315.5996 L 473.9817 315.9379 "
         id="path855"
         sodipodi:nodetypes="cc" />
      <path
         style="font-size:12.000;fill:none;fill-rule:evenodd;stroke:#000000;stroke-width:0.552282;stroke-opacity:1.0000;"
         d="M 469.9428 314.0527 L 474.8655 314.3910 "
         id="path856"
         sodipodi:nodetypes="cc" />
      <path
         style="font-size:12.000;fill:none;fill-rule:evenodd;stroke:#000000;stroke-width:0.693975;stroke-opacity:1.0000;"
         d="M 470.3848 312.7267 L 475.0865 313.2860 "
         id="path857"
         sodipodi:nodetypes="cc" />
      <path
         style="font-size:12.000;fill:none;fill-rule:evenodd;stroke:#000000;stroke-width:0.625000;stroke-opacity:1.0000;"
         d="M 472.8426 309.8423 L 460.5927 338.5417 "
         id="path858"
         sodipodi:nodetypes="cc" />
    </g>
    <g
       id="g912"
       transform="matrix(-0.371494,-3.183678e-2,-3.133351e-2,0.377461,478.3565,20.56833)"
       style="font-size:12.000;stroke:#000000;">
      <path
         style="font-size:12.000;fill:none;fill-rule:evenodd;stroke:#000000;stroke-width:0.625000;stroke-opacity:1.0000;"
         d="M 471.9068 310.0144 L 458.2204 338.0572 "
         id="path913"
         sodipodi:nodetypes="cc" />
      <path
         style="font-size:12.000;fill:none;fill-rule:evenodd;stroke:#000000;stroke-width:0.625000;stroke-opacity:1.0000;"
         d="M 474.5104 309.8114 L 463.5854 339.0409 "
         id="path914"
         sodipodi:nodetypes="cc" />
      <path
         style="font-size:12.000;fill:none;fill-rule:evenodd;stroke:#000000;stroke-width:0.625000;stroke-opacity:1.0000;"
         d="M 475.8438 310.1940 L 466.3142 339.9077 "
         id="path915"
         sodipodi:nodetypes="cc" />
      <path
         style="font-size:12.000;fill:none;fill-rule:evenodd;stroke:#000000;stroke-width:0.694987;stroke-opacity:1.0000;"
         d="M 459.7787 335.4876 L 467.5740 335.8259 "
         id="path916"
         sodipodi:nodetypes="cc" />
      <path
         style="font-size:12.000;fill:none;fill-rule:evenodd;stroke:#000000;stroke-width:0.674997;stroke-opacity:1.0000;"
         d="M 461.1045 332.8357 L 468.4578 333.1740 "
         id="path917"
         sodipodi:nodetypes="cc" />
      <path
         style="font-size:12.000;fill:none;fill-rule:evenodd;stroke:#000000;stroke-width:0.674999;stroke-opacity:1.0000;"
         d="M 461.9884 330.1842 L 469.3417 330.5225 "
         id="path918"
         sodipodi:nodetypes="cc" />
      <path
         style="font-size:12.000;fill:none;fill-rule:evenodd;stroke:#000000;stroke-width:0.674998;stroke-opacity:1.0000;"
         d="M 462.8722 328.1955 L 470.2255 328.5338 "
         id="path919"
         sodipodi:nodetypes="cc" />
      <path
         style="font-size:12.000;fill:none;fill-rule:evenodd;stroke:#000000;stroke-width:0.827795;stroke-opacity:1.0000;"
         d="M 463.9770 325.9857 L 470.6674 326.5449 "
         id="path920"
         sodipodi:nodetypes="cc" />
      <path
         style="font-size:12.000;fill:none;fill-rule:evenodd;stroke:#000000;stroke-width:0.611125;stroke-opacity:1.0000;"
         d="M 465.0817 323.7759 L 471.1093 324.1142 "
         id="path921"
         sodipodi:nodetypes="cc" />
      <path
         style="font-size:12.000;fill:none;fill-rule:evenodd;stroke:#000000;stroke-width:0.633132;stroke-opacity:1.0000;"
         d="M 465.9656 321.5661 L 472.4350 321.9044 "
         id="path922"
         sodipodi:nodetypes="cc" />
      <path
         style="font-size:12.000;fill:none;fill-rule:evenodd;stroke:#000000;stroke-width:0.588295;stroke-opacity:1.0000;"
         d="M 467.2914 319.3563 L 472.8770 319.6946 "
         id="path923"
         sodipodi:nodetypes="cc" />
      <path
         style="font-size:12.000;fill:none;fill-rule:evenodd;stroke:#000000;stroke-width:0.564540;stroke-opacity:1.0000;"
         d="M 468.1752 317.3675 L 473.3189 317.7058 "
         id="path924"
         sodipodi:nodetypes="cc" />
      <path
         style="font-size:12.000;fill:none;fill-rule:evenodd;stroke:#000000;stroke-width:0.552282;stroke-opacity:1.0000;"
         d="M 469.0590 315.5996 L 473.9817 315.9379 "
         id="path925"
         sodipodi:nodetypes="cc" />
      <path
         style="font-size:12.000;fill:none;fill-rule:evenodd;stroke:#000000;stroke-width:0.552282;stroke-opacity:1.0000;"
         d="M 469.9428 314.0527 L 474.8655 314.3910 "
         id="path926"
         sodipodi:nodetypes="cc" />
      <path
         style="font-size:12.000;fill:none;fill-rule:evenodd;stroke:#000000;stroke-width:0.693975;stroke-opacity:1.0000;"
         d="M 470.3848 312.7267 L 475.0865 313.2860 "
         id="path927"
         sodipodi:nodetypes="cc" />
      <path
         style="font-size:12.000;fill:none;fill-rule:evenodd;stroke:#000000;stroke-width:0.625000;stroke-opacity:1.0000;"
         d="M 472.8426 309.8423 L 460.5927 338.5417 "
         id="path928"
         sodipodi:nodetypes="cc" />
    </g>
    <g
       id="g876"
       transform="matrix(0.381465,-3.268433e-2,3.217451e-2,0.387509,99.42419,18.28708)"
       style="font-size:12.000;stroke:#000000;">
      <path
         style="font-size:12.000;fill:none;fill-rule:evenodd;stroke:#000000;stroke-width:0.625000;stroke-opacity:1.0000;"
         d="M 471.9068 310.0144 L 458.2204 338.0572 "
         id="path877"
         sodipodi:nodetypes="cc" />
      <path
         style="font-size:12.000;fill:none;fill-rule:evenodd;stroke:#000000;stroke-width:0.625000;stroke-opacity:1.0000;"
         d="M 474.5104 309.8114 L 463.5854 339.0409 "
         id="path878"
         sodipodi:nodetypes="cc" />
      <path
         style="font-size:12.000;fill:none;fill-rule:evenodd;stroke:#000000;stroke-width:0.625000;stroke-opacity:1.0000;"
         d="M 475.8438 310.1940 L 466.3142 339.9077 "
         id="path879"
         sodipodi:nodetypes="cc" />
      <path
         style="font-size:12.000;fill:none;fill-rule:evenodd;stroke:#000000;stroke-width:0.694987;stroke-opacity:1.0000;"
         d="M 459.7787 335.4876 L 467.5740 335.8259 "
         id="path880"
         sodipodi:nodetypes="cc" />
      <path
         style="font-size:12.000;fill:none;fill-rule:evenodd;stroke:#000000;stroke-width:0.674997;stroke-opacity:1.0000;"
         d="M 461.1045 332.8357 L 468.4578 333.1740 "
         id="path881"
         sodipodi:nodetypes="cc" />
      <path
         style="font-size:12.000;fill:none;fill-rule:evenodd;stroke:#000000;stroke-width:0.674999;stroke-opacity:1.0000;"
         d="M 461.9884 330.1842 L 469.3417 330.5225 "
         id="path882"
         sodipodi:nodetypes="cc" />
      <path
         style="font-size:12.000;fill:none;fill-rule:evenodd;stroke:#000000;stroke-width:0.674998;stroke-opacity:1.0000;"
         d="M 462.8722 328.1955 L 470.2255 328.5338 "
         id="path883"
         sodipodi:nodetypes="cc" />
      <path
         style="font-size:12.000;fill:none;fill-rule:evenodd;stroke:#000000;stroke-width:0.827795;stroke-opacity:1.0000;"
         d="M 463.9770 325.9857 L 470.6674 326.5449 "
         id="path884"
         sodipodi:nodetypes="cc" />
      <path
         style="font-size:12.000;fill:none;fill-rule:evenodd;stroke:#000000;stroke-width:0.611125;stroke-opacity:1.0000;"
         d="M 465.0817 323.7759 L 471.1093 324.1142 "
         id="path885"
         sodipodi:nodetypes="cc" />
      <path
         style="font-size:12.000;fill:none;fill-rule:evenodd;stroke:#000000;stroke-width:0.633132;stroke-opacity:1.0000;"
         d="M 465.9656 321.5661 L 472.4350 321.9044 "
         id="path886"
         sodipodi:nodetypes="cc" />
      <path
         style="font-size:12.000;fill:none;fill-rule:evenodd;stroke:#000000;stroke-width:0.588295;stroke-opacity:1.0000;"
         d="M 467.2914 319.3563 L 472.8770 319.6946 "
         id="path887"
         sodipodi:nodetypes="cc" />
      <path
         style="font-size:12.000;fill:none;fill-rule:evenodd;stroke:#000000;stroke-width:0.564540;stroke-opacity:1.0000;"
         d="M 468.1752 317.3675 L 473.3189 317.7058 "
         id="path888"
         sodipodi:nodetypes="cc" />
      <path
         style="font-size:12.000;fill:none;fill-rule:evenodd;stroke:#000000;stroke-width:0.552282;stroke-opacity:1.0000;"
         d="M 469.0590 315.5996 L 473.9817 315.9379 "
         id="path889"
         sodipodi:nodetypes="cc" />
      <path
         style="font-size:12.000;fill:none;fill-rule:evenodd;stroke:#000000;stroke-width:0.552282;stroke-opacity:1.0000;"
         d="M 469.9428 314.0527 L 474.8655 314.3910 "
         id="path890"
         sodipodi:nodetypes="cc" />
      <path
         style="font-size:12.000;fill:none;fill-rule:evenodd;stroke:#000000;stroke-width:0.693975;stroke-opacity:1.0000;"
         d="M 470.3848 312.7267 L 475.0865 313.2860 "
         id="path891"
         sodipodi:nodetypes="cc" />
      <path
         style="font-size:12.000;fill:none;fill-rule:evenodd;stroke:#000000;stroke-width:0.625000;stroke-opacity:1.0000;"
         d="M 472.8426 309.8423 L 460.5927 338.5417 "
         id="path892"
         sodipodi:nodetypes="cc" />
    </g>
    <g
       id="g893"
       transform="matrix(-0.381465,-3.268431e-2,-3.217448e-2,0.387509,476.5936,17.85740)"
       style="font-size:12.000;stroke:#000000;">
      <path
         style="font-size:12.000;fill:none;fill-rule:evenodd;stroke:#000000;stroke-width:0.625000;stroke-opacity:1.0000;"
         d="M 471.9068 310.0144 L 458.2204 338.0572 "
         id="path894"
         sodipodi:nodetypes="cc" />
      <path
         style="font-size:12.000;fill:none;fill-rule:evenodd;stroke:#000000;stroke-width:0.625000;stroke-opacity:1.0000;"
         d="M 474.5104 309.8114 L 463.5854 339.0409 "
         id="path895"
         sodipodi:nodetypes="cc" />
      <path
         style="font-size:12.000;fill:none;fill-rule:evenodd;stroke:#000000;stroke-width:0.625000;stroke-opacity:1.0000;"
         d="M 475.8438 310.1940 L 466.3142 339.9077 "
         id="path896"
         sodipodi:nodetypes="cc" />
      <path
         style="font-size:12.000;fill:none;fill-rule:evenodd;stroke:#000000;stroke-width:0.694987;stroke-opacity:1.0000;"
         d="M 459.7787 335.4876 L 467.5740 335.8259 "
         id="path897"
         sodipodi:nodetypes="cc" />
      <path
         style="font-size:12.000;fill:none;fill-rule:evenodd;stroke:#000000;stroke-width:0.674997;stroke-opacity:1.0000;"
         d="M 461.1045 332.8357 L 468.4578 333.1740 "
         id="path898"
         sodipodi:nodetypes="cc" />
      <path
         style="font-size:12.000;fill:none;fill-rule:evenodd;stroke:#000000;stroke-width:0.674999;stroke-opacity:1.0000;"
         d="M 461.9884 330.1842 L 469.3417 330.5225 "
         id="path899"
         sodipodi:nodetypes="cc" />
      <path
         style="font-size:12.000;fill:none;fill-rule:evenodd;stroke:#000000;stroke-width:0.674998;stroke-opacity:1.0000;"
         d="M 462.8722 328.1955 L 470.2255 328.5338 "
         id="path900"
         sodipodi:nodetypes="cc" />
      <path
         style="font-size:12.000;fill:none;fill-rule:evenodd;stroke:#000000;stroke-width:0.827795;stroke-opacity:1.0000;"
         d="M 463.9770 325.9857 L 470.6674 326.5449 "
         id="path903"
         sodipodi:nodetypes="cc" />
      <path
         style="font-size:12.000;fill:none;fill-rule:evenodd;stroke:#000000;stroke-width:0.611125;stroke-opacity:1.0000;"
         d="M 465.0817 323.7759 L 471.1093 324.1142 "
         id="path904"
         sodipodi:nodetypes="cc" />
      <path
         style="font-size:12.000;fill:none;fill-rule:evenodd;stroke:#000000;stroke-width:0.633132;stroke-opacity:1.0000;"
         d="M 465.9656 321.5661 L 472.4350 321.9044 "
         id="path905"
         sodipodi:nodetypes="cc" />
      <path
         style="font-size:12.000;fill:none;fill-rule:evenodd;stroke:#000000;stroke-width:0.588295;stroke-opacity:1.0000;"
         d="M 467.2914 319.3563 L 472.8770 319.6946 "
         id="path906"
         sodipodi:nodetypes="cc" />
      <path
         style="font-size:12.000;fill:none;fill-rule:evenodd;stroke:#000000;stroke-width:0.564540;stroke-opacity:1.0000;"
         d="M 468.1752 317.3675 L 473.3189 317.7058 "
         id="path907"
         sodipodi:nodetypes="cc" />
      <path
         style="font-size:12.000;fill:none;fill-rule:evenodd;stroke:#000000;stroke-width:0.552282;stroke-opacity:1.0000;"
         d="M 469.0590 315.5996 L 473.9817 315.9379 "
         id="path908"
         sodipodi:nodetypes="cc" />
      <path
         style="font-size:12.000;fill:none;fill-rule:evenodd;stroke:#000000;stroke-width:0.552282;stroke-opacity:1.0000;"
         d="M 469.9428 314.0527 L 474.8655 314.3910 "
         id="path909"
         sodipodi:nodetypes="cc" />
      <path
         style="font-size:12.000;fill:none;fill-rule:evenodd;stroke:#000000;stroke-width:0.693975;stroke-opacity:1.0000;"
         d="M 470.3848 312.7267 L 475.0865 313.2860 "
         id="path910"
         sodipodi:nodetypes="cc" />
      <path
         style="font-size:12.000;fill:none;fill-rule:evenodd;stroke:#000000;stroke-width:0.625000;stroke-opacity:1.0000;"
         d="M 472.8426 309.8423 L 460.5927 338.5417 "
         id="path911"
         sodipodi:nodetypes="cc" />
    </g>
    <path
       style="font-size:12.000;fill:none;fill-rule:evenodd;stroke:#000000;stroke-width:0.638973;"
       d="M 550.4883 303.7584 L 555.8135 298.6363 L 561.3916 303.7584 L 550.4883 303.7584 L 550.4883 303.7584 z "
       id="path821"
       sodipodi:nodetypes="cccc"
       transform="matrix(0.382819,0,0,0.388885,78.62153,3.778561)" />
    <path
       style="font-size:12.000;fill:none;fill-rule:evenodd;stroke:#000000;stroke-width:0.776288;"
       d="M 498.4371 291.2454 L 505.6123 285.6344 L 513.1281 291.2454 L 498.4371 291.2454 L 498.4371 291.2454 z "
       id="path811"
       sodipodi:nodetypes="cccc"
       transform="matrix(0.382819,0,0,0.388885,78.62153,3.778561)" />
    <path
       style="font-size:12.000;fill:none;fill-rule:evenodd;stroke:#000000;stroke-width:0.860190;"
       d="M 496.7518 276.6857 L 505.5618 271.0747 L 514.7901 276.6857 L 496.7518 276.6857 L 496.7518 276.6857 z "
       id="path812"
       sodipodi:nodetypes="cccc"
       transform="matrix(0.382819,0,0,0.388885,78.62153,3.778561)" />
    <path
       style="font-size:12.000;fill:none;fill-rule:evenodd;stroke:#000000;stroke-width:0.862930;"
       d="M 525.4366 268.8172 L 533.2284 262.4325 L 541.3901 268.8172 L 525.4366 268.8172 L 525.4366 268.8172 z "
       id="path819"
       sodipodi:nodetypes="cccc"
       transform="matrix(0.382819,0,0,0.388885,78.62153,3.778561)" />
    <path
       style="font-size:12.000;fill:none;fill-rule:evenodd;stroke:#000000;stroke-width:0.893707;"
       d="M 498.1212 263.5432 L 505.2964 256.1064 L 512.8122 263.5432 L 498.1212 263.5432 L 498.1212 263.5432 z "
       id="path994"
       sodipodi:nodetypes="cccc"
       transform="matrix(0.382819,0,0,0.388885,78.62153,3.778561)" />
    <path
       style="font-size:12.000;fill:none;fill-rule:evenodd;stroke:#000000;stroke-width:0.893707;"
       d="M 498.8464 307.0690 L 506.0216 299.6322 L 513.5374 307.0690 L 498.8464 307.0690 L 498.8464 307.0690 z "
       id="path810"
       sodipodi:nodetypes="cccc"
       transform="matrix(0.382819,0,0,0.388885,78.62153,3.778561)" />
    <rect
       style="font-size:12.000;fill:#b30000;fill-rule:evenodd;stroke:#000000;stroke-width:0.783811;stroke-linecap:round;stroke-linejoin:round;"
       id="rect809"
       width="1.709201"
       height="80.48637"
       x="504.8277"
       y="252.2148"
       transform="matrix(0.382819,0,0,0.388885,78.62153,3.778561)" />
    <path
       style="font-size:12.000;fill:#ffffff;fill-rule:evenodd;stroke:#000000;stroke-width:0.778481;"
       d="M 519.4534 291.1671 C 519.4628 291.5069 519.8876 293.1705 519.6940 293.5445 C 518.9927 294.7962 515.2900 295.8597 513.8668 294.5503 C 512.5832 295.7553 508.9185 295.7212 507.4059 294.4801 C 505.9307 295.7589 502.4892 295.8597 501.4159 294.6349 C 500.2440 295.8436 496.8726 294.8264 496.1331 293.5930 C 495.9722 293.3246 495.7624 291.7102 495.7270 291.1312 L 495.7270 291.1312 L 495.7270 291.1312 L 495.7270 291.1312 L 495.7270 291.1312 C 495.7270 291.1312 519.4439 291.1671 519.4534 291.1671 L 519.4534 291.1671 L 519.4534 291.1671 L 519.4534 291.1671 L 519.4534 291.1671 z "
       id="path804"
       sodipodi:nodetypes="cccccsccccccccc"
       transform="matrix(0.382819,0,0,0.388885,78.62153,3.778561)" />
    <path
       style="font-size:12.000;fill:#ffffff;fill-rule:evenodd;stroke:#000000;stroke-width:0.811130;"
       d="M 518.5153 263.3568 C 518.5248 263.7209 518.9511 265.2575 518.7550 265.6583 C 518.0444 266.9997 514.2971 268.3851 512.8552 266.9821 C 511.5548 268.2733 507.8419 268.2367 506.3094 266.9068 C 504.8148 268.2771 501.3280 268.3851 500.2407 267.0727 C 499.0533 268.3679 495.3177 267.3403 494.5711 266.0235 C 494.4053 265.7310 494.5128 263.9388 494.4770 263.3183 L 494.4770 263.3183 L 494.4770 263.3183 L 494.4770 263.3183 L 494.4770 263.3183 C 494.4770 263.3183 518.5056 263.3568 518.5153 263.3568 L 518.5153 263.3568 L 518.5153 263.3568 L 518.5153 263.3568 L 518.5153 263.3568 z "
       id="path806"
       sodipodi:nodetypes="cccccsccccccccc"
       transform="matrix(0.382819,0,0,0.388885,78.62153,3.778561)" />
    <path
       style="font-size:12.000;fill:#ffffff;fill-rule:evenodd;stroke:#000000;stroke-width:0.808606;"
       d="M 520.0752 276.4795 C 520.0853 276.8193 520.8320 278.4828 520.6232 278.8570 C 519.8665 280.1086 515.5833 281.1721 514.0478 279.8627 C 512.6630 281.0677 508.7092 281.0336 507.0772 279.7925 C 505.4857 281.0713 501.7726 281.1721 500.6147 279.9473 C 499.3503 281.1560 495.0663 280.4584 494.2642 279.2185 C 494.0948 278.9566 494.5152 277.0226 494.4770 276.4436 L 494.4770 276.4436 L 494.4770 276.4436 L 494.4770 276.4436 L 494.4770 276.4436 C 494.4770 276.4436 520.0649 276.4795 520.0752 276.4795 L 520.0752 276.4795 L 520.0752 276.4795 L 520.0752 276.4795 L 520.0752 276.4795 z "
       id="path805"
       sodipodi:nodetypes="cccccsccccccccc"
       transform="matrix(0.382819,0,0,0.388885,78.62153,3.778561)" />
    <path
       style="font-size:12.000;fill:#ffffff;fill-rule:evenodd;stroke:#000000;stroke-width:0.923180;"
       d="M 521.0096 306.8002 C 521.0204 307.2130 521.1497 308.8090 520.9256 309.2634 C 520.1136 310.7838 516.1892 312.5001 514.5415 310.9096 C 513.0554 312.3733 508.8124 312.3319 507.0612 310.8244 C 505.3532 312.3777 501.3687 312.5001 500.1260 311.0124 C 498.7692 312.4805 495.3765 310.8704 493.9603 309.3223 C 493.7078 309.0462 493.5805 307.4599 493.5395 306.7566 L 493.5395 306.7566 L 493.5395 306.7566 L 493.5395 306.7566 L 493.5395 306.7566 C 493.5395 306.7566 520.9986 306.8002 521.0096 306.8002 L 521.0096 306.8002 L 521.0096 306.8002 L 521.0096 306.8002 L 521.0096 306.8002 z "
       id="path801"
       sodipodi:nodetypes="cccccsccccccccc"
       transform="matrix(0.382819,0,0,0.388885,78.62153,3.778561)" />
    <path
       style="font-size:12.000;fill:none;fill-rule:evenodd;stroke:#000000;stroke-width:0.860190;"
       d="M 546.4687 284.9605 L 555.2787 279.3495 L 564.5070 284.9605 L 546.4687 284.9605 L 546.4687 284.9605 z "
       id="path813"
       sodipodi:nodetypes="cccc"
       transform="matrix(0.382819,0,0,0.388885,78.62153,3.778561)" />
    <path
       style="font-size:12.000;fill:none;fill-rule:evenodd;stroke:#000000;stroke-width:0.862930;"
       d="M 525.2262 285.6510 L 533.0180 279.2663 L 541.1797 285.6510 L 525.2262 285.6510 L 525.2262 285.6510 z "
       id="path814"
       sodipodi:nodetypes="cccc"
       transform="matrix(0.382819,0,0,0.388885,78.62153,3.778561)" />
    <path
       style="font-size:12.000;fill:none;fill-rule:evenodd;stroke:#000000;stroke-width:0.614001;"
       d="M 550.1188 263.8938 L 555.6591 259.3478 L 561.4625 263.8938 L 550.1188 263.8938 L 550.1188 263.8938 z "
       id="path815"
       sodipodi:nodetypes="cccc"
       transform="matrix(0.382819,0,0,0.388885,78.62153,3.778561)" />
    <path
       style="font-size:12.000;fill:none;fill-rule:evenodd;stroke:#000000;stroke-width:0.614001;"
       d="M 527.1712 256.5290 L 532.7115 251.9830 L 538.5149 256.5290 L 527.1712 256.5290 L 527.1712 256.5290 z "
       id="path816"
       sodipodi:nodetypes="cccc"
       transform="matrix(0.382819,0,0,0.388885,78.62153,3.778561)" />
    <path
       style="font-size:12.000;fill:none;fill-rule:evenodd;stroke:#000000;stroke-width:0.862930;"
       d="M 525.6470 301.5851 L 533.4388 295.2004 L 541.6005 301.5851 L 525.6470 301.5851 L 525.6470 301.5851 z "
       id="path820"
       sodipodi:nodetypes="cccc"
       transform="matrix(0.382819,0,0,0.388885,78.62153,3.778561)" />
    <rect
       style="font-size:12.000;fill:#b30000;fill-rule:evenodd;stroke:#000000;stroke-width:0.793991;stroke-linecap:round;stroke-linejoin:round;"
       id="rect817"
       width="1.709201"
       height="82.59062"
       x="532.3930"
       y="250.7417"
       transform="matrix(0.382819,0,0,0.388885,78.62153,3.778561)" />
    <rect
       style="font-size:12.000;fill:#b30000;fill-rule:evenodd;stroke:#000000;stroke-width:0.717480;stroke-linecap:round;stroke-linejoin:round;"
       id="rect818"
       width="1.709201"
       height="67.44023"
       x="555.1186"
       y="252.2145"
       transform="matrix(0.382819,0,0,0.388885,78.62153,3.778561)" />
    <path
       style="font-size:12.000;fill:#ffffff;fill-rule:evenodd;stroke:#000000;stroke-width:0.885621;"
       d="M 568.3073 285.0076 C 568.3171 285.4303 568.7464 287.4155 567.9188 288.5069 C 566.5629 289.4376 565.8540 291.7839 561.8683 290.1553 C 560.5329 291.6541 556.7199 291.6115 555.4590 289.1285 C 553.9242 290.7193 550.6563 290.8446 549.5397 289.3211 C 548.3203 290.8245 544.9769 289.7194 544.0303 288.2542 C 544.0400 287.8515 543.6573 285.6831 543.6206 284.9629 L 543.6206 284.9629 L 543.6206 284.9629 L 543.6206 284.9629 L 543.6206 284.9629 C 543.6206 284.9629 568.2975 285.0076 568.3073 285.0076 L 568.3073 285.0076 L 568.3073 285.0076 L 568.3073 285.0076 L 568.3073 285.0076 L 568.3073 285.0076 L 568.3073 285.0076 z "
       id="path803"
       sodipodi:nodetypes="ccccccccccccccccc"
       transform="matrix(0.382819,0,0,0.388885,78.62153,3.778561)" />
    <path
       style="font-size:12.000;fill:#ffffff;fill-rule:evenodd;stroke:#000000;stroke-width:0.799294;"
       d="M 568.4643 264.1599 C 568.4730 264.5471 568.5763 266.5735 568.3972 266.9996 C 567.7483 268.4257 564.6121 269.5066 563.2952 268.0148 C 562.1077 269.3876 558.7170 269.3487 557.3173 267.9347 C 555.9525 269.3918 552.7681 269.5066 551.7751 268.1111 C 550.6908 269.4882 546.4999 268.7102 545.6582 267.3681 L 543.3253 266.5887 L 543.0122 263.6626 C 543.0122 263.6626 568.4555 264.1599 568.4643 264.1599 L 568.4643 264.1599 L 568.4643 264.1599 L 568.4643 264.1599 L 568.4643 264.1599 L 568.4643 264.1599 L 568.4643 264.1599 z "
       id="path802"
       sodipodi:nodetypes="cccccccccccccc"
       transform="matrix(0.382819,0,0,0.388885,78.62153,3.778561)" />
    <path
       style="font-size:12.000;fill:#ffffff;fill-rule:evenodd;stroke:#000000;stroke-width:0.630479;"
       d="M 566.4903 303.7060 C 566.4981 303.9748 566.5907 306.0337 566.4302 306.3295 C 565.8486 307.3196 563.0379 307.4179 561.8577 306.3822 C 560.7934 307.3353 557.7546 307.3083 556.5002 306.3266 C 555.2770 307.3382 552.4231 307.4179 551.5332 306.4491 C 550.5614 307.4051 547.6473 306.3604 546.8929 305.4285 C 546.9006 305.1725 546.8452 304.1356 546.8159 303.6776 L 546.8159 303.6776 L 546.8159 303.6776 L 546.8159 303.6776 L 546.8159 303.6776 C 546.8159 303.6776 566.4824 303.7060 566.4903 303.7060 L 566.4903 303.7060 L 566.4903 303.7060 L 566.4903 303.7060 z "
       id="path807"
       sodipodi:nodetypes="cccccccccccccc"
       transform="matrix(0.382819,0,0,0.388885,78.62153,3.778561)" />
    <path
       style="font-size:12.000;fill:#ffffff;fill-rule:evenodd;stroke:#000000;stroke-width:0.857404;"
       d="M 544.4139 301.4665 C 544.4224 301.9247 544.4256 308.1071 537.8224 304.4629 C 536.6677 306.0877 530.4045 306.2285 529.4391 304.5771 C 528.3847 306.2066 523.6577 305.7138 523.1523 304.7516 C 523.1607 304.3151 523.1005 302.1988 523.0688 301.4181 L 523.0688 301.4181 L 523.0688 301.4181 L 523.0688 301.4181 L 523.0688 301.4181 C 523.0688 301.4181 544.4054 301.4665 544.4139 301.4665 L 544.4139 301.4665 L 544.4139 301.4665 L 544.4139 301.4665 L 544.4139 301.4665 z "
       id="path800"
       sodipodi:nodetypes="ccccccccccccc"
       transform="matrix(0.382819,0,0,0.388885,78.62153,3.778561)" />
    <path
       style="font-size:12.000;fill:#ffffff;fill-rule:evenodd;stroke:#000000;stroke-width:0.733118;"
       d="M 542.9503 285.3617 C 542.9587 285.7016 542.7446 287.3653 542.5729 287.7393 C 541.9509 288.9909 539.2580 290.0545 537.9958 288.7451 C 536.8576 289.9501 533.6076 289.9159 532.2661 288.6748 C 530.9579 289.9537 527.9057 290.0545 526.9540 288.8297 C 525.9146 290.0383 523.4243 289.5920 522.6174 288.4139 C 522.6257 288.0902 521.9402 285.9048 521.9089 285.3258 L 521.9089 285.3258 L 521.9089 285.3258 L 521.9089 285.3258 L 521.9089 285.3258 C 521.9089 285.3258 542.9419 285.3617 542.9503 285.3617 L 542.9503 285.3617 L 542.9503 285.3617 L 542.9503 285.3617 z "
       id="path799"
       sodipodi:nodetypes="cccccccccccccc"
       transform="matrix(0.382819,0,0,0.388885,78.62153,3.778561)" />
    <path
       style="font-size:12.000;fill:#ffffff;fill-rule:evenodd;stroke:#000000;stroke-width:0.821114;"
       d="M 544.4054 268.4204 C 544.4146 268.8076 544.5236 271.1469 544.3347 271.5731 C 543.6498 272.9992 540.9662 273.7669 539.5764 272.2751 C 538.3231 273.6480 534.7447 273.6091 533.2676 272.1951 C 531.8272 273.6521 528.4666 273.7669 527.4187 272.3715 C 526.2743 273.7486 523.4691 272.6574 522.5806 271.3153 C 522.5897 270.9463 521.8982 269.0392 521.8637 268.3795 L 521.8637 268.3795 L 521.8637 268.3795 L 521.8637 268.3795 L 521.8637 268.3795 C 521.8637 268.3795 545.0223 268.4204 545.0316 268.4204 L 545.0316 268.4204 L 545.0316 268.4204 L 544.4054 268.4204 L 544.4054 268.4204 z "
       id="path797"
       sodipodi:nodetypes="ccccccccccccccc"
       transform="matrix(0.382819,0,0,0.388885,78.62153,3.778561)" />
    <path
       style="font-size:12.000;fill:#ffffff;fill-rule:evenodd;stroke:#000000;stroke-width:0.630479;"
       d="M 543.3638 256.3880 C 543.3716 256.6568 543.4642 258.0894 543.3037 258.3853 C 542.7221 259.3754 539.9114 260.0999 538.7312 259.0642 C 537.6669 260.0173 534.6281 259.9903 533.3737 259.0086 C 532.1505 260.0202 529.2966 260.0999 528.4067 259.1311 C 527.4349 260.0871 525.1470 259.3555 524.3926 258.4237 C 524.4003 258.1676 523.7187 256.8176 523.6894 256.3596 L 523.6894 256.3596 L 523.6894 256.3596 L 523.6894 256.3596 L 523.6894 256.3596 C 523.6894 256.3596 543.3559 256.3880 543.3638 256.3880 L 543.3638 256.3880 L 543.3638 256.3880 L 543.3638 256.3880 z "
       id="path798"
       sodipodi:nodetypes="cccccccccccccc"
       transform="matrix(0.382819,0,0,0.388885,78.62153,3.778561)" />
    <path
       style="font-size:12.000;fill:none;fill-rule:evenodd;stroke:#000000;stroke-width:0.694987;"
       d="M 514.1377 330.6264 L 521.9330 330.9647 "
       id="path831"
       sodipodi:nodetypes="cc"
       transform="matrix(0.382819,0,0,0.388885,78.62153,3.778561)" />
    <path
       style="font-size:12.000;fill:none;fill-rule:evenodd;stroke:#000000;stroke-width:0.674997;"
       d="M 515.4635 327.9745 L 522.8168 328.3128 "
       id="path832"
       sodipodi:nodetypes="cc"
       transform="matrix(0.382819,0,0,0.388885,78.62153,3.778561)" />
    <path
       style="font-size:12.000;fill:none;fill-rule:evenodd;stroke:#000000;stroke-width:0.674999;"
       d="M 516.3474 325.3230 L 523.7007 325.6613 "
       id="path833"
       sodipodi:nodetypes="cc"
       transform="matrix(0.382819,0,0,0.388885,78.62153,3.778561)" />
    <path
       style="font-size:12.000;fill:none;fill-rule:evenodd;stroke:#000000;stroke-width:0.674998;"
       d="M 517.2312 323.3343 L 524.5845 323.6726 "
       id="path834"
       sodipodi:nodetypes="cc"
       transform="matrix(0.382819,0,0,0.388885,78.62153,3.778561)" />
    <path
       style="font-size:12.000;fill:none;fill-rule:evenodd;stroke:#000000;stroke-width:0.827795;"
       d="M 518.3360 321.1245 L 525.0264 321.6837 "
       id="path835"
       sodipodi:nodetypes="cc"
       transform="matrix(0.382819,0,0,0.388885,78.62153,3.778561)" />
    <path
       style="font-size:12.000;fill:none;fill-rule:evenodd;stroke:#000000;stroke-width:0.611125;"
       d="M 519.4407 318.9147 L 525.4683 319.2530 "
       id="path836"
       sodipodi:nodetypes="cc"
       transform="matrix(0.382819,0,0,0.388885,78.62153,3.778561)" />
    <path
       style="font-size:12.000;fill:none;fill-rule:evenodd;stroke:#000000;stroke-width:0.633132;"
       d="M 520.3246 316.7049 L 526.7940 317.0432 "
       id="path837"
       sodipodi:nodetypes="cc"
       transform="matrix(0.382819,0,0,0.388885,78.62153,3.778561)" />
    <path
       style="font-size:12.000;fill:none;fill-rule:evenodd;stroke:#000000;stroke-width:0.588295;"
       d="M 521.6504 314.4951 L 527.2360 314.8334 "
       id="path838"
       sodipodi:nodetypes="cc"
       transform="matrix(0.382819,0,0,0.388885,78.62153,3.778561)" />
    <path
       style="font-size:12.000;fill:none;fill-rule:evenodd;stroke:#000000;stroke-width:0.564540;"
       d="M 522.5342 312.5063 L 527.6779 312.8446 "
       id="path839"
       sodipodi:nodetypes="cc"
       transform="matrix(0.382819,0,0,0.388885,78.62153,3.778561)" />
    <path
       style="font-size:12.000;fill:none;fill-rule:evenodd;stroke:#000000;stroke-width:0.552282;"
       d="M 523.4180 310.7384 L 528.3407 311.0767 "
       id="path840"
       sodipodi:nodetypes="cc"
       transform="matrix(0.382819,0,0,0.388885,78.62153,3.778561)" />
    <path
       style="font-size:12.000;fill:none;fill-rule:evenodd;stroke:#000000;stroke-width:0.552282;"
       d="M 524.3018 309.1915 L 529.2245 309.5298 "
       id="path841"
       sodipodi:nodetypes="cc"
       transform="matrix(0.382819,0,0,0.388885,78.62153,3.778561)" />
    <path
       style="font-size:12.000;fill:none;fill-rule:evenodd;stroke:#000000;stroke-width:0.693975;"
       d="M 524.7438 307.8655 L 529.4455 308.4248 "
       id="path842"
       sodipodi:nodetypes="cc"
       transform="matrix(0.382819,0,0,0.388885,78.62153,3.778561)" />
    <g
       id="g948"
       transform="matrix(0.382819,0,0,0.388885,78.79154,-8.670671)"
       style="font-size:12.000;">
      <path
         style="fill:#7f0000;fill-rule:evenodd;stroke:#000000;stroke-opacity:1.0000;stroke-width:0.5000;stroke-linejoin:miter;stroke-linecap:butt;fill-opacity:1.0000;stroke-dasharray:none;"
         d="M 553.5217 351.3929 C 551.8269 354.1046 551.1489 356.4772 547.5899 356.3078 C 544.0308 356.1384 540.8107 356.3078 539.4548 358.3416 C 538.0990 360.3753 535.2178 364.4428 530.6419 364.9513 C 526.5872 365.4192 522.8062 365.5839 516.5751 365.2901 C 511.0702 365.0375 505.0371 364.3080 501.8303 363.4260 C 498.9528 362.4825 492.4316 359.3300 489.9667 358.1721 C 488.0252 357.1267 472.6797 348.0033 470.6459 347.6643 C 471.8323 350.0371 487.1829 359.2605 489.6277 361.0533 C 492.3394 362.9175 497.4238 367.1545 500.1355 369.6967 C 504.7115 373.4253 506.7103 376.7741 510.8127 375.9675 C 514.9112 375.1935 517.7977 374.6575 520.6426 374.9506 C 523.5351 375.0617 527.0988 375.3606 528.4386 375.6286 C 529.9639 375.9675 535.2150 376.2881 538.2685 375.7980 C 540.7582 375.5680 573.1814 375.1201 574.8762 374.6116 C 576.5710 374.1032 578.4353 369.0188 579.7911 369.1883 C 581.1469 369.3578 581.1469 365.4597 582.1638 363.7649 C 583.1807 362.0701 583.8586 359.6975 582.5028 358.6805 C 581.1469 357.6636 581.4858 356.1382 582.6722 354.6129 C 583.8586 353.0877 585.3839 350.3760 583.1807 350.7149 C 580.9774 351.0540 553.5217 351.5624 553.5217 351.3929 L 553.5217 351.3929 L 553.5217 351.3929 L 553.5217 351.3929 L 553.5217 351.3929 L 553.5217 351.3929 L 553.5217 351.3929 L 553.5217 351.3929 z "
         id="path949"
         sodipodi:nodetypes="cccsssscscssssccccccccccccc" />
      <rect
         style="font-size:12.000;fill:#cb0000;fill-rule:evenodd;stroke-width:1.000000;fill-opacity:1.0000;"
         id="rect950"
         width="5.931822"
         height="4.575960"
         x="554.3690"
         y="353.5959" />
      <rect
         style="font-size:12.000;fill:#cb0000;fill-rule:evenodd;stroke-width:1.000000;fill-opacity:1.0000;"
         id="rect951"
         width="5.931821"
         height="4.575960"
         x="561.1482"
         y="353.5957" />
      <rect
         style="font-size:12.000;fill:#cb0000;fill-rule:evenodd;stroke-width:1.000000;fill-opacity:1.0000;"
         id="rect952"
         width="5.931821"
         height="4.575960"
         x="568.0968"
         y="353.5956" />
      <rect
         style="font-size:12.000;fill:#cb0000;fill-rule:evenodd;stroke-width:1.000000;fill-opacity:1.0000;"
         id="rect953"
         width="5.931821"
         height="4.575960"
         x="575.0455"
         y="353.5956" />
      <rect
         style="font-size:12.000;fill:#cb0000;fill-rule:evenodd;stroke-width:1.000000;fill-opacity:1.0000;"
         id="rect954"
         width="5.592883"
         height="6.101305"
         x="575.2147"
         y="359.8660" />
      <rect
         style="font-size:12.000;fill:#cb0000;fill-rule:evenodd;stroke-width:1.000000;fill-opacity:1.0000;"
         id="rect955"
         width="5.592883"
         height="6.101305"
         x="568.2660"
         y="359.6964" />
      <rect
         style="font-size:12.000;fill:#cb0000;fill-rule:evenodd;stroke-width:1.000000;fill-opacity:1.0000;"
         id="rect956"
         width="5.592883"
         height="6.101305"
         x="561.4867"
         y="359.8659" />
      <rect
         style="font-size:12.000;fill:#cb0000;fill-rule:evenodd;stroke-width:1.000000;fill-opacity:1.0000;"
         id="rect957"
         width="5.592883"
         height="6.101305"
         x="554.8769"
         y="359.6964" />
      <rect
         style="font-size:12.000;fill:#cb0000;fill-rule:evenodd;stroke-width:1.000000;fill-opacity:1.0000;"
         id="rect958"
         width="4.237024"
         height="8.135073"
         x="545.5554"
         y="357.8320" />
      <path
         style="fill:#cb0000;fill-rule:evenodd;stroke:none;stroke-opacity:1.0000;stroke-width:1pt;stroke-linejoin:miter;stroke-linecap:butt;fill-opacity:1.0000;"
         d="M 543.1834 359.0195 L 543.1834 365.9681 L 537.0821 365.9681 L 543.1834 359.0195 z "
         id="path959" />
      <path
         style="font-size:12.000;fill:none;fill-rule:evenodd;stroke:#00b800;stroke-width:1.000000;"
         d="M 504.3725 370.2052 C 507.5926 369.3578 512.1686 371.2220 513.0160 372.2389 C 514.3718 371.2220 521.1510 371.2220 523.1848 372.5779 C 525.3880 371.2221 532.3367 370.8831 534.3705 372.5779 C 536.5737 371.2220 543.8614 370.5440 545.3867 372.2389 C 547.5899 370.7137 554.1996 371.9000 554.1996 372.0694 "
         id="path946" />
      <path
         style="fill:none;fill-rule:evenodd;stroke:#cd0000;stroke-opacity:1.0000;stroke-width:0.8750;stroke-linejoin:miter;stroke-linecap:butt;fill-opacity:1.0000;stroke-dasharray:none;"
         d="M 580.1781 366.9817 L 568.9065 366.9817 C 568.9065 366.9817 514.4267 367.2948 509.7302 367.2948 C 505.0336 367.2948 496.5799 363.5376 496.5799 363.5376 "
         id="path947"
         sodipodi:nodetypes="cccc" />
    </g>
  </g>
</svg>
