<?xml version="1.0" encoding="UTF-8" standalone="no"?>
<!DOCTYPE svg PUBLIC "-//W3C//DTD SVG 20010904//EN"
"http://www.w3.org/TR/2001/REC-SVG-20010904/DTD/svg10.dtd">
<!-- Created with Sodipodi ("http://www.sodipodi.com/") -->
<!-- /Creative Commons Public Domain -->
<!--
<rdf:RDF xmlns="http://web.resource.org/cc/"
     xmlns:dc="http://purl.org/dc/elements/1.1/"
     xmlns:rdf="http://www.w3.org/1999/02/22-rdf-syntax-ns#">
<Work rdf:about="">
    <dc:title>New Zealand, Australia, United Kingdom, United States, 
Bosnia and Herzegovina, Azerbaijan, Armenia, Bahamas, Belgium, Benin, 
Bulgaria, Estonia, Finland, Gabon, Gambia, Germany, Greece, Greenland, 
Guinea, Honduras, Israel, Jamaica, Jordan, and Romania Flags</dc:title>
    <dc:rights><Agent>
       <dc:title>Daniel McRae</dc:title>
    </Agent></dc:rights>
    <license rdf:resource="http://web.resource.org/cc/PublicDomain" />
</Work>

<License rdf:about="http://web.resource.org/cc/PublicDomain">
    <permits rdf:resource="http://web.resource.org/cc/Reproduction" />
    <permits rdf:resource="http://web.resource.org/cc/Distribution" />
    <permits rdf:resource="http://web.resource.org/cc/DerivativeWorks" />
</License>
</rdf:RDF>
-->
<svg
   id="svg1"
   sodipodi:version="0.33pre"
   width="1000"
   height="500"
   sodipodi:docname="australia_flag.svg"
   xmlns="http://www.w3.org/2000/svg"
   xmlns:sodipodi="http://sodipodi.sourceforge.net/DTD/sodipodi-0.dtd"
   xmlns:xlink="http://www.w3.org/1999/xlink">
  <defs
     id="defs3" />
  <sodipodi:namedview
     id="base" />
  <g
     id="g602"
     transform="scale(8.3333333333333,8.3333333333333)">
    <rect
       style="font-size:12;fill:#000066;stroke-width:1pt;"
       id="rect124"
       x="0"
       y="0"
       width="120"
       height="60" />
    <g
       id="g584">
      <path
         style="font-size:12;fill:#ffffff;stroke-width:1pt;"
         d="M 0 0 L 0 3.3541 L 53.2918 30 L 60 30 L 60 26.6459 L 6.7082 0 L 0 0 z M 60 0 L 60 3.35405 L 6.7082 30 L 0 30 L 0 26.6458 L 53.2918 0 L 60 0 z "
         id="path146" />
      <path
         style="font-size:12;fill:#ffffff;stroke-width:1pt;"
         d="M 25 0 L 25 30 L 35 30 L 35 0 L 25 0 z M 0 10 L 0 20 L 60 20 L 60 10 L 0 10 z "
         id="path136" />
      <path
         style="font-size:12;fill:#cc0000;stroke-width:1pt;"
         d="M 0 12 L 0 18 L 60 18 L 60 12 L 0 12 z M 27 0 L 27 30 L 33 30 L 33 0 L 27 0 z "
         id="path141" />
      <path
         style="font-size:12;fill:#cc0000;stroke-width:1pt;"
         d="M 0 30 L 20 20 L 24.4721 20 L 4.47214 30 L 0 30 z M 0 0 L 20 10 L 15.5279 10 L 0 2.23607 L 0 0 z M 35.5279 10 L 55.5279 0 L 60 0 L 40 10 L 35.5279 10 z M 60 30 L 40 20 L 44.4721 20 L 60 27.7639 L 60 30 z "
         id="path150" />
    </g>
    <polygon
       sodipodi:type="star"
       style="font-size:12;fill:#ffffff;fill-rule:evenodd;stroke-width:1pt;fill-opacity:1;"
       id="polygon589"
       points="80.9552,2.32836 83.5843,8.19302 89.906,9.35198 85.1408,13.6647 85.9921,20.0351 80.4179,16.8358 74.6224,19.614 75.9425,13.324 71.5094,8.67062 77.8995,7.98247 80.9552,2.32836 "
       sodipodi:sides="7"
       sodipodi:arg1="-1.57079632679489661923132169163975144209858469968754"
       sodipodi:arg2="-1.12199737628206901373665835117125103007041764263396"
       sodipodi:cx="30"
       sodipodi:cy="45"
       sodipodi:r1="9"
       sodipodi:r2="4" />
    <g
       id="g596">
      <polygon
         sodipodi:type="star"
         style="font-size:12;fill:#ffffff;fill-rule:evenodd;stroke-width:1pt;fill-opacity:1;"
         id="polygon590"
         points="80.9552,2.32836 83.5843,8.19302 89.906,9.35198 85.1408,13.6647 85.9921,20.0351 80.4179,16.8358 74.6224,19.614 75.9425,13.324 71.5094,8.67062 77.8995,7.98247 80.9552,2.32836 "
         sodipodi:sides="7"
         sodipodi:r1="4.28571428571428571428571428571428571428571428571428"
         sodipodi:r2="1.90476190476190476190476190476190476190476190476190"
         sodipodi:arg1="-1.57079632679489661923132169163975144209858469968754"
         sodipodi:arg2="-1.12199737628206901373665835117125103007041764263396"
         sodipodi:cx="90"
         sodipodi:cy="50" />
      <polygon
         sodipodi:type="star"
         style="font-size:12;fill:#ffffff;fill-rule:evenodd;stroke-width:1pt;fill-opacity:1;"
         id="polygon592"
         points="80.9552,2.32836 83.5843,8.19302 89.906,9.35198 85.1408,13.6647 85.9921,20.0351 80.4179,16.8358 74.6224,19.614 75.9425,13.324 71.5094,8.67062 77.8995,7.98247 80.9552,2.32836 "
         sodipodi:sides="7"
         sodipodi:r1="4.28571428571428571428571428571428571428571428571428"
         sodipodi:r2="1.90476190476190476190476190476190476190476190476190"
         sodipodi:arg1="-1.57079632679489661923132169163975144209858469968754"
         sodipodi:arg2="-1.12199737628206901373665835117125103007041764263396"
         sodipodi:cy="10"
         sodipodi:cx="90" />
      <polygon
         sodipodi:type="star"
         style="font-size:12;fill:#ffffff;fill-rule:evenodd;stroke-width:1pt;fill-opacity:1;"
         id="polygon593"
         points="80.9552,2.32836 83.5843,8.19302 89.906,9.35198 85.1408,13.6647 85.9921,20.0351 80.4179,16.8358 74.6224,19.614 75.9425,13.324 71.5094,8.67062 77.8995,7.98247 80.9552,2.32836 "
         sodipodi:sides="7"
         sodipodi:r1="4.28571428571428571428571428571428571428571428571428"
         sodipodi:r2="1.90476190476190476190476190476190476190476190476190"
         sodipodi:arg1="-1.57079632679489661923132169163975144209858469968754"
         sodipodi:arg2="-1.12199737628206901373665835117125103007041764263396"
         sodipodi:cx="75"
         sodipodi:cy="26.25" />
      <polygon
         sodipodi:type="star"
         style="font-size:12;fill:#ffffff;fill-rule:evenodd;stroke-width:1pt;fill-opacity:1;"
         id="polygon594"
         points="80.9552,2.32836 83.5843,8.19302 89.906,9.35198 85.1408,13.6647 85.9921,20.0351 80.4179,16.8358 74.6224,19.614 75.9425,13.324 71.5094,8.67062 77.8995,7.98247 80.9552,2.32836 "
         sodipodi:sides="7"
         sodipodi:r1="4.28571428571428571428571428571428571428571428571428"
         sodipodi:r2="1.90476190476190476190476190476190476190476190476190"
         sodipodi:arg1="-1.57079632679489661923132169163975144209858469968754"
         sodipodi:arg2="-1.12199737628206901373665835117125103007041764263396"
         sodipodi:cx="103.33333333333333333333333333333333333333333333333332"
         sodipodi:cy="22.25" />
      <polygon
         sodipodi:type="star"
         style="font-size:12;fill:#ffffff;fill-rule:evenodd;stroke-width:1pt;fill-opacity:1;"
         id="polygon595"
         sodipodi:sides="5"
         points="98.1493,28.4776 100.149,32.5305 104.622,33.1804 101.386,36.3352 102.15,40.7897 98.1493,38.6866 94.1488,40.7897 94.9128,36.3352 91.6764,33.1804 96.149,32.5305 98.1493,28.4776 "
         sodipodi:r1="2.5"
         sodipodi:r2="1.11111111111"
         sodipodi:arg1="-1.57079632679489661923132169163975144209858469968754"
         sodipodi:arg2="-.94247779607693797153879301498385086525915081981253"
         sodipodi:cx="96"
         sodipodi:cy="32.5" />
    </g>
  </g>
</svg>
