<?xml version="1.0" encoding="UTF-8" standalone="no"?>
<!DOCTYPE svg PUBLIC "-//W3C//DTD SVG 20010904//EN"
"http://www.w3.org/TR/2001/REC-SVG-20010904/DTD/svg10.dtd"
[
 <!ATTLIST svg
  xmlns:xlink CDATA #FIXED "http://www.w3.org/1999/xlink">
]>
<!-- Created with Sodipodi ("http://www.sodipodi.com/") -->
<svg
   xmlns="http://www.w3.org/2000/svg"
   xmlns:xlink="http://www.w3.org/1999/xlink"
   version="1"
   x="0"
   y="0"
   width="744.102"
   height="744.094"
   id="svg1">
  <defs
     id="defs30">
    <linearGradient
       x1="0"
       y1="0"
       x2="1"
       y2="0"
       id="linearGradient25"
       gradientUnits="objectBoundingBox"
       spreadMethod="pad">
      <stop
         style="stop-color:#ffff00;stop-opacity:1;"
         offset="0"
         id="stop26" />
      <stop
         style="stop-color:#888800;stop-opacity:1;"
         offset="1"
         id="stop27" />
    </linearGradient>
    <linearGradient
       x1="0"
       y1="0"
       x2="1"
       y2="0"
       id="linearGradient20"
       gradientUnits="objectBoundingBox"
       spreadMethod="pad">
      <stop
         style="stop-color:#00ff00;stop-opacity:1;"
         offset="0"
         id="stop21" />
      <stop
         style="stop-color:#008800;stop-opacity:1;"
         offset="1"
         id="stop22" />
    </linearGradient>
    <linearGradient
       x1="0"
       y1="0"
       x2="1"
       y2="0"
       id="linearGradient18"
       gradientUnits="objectBoundingBox"
       spreadMethod="pad">
      <stop
         style="stop-color:#0000ff;stop-opacity:1;"
         offset="0"
         id="stop19" />
      <stop
         style="stop-color:#000088;stop-opacity:1;"
         offset="1"
         id="stop20" />
    </linearGradient>
    <linearGradient
       x1="0"
       y1="0"
       x2="1"
       y2="0"
       id="linearGradient13"
       gradientUnits="objectBoundingBox"
       spreadMethod="pad">
      <stop
         style="stop-color:#ff0000;stop-opacity:1;"
         offset="0"
         id="stop14" />
      <stop
         style="stop-color:#880000;stop-opacity:1;"
         offset="1"
         id="stop15" />
    </linearGradient>
    <linearGradient
       x1="0.639227"
       y1="0.671871"
       x2="0.194809"
       y2="0.554687"
       id="linearGradient16"
       xlink:href="#linearGradient13"
       gradientUnits="objectBoundingBox"
       spreadMethod="reflect" />
    <linearGradient
       x1="0.678453"
       y1="0.562485"
       x2="0.282857"
       y2="0.46875"
       id="linearGradient17"
       xlink:href="#linearGradient18"
       gradientUnits="objectBoundingBox"
       spreadMethod="reflect" />
    <linearGradient
       x1="0.450998"
       y1="0.585938"
       x2="0.152417"
       y2="0.507812"
       id="linearGradient19"
       xlink:href="#linearGradient20"
       gradientUnits="objectBoundingBox"
       spreadMethod="reflect" />
    <linearGradient
       x1="0.476092"
       y1="0.460937"
       x2="0.163697"
       y2="0.382812"
       id="linearGradient23"
       xlink:href="#linearGradient25"
       gradientUnits="objectBoundingBox"
       spreadMethod="reflect" />
  </defs>
  <g
     transform="translate(0.525818,35.884)"
     style="font-size:12;"
     id="g144">
    <path
       d="M 322.139 547.571 L 375.969 349.718 C 436.492 396.958 508.227 405.687 597.35 366.473 L 547.441 557.553 C 473.296 621.721 337.825 573.238 322.139 547.571 z "
       transform="matrix(1.24396,0,-0.0289595,1.26567,-79.1978,-89.3695)"
       style="fill:url(#linearGradient23);fill-rule:evenodd;stroke-width:1pt;stroke-linejoin:round;"
       id="path72" />
    <path
       d="M 322.139 547.571 L 375.969 349.718 C 436.492 396.958 508.227 405.687 597.35 366.473 L 547.441 557.553 C 473.296 621.721 337.825 573.238 322.139 547.571 z "
       transform="matrix(1.24396,0,-0.0289595,1.26567,-6.0221,-361.895)"
       style="fill:url(#linearGradient19);fill-rule:evenodd;stroke-width:1pt;stroke-linejoin:round;"
       id="path82" />
    <path
       d="M 322.139 547.571 L 375.969 349.718 C 436.492 396.958 508.227 405.687 597.35 366.473 L 547.441 557.553 C 473.296 621.721 337.825 573.238 322.139 547.571 z "
       transform="matrix(-1.24396,3.22478e-18,0.0289595,-1.26567,749.072,1034.22)"
       style="fill:url(#linearGradient17);fill-rule:evenodd;stroke-width:1pt;stroke-linejoin:round;"
       id="path83" />
    <path
       d="M 322.139 547.571 L 375.969 349.718 C 436.492 396.958 508.227 405.687 597.35 366.473 L 547.441 557.553 C 473.296 621.721 337.825 573.238 322.139 547.571 z "
       transform="matrix(-1.24396,3.22478e-18,0.0289595,-1.26567,820.473,761.696)"
       style="fill:url(#linearGradient16);fill-rule:evenodd;stroke-width:1pt;stroke-linejoin:round;"
       id="path84" />
  </g>
</svg>
