<?xml version="1.0" encoding="UTF-8" standalone="no"?>
<!DOCTYPE svg PUBLIC "-//W3C//DTD SVG 20010904//EN"
"http://www.w3.org/TR/2001/REC-SVG-20010904/DTD/svg10.dtd">
<!-- Created with Sodipodi ("http://www.sodipodi.com/") -->
<svg
   xml:space="preserve"
   width="21.59cm"
   height="27.94cm"
   shape-rendering="geometricPrecision"
   text-rendering="geometricPrecision"
   image-rendering="optimizeQuality"
   fill-rule="evenodd"
   viewBox="0 0 21590 27940"
   id="svg679"
   sodipodi:version="0.32"
   sodipodi:docname="/root/logo_manchegox.svg"
   sodipodi:docbase="/root/"
   xmlns="http://www.w3.org/2000/svg"
   xmlns:sodipodi="http://sodipodi.sourceforge.net/DTD/sodipodi-0.dtd"
   xmlns:xml="http://www.w3.org/XML/1998/namespace"
   xmlns:xlink="http://www.w3.org/1999/xlink">
  <defs
     id="defs809">
    <linearGradient
       id="linearGradient825">
      <stop
         style="stop-color:#b3526f;stop-opacity:1;"
         offset="0.000000"
         id="stop826" />
      <stop
         style="stop-color:#ffffff;stop-opacity:1;"
         offset="1.000000"
         id="stop827" />
    </linearGradient>
    <linearGradient
       id="linearGradient820">
      <stop
         style="stop-color:#b3526f;stop-opacity:1;"
         offset="0.000000"
         id="stop821" />
      <stop
         style="stop-color:#ffffff;stop-opacity:1;"
         offset="1.000000"
         id="stop822" />
    </linearGradient>
    <linearGradient
       xlink:href="#linearGradient825"
       id="linearGradient823" />
    <linearGradient
       xlink:href="#linearGradient825"
       id="linearGradient824" />
  </defs>
  <sodipodi:namedview
     id="base" />
  <path
     fill="#131516"
     d="M8679 13995c-27,-37 -57,-65 -91,-83 -33,-17 -71,-26 -114,-26 -67,0 -124,25 -172,74 -47,50 -71,109 -71,177 0,73 24,135 71,184 47,50 105,75 172,75 42,0 79,-8 113,-26 34,-17 63,-43 88,-78l70 0c-28,52 -65,91 -111,119 -46,28 -98,42 -156,42 -88,0 -162,-30 -221,-90 -59,-61 -89,-136 -89,-226 0,-43 8,-82 24,-120 16,-38 40,-72 70,-102 29,-29 61,-51 97,-66 36,-14 74,-22 116,-22 60,0 114,15 161,44 48,29 86,71 114,124l-71 0z"
     id="path681"
     transform="translate(636.6381,1254.609)"
     style="font-size:12;fill:#131516;" />
  <path
     fill="#131516"
     d="M8885 14441l-60 0 0 -455 56 0 0 53c14,-20 29,-35 46,-44 17,-10 37,-15 60,-15l0 63c-36,3 -63,14 -79,33 -15,19 -23,49 -23,91l0 274z"
     id="path682"
     transform="translate(636.6381,1254.609)"
     style="font-size:12;fill:#131516;" />
  <path
     fill="#131516"
     d="M9484 14232l-410 0c3,50 21,90 53,121 33,30 73,45 121,45 34,0 65,-9 92,-26 27,-18 49,-43 63,-74l67 0c-21,50 -51,89 -89,116 -38,27 -82,40 -131,40 -67,0 -123,-23 -168,-71 -46,-47 -69,-103 -69,-169 0,-70 23,-127 67,-172 45,-45 102,-68 172,-68 69,0 124,24 167,71 43,47 65,108 65,183l0 4zm-64 -49c-11,-51 -32,-89 -61,-115 -30,-26 -68,-39 -116,-39 -44,0 -81,14 -112,42 -30,28 -49,65 -56,112l345 0z"
     id="path683"
     transform="translate(636.6381,1254.609)"
     style="font-size:12;fill:#131516;" />
  <path
     fill="#131516"
     d="M9935 14211c0,-48 -17,-90 -51,-126 -35,-36 -75,-54 -120,-54 -48,0 -90,18 -124,54 -34,36 -52,80 -52,133 0,51 17,94 52,129 34,35 75,52 123,52 46,0 86,-18 121,-55 34,-37 51,-81 51,-133zm0 158c-18,27 -43,47 -74,62 -31,15 -64,22 -100,22 -67,0 -122,-23 -166,-68 -45,-46 -67,-102 -67,-169 0,-68 23,-125 68,-171 45,-46 102,-68 170,-68 35,0 67,7 96,21 30,14 54,35 73,61l0 -73 57 0 0 455 -57 0 0 -72z"
     id="path684"
     transform="translate(636.6381,1254.609)"
     style="font-size:12;fill:#131516;" />
  <path
     fill="#131516"
     d="M10468 14218c0,-51 -17,-96 -51,-132 -34,-37 -75,-55 -121,-55 -48,0 -89,17 -123,52 -34,35 -51,78 -51,128 0,53 17,98 51,134 34,36 76,54 125,54 45,0 84,-18 119,-54 34,-36 51,-78 51,-127zm-1 -160l0 -101 0 -118 58 0 0 602 -58 0 0 -68c-21,25 -46,45 -76,59 -31,14 -63,21 -97,21 -65,0 -120,-23 -165,-69 -45,-46 -68,-103 -68,-170 0,-67 22,-123 67,-169 44,-46 100,-68 166,-68 36,0 69,7 98,20 29,14 54,35 75,61z"
     id="path685"
     transform="translate(636.6381,1254.609)"
     style="font-size:12;fill:#131516;" />
  <path
     fill="#131516"
     d="M10654 14213c0,53 17,97 50,132 33,36 75,53 124,53 49,0 90,-17 123,-53 33,-35 50,-79 50,-132 0,-54 -17,-98 -51,-133 -33,-34 -75,-52 -127,-52 -46,0 -86,18 -119,54 -33,35 -50,79 -50,131zm-61 1c0,-66 23,-123 68,-171 46,-47 100,-71 163,-71 66,0 122,23 168,70 47,47 70,102 70,167 0,67 -23,125 -68,173 -46,48 -101,72 -166,72 -65,0 -121,-23 -167,-70 -45,-47 -68,-104 -68,-170z"
     id="path686"
     transform="translate(636.6381,1254.609)"
     style="font-size:12;fill:#131516;" />
  <path
     fill="#131516"
     d="M11368 13986l57 0 0 75c17,-26 41,-46 71,-61 31,-16 64,-23 98,-23 69,0 126,22 171,68 45,46 68,103 68,171 0,67 -23,123 -67,169 -45,45 -100,68 -167,68 -37,0 -70,-7 -100,-21 -29,-15 -54,-35 -74,-63l0 32 0 68 0 119 -57 0 0 -602zm57 225c0,52 17,96 52,133 34,37 74,55 120,55 48,0 89,-17 123,-52 34,-35 51,-78 51,-129 0,-53 -17,-97 -51,-133 -34,-36 -76,-54 -125,-54 -45,0 -84,18 -118,54 -35,36 -52,78 -52,126z"
     id="path687"
     transform="translate(636.6381,1254.609)"
     style="font-size:12;fill:#131516;" />
  <path
     fill="#131516"
     d="M11939 14213c0,53 17,97 50,132 34,36 75,53 125,53 48,0 89,-17 122,-53 33,-35 50,-79 50,-132 0,-54 -17,-98 -50,-133 -34,-34 -76,-52 -128,-52 -46,0 -86,18 -119,54 -33,35 -50,79 -50,131zm-61 1c0,-66 23,-123 69,-171 45,-47 100,-71 162,-71 66,0 122,23 169,70 46,47 69,102 69,167 0,67 -23,125 -68,173 -46,48 -101,72 -165,72 -66,0 -122,-23 -168,-70 -45,-47 -68,-104 -68,-170z"
     id="path688"
     transform="translate(636.6381,1254.609)"
     style="font-size:12;fill:#131516;" />
  <path
     fill="#131516"
     d="M12474 14441l-59 0 0 -455 55 0 0 53c14,-20 30,-35 47,-44 17,-10 37,-15 59,-15l1 63c-37,3 -63,14 -79,33 -16,19 -24,49 -24,91l0 274z"
     id="path689"
     transform="translate(636.6381,1254.609)"
     style="font-size:12;fill:#131516;" />
  <path
     fill="#131516"
     d="M12926 13933l-59 0 0 -94 59 0 0 94zm0 53l0 457c0,55 -8,93 -23,114 -16,20 -42,31 -79,31l-13 0 0 -55c22,0 37,-4 45,-12 8,-8 11,-31 11,-69l0 -466 59 0z"
     id="path690"
     transform="translate(636.6381,1254.609)"
     style="font-size:12;fill:#131516;" />
  <path
     fill="#131516"
     d="M13079 13933l-58 0 0 -94 58 0 0 94zm-58 508l0 -455 58 0 0 455 -58 0z"
     id="path691"
     transform="translate(636.6381,1254.609)"
     style="font-size:12;fill:#131516;" />
  <path
     fill="#131516"
     d="M13251 14478c9,27 25,48 48,62 23,15 51,23 84,23 52,0 94,-18 125,-52 31,-35 47,-81 47,-138l0 -12c-22,30 -47,52 -75,68 -29,15 -59,23 -93,23 -69,0 -126,-23 -171,-69 -45,-45 -68,-102 -68,-170 0,-67 23,-123 67,-169 45,-46 100,-68 166,-68 39,0 72,7 100,20 28,14 52,36 74,65l0 -75 57 0 0 380c0,79 -20,141 -60,186 -40,45 -95,67 -165,67 -51,0 -95,-13 -132,-38 -37,-26 -61,-60 -72,-103l68 0zm-41 -268c0,53 17,98 51,134 34,35 75,53 122,53 45,0 85,-18 119,-53 35,-36 52,-79 52,-127 0,-52 -17,-96 -51,-133 -34,-37 -74,-55 -120,-55 -47,0 -88,18 -122,52 -34,35 -51,78 -51,129z"
     id="path692"
     transform="translate(636.6381,1254.609)"
     style="font-size:12;fill:#131516;" />
  <path
     fill="#131516"
     d="M14087 14211c0,-48 -18,-90 -52,-126 -35,-36 -74,-54 -119,-54 -49,0 -90,18 -125,54 -34,36 -51,80 -51,133 0,51 17,94 51,129 34,35 75,52 123,52 46,0 87,-18 121,-55 34,-37 52,-81 52,-133zm0 158c-19,27 -43,47 -74,62 -31,15 -65,22 -101,22 -66,0 -122,-23 -166,-68 -45,-46 -67,-102 -67,-169 0,-68 23,-125 68,-171 46,-46 102,-68 171,-68 35,0 67,7 96,21 29,14 53,35 73,61l0 -73 57 0 0 455 -57 0 0 -72z"
     id="path693"
     transform="translate(636.6381,1254.609)"
     style="font-size:12;fill:#131516;" />
  <path
     fill="#131516"
     d="M14294 14441l-59 0 0 -455 55 0 0 53c14,-20 30,-35 47,-44 17,-10 37,-15 59,-15l1 63c-37,3 -63,14 -79,33 -16,19 -24,49 -24,91l0 274z"
     id="path694"
     transform="translate(636.6381,1254.609)"
     style="font-size:12;fill:#131516;" />
  <path
     fill="#FFFEFE"
     d="M15288 12032l-277 1416c0,0 -41,435 59,855 102,427 511,686 819,725 239,30 320,-10 771,-611 12,-15 143,-340 151,-369 513,-1895 -991,-371 -566,-244 451,134 -1202,24 -862,-696 340,-720 -95,-1076 -95,-1076z"
     id="path695"
     transform="translate(636.6381,1254.609)"
     style="font-size:12;fill:#fffefe;" />
  <path
     fill="#5C83BB"
     d="M10059 5274c238,-139 470,-186 517,-105 47,80 -110,258 -348,397 -238,138 -471,185 -517,105 -47,-81 109,-259 348,-397z"
     id="path696"
     transform="translate(636.6381,1254.609)"
     style="font-size:12;fill:#5c83bb;" />
  <path
     fill="#5C83BB"
     d="M9697 5288c-7,179 113,286 275,337 163,51 386,-111 442,-304 55,-193 20,-325 -71,-425 115,-53 331,-125 490,-148 577,-97 1097,61 1300,447 1,3 2,5 2,5 137,265 101,589 -67,900 -172,316 -479,617 -882,829 -5,3 -10,6 -14,8 0,-1 0,-1 -1,0 0,0 0,0 1,0 0,0 0,0 0,0 0,0 0,0 0,0 -1,0 -1,0 -1,0l0 0c0,0 0,0 0,0l0 0c0,0 0,0 0,0l0 0c0,0 -1,0 -1,0l0 1c-115,59 -231,108 -347,147 -116,39 -232,68 -345,87 -578,96 -1097,-62 -1300,-448 -2,-3 -2,-4 -3,-4 -137,-265 -101,-590 68,-901 125,-230 247,-368 454,-531z"
     id="path697"
     transform="translate(636.6381,1254.609)"
     style="font-size:12;fill:#5c83bb;" />
  <path
     fill="#719ACD"
     d="M9719 5221c-6,172 80,326 220,370 172,54 371,-108 424,-293 54,-186 20,-312 -68,-408 112,-52 319,-121 472,-143 556,-93 1055,59 1250,430 2,3 3,4 3,5 132,254 97,567 -65,866 -165,304 -461,593 -848,797 -6,3 -10,6 -14,8 0,-1 0,-1 -1,0 0,0 1,0 1,0 0,0 0,0 0,0 0,0 0,0 0,0 -1,0 -1,0 -1,0l0 0c0,0 0,0 0,0l0 0c0,0 0,0 0,0l0 0c0,0 0,0 0,0l-1 0c-110,58 -222,105 -334,142 -111,38 -223,65 -332,84 -556,93 -1055,-60 -1251,-431 -1,-3 -2,-3 -2,-4 -132,-255 -97,-567 65,-866 120,-222 283,-400 482,-557z"
     id="path698"
     transform="translate(636.6381,1254.609)"
     style="font-size:12;fill:#719acd;" />
  <path
     fill="#719ACD"
     d="M12374 9105c929,-441 1917,-20 2201,937 283,956 -243,2096 -1172,2537 -929,441 -1917,20 -2200,-937 -284,-956 243,-2096 1171,-2537z"
     id="path699"
     transform="translate(636.6381,1254.609)"
     style="font-size:12;fill:#719acd;" />
  <path
     fill="#5C83BB"
     d="M12411 9285c838,-398 1730,-18 1985,845 256,864 -219,1892 -1057,2290 -838,397 -1730,18 -1986,-845 -255,-864 220,-1892 1058,-2290z"
     id="path700"
     transform="translate(636.6381,1254.609)"
     style="font-size:12;fill:#5c83bb;" />
  <path
     fill="#FFFEFE"
     d="M12152 11221l-334 1608 -768 296 -1207 -284 -718 -1455 76 -1357 586 -1702 274 -678 1464 25 76 579 510 1123 340 1220 -299 625z"
     id="path701"
     transform="translate(636.6381,1254.609)"
     style="font-size:12;fill:#fffefe;" />
  <path
     fill="#C5C6C7"
     d="M9128 11979c165,-19 295,-180 307,-499 -38,-847 -76,-1724 373,-2290 70,-705 319,-963 436,-1416l185 -172 -221 -452 -95 4 -922 2434 -193 1227 130 1164z"
     id="path702"
     transform="translate(636.6381,1254.609)"
     style="font-size:12;fill:#c5c6c7;" />
  <path
     fill="#C5C6C7"
     d="M11499 8444c167,356 178,700 -207,760 212,57 523,282 789,662l-6 -772 -317 -607 -259 -43z"
     id="path703"
     transform="translate(636.6381,1254.609)"
     style="font-size:12;fill:#c5c6c7;" />
  <path
     fill="#C5C6C7"
     d="M12849 12120c5,126 -78,1000 -301,1260 -258,178 -329,196 -565,14 -102,-312 -502,-291 -762,-251 -322,-25 -532,487 -624,653l-69 193c6,490 -796,549 -1000,141 -118,-492 -1018,-1077 -744,-1273l813 -909c392,1237 2139,1529 2342,545l910 -373z"
     id="path704"
     transform="translate(636.6381,1254.609)"
     style="font-size:12;fill:#c5c6c7;" />
  <path
     fill="#C5C6C7"
     d="M10424 11830c148,-1 299,62 287,315l-50 772 -448 -223 211 -864z"
     id="path705"
     transform="translate(636.6381,1254.609)"
     style="font-size:12;fill:#c5c6c7;" />
  <path
     fill="#4A4F53"
     d="M9073 9171c-370,570 -475,1824 -160,2294 340,250 836,-152 608,-308 -7,-862 -44,-1265 310,-1899 70,-731 273,-999 391,-1467l390 -378 818 141c33,267 52,527 24,779 193,351 340,705 357,1069 146,521 294,951 234,1979 359,245 522,157 643,115 23,-426 346,-249 457,-103 72,69 99,113 176,58 436,-316 41,-737 -111,-845 -249,-153 -314,310 -644,116 -29,-384 -194,-1161 -359,-1454 -145,-290 -268,-573 -421,-862 -81,-190 -130,-329 -117,-549l34 -1334c-6,-886 -337,-1101 -894,-1069 -614,83 -1167,566 -1196,1212 -53,501 58,788 -241,1503 -304,754 -207,730 -299,1002z"
     id="path706"
     transform="translate(636.6381,1254.609)"
     style="font-size:12;fill:#4a4f53;" />
  <path
     fill="#64696D"
     d="M9066 9090c-362,557 -465,1784 -157,2243 332,245 818,-148 595,-301 -7,-842 -59,-1238 287,-1858 69,-714 283,-976 398,-1434l382 -370 800 138c32,261 51,515 23,762 190,343 333,690 349,1045 143,510 288,931 230,1937 350,239 510,153 629,112 169,-135 337,-244 446,-101 71,68 132,231 211,173 425,-313 60,-714 -89,-819 -244,-150 -365,180 -688,-10 -28,-376 -221,-1120 -382,-1407 -142,-283 -254,-568 -404,-851 -79,-186 -104,-329 -92,-545l34 -1304c-6,-867 -330,-1077 -875,-1046 -600,81 -1141,554 -1169,1186 -52,489 56,770 -236,1470 -297,738 -203,714 -292,980z"
     id="path707"
     transform="translate(636.6381,1254.609)"
     style="font-size:12;fill:#64696d;" />
  <path
     fill="#C5C6C7"
     d="M9931 8556l-26 131c67,-161 187,-230 288,-352 54,-48 94,-175 118,-144 436,141 752,690 1089,644 67,-6 171,-28 151,-73 -54,-124 -187,-359 -155,-509 23,-143 17,-316 3,-436l-1232 -27c26,147 -142,512 -236,766z"
     id="path708"
     transform="translate(636.6381,1254.609)"
     style="font-size:12;fill:#c5c6c7;" />
  <path
     fill="#C5C6C7"
     d="M11308 6410c-128,0 -243,208 -242,495 1,192 97,242 170,327 32,38 39,246 79,246 127,0 223,-296 223,-573 0,-276 -102,-495 -230,-495z"
     id="path709"
     transform="translate(636.6381,1254.609)"
     style="font-size:12;fill:#c5c6c7;" />
  <path
     fill="#FFFEFE"
     d="M11294 6590c-114,0 -193,75 -202,249 -7,120 17,312 81,353 30,19 132,187 167,185 145,-9 181,-373 170,-547 -10,-174 -103,-240 -216,-240z"
     id="path710"
     transform="translate(636.6381,1254.609)"
     style="font-size:12;fill:#fffefe;" />
  <path
     fill="#131516"
     d="M11323 6707c-78,-9 -150,108 -161,259 -10,152 47,284 125,293 79,9 151,-108 161,-261 10,-151 -46,-282 -125,-291z"
     id="path711"
     transform="translate(636.6381,1254.609)"
     style="font-size:12;fill:#131516;" />
  <path
     fill="#C5C6C7"
     d="M11216 6930c-5,28 19,42 26,14 6,-34 22,-74 44,-107 13,-20 0,-42 -17,-27 -30,32 -47,72 -53,120z"
     id="path712"
     transform="translate(636.6381,1254.609)"
     style="font-size:12;fill:#c5c6c7;" />
  <path
     fill="#C5C6C7"
     d="M10444 6371c-185,0 -336,255 -336,567 0,312 151,567 336,567 185,0 334,-255 334,-567 0,-312 -149,-567 -334,-567z"
     id="path713"
     transform="translate(636.6381,1254.609)"
     style="font-size:12;fill:#c5c6c7;" />
  <path
     fill="#FFFEFE"
     d="M10352 6589c-127,59 -201,190 -210,330 -11,161 39,342 146,449 30,30 381,-151 401,-219 31,-98 49,-286 26,-397 -9,-44 -40,-108 -86,-142 -74,-54 -182,-65 -277,-21z"
     id="path714"
     transform="translate(636.6381,1254.609)"
     style="font-size:12;fill:#fffefe;" />
  <path
     fill="#131516"
     d="M10445 6680c-102,0 -186,128 -186,283 0,156 84,284 186,284 102,0 185,-128 185,-284 0,-155 -83,-283 -185,-283z"
     id="path715"
     transform="translate(636.6381,1254.609)"
     style="font-size:12;fill:#131516;" />
  <path
     fill="#64696D"
     d="M11782 12527c0,0 194,-1216 196,-1337 3,-122 164,62 164,62 0,0 34,823 -228,1239 -261,416 -132,36 -132,36z"
     id="path716"
     transform="translate(636.6381,1254.609)"
     style="font-size:12;fill:#64696d;" />
  <path
     fill="#C5C6C7"
     d="M10325 6855c-12,26 8,52 22,27 17,-31 45,-64 74,-87 20,-13 13,-43 -9,-34 -38,16 -67,48 -87,94z"
     id="path717"
     transform="translate(636.6381,1254.609)"
     style="font-size:12;fill:#c5c6c7;" />
  <path
     fill="#BA7529"
     d="M11053 7040c-87,-33 -225,-22 -320,2 -95,33 -349,208 -618,399 -34,23 -45,98 0,122 69,7 -50,229 72,308 182,62 474,415 618,444 80,23 163,26 252,0 282,-75 356,-493 488,-578 36,-50 18,-135 6,-153 -14,-89 -319,-517 -498,-544z"
     id="path718"
     transform="translate(636.6381,1254.609)"
     style="font-size:12;fill:#ba7529;" />
  <path
     fill="#EFB717"
     d="M10813 7061c-152,22 -476,276 -632,379 -39,27 -36,110 -2,123 37,28 48,-7 78,-12 47,-33 125,46 186,107 355,350 426,311 713,272 99,-32 164,-72 193,-103 -21,-154 -244,-738 -317,-752 -19,-31 -155,-33 -219,-14z"
     id="path719"
     transform="translate(636.6381,1254.609)"
     style="font-size:12;fill:#efb717;" />
  <path
     fill="#BA7529"
     d="M10752 7156l-37 21c-26,20 6,72 36,56l53 -24c31,-34 -6,-83 -52,-53z"
     id="path720"
     transform="translate(636.6381,1254.609)"
     style="font-size:12;fill:#ba7529;" />
  <path
     fill="#BA7529"
     d="M9336 9175c-294,290 -464,863 -466,1674 2,38 -29,62 -31,26 -1,-860 160,-1440 462,-1750 15,-13 50,36 35,50z"
     id="path721"
     transform="translate(636.6381,1254.609)"
     style="font-size:12;fill:#ba7529;" />
  <path
     fill="#C5C6C7"
     d="M9707 9828c1,35 11,41 34,8 78,-176 601,-549 856,-591 48,-22 45,-51 -2,-60 -184,0 -325,-105 -485,-105 -44,2 -86,24 -111,57 -60,51 -277,442 -292,691z"
     id="path723"
     transform="translate(636.6381,1254.609)"
     style="font-size:12;fill:#c5c6c7;" />
  <path
     fill="#719ACD"
     d="M12869 10475l235 43 -157 861 -235 -43 157 -861z"
     id="path724"
     transform="translate(636.6381,1254.609)"
     style="font-size:12;fill:#719acd;" />
  <path
     fill="#5C83BB"
     d="M12887 10578l168 31 -112 615 -168 -30 112 -616z"
     id="path725"
     transform="translate(636.6381,1254.609)"
     style="font-size:12;fill:#5c83bb;" />
  <path
     fill="#C5C6C7"
     d="M10763 9216c-8,61 192,-17 181,151 -3,46 50,72 48,0 0,-129 -5,-127 93,-151 17,-1 16,-35 0,-31l0 0c-70,26 -165,-29 -160,-91 1,-21 -26,-18 -25,0 6,98 -154,51 -137,122z"
     id="path726"
     transform="translate(636.6381,1254.609)"
     style="font-size:12;fill:#c5c6c7;" />
  <path
     fill="#C5C6C7"
     d="M11098 11640c-1,45 33,35 36,3 97,-383 56,-1326 -39,-1630 -7,-44 -52,-31 -46,0 102,558 100,1133 49,1627z"
     id="path727"
     transform="translate(636.6381,1254.609)"
     style="font-size:12;fill:#c5c6c7;" />
  <path
     fill="#131516"
     d="M16023 9143c0,0 238,135 203,692 -34,555 -255,132 -169,0 0,0 84,-512 -34,-692 0,0 -324,0 -172,603l172 -603z"
     id="path728"
     transform="translate(636.6381,1254.609)"
     style="font-size:12;fill:#131516;" />
  <path
     fill="#131516"
     d="M17078 8989c0,0 427,45 223,869 0,0 -223,-45 -206,-67 297,-391 -17,-802 -17,-802 -204,177 -204,802 -204,802l204 -802z"
     id="path729"
     transform="translate(636.6381,1254.609)"
     style="font-size:12;fill:#131516;" />
  <path
     fill="#C5C6C7"
     d="M8711 15687c0,0 -180,570 -267,745 -88,175 -247,660 -158,1361 89,701 233,851 162,1093 -69,241 -130,-10 170,-32 300,-23 146,50 210,8 69,-46 388,374 265,-42 -123,-418 -228,-216 -246,-588 -18,-373 -106,-1067 51,-1175 161,-110 518,-760 482,-791l-669 -579z"
     id="path730"
     transform="translate(636.6381,1254.609)"
     style="font-size:12;fill:#c5c6c7;" />
  <path
     fill="#C5C6C7"
     d="M16051 9143c0,0 270,135 231,692 -39,555 -289,132 -192,0 0,0 94,-512 -39,-692 0,0 -367,0 -195,603l195 -603z"
     id="path731"
     transform="translate(636.6381,1254.609)"
     style="font-size:12;fill:#c5c6c7;" />
  <path
     fill="#FFFEFE"
     d="M16005 9123l-193 763c0,0 201,15 217,15 16,0 304,-422 -24,-778z"
     id="path732"
     transform="translate(636.6381,1254.609)"
     style="font-size:12;fill:#fffefe;" />
  <path
     fill="#C5C6C7"
     d="M17099 8989c0,0 469,65 243,889 0,0 -242,-65 -224,-87 329,-391 -19,-802 -19,-802 -225,177 -225,802 -225,802l225 -802z"
     id="path733"
     transform="translate(636.6381,1254.609)"
     style="font-size:12;fill:#c5c6c7;" />
  <path
     fill="#EBEBED"
     stroke="#131516"
     stroke-width="8"
     d="M8695 15687c0,0 -173,578 -257,756 -85,178 -238,670 -152,1381 85,711 169,955 103,1202 -69,243 -241,756 49,733 289,-22 768,-89 836,-112 67,-22 153,68 35,-355 -120,-423 -496,-645 -513,-1023 -17,-378 -118,-1114 34,-1224 155,-111 535,-749 512,-771l-647 -587z"
     id="path734"
     transform="translate(636.6381,1254.609)"
     style="font-size:12;fill:#ebebed;stroke:#131516;stroke-width:8;" />
  <path
     fill="#EBEBED"
     stroke="#131516"
     stroke-width="18"
     stroke-linecap="round"
     stroke-linejoin="round"
     d="M16023 9143c0,0 238,135 203,692 -34,555 -255,132 -169,0 0,0 84,-512 -34,-692 0,0 -324,0 -172,603l172 -603z"
     id="path735"
     transform="translate(636.6381,1254.609)"
     style="font-size:12;fill:#ebebed;stroke:#131516;stroke-width:18;stroke-linecap:round;stroke-linejoin:round;" />
  <path
     fill="#FFFEFE"
     d="M17076 9009l-194 762c0,0 201,16 217,16 16,0 304,-423 -23,-778z"
     id="path736"
     transform="translate(636.6381,1254.609)"
     style="font-size:12;fill:#fffefe;" />
  <path
     fill="#EBEBED"
     stroke="#131516"
     stroke-width="18"
     stroke-linecap="round"
     d="M17078 8989c0,0 427,45 223,869 0,0 -223,-45 -206,-67 297,-391 -17,-802 -17,-802 -204,177 -204,802 -204,802l204 -802z"
     id="path737"
     transform="translate(636.6381,1254.609)"
     style="font-size:12;fill:#ebebed;stroke:#131516;stroke-width:18;stroke-linecap:round;" />
  <path
     fill="#4A4F53"
     d="M8337 12783c0,0 -235,396 -536,132 -301,-263 -501,-482 -652,-1168 -150,-684 -833,-1237 -1498,-869 -666,371 -1319,759 -1664,74 -343,-682 -303,-597 -303,-597 0,0 -245,317 116,904 361,588 779,1163 1355,973 578,-191 410,-155 410,-155 0,0 -598,435 -789,344 -193,-84 -165,-76 -165,-76 0,0 101,409 557,503 458,92 658,-25 815,-225 158,-201 216,-272 301,-276 82,-3 82,-3 82,-3 0,0 -198,145 -203,406 -8,259 -25,357 -179,412 -156,56 -172,-7 -172,-7 0,0 244,229 420,137 111,-58 164,-76 210,-187 58,-138 46,-1102 273,-703 228,402 236,596 568,751 330,157 727,493 1185,46 459,-444 -131,-416 -131,-416z"
     id="path738"
     transform="translate(636.6381,1254.609)"
     style="font-size:12;fill:#4a4f53;" />
  <path
     fill="#64696D"
     d="M8193 12709c0,0 -320,399 -612,143 -292,-255 -393,-482 -540,-1148 -145,-663 -808,-1199 -1452,-842 -647,359 -1280,736 -1614,72 -332,-662 -293,-579 -293,-579 0,0 -238,307 112,877 350,569 755,1126 1314,943 560,-186 397,-151 397,-151 0,0 -580,422 -765,334 -187,-82 -159,-74 -159,-74 0,0 97,397 539,488 444,89 638,-24 791,-219 153,-194 209,-263 291,-267 80,-2 80,-2 80,-2 0,0 -193,140 -197,392 -8,252 -24,347 -174,400 -151,55 -151,55 -151,55 0,0 221,160 392,71 108,-56 158,-73 204,-181 56,-134 44,-1069 264,-682 221,390 229,578 550,729 320,152 706,478 1149,44 446,-430 -126,-403 -126,-403z"
     id="path739"
     transform="translate(636.6381,1254.609)"
     style="font-size:12;fill:#64696d;" />
  <path
     fill="#BA7529"
     d="M11595 11938c68,375 353,616 438,1029 158,569 753,419 701,-46 97,-461 81,-752 222,-993 36,-167 198,-473 35,-604 -99,-9 -310,148 -582,-204 -143,-126 -238,47 -249,73l-30 106c-27,92 67,526 -359,330 -141,5 -214,137 -176,309z"
     id="path740"
     transform="translate(636.6381,1254.609)"
     style="font-size:12;fill:#ba7529;" />
  <path
     fill="#70646E"
     d="M7072 19262c0,0 -354,485 -371,714 -18,233 -36,303 229,279 267,-23 1043,-392 1114,-438 72,-47 122,-691 18,-924 -107,-229 -990,369 -990,369z"
     id="path741"
     transform="translate(636.6381,1254.609)"
     style="font-size:12;fill:#70646e;" />
  <path
     fill="#71656E"
     d="M7059 19247c0,0 -342,468 -359,689 -17,224 -34,291 221,269 258,-23 1006,-378 1075,-423 69,-45 118,-667 17,-891 -103,-221 -954,356 -954,356z"
     id="path742"
     transform="translate(636.6381,1254.609)"
     style="font-size:12;fill:#71656e;" />
  <path
     fill="#EFB717"
     d="M11793 11625c-152,-92 -262,78 -220,254 101,327 230,646 402,963 213,473 647,406 708,-105 5,-267 188,-814 271,-1117 69,-196 -8,-268 -88,-222 -123,56 -323,-36 -449,-218 -64,-148 -251,-33 -262,129 0,156 -247,392 -362,316z"
     id="path743"
     transform="translate(636.6381,1254.609)"
     style="font-size:12;fill:#efb717;" />
  <path
     fill="#70646E"
     d="M10612 19994c0,0 -416,239 -416,382 0,140 -91,236 89,260 183,23 1163,47 1163,47 0,0 400,-191 217,-570 -181,-378 -254,-709 -254,-709l-799 590z"
     id="path744"
     transform="translate(636.6381,1254.609)"
     style="font-size:12;fill:#70646e;" />
  <path
     fill="#71656E"
     d="M10585 19958c0,0 -390,224 -390,359 0,131 -86,221 83,244 172,22 1092,44 1092,44 0,0 376,-179 204,-535 -170,-355 -238,-666 -238,-666l-751 554z"
     id="path745"
     transform="translate(636.6381,1254.609)"
     style="font-size:12;fill:#71656e;" />
  <path
     fill="#70646E"
     d="M13073 19587c0,0 -90,242 -146,388 -55,141 -129,287 -55,408 74,117 0,117 275,142 276,24 681,0 681,0 0,0 130,-25 56,-263 -75,-242 -332,-817 -332,-817 0,0 -92,-674 -479,142z"
     id="path746"
     transform="translate(636.6381,1254.609)"
     style="font-size:12;fill:#70646e;" />
  <path
     fill="#71656E"
     d="M13056 19558c0,0 -83,224 -135,358 -52,132 -120,266 -52,379 69,109 0,109 256,131 255,22 630,0 630,0 0,0 121,-22 52,-244 -69,-224 -307,-756 -307,-756 0,0 -86,-625 -444,132z"
     id="path747"
     transform="translate(636.6381,1254.609)"
     style="font-size:12;fill:#71656e;" />
  <path
     fill="#C5C6C7"
     d="M13198 15709c0,0 13,177 -5,473 -18,297 -62,915 8,1074 71,161 194,138 211,365 18,231 -41,399 -25,676 17,273 234,1366 286,1480 52,116 -247,-221 -247,-221l76 248 -147 -363 12 259 -151 -213 -198 320c0,0 23,-70 -11,-389 -34,-320 -248,-1075 -248,-1075 0,0 -134,-181 -139,-323 -17,-389 71,-343 71,-524 0,-185 -71,-1306 -265,-1444 -192,-135 772,-343 772,-343z"
     id="path748"
     transform="translate(636.6381,1254.609)"
     style="font-size:12;fill:#c5c6c7;" />
  <path
     fill="#EBEBED"
     stroke="#131516"
     stroke-width="8"
     d="M13176 15709c0,0 -34,180 -51,468 -18,288 -69,936 0,1089 68,157 203,157 221,379 17,224 -50,310 -32,580 14,265 289,1422 338,1534 52,113 -255,-310 -255,-310l103 355 -172 -468 35 356 -170 -311 -171 423c0,0 0,-179 -32,-490 -35,-311 -241,-1045 -241,-1045 0,0 -130,-176 -135,-314 -17,-378 69,-333 69,-509 0,-180 -69,-1269 -258,-1404 -186,-131 751,-333 751,-333z"
     id="path749"
     transform="translate(636.6381,1254.609)"
     style="font-size:12;fill:#ebebed;stroke:#131516;stroke-width:8;" />
  <path
     fill="#C5C6C7"
     d="M15372 12037c0,0 -286,998 -356,1361 -69,359 -86,1211 113,1495 169,241 280,252 487,284 0,0 -950,-171 -975,-377 -105,-863 197,165 -251,233 0,0 -183,195 -385,256 -156,47 -502,215 -655,215 -157,0 160,-75 164,-16 0,0 -802,1136 -1268,622 0,0 121,113 191,113 67,0 -35,91 -87,224 -52,136 -449,1082 -432,1192 17,113 87,136 52,317 -35,179 -136,247 -188,383 -53,133 -242,1102 -293,1260 -51,156 -506,434 -506,434l91 -74 -245 101 35 -84 -408 102c0,0 394,-257 497,-414 103,-157 449,-1325 449,-1325 0,0 -156,-272 -70,-428 87,-159 156,-250 206,-360 52,-113 296,-1296 296,-1232 0,0 -588,209 -812,285 -218,74 -717,56 -974,-24 -265,-82 -1246,-371 -1403,-739 0,0 351,-173 197,-1404 0,0 231,811 -197,1404 -292,404 -425,186 -425,322 0,136 -21,313 49,471 69,156 185,230 115,590 -69,360 -256,1608 -307,1925 -51,314 -121,68 -121,68l-205 136 16 -159c0,0 -283,58 -335,171 -53,114 7,-129 7,-129 0,0 -259,132 -319,286 -24,61 -106,-57 -111,-62l-71 -69c0,0 311,-513 501,-579 189,-66 499,-1465 499,-1465 0,0 -774,-1056 -791,-2093 0,0 -367,-1681 670,-2446 862,-636 2068,-455 2240,-207 173,248 484,810 1104,742 621,-68 1586,-114 2618,-1034 1035,-923 2136,-2274 2136,-2274 0,0 380,-178 536,90 154,269 603,629 603,629l-87 450c0,0 -251,1065 193,1811 2,3 -29,-30 59,-71 40,-19 100,-25 267,66 319,176 -46,590 -46,590l26 -11c0,0 53,69 -67,295 -120,225 -540,410 -1041,251 -499,-159 -1418,-297 -986,-2098z"
     id="path750"
     transform="translate(636.6381,1254.609)"
     style="font-size:12;fill:#c5c6c7;" />
  <path
     fill="#EBEBED"
     stroke="#131516"
     stroke-width="8"
     d="M15358 12014c0,0 -221,1112 -290,1471 -68,356 -226,1073 -29,1354 167,238 403,249 608,281 0,0 -1004,-224 -1028,-428 -104,-853 133,218 -311,286 0,0 -181,192 -381,253 -154,46 -496,212 -648,212 -154,0 221,0 221,0 0,0 -851,1112 -1313,599 0,0 120,112 189,112 66,0 -34,90 -86,222 -51,134 -444,1070 -427,1179 18,112 86,134 52,314 -34,176 -135,243 -187,378 -51,131 -240,1089 -289,1246 -52,154 -462,555 -462,555l52 -199 -204 221 67 -176 -459 199c0,0 375,-378 476,-535 103,-154 444,-1311 444,-1311 0,0 -155,-269 -69,-423 86,-157 154,-247 204,-356 51,-112 292,-1282 292,-1218 0,0 -582,207 -803,281 -215,74 -709,55 -963,-23 -262,-81 -1233,-367 -1387,-732 0,0 339,-163 186,-1380 0,0 237,794 -186,1380 -289,401 -445,177 -445,311 0,135 -51,356 18,513 68,154 206,243 137,599 -69,356 -223,1535 -272,1849 -52,311 -121,67 -121,67l-186 221 0 -243c0,0 -272,131 -324,243 -52,113 0,-201 0,-201 0,0 -272,157 -324,314 -51,153 -86,-23 -86,-23l-86 -45c0,0 307,-602 496,-666 186,-68 493,-1449 493,-1449 0,0 -765,-1044 -783,-2070 0,0 -363,-1662 663,-2419 853,-629 2045,-450 2216,-205 170,245 478,801 1092,734 613,-68 1568,-112 2589,-1022 1023,-914 2113,-2250 2113,-2250 0,0 375,-176 530,90 152,266 596,621 596,621l-86 446c0,0 -155,1134 238,1916 0,0 -86,176 -118,288 -34,113 118,-557 425,-355 307,198 -101,532 -101,532l49 -23c0,0 52,68 -66,292 -120,221 -596,468 -1092,311 -493,-157 -1261,-356 -834,-2138z"
     id="path751"
     transform="translate(636.6381,1254.609)"
     style="font-size:12;fill:#ebebed;stroke:#131516;stroke-width:8;" />
  <path
     fill="#313638"
     stroke="#131516"
     stroke-width="18"
     d="M15851 13508c47,32 113,-7 150,-87 36,-83 29,-179 -15,-215 -47,-35 -113,4 -152,87 -37,83 -30,179 17,215z"
     id="path752"
     transform="translate(636.6381,1254.609)"
     style="font-size:12;fill:#313638;stroke:#131516;stroke-width:18;" />
  <path
     fill="#131516"
     stroke="#131516"
     stroke-width="18"
     d="M17201 13508c36,44 110,28 159,-42 49,-71 59,-167 20,-215 -40,-45 -111,-29 -162,42 -49,70 -57,167 -17,215z"
     id="path753"
     transform="translate(636.6381,1254.609)"
     style="font-size:12;fill:#131516;stroke:#131516;stroke-width:18;" />
  <path
     fill="#C5C6C7"
     d="M15370 12014c0,0 -456,2242 -456,2446 0,207 85,709 700,768 613,60 964,-43 1069,-265 139,-295 86,-786 78,-771 0,0 -43,245 -149,406 -106,161 -244,319 -542,342 -297,23 -582,-38 -703,-173 -98,-108 -627,-376 3,-2753z"
     id="path754"
     transform="translate(636.6381,1254.609)"
     style="font-size:12;fill:#c5c6c7;" />
  <path
     fill="none"
     stroke="#131516"
     stroke-width="8"
     d="M15647 11970c0,0 -103,-846 -510,-87"
     id="path755"
     transform="translate(636.6381,1254.609)"
     style="font-size:12;fill:none;stroke:#131516;stroke-width:8;" />
  <path
     fill="#706351"
     d="M13135 11165c0,0 361,739 865,1039 415,247 470,243 413,107 -13,-33 -209,-119 -214,-120 0,0 -837,-531 -937,-1179 -100,-649 -127,153 -127,153z"
     id="path756"
     transform="translate(636.6381,1254.609)"
     style="font-size:12;fill:#706351;" />
  <path
     fill="#8A775F"
     d="M13135 11199c0,0 351,718 841,1010 404,241 457,237 402,104 -13,-31 -204,-115 -208,-116 0,0 -814,-517 -912,-1147 -97,-631 -123,149 -123,149z"
     id="path757"
     transform="translate(636.6381,1254.609)"
     style="font-size:12;fill:#8a775f;" />
  <path
     fill="#706351"
     d="M15354 11715c0,0 -556,1592 -458,2360 80,631 121,676 196,482 18,-46 -46,-313 -48,-318 0,0 -34,-1229 321,-2112 209,-393 -11,-412 -11,-412z"
     id="path758"
     transform="translate(636.6381,1254.609)"
     style="font-size:12;fill:#706351;" />
  <path
     fill="#8A775F"
     d="M15283 11715c0,0 -472,1592 -389,2360 68,631 103,676 167,482 15,-46 -39,-313 -41,-318 0,0 -63,-1221 285,-2080 198,-401 -22,-444 -22,-444z"
     id="path759"
     transform="translate(636.6381,1254.609)"
     style="font-size:12;fill:#8a775f;" />
  <path
     fill="#706351"
     d="M 15089 11618 C 15089 11618 15684.6 12578.8 16460.9 12801.7 C 16757 12916.2 16909.5 12912 16951 12884.5 C 17008.6 12874.8 16947.7 12709.6 16925.7 12706.6 C 16867.7 12699.6 16765.3 12731.2 16695.8 12731.2 C 16549.3 12672.6 15484 12287 15242 11379 C 14999 10471 15089 11618 15089 11618 z "
     id="path760"
     transform="translate(636.6381,1254.609)"
     style="font-size:12;fill:#706351;"
     sodipodi:nodetypes="ccccccc" />
  <path
     fill="#8A775F"
     d="M 15089 11596 C 15089 11596 15858.3 12670.2 16450.8 12754.1 C 16702.3 12827.9 17041 12994.6 16917.6 12630 C 16840.8 12661.3 16766.8 12631.9 16697.3 12617.2 C 16585 12583 15480 12240 15240 11366 C 15000 10492 15089 11596 15089 11596 z "
     id="path761"
     transform="translate(636.6381,1254.609)"
     style="font-size:12;fill:#8a775f;"
     sodipodi:nodetypes="cccccc" />
  <path
     fill="#706351"
     d="M14413 11874c0,0 -180,1500 312,2434 391,744 319,604 518,672 81,28 -227,-497 -233,-503 0,0 -703,-1620 -292,-2719 411,-1100 -305,116 -305,116z"
     id="path762"
     transform="translate(636.6381,1254.609)"
     style="font-size:12;fill:#706351;" />
  <path
     fill="#8A775F"
     d="M14408 11874c0,0 -153,1500 267,2434 334,744 272,604 442,672 69,28 -194,-497 -199,-503 0,0 -600,-1620 -249,-2719 351,-1100 -261,116 -261,116z"
     id="path763"
     transform="translate(636.6381,1254.609)"
     style="font-size:12;fill:#8a775f;" />
  <path
     fill="#EBEBED"
     stroke="#131516"
     stroke-width="8"
     d="M15358 12014c0,0 -444,2183 -444,2381 0,202 83,690 682,749 596,57 938,-43 1040,-258 136,-288 115,-709 115,-690 0,0 -80,177 -183,334 -104,157 -239,311 -528,333 -290,23 -567,-37 -685,-168 -95,-106 -611,-367 3,-2681z"
     id="path764"
     transform="translate(636.6381,1254.609)"
     style="font-size:12;fill:#ebebed;stroke:#131516;stroke-width:8;" />
  <path
     fill="none"
     stroke="#C5C6C7"
     stroke-width="8"
     d="M15066 13898l257 -390"
     id="path765"
     transform="translate(636.6381,1254.609)"
     style="font-size:12;fill:none;stroke:#c5c6c7;stroke-width:8;" />
  <path
     fill="none"
     stroke="#C5C6C7"
     stroke-width="8"
     d="M15179 14464l377 -620"
     id="path766"
     transform="translate(636.6381,1254.609)"
     style="font-size:12;fill:none;stroke:#c5c6c7;stroke-width:8;" />
  <path
     fill="none"
     stroke="#C5C6C7"
     stroke-width="8"
     d="M15464 14767l406 -726"
     id="path767"
     transform="translate(636.6381,1254.609)"
     style="font-size:12;fill:none;stroke:#c5c6c7;stroke-width:8;" />
  <path
     fill="none"
     stroke="#C5C6C7"
     stroke-width="8"
     d="M15817 14863l375 -711"
     id="path768"
     transform="translate(636.6381,1254.609)"
     style="font-size:12;fill:none;stroke:#c5c6c7;stroke-width:8;" />
  <path
     fill="none"
     stroke="#C5C6C7"
     stroke-width="8"
     d="M16257 14808l276 -611"
     id="path769"
     transform="translate(636.6381,1254.609)"
     style="font-size:12;fill:none;stroke:#c5c6c7;stroke-width:8;" />
  <path
     fill="none"
     stroke="#C5C6C7"
     stroke-width="8"
     d="M15068 13485c0,0 0,824 749,1090 750,266 863,-224 867,-232l77 -169"
     id="path770"
     transform="translate(636.6381,1254.609)"
     style="font-size:12;fill:none;stroke:#c5c6c7;stroke-width:8;" />
  <path
     fill="none"
     stroke="#131516"
     stroke-width="8"
     d="M16347 10902c0,0 -189,-198 -359,289"
     id="path771"
     transform="translate(636.6381,1254.609)"
     style="font-size:12;fill:none;stroke:#131516;stroke-width:8;" />
  <path
     fill="#FFFEFE"
     d="M16106 12149c-307,176 -272,-356 0,-913 275,-555 290,22 290,22 0,0 68,-378 206,-22 135,355 114,1141 -69,958 -110,-111 -153,-457 -154,-623 0,-11 -54,230 -64,261 -10,30 -62,179 -209,317z"
     id="path772"
     transform="translate(636.6381,1254.609)"
     style="font-size:12;fill:#fffefe;" />
  <path
     fill="none"
     stroke="#131516"
     stroke-width="8"
     d="M16395 11258c4,-41 8,700 -289,891 -300,193 -274,-357 0,-913 274,-556 289,22 289,22 0,0 70,-379 207,-22 136,355 118,1134 -69,958 -186,-176 -145,-783 -144,-783"
     id="path773"
     transform="translate(636.6381,1254.609)"
     style="font-size:12;fill:none;stroke:#131516;stroke-width:8;" />
  <path
     fill="#4A4F53"
     d="M16333 9928c0,0 658,-394 1191,71 532,464 475,1299 -40,1741 0,0 -104,-835 -457,-882 0,0 -93,140 12,277 0,0 -724,-391 -795,-926 0,0 83,679 368,867 0,0 -581,-425 -279,-1148z"
     id="path774"
     transform="translate(636.6381,1254.609)"
     style="font-size:12;fill:#4a4f53;" />
  <path
     fill="#64696D"
     d="M16329 9922c0,0 631,-378 1142,67 510,446 493,1336 0,1759 0,0 -138,-890 -477,-935 0,0 -85,179 15,311 0,0 -697,-420 -765,-933 0,0 103,711 375,891 0,0 -579,-468 -290,-1160z"
     id="path775"
     transform="translate(636.6381,1254.609)"
     style="font-size:12;fill:#64696d;" />
  <path
     fill="#4A4F53"
     d="M16061 9913c0,0 -314,-687 -1170,-253 0,0 629,-181 944,207 0,0 -420,65 -735,614l156 46c0,0 -1202,1200 -1760,1404 0,0 275,56 501,-56 0,0 -535,536 -1041,559 0,0 344,102 482,56 0,0 -453,205 -629,271 0,0 159,209 403,140 0,0 -285,408 -688,500 0,0 391,252 1405,-727 0,0 -25,273 -339,726 0,0 689,-887 898,-1413 0,0 -190,742 -276,949 0,0 783,-1037 905,-1518 122,-479 -126,513 -266,787 -139,275 582,-878 652,-1267 69,-387 76,22 -46,294 -122,274 517,-819 604,-1023 89,-207 -17,-231 0,-296z"
     id="path776"
     transform="translate(636.6381,1254.609)"
     style="font-size:12;fill:#4a4f53;" />
  <path
     fill="#706351"
     d="M13232 11143c0,0 532,596 1083,744 453,122 503,104 414,-9 -21,-27 -227,-56 -232,-56 0,0 -922,-276 -1187,-856 -264,-580 -78,177 -78,177z"
     id="path777"
     transform="translate(636.6381,1254.609)"
     style="font-size:12;fill:#706351;" />
  <path
     fill="#8A775F"
     d="M13229 11179c0,0 509,570 1036,711 433,117 481,100 396,-8 -20,-26 -218,-54 -222,-53 0,0 -882,-265 -1135,-819 -253,-554 -75,169 -75,169z"
     id="path778"
     transform="translate(636.6381,1254.609)"
     style="font-size:12;fill:#8a775f;" />
  <path
     fill="#64696D"
     d="M15971 9903c0,0 -307,-670 -1141,-247 0,0 614,-176 920,202 0,0 -409,64 -716,599l152 45c0,0 -1210,1246 -1755,1445 0,0 307,-22 528,-131 0,0 -545,599 -1038,621 0,0 358,23 493,-22 0,0 -441,269 -613,333 0,0 154,135 392,67 0,0 -324,491 -716,580 0,0 427,154 1416,-801 0,0 -86,513 -393,955 0,0 734,-1112 938,-1624 0,0 -155,823 -239,1025 0,0 732,-1112 852,-1580 118,-468 -86,622 -221,891 -137,266 528,-980 596,-1359 67,-378 135,90 18,356 -121,266 441,-868 527,-1067 86,-202 -17,-224 0,-288z"
     id="path779"
     transform="translate(636.6381,1254.609)"
     style="font-size:12;fill:#64696d;" />
  <path
     fill="#706351"
     d="M10317 12560c-36,-69 -263,-619 -454,-319 -194,296 -351,389 -333,731 18,342 -123,550 209,777 333,227 1261,550 1505,550 247,0 315,-70 439,-323 123,-251 691,-914 830,-892 141,24 257,-112 221,-273 -35,-159 -35,-389 -332,-228 -298,158 -527,412 -737,504 -209,89 -471,135 -700,112 -227,-23 -525,-411 -648,-639z"
     id="path780"
     transform="translate(636.6381,1254.609)"
     style="font-size:12;fill:#706351;" />
  <path
     fill="#8A775F"
     d="M10295 12550c-34,-68 -255,-603 -441,-311 -189,288 -342,378 -324,711 17,333 -121,535 203,756 324,221 1227,535 1465,535 241,0 307,-67 427,-314 120,-244 673,-890 808,-867 138,22 250,-110 216,-267 -34,-154 -34,-377 -324,-221 -289,155 -525,378 -729,467 -203,87 -447,155 -670,132 -221,-22 -510,-400 -631,-621z"
     id="path781"
     transform="translate(636.6381,1254.609)"
     style="font-size:12;fill:#8a775f;" />
  <path
     fill="#706351"
     d="M10247 13950c0,0 -87,1065 -52,1472 35,406 151,1220 336,1235 151,12 379,-34 433,-59 0,0 -19,10 -106,-229 -54,-147 -192,-662 -175,-1001 18,-339 86,-1221 30,-1213 0,0 -294,-293 -466,-205z"
     id="path782"
     transform="translate(636.6381,1254.609)"
     style="font-size:12;fill:#706351;" />
  <path
     fill="#8A775F"
     d="M10246 13950c0,0 -86,1048 -51,1448 34,401 149,1201 331,1216 149,12 341,-17 395,-42 0,0 -27,-6 -113,-241 -53,-145 -189,-644 -172,-978 18,-333 69,-1201 69,-1201 0,0 -289,-289 -459,-202z"
     id="path783"
     transform="translate(636.6381,1254.609)"
     style="font-size:12;fill:#8a775f;" />
  <path
     fill="none"
     stroke="#131516"
     stroke-width="8"
     d="M16209 13373c0,0 -186,-868 -410,-22"
     id="path784"
     transform="translate(636.6381,1254.609)"
     style="font-size:12;fill:none;stroke:#131516;stroke-width:8;" />
  <path
     fill="#131516"
     stroke="#131516"
     stroke-width="18"
     d="M16004 12178c47,22 115,-77 155,-218 38,-133 34,-264 -13,-285 -47,-22 -115,77 -155,218 -39,140 -34,264 13,285z"
     id="path785"
     transform="translate(636.6381,1254.609)"
     style="font-size:12;fill:#131516;stroke:#131516;stroke-width:18;" />
  <path
     fill="#131516"
     stroke="#131516"
     stroke-width="18"
     d="M16585 12213c-36,13 -71,-85 -80,-218 -9,-126 12,-245 48,-259 37,-13 72,85 81,218 8,133 -12,245 -49,259z"
     id="path786"
     transform="translate(636.6381,1254.609)"
     style="font-size:12;fill:#131516;stroke:#131516;stroke-width:18;" />
  <path
     fill="#70646E"
     d="M9177 18944c0,0 67,33 111,152 28,78 196,472 128,577 -55,84 -24,56 -308,97 -286,42 -707,68 -707,68 0,0 -179,-64 -124,-326 70,-335 127,-480 148,-551 0,0 123,77 145,36 27,-52 59,-147 92,-111 186,196 82,-50 104,-35 353,234 218,-164 411,93z"
     id="path787"
     transform="translate(636.6381,1254.609)"
     style="font-size:12;fill:#70646e;" />
  <path
     fill="#71656E"
     d="M9130 18940c0,0 64,30 105,143 27,74 186,448 122,547 -52,80 -23,53 -293,93 -270,39 -670,65 -670,65 0,0 -170,-61 -118,-310 66,-317 121,-455 141,-523 0,0 117,74 137,35 26,-50 56,-139 88,-106 176,186 100,-43 121,-29 334,222 184,-159 367,85z"
     id="path788"
     transform="translate(636.6381,1254.609)"
     style="font-size:12;fill:#71656e;" />
  <path
     fill="none"
     stroke="#FFFEFE"
     stroke-width="18"
     stroke-linecap="round"
     stroke-linejoin="round"
     d="M16040 11844c5,-19 12,-38 20,-56 7,-17 18,-36 27,-50 4,-5 9,-12 14,-17 10,-9 17,-15 24,-18"
     id="path789"
     transform="translate(636.6381,1254.609)"
     style="font-size:12;fill:none;stroke:#fffefe;stroke-width:18;stroke-linecap:round;stroke-linejoin:round;" />
  <path
     fill="none"
     stroke="#FFFEFE"
     stroke-width="18"
     stroke-linecap="round"
     stroke-linejoin="round"
     d="M16525 11868c1,-13 3,-26 5,-39 2,-12 6,-27 10,-37 1,-4 4,-9 6,-13 5,-8 9,-13 13,-16"
     id="path790"
     transform="translate(636.6381,1254.609)"
     style="font-size:12;fill:none;stroke:#fffefe;stroke-width:18;stroke-linecap:round;stroke-linejoin:round;" />
  <path
     fill="#4A4F53"
     d="M11972 12804c-96,62 -128,122 -181,147 -82,110 -430,232 -475,249 -324,-23 -551,313 -666,415l-92 149c6,482 -547,783 -886,417 -334,-387 -602,-915 -901,-1196l423 -855 -218 -638 696 -11c406,1255 1553,1960 2150,1058l150 265z"
     id="path791"
     transform="translate(636.6381,1254.609)"
     style="font-size:12;fill:#4a4f53;" />
  <path
     fill="#64696D"
     d="M11970 12801c-93,61 -141,128 -200,139 -81,108 -449,216 -494,233 -318,-23 -542,308 -656,409l-90 147c6,474 -538,770 -872,410 -329,-381 -593,-900 -887,-1178l416 -842 -215 -627 686 -11c399,1236 1560,1925 2147,1038l165 282z"
     id="path792"
     transform="translate(636.6381,1254.609)"
     style="font-size:12;fill:#64696d;" />
  <path
     fill="#EBEBED"
     stroke="#7E8387"
     stroke-width="18"
     d="M11023 7294c0,0 18,-31 91,-23 72,8 62,27 87,43 25,15 138,90 156,140 19,51 -43,4 -51,35 -7,32 19,40 30,71 10,31 98,78 127,156 29,78 375,753 400,777 41,39 -38,19 -53,6 -14,-13 -383,-560 -467,-529 -22,8 -216,-213 -328,-250 -27,-9 -18,-47 -25,-51 -7,-4 44,-55 40,-144 -4,-90 15,-125 -4,-168 -18,-43 -3,-63 -3,-63z"
     id="path793"
     transform="translate(636.6381,1254.609)"
     style="font-size:12;fill:#ebebed;stroke:#7e8387;stroke-width:18;" />
  <path
     fill="#EBEBED"
     stroke="#7E8387"
     stroke-width="18"
     d="M11052 7569c-15,227 -214,114 -317,222 -74,78 -123,101 -169,102 -105,3 -404,326 -429,413 -26,87 -215,167 -215,167 0,0 -298,131 -102,-8 197,-139 299,-318 320,-429 22,-111 59,-266 102,-298 44,-32 197,-135 204,-242 7,-107 84,-127 138,-147 55,-20 251,-107 353,-75 102,32 117,99 115,295z"
     id="path794"
     transform="translate(636.6381,1254.609)"
     style="font-size:12;fill:#ebebed;stroke:#7e8387;stroke-width:18;" />
  <path
     fill="#EBEBED"
     stroke="#7E8387"
     stroke-width="18"
     d="M10563 7991c11,135 397,813 772,731 363,-79 -106,92 -7,-678 -77,135 -169,194 -295,-13 10,76 -2,330 -470,-40z"
     id="path795"
     transform="translate(636.6381,1254.609)"
     style="font-size:12;fill:#ebebed;stroke:#7e8387;stroke-width:18;" />
  <path
     fill="#C5C6C7"
     d="M10073 6382c0,68 31,184 68,130 44,-66 155,-180 232,-230 50,-28 -44,-64 -101,-78 -120,-31 -186,12 -199,178z"
     id="path796"
     transform="translate(636.6381,1254.609)"
     style="font-size:12;fill:#c5c6c7;" />
  <path
     fill="#EBEBED"
     d="M10081 6382c0,68 27,144 64,90 44,-66 116,-136 192,-186 50,-28 -8,-56 -65,-70 -120,-31 -178,0 -191,166z"
     id="path797"
     transform="translate(636.6381,1254.609)"
     style="font-size:12;fill:#ebebed;" />
  <path
     fill="#C5C6C7"
     d="M11095 6340c-8,57 14,153 46,113 38,-48 128,-127 186,-156 38,-15 -31,-60 -69,-80 -80,-46 -135,-13 -163,123z"
     id="path798"
     transform="translate(636.6381,1254.609)"
     style="font-size:12;fill:#c5c6c7;" />
  <path
     fill="#EBEBED"
     d="M11103 6340c-8,57 2,125 34,86 38,-48 96,-96 155,-125 38,-15 1,-48 -37,-69 -81,-45 -124,-28 -152,108z"
     id="path799"
     transform="translate(636.6381,1254.609)"
     style="font-size:12;fill:#ebebed;" />
  <path
     fill="#5C83BB"
     d="M9867 10883l404 276 -9226 3294c-19,7 -211,61 -326,-17 -102,-69 -143,-221 -101,-277l9249 -3276zm0 0c30,-11 434,265 404,276l-404 -276z"
     id="path800"
     transform="translate(636.6381,1254.609)"
     style="font-size:12;fill:#5c83bb;" />
  <path
     fill="#5C83BB"
     d="M20092 7283l-10793 3117 0 0c-425,151 -717,351 -846,552 -129,200 -95,401 132,556l0 0 0 0c227,155 604,234 1031,237 428,3 905,-70 1330,-221l9146 -4241z"
     id="path801"
     transform="translate(636.6381,1254.609)"
     style="font-size:12;fill:#5c83bb;" />
  <path
     fill="#BA7529"
     d="M9289 11717c-325,-12 -108,405 -236,592 -55,158 -170,298 -363,428 -323,212 65,593 457,788 478,207 571,777 1094,609 190,-83 246,-307 240,-654 -63,-709 9,-961 1,-1444 5,-90 67,-491 -333,-293 -339,336 -402,383 -860,-26z"
     id="path802"
     transform="translate(636.6381,1254.609)"
     style="font-size:12;fill:#ba7529;" />
  <path
     fill="#EFB717"
     d="M9769 13747c-374,-188 -752,-435 -1056,-680 -94,-71 -107,-247 25,-302 285,-212 440,-476 407,-819 -5,-120 140,-252 170,-138 495,485 631,157 703,116 78,-143 391,-307 382,-106l-111 1623c-28,370 -258,452 -520,306z"
     id="path803"
     transform="translate(636.6381,1254.609)"
     style="font-size:12;fill:#efb717;" />
  <path
     fill="#719ACD"
     d="M20170 7251l-10902 3045 0 0c-411,146 -693,339 -818,533 -124,194 -91,388 128,538l0 0 0 0c219,149 584,226 997,229 414,3 875,-68 1286,-214l9309 -4131z"
     id="path804"
     transform="translate(636.6381,1254.609)"
     style="font-size:12;fill:#719acd;" />
  <path
     fill="#719ACD"
     d="M9568 10867l393 268 -8960 3199c-19,7 -206,60 -317,-16 -99,-67 -139,-215 -98,-269l8982 -3182zm0 0c29,-10 422,258 393,268l-393 -268z"
     id="path805"
     transform="translate(636.6381,1254.609)"
     style="font-size:12;fill:#719acd;" />
  <path
     fill="#131516"
     d="M15453 11681c78,31 109,135 70,231 -38,97 -132,150 -209,119 -77,-31 -109,-134 -70,-231 38,-96 132,-149 209,-119z"
     id="path806"
     transform="translate(636.6381,1254.609)"
     style="font-size:12;fill:#131516;" />
  <path
     fill="#313638"
     d="M15441 11681c73,29 102,127 66,218 -36,91 -125,142 -198,112 -73,-29 -103,-127 -66,-218 36,-91 125,-141 198,-112z"
     id="path807"
     transform="translate(636.6381,1254.609)"
     style="font-size:12;fill:#313638;" />
  <text
     style="fill:#5c83bb;stroke:none;font-family:helvetica;font-style:normal;font-weight:normal;font-size:12px;fill-opacity:1;stroke-opacity:1;stroke-width:1pt;stroke-linejoin:miter;stroke-linecap:butt;"
     x="7.96432604"
     y="156.814737"
     id="text840"
     transform="scale(59.86076,154.7005)">
    <tspan
       id="tspan841"
       style="fill:#5c83bb;fill-opacity:1;">
Grupo de usuarios de Castilla-La Mancha de software libre</tspan>
  </text>
  <text
     style="font-size:72;font-weight:normal;fill:none;stroke:#ba7529;stroke-width:3.87236;font-family:WeddingText BT;stroke-opacity:1;stroke-dasharray:none;"
     x="33.5905861"
     y="63.8934030"
     id="text815"
     transform="scale(57.95398,70.17206)">
    <tspan
       x="33.5905876"
       y="63.8934021"
       sodipodi:role="line"
       id="tspan828"
       style="stroke:#ba7529;stroke-opacity:1;stroke-width:3.87236;stroke-dasharray:none;fill:none;">
Manc</tspan>
  </text>
  <text
     style="font-size:72;font-weight:normal;fill:none;stroke:#ba7529;stroke-width:3.87236;font-family:WeddingText BT;stroke-opacity:1;stroke-dasharray:none;"
     x="199.406149"
     y="63.8935250"
     id="text830"
     transform="scale(57.95398,70.17206)">
    <tspan
       x="199.406143"
       y="63.8935242"
       sodipodi:role="line"
       id="tspan833"
       style="stroke-width:3.87236;stroke-dasharray:none;stroke:#ba7529;stroke-opacity:1;fill:none;">
hegox</tspan>
  </text>
  <text
     style="font-size:72;font-weight:normal;fill:#b3526f;stroke:#efb717;stroke-width:1.05833;font-family:WeddingText BT;"
     x="33.5905861"
     y="63.8934030"
     id="text831"
     transform="matrix(57.95398,0.000000,0.000000,70.17206,-70.55555,-141.1107)">
    <tspan
       x="33.5905876"
       y="63.8934021"
       sodipodi:role="line"
       id="tspan832"
       style="stroke:#efb717;stroke-opacity:1;stroke-width:1.05833;stroke-dasharray:none;">
Manc</tspan>
  </text>
  <text
     style="font-size:72;font-weight:normal;fill:#ffffff;stroke:#efb717;stroke-width:1.05833;font-family:WeddingText BT;stroke-opacity:1;"
     x="199.406149"
     y="63.8935250"
     id="text834"
     transform="matrix(57.95398,0.000000,0.000000,70.17206,-70.55555,-141.1107)">
    <tspan
       x="199.406143"
       y="63.8935242"
       sodipodi:role="line"
       id="tspan835"
       style="stroke-width:1.05833;stroke-dasharray:none;stroke:#efb717;stroke-opacity:1;">
hegox</tspan>
  </text>
  <text
     style="fill:#4a4f53;stroke:#4a4f53;font-family:helvetica;font-style:normal;font-weight:normal;font-size:12px;fill-opacity:1;stroke-opacity:1;stroke-width:0.239503;stroke-linejoin:miter;stroke-linecap:butt;stroke-dasharray:none;"
     x="15.4123366"
     y="213.804417"
     id="text858"
     transform="scale(141.4260,124.2618)">
    <tspan
       id="tspan859"
       style="fill:#4a4f53;fill-opacity:1;stroke:#4a4f53;stroke-opacity:1;stroke-width:0.239503;stroke-dasharray:none;">
www.manchegox.org</tspan>
  </text>
  <text
     style="fill:#64696d;stroke:none;font-family:helvetica;font-style:normal;font-weight:normal;font-size:12px;fill-opacity:1;stroke-opacity:1;stroke-width:1pt;stroke-linejoin:miter;stroke-linecap:butt;"
     x="14.8831907"
     y="213.202246"
     id="text852"
     transform="scale(141.4260,124.2618)">
    <tspan
       id="tspan853"
       style="fill:#64696d;fill-opacity:1;">
www.manchegox.org</tspan>
  </text>
</svg>
