<?xml version="1.0" encoding="UTF-8" standalone="no"?>
<!DOCTYPE svg PUBLIC "-//W3C//DTD SVG 20010904//EN"
"http://www.w3.org/TR/2001/REC-SVG-20010904/DTD/svg10.dtd"
[
 <!ATTLIST svg
  xmlns:xlink CDATA #FIXED "http://www.w3.org/1999/xlink">
]>
<!-- Created with Sodipodi ("http://www.sodipodi.com/") -->
<svg
   xmlns="http://www.w3.org/2000/svg"
   xmlns:xlink="http://www.w3.org/1999/xlink"
   version="1"
   x="0"
   y="0"
   width="744.094"
   height="744.094"
   id="svg1">
  <defs
     id="defs3">
    <linearGradient
       x1="0"
       y1="0"
       x2="1"
       y2="0"
       id="linearGradient226"
       gradientUnits="objectBoundingBox"
       spreadMethod="pad">
      <stop
         style="stop-color:#ffd033;stop-opacity:1;"
         offset="0"
         id="stop227" />
      <stop
         style="stop-color:#ffffff;stop-opacity:1;"
         offset="1"
         id="stop228" />
    </linearGradient>
    <linearGradient
       x1="0"
       y1="0"
       x2="1"
       y2="0"
       id="linearGradient229"
       xlink:href="#linearGradient226"
       gradientUnits="objectBoundingBox"
       spreadMethod="pad" />
    <radialGradient
       cx="0.5"
       cy="0.5"
       fx="0.5"
       fy="0.5"
       r="0.5"
       id="radialGradient233"
       xlink:href="#linearGradient226"
       gradientUnits="objectBoundingBox"
       spreadMethod="pad" />
  </defs>
  <g
     transform="translate(-17.0357,90.5358)"
     style="font-size:12;"
     id="g132">
    <path
       d="M 708.297 259.259 C 690.678 262.046 660.812 257.973 655.439 267.621 C 650.045 277.306 687.223 331.211 675.997 317.258 C 664.902 303.468 653.646 275.679 642.712 275.886 C 631.649 276.096 603.597 335.231 610.005 318.508 L 629.063 268.773 C 630.899 263.982 630.36 258.136 628.397 253.396 C 621.545 236.85 614.692 220.305 607.84 203.759 C 601.047 187.356 630.388 245.338 641.382 245.131 C 652.472 244.922 680.498 185.786 674.09 202.509 C 667.737 219.087 649.356 242.827 655.032 252.244 C 660.758 261.743 725.985 256.461 708.297 259.259 z "
       transform="translate(-13.75,-1.25)"
       style="fill:#ffe600;fill-rule:evenodd;stroke-width:1pt;"
       id="path3951" />
    <path
       d="M 394.217 440.036 C 85.056 707.637 8.31109 299.127 192.514 162.317 C 108.338 264.216 92.0425 620.229 394.217 440.036 z "
       transform="translate(-13.1135,-29.5055)"
       style="fill:#5975bf;fill-rule:evenodd;stroke-width:1pt;"
       id="path219" />
    <polygon
       points="500.797,493.562 389.739,375.804 240.726,439.019 318.401,297.007 212.232,174.822 371.297,204.812 454.694,66.0817 475.326,226.629 633.037,263.074 486.723,332.308 500.797,493.562 "
       transform="matrix(1,-0.0207935,0,1,-1.25,6.91304)"
       style="fill:#ffc600;fill-rule:evenodd;stroke-width:1pt;"
       id="polygon223" />
  </g>
</svg>
