<?xml version="1.0" encoding="UTF-8" standalone="no"?>
<!DOCTYPE svg PUBLIC "-//W3C//DTD SVG 20010904//EN"
"http://www.w3.org/TR/2001/REC-SVG-20010904/DTD/svg10.dtd">
<!-- Created with Sodipodi ("http://www.sodipodi.com/") -->
<svg
   id="svg592"
   sodipodi:version="0.33"
   width="600pt"
   height="600pt"
   sodipodi:docbase="/home/tobias/Desktop"
   sodipodi:docname="/home/tobias/Desktop/Dangerous_for_the_environment.svg"
   sodipodi:author="Aqua78"
   xmlns="http://www.w3.org/2000/svg"
   xmlns:sodipodi="http://sodipodi.sourceforge.net/DTD/sodipodi-0.dtd"
   xmlns:xlink="http://www.w3.org/1999/xlink">
  <defs
     id="defs594" />
  <sodipodi:namedview
     id="base" />
  <rect
     style="font-size:12.000;fill:#ff6700;fill-rule:evenodd;stroke:#000000;stroke-width:6.250000;"
     id="rect633"
     width="600.000000"
     height="600.000000"
     x="84.682228"
     y="154.565033"
     transform="translate(-4.650838,-74.41330)" />
  <g
     id="g573"
     transform="matrix(4.250666,0,0,4.168381,68.66096,50.04036)">
    <path
       style="fill:#000000;fill-rule:evenodd;stroke:black;stroke-opacity:1;stroke-width:1pt;stroke-linejoin:miter;stroke-linecap:butt;fill-opacity:1.0000;"
       d="M 3.697131 144.8253 C 3.697131 144.8253 31.09939 138.0835 34.14409 142.2156 C 39.36357 139.8234 66.76583 125.0348 66.76583 125.0348 L 123.0927 117.6406 C 123.0927 117.6406 122.8752 119.5979 127.0073 120.9028 C 127.0073 122.6426 115.9159 127.6446 114.6110 128.9495 C 113.3062 130.2543 132.0093 128.5145 132.0093 132.4291 C 132.0093 136.3437 126.5724 134.8213 128.9646 137.4311 C 131.3569 140.0409 142.4483 136.7787 142.4483 136.7787 L 142.4483 149.8274 L 3.914609 149.8274 L 3.697131 144.8253 z "
       id="path577"
       sodipodi:nodetypes="cccccccccccc" />
    <path
       style="fill:none;fill-rule:evenodd;stroke:black;stroke-opacity:1;stroke-width:1pt;stroke-linejoin:miter;stroke-linecap:butt;fill-opacity:1;"
       d="M 3.998288 88.15968 L 146.3988 89.08238 "
       id="path571" />
    <path
       style="fill:#000000;fill-rule:evenodd;stroke:none;stroke-opacity:1.0000;stroke-width:1.2500;stroke-linejoin:round;stroke-linecap:butt;fill-opacity:1.0000;stroke-dasharray:none;"
       d="M 54.43824 116.3012 L 70.27761 114.9173 C 70.27761 114.9173 57.66763 105.9980 57.51385 105.9980 C 57.36007 105.9980 58.28275 78.16376 58.28275 78.16376 L 71.35408 63.24707 L 78.12041 62.01683 L 90.11528 45.40855 C 90.11528 45.40855 77.96663 58.47992 77.96663 58.32611 C 77.96663 58.17230 67.50957 58.32611 67.50957 58.32611 L 58.28275 65.09247 L 62.12726 50.32951 L 60.89702 41.41029 L 72.12298 26.33980 C 72.12298 26.33980 60.74323 38.18092 60.74323 37.71957 C 60.74323 37.25822 57.66763 22.49527 57.66763 22.49527 L 59.20543 48.94547 L 48.74837 63.24707 L 36.90728 28.80028 C 36.90728 28.80028 39.21399 19.26590 39.06021 19.26590 C 38.90643 19.26590 35.83082 27.41623 35.67704 27.10869 C 35.52326 26.80115 27.06534 15.88272 27.06534 15.88272 L 33.98546 28.95409 L 35.06192 44.48586 L 19.06876 34.64394 L 35.52326 48.63792 L 39.21399 63.09326 L 21.37547 53.86650 L 12.60999 61.70929 L 20.14523 59.71016 L 40.90557 72.16637 L 40.29045 114.1483 L 29.98717 117.5315 L 43.05850 118.3004 L 47.21056 123.3751 L 50.13239 123.0676 L 54.43824 116.3012 z "
       id="path572"
       sodipodi:nodetypes="cccccccccccccccccccccccccccccccccccc" />
    <path
       style="fill:#ffffff;fill-rule:evenodd;stroke:#000000;stroke-opacity:1.0000;stroke-width:2;stroke-linejoin:miter;stroke-linecap:butt;fill-opacity:1.0000;stroke-dasharray:none;"
       d="M 62.74238 123.5289 C 66.74067 125.2205 77.04395 132.1407 78.58175 133.9860 C 81.65736 131.2179 82.42626 129.0651 85.65565 127.3735 C 88.88504 125.6819 117.0268 117.0702 126.8688 108.1509 C 136.7107 99.23164 137.6334 82.77718 137.6334 82.77718 L 120.8713 90.00488 L 125.0234 78.62511 C 125.0234 78.62511 107.6462 80.93185 102.7253 86.16035 C 97.80430 91.38885 84.73297 114.7634 79.96578 117.5315 C 75.19858 120.2996 64.89530 122.7600 62.74238 123.5289 z "
       id="path573"
       sodipodi:nodetypes="cccccccccc" />
    <path
       style="fill:#ffffff;fill-rule:evenodd;stroke:black;stroke-opacity:1;stroke-width:2;stroke-linejoin:miter;stroke-linecap:butt;fill-opacity:1.0000;stroke-dasharray:none;"
       d="M 92.57576 99.53923 L 85.34809 96.30978 L 81.96492 109.2273 L 85.50187 110.9189 L 92.57576 99.53923 z "
       id="path574" />
    <path
       style="fill:#ffffff;fill-rule:evenodd;stroke:black;stroke-opacity:1;stroke-width:2;stroke-linejoin:miter;stroke-linecap:butt;fill-opacity:1.0000;stroke-dasharray:none;"
       d="M 126.4075 108.7660 L 126.2537 117.0701 L 109.1840 122.2987 L 107.4925 119.0693 C 107.4925 119.0693 117.1806 115.8398 126.4075 108.7660 z "
       id="path575"
       sodipodi:nodetypes="ccccc" />
    <path
       sodipodi:type="arc"
       style="fill-rule:evenodd;stroke:none;fill:#000000;fill-opacity:1.0000;stroke-opacity:1;stroke-width:1pt;stroke-linejoin:miter;stroke-linecap:butt;"
       id="path576"
       d="M 130.8671 94.92581 A 2.460480 2.460480 0 1 "
       sodipodi:cx="128.4066"
       sodipodi:cy="94.92581"
       sodipodi:rx="2.460480"
       sodipodi:ry="2.460480" />
  </g>
</svg>
