<?xml version="1.0" encoding="UTF-8" standalone="no"?>
<!DOCTYPE svg PUBLIC "-//W3C//DTD SVG 20010904//EN"
"http://www.w3.org/TR/2001/REC-SVG-20010904/DTD/svg10.dtd">
<!-- Created with Sodipodi ("http://www.sodipodi.com/") -->
<svg
   id="svg607"
   sodipodi:version="0.32"
   width="500pt"
   height="500pt"
   sodipodi:docbase="/home/petr/"
   sodipodi:docname="/home/petr/toxic.svg"
   xmlns="http://www.w3.org/2000/svg"
   xmlns:sodipodi="http://sodipodi.sourceforge.net/DTD/sodipodi-0.dtd"
   xmlns:xlink="http://www.w3.org/1999/xlink"
   sodipodi:author="Aqua78">
  <defs
     id="defs609">
    <linearGradient
       id="linearGradient575">
      <stop
         style="stop-color:#000;stop-opacity:1;"
         offset="0"
         id="stop576" />
      <stop
         style="stop-color:#fff;stop-opacity:1;"
         offset="1"
         id="stop577" />
    </linearGradient>
    <linearGradient
       xlink:href="#linearGradient575"
       id="linearGradient578" />
  </defs>
  <sodipodi:namedview
     id="base" />
  <g
     id="g879"
     transform="translate(-65.93644,-148.3569)">
    <g
       id="g670"
       style="font-size:12;stroke:#000000;stroke-opacity:0.991228;fill:#000000;fill-opacity:1;"
       transform="translate(87.13029,195.4545)">
      <path
         style="fill:#000000;fill-rule:evenodd;stroke:#000000;stroke-opacity:0.991228;stroke-width:1pt;stroke-linejoin:miter;stroke-linecap:butt;fill-opacity:1;"
         d="M 294.895 259.711 C 285.199 267.084 283.042 269.56 277.684 277.719 C 275.745 280.868 272.124 288.227 271.134 293.164 C 270.145 298.1 269.404 305.262 269.407 309.055 C 269.419 321.908 273.51 329.971 277.978 329.69 C 281.97 329.232 287.05 325.069 294.748 315.614 "
         id="path584"
         sodipodi:nodetypes="cssssc" />
      <path
         style="fill:#000000;fill-rule:evenodd;stroke:#000000;stroke-opacity:0.991228;stroke-width:1pt;stroke-linejoin:bevel;stroke-linecap:butt;fill-opacity:1;"
         d="M 294.895 259.711 C 285.199 267.084 283.042 269.56 277.684 277.719 C 275.745 280.868 272.124 288.227 271.134 293.164 C 270.145 298.1 269.404 305.262 269.407 309.055 C 269.419 321.908 273.51 329.971 277.978 329.69 C 281.97 329.232 287.05 325.069 294.748 315.614 "
         id="path585"
         sodipodi:nodetypes="cssssc"
         transform="matrix(-1.000000,0.000000,0.000000,1.000000,596.7720,0.208099)" />
      <path
         style="fill:#000000;fill-rule:evenodd;stroke:#000000;stroke-opacity:0.991228;stroke-width:1pt;stroke-linejoin:miter;stroke-linecap:butt;fill-opacity:1;"
         d="M 211.888 203.561 C 225.348 201.202 238.391 199.676 251.851 198.15 C 269.474 193.709 278.355 213.83 273.498 228.955 C 267.393 242.415 258.79 254.21 248.938 265.588 C 241.306 274.191 232.214 275.583 223.544 272.664 C 216.546 270.724 210.083 266.421 203.145 256.43 C 200.093 247.826 197.457 243.385 193.571 232.701 C 190.519 222.849 195.266 208.101 211.888 203.561 z "
         id="path586"
         sodipodi:nodetypes="ccccsccc"
         transform="translate(0.588722,-3.051758e-5)" />
      <path
         style="fill:#000000;fill-rule:evenodd;stroke:#000000;stroke-opacity:0.991228;stroke-width:1pt;stroke-linejoin:miter;stroke-linecap:butt;fill-opacity:1;"
         d="M 211.888 203.561 C 225.348 201.202 238.391 199.676 251.851 198.15 C 269.474 193.709 278.355 213.83 273.498 228.955 C 267.393 242.415 258.79 254.21 248.938 265.588 C 241.306 274.191 232.214 275.583 223.544 272.664 C 216.546 270.724 210.083 266.421 203.145 256.43 C 200.093 247.826 197.457 243.385 193.571 232.701 C 190.519 222.849 195.266 208.101 211.888 203.561 z "
         id="path587"
         sodipodi:nodetypes="ccccsccc"
         transform="matrix(-1.000000,0.000000,0.000000,1.000000,596.4468,-3.051758e-5)" />
    </g>
    <g
       id="g775"
       style="font-size:12;stroke:#000000;stroke-opacity:0.991228;"
       transform="translate(87.13029,195.4545)">
      <g
         id="g740"
         style="fill:none;fill-opacity:1;stroke:#000000;stroke-opacity:0.991228;">
        <g
           id="g652"
           style="font-size:12;fill:none;fill-opacity:1;stroke:#000000;stroke-opacity:0.991228;">
          <path
             style="fill:none;fill-rule:evenodd;stroke:#000000;stroke-opacity:0.991228;stroke-width:6.25;stroke-linejoin:miter;stroke-linecap:butt;fill-opacity:1;stroke-dasharray:none;"
             d="M 212.232 318.53 C 217.922 331.874 219.682 336.945 223.785 350.248 C 227.281 362.537 228.566 370.042 230.726 387.506 "
             id="path611"
             sodipodi:nodetypes="csc" />
          <path
             style="fill:none;fill-rule:evenodd;stroke:#000000;stroke-opacity:0.991228;stroke-width:6.25;stroke-linejoin:miter;stroke-linecap:butt;fill-opacity:1;stroke-dasharray:none;"
             d="M 212.232 318.53 C 217.922 331.874 219.682 336.945 223.785 350.248 C 227.281 362.537 228.566 370.042 230.726 387.506 "
             id="path612"
             sodipodi:nodetypes="csc"
             transform="matrix(-1.000000,0.000000,0.000000,1.000000,596.3183,-0.735886)" />
          <g
             id="g637"
             style="fill:none;fill-opacity:1;stroke:#000000;stroke-opacity:0.991228;">
            <path
               style="fill:none;fill-rule:evenodd;stroke:#000000;stroke-opacity:0.991228;stroke-width:5;stroke-linejoin:miter;stroke-linecap:butt;fill-opacity:1;stroke-dasharray:none;"
               d="M 236.516 349.732 C 251.234 358.759 276.677 360.151 299.472 359.741 C 324.866 359.612 346.605 357.778 360.881 349.144 "
               id="path588"
               sodipodi:nodetypes="csc" />
            <path
               style="fill:none;fill-rule:evenodd;stroke:#000000;stroke-opacity:0.991228;stroke-width:5;stroke-linejoin:miter;stroke-linecap:butt;fill-opacity:1;stroke-dasharray:none;"
               d="M 241.667 373.282 C 257.905 383.486 277.001 386.99 298.993 386.16 C 321.835 385.604 339.344 383.682 354.994 372.988 "
               id="path608"
               sodipodi:nodetypes="csc" />
            <g
               id="g625"
               style="fill:none;fill-opacity:1;stroke:#000000;stroke-opacity:0.991228;">
              <path
                 style="fill:none;fill-rule:evenodd;stroke:#000000;stroke-opacity:0.991228;stroke-width:6.25;stroke-linejoin:miter;stroke-linecap:butt;fill-opacity:1;stroke-dasharray:none;"
                 d="M 229.893 385.644 C 247.26 406.592 271.501 410.229 299.066 410.959 C 328.585 412.036 358.232 400.314 365.885 385.645 "
                 id="path609"
                 sodipodi:nodetypes="csc" />
              <g
                 id="g615"
                 style="fill:none;fill-opacity:1;stroke:#000000;stroke-opacity:0.991228;">
                <path
                   style="fill:none;fill-rule:evenodd;stroke:#000000;stroke-opacity:0.991228;stroke-width:5;stroke-linejoin:miter;stroke-linecap:butt;fill-opacity:1;stroke-dasharray:none;"
                   d="M 241.444 354.256 L 241.028 395.468 "
                   id="path589" />
                <path
                   style="fill:none;fill-rule:evenodd;stroke:#000000;stroke-opacity:0.991228;stroke-width:5;stroke-linejoin:miter;stroke-linecap:butt;fill-opacity:1;stroke-dasharray:none;"
                   d="M 254.973 358.627 L 254.765 402.753 "
                   id="path592" />
                <path
                   style="fill:none;fill-rule:evenodd;stroke:#000000;stroke-opacity:0.991228;stroke-width:5;stroke-linejoin:miter;stroke-linecap:butt;fill-opacity:1;stroke-dasharray:none;"
                   d="M 269.959 360.5 L 269.543 406.708 "
                   id="path593" />
                <path
                   style="fill:none;fill-rule:evenodd;stroke:#000000;stroke-opacity:0.991228;stroke-width:5;stroke-linejoin:miter;stroke-linecap:butt;fill-opacity:1;stroke-dasharray:none;"
                   d="M 283.489 361.541 L 283.28 408.373 "
                   id="path594" />
                <path
                   style="fill:none;fill-rule:evenodd;stroke:#000000;stroke-opacity:0.991228;stroke-width:5;stroke-linejoin:miter;stroke-linecap:butt;fill-opacity:1;stroke-dasharray:none;"
                   d="M 298.683 361.957 L 298.683 408.789 "
                   id="path595" />
                <path
                   style="fill:none;fill-rule:evenodd;stroke:#000000;stroke-opacity:0.991228;stroke-width:5;stroke-linejoin:miter;stroke-linecap:butt;fill-opacity:1;stroke-dasharray:none;"
                   d="M 313.253 361.749 L 313.461 408.581 "
                   id="path598" />
                <path
                   style="fill:none;fill-rule:evenodd;stroke:#000000;stroke-opacity:0.991228;stroke-width:5;stroke-linejoin:miter;stroke-linecap:butt;fill-opacity:1;stroke-dasharray:none;"
                   d="M 326.782 360.5 L 327.198 406.5 "
                   id="path599"
                   transform="translate(-0.416260,-3.051758e-5)" />
                <path
                   style="fill:none;fill-rule:evenodd;stroke:#000000;stroke-opacity:0.991228;stroke-width:5;stroke-linejoin:miter;stroke-linecap:butt;fill-opacity:1;stroke-dasharray:none;"
                   d="M 341.56 358.003 L 341.768 402.129 "
                   id="path604" />
                <path
                   style="fill:none;fill-rule:evenodd;stroke:#000000;stroke-opacity:0.991228;stroke-width:5;stroke-linejoin:miter;stroke-linecap:butt;fill-opacity:1;stroke-dasharray:none;"
                   d="M 355.297 352.591 L 355.714 394.219 "
                   id="path606" />
              </g>
            </g>
          </g>
        </g>
        <g
           id="g675"
           style="font-size:12;fill:none;fill-opacity:1;stroke:#000000;stroke-opacity:0.991228;">
          <path
             style="fill:none;fill-rule:evenodd;stroke:#000000;stroke-opacity:0.991228;stroke-width:12.5;stroke-linejoin:round;stroke-linecap:round;fill-opacity:1;stroke-dasharray:none;"
             d="M 171.498 235.561 C 152.362 216.958 138.988 184.673 137.132 149.809 C 135.117 111.389 155.35 73.2389 185.669 51.4898 C 219.638 27.5804 276.435 20.9678 311.751 22.7523 C 335.672 22.7689 388.957 35.1725 407.766 49.18 C 440.76 73.1701 458.454 107.22 459.68 146.03 C 461.493 185.013 445.074 214.705 424.969 233.236 "
             id="path573"
             sodipodi:nodetypes="csssssc" />
          <path
             style="fill:none;fill-rule:evenodd;stroke:#000000;stroke-opacity:0.991228;stroke-width:12.5;stroke-linejoin:round;stroke-linecap:butt;fill-opacity:1;stroke-dasharray:none;"
             d="M 172.662 126.267 C 164.91 133.049 165.888 143.244 167.284 158.459 C 168.386 170.019 175.762 181.398 176.15 191.959 C 178.862 214.244 172.274 236.529 169.173 254.745 C 167.041 275.673 173.05 293.695 180.801 300.671 C 188.552 307.551 198.557 310.4 209.069 313.607 C 218.62 316.105 223.573 320.449 230.797 325.835 C 239.403 334.972 241.456 342.529 241.262 351.831 "
             id="path580"
             sodipodi:nodetypes="cscccscc" />
          <path
             style="fill:none;fill-rule:evenodd;stroke:#000000;stroke-opacity:0.991228;stroke-width:12.5;stroke-linejoin:round;stroke-linecap:butt;fill-opacity:1;stroke-dasharray:none;"
             d="M 172.662 126.267 C 164.91 133.049 165.888 143.244 167.284 158.459 C 168.386 170.019 175.762 181.398 176.15 191.959 C 178.862 214.244 172.274 236.529 169.173 254.745 C 167.041 275.673 173.05 293.695 180.801 300.671 C 188.552 307.551 202.738 311.246 209.069 313.607 C 216.446 316.188 223.989 320.865 230.797 326.251 C 238.987 334.139 241.456 342.529 241.262 351.831 "
             id="path581"
             sodipodi:nodetypes="cscccscc"
             transform="matrix(-1.000000,0.000000,0.000000,1.000000,597.7228,-0.581390)" />
          <path
             style="fill:none;fill-rule:evenodd;stroke:#000000;stroke-opacity:0.991228;stroke-width:12.5;stroke-linejoin:miter;stroke-linecap:butt;fill-opacity:1;stroke-dasharray:none;"
             d="M 194.821 310.959 C 201.759 327.749 209.113 344.123 209.807 361.329 C 206.616 375.205 207.587 391.579 211.056 404.623 C 215.497 422.523 232.842 443.753 250.188 450.83 C 267.949 457.282 279.05 458.948 298.892 458.948 "
             id="path613"
             sodipodi:nodetypes="ccccc" />
          <path
             style="fill:none;fill-rule:evenodd;stroke:#000000;stroke-opacity:0.991228;stroke-width:12.5;stroke-linejoin:miter;stroke-linecap:butt;fill-opacity:1;stroke-dasharray:none;"
             d="M 194.821 310.959 C 201.759 327.749 209.113 344.123 209.807 361.329 C 206.616 375.205 207.587 391.579 211.056 404.623 C 215.497 422.523 233.05 443.129 250.396 450.206 C 267.741 457.283 278.841 458.948 298.684 458.948 "
             id="path614"
             sodipodi:nodetypes="ccccc"
             transform="matrix(-1.000000,0.000000,0.000000,1.000000,596.7438,-3.051758e-5)" />
        </g>
      </g>
      <g
         id="g770"
         style="stroke:#000000;stroke-opacity:0.991228;">
        <path
           style="fill:none;fill-rule:evenodd;stroke:#000000;stroke-opacity:0.991228;stroke-width:12.5;stroke-linejoin:round;stroke-linecap:butt;fill-opacity:1;stroke-dasharray:none;"
           d="M 391.308 389.636 L 459.58 421.274 C 467.905 424.743 474.565 423.633 480.81 421.69 C 490.662 418.776 498.432 420.442 506.619 423.772 C 516.471 428.767 516.75 435.844 510.367 442.921 C 504.539 449.72 498.71 453.189 491.634 459.988 C 490.107 470.95 491.078 481.08 486.221 491.21 C 480.116 500.09 473.594 498.564 463.326 489.128 C 452.919 481.079 456.665 472.199 441.679 459.155 L 378.403 426.269 L 378.403 426.269 "
           id="path765"
           sodipodi:nodetypes="ccccccccccc" />
        <path
           style="fill:none;fill-rule:evenodd;stroke:#000000;stroke-opacity:0.991228;stroke-width:12.5;stroke-linejoin:round;stroke-linecap:butt;fill-opacity:1;stroke-dasharray:none;"
           d="M 204.812 389.22 C 182.055 401.292 161.38 412.531 135.293 422.522 C 114.062 427.795 114.895 414.752 89.0851 423.355 C 81.7307 429.183 81.8695 437.508 87.8363 443.752 C 94.7745 450.552 99.6313 454.854 105.737 460.821 C 107.68 469.424 107.957 476.778 109.067 487.046 C 113.23 499.674 122.388 498.98 130.297 492.875 C 133.766 488.573 138.068 484.688 140.704 479.97 C 144.312 473.726 148.336 466.649 153.193 460.821 L 216.052 427.518 "
           id="path766"
           sodipodi:nodetypes="cccccccccc" />
        <path
           style="fill:none;fill-rule:evenodd;stroke:#000000;stroke-opacity:0.991228;stroke-width:12.5;stroke-linejoin:round;stroke-linecap:square;fill-opacity:1;stroke-dasharray:none;"
           d="M 401.299 321.365 C 427.109 308.599 448.339 298.33 471.651 286.813 C 485.943 274.88 482.336 263.362 493.715 254.759 C 504.954 244.074 512.447 246.711 516.61 252.678 C 520.634 262.807 522.577 272.937 522.022 283.483 C 532.706 293.335 538.396 299.024 544.502 308.045 C 545.334 319.423 535.343 324.14 523.271 324.279 C 507.452 327.193 504.954 317.202 487.054 324.279 L 392.557 368.821 L 392.557 368.821 "
           id="path767"
           sodipodi:nodetypes="cccccccccc" />
        <path
           style="fill:none;fill-rule:evenodd;stroke:#000000;stroke-opacity:0.991228;stroke-width:12.5;stroke-linejoin:round;stroke-linecap:butt;fill-opacity:1;stroke-dasharray:none;"
           d="M 197.22 322.353 C 171.12 309.597 149.436 300.079 123.63 285.852 C 109.599 274.666 114.113 262.008 97.1383 251.706 C 89.6812 247.978 84.2847 246.31 78.2994 256.416 C 74.4727 265.444 74.7671 275.059 74.1784 284.381 C 67.5063 291.543 59.9511 295.763 54.4564 304.692 C 46.5087 317.448 58.5773 321.667 65.0532 323.237 C 83.4995 327.848 90.1715 319.508 107.146 322.942 C 140.213 338.347 173.573 354.34 205.462 370.039 "
           id="path769"
           sodipodi:nodetypes="ccccccccc" />
      </g>
    </g>
  </g>
</svg>
