<?xml version="1.0" encoding="UTF-8" standalone="no"?>
<!DOCTYPE svg PUBLIC "-//W3C//DTD SVG 1.0//EN"
"http://www.w3.org/TR/2001/REC-SVG-20010904/DTD/svg10.dtd">
<svg
   xmlns="http://www.w3.org/2000/svg"
   xmlns:xlink="http://www.w3.org/1999/xlink"
   version="1.0"
   x="0"
   y="0"
   width="708.661377"
   height="496.062988"
   id="svg1">
  <defs
     id="defs3" />
  <rect
     width="708.487488"
     height="496.063019"
     x="0"
     y="-0.00000047"
     style="font-size:12;fill:#ffffff;fill-rule:evenodd;stroke-width:1.37908pt;"
     id="rect578" />
  <g
     transform="translate(1.012128,-29.17867)"
     style="font-size:12;"
     id="g583">
    <polygon
       points="234.952,131.472 234.952,131.472 24.9519,252.715 24.9519,252.715 24.9519,10.2284 24.9519,10.2284 234.952,131.472 "
       transform="matrix(-5.010518e-16,-1.169009,1.169011,-5.010519e-16,200.6386,411.1402)"
       style="fill:#ff0000;fill-rule:evenodd;stroke-width:1pt;"
       id="polygon576" />
    <path
       d="M 397.88487 404.08104 C 397.88487 409.95504 397.81887 413.71704 397.75287 414.34404 C 397.58787 415.96104 397.22487 416.35704 396.26787 416.35704 L 395.14587 416.35704 C 394.98087 416.35704 394.94787 416.45604 394.94787 416.55504 L 394.94787 417.41304 C 394.94787 417.57804 394.98087 417.64404 395.11287 417.64404 C 395.44287 417.64404 397.71987 417.54504 398.41287 417.54504 C 399.30387 417.54504 401.28387 417.64404 401.61387 417.64404 C 401.84487 417.64404 401.87787 417.57804 401.87787 417.38004 L 401.87787 416.65404 C 401.87787 416.45604 401.84487 416.35704 401.61387 416.35704 L 400.62387 416.35704 C 399.73287 416.35704 399.53487 415.73004 399.40287 414.44304 C 399.33687 413.78304 399.07287 408.40404 399.07287 405.33504 L 399.07287 398.00904 L 399.27087 398.00904 C 399.46887 398.27304 405.54087 405.89604 405.90387 406.22604 C 406.10187 406.42404 408.51087 409.46004 410.82087 412.33104 C 412.86687 414.90504 414.81387 417.34704 414.84687 417.41304 C 414.94587 417.54504 415.24287 417.94104 415.63887 417.94104 C 415.77087 417.94104 415.80387 417.61104 415.80387 417.14904 L 415.80387 404.80704 C 415.80387 402.66204 415.80387 399.39504 415.93587 397.18404 C 416.00187 395.93004 416.33187 395.36904 417.22287 395.36904 L 418.11387 395.36904 C 418.24587 395.36904 418.31187 395.27004 418.31187 395.13804 L 418.31187 394.31304 C 418.31187 394.18104 418.27887 394.08204 418.04787 394.08204 C 417.61887 394.08204 416.82687 394.18104 414.84687 394.18104 C 412.73487 394.18104 411.67887 394.08204 411.21687 394.08204 C 411.08487 394.08204 411.01887 394.14804 411.01887 394.28004 L 411.01887 395.13804 C 411.01887 395.30304 411.08487 395.36904 411.21687 395.36904 L 412.27287 395.36904 C 413.19687 395.36904 413.82387 395.83104 414.08787 396.65604 C 414.28587 397.21704 414.45087 400.45104 414.48387 401.73804 C 414.54987 403.38804 414.58287 405.00504 414.58287 407.94204 L 414.58287 411.86904 L 414.45087 411.86904 C 413.65887 410.81304 408.08187 403.98204 407.71887 403.52004 C 407.35587 403.05804 400.95387 394.74204 400.78887 394.54404 C 400.52487 394.24704 400.26087 394.11504 399.83187 394.11504 C 399.43587 394.11504 398.74287 394.18104 397.62087 394.18104 C 395.37687 394.18104 394.68387 394.08204 394.35387 394.08204 C 394.18887 394.08204 394.15587 394.14804 394.15587 394.28004 L 394.15587 395.13804 C 394.15587 395.23704 394.18887 395.36904 394.35387 395.36904 L 395.70687 395.40204 C 396.89487 395.43504 397.88487 396.52404 397.88487 398.47104 L 397.88487 404.08104 z M 378.51387 395.23704 L 384.38787 395.36904 C 385.27887 395.40204 386.20287 395.79804 386.89587 396.26004 C 387.68787 396.75504 390.12987 399.89004 390.19587 400.02204 C 390.22887 400.08804 390.36087 400.18704 390.45987 400.12104 L 390.95487 399.85704 C 391.08687 399.79104 391.08687 399.69204 391.05387 399.56004 C 390.95487 399.23004 389.50287 394.70904 389.37087 394.24704 C 389.33787 394.14804 389.27187 394.08204 389.10687 394.08204 C 388.94187 394.08204 388.31487 394.14804 387.78687 394.14804 C 384.51987 394.14804 381.25287 394.18104 377.98587 394.18104 L 376.53387 394.18104 C 374.35587 394.18104 373.20087 394.08204 372.47487 394.08204 C 372.30987 394.08204 372.24387 394.14804 372.24387 394.24704 L 372.24387 395.13804 C 372.24387 395.33604 372.34287 395.36904 372.50787 395.36904 L 373.69587 395.36904 C 374.91687 395.36904 375.24687 395.60004 375.37887 396.65604 C 375.41187 396.98604 375.47787 401.11104 375.47787 403.85004 L 375.47787 407.08404 L 375.47787 414.90504 C 375.47787 416.12604 375.34587 416.35704 373.82787 416.35704 L 372.50787 416.35704 C 372.27687 416.35704 372.17787 416.39004 372.17787 416.52204 L 372.17787 417.41304 C 372.17787 417.57804 372.27687 417.64404 372.47487 417.64404 C 373.06887 417.64404 374.22387 417.54504 376.69887 417.54504 C 386.96187 417.54504 389.56887 417.64404 389.89887 417.64404 C 390.29487 417.64404 390.52587 417.44604 390.62487 417.14904 L 392.37387 412.29804 C 392.47287 412.03404 392.47287 411.93504 392.30787 411.83604 L 391.77987 411.53904 C 391.58187 411.44004 391.48287 411.57204 391.38387 411.73704 C 390.92187 412.49604 389.07387 414.87204 388.67787 415.20204 C 387.81987 415.92804 386.36787 416.29104 385.80687 416.35704 C 385.11387 416.42304 383.46387 416.45604 382.90287 416.45604 C 382.07787 416.45604 381.12087 416.35704 380.46087 416.22504 C 379.43787 416.02704 378.61287 415.36704 378.57987 413.65104 C 378.57987 412.99104 378.51387 409.79004 378.51387 408.00804 L 378.51387 405.96204 C 379.04187 405.96204 381.31887 405.96204 382.86987 406.12704 C 383.72787 406.22604 384.09087 406.72104 384.28887 407.41404 C 384.38787 407.77704 384.58587 408.53604 384.65187 408.96504 C 384.68487 409.19604 384.75087 409.29504 384.91587 409.26204 L 385.64187 409.16304 C 385.77387 409.13004 385.83987 409.06404 385.83987 408.89904 C 385.77387 408.20604 385.64187 406.62204 385.64187 405.46704 C 385.64187 404.97204 385.64187 402.26604 385.74087 401.70504 C 385.77387 401.57304 385.70787 401.44104 385.54287 401.44104 L 384.71787 401.40804 C 384.58587 401.40804 384.48687 401.47404 384.48687 401.63904 C 384.45387 402.26604 384.32187 402.92604 384.22287 403.25604 C 383.92587 404.27904 383.66187 404.54304 382.70487 404.70804 C 382.30887 404.77404 378.77787 404.90604 378.51387 404.90604 L 378.51387 395.23704 z M 347.03187 394.64304 C 346.86687 394.21404 346.66887 394.08204 346.17387 394.08204 C 345.77787 394.08204 344.91987 394.18104 343.36887 394.18104 C 340.56387 394.18104 339.67287 394.08204 339.34287 394.08204 C 339.14487 394.08204 339.11187 394.18104 339.11187 394.28004 L 339.11187 395.13804 C 339.11187 395.27004 339.14487 395.36904 339.34287 395.36904 L 341.35587 395.36904 C 342.70887 395.36904 342.67587 395.83104 342.70887 396.59004 C 342.74187 397.54704 342.74187 402.53004 342.74187 402.99204 C 342.74187 403.58604 342.64287 412.03404 342.24687 414.37704 C 342.04887 415.49904 341.75187 416.35704 340.49787 416.35704 L 338.74887 416.35704 C 338.58387 416.35704 338.55087 416.45604 338.55087 416.55504 L 338.55087 417.34704 C 338.55087 417.61104 338.58387 417.64404 338.84787 417.64404 C 339.14487 417.64404 340.29987 417.54504 343.10487 417.54504 C 345.84387 417.54504 346.73487 417.64404 347.09787 417.64404 C 347.36187 417.64404 347.39487 417.54504 347.39487 417.41304 L 347.39487 416.58804 C 347.39487 416.45604 347.36187 416.35704 347.16387 416.35704 L 345.51387 416.35704 C 344.45787 416.35704 344.16087 415.82904 343.99587 413.94804 C 343.89687 412.79304 343.92987 405.83004 343.92987 405.43404 C 343.92987 405.03804 343.99587 396.68904 344.12787 396.22704 C 344.58987 396.62304 347.59287 404.01504 348.21987 405.53304 C 348.38487 405.92904 352.60887 416.35704 352.70787 416.58804 C 352.83987 416.91804 353.00487 417.18204 353.20287 417.18204 C 353.46687 417.18204 353.73087 416.68704 353.86287 416.39004 C 353.99487 416.09304 357.65787 407.67804 357.85587 407.28204 C 358.02087 406.95204 362.70687 396.55704 363.03687 396.12804 L 363.10287 396.12804 C 363.20187 396.42504 363.20187 402.29904 363.20187 404.47704 L 363.20187 406.58904 C 363.20187 409.03104 363.16887 414.77304 363.13587 415.16904 C 363.06987 416.15904 362.77287 416.35704 362.21187 416.35704 L 359.96787 416.35704 C 359.73687 416.35704 359.70387 416.42304 359.70387 416.58804 L 359.70387 417.34704 C 359.70387 417.54504 359.73687 417.64404 359.96787 417.64404 C 360.39687 417.64404 361.68387 417.54504 364.71987 417.54504 C 368.34987 417.54504 368.94387 417.64404 369.33987 417.64404 C 369.60387 417.64404 369.63687 417.54504 369.63687 417.34704 L 369.63687 416.58804 C 369.63687 416.45604 369.60387 416.35704 369.40587 416.35704 L 367.45887 416.35704 C 366.63387 416.35704 366.33687 415.82904 366.33687 414.57504 C 366.33687 413.91504 366.23787 408.56904 366.23787 406.91904 L 366.23787 404.60904 C 366.23787 402.39804 366.33687 397.67904 366.33687 396.72204 C 366.33687 395.96304 366.43587 395.36904 367.42587 395.36904 L 368.87787 395.36904 C 369.10887 395.36904 369.14187 395.27004 369.14187 395.07204 L 369.14187 394.31304 C 369.14187 394.18104 369.10887 394.08204 368.94387 394.08204 C 368.58087 394.08204 367.45887 394.18104 363.06987 394.18104 C 362.73987 394.18104 362.37687 394.21404 362.31087 394.57704 C 362.21187 395.23704 358.61487 402.99204 358.38387 403.45404 C 358.11987 403.88304 354.81987 411.77004 354.35787 412.26504 L 347.03187 394.64304 z M 329.11287 408.37104 C 329.57487 409.69104 330.92787 413.91504 331.19187 415.10304 C 331.42287 416.02704 331.12587 416.35704 330.20187 416.35704 L 329.37687 416.35704 C 329.17887 416.35704 329.07987 416.39004 329.07987 416.58804 L 329.07987 417.34704 C 329.07987 417.54504 329.17887 417.64404 329.34387 417.64404 C 330.10287 417.64404 331.25787 417.54504 333.99687 417.54504 C 336.66987 417.54504 337.36287 417.64404 337.95687 417.64404 C 338.18787 417.64404 338.28687 417.57804 338.28687 417.41304 L 338.28687 416.58804 C 338.28687 416.45604 338.22087 416.35704 338.02287 416.35704 L 336.93387 416.35704 C 336.10887 416.35704 335.25087 415.96104 334.68987 414.87204 C 334.22787 413.91504 332.08287 407.77704 331.32387 405.20304 C 330.69687 403.09104 328.12287 395.69904 327.49587 393.62004 C 327.39687 393.25704 327.33087 393.05904 327.13287 393.05904 C 326.96787 393.05904 326.86887 393.19104 326.70387 393.35604 C 326.34087 393.81804 324.88887 394.80804 323.96487 395.00604 C 323.73387 395.07204 323.66787 395.20404 323.66787 395.30304 C 323.66787 395.43504 323.79987 395.60004 323.89887 395.73204 C 324.12987 396.09504 323.96487 396.52404 323.86587 396.85404 C 323.56887 397.74504 320.89587 404.84004 320.66487 405.50004 C 319.70787 408.20604 317.29887 414.31104 317.06787 414.83904 C 316.60587 415.89504 316.14387 416.35704 315.15387 416.35704 L 313.99887 416.35704 C 313.86687 416.35704 313.73487 416.42304 313.73487 416.58804 L 313.73487 417.38004 C 313.73487 417.57804 313.80087 417.64404 313.96587 417.64404 C 314.42787 417.64404 315.15387 417.54504 317.56287 417.54504 C 319.50987 417.54504 320.86287 417.64404 321.32487 417.64404 C 321.48987 417.64404 321.58887 417.57804 321.58887 417.34704 L 321.58887 416.58804 C 321.58887 416.42304 321.48987 416.35704 321.25887 416.35704 L 319.70787 416.35704 C 318.98187 416.35704 318.58587 416.09304 318.58587 415.63104 C 318.58587 415.46604 318.65187 415.13604 318.68487 414.90504 C 318.84987 414.21204 320.66487 409.19604 320.99487 408.37104 L 329.11287 408.37104 z M 321.42387 407.18304 C 321.65487 406.35804 324.78987 397.91004 324.95487 397.48104 C 325.05387 397.21704 325.18587 396.98604 325.31787 396.98604 C 325.41687 396.98604 325.48287 397.21704 325.58187 397.44804 C 325.74687 397.94304 328.41987 406.19304 328.71687 407.18304 L 321.42387 407.18304 z M 300.40287 403.85004 C 300.40287 404.47704 300.40287 414.60804 300.30387 415.56504 C 300.27087 415.96104 299.87487 416.35704 299.21487 416.35704 L 296.97087 416.35704 C 296.77287 416.35704 296.73987 416.45604 296.73987 416.68704 L 296.73987 417.31404 C 296.73987 417.51204 296.77287 417.64404 297.03687 417.64404 C 297.49887 417.64404 298.88487 417.54504 302.05287 417.54504 C 305.28687 417.54504 306.34287 417.64404 306.67287 417.64404 C 306.96987 417.64404 307.00287 417.54504 307.00287 417.38004 L 307.00287 416.68704 C 307.00287 416.45604 306.96987 416.35704 306.67287 416.35704 L 304.59387 416.35704 C 303.80187 416.35704 303.53787 415.86204 303.47187 415.03704 C 303.43887 414.47604 303.43887 405.23604 303.43887 404.77404 L 303.43887 395.36904 L 304.36287 395.36904 C 305.97987 395.36904 309.08187 395.43504 310.07187 395.93004 C 311.16087 396.45804 312.15087 398.99904 312.41487 399.62604 C 312.51387 399.85704 312.54687 399.89004 312.67887 399.85704 L 313.20687 399.72504 C 313.37187 399.69204 313.43787 399.62604 313.40487 399.46104 C 313.14087 398.00904 312.51387 393.91704 312.44787 393.52104 C 312.38187 393.09204 312.31587 392.99304 312.15087 392.99304 C 312.01887 392.99304 311.91987 393.02604 311.75487 393.12504 L 311.12787 393.52104 C 310.56687 393.85104 310.13787 393.95004 309.41187 393.98304 C 307.79487 394.04904 306.37587 394.18104 302.77887 394.18104 L 301.19487 394.18104 C 298.09287 394.18104 296.70687 394.04904 294.95787 393.98304 C 294.00087 393.95004 293.67087 393.85104 293.07687 393.42204 L 292.64787 393.12504 C 292.51587 393.02604 292.41687 392.99304 292.25187 392.99304 C 292.11987 392.99304 291.98787 393.09204 291.92187 393.52104 C 291.85587 393.88404 290.70087 398.14104 290.37087 399.32904 C 290.30487 399.52704 290.40387 399.56004 290.50287 399.59304 L 291.09687 399.75804 C 291.26187 399.79104 291.36087 399.75804 291.42687 399.59304 C 291.88887 398.53704 292.87887 396.22704 294.36387 395.76504 C 295.65087 395.36904 298.52187 395.36904 299.57787 395.36904 L 300.40287 395.36904 L 300.40287 403.85004 z "
       style="font-size:33;font-weight:normal;stroke-width:1pt;font-family:AdobeCaslon;"
       id="path653" />
    <path
       d="M -20.143858 363.63627 C -15.787858 363.63627 -13.411858 360.30327 -13.411858 356.40927 C -13.411858 354.23127 -14.005858 352.94427 -14.863858 351.92127 C -16.051858 350.46927 -17.899858 349.90827 -20.176858 349.18227 C -21.133858 348.88527 -22.981858 348.15927 -23.938858 347.20227 C -24.763858 346.34427 -24.961858 345.25527 -24.961858 344.33127 C -24.961858 342.64827 -23.905858 340.47027 -20.968858 340.47027 C -19.417858 340.47027 -18.262858 340.93227 -17.371858 341.88927 C -16.018858 343.30827 -15.589858 344.59527 -15.325858 345.55227 C -15.292858 345.65127 -15.226858 345.68427 -15.127858 345.65127 L -14.731858 345.55227 C -14.599858 345.51927 -14.566858 345.45327 -14.566858 345.28827 C -14.599858 344.56227 -15.028858 341.19627 -15.028858 340.04127 C -15.028858 339.74427 -15.127858 339.48027 -15.292858 339.48027 C -15.457858 339.48027 -15.556858 339.54627 -15.721858 339.67827 L -16.150858 340.07427 C -16.315858 340.23927 -16.480858 340.27227 -16.777858 340.10727 C -17.338858 339.84327 -18.790858 339.28227 -20.671858 339.28227 C -22.453858 339.28227 -24.103858 339.74427 -25.291858 340.86627 C -26.314858 341.82327 -27.337858 343.44027 -27.337858 345.09027 C -27.337858 347.26827 -26.776858 348.81927 -25.687858 349.90827 C -24.268858 351.39327 -21.892858 352.21827 -20.869858 352.58127 C -18.229858 353.50527 -15.787858 354.75927 -15.787858 358.15827 C -15.787858 361.12827 -18.295858 362.34927 -20.275858 362.34927 C -22.090858 362.34927 -23.905858 361.45827 -24.895858 359.90727 C -25.984858 358.22427 -26.050858 357.13527 -26.083858 356.07927 C -26.083858 355.88127 -26.149858 355.81527 -26.281858 355.81527 L -26.776858 355.78227 C -26.908858 355.78227 -26.974858 355.78227 -27.007858 355.98027 C -27.106858 356.93727 -27.436858 361.12827 -27.568858 361.95327 C -27.634858 362.31627 -27.469858 362.48127 -27.271858 362.48127 C -27.040858 362.48127 -26.875858 362.44827 -26.677858 362.08527 C -26.479858 361.75527 -26.347858 361.52427 -26.149858 361.52427 C -25.984858 361.52427 -25.786858 361.62327 -25.390858 361.92027 C -24.070858 362.94327 -22.453858 363.63627 -20.143858 363.63627 z M -38.953858 353.96727 C -38.491858 355.28727 -37.138858 359.51127 -36.874858 360.69927 C -36.643858 361.62327 -36.940858 361.95327 -37.864858 361.95327 L -38.689858 361.95327 C -38.887858 361.95327 -38.986858 361.98627 -38.986858 362.18427 L -38.986858 362.94327 C -38.986858 363.14127 -38.887858 363.24027 -38.722858 363.24027 C -37.963858 363.24027 -36.808858 363.14127 -34.069858 363.14127 C -31.396858 363.14127 -30.703858 363.24027 -30.109858 363.24027 C -29.878858 363.24027 -29.779858 363.17427 -29.779858 363.00927 L -29.779858 362.18427 C -29.779858 362.05227 -29.845858 361.95327 -30.043858 361.95327 L -31.132858 361.95327 C -31.957858 361.95327 -32.815858 361.55727 -33.376858 360.46827 C -33.838858 359.51127 -35.983858 353.37327 -36.742858 350.79927 C -37.369858 348.68727 -39.943858 341.29527 -40.570858 339.21627 C -40.669858 338.85327 -40.735858 338.65527 -40.933858 338.65527 C -41.098858 338.65527 -41.197858 338.78727 -41.362858 338.95227 C -41.725858 339.41427 -43.177858 340.40427 -44.101858 340.60227 C -44.332858 340.66827 -44.398858 340.80027 -44.398858 340.89927 C -44.398858 341.03127 -44.266858 341.19627 -44.167858 341.32827 C -43.936858 341.69127 -44.101858 342.12027 -44.200858 342.45027 C -44.497858 343.34127 -47.170858 350.43627 -47.401858 351.09627 C -48.358858 353.80227 -50.767858 359.90727 -50.998858 360.43527 C -51.460858 361.49127 -51.922858 361.95327 -52.912858 361.95327 L -54.067858 361.95327 C -54.199858 361.95327 -54.331858 362.01927 -54.331858 362.18427 L -54.331858 362.97627 C -54.331858 363.17427 -54.265858 363.24027 -54.100858 363.24027 C -53.638858 363.24027 -52.912858 363.14127 -50.503858 363.14127 C -48.556858 363.14127 -47.203858 363.24027 -46.741858 363.24027 C -46.576858 363.24027 -46.477858 363.17427 -46.477858 362.94327 L -46.477858 362.18427 C -46.477858 362.01927 -46.576858 361.95327 -46.807858 361.95327 L -48.358858 361.95327 C -49.084858 361.95327 -49.480858 361.68927 -49.480858 361.22727 C -49.480858 361.06227 -49.414858 360.73227 -49.381858 360.50127 C -49.216858 359.80827 -47.401858 354.79227 -47.071858 353.96727 L -38.953858 353.96727 z M -46.642858 352.77927 C -46.411858 351.95427 -43.276858 343.50627 -43.111858 343.07727 C -43.012858 342.81327 -42.880858 342.58227 -42.748858 342.58227 C -42.649858 342.58227 -42.583858 342.81327 -42.484858 343.04427 C -42.319858 343.53927 -39.646858 351.78927 -39.349858 352.77927 L -46.642858 352.77927 z M -67.663858 349.44627 C -67.663858 350.07327 -67.663858 360.20427 -67.762858 361.16127 C -67.795858 361.55727 -68.191858 361.95327 -68.851858 361.95327 L -71.095858 361.95327 C -71.293858 361.95327 -71.326858 362.05227 -71.326858 362.28327 L -71.326858 362.91027 C -71.326858 363.10827 -71.293858 363.24027 -71.029858 363.24027 C -70.567858 363.24027 -69.181858 363.14127 -66.013858 363.14127 C -62.779858 363.14127 -61.723858 363.24027 -61.393858 363.24027 C -61.096858 363.24027 -61.063858 363.14127 -61.063858 362.97627 L -61.063858 362.28327 C -61.063858 362.05227 -61.096858 361.95327 -61.393858 361.95327 L -63.472858 361.95327 C -64.264858 361.95327 -64.528858 361.45827 -64.594858 360.63327 C -64.627858 360.07227 -64.627858 350.83227 -64.627858 350.37027 L -64.627858 340.96527 L -63.703858 340.96527 C -62.086858 340.96527 -58.984858 341.03127 -57.994858 341.52627 C -56.905858 342.05427 -55.915858 344.59527 -55.651858 345.22227 C -55.552858 345.45327 -55.519858 345.48627 -55.387858 345.45327 L -54.859858 345.32127 C -54.694858 345.28827 -54.628858 345.22227 -54.661858 345.05727 C -54.925858 343.60527 -55.552858 339.51327 -55.618858 339.11727 C -55.684858 338.68827 -55.750858 338.58927 -55.915858 338.58927 C -56.047858 338.58927 -56.146858 338.62227 -56.311858 338.72127 L -56.938858 339.11727 C -57.499858 339.44727 -57.928858 339.54627 -58.654858 339.57927 C -60.271858 339.64527 -61.690858 339.77727 -65.287858 339.77727 L -66.871858 339.77727 C -69.973858 339.77727 -71.359858 339.64527 -73.108858 339.57927 C -74.065858 339.54627 -74.395858 339.44727 -74.989858 339.01827 L -75.418858 338.72127 C -75.550858 338.62227 -75.649858 338.58927 -75.814858 338.58927 C -75.946858 338.58927 -76.078858 338.68827 -76.144858 339.11727 C -76.210858 339.48027 -77.365858 343.73727 -77.695858 344.92527 C -77.761858 345.12327 -77.662858 345.15627 -77.563858 345.18927 L -76.969858 345.35427 C -76.804858 345.38727 -76.705858 345.35427 -76.639858 345.18927 C -76.177858 344.13327 -75.187858 341.82327 -73.702858 341.36127 C -72.415858 340.96527 -69.544858 340.96527 -68.488858 340.96527 L -67.663858 340.96527 L -67.663858 349.44627 z M -95.878858 351.32727 C -95.878858 354.46227 -95.878858 357.56427 -95.944858 360.83127 C -95.944858 361.72227 -96.505858 361.95327 -97.231858 361.95327 L -98.584858 361.95327 C -98.749858 361.95327 -98.749858 362.05227 -98.749858 362.21727 L -98.749858 362.97627 C -98.749858 363.14127 -98.749858 363.24027 -98.485858 363.24027 C -98.122858 363.24027 -97.363858 363.14127 -94.360858 363.14127 C -91.225858 363.14127 -90.400858 363.24027 -90.037858 363.24027 C -89.707858 363.24027 -89.674858 363.17427 -89.674858 362.94327 L -89.674858 362.21727 C -89.674858 362.05227 -89.707858 361.95327 -89.938858 361.95327 L -92.017858 361.95327 C -92.512858 361.95327 -92.776858 361.35927 -92.842858 360.66627 C -92.875858 360.17127 -92.908858 356.47527 -92.908858 354.52827 L -92.908858 352.68027 C -92.446858 352.58127 -92.116858 352.58127 -91.819858 352.58127 C -89.905858 352.58127 -89.113858 353.47227 -88.255858 354.49527 C -87.859858 354.95727 -86.275858 357.33327 -86.143858 357.56427 C -85.978858 357.82827 -84.196858 360.96327 -83.932858 361.35927 C -83.635858 361.78827 -82.909858 362.91027 -82.546858 363.24027 C -82.051858 363.20727 -80.830858 363.14127 -79.873858 363.14127 C -78.421858 363.14127 -77.563858 363.24027 -77.299858 363.24027 C -77.068858 363.24027 -77.035858 363.14127 -77.035858 362.94327 L -77.035858 362.21727 C -77.035858 362.08527 -77.068858 361.95327 -77.299858 361.95327 C -78.223858 361.95327 -78.982858 361.88727 -79.675858 361.39227 C -80.302858 360.93027 -82.414858 357.92727 -82.579858 357.59727 C -82.843858 357.16827 -85.186858 353.80227 -85.582858 353.37327 C -85.846858 353.01027 -86.308858 352.41627 -87.100858 352.11927 L -87.100858 352.05327 C -82.876858 351.12927 -80.995858 349.57827 -80.995858 345.45327 C -80.995858 344.23227 -81.622858 342.74727 -82.711858 341.69127 C -83.965858 340.50327 -86.143858 339.67827 -88.882858 339.67827 C -89.476858 339.67827 -92.545858 339.77727 -94.393858 339.77727 C -97.165858 339.77727 -98.188858 339.67827 -98.485858 339.67827 C -98.650858 339.67827 -98.683858 339.74427 -98.683858 339.90927 L -98.683858 340.73427 C -98.683858 340.86627 -98.650858 340.96527 -98.485858 340.96527 L -97.165858 340.96527 C -96.340858 340.96527 -95.944858 341.52627 -95.911858 342.61527 C -95.878858 343.57227 -95.878858 345.68427 -95.878858 348.12627 L -95.878858 351.32727 z M -92.908858 342.05427 C -92.908858 341.52627 -92.743858 341.16327 -92.512858 340.99827 C -92.215858 340.80027 -91.786858 340.73427 -91.390858 340.73427 C -88.651858 340.73427 -87.199858 341.22927 -85.912858 342.25227 C -84.955858 343.04427 -84.262858 344.49627 -84.262858 346.01427 C -84.262858 347.40027 -85.417858 351.52527 -91.423858 351.52527 C -92.050858 351.52527 -92.413858 351.49227 -92.908858 351.39327 L -92.908858 342.05427 z M -115.38186 340.83327 L -109.50786 340.96527 C -108.61686 340.99827 -107.69286 341.39427 -106.99986 341.85627 C -106.20786 342.35127 -103.76586 345.48627 -103.69986 345.61827 C -103.66686 345.68427 -103.53486 345.78327 -103.43586 345.71727 L -102.94086 345.45327 C -102.80886 345.38727 -102.80886 345.28827 -102.84186 345.15627 C -102.94086 344.82627 -104.39286 340.30527 -104.52486 339.84327 C -104.55786 339.74427 -104.62386 339.67827 -104.78886 339.67827 C -104.95386 339.67827 -105.58086 339.74427 -106.10886 339.74427 C -109.37586 339.74427 -112.64286 339.77727 -115.90986 339.77727 L -117.36186 339.77727 C -119.53986 339.77727 -120.69486 339.67827 -121.42086 339.67827 C -121.58586 339.67827 -121.65186 339.74427 -121.65186 339.84327 L -121.65186 340.73427 C -121.65186 340.93227 -121.55286 340.96527 -121.38786 340.96527 L -120.19986 340.96527 C -118.97886 340.96527 -118.64886 341.19627 -118.51686 342.25227 C -118.48386 342.58227 -118.41786 346.70727 -118.41786 349.44627 L -118.41786 352.68027 L -118.41786 360.50127 C -118.41786 361.72227 -118.54986 361.95327 -120.06786 361.95327 L -121.38786 361.95327 C -121.61886 361.95327 -121.71786 361.98627 -121.71786 362.11827 L -121.71786 363.00927 C -121.71786 363.17427 -121.61886 363.24027 -121.42086 363.24027 C -120.82686 363.24027 -119.67186 363.14127 -117.19686 363.14127 C -106.93386 363.14127 -104.32686 363.24027 -103.99686 363.24027 C -103.60086 363.24027 -103.36986 363.04227 -103.27086 362.74527 L -101.52186 357.89427 C -101.42286 357.63027 -101.42286 357.53127 -101.58786 357.43227 L -102.11586 357.13527 C -102.31386 357.03627 -102.41286 357.16827 -102.51186 357.33327 C -102.97386 358.09227 -104.82186 360.46827 -105.21786 360.79827 C -106.07586 361.52427 -107.52786 361.88727 -108.08886 361.95327 C -108.78186 362.01927 -110.43186 362.05227 -110.99286 362.05227 C -111.81786 362.05227 -112.77486 361.95327 -113.43486 361.82127 C -114.45786 361.62327 -115.28286 360.96327 -115.31586 359.24727 C -115.31586 358.58727 -115.38186 355.38627 -115.38186 353.60427 L -115.38186 351.55827 C -114.85386 351.55827 -112.57686 351.55827 -111.02586 351.72327 C -110.16786 351.82227 -109.80486 352.31727 -109.60686 353.01027 C -109.50786 353.37327 -109.30986 354.13227 -109.24386 354.56127 C -109.21086 354.79227 -109.14486 354.89127 -108.97986 354.85827 L -108.25386 354.75927 C -108.12186 354.72627 -108.05586 354.66027 -108.05586 354.49527 C -108.12186 353.80227 -108.25386 352.21827 -108.25386 351.06327 C -108.25386 350.56827 -108.25386 347.86227 -108.15486 347.30127 C -108.12186 347.16927 -108.18786 347.03727 -108.35286 347.03727 L -109.17786 347.00427 C -109.30986 347.00427 -109.40886 347.07027 -109.40886 347.23527 C -109.44186 347.86227 -109.57386 348.52227 -109.67286 348.85227 C -109.96986 349.87527 -110.23386 350.13927 -111.19086 350.30427 C -111.58686 350.37027 -115.11786 350.50227 -115.38186 350.50227 L -115.38186 340.83327 z M -140.46186 352.68027 C -140.46186 355.38627 -140.52786 359.74227 -140.62686 360.50127 C -140.75886 361.55727 -140.92386 361.95327 -141.94686 361.95327 L -143.53086 361.95327 C -143.76186 361.95327 -143.82786 362.01927 -143.82786 362.18427 L -143.82786 363.04227 C -143.82786 363.17427 -143.76186 363.24027 -143.36586 363.24027 C -142.73886 363.24027 -140.79186 363.14127 -139.14186 363.14127 C -137.75586 363.14127 -136.46886 363.24027 -134.19186 363.24027 C -131.15586 363.24027 -129.27486 362.91027 -127.88886 362.05227 C -126.37086 361.09527 -125.34786 358.78527 -125.34786 357.10227 C -125.34786 353.60427 -127.49286 351.62427 -130.69386 350.56827 L -130.79286 350.50227 C -128.21886 349.14927 -126.76686 348.32427 -126.76686 345.05727 C -126.76686 343.11027 -127.42686 341.59227 -129.30786 340.56927 C -130.46286 339.90927 -132.57486 339.67827 -135.14886 339.67827 C -136.30386 339.67827 -138.28386 339.77727 -139.33986 339.77727 C -141.71586 339.77727 -143.20086 339.67827 -143.72886 339.67827 C -143.92686 339.67827 -143.99286 339.74427 -143.99286 339.90927 L -143.99286 340.73427 C -143.99286 340.89927 -143.92686 340.96527 -143.72886 340.96527 L -142.70586 340.96527 C -141.18786 340.96527 -140.65986 341.03127 -140.56086 342.94527 C -140.52786 343.53927 -140.46186 347.56527 -140.46186 348.78627 L -140.46186 352.68027 z M -137.55786 351.19527 L -136.50186 351.19527 C -134.98386 351.19527 -133.43286 351.22827 -132.07986 351.75627 C -130.13286 352.51527 -128.77986 354.26427 -128.77986 356.93727 C -128.77986 360.86427 -131.32086 362.18427 -134.09286 362.18427 C -136.83186 362.18427 -137.55786 360.83127 -137.55786 357.79527 L -137.55786 353.24127 L -137.55786 351.19527 z M -137.55786 347.63127 C -137.55786 344.89227 -137.52486 342.02127 -137.49186 341.36127 C -137.49186 341.06427 -137.29386 340.83327 -137.02986 340.76727 C -136.76586 340.70127 -136.40286 340.73427 -135.94086 340.73427 C -134.25786 340.73427 -132.60786 341.03127 -131.41986 341.85627 C -130.19886 342.74727 -129.80286 344.06727 -129.80286 345.32127 C -129.80286 346.77327 -130.29786 348.25827 -131.65086 349.28127 C -132.44286 349.84227 -133.92786 350.13927 -135.80886 350.13927 C -136.36986 350.13927 -136.93086 350.13927 -137.55786 350.07327 L -137.55786 347.63127 z M -152.63886 351.62427 C -152.63886 353.37327 -152.73786 360.50127 -152.80386 360.99627 C -152.93586 361.85427 -153.62886 361.95327 -154.28886 361.95327 L -156.13686 361.95327 C -156.30186 361.95327 -156.40086 362.01927 -156.40086 362.15127 L -156.40086 363.04227 C -156.40086 363.17427 -156.30186 363.24027 -156.13686 363.24027 C -155.77386 363.24027 -154.35486 363.14127 -151.21986 363.14127 C -148.34886 363.14127 -147.02886 363.24027 -146.63286 363.24027 C -146.43486 363.24027 -146.33586 363.17427 -146.33586 363.04227 L -146.33586 362.18427 C -146.33586 362.01927 -146.43486 361.95327 -146.59986 361.95327 L -147.95286 361.95327 C -149.00886 361.95327 -149.50386 361.78827 -149.50386 360.76527 C -149.50386 360.40227 -149.60286 352.77927 -149.60286 352.44927 L -149.60286 349.90827 C -149.60286 349.51227 -149.50386 342.21927 -149.50386 341.88927 C -149.50386 341.22927 -149.00886 340.96527 -148.34886 340.96527 L -146.79786 340.96527 C -146.63286 340.96527 -146.53386 340.89927 -146.53386 340.73427 L -146.53386 339.90927 C -146.53386 339.77727 -146.59986 339.67827 -146.76486 339.67827 C -147.22686 339.67827 -148.28286 339.77727 -151.21986 339.77727 C -154.28886 339.77727 -155.97186 339.67827 -156.36786 339.67827 C -156.49986 339.67827 -156.59886 339.74427 -156.59886 339.87627 L -156.59886 340.76727 C -156.59886 340.89927 -156.49986 340.96527 -156.33486 340.96527 L -154.42086 340.96527 C -153.16686 340.96527 -152.83686 341.29527 -152.77086 342.08727 C -152.73786 342.58227 -152.63886 348.52227 -152.63886 349.31427 L -152.63886 351.62427 z M -174.48486 350.20527 C -174.48486 352.21827 -174.58386 360.43527 -174.58386 361.06227 C -174.58386 361.49127 -174.78186 361.95327 -176.00286 361.95327 L -177.58686 361.95327 C -177.78486 361.95327 -177.81786 362.01927 -177.81786 362.18427 L -177.81786 363.00927 C -177.81786 363.17427 -177.78486 363.24027 -177.55386 363.24027 C -177.12486 363.24027 -175.93686 363.14127 -173.32986 363.14127 C -169.79886 363.14127 -160.29486 363.17427 -159.43686 363.24027 C -159.23886 362.34927 -157.91886 356.90427 -157.81986 356.67327 C -157.78686 356.47527 -157.78686 356.44227 -157.88586 356.37627 L -158.41386 356.17827 C -158.54586 356.11227 -158.61186 356.17827 -158.67786 356.31027 C -159.13986 357.59727 -161.11986 361.55727 -163.06686 361.85427 C -164.08986 361.98627 -170.62386 361.92027 -171.34986 361.85427 C -171.44886 360.50127 -171.44886 353.37327 -171.44886 352.81227 L -171.44886 349.97427 C -171.44886 347.66427 -171.34986 342.68127 -171.34986 342.25227 C -171.34986 341.29527 -171.21786 340.96527 -170.19486 340.96527 L -168.21486 340.96527 C -167.95086 340.96527 -167.88486 340.86627 -167.88486 340.70127 L -167.88486 339.94227 C -167.88486 339.77727 -167.91786 339.67827 -168.18186 339.67827 C -168.47886 339.67827 -169.86486 339.77727 -173.06586 339.77727 C -175.80486 339.77727 -176.99286 339.67827 -177.35586 339.67827 C -177.55386 339.67827 -177.58686 339.74427 -177.58686 339.90927 L -177.58686 340.63527 C -177.58686 340.80027 -177.55386 340.96527 -177.35586 340.96527 L -175.80486 340.96527 C -174.81486 340.96527 -174.64986 341.29527 -174.58386 342.15327 C -174.55086 342.74727 -174.48486 346.24527 -174.48486 348.35727 L -174.48486 350.20527 z "
       transform="matrix(0.500000,-0.866025,0.866025,0.500000,0.000000,0.000000)"
       style="font-size:33;font-weight:normal;stroke-width:1pt;font-family:AdobeCaslon;"
       id="path651" />
    <path
       d="M 527.82977 -259.78707 C 528.29177 -258.46707 529.64477 -254.24307 529.90877 -253.05507 C 530.13977 -252.13107 529.84277 -251.80107 528.91877 -251.80107 L 528.09377 -251.80107 C 527.89577 -251.80107 527.79677 -251.76807 527.79677 -251.57007 L 527.79677 -250.81107 C 527.79677 -250.61307 527.89577 -250.51407 528.06077 -250.51407 C 528.81977 -250.51407 529.97477 -250.61307 532.71377 -250.61307 C 535.38677 -250.61307 536.07977 -250.51407 536.67377 -250.51407 C 536.90477 -250.51407 537.00377 -250.58007 537.00377 -250.74507 L 537.00377 -251.57007 C 537.00377 -251.70207 536.93777 -251.80107 536.73977 -251.80107 L 535.65077 -251.80107 C 534.82577 -251.80107 533.96777 -252.19707 533.40677 -253.28607 C 532.94477 -254.24307 530.79977 -260.38107 530.04077 -262.95507 C 529.41377 -265.06707 526.83977 -272.45907 526.21277 -274.53807 C 526.11377 -274.90107 526.04777 -275.09907 525.84977 -275.09907 C 525.68477 -275.09907 525.58577 -274.96707 525.42077 -274.80207 C 525.05777 -274.34007 523.60577 -273.35007 522.68177 -273.15207 C 522.45077 -273.08607 522.38477 -272.95407 522.38477 -272.85507 C 522.38477 -272.72307 522.51677 -272.55807 522.61577 -272.42607 C 522.84677 -272.06307 522.68177 -271.63407 522.58277 -271.30407 C 522.28577 -270.41307 519.61277 -263.31807 519.38177 -262.65807 C 518.42477 -259.95207 516.01577 -253.84707 515.78477 -253.31907 C 515.32277 -252.26307 514.86077 -251.80107 513.87077 -251.80107 L 512.71577 -251.80107 C 512.58377 -251.80107 512.45177 -251.73507 512.45177 -251.57007 L 512.45177 -250.77807 C 512.45177 -250.58007 512.51777 -250.51407 512.68277 -250.51407 C 513.14477 -250.51407 513.87077 -250.61307 516.27977 -250.61307 C 518.22677 -250.61307 519.57977 -250.51407 520.04177 -250.51407 C 520.20677 -250.51407 520.30577 -250.58007 520.30577 -250.81107 L 520.30577 -251.57007 C 520.30577 -251.73507 520.20677 -251.80107 519.97577 -251.80107 L 518.42477 -251.80107 C 517.69877 -251.80107 517.30277 -252.06507 517.30277 -252.52707 C 517.30277 -252.69207 517.36877 -253.02207 517.40177 -253.25307 C 517.56677 -253.94607 519.38177 -258.96207 519.71177 -259.78707 L 527.82977 -259.78707 z M 520.14077 -260.97507 C 520.37177 -261.80007 523.50677 -270.24807 523.67177 -270.67707 C 523.77077 -270.94107 523.90277 -271.17207 524.03477 -271.17207 C 524.13377 -271.17207 524.19977 -270.94107 524.29877 -270.71007 C 524.46377 -270.21507 527.13677 -261.96507 527.43377 -260.97507 L 520.14077 -260.97507 z M 494.07077 -262.42707 C 494.07077 -259.29207 494.07077 -256.19007 494.00477 -252.92307 C 494.00477 -252.03207 493.44377 -251.80107 492.71777 -251.80107 L 491.36477 -251.80107 C 491.19977 -251.80107 491.19977 -251.70207 491.19977 -251.53707 L 491.19977 -250.77807 C 491.19977 -250.61307 491.19977 -250.51407 491.46377 -250.51407 C 491.82677 -250.51407 492.58577 -250.61307 495.58877 -250.61307 C 498.72377 -250.61307 499.54877 -250.51407 499.91177 -250.51407 C 500.24177 -250.51407 500.27477 -250.58007 500.27477 -250.81107 L 500.27477 -251.53707 C 500.27477 -251.70207 500.24177 -251.80107 500.01077 -251.80107 L 497.93177 -251.80107 C 497.43677 -251.80107 497.17277 -252.39507 497.10677 -253.08807 C 497.07377 -253.58307 497.04077 -257.27907 497.04077 -259.22607 L 497.04077 -261.07407 C 497.50277 -261.17307 497.83277 -261.17307 498.12977 -261.17307 C 500.04377 -261.17307 500.83577 -260.28207 501.69377 -259.25907 C 502.08977 -258.79707 503.67377 -256.42107 503.80577 -256.19007 C 503.97077 -255.92607 505.75277 -252.79107 506.01677 -252.39507 C 506.31377 -251.96607 507.03977 -250.84407 507.40277 -250.51407 C 507.89777 -250.54707 509.11877 -250.61307 510.07577 -250.61307 C 511.52777 -250.61307 512.38577 -250.51407 512.64977 -250.51407 C 512.88077 -250.51407 512.91377 -250.61307 512.91377 -250.81107 L 512.91377 -251.53707 C 512.91377 -251.66907 512.88077 -251.80107 512.64977 -251.80107 C 511.72577 -251.80107 510.96677 -251.86707 510.27377 -252.36207 C 509.64677 -252.82407 507.53477 -255.82707 507.36977 -256.15707 C 507.10577 -256.58607 504.76277 -259.95207 504.36677 -260.38107 C 504.10277 -260.74407 503.64077 -261.33807 502.84877 -261.63507 L 502.84877 -261.70107 C 507.07277 -262.62507 508.95377 -264.17607 508.95377 -268.30107 C 508.95377 -269.52207 508.32677 -271.00707 507.23777 -272.06307 C 505.98377 -273.25107 503.80577 -274.07607 501.06677 -274.07607 C 500.47277 -274.07607 497.40377 -273.97707 495.55577 -273.97707 C 492.78377 -273.97707 491.76077 -274.07607 491.46377 -274.07607 C 491.29877 -274.07607 491.26577 -274.01007 491.26577 -273.84507 L 491.26577 -273.02007 C 491.26577 -272.88807 491.29877 -272.78907 491.46377 -272.78907 L 492.78377 -272.78907 C 493.60877 -272.78907 494.00477 -272.22807 494.03777 -271.13907 C 494.07077 -270.18207 494.07077 -268.07007 494.07077 -265.62807 L 494.07077 -262.42707 z M 497.04077 -271.70007 C 497.04077 -272.22807 497.20577 -272.59107 497.43677 -272.75607 C 497.73377 -272.95407 498.16277 -273.02007 498.55877 -273.02007 C 501.29777 -273.02007 502.74977 -272.52507 504.03677 -271.50207 C 504.99377 -270.71007 505.68677 -269.25807 505.68677 -267.74007 C 505.68677 -266.35407 504.53177 -262.22907 498.52577 -262.22907 C 497.89877 -262.22907 497.53577 -262.26207 497.04077 -262.36107 L 497.04077 -271.70007 z M 474.56777 -272.92107 L 480.44177 -272.78907 C 481.33277 -272.75607 482.25677 -272.36007 482.94977 -271.89807 C 483.74177 -271.40307 486.18377 -268.26807 486.24977 -268.13607 C 486.28277 -268.07007 486.41477 -267.97107 486.51377 -268.03707 L 487.00877 -268.30107 C 487.14077 -268.36707 487.14077 -268.46607 487.10777 -268.59807 C 487.00877 -268.92807 485.55677 -273.44907 485.42477 -273.91107 C 485.39177 -274.01007 485.32577 -274.07607 485.16077 -274.07607 C 484.99577 -274.07607 484.36877 -274.01007 483.84077 -274.01007 C 480.57377 -274.01007 477.30677 -273.97707 474.03977 -273.97707 L 472.58777 -273.97707 C 470.40977 -273.97707 469.25477 -274.07607 468.52877 -274.07607 C 468.36377 -274.07607 468.29777 -274.01007 468.29777 -273.91107 L 468.29777 -273.02007 C 468.29777 -272.82207 468.39677 -272.78907 468.56177 -272.78907 L 469.74977 -272.78907 C 470.97077 -272.78907 471.30077 -272.55807 471.43277 -271.50207 C 471.46577 -271.17207 471.53177 -267.04707 471.53177 -264.30807 L 471.53177 -261.07407 L 471.53177 -253.25307 C 471.53177 -252.03207 471.39977 -251.80107 469.88177 -251.80107 L 468.56177 -251.80107 C 468.33077 -251.80107 468.23177 -251.76807 468.23177 -251.63607 L 468.23177 -250.74507 C 468.23177 -250.58007 468.33077 -250.51407 468.52877 -250.51407 C 469.12277 -250.51407 470.27777 -250.61307 472.75277 -250.61307 C 483.01577 -250.61307 485.62277 -250.51407 485.95277 -250.51407 C 486.34877 -250.51407 486.57977 -250.71207 486.67877 -251.00907 L 488.42777 -255.86007 C 488.52677 -256.12407 488.52677 -256.22307 488.36177 -256.32207 L 487.83377 -256.61907 C 487.63577 -256.71807 487.53677 -256.58607 487.43777 -256.42107 C 486.97577 -255.66207 485.12777 -253.28607 484.73177 -252.95607 C 483.87377 -252.23007 482.42177 -251.86707 481.86077 -251.80107 C 481.16777 -251.73507 479.51777 -251.70207 478.95677 -251.70207 C 478.13177 -251.70207 477.17477 -251.80107 476.51477 -251.93307 C 475.49177 -252.13107 474.66677 -252.79107 474.63377 -254.50707 C 474.63377 -255.16707 474.56777 -258.36807 474.56777 -260.15007 L 474.56777 -262.19607 C 475.09577 -262.19607 477.37277 -262.19607 478.92377 -262.03107 C 479.78177 -261.93207 480.14477 -261.43707 480.34277 -260.74407 C 480.44177 -260.38107 480.63977 -259.62207 480.70577 -259.19307 C 480.73877 -258.96207 480.80477 -258.86307 480.96977 -258.89607 L 481.69577 -258.99507 C 481.82777 -259.02807 481.89377 -259.09407 481.89377 -259.25907 C 481.82777 -259.95207 481.69577 -261.53607 481.69577 -262.69107 C 481.69577 -263.18607 481.69577 -265.89207 481.79477 -266.45307 C 481.82777 -266.58507 481.76177 -266.71707 481.59677 -266.71707 L 480.77177 -266.75007 C 480.63977 -266.75007 480.54077 -266.68407 480.54077 -266.51907 C 480.50777 -265.89207 480.37577 -265.23207 480.27677 -264.90207 C 479.97977 -263.87907 479.71577 -263.61507 478.75877 -263.45007 C 478.36277 -263.38407 474.83177 -263.25207 474.56777 -263.25207 L 474.56777 -272.92107 z M 458.26577 -250.11807 C 462.62177 -250.11807 464.99777 -253.45107 464.99777 -257.34507 C 464.99777 -259.52307 464.40377 -260.81007 463.54577 -261.83307 C 462.35777 -263.28507 460.50977 -263.84607 458.23277 -264.57207 C 457.27577 -264.86907 455.42777 -265.59507 454.47077 -266.55207 C 453.64577 -267.41007 453.44777 -268.49907 453.44777 -269.42307 C 453.44777 -271.10607 454.50377 -273.28407 457.44077 -273.28407 C 458.99177 -273.28407 460.14677 -272.82207 461.03777 -271.86507 C 462.39077 -270.44607 462.81977 -269.15907 463.08377 -268.20207 C 463.11677 -268.10307 463.18277 -268.07007 463.28177 -268.10307 L 463.67777 -268.20207 C 463.80977 -268.23507 463.84277 -268.30107 463.84277 -268.46607 C 463.80977 -269.19207 463.38077 -272.55807 463.38077 -273.71307 C 463.38077 -274.01007 463.28177 -274.27407 463.11677 -274.27407 C 462.95177 -274.27407 462.85277 -274.20807 462.68777 -274.07607 L 462.25877 -273.68007 C 462.09377 -273.51507 461.92877 -273.48207 461.63177 -273.64707 C 461.07077 -273.91107 459.61877 -274.47207 457.73777 -274.47207 C 455.95577 -274.47207 454.30577 -274.01007 453.11777 -272.88807 C 452.09477 -271.93107 451.07177 -270.31407 451.07177 -268.66407 C 451.07177 -266.48607 451.63277 -264.93507 452.72177 -263.84607 C 454.14077 -262.36107 456.51677 -261.53607 457.53977 -261.17307 C 460.17977 -260.24907 462.62177 -258.99507 462.62177 -255.59607 C 462.62177 -252.62607 460.11377 -251.40507 458.13377 -251.40507 C 456.31877 -251.40507 454.50377 -252.29607 453.51377 -253.84707 C 452.42477 -255.53007 452.35877 -256.61907 452.32577 -257.67507 C 452.32577 -257.87307 452.25977 -257.93907 452.12777 -257.93907 L 451.63277 -257.97207 C 451.50077 -257.97207 451.43477 -257.97207 451.40177 -257.77407 C 451.30277 -256.81707 450.97277 -252.62607 450.84077 -251.80107 C 450.77477 -251.43807 450.93977 -251.27307 451.13777 -251.27307 C 451.36877 -251.27307 451.53377 -251.30607 451.73177 -251.66907 C 451.92977 -251.99907 452.06177 -252.23007 452.25977 -252.23007 C 452.42477 -252.23007 452.62277 -252.13107 453.01877 -251.83407 C 454.33877 -250.81107 455.95577 -250.11807 458.26577 -250.11807 z M 425.92577 -272.92107 L 431.63477 -272.82207 C 432.19577 -272.82207 433.28477 -272.55807 433.84577 -271.86507 L 436.98077 -268.13607 C 437.07977 -268.03707 437.14577 -267.97107 437.31077 -268.07007 L 437.70677 -268.30107 C 437.87177 -268.36707 437.87177 -268.43307 437.80577 -268.59807 C 437.70677 -268.92807 436.28777 -273.44907 436.15577 -273.94407 C 436.12277 -274.04307 435.99077 -274.10907 435.89177 -274.10907 C 435.75977 -274.10907 435.06677 -274.01007 434.53877 -274.01007 C 431.79977 -274.01007 429.06077 -273.97707 426.32177 -273.97707 L 424.07777 -273.97707 C 422.03177 -273.97707 420.84377 -274.10907 419.78777 -274.10907 C 419.55677 -274.10907 419.42477 -274.07607 419.42477 -273.81207 L 419.42477 -273.11907 C 419.42477 -272.92107 419.49077 -272.82207 419.72177 -272.82207 L 420.31577 -272.82207 C 420.97577 -272.82207 421.27277 -272.39307 420.77777 -271.27107 C 420.38177 -270.41307 416.98277 -264.73707 415.82777 -262.62507 C 414.27677 -259.75407 411.17477 -253.97907 410.67977 -253.31907 C 410.11877 -252.56007 409.55777 -251.80107 408.89777 -251.80107 L 407.77577 -251.80107 C 407.57777 -251.80107 407.54477 -251.70207 407.54477 -251.50407 L 407.54477 -250.94307 C 407.54477 -250.71207 407.57777 -250.51407 407.77577 -250.51407 C 408.20477 -250.51407 409.29377 -250.61307 411.37277 -250.61307 C 413.84777 -250.61307 414.67277 -250.51407 415.06877 -250.51407 C 415.33277 -250.51407 415.36577 -250.61307 415.36577 -250.94307 L 415.36577 -251.53707 C 415.36577 -251.66907 415.29977 -251.80107 415.03577 -251.80107 L 413.45177 -251.80107 C 413.05577 -251.80107 412.52777 -252.03207 412.52777 -252.56007 C 412.52777 -252.92307 412.62677 -253.38507 412.89077 -253.97907 C 413.15477 -254.57307 415.13477 -258.53307 416.48777 -261.10707 L 423.05477 -261.10707 L 423.05477 -253.25307 C 423.05477 -252.06507 422.92277 -251.80107 422.09777 -251.80107 L 420.21677 -251.80107 C 420.01877 -251.80107 419.91977 -251.73507 419.91977 -251.50407 L 419.91977 -250.81107 C 419.91977 -250.61307 419.98577 -250.51407 420.24977 -250.51407 C 420.84377 -250.51407 422.03177 -250.61307 424.30877 -250.61307 C 434.53877 -250.61307 436.41977 -250.51407 436.88177 -250.51407 C 437.14577 -250.51407 437.31077 -250.64607 437.40977 -251.00907 L 439.22477 -255.99207 C 439.29077 -256.19007 439.19177 -256.22307 439.02677 -256.32207 L 438.63077 -256.55307 C 438.46577 -256.65207 438.26777 -256.65207 438.13577 -256.42107 L 435.56177 -252.95607 C 434.90177 -252.09807 433.74677 -251.83407 432.88877 -251.80107 C 432.12977 -251.73507 430.90877 -251.70207 430.34777 -251.70207 C 429.65477 -251.70207 428.20277 -251.76807 427.60877 -251.90007 C 426.51977 -252.13107 425.99177 -252.62607 425.99177 -254.50707 C 425.99177 -255.16707 425.92577 -258.36807 425.92577 -260.15007 L 425.92577 -261.10707 C 426.48677 -261.10707 428.89577 -261.10707 430.47977 -261.00807 C 431.30477 -260.94207 431.66777 -260.44707 431.83277 -259.75407 L 432.26177 -258.13707 C 432.29477 -257.93907 432.36077 -257.90607 432.52577 -257.93907 L 433.18577 -258.03807 C 433.35077 -258.03807 433.48277 -258.10407 433.44977 -258.30207 C 433.38377 -258.96207 433.25177 -260.54607 433.25177 -261.73407 C 433.25177 -262.19607 433.25177 -264.93507 433.35077 -265.46307 C 433.38377 -265.66107 433.25177 -265.69407 433.08677 -265.69407 L 432.36077 -265.76007 C 432.16277 -265.79307 432.06377 -265.76007 432.06377 -265.52907 L 431.76677 -263.91207 C 431.56877 -262.85607 431.23877 -262.62507 430.31477 -262.49307 C 429.91877 -262.42707 426.18977 -262.29507 425.92577 -262.29507 L 425.92577 -272.92107 z M 417.18077 -262.29507 L 422.22977 -271.40307 C 422.42777 -271.73307 422.55977 -271.79907 422.75777 -271.79907 C 422.95577 -271.79907 423.05477 -271.56807 423.05477 -271.27107 L 423.05477 -262.29507 L 417.18077 -262.29507 z M 397.34777 -250.11807 C 400.21877 -250.11807 402.23177 -250.87707 403.55177 -252.09807 C 405.39977 -253.68207 406.12577 -255.76107 406.32377 -258.46707 C 406.42277 -259.75407 406.48877 -265.52907 406.48877 -265.99107 C 406.48877 -266.45307 406.48877 -271.13907 406.55477 -271.46907 C 406.65377 -271.86507 406.75277 -272.78907 407.97377 -272.78907 L 409.32677 -272.78907 C 409.49177 -272.78907 409.52477 -272.92107 409.52477 -273.11907 L 409.52477 -273.84507 C 409.52477 -273.94407 409.49177 -274.07607 409.19477 -274.07607 C 408.89777 -274.07607 407.84177 -273.97707 405.56477 -273.97707 C 403.35377 -273.97707 401.83577 -274.07607 401.50577 -274.07607 C 401.30777 -274.07607 401.27477 -274.01007 401.27477 -273.84507 L 401.27477 -273.05307 C 401.27477 -272.88807 401.30777 -272.78907 401.50577 -272.78907 L 402.95777 -272.78907 C 403.81577 -272.78907 404.34377 -272.19507 404.44277 -271.33707 C 404.54177 -270.51207 404.60777 -268.59807 404.60777 -266.09007 L 404.60777 -259.02807 C 404.60777 -256.58607 404.17877 -254.60607 402.89177 -253.22007 C 401.73677 -252.03207 399.82277 -251.40507 397.94177 -251.40507 C 396.02777 -251.40507 393.91577 -251.99907 392.69477 -253.78107 C 391.93577 -254.90307 391.67177 -256.45407 391.63877 -257.97207 C 391.60577 -259.02807 391.47377 -263.21907 391.47377 -264.96807 L 391.47377 -267.14607 C 391.47377 -268.82907 391.50677 -271.13907 391.53977 -271.43607 C 391.60577 -272.16207 392.16677 -272.78907 393.12377 -272.78907 L 394.77377 -272.78907 C 395.00477 -272.78907 395.03777 -272.85507 395.03777 -273.02007 L 395.03777 -273.87807 C 395.03777 -274.01007 395.00477 -274.07607 394.74077 -274.07607 C 394.37777 -274.07607 392.79377 -273.97707 390.21977 -273.97707 C 387.64577 -273.97707 386.02877 -274.07607 385.69877 -274.07607 C 385.43477 -274.07607 385.40177 -274.01007 385.40177 -273.81207 L 385.40177 -273.08607 C 385.40177 -272.85507 385.43477 -272.78907 385.63277 -272.78907 L 387.18377 -272.78907 C 388.20677 -272.78907 388.43777 -272.26107 388.43777 -271.10607 L 388.43777 -263.25207 C 388.43777 -258.92907 388.56977 -256.71807 388.96577 -255.23307 C 389.49377 -253.15407 390.64877 -251.70207 392.89277 -250.81107 C 393.98177 -250.34907 395.63177 -250.11807 397.34777 -250.11807 z M 371.50877 -274.47207 C 369.75977 -274.53807 366.16277 -273.61407 363.62177 -271.30407 C 361.21277 -269.09307 359.82677 -265.85907 359.82677 -262.69107 C 359.82677 -258.73107 361.24577 -255.79407 363.02777 -253.97907 C 366.06377 -250.74507 369.03377 -250.25007 369.69377 -250.01907 C 374.28077 -247.87407 379.06577 -246.12507 382.36577 -245.30007 C 388.14077 -243.81507 390.18677 -243.74907 391.17677 -243.74907 C 393.02477 -243.74907 395.16977 -245.99307 395.59877 -246.42207 C 395.73077 -246.52107 395.76377 -246.65307 395.69777 -246.75207 L 395.46677 -247.08207 C 395.36777 -247.21407 395.26877 -247.14807 395.16977 -247.04907 C 394.77377 -246.75207 394.04777 -246.32307 393.12377 -246.32307 C 392.49677 -246.32307 391.20977 -245.96007 382.86077 -247.84107 C 380.58377 -248.33607 377.81177 -248.99607 374.41277 -250.25007 L 374.41277 -250.38207 C 376.49177 -251.07507 378.20777 -251.99907 380.15477 -253.94607 C 382.13477 -255.89307 383.61977 -259.09407 383.55377 -262.62507 C 383.61977 -265.59507 382.62977 -268.59807 380.38577 -270.94107 C 378.33977 -273.08607 375.36977 -274.53807 371.50877 -274.47207 z M 371.80577 -251.17407 C 370.88177 -251.17407 369.19877 -251.40507 366.69077 -253.78107 C 365.07377 -255.33207 363.15977 -258.53307 363.15977 -262.95507 C 363.15977 -265.69407 363.85277 -268.96107 366.03077 -271.13907 C 367.87877 -272.98707 369.79277 -273.28407 371.31077 -273.28407 C 373.71977 -273.28407 375.40277 -272.39307 377.41577 -270.47907 C 379.16477 -268.82907 380.25377 -265.56207 380.25377 -261.60207 C 380.25377 -258.79707 378.47177 -251.17407 371.80577 -251.17407 z "
       transform="matrix(0.500000,0.866025,-0.866025,0.500000,0.000000,0.000000)"
       style="font-size:33;font-weight:normal;stroke-width:1pt;font-family:AdobeCaslon;"
       id="path652" />
  </g>
</svg>
