<?xml version="1.0" encoding="UTF-8" standalone="no"?>
<!DOCTYPE svg PUBLIC "-//W3C//DTD SVG 20010904//EN"
"http://www.w3.org/TR/2001/REC-SVG-20010904/DTD/svg10.dtd"
[
 <!ATTLIST svg
  xmlns:xlink CDATA #FIXED "http://www.w3.org/1999/xlink">
]>
<!-- Created with Sodipodi ("http://www.sodipodi.com/") -->
<svg
   xmlns="http://www.w3.org/2000/svg"
   xmlns:xlink="http://www.w3.org/1999/xlink"
   version="1"
   x="0.00000000"
   y="0.00000000"
   width="1062.98853"
   height="744.094482"
   id="svg378">
  <defs
     id="defs380" />
  <rect
     width="1062.98743"
     height="744.094299"
     x="0.00012200"
     y="0.00012200"
     style="font-size:12;fill:#ba0000;fill-rule:evenodd;stroke-width:1pt;"
     id="rect148" />
  <g
     transform="translate(-14.32762,6.606644)"
     style="font-size:12;"
     id="g694">
    <g
       transform="translate(6.250000,-3.750031)"
       id="g669">
      <path
         d="M 524.447 357.284 C 524.447 357.284 449.427 324.983 460.192 241.28 C 470.613 200.99 489.02 173.553 522.362 158.619 C 537.991 153.756 553.969 151.672 570.292 150.283 C 566.008 154.335 562.42 158.387 560.568 163.481 C 556.978 172.627 559.641 181.426 564.387 190.224 C 570.407 200.412 573.994 210.947 575.153 224.608 C 577.352 243.826 569.133 262.351 553.967 273.581 C 544.357 280.99 533.013 283.537 523.75 291.988 C 516.573 299.051 512.174 306.114 510.553 318.384 C 510.321 341.77 516.69 345.013 524.447 357.284 z "
         style="fill:#ffffff;fill-rule:evenodd;stroke-width:2.34489pt;"
         id="path573" />
      <path
         d="M 510.206 236.175 C 510.206 236.06 510.206 235.943 510.206 235.828 "
         style="fill:#ba0000;fill-rule:evenodd;stroke:#000000;stroke-width:2.34489pt;"
         id="path574" />
      <path
         d="M 514.947 348.588 C 485.771 322.771 488.324 257.826 510.553 236.175 "
         style="fill:none;fill-rule:evenodd;stroke:#ba0000;stroke-width:2.34489pt;"
         id="path575" />
      <polygon
         points="591.041,433.161 533.774,391.476 476.501,433.151 498.449,365.806 441.115,324.214 511.946,324.278 533.785,256.897 555.613,324.281 626.445,324.23 569.104,365.812 591.041,433.161 "
         transform="matrix(0.135668,-3.068384e-2,2.698504e-2,0.129088,441.3846,191.8889)"
         style="fill:#ba0000;fill-rule:evenodd;stroke-width:1pt;"
         id="polygon638" />
    </g>
    <g
       transform="matrix(0.293016,0.956108,-0.956108,0.293016,725.0029,-258.1252)"
       id="g674">
      <path
         d="M 524.447 357.284 C 524.447 357.284 449.427 324.983 460.192 241.28 C 470.613 200.99 489.02 173.553 522.362 158.619 C 537.991 153.756 553.969 151.672 570.292 150.283 C 566.008 154.335 562.42 158.387 560.568 163.481 C 556.978 172.627 559.641 181.426 564.387 190.224 C 570.407 200.412 573.994 210.947 575.153 224.608 C 577.352 243.826 569.133 262.351 553.967 273.581 C 544.357 280.99 533.013 283.537 523.75 291.988 C 516.573 299.051 512.174 306.114 510.553 318.384 C 510.321 341.77 516.69 345.013 524.447 357.284 z "
         style="fill:#ffffff;fill-rule:evenodd;stroke-width:2.34489pt;"
         id="path675" />
      <path
         d="M 510.206 236.175 C 510.206 236.06 510.206 235.943 510.206 235.828 "
         style="fill:#ba0000;fill-rule:evenodd;stroke:#000000;stroke-width:2.34489pt;"
         id="path676" />
      <path
         d="M 514.947 348.588 C 485.771 322.771 488.324 257.826 510.553 236.175 "
         style="fill:none;fill-rule:evenodd;stroke:#ba0000;stroke-width:2.34489pt;"
         id="path677" />
      <polygon
         points="591.041,433.161 533.774,391.476 476.501,433.151 498.449,365.806 441.115,324.214 511.946,324.278 533.785,256.897 555.613,324.281 626.445,324.23 569.104,365.812 591.041,433.161 "
         transform="matrix(0.135668,-3.068384e-2,2.698504e-2,0.129088,441.3846,191.8889)"
         style="fill:#ba0000;fill-rule:evenodd;stroke-width:1pt;"
         id="polygon678" />
    </g>
    <g
       transform="matrix(-0.813545,0.581503,-0.581503,-0.813545,1177.063,339.5501)"
       id="g679">
      <path
         d="M 524.447 357.284 C 524.447 357.284 449.427 324.983 460.192 241.28 C 470.613 200.99 489.02 173.553 522.362 158.619 C 537.991 153.756 553.969 151.672 570.292 150.283 C 566.008 154.335 562.42 158.387 560.568 163.481 C 556.978 172.627 559.641 181.426 564.387 190.224 C 570.407 200.412 573.994 210.947 575.153 224.608 C 577.352 243.826 569.133 262.351 553.967 273.581 C 544.357 280.99 533.013 283.537 523.75 291.988 C 516.573 299.051 512.174 306.114 510.553 318.384 C 510.321 341.77 516.69 345.013 524.447 357.284 z "
         style="fill:#ffffff;fill-rule:evenodd;stroke-width:2.34489pt;"
         id="path680" />
      <path
         d="M 510.206 236.175 C 510.206 236.06 510.206 235.943 510.206 235.828 "
         style="fill:#ba0000;fill-rule:evenodd;stroke:#000000;stroke-width:2.34489pt;"
         id="path681" />
      <path
         d="M 514.947 348.588 C 485.771 322.771 488.324 257.826 510.553 236.175 "
         style="fill:none;fill-rule:evenodd;stroke:#ba0000;stroke-width:2.34489pt;"
         id="path682" />
      <polygon
         points="591.041,433.161 533.774,391.476 476.501,433.151 498.449,365.806 441.115,324.214 511.946,324.278 533.785,256.897 555.613,324.281 626.445,324.23 569.104,365.812 591.041,433.161 "
         transform="matrix(0.135668,-3.068384e-2,2.698504e-2,0.129088,441.3846,191.8889)"
         style="fill:#ba0000;fill-rule:evenodd;stroke-width:1pt;"
         id="polygon683" />
    </g>
    <g
       transform="matrix(-0.786568,-0.617503,0.617503,-0.786568,732.7755,966.9646)"
       id="g684">
      <path
         d="M 524.447 357.284 C 524.447 357.284 449.427 324.983 460.192 241.28 C 470.613 200.99 489.02 173.553 522.362 158.619 C 537.991 153.756 553.969 151.672 570.292 150.283 C 566.008 154.335 562.42 158.387 560.568 163.481 C 556.978 172.627 559.641 181.426 564.387 190.224 C 570.407 200.412 573.994 210.947 575.153 224.608 C 577.352 243.826 569.133 262.351 553.967 273.581 C 544.357 280.99 533.013 283.537 523.75 291.988 C 516.573 299.051 512.174 306.114 510.553 318.384 C 510.321 341.77 516.69 345.013 524.447 357.284 z "
         style="fill:#ffffff;fill-rule:evenodd;stroke-width:2.34489pt;"
         id="path685" />
      <path
         d="M 510.206 236.175 C 510.206 236.06 510.206 235.943 510.206 235.828 "
         style="fill:#ba0000;fill-rule:evenodd;stroke:#000000;stroke-width:2.34489pt;"
         id="path686" />
      <path
         d="M 514.947 348.588 C 485.771 322.771 488.324 257.826 510.553 236.175 "
         style="fill:none;fill-rule:evenodd;stroke:#ba0000;stroke-width:2.34489pt;"
         id="path687" />
      <polygon
         points="591.041,433.161 533.774,391.476 476.501,433.151 498.449,365.806 441.115,324.214 511.946,324.278 533.785,256.897 555.613,324.281 626.445,324.23 569.104,365.812 591.041,433.161 "
         transform="matrix(0.135668,-3.068384e-2,2.698504e-2,0.129088,441.3846,191.8889)"
         style="fill:#ba0000;fill-rule:evenodd;stroke-width:1pt;"
         id="polygon688" />
    </g>
    <g
       transform="matrix(0.321074,-0.947053,0.947053,0.321074,25.28688,742.4974)"
       id="g689">
      <path
         d="M 524.447 357.284 C 524.447 357.284 449.427 324.983 460.192 241.28 C 470.613 200.99 489.02 173.553 522.362 158.619 C 537.991 153.756 553.969 151.672 570.292 150.283 C 566.008 154.335 562.42 158.387 560.568 163.481 C 556.978 172.627 559.641 181.426 564.387 190.224 C 570.407 200.412 573.994 210.947 575.153 224.608 C 577.352 243.826 569.133 262.351 553.967 273.581 C 544.357 280.99 533.013 283.537 523.75 291.988 C 516.573 299.051 512.174 306.114 510.553 318.384 C 510.321 341.77 516.69 345.013 524.447 357.284 z "
         style="fill:#ffffff;fill-rule:evenodd;stroke-width:2.34489pt;"
         id="path690" />
      <path
         d="M 510.206 236.175 C 510.206 236.06 510.206 235.943 510.206 235.828 "
         style="fill:#ba0000;fill-rule:evenodd;stroke:#000000;stroke-width:2.34489pt;"
         id="path691" />
      <path
         d="M 514.947 348.588 C 485.771 322.771 488.324 257.826 510.553 236.175 "
         style="fill:none;fill-rule:evenodd;stroke:#ba0000;stroke-width:2.34489pt;"
         id="path692" />
      <polygon
         points="591.041,433.161 533.774,391.476 476.501,433.151 498.449,365.806 441.115,324.214 511.946,324.278 533.785,256.897 555.613,324.281 626.445,324.23 569.104,365.812 591.041,433.161 "
         transform="matrix(0.135668,-3.068384e-2,2.698504e-2,0.129088,441.3846,191.8889)"
         style="fill:#ba0000;fill-rule:evenodd;stroke-width:1pt;"
         id="polygon693" />
    </g>
  </g>
</svg>
