<?xml version="1.0" encoding="UTF-8" standalone="no"?>
<!DOCTYPE svg PUBLIC "-//W3C//DTD SVG 20010904//EN"
"http://www.w3.org/TR/2001/REC-SVG-20010904/DTD/svg10.dtd">
<!-- Created with Sodipodi ("http://www.sodipodi.com/") -->
<svg
   xmlns="http://www.w3.org/2000/svg"
   xmlns:sodipodi="http://sodipodi.sourceforge.net/DTD/sodipodi-0.dtd"
   xmlns:xlink="http://www.w3.org/1999/xlink"
   id="svg1350"
   sodipodi:version="0.34"
   width="10.15000cm"
   height="6.100000cm"
   sodipodi:docname="E:\sodipodi\travail_drapeau\provence01.svg"
   sodipodi:docbase="E:\sodipodi\travail_drapeau">
  <defs
     id="defs1352">
    <defs
       id="defs5117" />
    <sodipodi:namedview
       id="namedview5116" />
  </defs>
  <sodipodi:namedview
     id="base"
     showgrid="false"
     borderlayer="top"
     bordercolor="#000000"
     borderopacity="1" />
  <rect
     style="font-size:12;fill:#ffd700;fill-rule:evenodd;stroke-width:1;fill-opacity:1;"
     id="rect2756"
     width="214.350465"
     height="359.296365"
     x="-216.130111"
     y="0.69214554"
     transform="matrix(1.71083e-16,-1,1,2.191422e-17,0,0)" />
  <rect
     style="font-size:12;fill:#ff0000;fill-rule:evenodd;stroke-width:1;fill-opacity:1;"
     id="rect2814"
     width="214.139237"
     height="40.7023329"
     x="-215.838761"
     y="39.1572319"
     transform="matrix(1.71083e-16,-1,1,2.191422e-17,0,0)" />
  <rect
     style="font-size:12;fill:#ff0000;fill-rule:evenodd;stroke-width:1;fill-opacity:1;"
     id="rect2815"
     width="214.13905"
     height="40.7023024"
     x="-215.838761"
     y="120.561799"
     transform="matrix(1.71083e-16,-1,1,2.191422e-17,0,0)" />
  <rect
     style="font-size:12;fill:#ff0000;fill-rule:evenodd;stroke-width:1;fill-opacity:1;"
     id="rect2816"
     width="214.138879"
     height="40.7022681"
     x="-215.838761"
     y="201.966358"
     transform="matrix(1.71083e-16,-1,1,2.191422e-17,0,0)" />
  <rect
     style="font-size:12;fill:#ff0000;fill-rule:evenodd;stroke-width:1;fill-opacity:1;"
     id="rect2817"
     width="214.138662"
     height="40.7022299"
     x="-215.838761"
     y="283.370772"
     transform="matrix(1.71083e-16,-1,1,2.191422e-17,0,0)" />
</svg>
