<?xml version="1.0" encoding="UTF-8" standalone="no"?>
<!DOCTYPE svg PUBLIC "-//W3C//DTD SVG 20010904//EN"
"http://www.w3.org/TR/2001/REC-SVG-20010904/DTD/svg10.dtd"
[
 <!ATTLIST svg
  xmlns:xlink CDATA #FIXED "http://www.w3.org/1999/xlink">
]>
<!-- Created with Sodipodi ("http://www.sodipodi.com/") -->
<svg
   xmlns="http://www.w3.org/2000/svg"
   xmlns:xlink="http://www.w3.org/1999/xlink"
   version="1"
   x="0.00000000"
   y="0.00000000"
   width="960.236206"
   height="496.062988"
   id="svg378">
  <defs
     id="defs380" />
  <rect
     width="960.236145"
     height="496.062897"
     x="0.00000000"
     y="0"
     style="font-size:12;fill:#087bce;fill-rule:evenodd;stroke-width:1pt;"
     id="rect148" />
  <rect
     width="959.783386"
     height="208.932434"
     x="0.00000000"
     y="136.960342"
     style="font-size:12;fill:#ffffff;fill-rule:evenodd;stroke-width:1pt;"
     id="rect649" />
  <polygon
     points="591.041,433.161 533.774,391.476 476.501,433.151 498.449,365.806 441.115,324.214 511.946,324.278 533.785,256.897 555.613,324.281 626.445,324.23 569.104,365.812 591.041,433.161 "
     transform="matrix(0.333374,-1.622405e-3,-3.629845e-3,0.316060,304.5722,139.6546)"
     style="font-size:12;fill:#087bce;fill-rule:evenodd;stroke-width:1pt;"
     id="polygon671" />
  <polygon
     points="591.041,433.161 533.774,391.476 476.501,433.151 498.449,365.806 441.115,324.214 511.946,324.278 533.785,256.897 555.613,324.281 626.445,324.23 569.104,365.812 591.041,433.161 "
     transform="matrix(0.333374,-1.622405e-3,-3.629845e-3,0.316060,442.6630,175.2028)"
     style="font-size:12;fill:#087bce;fill-rule:evenodd;stroke-width:1pt;"
     id="polygon637" />
  <polygon
     points="591.041,433.161 533.774,391.476 476.501,433.151 498.449,365.806 441.115,324.214 511.946,324.278 533.785,256.897 555.613,324.281 626.445,324.23 569.104,365.812 591.041,433.161 "
     transform="matrix(0.333374,-1.622405e-3,-3.629845e-3,0.316060,442.6630,101.3721)"
     style="font-size:12;fill:#087bce;fill-rule:evenodd;stroke-width:1pt;"
     id="polygon638" />
  <polygon
     points="591.041,433.161 533.774,391.476 476.501,433.151 498.449,365.806 441.115,324.214 511.946,324.278 533.785,256.897 555.613,324.281 626.445,324.23 569.104,365.812 591.041,433.161 "
     transform="matrix(0.333374,-1.622405e-3,-3.629845e-3,0.316060,137.7696,175.2028)"
     style="font-size:12;fill:#087bce;fill-rule:evenodd;stroke-width:1pt;"
     id="polygon639" />
  <polygon
     points="591.041,433.161 533.774,391.476 476.501,433.151 498.449,365.806 441.115,324.214 511.946,324.278 533.785,256.897 555.613,324.281 626.445,324.23 569.104,365.812 591.041,433.161 "
     transform="matrix(0.333374,-1.622405e-3,-3.629845e-3,0.316060,137.7695,101.3721)"
     style="font-size:12;fill:#087bce;fill-rule:evenodd;stroke-width:1pt;"
     id="polygon640" />
</svg>
