<?xml version="1.0" encoding="UTF-8" standalone="no"?>
<!DOCTYPE svg PUBLIC "-//W3C//DTD SVG 20010904//EN"
"http://www.w3.org/TR/2001/REC-SVG-20010904/DTD/svg10.dtd"
[
 <!ATTLIST svg
  xmlns:xlink CDATA #FIXED "http://www.w3.org/1999/xlink">
]>
<!-- Created with Sodipodi ("http://www.sodipodi.com/") -->
<svg
   xmlns="http://www.w3.org/2000/svg"
   xmlns:xlink="http://www.w3.org/1999/xlink"
   version="1"
   x="0.00000000"
   y="0.00000000"
   width="992.125977"
   height="496.062988"
   id="svg378">
  <defs
     id="defs380" />
  <rect
     width="992.125916"
     height="496.062927"
     x="0.00000000"
     y="0.00000000"
     style="font-size:12;fill:#ffffff;fill-rule:evenodd;stroke:#000000;stroke-width:0.808295pt;"
     id="rect149" />
  <rect
     width="992.125732"
     height="87.6614075"
     x="0.00000000"
     y="0.01086400"
     style="font-size:12;fill:#3e5698;fill-rule:evenodd;stroke-width:1pt;"
     id="rect148" />
  <rect
     width="992.125793"
     height="268.547211"
     x="0.00000000"
     y="113.758888"
     style="font-size:12;fill:#c60000;fill-rule:evenodd;stroke-width:1pt;"
     id="rect605" />
  <rect
     width="992.125000"
     height="87.6609955"
     x="0.00000000"
     y="408.401917"
     style="font-size:12;fill:#3e5698;fill-rule:evenodd;stroke-width:1pt;"
     id="rect606" />
  <ellipse
     cx="332.070679"
     cy="1147.964233"
     rx="163.791611"
     ry="163.791626"
     transform="matrix(0.665107,0.000000,0.000000,0.665107,86.11742,-512.8912)"
     style="font-size:12;fill:#ffffff;fill-rule:evenodd;stroke-width:1pt;"
     id="path607" />
  <polygon
     points="591.041,433.161 533.774,391.476 476.501,433.151 498.449,365.806 441.115,324.214 511.946,324.278 533.785,256.897 555.613,324.281 626.445,324.23 569.104,365.812 591.041,433.161 "
     transform="matrix(0.921284,-4.786372e-3,-1.003114e-2,0.932433,-179.8718,-74.31363)"
     style="font-size:12;fill:#c40000;fill-rule:evenodd;stroke-width:1pt;"
     id="polygon136" />
</svg>
