<?xml version="1.0" encoding="UTF-8" standalone="no"?>
<!DOCTYPE svg PUBLIC "-//W3C//DTD SVG 20010904//EN"
"http://www.w3.org/TR/2001/REC-SVG-20010904/DTD/svg10.dtd"
[
 <!ATTLIST svg
  xmlns:xlink CDATA #FIXED "http://www.w3.org/1999/xlink">
]>
<!-- Created with Sodipodi ("http://www.sodipodi.com/") -->
<svg
   xmlns="http://www.w3.org/2000/svg"
   xmlns:xlink="http://www.w3.org/1999/xlink"
   version="1"
   x="0"
   y="0"
   width="1062.99"
   height="708.661"
   id="svg378">
  <defs
     id="defs380" />
  <rect
     width="1062.99"
     height="708.661"
     x="0"
     y="0"
     style="font-size:12;fill:#e70013;fill-rule:evenodd;stroke-width:1pt;"
     id="rect171" />
  <path
     d="M 685.737 439.899 C 640.894 494.865 560.254 504.06 504.909 460.045 C 449.564 416.031 440.368 335.391 484.383 280.045 C 528.397 224.7 609.037 215.504 664.383 259.519 C 671.951 265.538 677.811 271.326 684.817 279.219 C 669.3 249.161 647.528 227.395 617.065 210.992 C 534.933 166.767 432.383 197.532 388.158 279.664 C 343.933 361.796 374.699 464.347 456.831 508.571 C 538.961 552.796 641.512 522.031 685.737 439.899 z M 688.219 421.109 L 615.992 398.262 L 569.272 459.446 L 568.681 383.694 L 496.054 358.168 L 567.916 334.198 L 569.75 257.237 L 614.754 318.175 L 688.514 296.137 L 644.466 357.769 L 688.219 421.109 z M 718.201 359.782 C 718.201 459.834 636.999 541.035 536.947 541.035 C 436.895 541.035 355.693 459.834 355.693 359.782 C 355.693 259.73 436.895 178.528 536.947 178.528 C 636.999 178.528 718.201 259.73 718.201 359.782 z "
     style="font-size:12;fill:#ffffff;fill-rule:evenodd;stroke-width:1pt;"
     id="path335" />
</svg>
