<?xml version="1.0" encoding="UTF-8" standalone="no"?>
<!DOCTYPE svg PUBLIC "-//W3C//DTD SVG 20010904//EN"
"http://www.w3.org/TR/2001/REC-SVG-20010904/DTD/svg10.dtd">
<!-- Created with Sodipodi ("http://www.sodipodi.com/") -->
<svg
   id="svg600"
   sodipodi:version="0.33pre"
   width="800pt"
   height="480pt"
   sodipodi:docname="/home/tobias/un.svg"
   sodipodi:docbase="/home/tobias"
   xmlns="http://www.w3.org/2000/svg"
   xmlns:sodipodi="http://sodipodi.sourceforge.net/DTD/sodipodi-0.dtd"
   xmlns:xlink="http://www.w3.org/1999/xlink">
  <defs
     id="defs602" />
  <sodipodi:namedview
     id="base" />
  <g
     id="g3751">
    <rect
       style="font-size:12;fill:#3a79ce;fill-rule:evenodd;stroke-width:1pt;"
       id="rect3688"
       width="999.999939"
       height="600.000018"
       x="0.000000"
       y="0.000008" />
    <path
       id="selection_to_path#13"
       fill="none"
       stroke="black"
       stroke-width="1"
       d="M 527.227 409.385 C 514.227 411.385 502.227 414.385 489.227 414.385 C 489.227 414.385 489.227 387.385 489.227 387.385 C 489.227 385.385 489.227 381.385 490.227 380.385 C 491.227 378.385 494.227 378.385 496.227 378.385 C 501.227 377.385 505.227 376.385 510.227 379.385 C 518.227 385.385 513.227 391.385 516.227 396.385 C 519.227 403.385 524.227 400.385 527.227 409.385 z M 537.227 415.385 C 546.227 412.385 555.227 409.385 562.227 403.385 C 562.227 403.385 570.227 396.385 570.227 396.385 C 570.227 396.385 583.227 387.385 583.227 387.385 C 583.227 387.385 595.227 378.385 595.227 378.385 C 597.227 376.385 599.227 374.385 602.227 374.385 C 605.227 374.385 607.227 376.385 609.227 378.385 C 613.227 382.385 618.227 387.385 622.227 391.385 C 624.227 394.385 626.227 396.385 625.227 399.385 C 623.227 403.385 609.227 414.385 605.227 417.385 C 577.227 437.385 532.227 455.385 497.227 455.385 C 495.227 455.385 490.227 455.385 489.227 454.385 C 486.227 452.385 488.227 446.385 487.227 443.385 C 487.227 443.385 488.227 426.385 488.227 426.385 C 488.227 424.385 488.227 421.385 490.227 420.385 C 491.227 419.385 495.227 419.385 497.227 419.385 C 497.227 419.385 517.227 416.385 517.227 416.385 C 520.227 415.385 532.227 412.385 535.227 413.385 C 536.227 413.385 536.227 414.385 537.227 415.385 z M 483.227 419.385 C 483.227 419.385 482.227 455.385 482.227 455.385 C 446.227 455.385 400.227 442.385 371.227 420.385 C 371.227 420.385 350.227 404.385 350.227 404.385 C 348.227 402.385 344.227 398.385 344.227 395.385 C 344.227 393.385 354.227 383.385 356.227 381.385 C 358.227 379.385 364.227 372.385 367.227 372.385 C 370.227 372.385 375.227 376.385 377.227 379.385 C 385.227 385.385 393.227 392.385 402.227 397.385 C 426.227 411.385 455.227 418.385 483.227 419.385 z M 502.227 370.385 C 498.227 373.385 494.227 372.385 489.227 372.385 C 489.227 372.385 489.227 368.385 489.227 368.385 C 489.227 368.385 502.227 370.385 502.227 370.385 z M 370.227 357.385 C 370.227 357.385 371.227 358.385 371.227 358.385 C 369.227 362.385 367.227 362.385 365.227 358.385 C 365.227 358.385 370.227 357.385 370.227 357.385 z M 412.227 355.385 C 427.227 364.385 436.227 369.385 453.227 374.385 C 453.227 374.385 481.227 378.385 481.227 378.385 C 485.227 380.385 484.227 384.385 484.227 387.385 C 484.227 387.385 484.227 395.385 484.227 395.385 C 484.227 395.385 484.227 403.385 484.227 403.385 C 484.227 403.385 483.227 414.385 483.227 414.385 C 453.227 414.385 423.227 404.385 398.227 389.385 C 390.227 384.385 383.227 379.385 377.227 372.385 C 375.227 371.385 371.227 366.385 375.227 364.385 C 379.227 363.385 381.227 367.385 387.227 367.385 C 387.227 367.385 397.227 364.385 397.227 364.385 C 402.227 362.385 408.227 364.385 411.227 359.385 C 411.227 359.385 412.227 355.385 412.227 355.385 z M 581.647 352.175 C 581.067 352.465 580.227 353.385 580.227 353.385 C 580.227 353.385 582.227 357.385 582.227 357.385 C 582.227 357.385 582.227 353.385 582.227 353.385 C 589.227 356.385 586.227 359.385 590.227 364.385 C 592.227 366.385 595.227 366.385 598.227 368.385 C 593.227 375.385 582.227 384.385 574.227 387.385 C 574.227 387.385 573.227 386.385 573.227 386.385 C 576.227 376.385 573.227 378.385 574.227 373.385 C 575.227 370.385 579.227 367.385 579.227 363.385 C 578.227 358.385 571.227 356.385 570.227 352.385 C 569.227 348.385 570.227 343.385 575.227 345.385 C 577.227 345.385 581.867 352.065 581.647 352.175 z M 564.227 325.385 C 563.227 328.385 563.227 328.385 560.227 329.385 C 560.227 329.385 564.227 325.385 564.227 325.385 z M 486.227 324.385 C 486.227 324.385 479.227 328.385 479.227 328.385 C 481.227 325.385 482.227 325.385 486.227 324.385 z M 557.227 329.385 C 551.227 333.385 537.227 325.385 530.227 324.385 C 530.227 324.385 534.227 322.385 534.227 322.385 C 534.227 322.385 557.227 329.385 557.227 329.385 z M 465.227 334.385 C 465.227 334.385 459.227 339.385 459.227 339.385 C 458.227 341.385 454.227 348.385 454.227 351.385 C 455.227 354.385 459.227 359.385 460.227 361.385 C 462.227 363.385 464.227 365.385 467.227 367.385 C 472.227 369.385 478.227 367.385 484.227 371.385 C 477.227 373.385 469.227 372.385 462.227 370.385 C 439.227 366.385 417.227 354.385 401.227 338.385 C 405.227 332.385 413.227 325.385 418.227 320.385 C 420.227 318.385 423.227 315.385 426.227 314.385 C 430.227 314.385 436.227 320.385 439.227 322.385 C 448.227 329.385 456.227 330.385 465.227 334.385 z M 527.227 313.385 C 527.227 313.385 526.227 316.385 526.227 316.385 C 526.227 316.385 529.227 314.385 529.227 314.385 C 531.227 320.385 524.227 321.385 519.227 323.385 C 513.227 325.385 507.227 332.385 501.227 324.385 C 501.227 324.385 505.227 322.385 505.227 322.385 C 505.227 322.385 486.227 324.385 486.227 324.385 C 488.227 319.385 490.227 317.385 496.227 316.385 C 496.227 316.385 495.227 321.385 495.227 321.385 C 497.227 319.385 497.227 319.385 497.227 316.385 C 497.227 316.385 507.227 320.385 507.227 320.385 C 507.227 320.385 507.227 317.385 507.227 317.385 C 507.227 317.385 511.227 320.385 511.227 320.385 C 511.227 320.385 515.227 319.385 515.227 319.385 C 517.227 322.385 518.227 321.385 520.227 319.385 C 520.227 319.385 516.227 319.385 516.227 319.385 C 516.227 319.385 515.227 315.385 515.227 315.385 C 522.227 317.385 521.227 316.385 527.227 313.385 z M 508.227 316.385 C 508.227 316.385 503.227 314.385 503.227 314.385 C 506.227 313.385 506.227 313.385 508.227 316.385 z M 485.227 305.385 C 485.227 305.385 485.227 306.385 485.227 306.385 C 485.227 306.385 484.227 305.385 484.227 305.385 C 484.227 305.385 485.227 305.385 485.227 305.385 z M 529.227 302.385 C 529.227 302.385 518.227 310.385 518.227 310.385 C 518.227 310.385 518.227 303.385 518.227 303.385 C 518.227 303.385 529.227 302.385 529.227 302.385 z M 559.227 300.385 C 557.227 304.385 553.227 309.385 549.227 304.385 C 553.227 304.385 555.227 304.385 557.227 300.385 C 557.227 300.385 559.227 300.385 559.227 300.385 z M 497.227 296.385 C 497.227 296.385 497.227 297.385 497.227 297.385 C 497.227 297.385 496.227 296.385 496.227 296.385 C 496.227 296.385 497.227 296.385 497.227 296.385 z M 492.227 295.385 C 491.227 299.385 491.227 299.385 488.227 301.385 C 488.227 301.385 486.227 296.385 486.227 296.385 C 486.227 296.385 492.227 295.385 492.227 295.385 z M 494.227 292.385 C 494.227 292.385 496.227 295.385 496.227 295.385 C 496.227 295.385 494.227 292.385 494.227 292.385 z M 534.227 289.385 C 534.227 289.385 533.227 292.385 533.227 292.385 C 533.227 292.385 543.227 293.385 543.227 293.385 C 543.227 293.385 542.227 297.385 542.227 297.385 C 542.227 297.385 532.227 293.385 532.227 293.385 C 532.227 293.385 534.227 289.385 534.227 289.385 z M 481.227 295.385 C 481.227 295.385 483.227 298.385 483.227 298.385 C 483.227 298.385 478.227 298.385 478.227 298.385 C 478.227 298.385 476.227 303.385 476.227 303.385 C 476.227 303.385 477.227 304.385 477.227 304.385 C 477.227 304.385 481.227 302.385 481.227 302.385 C 481.227 302.385 483.227 313.385 483.227 313.385 C 476.227 314.385 473.227 319.385 477.227 325.385 C 477.227 325.385 477.227 327.385 477.227 327.385 C 475.227 328.385 474.227 329.385 472.227 329.385 C 465.227 330.385 447.227 322.385 441.227 317.385 C 439.227 316.385 432.227 311.385 432.227 308.385 C 432.227 306.385 442.227 297.385 444.227 295.385 C 447.227 292.385 452.227 286.385 456.227 286.385 C 459.227 286.385 463.227 289.385 465.227 290.385 C 470.227 292.385 475.227 294.385 481.227 295.385 z M 501.227 284.385 C 501.227 290.385 504.227 296.385 497.227 298.385 C 502.227 292.385 499.227 291.385 499.227 284.385 C 499.227 284.385 501.227 284.385 501.227 284.385 z M 399.227 270.385 C 399.227 270.385 395.227 274.385 395.227 274.385 C 396.227 271.385 396.227 271.385 399.227 270.385 z M 409.227 267.385 C 414.227 270.385 419.227 269.385 422.227 274.385 C 428.227 274.385 426.227 278.385 434.227 283.385 C 434.227 283.385 434.227 278.385 434.227 278.385 C 434.227 278.385 437.227 288.385 437.227 288.385 C 442.227 285.385 444.227 280.385 446.227 275.385 C 448.227 276.385 449.227 276.385 450.227 278.385 C 451.227 281.385 449.227 283.385 447.227 285.385 C 447.227 285.385 435.227 297.385 435.227 297.385 C 433.227 299.385 430.227 302.385 428.227 303.385 C 424.227 304.385 421.227 299.385 420.227 296.385 C 416.227 290.385 407.227 274.385 409.227 267.385 z M 397.227 266.385 C 397.227 266.385 400.227 267.385 400.227 267.385 C 398.227 268.385 397.227 268.385 397.227 266.385 z M 515.227 256.385 C 515.227 256.385 511.227 258.385 511.227 258.385 C 511.227 258.385 515.227 256.385 515.227 256.385 z M 654.227 256.385 C 659.227 254.385 672.227 255.385 678.227 255.385 C 680.227 255.385 685.227 255.385 687.227 257.385 C 689.227 259.385 688.227 265.385 688.227 267.385 C 688.227 267.385 684.227 293.385 684.227 293.385 C 679.227 320.385 667.227 348.385 651.227 370.385 C 648.227 374.385 636.227 390.385 633.227 391.385 C 630.227 393.385 627.227 390.385 625.227 388.385 C 625.227 388.385 611.227 374.385 611.227 374.385 C 609.227 372.385 607.227 370.385 607.227 367.385 C 608.227 365.385 612.227 361.385 613.227 359.385 C 613.227 359.385 626.227 341.385 626.227 341.385 C 636.227 326.385 644.227 305.385 648.227 287.385 C 648.227 287.385 652.227 265.385 652.227 265.385 C 652.227 261.385 651.227 258.385 654.227 256.385 z M 471.227 255.385 C 471.227 255.385 471.227 256.385 471.227 256.385 C 471.227 256.385 470.227 255.385 470.227 255.385 C 470.227 255.385 471.227 255.385 471.227 255.385 z M 602.227 364.385 C 601.227 359.385 600.227 351.385 598.227 347.385 C 594.227 341.385 591.227 344.385 590.227 350.385 C 586.227 348.385 578.227 343.385 579.227 338.385 C 579.227 336.385 582.227 333.385 584.227 331.385 C 587.227 327.385 590.227 323.385 592.227 319.385 C 600.227 307.385 606.227 292.385 609.227 278.385 C 609.227 278.385 613.227 256.385 613.227 256.385 C 614.227 253.385 618.227 254.385 621.227 254.385 C 621.227 254.385 638.227 254.385 638.227 254.385 C 641.227 254.385 644.227 254.385 646.227 256.385 C 648.227 258.385 648.227 262.385 648.227 264.385 C 648.227 264.385 645.227 285.385 645.227 285.385 C 640.227 307.385 630.227 330.385 617.227 348.385 C 612.227 354.385 608.227 359.385 602.227 364.385 z M 574.227 333.385 C 574.227 328.385 573.227 322.385 568.227 319.385 C 568.227 319.385 565.227 325.385 565.227 325.385 C 562.227 316.385 576.227 305.385 563.227 298.385 C 563.227 298.385 570.227 284.385 570.227 284.385 C 576.227 286.385 590.227 280.385 597.227 279.385 C 597.227 279.385 595.227 273.385 595.227 273.385 C 602.227 272.385 600.227 266.385 593.227 271.385 C 586.227 267.385 584.227 262.385 581.227 254.385 C 581.227 254.385 598.227 254.385 598.227 254.385 C 600.227 254.385 604.227 254.385 605.227 255.385 C 607.227 256.385 607.227 259.385 606.227 261.385 C 606.227 261.385 604.227 277.385 604.227 277.385 C 601.227 292.385 596.227 304.385 588.227 317.385 C 584.227 323.385 581.227 329.385 574.227 333.385 z M 402.227 261.385 C 397.227 262.385 396.227 262.385 392.227 258.385 C 392.227 258.385 392.227 269.385 392.227 269.385 C 392.227 269.385 388.227 269.385 388.227 269.385 C 388.227 269.385 391.227 274.385 391.227 274.385 C 390.227 280.385 392.227 286.385 397.227 291.385 C 395.227 282.385 394.227 277.385 402.227 270.385 C 406.227 281.385 406.227 284.385 413.227 295.385 C 414.227 298.385 421.227 306.385 421.227 308.385 C 421.227 312.385 416.227 316.385 414.227 318.385 C 410.227 322.385 402.227 331.385 397.227 332.385 C 397.227 332.385 390.227 333.385 390.227 333.385 C 390.227 333.385 394.227 324.385 394.227 324.385 C 394.227 324.385 390.227 306.385 390.227 306.385 C 390.227 306.385 393.227 300.385 393.227 300.385 C 393.227 300.385 387.227 295.385 387.227 295.385 C 387.227 295.385 388.227 293.385 388.227 293.385 C 388.227 293.385 389.227 293.385 389.227 293.385 C 389.227 293.385 387.227 286.385 387.227 286.385 C 387.227 286.385 383.227 286.385 383.227 286.385 C 385.227 280.385 381.227 280.385 379.227 275.385 C 378.227 274.385 378.227 270.385 378.227 268.385 C 377.227 262.385 380.227 264.385 383.227 261.385 C 385.227 260.385 386.227 257.385 386.227 255.385 C 394.227 254.385 403.227 248.385 402.227 261.385 z M 378.227 253.385 C 376.227 262.385 372.227 262.385 375.227 272.385 C 364.227 274.385 365.227 261.385 364.227 253.385 C 364.227 253.385 378.227 253.385 378.227 253.385 z M 360.227 267.385 C 354.227 271.385 348.227 279.385 347.227 286.385 C 345.227 292.385 347.227 296.385 344.227 299.385 C 341.227 301.385 334.227 302.385 332.227 299.385 C 330.227 298.385 329.227 292.385 328.227 290.385 C 326.227 282.385 325.227 274.385 324.227 265.385 C 323.227 262.385 322.227 256.385 324.227 254.385 C 326.227 252.385 330.227 252.385 332.227 252.385 C 332.227 252.385 350.227 252.385 350.227 252.385 C 352.227 252.385 356.227 252.385 358.227 254.385 C 359.227 255.385 359.227 264.385 360.227 267.385 z M 318.227 252.385 C 318.227 265.385 319.227 275.385 322.227 287.385 C 322.227 287.385 325.227 301.385 325.227 301.385 C 325.227 301.385 313.227 298.385 313.227 298.385 C 313.227 298.385 314.227 301.385 314.227 301.385 C 314.227 301.385 308.227 302.385 308.227 302.385 C 308.227 302.385 307.227 296.385 307.227 296.385 C 307.227 296.385 302.227 298.385 302.227 298.385 C 302.227 302.385 302.227 302.385 299.227 304.385 C 299.227 304.385 299.227 305.385 299.227 305.385 C 299.227 305.385 297.227 311.385 297.227 311.385 C 297.227 311.385 301.227 325.385 301.227 325.385 C 301.227 325.385 304.227 332.385 304.227 332.385 C 304.227 332.385 306.227 332.385 306.227 332.385 C 306.227 332.385 307.227 331.385 307.227 331.385 C 307.227 331.385 305.227 321.385 305.227 321.385 C 311.227 323.385 313.227 328.385 316.227 324.385 C 316.227 324.385 331.227 336.385 331.227 336.385 C 334.227 340.385 336.227 346.385 342.227 342.385 C 343.227 344.385 344.227 346.385 345.227 348.385 C 349.227 353.385 359.227 357.385 362.227 365.385 C 363.227 368.385 361.227 370.385 359.227 372.385 C 359.227 372.385 344.227 387.385 344.227 387.385 C 342.227 388.385 340.227 391.385 337.227 390.385 C 334.227 389.385 331.227 384.385 329.227 382.385 C 324.227 375.385 319.227 368.385 314.227 361.385 C 293.227 329.385 282.227 289.385 282.227 251.385 C 282.227 251.385 318.227 252.385 318.227 252.385 z M 460.227 251.385 C 460.227 251.385 458.227 254.385 458.227 254.385 C 458.227 254.385 458.227 250.385 458.227 250.385 C 458.227 250.385 460.227 251.385 460.227 251.385 z M 450.227 248.385 C 450.227 248.385 448.227 255.385 448.227 255.385 C 448.227 255.385 458.227 256.385 458.227 256.385 C 458.227 256.385 458.227 257.385 458.227 257.385 C 458.227 257.385 456.227 259.385 456.227 259.385 C 450.227 257.385 442.227 258.385 436.227 259.385 C 436.227 259.385 442.227 249.385 442.227 249.385 C 442.227 249.385 450.227 248.385 450.227 248.385 z M 402.227 247.385 C 402.227 247.385 390.227 247.385 390.227 247.385 C 390.227 247.385 390.227 241.385 390.227 241.385 C 397.227 240.385 401.227 238.385 402.227 247.385 z M 465.227 236.385 C 465.227 236.385 460.227 240.385 460.227 240.385 C 460.227 240.385 465.227 236.385 465.227 236.385 z M 604.227 231.385 C 604.227 231.385 603.227 241.385 603.227 241.385 C 608.227 243.385 607.227 247.385 604.227 248.385 C 600.227 249.385 597.227 246.385 594.227 247.385 C 594.227 247.385 590.227 245.385 590.227 245.385 C 589.227 248.385 587.227 247.385 584.227 247.385 C 587.227 243.385 588.227 243.385 588.227 238.385 C 601.227 236.385 596.227 235.385 604.227 231.385 z M 481.227 220.385 C 483.227 221.385 485.227 223.385 487.227 224.385 C 491.227 226.385 501.227 225.385 498.227 237.385 C 498.227 237.385 500.227 234.385 500.227 234.385 C 500.227 234.385 504.227 234.385 504.227 234.385 C 504.227 242.385 505.227 246.385 497.227 249.385 C 499.227 249.385 503.227 249.385 504.227 251.385 C 507.227 252.385 510.227 263.385 510.227 266.385 C 509.227 267.385 509.227 269.385 508.227 271.385 C 504.227 275.385 500.227 272.385 496.227 275.385 C 492.227 279.385 492.227 285.385 489.227 288.385 C 487.227 290.385 484.227 290.385 481.227 290.385 C 472.227 289.385 468.227 286.385 461.227 282.385 C 461.227 282.385 461.227 280.385 461.227 280.385 C 464.227 279.385 473.227 278.385 475.227 277.385 C 478.227 275.385 482.227 267.385 483.227 263.385 C 483.227 263.385 483.227 257.385 483.227 257.385 C 483.227 257.385 476.227 255.385 476.227 255.385 C 476.227 250.385 474.227 249.385 470.227 246.385 C 470.227 246.385 473.227 249.385 473.227 249.385 C 468.227 256.385 466.227 256.385 466.227 265.385 C 460.227 267.385 459.227 270.385 456.227 275.385 C 456.227 275.385 451.227 268.385 451.227 268.385 C 451.227 268.385 458.227 268.385 458.227 268.385 C 458.227 268.385 466.227 250.385 466.227 250.385 C 466.227 250.385 462.227 252.385 462.227 252.385 C 462.227 252.385 463.227 248.385 463.227 248.385 C 463.227 248.385 458.227 248.385 458.227 248.385 C 460.227 244.385 462.227 246.385 468.227 248.385 C 469.227 245.385 469.227 246.385 472.227 245.385 C 470.227 241.385 469.227 239.385 465.227 236.385 C 467.227 229.385 470.227 231.385 475.227 227.385 C 478.227 225.385 479.227 223.385 481.227 220.385 z M 486.227 215.385 C 486.227 215.385 481.227 214.385 481.227 214.385 C 484.227 212.385 484.227 212.385 486.227 215.385 z M 552.227 207.385 C 550.227 211.385 548.227 212.385 544.227 212.385 C 546.227 208.385 547.227 206.385 552.227 207.385 z M 607.227 203.385 C 607.227 203.385 610.227 212.385 610.227 212.385 C 606.227 210.385 605.227 207.385 607.227 203.385 z M 542.227 202.385 C 542.227 202.385 537.227 207.385 537.227 207.385 C 538.227 204.385 539.227 203.385 542.227 202.385 z M 580.227 198.385 C 582.227 201.385 584.227 201.385 585.227 198.385 C 585.227 198.385 580.227 198.385 580.227 198.385 z M 534.227 199.385 C 531.227 204.385 529.227 204.385 524.227 206.385 C 526.227 202.385 530.227 200.385 534.227 199.385 z M 482.227 199.385 C 482.227 199.385 483.227 207.385 483.227 207.385 C 483.227 207.385 472.227 208.385 472.227 208.385 C 474.227 202.385 477.227 201.385 482.227 199.385 z M 449.227 218.385 C 449.227 218.385 437.227 216.385 437.227 216.385 C 437.227 216.385 430.227 211.385 430.227 211.385 C 425.227 209.385 422.227 211.385 417.227 212.385 C 418.227 208.385 423.227 198.385 428.227 198.385 C 430.227 198.385 433.227 201.385 435.227 203.385 C 439.227 206.385 447.227 214.385 449.227 218.385 z M 536.227 189.385 C 536.227 189.385 536.227 191.385 536.227 191.385 C 533.227 193.385 529.227 196.385 526.227 197.385 C 520.227 198.385 515.227 196.385 509.227 201.385 C 509.227 201.385 523.227 200.385 523.227 200.385 C 520.227 207.385 515.227 206.385 517.227 214.385 C 509.227 216.385 511.227 212.385 505.227 211.385 C 504.227 211.385 501.227 212.385 499.227 212.385 C 504.227 207.385 507.227 208.385 508.227 200.385 C 503.227 202.385 500.227 205.385 497.227 201.385 C 497.227 201.385 498.227 208.385 498.227 208.385 C 498.227 208.385 490.227 207.385 490.227 207.385 C 490.227 207.385 490.227 183.385 490.227 183.385 C 490.227 183.385 490.227 172.385 490.227 172.385 C 502.227 172.385 514.227 176.385 524.227 181.385 C 524.227 181.385 536.227 189.385 536.227 189.385 z M 483.227 172.385 C 483.227 172.385 483.227 198.385 483.227 198.385 C 476.227 199.385 472.227 203.385 468.227 210.385 C 468.227 210.385 465.227 208.385 465.227 208.385 C 465.227 208.385 466.227 214.385 466.227 214.385 C 464.227 215.385 460.227 217.385 458.227 216.385 C 454.227 216.385 445.227 206.385 441.227 203.385 C 439.227 200.385 433.227 195.385 434.227 192.385 C 435.227 188.385 443.227 183.385 446.227 182.385 C 460.227 175.385 467.227 172.385 483.227 172.385 z M 569.227 203.385 C 569.227 203.385 577.227 203.385 577.227 203.385 C 577.227 203.385 580.227 195.385 580.227 195.385 C 580.227 195.385 582.227 191.385 582.227 191.385 C 583.227 186.385 581.227 186.385 585.227 182.385 C 585.227 182.385 591.227 193.385 591.227 193.385 C 591.227 193.385 584.227 191.385 584.227 191.385 C 588.227 195.385 588.227 195.385 587.227 200.385 C 595.227 202.385 599.227 207.385 601.227 214.385 C 602.227 216.385 603.227 218.385 603.227 220.385 C 602.227 222.385 601.227 224.385 599.227 226.385 C 598.227 228.385 597.227 230.385 595.227 231.385 C 593.227 232.385 592.227 231.385 592.227 229.385 C 592.227 226.385 595.227 222.385 590.227 218.385 C 588.227 217.385 587.227 217.385 585.227 217.385 C 583.227 218.385 582.227 219.385 581.227 220.385 C 581.227 220.385 566.227 207.385 566.227 207.385 C 566.227 207.385 567.227 203.385 567.227 203.385 C 567.227 203.385 560.227 201.385 560.227 201.385 C 560.227 201.385 561.227 206.385 561.227 206.385 C 556.227 204.385 554.227 202.385 556.227 197.385 C 553.227 197.385 549.227 195.385 551.227 191.385 C 552.227 189.385 555.227 187.385 556.227 185.385 C 559.227 182.385 569.227 172.385 572.227 171.385 C 576.227 170.385 581.227 175.385 579.227 181.385 C 578.227 183.385 575.227 186.385 574.227 188.385 C 572.227 191.385 573.227 193.385 572.227 195.385 C 571.227 199.385 570.227 198.385 569.227 203.385 z M 364.227 247.385 C 365.227 238.385 367.227 222.385 370.227 214.385 C 373.227 203.385 381.227 188.385 388.227 178.385 C 390.227 175.385 395.227 168.385 399.227 168.385 C 402.227 168.385 410.227 177.385 412.227 179.385 C 414.227 181.385 421.227 188.385 422.227 191.385 C 422.227 194.385 417.227 199.385 415.227 202.385 C 415.227 202.385 408.227 213.385 408.227 213.385 C 406.227 215.385 403.227 216.385 402.227 218.385 C 402.227 218.385 398.227 222.385 398.227 222.385 C 396.227 224.385 394.227 223.385 391.227 226.385 C 385.227 234.385 386.227 240.385 384.227 243.385 C 382.227 247.385 378.227 247.385 374.227 247.385 C 374.227 247.385 364.227 247.385 364.227 247.385 z M 591.227 164.385 C 591.227 164.385 597.227 163.385 597.227 163.385 C 600.227 172.385 610.227 173.385 616.227 179.385 C 619.227 182.385 623.227 189.385 626.227 190.385 C 629.227 191.385 632.227 190.385 634.227 189.385 C 642.227 202.385 647.227 226.385 648.227 242.385 C 648.227 244.385 648.227 247.385 646.227 248.385 C 644.227 249.385 640.227 249.385 638.227 249.385 C 638.227 249.385 626.227 248.385 626.227 248.385 C 626.227 248.385 612.227 248.385 612.227 248.385 C 612.227 248.385 611.227 235.385 611.227 235.385 C 611.227 235.385 612.227 226.385 612.227 226.385 C 612.227 226.385 615.227 225.385 615.227 225.385 C 615.227 225.385 613.227 222.385 613.227 222.385 C 613.227 222.385 614.227 212.385 614.227 212.385 C 614.227 212.385 608.227 191.385 608.227 191.385 C 608.227 191.385 602.227 180.385 602.227 180.385 C 602.227 180.385 603.227 176.385 603.227 176.385 C 603.227 176.385 594.227 170.385 594.227 170.385 C 595.227 174.385 596.227 175.385 600.227 177.385 C 597.227 186.385 608.227 187.385 605.227 199.385 C 605.227 199.385 599.227 193.385 599.227 193.385 C 599.227 193.385 599.227 187.385 599.227 187.385 C 599.227 187.385 597.227 181.385 597.227 181.385 C 589.227 182.385 592.227 177.385 587.227 172.385 C 585.227 169.385 582.227 167.385 582.227 163.385 C 582.227 159.385 587.227 155.385 591.227 164.385 z M 585.227 148.385 C 581.227 152.385 581.227 156.385 575.227 155.385 C 575.227 155.385 577.227 150.385 577.227 150.385 C 573.227 149.385 573.227 147.385 572.227 143.385 C 579.227 140.385 582.227 140.385 585.227 148.385 z M 559.227 147.385 C 559.227 147.385 550.227 140.385 550.227 140.385 C 555.227 141.385 557.227 142.385 559.227 147.385 z M 369.227 139.385 C 370.227 139.385 370.227 138.385 372.227 139.385 C 374.227 140.385 385.227 152.385 388.227 155.385 C 390.227 157.385 393.227 159.385 393.227 162.385 C 393.227 164.385 390.227 167.385 388.227 169.385 C 385.227 173.385 382.227 177.385 380.227 181.385 C 371.227 195.385 365.227 207.385 361.227 223.385 C 361.227 223.385 359.227 237.385 359.227 237.385 C 359.227 239.385 359.227 243.385 358.227 245.385 C 357.227 248.385 353.227 247.385 350.227 247.385 C 350.227 247.385 333.227 246.385 333.227 246.385 C 331.227 246.385 325.227 246.385 324.227 244.385 C 323.227 243.385 324.227 239.385 324.227 237.385 C 324.227 237.385 326.227 216.385 326.227 216.385 C 330.227 195.385 341.227 173.385 353.227 156.385 C 357.227 151.385 363.227 142.385 369.227 139.385 z M 569.227 163.385 C 567.227 169.385 557.227 177.385 552.227 182.385 C 550.227 184.385 547.227 187.385 544.227 187.385 C 542.227 187.385 536.227 182.385 534.227 181.385 C 528.227 177.385 522.227 173.385 515.227 171.385 C 508.227 168.385 505.227 167.385 498.227 166.385 C 495.227 166.385 492.227 166.385 490.227 164.385 C 489.227 162.385 489.227 156.385 489.227 154.385 C 489.227 154.385 490.227 131.385 490.227 131.385 C 510.227 131.385 528.227 136.385 546.227 146.385 C 546.227 146.385 569.227 163.385 569.227 163.385 z M 484.227 131.385 C 484.227 131.385 484.227 165.385 484.227 165.385 C 471.227 166.385 458.227 169.385 447.227 175.385 C 443.227 177.385 439.227 180.385 435.227 182.385 C 433.227 184.385 430.227 186.385 428.227 186.385 C 425.227 186.385 422.227 182.385 420.227 180.385 C 420.227 180.385 403.227 163.385 403.227 163.385 C 408.227 156.385 413.227 153.385 420.227 149.385 C 435.227 139.385 457.227 131.385 475.227 131.385 C 475.227 131.385 484.227 131.385 484.227 131.385 z M 688.227 249.385 C 688.227 249.385 661.227 249.385 661.227 249.385 C 659.227 249.385 655.227 249.385 654.227 248.385 C 652.227 247.385 652.227 244.385 652.227 242.385 C 652.227 242.385 651.227 229.385 651.227 229.385 C 650.227 221.385 647.227 206.385 644.227 198.385 C 644.227 198.385 640.227 187.385 640.227 187.385 C 638.227 181.385 642.227 179.385 638.227 173.385 C 634.227 166.385 622.227 150.385 616.227 144.385 C 613.227 141.385 607.227 138.385 610.227 133.385 C 611.227 131.385 615.227 127.385 617.227 125.385 C 620.227 122.385 627.227 113.385 632.227 113.385 C 635.227 114.385 638.227 118.385 639.227 120.385 C 639.227 120.385 657.227 142.385 657.227 142.385 C 663.227 152.385 676.227 180.385 680.227 191.385 C 684.227 205.385 688.227 234.385 688.227 249.385 z M 341.227 110.385 C 347.227 111.385 354.227 120.385 359.227 125.385 C 361.227 127.385 364.227 130.385 364.227 133.385 C 364.227 136.385 361.227 139.385 359.227 141.385 C 354.227 147.385 351.227 151.385 347.227 157.385 C 332.227 179.385 325.227 198.385 320.227 224.385 C 320.227 224.385 318.227 238.385 318.227 238.385 C 318.227 240.385 318.227 243.385 316.227 245.385 C 315.227 246.385 311.227 246.385 309.227 246.385 C 309.227 246.385 290.227 246.385 290.227 246.385 C 288.227 246.385 284.918 245.97 283.504 245.491 C 281.988 243.007 283.227 237.385 283.227 234.385 C 283.227 234.385 286.227 208.385 286.227 208.385 C 291.227 181.385 304.227 155.385 320.227 132.385 C 324.227 126.385 334.227 112.385 341.227 110.385 z M 557.227 106.385 C 557.227 106.385 555.227 112.385 555.227 112.385 C 562.227 115.385 562.227 117.385 564.227 123.385 C 564.227 123.385 567.227 128.385 567.227 128.385 C 567.227 128.385 569.227 141.385 569.227 141.385 C 559.227 140.385 562.227 132.385 553.227 131.385 C 553.227 131.385 557.227 139.385 557.227 139.385 C 557.227 139.385 552.227 132.385 552.227 132.385 C 552.227 132.385 547.227 137.385 547.227 137.385 C 547.227 137.385 545.227 137.385 545.227 137.385 C 545.227 137.385 545.227 135.385 545.227 135.385 C 545.227 135.385 543.227 135.385 543.227 135.385 C 543.227 135.385 543.227 137.385 543.227 137.385 C 543.227 137.385 527.227 131.385 527.227 131.385 C 515.227 127.385 503.227 124.385 490.227 124.385 C 490.227 124.385 491.227 107.385 491.227 107.385 C 491.227 107.385 494.227 105.385 494.227 105.385 C 490.227 96.3848 490.227 101.385 490.227 89.3848 C 510.227 89.3848 539.227 96.3848 557.227 106.385 z M 484.227 89.3848 C 484.227 89.3848 484.227 124.385 484.227 124.385 C 460.227 124.385 444.227 130.385 423.227 141.385 C 417.227 144.385 411.227 148.385 406.227 152.385 C 404.227 154.385 401.227 157.385 398.227 156.385 C 396.227 156.385 393.227 153.385 391.227 151.385 C 391.227 151.385 379.227 139.385 379.227 139.385 C 377.227 137.385 375.227 135.385 375.227 132.385 C 376.227 129.385 389.227 119.385 392.227 117.385 C 420.227 98.3848 450.227 89.3848 484.227 89.3848 z M 507.227 83.3848 C 507.227 83.3848 490.227 83.3848 490.227 83.3848 C 490.227 83.3848 490.227 77.3848 490.227 77.3848 C 490.227 77.3848 507.227 83.3848 507.227 83.3848 z M 627.227 106.385 C 624.227 112.385 612.227 124.385 606.227 128.385 C 604.227 124.385 603.227 124.385 601.227 121.385 C 597.227 115.385 596.227 111.385 589.227 107.385 C 591.227 99.3848 588.227 96.3848 580.227 96.3848 C 580.227 96.3848 582.227 102.385 582.227 102.385 C 579.227 102.385 576.227 100.385 573.227 101.385 C 569.227 101.385 567.227 103.385 562.227 101.385 C 562.227 101.385 545.227 94.3848 545.227 94.3848 C 534.227 90.3848 519.227 86.3848 508.227 85.3848 C 508.227 85.3848 506.227 74.3848 506.227 74.3848 C 510.227 75.3848 525.227 73.3848 527.227 70.3848 C 529.227 69.3848 529.227 68.3848 529.227 66.3848 C 529.227 66.3848 519.227 66.3848 519.227 66.3848 C 519.227 66.3848 507.227 70.3848 507.227 70.3848 C 507.227 70.3848 499.227 71.3848 499.227 71.3848 C 499.227 71.3848 490.227 74.3848 490.227 74.3848 C 490.227 74.3848 490.227 57.3848 490.227 57.3848 C 490.227 55.3848 490.227 51.3848 492.227 49.3848 C 494.227 47.3848 498.227 49.3848 501.227 49.3848 C 501.227 49.3848 527.227 53.3848 527.227 53.3848 C 557.227 58.3848 585.227 72.3848 609.227 90.3848 C 609.227 90.3848 627.227 106.385 627.227 106.385 z M 484.227 48.3848 C 484.227 48.3848 484.227 83.3848 484.227 83.3848 C 455.227 83.3848 430.227 90.3848 404.227 104.385 C 396.227 109.385 388.227 114.385 381.227 120.385 C 379.227 122.385 373.227 127.385 370.227 127.385 C 367.227 127.385 365.227 125.385 363.227 123.385 C 361.227 120.385 348.227 107.385 347.227 105.385 C 346.227 102.385 350.227 99.3848 352.227 97.3848 C 360.227 90.3848 366.227 85.3848 374.227 80.3848 C 406.227 58.3848 445.227 48.3848 484.227 48.3848 z M 425.227 50.3848 C 425.227 50.3848 409.227 56.3848 409.227 56.3848 C 409.227 56.3848 393.227 62.3848 393.227 62.3848 C 382.227 67.3848 362.227 80.3848 352.227 88.3848 C 346.227 93.3848 329.227 109.385 324.227 116.385 C 324.227 116.385 317.227 126.385 317.227 126.385 C 294.227 158.385 282.227 187.385 278.227 226.385 C 276.227 238.385 276.227 241.385 276.227 254.385 C 276.227 254.385 277.227 264.385 277.227 264.385 C 279.227 300.385 290.227 334.385 310.227 364.385 C 322.227 383.385 335.227 399.385 352.227 413.385 C 352.227 413.385 380.227 433.385 380.227 433.385 C 408.227 451.385 456.227 461.385 489.227 461.385 C 489.227 461.385 499.227 460.385 499.227 460.385 C 519.227 459.385 538.227 455.385 557.227 448.385 C 584.227 439.385 608.227 424.385 629.227 404.385 C 654.227 380.385 672.227 350.385 683.227 317.385 C 683.227 317.385 687.227 303.385 687.227 303.385 C 691.227 287.385 693.227 269.385 694.227 253.385 C 694.227 244.385 693.227 236.385 692.227 227.385 C 688.227 189.385 673.227 152.385 649.227 122.385 C 649.227 122.385 639.227 109.385 639.227 109.385 C 627.227 96.3848 607.227 79.3848 591.227 70.3848 C 591.227 70.3848 564.227 57.3848 564.227 57.3848 C 546.227 49.3848 514.227 42.3848 494.227 41.3848 C 476.227 41.3848 475.227 41.3848 456.227 43.3848 C 449.227 44.3848 428.227 49.3848 425.227 50.3848 z "
       style="font-size:12;fill:#ffffff;stroke:#ffffff;stroke-opacity:1;"
       transform="translate(14.15771,4.478836)"
       sodipodi:nodetypes="ccccccccccccccccccccccccccccccccccccccccccccccccccccccccccccccccccccccccccccccccccccccccccccccccccccccccccccccccccccccccccccccccccccccccccccccccccccccccccccccccccccccccccccccccccccccccccccccccccccccccccccccccccccccccccccccccccccccccccccccccccccccccccccccccccccccccccccccccccccccccccccccccccccccccccccccccccccccccccccccccccccccccccccccccccccccccccccccccccccccccccccccccccccccccccccccccccccccccccccccccccccccccccccccccccccccccccccccccccccccccccccccccccccccccccccccccccccccccccccccccccccccccccccccccccccccccccccccccccccccccccccccccccccccccccccccccccccccccccccccccccccccccccccccccccccccccccccccccccccccccccccccccccccccccccccccccccccccccccccccccccccccccccccccc" />
    <path
       id="selection_to_path#12"
       fill="none"
       stroke="black"
       stroke-width="1"
       d="M 310.227 385.385 C 310.227 385.385 314.227 401.385 314.227 401.385 C 318.227 419.385 325.227 441.385 337.227 455.385 C 343.227 461.385 350.227 466.385 356.227 471.385 C 356.227 471.385 330.227 463.385 330.227 463.385 C 330.227 463.385 279.227 449.385 279.227 449.385 C 279.227 449.385 261.227 440.385 261.227 440.385 C 261.227 440.385 248.227 433.385 248.227 433.385 C 250.227 441.385 263.227 454.385 269.227 460.385 C 288.227 477.385 303.227 485.385 328.227 488.385 C 333.227 489.385 335.227 489.385 341.227 489.385 C 350.227 489.385 359.227 486.385 368.227 484.385 C 368.227 484.385 388.227 480.385 388.227 480.385 C 383.227 475.385 380.227 475.385 374.227 469.385 C 369.227 462.385 366.227 455.385 361.227 447.385 C 361.227 447.385 354.227 436.385 354.227 436.385 C 345.227 421.385 339.227 415.385 327.227 403.385 C 323.227 399.385 313.227 387.385 310.227 385.385 z "
       style="font-size:12;fill:#ffffff;stroke:#ffffff;stroke-opacity:1;"
       transform="translate(14.15771,4.478836)" />
    <path
       id="selection_to_path#11"
       fill="none"
       stroke="black"
       stroke-width="1"
       d="M 275.227 328.385 C 275.227 328.385 278.227 349.385 278.227 349.385 C 281.227 381.385 283.227 405.385 300.227 433.385 C 290.227 427.385 294.227 428.385 287.227 421.385 C 287.227 421.385 267.227 402.385 267.227 402.385 C 267.227 402.385 257.227 394.385 257.227 394.385 C 257.227 394.385 234.227 375.385 234.227 375.385 C 229.227 370.385 225.227 365.385 220.227 359.385 C 218.227 355.385 215.227 350.385 211.227 348.385 C 213.227 364.385 223.227 389.385 231.227 402.385 C 231.227 402.385 241.227 415.385 241.227 415.385 C 243.227 418.385 256.317 428.365 259.317 431.365 C 260.697 431.615 271.227 436.385 275.227 438.385 C 275.227 438.385 303.227 446.385 303.227 446.385 C 309.227 448.385 311.227 450.385 318.227 451.385 C 318.227 451.385 315.227 441.385 315.227 441.385 C 315.227 441.385 313.227 421.385 313.227 421.385 C 313.227 417.385 309.227 396.385 307.227 391.385 C 307.227 391.385 304.227 385.385 304.227 385.385 C 304.227 385.385 302.227 377.385 302.227 377.385 C 302.227 377.385 289.227 351.385 289.227 351.385 C 285.227 343.385 281.227 336.385 278.227 328.385 C 278.227 328.385 275.227 328.385 275.227 328.385 z "
       style="font-size:12;fill:#ffffff;stroke:#ffffff;stroke-opacity:1;"
       transform="translate(14.15771,4.478836)" />
    <path
       id="selection_to_path#10"
       fill="none"
       stroke="black"
       stroke-width="1"
       d="M 260.227 260.385 C 260.227 260.385 252.227 305.385 252.227 305.385 C 252.227 305.385 252.227 342.385 252.227 342.385 C 252.227 342.385 256.227 361.385 256.227 361.385 C 247.227 347.385 247.227 342.385 234.227 325.385 C 224.227 313.385 214.227 302.385 206.227 289.385 C 202.227 282.385 198.227 268.385 198.227 268.385 C 191.177 270.315 205.227 325.385 220.227 344.385 C 228.227 354.385 241.227 366.385 252.227 375.385 C 257.227 379.385 261.227 384.385 267.227 387.385 C 267.227 387.385 268.227 386.385 268.227 386.385 C 263.227 373.385 268.227 359.385 269.227 346.385 C 272.227 330.385 272.227 301.385 268.227 285.385 C 267.227 278.385 266.227 264.385 260.227 260.385 z "
       style="font-size:12;fill:#ffffff;stroke:#ffffff;stroke-opacity:1;"
       transform="translate(14.15771,4.478836)" />
    <path
       id="selection_to_path#9"
       fill="none"
       stroke="black"
       stroke-width="1"
       d="M 197.227 185.385 C 195.227 191.385 194.227 196.385 194.227 202.385 C 194.227 202.385 194.227 218.385 194.227 218.385 C 194.227 237.385 202.227 262.385 211.227 278.385 C 215.227 284.385 217.227 287.385 222.227 293.385 C 228.227 301.385 232.227 311.385 233.227 312.385 C 234.227 313.385 234.227 313.385 236.227 314.385 C 236.227 301.385 243.227 293.385 248.227 281.385 C 255.227 264.385 260.227 246.385 263.227 228.385 C 264.227 220.385 265.227 209.385 263.227 202.385 C 259.227 206.385 255.227 218.385 252.227 224.385 C 252.227 224.385 246.227 234.385 246.227 234.385 C 239.227 249.385 232.227 267.385 232.227 284.385 C 227.227 277.385 228.227 273.385 226.227 265.385 C 226.227 265.385 221.227 249.385 221.227 249.385 C 221.227 249.385 209.227 218.385 209.227 218.385 C 209.227 218.385 204.227 207.385 204.227 207.385 C 202.227 200.385 200.227 192.385 199.227 185.385 C 199.227 185.385 197.227 185.385 197.227 185.385 z "
       style="font-size:12;fill:#ffffff;stroke:#ffffff;stroke-opacity:1;"
       transform="translate(14.15771,4.478836)" />
    <path
       id="selection_to_path#8"
       fill="none"
       stroke="black"
       stroke-width="1"
       d="M 228.227 256.385 C 230.227 252.385 231.227 243.385 235.227 235.385 C 235.227 235.385 255.227 210.385 255.227 210.385 C 267.227 194.385 283.227 163.385 289.227 144.385 C 280.227 147.385 262.227 168.385 259.227 171.385 C 250.227 179.385 241.227 191.385 237.227 202.385 C 235.227 195.385 237.227 189.385 237.227 182.385 C 237.227 182.385 235.227 143.385 235.227 143.385 C 235.227 137.385 235.227 131.385 237.227 125.385 C 239.227 119.385 241.227 116.385 240.227 110.385 C 232.227 115.385 226.227 130.385 223.227 138.385 C 217.227 153.385 214.227 168.385 214.227 184.385 C 214.227 199.385 218.227 213.385 221.227 227.385 C 223.227 234.385 225.227 252.385 228.227 256.385 z "
       style="font-size:12;fill:#ffffff;stroke:#ffffff;stroke-opacity:1;"
       transform="translate(14.15771,4.478836)" />
    <path
       id="selection_to_path#7"
       fill="none"
       stroke="black"
       stroke-width="1"
       d="M 331.227 57.3848 C 313.227 66.3848 294.227 76.3848 281.227 92.3848 C 277.227 97.3848 274.227 101.385 271.227 107.385 C 269.227 112.385 268.227 117.385 264.227 121.385 C 264.227 121.385 272.227 90.3848 272.227 90.3848 C 272.227 90.3848 280.227 70.3848 280.227 70.3848 C 273.227 73.3848 268.227 80.3848 263.227 86.3848 C 251.227 102.385 247.227 110.385 243.227 130.385 C 242.227 140.385 244.227 157.385 244.227 157.385 C 244.227 157.385 244.227 168.385 244.227 168.385 C 244.227 168.385 243.227 182.385 243.227 182.385 C 248.227 180.385 251.227 173.385 255.227 169.385 C 255.227 169.385 274.227 154.385 274.227 154.385 C 274.227 154.385 289.227 140.385 289.227 140.385 C 291.227 137.385 300.227 126.385 302.227 125.385 C 302.227 125.385 309.227 113.385 309.227 113.385 C 309.227 113.385 316.227 101.385 316.227 101.385 C 316.227 101.385 317.227 96.3848 317.227 96.3848 C 310.227 99.3848 301.227 112.385 292.227 114.385 C 292.227 114.385 279.227 123.385 279.227 123.385 C 279.227 123.385 297.227 104.385 297.227 104.385 C 306.227 95.3848 314.227 84.3848 321.227 73.3848 C 324.227 69.3848 332.227 62.3848 331.227 57.3848 z "
       style="font-size:12;fill:#ffffff;stroke:#ffffff;stroke-opacity:1;"
       transform="translate(14.15771,4.478836)" />
    <path
       id="selection_to_path#6"
       fill="none"
       stroke="black"
       stroke-width="1"
       d="M 651.227 66.3848 C 649.227 73.3848 655.227 79.3848 659.227 85.3848 C 672.227 107.385 676.227 109.335 692.227 128.335 C 688.227 127.335 672.227 115.385 671.227 111.385 C 671.227 111.385 662.227 106.385 662.227 106.385 C 663.227 114.385 665.227 117.385 669.227 123.385 C 675.227 134.385 684.227 146.385 693.227 155.385 C 693.227 155.385 714.227 173.385 720.227 178.385 C 724.227 182.385 726.227 186.385 731.227 187.385 C 731.227 187.385 731.227 175.385 731.227 175.385 C 731.227 175.385 732.227 159.385 732.227 159.385 C 733.227 150.385 732.227 133.385 729.227 124.385 C 727.227 117.385 721.227 107.385 717.227 101.385 C 714.227 96.3848 706.227 83.3848 701.227 82.3848 C 699.227 81.3848 699.227 82.3848 698.227 82.3848 C 698.227 82.3848 705.227 102.385 705.227 102.385 C 705.227 102.385 710.227 120.385 710.227 120.385 C 710.227 120.385 715.827 155.315 715.827 155.315 C 715.827 155.315 715.817 155.235 715.787 155.075 C 715.787 155.075 713.297 153.225 712.347 148.805 C 712.347 148.805 710.387 130.285 709.227 127.385 C 707.227 119.385 705.227 116.385 701.227 109.385 C 692.227 94.3848 682.227 86.3848 669.227 77.3848 C 663.227 73.3848 657.227 69.3848 651.227 66.3848 z "
       style="font-size:12;fill:#ffffff;stroke:#ffffff;stroke-opacity:1;"
       transform="translate(14.15771,4.478836)" />
    <path
       id="selection_to_path#5"
       fill="none"
       stroke="black"
       stroke-width="1"
       d="M 736.227 122.385 C 736.227 122.385 740.227 146.385 740.227 146.385 C 740.227 146.385 740.227 157.385 740.227 157.385 C 740.227 157.385 738.227 174.385 738.227 174.385 C 738.227 174.385 737.227 193.385 737.227 193.385 C 737.227 193.385 739.227 219.385 739.227 219.385 C 733.227 209.385 735.227 206.385 725.227 192.385 C 719.227 182.385 694.227 156.385 688.227 154.385 C 688.227 162.385 693.227 170.385 696.227 177.385 C 703.227 195.385 712.227 210.385 722.227 226.385 C 731.227 240.385 736.227 241.385 743.227 259.385 C 743.227 259.385 749.227 241.385 749.227 241.385 C 761.227 209.385 763.227 187.385 754.227 154.385 C 751.227 145.385 749.227 140.385 745.227 131.385 C 742.227 127.385 741.227 124.385 736.227 122.385 z "
       style="font-size:12;fill:#ffffff;stroke:#ffffff;stroke-opacity:1;"
       transform="translate(14.15771,4.478836)" />
    <path
       id="selection_to_path#4"
       fill="none"
       stroke="black"
       stroke-width="1"
       d="M 773.967 197.295 C 773.667 199.175 770.227 212.385 770.227 212.385 C 761.227 241.385 744.897 259.035 740.137 297.755 C 740.137 297.755 736.227 275.385 736.227 275.385 C 736.227 275.385 728.227 252.385 728.227 252.385 C 728.227 252.385 721.227 236.385 721.227 236.385 C 721.227 236.385 713.227 215.385 713.227 215.385 C 713.227 215.385 710.227 213.385 710.227 213.385 C 708.227 230.385 710.227 254.385 715.227 270.385 C 715.227 270.385 731.227 310.385 731.227 310.385 C 731.227 310.385 735.227 324.385 735.227 324.385 C 735.227 324.385 760.227 290.385 760.227 290.385 C 770.227 273.385 775.227 247.385 777.227 227.385 C 778.227 217.385 775.757 197.785 773.967 197.295 z "
       style="font-size:12;fill:#ffffff;stroke:#ffffff;stroke-opacity:1;"
       transform="translate(14.15771,4.478836)" />
    <path
       id="selection_to_path#3"
       fill="none"
       stroke="black"
       stroke-width="1"
       d="M 709.227 271.385 C 703.227 288.385 698.227 308.385 698.227 326.385 C 698.227 326.385 702.227 382.385 702.227 382.385 C 702.227 382.385 702.227 395.385 702.227 395.385 C 702.227 395.385 720.227 379.385 720.227 379.385 C 728.227 372.385 738.227 367.385 745.227 359.385 C 749.227 354.385 758.227 341.385 761.227 336.385 C 767.227 324.385 774.227 296.385 774.227 283.385 C 770.227 285.385 770.227 289.385 767.227 293.385 C 765.227 298.385 762.227 302.385 759.227 306.385 C 759.227 306.385 741.227 329.385 741.227 329.385 C 732.227 340.385 713.327 370.195 713.327 370.195 C 713.387 369.855 713.447 369.495 713.507 369.135 C 715.327 358.405 718.227 340.385 718.227 340.385 C 718.227 319.385 715.227 313.385 712.227 294.385 C 711.227 287.385 713.227 276.385 709.227 271.385 z "
       style="font-size:12;fill:#ffffff;stroke:#ffffff;stroke-opacity:1;"
       transform="translate(14.15771,4.478836)" />
    <path
       id="selection_to_path#2"
       fill="none"
       stroke="black"
       stroke-width="1"
       d="M 685.227 349.385 C 685.227 349.385 670.227 379.385 670.227 379.385 C 667.227 385.385 659.227 408.385 658.227 413.385 C 653.227 428.385 655.227 444.385 648.227 458.385 C 650.227 458.385 650.227 459.385 652.227 459.385 C 652.227 459.385 675.227 452.385 675.227 452.385 C 708.227 443.385 730.227 420.385 745.227 390.385 C 749.227 383.385 756.227 366.385 757.227 359.385 C 757.227 359.385 747.227 371.385 747.227 371.385 C 747.227 371.385 732.227 386.385 732.227 386.385 C 732.227 386.385 689.227 419.385 689.227 419.385 C 689.227 419.385 666.227 442.385 666.227 442.385 C 669.227 437.385 679.227 417.385 681.227 411.385 C 681.227 411.385 687.227 386.385 687.227 386.385 C 691.227 369.385 689.127 354.675 695.127 335.675 C 694.757 334.925 688.227 344.385 685.227 349.385 z "
       style="font-size:12;fill:#ffffff;stroke:#ffffff;stroke-opacity:1;"
       transform="translate(14.15771,4.478836)" />
    <path
       id="selection_to_path#1"
       fill="none"
       stroke="black"
       stroke-width="1"
       d="M 655.227 391.385 C 655.227 391.385 650.227 398.385 650.227 398.385 C 650.227 398.385 634.227 416.385 634.227 416.385 C 634.227 416.385 621.227 431.385 621.227 431.385 C 621.227 431.385 610.227 448.385 610.227 448.385 C 610.227 448.385 596.227 470.385 596.227 470.385 C 596.227 470.385 588.227 478.385 588.227 478.385 C 588.227 478.385 579.227 485.385 579.227 485.385 C 599.227 486.385 611.227 494.385 634.227 494.385 C 659.227 494.385 687.227 477.385 703.227 459.385 C 709.227 454.385 716.227 446.385 719.227 439.385 C 719.227 439.385 693.227 453.385 693.227 453.385 C 693.227 453.385 657.937 463.735 657.937 463.735 C 657.937 463.735 616.287 473.145 616.287 473.145 C 636.287 459.145 640.227 445.385 648.227 423.385 C 648.227 423.385 660.227 389.385 660.227 389.385 C 660.227 389.385 655.227 391.385 655.227 391.385 z "
       style="font-size:12;fill:#ffffff;stroke:#ffffff;stroke-opacity:1;"
       transform="translate(14.15771,4.478836)" />
    <path
       id="selection_to_path"
       fill="none"
       stroke="black"
       stroke-width="1"
       d="M 293.227 496.385 C 297.227 502.385 304.227 505.385 310.227 508.385 C 323.227 515.385 338.227 520.385 353.227 520.385 C 353.227 520.385 367.227 521.385 367.227 521.385 C 373.227 521.385 386.227 520.385 392.227 518.385 C 406.227 516.385 419.227 511.385 432.227 506.385 C 443.227 503.385 452.227 499.385 464.227 499.385 C 464.227 499.385 473.227 499.385 473.227 499.385 C 469.227 503.385 458.227 507.385 453.227 509.385 C 444.227 514.385 429.227 523.385 421.227 530.385 C 419.227 533.385 412.227 539.385 411.227 541.385 C 408.227 546.385 412.227 549.385 416.227 548.385 C 419.227 548.385 422.227 546.385 424.227 543.385 C 424.227 543.385 435.227 531.385 435.227 531.385 C 444.227 523.385 459.227 513.385 470.227 507.385 C 475.227 505.385 480.227 502.385 485.227 502.385 C 490.227 502.385 496.227 505.385 500.227 507.385 C 512.227 513.385 524.227 523.385 533.227 532.385 C 533.227 532.385 543.227 544.385 543.227 544.385 C 544.227 546.385 546.227 549.385 548.227 549.385 C 551.227 550.385 556.227 548.385 558.227 547.385 C 555.227 539.385 548.227 534.385 542.227 529.385 C 531.227 519.385 521.227 512.385 508.227 505.385 C 508.227 505.385 497.227 500.385 497.227 500.385 C 504.227 498.385 514.227 500.385 521.227 502.385 C 521.227 502.385 563.227 517.385 563.227 517.385 C 581.227 523.385 608.227 526.385 627.227 523.385 C 627.227 523.385 644.227 518.385 644.227 518.385 C 653.227 515.385 672.227 509.385 676.227 501.385 C 676.227 501.385 668.227 504.385 668.227 504.385 C 659.227 507.385 655.227 507.385 646.227 507.385 C 633.227 507.385 616.227 501.385 603.227 498.385 C 581.227 492.385 558.227 488.385 535.227 488.385 C 523.227 488.385 512.227 490.385 500.227 492.385 C 500.227 492.385 483.227 497.385 483.227 497.385 C 483.227 497.385 455.227 489.385 455.227 489.385 C 438.227 486.385 419.227 486.385 402.227 487.385 C 402.227 487.385 393.227 489.385 393.227 489.385 C 369.227 493.385 352.227 501.385 326.227 501.385 C 326.227 501.385 309.227 501.385 309.227 501.385 C 309.227 501.385 293.227 496.385 293.227 496.385 z "
       style="font-size:12;fill:#ffffff;stroke:#ffffff;stroke-opacity:1;"
       transform="translate(14.15771,4.478836)" />
  </g>
</svg>
