<?xml version="1.0" encoding="UTF-8" standalone="no"?>
<!DOCTYPE svg PUBLIC "-//W3C//DTD SVG 20010904//EN"
"http://www.w3.org/TR/2001/REC-SVG-20010904/DTD/svg10.dtd"
[
 <!ATTLIST svg
  xmlns:xlink CDATA #FIXED "http://www.w3.org/1999/xlink">
]>
<!-- Created with Sodipodi ("http://www.sodipodi.com/") -->
<svg
   xmlns="http://www.w3.org/2000/svg"
   xmlns:xlink="http://www.w3.org/1999/xlink"
   version="1"
   x="0.00000000"
   y="0.00000000"
   width="744.094482"
   height="496.062988"
   id="svg548">
  <defs
     id="defs550" />
  <g
     style="font-size:12;"
     id="g563">
    <rect
       width="744.094482"
       height="248.031494"
       x="0.00000000"
       y="248.031494"
       style="fill:#192f5d;fill-rule:evenodd;stroke-width:1pt;"
       id="rect553" />
    <rect
       width="744.094482"
       height="248.031494"
       x="0.00000000"
       y="0.00000000"
       style="fill:#bd3d44;fill-rule:evenodd;stroke-width:1pt;"
       id="rect554" />
    <g
       id="g579">
      <path
         d="M -335.992 -90.1592 L 36.168 2.32943 L -335.928 -183.221 L -335.992 -90.1592 z "
         transform="translate(335.7562,245.6080)"
         style="fill:#ffd608;fill-rule:evenodd;stroke-width:1pt;"
         id="path563" />
      <path
         d="M -228.876 -245.92 L 36.2268 2.27055 L -129.794 -246.027 L -228.876 -245.92 z "
         transform="translate(335.7562,245.6080)"
         style="fill:#ffd608;fill-rule:evenodd;stroke-width:1pt;"
         id="path565" />
      <path
         d="M -53.0378 -246.027 L 36.2976 2.32943 L 5.21584 -245.855 L -53.0378 -246.027 z "
         transform="translate(335.7562,245.6080)"
         style="fill:#ffd608;fill-rule:evenodd;stroke-width:1pt;"
         id="path567" />
      <path
         d="M -335.309 -90.1592 L 36.168 2.32943 L -335.244 -183.221 L -335.309 -90.1592 z "
         transform="matrix(-1.000000,0.000000,0.000000,1.000000,408.1773,245.6080)"
         style="fill:#ffd608;fill-rule:evenodd;stroke-width:1pt;"
         id="path573" />
      <path
         d="M -228.876 -245.236 L 36.2268 2.27055 L -129.794 -246.027 L -228.876 -245.236 z "
         transform="matrix(-1.000000,0.000000,0.000000,1.000000,408.2654,245.6080)"
         style="fill:#ffd608;fill-rule:evenodd;stroke-width:1pt;"
         id="path574" />
      <path
         d="M -53.0378 -246.027 L 36.2976 2.32943 L 5.21584 -245.855 L -53.0378 -246.027 z "
         transform="matrix(-1.000000,0.000000,0.000000,1.000000,408.3702,245.6080)"
         style="fill:#ffd608;fill-rule:evenodd;stroke-width:1pt;"
         id="path575" />
    </g>
  </g>
  <polygon
     points="145.354,-50.874 58.4241,17.5391 93.3009,122.519 1.37334,60.9845 -87.691,126.595 -57.5754,20.1514 -147.497,-44.2791 -36.9569,-48.5303 -3.46712,-153.961 34.7348,-50.1448 145.354,-50.874 "
     transform="matrix(0.655153,1.137787e-2,-1.182445e-2,0.680868,372.4464,246.8106)"
     style="font-size:12;fill:#b87333;fill-rule:evenodd;stroke-width:1pt;"
     id="polygon556" />
</svg>
