<?xml version="1.0" encoding="UTF-8" standalone="no"?>
<!DOCTYPE svg PUBLIC "-//W3C//DTD SVG 20010904//EN"
"http://www.w3.org/TR/2001/REC-SVG-20010904/DTD/svg10.dtd">
<!-- Created with Sodipodi ("http://www.sodipodi.com/") -->
<svg
   version="1"
   x="0.00000000"
   y="0.00000000"
   width="186.66mm"
   height="140mm"
   id="svg166"
   sodipodi:version="0.32"
   sodipodi:docname="/home/digitect/flag-usa-northcarolina.svg"
   sodipodi:docbase="/home/digitect"
   xmlns="http://www.w3.org/2000/svg"
   xmlns:sodipodi="http://sodipodi.sourceforge.net/DTD/sodipodi-0.dtd"
   xmlns:xlink="http://www.w3.org/1999/xlink">
  <sodipodi:namedview
     id="base"
     showborder="true"
     snaptoguides="false" />
  <defs
     id="defs168">
    <linearGradient
       id="linearGradient602">
      <stop
         style="stop-color:#000;stop-opacity:1;"
         offset="0"
         id="stop603" />
      <stop
         style="stop-color:#fff;stop-opacity:1;"
         offset="1"
         id="stop604" />
    </linearGradient>
    <linearGradient
       xlink:href="#linearGradient602"
       id="linearGradient605" />
    <linearGradient
       xlink:href="#linearGradient602"
       id="linearGradient695" />
    <linearGradient
       xlink:href="#linearGradient602"
       id="linearGradient696" />
    <linearGradient
       xlink:href="#linearGradient602"
       id="linearGradient697" />
    <linearGradient
       xlink:href="#linearGradient602"
       id="linearGradient698" />
    <linearGradient
       xlink:href="#linearGradient602"
       id="linearGradient699" />
    <linearGradient
       xlink:href="#linearGradient602"
       id="linearGradient700" />
    <linearGradient
       xlink:href="#linearGradient602"
       id="linearGradient701" />
    <linearGradient
       xlink:href="#linearGradient602"
       id="linearGradient702" />
    <linearGradient
       xlink:href="#linearGradient602"
       id="linearGradient703" />
    <linearGradient
       xlink:href="#linearGradient602"
       id="linearGradient704" />
    <linearGradient
       xlink:href="#linearGradient602"
       id="linearGradient705" />
    <linearGradient
       xlink:href="#linearGradient602"
       id="linearGradient706" />
    <linearGradient
       xlink:href="#linearGradient602"
       id="linearGradient707" />
    <linearGradient
       xlink:href="#linearGradient602"
       id="linearGradient708" />
    <linearGradient
       xlink:href="#linearGradient602"
       id="linearGradient709" />
    <linearGradient
       xlink:href="#linearGradient602"
       id="linearGradient710" />
    <linearGradient
       xlink:href="#linearGradient602"
       id="linearGradient711" />
    <linearGradient
       xlink:href="#linearGradient602"
       id="linearGradient712" />
    <linearGradient
       xlink:href="#linearGradient602"
       id="linearGradient713" />
  </defs>
  <image
     xlink:href="test/northcarolina.gif"
     sodipodi:absref="/home/digitect/test/northcarolina.gif"
     width="960.647705"
     height="720.186584"
     id="image602"
     x="3.194237"
     y="0.000000"
     style="opacity:0.000000;"
     sodipodi:insensitive="true" />
  <rect
     width="443.690459"
     height="247.900604"
     x="220.515176"
     y="0.070232"
     style="font-size:12;fill:#962200;fill-rule:evenodd;stroke-width:1.01769;fill-opacity:1;"
     id="rect172" />
  <rect
     width="220.495232"
     height="496.063446"
     x="0.026137"
     y="0.020954"
     style="font-size:12;fill:#000c51;fill-rule:evenodd;stroke-width:1pt;fill-opacity:1;"
     id="rect170" />
  <rect
     width="443.635191"
     height="247.900604"
     x="220.516589"
     y="248.188019"
     style="font-size:12;fill:#ffffff;fill-rule:evenodd;stroke-width:1.01769;"
     id="rect603" />
  <path
     sodipodi:type="arc"
     style="font-size:12;fill:#808080;fill-rule:evenodd;stroke:#000000;stroke-width:1pt;"
     id="path626"
     d="M 72.921539 311.639374 A 0.220970 0.000000 0 1 0 72.479599,311.639374 A 0.22097 0 0 1 0 72.9215 311.639 L 72.700569 311.639374 z"
     sodipodi:cx="72.700569"
     sodipodi:cy="311.639374"
     sodipodi:rx="0.220970"
     sodipodi:ry="0.000000"
     transform="matrix(0.852923,0.000000,0.000000,0.852923,1.306859,-62.40808)" />
  <path
     style="font-size:12;fill:#ffbf00;fill-rule:evenodd;stroke:#000000;stroke-width:3.375;fill-opacity:1;"
     d="M 83.0864 320.92 C 122.42 286.89 199.761 288.658 240.42 320.036 C 241.304 319.594 259.425 282.912 258.541 283.354 C 191.806 238.275 115.571 247.999 64.9659 283.575 L 64.3036 282.47 L 83.0864 320.92 z "
     id="path628"
     sodipodi:nodetypes="cccccc"
     transform="matrix(0.852923,0.000000,0.000000,0.852923,-28.09512,-135.8419)" />
  <path
     style="font-size:12;fill:#ffbf00;fill-rule:evenodd;stroke:#000000;stroke-width:3.375;fill-opacity:1;"
     d="M 40.7692 254.635 C 41.1007 254.414 43.3104 258.06 43.3104 258.06 M 41.1006 253.972 L 48.3927 268.777 C 56.4213 262.332 64.229 257.875 73.3625 255.076 M 41.7635 253.972 C 25.2644 268.409 22.2445 272.46 13.4793 282.699 L 31.5989 283.361 C 31.5989 285.571 32.9247 306.563 32.7037 308.552 C 33.5876 306.784 56.3476 282.256 77.1188 267.672 L 77.3398 260.601 L 73.1414 254.635 L 73.3623 255.077 "
     id="path607"
     sodipodi:nodetypes="ccccccccccccc"
     transform="matrix(0.852923,0.000000,0.000000,0.852923,1.306859,-91.36205)" />
  <path
     style="font-size:12;fill:#ffbf00;fill-rule:evenodd;stroke:#000000;stroke-width:3.375;fill-opacity:1;"
     d="M 41.2186 254.524 C 24.7195 268.961 22.2445 272.46 13.4793 282.699 L 31.5989 283.361 C 31.5989 285.571 32.9247 306.563 32.7037 308.552 C 33.5876 306.784 56.3476 282.256 77.1188 267.672 L 77.3398 260.601 L 73.1414 253.972 C 73.1414 253.972 61.1743 258.28 48.4604 267.671 L 41.2186 254.524 z "
     id="path609"
     sodipodi:nodetypes="ccccccccc"
     transform="matrix(-0.864730,0.000000,0.000000,0.852923,218.7734,-91.36205)" />
  <path
     style="font-size:12;fill:none;fill-rule:evenodd;stroke:#000000;stroke-width:2.5;stroke-linecap:round;stroke-linejoin:round;"
     d="M 53.254 257.95 C 53.033 257.508 41.1006 239.83 41.1006 239.83 L 58.9993 252.647 L 53.033 231.875 L 65.6284 248.89 "
     id="path613"
     sodipodi:nodetypes="ccccc"
     transform="matrix(0.852923,0.000000,0.000000,0.852923,1.306859,-91.36205)" />
  <path
     style="font-size:12;fill:none;fill-rule:evenodd;stroke:#000000;stroke-width:2.5;stroke-linecap:round;stroke-linejoin:round;"
     d="M 106.674 220.882 C 106.746 215.137 111.35 214.75 114.519 215.744 C 116.378 217.162 117.354 221.783 115.126 224.417 L 110.652 228.23 C 109.105 230.164 107.392 232.372 107.503 234.803 L 117.611 234.417 "
     id="path618"
     sodipodi:nodetypes="cccccc"
     transform="matrix(0.852923,0.000000,0.000000,0.852923,1.306859,-91.36205)" />
  <path
     style="font-size:12;fill:none;fill-rule:evenodd;stroke:#000000;stroke-width:2.5;stroke-linecap:round;stroke-linejoin:round;"
     d="M 124.803 214.782 C 122.957 215.684 122.336 217.111 121.908 219.224 C 121.632 221.654 121.755 227.4 122.252 229.775 C 122.695 231.543 123.135 232.703 124.462 233.863 C 126.009 234.747 127.721 234.582 128.661 233.974 C 129.931 233.256 130.815 231.764 131.257 229.996 C 131.975 227.731 131.92 221.102 131.422 218.671 C 130.962 217.051 130.391 215.762 129.102 214.804 C 127.555 214.141 125.742 214.285 124.803 214.782 z "
     id="path621"
     sodipodi:nodetypes="ccccccccc"
     transform="matrix(0.852923,0.000000,0.000000,0.852923,1.306859,-91.36205)" />
  <path
     style="font-size:12;fill:none;fill-rule:evenodd;stroke:#000000;stroke-width:2.5;stroke-linecap:round;stroke-linejoin:round;"
     d="M 159.873 221.931 C 161.862 221.305 163.408 220.458 165.176 218.727 L 160.536 238.393 "
     id="path629"
     sodipodi:nodetypes="ccc"
     transform="matrix(0.852923,0.000000,0.000000,0.852923,1.306859,-91.36205)" />
  <path
     style="font-size:12;fill:none;fill-rule:evenodd;stroke:#000000;stroke-width:2.5;stroke-linecap:round;stroke-linejoin:round;"
     d="M 174.678 221.489 C 174.899 221.599 183.959 225.245 183.959 225.245 C 178.84 230.475 174.604 235.152 170.921 241.266 "
     id="path630"
     sodipodi:nodetypes="ccc"
     transform="matrix(0.852923,0.000000,0.000000,0.852923,1.306859,-91.36205)" />
  <path
     style="font-size:12;fill:none;fill-rule:evenodd;stroke:#000000;stroke-width:2.5;stroke-linecap:round;stroke-linejoin:round;"
     d="M 190.256 227.234 L 199.095 232.648 C 193.239 236.073 188.267 240.602 183.738 246.016 "
     id="path631"
     sodipodi:nodetypes="ccc"
     transform="matrix(0.852923,0.000000,0.000000,0.852923,1.306859,-91.36205)" />
  <path
     style="font-size:12;fill:none;fill-rule:evenodd;stroke:#000000;stroke-width:2.5;stroke-linecap:round;stroke-linejoin:round;"
     d="M 212.132 241.487 L 206.719 236.957 L 200.2 243.255 C 204.141 243.144 205.762 244.58 206.277 248.226 C 206.314 252.314 203.367 254.634 199.979 255.518 C 196.517 254.855 195.044 252.645 195.228 248.558 "
     id="path632"
     sodipodi:nodetypes="cccccc"
     transform="matrix(0.852923,0.000000,0.000000,0.852923,1.306859,-91.36205)" />
  <g
     id="g633"
     style="font-size:12;stroke:#000000;"
     transform="matrix(0.852923,0.000000,0.000000,0.852923,1.306859,-91.36205)">
    <path
       style="fill:none;fill-rule:evenodd;stroke:#000000;stroke-opacity:1;stroke-width:2.5;stroke-linejoin:round;stroke-linecap:round;fill-opacity:1;stroke-dasharray:none;"
       d="M 68.9429 246.901 C 68.9429 246.901 67.1752 225.246 67.3961 225.246 C 67.3961 224.362 81.5383 241.819 81.5383 241.819 L 81.5383 241.819 "
       id="path614"
       sodipodi:nodetypes="cccc"
       transform="" />
    <path
       style="fill:none;fill-rule:evenodd;stroke:#000000;stroke-opacity:1;stroke-width:2.5;stroke-linejoin:round;stroke-linecap:round;fill-opacity:1;stroke-dasharray:none;"
       d="M 68.501 239.167 L 76.4559 235.853 "
       id="path615"
       sodipodi:nodetypes="cc" />
  </g>
  <g
     id="g636"
     style="font-size:12;stroke:#000000;"
     transform="matrix(0.852923,0.000000,0.000000,0.852923,1.306859,-91.36205)">
    <path
       style="fill:none;fill-rule:evenodd;stroke:#000000;stroke-opacity:1;stroke-width:2.5;stroke-linejoin:round;stroke-linecap:round;fill-opacity:1;stroke-dasharray:none;"
       d="M 79.6009 220.385 L 88.5959 229.887 L 91.04 239.609 "
       id="path616"
       sodipodi:nodetypes="ccc" />
    <path
       style="fill:none;fill-rule:evenodd;stroke:#000000;stroke-opacity:1;stroke-width:2.5;stroke-linejoin:round;stroke-linecap:round;fill-opacity:1;stroke-dasharray:none;"
       d="M 91.9239 217.291 L 88.8437 230.304 "
       id="path617"
       sodipodi:nodetypes="cc" />
  </g>
  <g
     id="g639"
     style="font-size:12;stroke:#000000;"
     transform="matrix(0.852923,0.000000,0.000000,0.852923,1.306859,-91.36205)">
    <path
       style="fill:none;fill-rule:evenodd;stroke:#000000;stroke-opacity:1;stroke-width:1pt;stroke-linejoin:round;stroke-linecap:round;fill-opacity:1;"
       d="M 135.566 212.318 C 138.052 212.429 141.09 212.429 141.09 212.429 "
       id="path622"
       sodipodi:nodetypes="cc" />
    <path
       style="fill:none;fill-rule:evenodd;stroke:#000000;stroke-opacity:1;stroke-width:1pt;stroke-linejoin:round;stroke-linecap:round;fill-opacity:1;"
       d="M 138.328 212.484 L 138.217 221.102 "
       id="path623"
       sodipodi:nodetypes="cc" />
  </g>
  <path
     style="font-size:12;fill:none;fill-rule:evenodd;stroke:#000000;stroke-width:1pt;stroke-linecap:round;stroke-linejoin:round;"
     d="M 143.621 212.771 L 143.19 221.378 "
     id="path624"
     sodipodi:nodetypes="cc"
     transform="matrix(0.852923,0.000000,0.000000,0.852923,1.306859,-91.36205)" />
  <path
     style="font-size:12;fill:none;fill-rule:evenodd;stroke:#000000;stroke-width:1.25;stroke-linecap:round;stroke-linejoin:round;"
     d="M 149.113 213.465 L 148.603 222.041 "
     id="path625"
     sodipodi:nodetypes="cc"
     transform="matrix(0.852923,0.000000,0.000000,0.852923,1.306859,-91.36205)" />
  <path
     style="font-size:12;fill:none;fill-rule:evenodd;stroke:#000000;stroke-width:1pt;stroke-linecap:round;stroke-linejoin:round;"
     d="M 148.548 217.566 C 148.382 217.566 143.566 217.112 143.566 217.112 "
     id="path627"
     sodipodi:nodetypes="cc"
     transform="matrix(0.852923,0.000000,0.000000,0.852923,1.306859,-91.36205)" />
  <path
     style="font-size:12;fill:#ffbf00;fill-rule:evenodd;stroke:#000000;stroke-width:3.375;fill-opacity:1;"
     d="M 83.0864 320.92 C 122.42 286.89 199.761 288.658 240.42 320.036 C 241.304 319.594 259.425 282.912 258.541 283.354 C 191.806 238.275 115.571 247.999 64.9659 283.575 L 64.3036 282.47 L 83.0864 320.92 z "
     id="path661"
     sodipodi:nodetypes="cccccc"
     transform="matrix(0.852923,0.000000,0.000000,-0.846172,-28.09511,637.7996)" />
  <path
     style="font-size:12;fill:#ffbf00;fill-rule:evenodd;stroke:#000000;stroke-width:3.375;fill-opacity:1;"
     d="M 74.4673 253.537 C 64.7814 257.175 56.9737 262.149 48.7241 268.46 L 41.3216 253.871 L 40.7691 254.195 C 24.27 268.632 22.2445 272.46 13.4793 282.699 L 31.5989 283.361 C 31.5989 285.571 32.9247 306.563 32.7037 308.552 C 33.5876 306.784 56.3476 282.256 77.1188 267.672 L 77.3398 260.601 L 74.2463 253.187 "
     id="path662"
     sodipodi:nodetypes="cccccccccc"
     transform="matrix(0.852923,0.000000,0.000000,-0.846172,1.306859,593.6718)" />
  <path
     style="font-size:12;fill:#ffbf00;fill-rule:evenodd;stroke:#000000;stroke-width:3.375;fill-opacity:1;"
     d="M 41.4365 254.417 C 24.9375 268.854 22.2445 272.46 13.4793 282.699 L 31.5989 283.361 C 31.5989 285.571 32.9247 306.563 32.7037 308.552 C 33.5876 306.784 56.3476 282.256 77.1188 267.672 L 77.3398 260.601 L 73.0324 253.967 C 64.0064 257.016 56.615 261.625 48.2428 267.458 C 48.2428 267.458 43.8837 258.883 41.4365 254.417 z "
     id="path664"
     sodipodi:nodetypes="ccccccccc"
     transform="matrix(-0.864730,0.000000,0.000000,-0.846172,218.7735,593.6718)" />
  <path
     style="font-size:12;fill:none;fill-rule:evenodd;stroke:#000000;stroke-width:3.375;"
     d="M 76.235 267.231 C 66.0703 258.834 65.6284 258.171 65.6284 258.171 "
     id="path665"
     transform="matrix(-2.180434,0.646501,-8.814757e-2,-0.281536,343.0587,396.9222)" />
  <path
     style="font-size:12;fill:none;fill-rule:evenodd;stroke:#000000;stroke-width:2.5;stroke-linecap:round;"
     d="M 74.0256 512.839 C 74.0256 512.728 79.9918 492.62 79.9918 492.62 C 82.312 493.246 84.7427 493.651 86.9524 494.499 C 88.4993 495.051 90.8194 497.04 89.8251 500.133 C 89.3463 502.012 88.4256 503.669 87.063 504.663 "
     id="path673"
     sodipodi:nodetypes="ccccc"
     transform="matrix(0.852923,0.000000,0.000000,0.852923,1.306859,-29.70407)" />
  <path
     style="font-size:12;fill:#ffbf00;fill-rule:evenodd;stroke:#000000;stroke-width:3.5;fill-opacity:1;"
     d="M 21.7189 406.092 L 36.094 406.248 L 36.094 340.623 L 49.8441 405.78 L 73.1254 405.779 C 73.1254 405.779 73.4379 328.591 73.1254 328.591 C 72.8129 328.591 58.5941 328.748 58.5941 328.748 L 59.0629 386.092 L 46.8753 328.591 L 22.1876 328.748 L 21.7189 406.092 z "
     id="path678"
     sodipodi:nodetypes="ccccccccccc"
     transform="matrix(0.852923,0.000000,0.000000,0.852923,1.306859,-58.65804)" />
  <path
     style="font-size:12;fill:#ffbf00;fill-rule:evenodd;stroke:#000000;stroke-width:3.5;fill-opacity:1;"
     d="M 211.095 355.935 C 211.095 355.935 229.689 355.935 229.533 355.935 C 229.377 355.935 229.624 348.681 229.514 344.372 C 229.293 341.72 228.61 337.817 225.627 333.747 C 222.865 330.673 220.244 328.419 213.283 326.872 C 208.387 326.365 202.939 326.522 198.595 327.341 C 191.49 329.131 186.373 333.904 183.908 342.654 C 183.251 360.274 183.81 375.132 183.595 389.216 C 184.864 398.793 190.662 404.724 197.345 407.341 C 201.182 408.63 210.985 407.93 214.27 407.01 C 220.576 405.077 224.342 402.15 228.218 395.687 C 229.215 394.007 229.549 382.495 229.22 375.622 L 210.893 375.779 L 211.049 389.152 C 210.497 392.798 209.929 394.373 209.772 394.373 C 207.186 395.146 205.401 395.496 203.301 394.281 C 202.339 392.881 201.597 391.26 201.408 389.529 L 201.876 344.06 C 202.28 342.301 202.463 340.983 203.53 339.886 C 205.074 338.573 207.391 338.475 209.377 339.482 C 210.73 341.247 211.309 343.232 211.114 344.776 L 211.095 355.935 z "
     id="path680"
     sodipodi:nodetypes="cccccccccccccccccccccc"
     transform="matrix(0.852923,0.000000,0.000000,0.852923,1.306859,-58.65804)" />
  <rect
     style="font-size:12;fill:#ff80ff;fill-rule:evenodd;stroke:#000000;stroke-width:0.852923pt;"
     id="rect686"
     width="0.000000"
     height="0.266538"
     x="132.578140"
     y="283.556587" />
  <polygon
     sodipodi:type="star"
     style="font-size:12;fill:#ffffff;fill-rule:evenodd;stroke-width:1pt;"
     id="polygon693"
     sodipodi:sides="5"
     sodipodi:cx="100.983749"
     sodipodi:cy="415.943878"
     sodipodi:r1="39.0712814"
     sodipodi:r2="14.4664392"
     sodipodi:arg1="0.91372126"
     sodipodi:arg2="1.51666701"
     points="124.849,446.88 101.766,430.389 78.9366,448.2 87.4874,421.152 63.493,404.944 91.8598,404.717 99.8604,376.889 108.841,403.797 137.78,402.807 114.964,419.663 124.849,446.88 "
     transform="matrix(0.964187,3.259848e-2,-2.389110e-2,1.048633,22.54579,-183.5508)" />
  <path
     style="font-size:12;fill:none;fill-rule:evenodd;stroke:#000000;stroke-width:2.75;stroke-linecap:square;"
     d="M 127.188 322.81 L 116.563 354.06 L 81.8755 354.373 L 109.845 374.372 C 109.532 373.904 98.6049 409.593 97.9809 409.282 C 97.9809 409.126 128.671 387.746 127.345 387.967 L 154.532 407.029 C 154.532 407.029 145.157 375.311 145.157 375.154 C 145.157 374.998 172.032 354.373 172.032 354.373 L 138.438 354.373 L 127.188 322.81 z "
     id="path679"
     sodipodi:nodetypes="ccccccccccc"
     transform="matrix(0.794391,0.000000,0.000000,0.852923,8.750905,-58.65804)" />
  <path
     style="font-size:12;fill:none;fill-rule:evenodd;stroke:#000000;stroke-width:2.5;stroke-linecap:round;stroke-linejoin:round;"
     d="M 68.9429 246.901 C 68.9429 246.901 67.1752 225.246 67.3961 225.246 C 67.3961 224.362 81.5383 241.819 81.5383 241.819 L 81.5383 241.819 "
     id="path659"
     sodipodi:nodetypes="cccc"
     transform="matrix(0.514234,0.680471,-0.680471,0.514234,168.6357,220.0067)" />
  <path
     style="font-size:12;fill:none;fill-rule:evenodd;stroke:#000000;stroke-width:2.5;stroke-linecap:round;stroke-linejoin:round;"
     d="M 68.501 239.167 L 76.4559 235.853 "
     id="path660"
     sodipodi:nodetypes="cc"
     transform="matrix(0.514234,0.680471,-0.680471,0.514234,168.6357,220.0067)" />
  <path
     style="font-size:12;fill:none;fill-rule:evenodd;stroke:#000000;stroke-width:2.5;stroke-linecap:round;stroke-linejoin:round;"
     d="M 106.674 220.882 C 106.746 215.137 111.35 214.75 114.519 215.744 C 116.378 217.162 117.354 221.783 115.126 224.417 L 110.652 228.23 C 109.105 230.164 107.392 232.372 107.503 234.803 L 117.611 234.417 "
     id="path646"
     sodipodi:nodetypes="cccccc"
     transform="matrix(0.852923,0.000000,0.000000,0.852923,21.66180,213.0475)" />
  <path
     style="font-size:12;fill:none;fill-rule:evenodd;stroke:#000000;stroke-width:2.5;stroke-linecap:round;stroke-linejoin:round;"
     d="M 159.873 221.931 C 161.862 221.305 163.408 220.458 165.176 218.727 L 160.536 238.393 "
     id="path657"
     sodipodi:nodetypes="ccc"
     transform="matrix(0.834425,-0.176673,0.176673,0.834425,-69.78705,243.3873)" />
  <path
     style="font-size:12;fill:none;fill-rule:evenodd;stroke:#000000;stroke-width:2.5;stroke-linecap:round;"
     d="M 100.763 497.812 C 100.763 497.923 98.222 516.817 98.1115 517.59 L 107.945 518.695 "
     id="path676"
     sodipodi:nodetypes="ccc"
     transform="matrix(0.852923,0.000000,0.000000,0.852923,1.306859,-29.70407)" />
  <path
     style="font-size:12;fill:none;fill-rule:evenodd;stroke:#000000;stroke-width:2.5;stroke-linecap:round;stroke-linejoin:round;"
     d="M 92.2558 517.258 L 95.7914 496.818 "
     id="path675"
     sodipodi:nodetypes="cc"
     transform="matrix(0.852923,0.000000,0.000000,0.852923,1.306859,-29.70407)" />
  <path
     style="font-size:12;fill:none;fill-rule:evenodd;stroke:#000000;stroke-width:2.5;stroke-linecap:round;stroke-linejoin:round;"
     d="M 77.3402 502.453 L 84.7428 504.553 C 86.7315 505.326 87.1734 507.094 87.1734 507.204 C 87.5048 508.862 86.0686 515.932 86.0686 515.932 "
     id="path674"
     sodipodi:nodetypes="cccc"
     transform="matrix(0.852923,0.000000,0.000000,0.852923,1.306859,-29.70407)" />
  <path
     style="font-size:12;fill:none;fill-rule:evenodd;stroke:#000000;stroke-width:2.5;stroke-linecap:round;"
     d="M 57.8947 506.099 L 65.8496 487.316 C 68.0593 488.495 70.9319 489.011 73.3627 491.293 C 74.9095 494.019 74.0257 499.507 69.3852 499.912 C 66.844 499.507 64.7448 498.218 62.5351 497.149 "
     id="path672"
     sodipodi:nodetypes="ccccc"
     transform="matrix(0.852923,0.000000,0.000000,0.852923,1.306859,-29.79829)" />
  <path
     style="font-size:12;fill:none;fill-rule:evenodd;stroke:#000000;stroke-width:2.5;stroke-linecap:round;stroke-linejoin:round;"
     d="M 159.873 221.931 C 161.862 221.305 163.408 220.458 165.176 218.727 L 160.536 238.393 "
     id="path654"
     sodipodi:nodetypes="ccc"
     transform="matrix(0.761729,-0.383730,0.383730,0.761729,-65.78419,289.2247)" />
  <path
     style="font-size:12;fill:none;fill-rule:evenodd;stroke:#000000;stroke-width:2.5;stroke-linecap:round;stroke-linejoin:round;"
     d="M 174.678 221.489 C 174.899 221.599 184.297 225.333 184.297 225.333 C 179.178 230.563 174.48 235.77 170.921 241.266 "
     id="path655"
     sodipodi:nodetypes="ccc"
     transform="matrix(0.642581,-0.560865,0.560865,0.642581,-88.38911,347.5100)" />
  <path
     style="font-size:12;fill:none;fill-rule:evenodd;stroke:#000000;stroke-width:2.5;stroke-linecap:round;stroke-linejoin:round;"
     d="M 190.256 227.234 L 199.249 232.673 C 193.114 236.844 186.575 241.277 182.992 245.737 "
     id="path656"
     sodipodi:nodetypes="ccc"
     transform="matrix(0.498839,-0.691836,0.691836,0.498839,-93.29964,405.8480)" />
  <path
     style="font-size:12;fill:none;fill-rule:evenodd;stroke:#000000;stroke-width:2.5;stroke-linecap:round;stroke-linejoin:round;"
     d="M 206.251 482.343 C 204.845 480.701 203.048 480.311 200.783 481.327 C 198.907 483.619 198.751 485.207 198.985 487.577 C 199.558 490.467 200.834 493.202 202.579 495.546 C 203.881 497.785 206.121 499.166 207.657 499.296 C 209.428 499.634 210.652 499.269 211.798 497.889 C 212.605 496.431 212.71 494.191 212.345 492.577 C 211.668 490.467 210.366 488.67 207.97 487.889 C 206.147 487.473 205.418 487.447 203.986 488.358 C 201.876 490.129 201.876 492.759 202.657 495.311 "
     id="path677"
     sodipodi:nodetypes="cccccccccc"
     transform="matrix(0.852923,0.000000,0.000000,0.852923,1.306859,-29.70407)" />
  <g
     id="g650"
     transform="matrix(0.848754,-8.424234e-2,8.424233e-2,0.848754,-11.16286,224.6548)"
     style="font-size:12;stroke:#000000;">
    <path
       style="fill:none;fill-rule:evenodd;stroke:#000000;stroke-opacity:1;stroke-width:1pt;stroke-linejoin:round;stroke-linecap:round;fill-opacity:1;"
       d="M 143.465 212.927 L 143.19 221.378 "
       id="path651"
       sodipodi:nodetypes="cc" />
    <path
       style="fill:none;fill-rule:evenodd;stroke:#000000;stroke-opacity:1;stroke-width:1.25;stroke-linejoin:round;stroke-linecap:round;fill-opacity:1;stroke-dasharray:none;"
       d="M 148.879 213.699 L 148.603 222.041 "
       id="path652"
       sodipodi:nodetypes="cc" />
    <path
       style="fill:none;fill-rule:evenodd;stroke:#000000;stroke-opacity:1;stroke-width:1pt;stroke-linejoin:round;stroke-linecap:round;fill-opacity:1;"
       d="M 148.548 217.566 C 148.382 217.566 143.41 217.346 143.41 217.346 "
       id="path653"
       sodipodi:nodetypes="cc" />
  </g>
  <g
     id="g647"
     transform="matrix(0.850412,-6.540710e-2,6.540710e-2,0.850412,-7.265339,222.2222)"
     style="font-size:12;stroke:#000000;">
    <path
       style="fill:none;fill-rule:evenodd;stroke:#000000;stroke-opacity:1;stroke-width:1pt;stroke-linejoin:round;stroke-linecap:round;fill-opacity:1;"
       d="M 135.566 212.318 C 138.052 212.429 141.09 212.429 141.09 212.429 "
       id="path648"
       sodipodi:nodetypes="cc" />
    <path
       style="fill:none;fill-rule:evenodd;stroke:#000000;stroke-opacity:1;stroke-width:1pt;stroke-linejoin:round;stroke-linecap:round;fill-opacity:1;"
       d="M 138.328 212.484 L 138.217 221.102 "
       id="path649"
       sodipodi:nodetypes="cc" />
  </g>
  <path
     style="font-size:12;fill:none;fill-rule:evenodd;stroke:#000000;stroke-width:3.375;"
     d="M 76.235 267.231 C 66.0703 258.834 65.6284 258.171 65.6284 258.171 "
     id="path1529"
     transform="matrix(2.180434,0.646501,8.814758e-2,-0.281536,-122.8916,396.2972)" />
  <path
     style="font-size:12;fill:none;fill-rule:evenodd;stroke:#000000;stroke-width:3.375;"
     d="M 76.235 267.231 C 66.0703 258.834 65.6284 258.171 65.6284 258.171 "
     id="path1530"
     transform="matrix(-2.262028,-0.235547,2.609622e-2,-0.293856,318.5219,228.6592)" />
  <path
     style="font-size:12;fill:none;fill-rule:evenodd;stroke:#000000;stroke-width:3.375;"
     d="M 76.235 267.231 C 66.0703 258.834 65.6284 258.171 65.6284 258.171 "
     id="path1531"
     transform="matrix(2.261551,-0.240089,-2.668619e-2,-0.293803,-99.41597,230.2173)" />
</svg>
