<?xml version="1.0" encoding="UTF-8" standalone="no"?>
<!DOCTYPE svg PUBLIC "-//W3C//DTD SVG 20010904//EN"
"http://www.w3.org/TR/2001/REC-SVG-20010904/DTD/svg10.dtd">
<!-- Created with Sodipodi ("http://www.sodipodi.com/") -->
<svg
   xml:space="preserve"
   width="640"
   height="416"
   id="svg559"
   sodipodi:version="0.33"
   sodipodi:docname="/home/bfowler/eureka.svg"
   sodipodi:docbase="/home/bfowler/"
   xmlns="http://www.w3.org/2000/svg"
   xmlns:sodipodi="http://sodipodi.sourceforge.net/DTD/sodipodi-0.dtd"
   xmlns:xml="http://www.w3.org/XML/1998/namespace"
   xmlns:xlink="http://www.w3.org/1999/xlink"><defs
   id="defs596" />


<sodipodi:namedview
   id="base" />



<rect
   x="0"
   y="0"
   width="640"
   height="416.000000"
   style="fill:#1B376D;"
   id="rect563" />



<rect
   x="91"
   y="179"
   width="458"
   height="59"
   style="fill:#ffffff;"
   id="rect565" />



<rect
   x="291"
   y="59"
   width="59"
   height="298"
   style="fill:#ffffff;"
   id="rect567" />



<g
   style="fill: #1B376D;"
   id="g569">
<polygon
   points="375.173774,208.000000 345.486960,218.557045 359.013750,247.013750 330.557045,233.486960 320.000000,263.173774 309.442955,233.486960 280.986250,247.013750 294.513040,218.557045 264.826226,208.000000 294.513040,197.442955 280.986250,168.986250 309.442955,182.513040 320.000000,152.826226 330.557045,182.513040 359.013750,168.986250 345.486960,197.442955 "
   id="polygon571" />



<polygon
   points="146.173774,208.000000 116.486960,218.557045 130.013750,247.013750 101.557045,233.486960 91.000000,263.173774 80.442955,233.486960 51.986250,247.013750 65.513040,218.557045 35.826226,208.000000 65.513040,197.442955 51.986250,168.986250 80.442955,182.513040 91.000000,152.826226 101.557045,182.513040 130.013750,168.986250 116.486960,197.442955 "
   id="polygon573" />



<polygon
   points="604.173774,208.000000 574.486960,218.557045 588.013750,247.013750 559.557045,233.486960 549.000000,263.173774 538.442955,233.486960 509.986250,247.013750 523.513040,218.557045 493.826226,208.000000 523.513040,197.442955 509.986250,168.986250 538.442955,182.513040 549.000000,152.826226 559.557045,182.513040 588.013750,168.986250 574.486960,197.442955 "
   id="polygon575" />



<polygon
   points="375.173774,59.000000 345.486960,69.557045 359.013750,98.013750 330.557045,84.486960 320.000000,114.173774 309.442955,84.486960 280.986250,98.013750 294.513040,69.557045 264.826226,59.000000 294.513040,48.442955 280.986250,19.986250 309.442955,33.513040 320.000000,3.826226 330.557045,33.513040 359.013750,19.986250 345.486960,48.442955 "
   id="polygon577" />



<polygon
   points="375.173774,357.000000 345.486960,367.557045 359.013750,396.013750 330.557045,382.486960 320.000000,412.173774 309.442955,382.486960 280.986250,396.013750 294.513040,367.557045 264.826226,357.000000 294.513040,346.442955 280.986250,317.986250 309.442955,331.513040 320.000000,301.826226 330.557045,331.513040 359.013750,317.986250 345.486960,346.442955 "
   id="polygon579" />



</g>



<g
   style="fill: #FFFFFF;"
   id="g582">
<polygon
   points="367.977195,208.000000 342.162574,217.180039 353.925000,241.925000 329.180039,230.162574 320.000000,255.977195 310.819961,230.162574 286.075000,241.925000 297.837426,217.180039 272.022805,208.000000 297.837426,198.819961 286.075000,174.075000 310.819961,185.837426 320.000000,160.022805 329.180039,185.837426 353.925000,174.075000 342.162574,198.819961 "
   id="polygon584" />



<polygon
   points="138.977195,208.000000 113.162574,217.180039 124.925000,241.925000 100.180039,230.162574 91.000000,255.977195 81.819961,230.162574 57.075000,241.925000 68.837426,217.180039 43.022805,208.000000 68.837426,198.819961 57.075000,174.075000 81.819961,185.837426 91.000000,160.022805 100.180039,185.837426 124.925000,174.075000 113.162574,198.819961 "
   id="polygon586" />



<polygon
   points="596.977195,208.000000 571.162574,217.180039 582.925000,241.925000 558.180039,230.162574 549.000000,255.977195 539.819961,230.162574 515.075000,241.925000 526.837426,217.180039 501.022805,208.000000 526.837426,198.819961 515.075000,174.075000 539.819961,185.837426 549.000000,160.022805 558.180039,185.837426 582.925000,174.075000 571.162574,198.819961 "
   id="polygon588" />



<polygon
   points="367.977195,59.000000 342.162574,68.180039 353.925000,92.925000 329.180039,81.162574 320.000000,106.977195 310.819961,81.162574 286.075000,92.925000 297.837426,68.180039 272.022805,59.000000 297.837426,49.819961 286.075000,25.075000 310.819961,36.837426 320.000000,11.022805 329.180039,36.837426 353.925000,25.075000 342.162574,49.819961 "
   id="polygon590" />



<polygon
   points="367.977195,357.000000 342.162574,366.180039 353.925000,390.925000 329.180039,379.162574 320.000000,404.977195 310.819961,379.162574 286.075000,390.925000 297.837426,366.180039 272.022805,357.000000 297.837426,347.819961 286.075000,323.075000 310.819961,334.837426 320.000000,309.022805 329.180039,334.837426 353.925000,323.075000 342.162574,347.819961 "
   id="polygon592" />



</g>



<desc
   id="desc598">This work is hereby released into the Public Domain. To view a copy of the public domain dedication, visit http://creativecommons.org/licenses/publicdomain/ or send a letter to Creative Commons, 559 Nathan Abbott Way, Stanford, California 94305, USA.</desc>
</svg>
