<?xml version="1.0" encoding="UTF-8" standalone="no"?>
<!DOCTYPE svg PUBLIC "-//W3C//DTD SVG 1.0//EN"
"http://www.w3.org/TR/2001/REC-SVG-20010904/DTD/svg10.dtd">
<!-- Created with Sodipodi ("http://www.sodipodi.com/") -->
<svg
   id="svg559"
   sodipodi:version="0.34debug"
   xmlns="http://www.w3.org/2000/svg"
   xmlns:sodipodi="http://sodipodi.sourceforge.net/DTD/sodipodi-0.dtd"
   xmlns:xlink="http://www.w3.org/1999/xlink"
   width="210mm"
   height="140mm"
   sodipodi:docbase="D:\Documents and Settings\lauris\My Documents"
   sodipodi:docname="D:\Documents and Settings\lauris\My Documents\batasuna.svg">
  <defs
     id="defs561" />
  <sodipodi:namedview
     id="base" />
  <g
     id="g646">
    <path
       style="font-size:12;fill:#990000;fill-rule:evenodd;fill-opacity:1;"
       d="M 0 248.0625 L 0 496.0625 L 0.0625 496.0625 L 372.0625 248.0625 L 0 248.0625 z "
       id="path598"
       transform="translate(0,1.531887e-6)" />
    <path
       style="font-size:12;fill:#ff0000;fill-rule:evenodd;fill-opacity:1;"
       d="M 0.0625 496.0625 L 372.0625 496.0625 L 372.0625 248.0625 L 0.0625 496.0625 z "
       id="path614"
       transform="matrix(-1,0,0,1,372.0625,-248.0314)" />
    <path
       style="font-size:12;fill:#ff9900;fill-rule:evenodd;fill-opacity:1;"
       d="M 0 248.0625 L 0 496.0625 L 0.0625 496.0625 L 372.0625 248.0625 L 0 248.0625 z "
       id="path613"
       transform="matrix(-1,0,0,1,372.0625,-248.0314)" />
    <path
       style="font-size:12;fill:#ffff00;fill-rule:evenodd;fill-opacity:1;"
       d="M 0 248.0625 L 0 496.0625 L 0.0625 496.0625 L 372.0625 248.0625 L 0 248.0625 z "
       id="path619"
       transform="translate(372.0471,-248.0314)" />
    <path
       style="font-size:12;fill:#00ff00;fill-rule:evenodd;fill-opacity:1;"
       d="M 0.0625 496.0625 L 372.0625 496.0625 L 372.0625 248.0625 L 0.0625 496.0625 z "
       id="path620"
       transform="translate(372.0471,-248.0314)" />
    <path
       style="font-size:12;fill:#009900;fill-rule:evenodd;fill-opacity:1;"
       d="M 0 248.0625 L 0 496.0625 L 0.0625 496.0625 L 372.0625 248.0625 L 0 248.0625 z "
       id="path616"
       transform="matrix(-1,0,0,1,744.1097,1.531887e-6)" />
    <path
       style="font-size:12;fill:#0000ff;fill-rule:evenodd;fill-opacity:1;"
       d="M 0.0625 496.0625 L 372.0625 496.0625 L 372.0625 248.0625 L 0.0625 496.0625 z "
       id="path617"
       transform="matrix(-1,0,0,1,744.1097,1.531887e-6)" />
    <path
       style="font-size:12;fill:#660099;fill-rule:evenodd;fill-opacity:1;"
       d="M 0.0625 496.0625 L 372.0625 496.0625 L 372.0625 248.0625 L 0.0625 496.0625 z "
       id="path608"
       transform="translate(0,1.531887e-6)" />
    <path
       style="font-size:12;fill:#ffffff;fill-rule:evenodd;fill-opacity:1;"
       d="M 744.125 496.0625 L 744.125 469.4375 L 437.125 267.5 L 744.125 267.5 L 744.125 228.5625 L 437.1875 228.5625 L 744.125 26.625 L 744.125 0 L 713.6875 0 L 391.5625 211.8125 L 391.5625 0 L 352.5625 0 L 352.5625 211.875 L 30.4375 0 L 0 0 L 0 26.625 L 307 228.5625 L 0 228.5625 L 0 267.5 L 306.9375 267.5 L 0 469.4375 L 0 496.0625 L 30.4375 496.0625 L 352.5625 284.1875 L 352.5625 496.0625 L 391.5625 496.0625 L 391.5625 284.1875 L 713.6875 496.0625 L 744.125 496.0625 z "
       id="path645" />
  </g>
</svg>
