<?xml version="1.0" encoding="UTF-8" standalone="no"?>
<!DOCTYPE svg PUBLIC "-//W3C//DTD SVG 1.0//EN"
"http://www.w3.org/TR/2001/REC-SVG-20010904/DTD/svg10.dtd">
<!-- Created with Sodipodi ("http://www.sodipodi.com/") -->
<svg
   id="svg577"
   sodipodi:version="0.33"
   xmlns="http://www.w3.org/2000/svg"
   xmlns:sodipodi="http://sodipodi.sourceforge.net/DTD/sodipodi-0.dtd"
   xmlns:xlink="http://www.w3.org/1999/xlink"
   width="210mm"
   height="140mm"
   sodipodi:docbase="/home/tobias/Desktop/Flags"
   sodipodi:docname="/home/tobias/Desktop/Flags/Flags_Of_The_World_Flag.svg">
  <defs
     id="defs579" />
  <sodipodi:namedview
     id="base" />
  <rect
     style="font-size:12.000;fill:#ffffff;fill-rule:evenodd;stroke-width:1;fill-opacity:1.0000;"
     id="rect588"
     width="194.8819"
     height="496.0632"
     x="-2.261502e-13"
     y="-1.340787e-4" />
  <rect
     style="font-size:12.000;fill:#0000bd;fill-rule:evenodd;stroke-width:1;fill-opacity:1.0000;"
     id="rect587"
     width="549.2127"
     height="496.0632"
     x="194.8819"
     y="-1.645963e-4" />
  <polygon
     sodipodi:type="star"
     style="font-size:12.000;fill:#00be00;fill-rule:evenodd;fill-opacity:1.0000;"
     id="polygon581"
     sodipodi:sides="5"
     sodipodi:cx="71.2467499"
     sodipodi:cy="37.3273926"
     sodipodi:r1="19.1845760"
     sodipodi:r2="7.96410608"
     sodipodi:arg1="0.93372643"
     sodipodi:arg2="1.56204498"
     points="82.65855,52.74876 71.31644,45.29119 60.10659,52.94613 63.69426,39.85463 52.94995,31.55893 66.50936,30.92551 71.07886,18.14355 75.87137,30.84358 89.43979,31.23959 78.84232,39.72206 82.65855,52.74876 "
     transform="matrix(2.752568,0,0,2.752568,0.848969,-1.525879e-5)" />
  <polygon
     sodipodi:type="star"
     style="font-size:12.000;fill:#ffffff;fill-rule:evenodd;fill-opacity:1.0000;"
     id="polygon582"
     sodipodi:sides="5"
     sodipodi:cx="71.2467499"
     sodipodi:cy="37.3273926"
     sodipodi:r1="19.1845760"
     sodipodi:r2="7.96410608"
     sodipodi:arg1="0.93372643"
     sodipodi:arg2="1.56204498"
     points="82.65855,52.74876 71.31644,45.29119 60.10659,52.94613 63.69426,39.85463 52.94995,31.55893 66.50936,30.92551 71.07886,18.14355 75.87137,30.84358 89.43979,31.23959 78.84232,39.72206 82.65855,52.74876 "
     transform="matrix(2.752444,2.616797e-2,-2.616797e-2,2.752444,81.59091,58.41814)" />
  <polygon
     sodipodi:type="star"
     style="font-size:12.000;fill:#ffff00;fill-rule:evenodd;fill-opacity:1.0000;"
     id="polygon583"
     sodipodi:sides="5"
     sodipodi:cx="71.2467499"
     sodipodi:cy="37.3273926"
     sodipodi:r1="19.1845760"
     sodipodi:r2="7.96410608"
     sodipodi:arg1="0.93372643"
     sodipodi:arg2="1.56204498"
     points="82.65855,52.74876 71.31644,45.29119 60.10659,52.94613 63.69426,39.85463 52.94995,31.55893 66.50936,30.92551 71.07886,18.14355 75.87137,30.84358 89.43979,31.23959 78.84232,39.72206 82.65855,52.74876 "
     transform="matrix(2.752444,2.616797e-2,-2.616797e-2,2.752444,50.17910,156.0495)" />
  <polygon
     sodipodi:type="star"
     style="font-size:12.000;fill:#d60000;fill-rule:evenodd;fill-opacity:1.0000;"
     id="polygon584"
     sodipodi:sides="5"
     sodipodi:cx="71.2467499"
     sodipodi:cy="37.3273926"
     sodipodi:r1="19.1845760"
     sodipodi:r2="7.96410608"
     sodipodi:arg1="0.93372643"
     sodipodi:arg2="1.56204498"
     points="82.65855,52.74876 71.31644,45.29119 60.10659,52.94613 63.69426,39.85463 52.94995,31.55893 66.50936,30.92551 71.07886,18.14355 75.87137,30.84358 89.43979,31.23959 78.84232,39.72206 82.65855,52.74876 "
     transform="matrix(2.752444,2.616797e-2,-2.616797e-2,2.752444,-49.15010,156.8986)" />
  <polygon
     sodipodi:type="star"
     style="font-size:12.000;fill:#0000bd;fill-rule:evenodd;fill-opacity:1.0000;"
     id="polygon585"
     sodipodi:sides="5"
     sodipodi:cx="71.2467499"
     sodipodi:cy="37.3273926"
     sodipodi:r1="19.1845760"
     sodipodi:r2="7.96410608"
     sodipodi:arg1="0.93372643"
     sodipodi:arg2="1.56204498"
     points="82.65855,52.74876 71.31644,45.29119 60.10659,52.94613 63.69426,39.85463 52.94995,31.55893 66.50936,30.92551 71.07886,18.14355 75.87137,30.84358 89.43979,31.23959 78.84232,39.72206 82.65855,52.74876 "
     transform="matrix(2.752444,2.616797e-2,-2.616797e-2,2.752444,-80.56191,57.56930)" />
  <polygon
     sodipodi:type="star"
     style="font-size:12.000;fill:#000000;fill-rule:evenodd;fill-opacity:1.0000;"
     id="polygon586"
     sodipodi:sides="5"
     sodipodi:cx="71.2467499"
     sodipodi:cy="37.3273926"
     sodipodi:r1="19.1845760"
     sodipodi:r2="7.96410608"
     sodipodi:arg1="0.93372643"
     sodipodi:arg2="1.56204498"
     points="82.65855,52.74876 71.31644,45.29119 60.10659,52.94613 63.69426,39.85463 52.94995,31.55893 66.50936,30.92551 71.07886,18.14355 75.87137,30.84358 89.43979,31.23959 78.84232,39.72206 82.65855,52.74876 "
     transform="matrix(2.752444,-2.616797e-2,-2.616797e-2,-2.752444,1.787950,294.0720)" />
</svg>
