<?xml version="1.0" encoding="UTF-8" standalone="no"?>
<!DOCTYPE svg PUBLIC "-//W3C//DTD SVG 20010904//EN"
"http://www.w3.org/TR/2001/REC-SVG-20010904/DTD/svg10.dtd">
<!-- Created with Sodipodi ("http://www.sodipodi.com/") -->
<svg
   xmlns="http://www.w3.org/2000/svg"
   xmlns:sodipodi="http://sodipodi.sourceforge.net/DTD/sodipodi-0.dtd"
   xmlns:xlink="http://www.w3.org/1999/xlink"
   id="svg1350"
   sodipodi:version="0.34"
   width="10.15000cm"
   height="6.100000cm"
   sodipodi:docname="E:\sodipodi\travail_drapeau\MidiPyrenees.svg"
   sodipodi:docbase="E:\sodipodi\travail_drapeau">
  <defs
     id="defs1352">
    <defs
       id="defs5117" />
    <sodipodi:namedview
       id="namedview5116" />
  </defs>
  <sodipodi:namedview
     id="base"
     showgrid="false"
     borderlayer="top"
     bordercolor="#000000"
     borderopacity="1" />
  <rect
     style="font-size:12;fill:#ff0000;fill-rule:evenodd;stroke-width:1;fill-opacity:1;"
     id="rect2649"
     width="359.676309"
     height="214.74763"
     x="3.85205872e-2"
     y="1.39400979" />
  <path
     style="font-size:12;fill:none;fill-rule:evenodd;stroke:#ffd700;stroke-width:9.125;"
     d="M 185.2892 100.408 C 205.3046 102.0748 228.6437 91.68914 245.0475 79.15245 C 248.7986 91.14761 254.4541 101.145 263.2443 109.5176 C 253.2821 118.4762 248.0126 129.1789 244.7854 139.6874 C 227.1033 125.7787 203.7072 117.6696 185.0939 118.8782 "
     id="path2624"
     sodipodi:nodetypes="ccccc"
     transform="translate(0.308705,-0.580088)" />
  <path
     sodipodi:type="arc"
     style="font-size:12;fill:#ffd700;fill-rule:evenodd;stroke-width:1;"
     id="path2626"
     d="M 259.0182 67.00114 A 7.520515 7.520514 0 1 0 243.9772 67.00114 A 7.520515 7.520514 0 1 0  259.0182 67.00114 z"
     sodipodi:cx="251.497711"
     sodipodi:cy="67.0011444"
     sodipodi:rx="7.52051544"
     sodipodi:ry="7.52051353"
     transform="translate(-2.230701,-1.55679)" />
  <path
     sodipodi:type="arc"
     style="font-size:12;fill:#ffd700;fill-rule:evenodd;stroke-width:1;"
     id="path2627"
     d="M 259.0182 67.00114 A 7.520515 7.520514 0 1 0 243.9772 67.00114 A 7.520515 7.520514 0 1 0  259.0182 67.00114 z"
     sodipodi:cx="251.497711"
     sodipodi:cy="67.0011444"
     sodipodi:rx="7.52051544"
     sodipodi:ry="7.52051353"
     transform="translate(24.53061,42.19889)" />
  <path
     sodipodi:type="arc"
     style="font-size:12;fill:#ffd700;fill-rule:evenodd;stroke-width:1;"
     id="path2628"
     d="M 259.0182 67.00114 A 7.520515 7.520514 0 1 0 243.9772 67.00114 A 7.520515 7.520514 0 1 0  259.0182 67.00114 z"
     sodipodi:cx="251.497711"
     sodipodi:cy="67.0011444"
     sodipodi:rx="7.52051544"
     sodipodi:ry="7.52051353"
     transform="translate(-2.230686,85.36858)" />
  <path
     style="font-size:12;fill:none;fill-rule:evenodd;stroke:#ffd700;stroke-width:9.125;"
     d="M 185.3672 100.33 C 205.3046 101.2947 228.6437 91.68914 245.0475 79.15245 C 248.7986 91.14761 254.4541 101.145 263.2443 109.5176 C 253.2821 118.4762 248.0126 129.1789 244.7854 139.6874 C 227.1033 125.7787 203.4732 118.3873 185.0939 118.8002 "
     id="path2635"
     sodipodi:nodetypes="ccccc"
     transform="matrix(-1,0,0,1,360.6221,-0.48926)" />
  <path
     sodipodi:type="arc"
     style="font-size:12;fill:#ffd700;fill-rule:evenodd;stroke-width:1;"
     id="path2636"
     d="M 259.0182 67.00114 A 7.520515 7.520514 0 1 0 243.9772 67.00114 A 7.520515 7.520514 0 1 0  259.0182 67.00114 z"
     sodipodi:cx="251.497711"
     sodipodi:cy="67.0011444"
     sodipodi:rx="7.52051544"
     sodipodi:ry="7.52051353"
     transform="matrix(-1,0,0,1,363.1615,-1.465962)" />
  <path
     sodipodi:type="arc"
     style="font-size:12;fill:#ffd700;fill-rule:evenodd;stroke-width:1;"
     id="path2637"
     d="M 259.0182 67.00114 A 7.520515 7.520514 0 1 0 243.9772 67.00114 A 7.520515 7.520514 0 1 0  259.0182 67.00114 z"
     sodipodi:cx="251.497711"
     sodipodi:cy="67.0011444"
     sodipodi:rx="7.52051544"
     sodipodi:ry="7.52051353"
     transform="matrix(-1,0,0,1,336.4002,42.28972)" />
  <path
     sodipodi:type="arc"
     style="font-size:12;fill:#ffd700;fill-rule:evenodd;stroke-width:1;"
     id="path2638"
     d="M 259.0182 67.00114 A 7.520515 7.520514 0 1 0 243.9772 67.00114 A 7.520515 7.520514 0 1 0  259.0182 67.00114 z"
     sodipodi:cx="251.497711"
     sodipodi:cy="67.0011444"
     sodipodi:rx="7.52051544"
     sodipodi:ry="7.52051353"
     transform="matrix(-1,0,0,1,363.1615,85.4594)" />
  <path
     style="font-size:12;fill:none;fill-rule:evenodd;stroke:#ffd700;stroke-width:9.125;"
     d="M 185.2112 100.174 C 204.9926 101.7591 228.6437 91.68915 245.0475 79.15245 C 248.7986 91.14761 254.4541 101.145 263.2443 109.5176 C 253.2821 118.4762 248.0126 129.1789 244.7854 139.6874 C 227.1033 125.7787 203.4732 118.3873 185.0939 118.8002 "
     id="path2640"
     sodipodi:nodetypes="ccccc"
     transform="matrix(-6.123027e-17,1,1,6.123027e-17,70.82161,-71.30426)" />
  <path
     sodipodi:type="arc"
     style="font-size:12;fill:#ffd700;fill-rule:evenodd;stroke-width:1;"
     id="path2641"
     d="M 259.0182 67.00114 A 7.520515 7.520514 0 1 0 243.9772 67.00114 A 7.520515 7.520514 0 1 0  259.0182 67.00114 z"
     sodipodi:cx="251.497711"
     sodipodi:cy="67.0011444"
     sodipodi:rx="7.52051544"
     sodipodi:ry="7.52051353"
     transform="matrix(-6.123027e-17,1,1,6.123027e-17,69.84491,-73.84367)" />
  <path
     sodipodi:type="arc"
     style="font-size:12;fill:#ffd700;fill-rule:evenodd;stroke-width:1;"
     id="path2642"
     d="M 259.0182 67.00114 A 7.520515 7.520514 0 1 0 243.9772 67.00114 A 7.520515 7.520514 0 1 0  259.0182 67.00114 z"
     sodipodi:cx="251.497711"
     sodipodi:cy="67.0011444"
     sodipodi:rx="7.52051544"
     sodipodi:ry="7.52051353"
     transform="matrix(-6.123027e-17,1,1,6.123027e-17,113.6006,-47.08235)" />
  <path
     sodipodi:type="arc"
     style="font-size:12;fill:#ffd700;fill-rule:evenodd;stroke-width:1;"
     id="path2643"
     d="M 259.0182 67.00114 A 7.520515 7.520514 0 1 0 243.9772 67.00114 A 7.520515 7.520514 0 1 0  259.0182 67.00114 z"
     sodipodi:cx="251.497711"
     sodipodi:cy="67.0011444"
     sodipodi:rx="7.52051544"
     sodipodi:ry="7.52051353"
     transform="matrix(-6.123027e-17,1,1,6.123027e-17,156.7703,-73.84365)" />
  <path
     style="font-size:12;fill:none;fill-rule:evenodd;stroke:#ffd700;stroke-width:9.125;"
     d="M 185.2892 100.408 C 205.2266 101.0607 228.6437 91.68914 245.0475 79.15245 C 248.7986 91.14761 254.4541 101.145 263.2443 109.5176 C 253.2821 118.4762 248.0126 129.1789 244.7854 139.6874 C 227.1033 125.7787 203.4732 118.3873 185.0939 118.8002 "
     id="path2645"
     sodipodi:nodetypes="ccccc"
     transform="matrix(6.12303e-17,-1,1,6.12303e-17,70.5965,289.5709)" />
  <path
     sodipodi:type="arc"
     style="font-size:12;fill:#ffd700;fill-rule:evenodd;stroke-width:1;"
     id="path2646"
     d="M 259.0182 67.00114 A 7.520515 7.520514 0 1 0 243.9772 67.00114 A 7.520515 7.520514 0 1 0  259.0182 67.00114 z"
     sodipodi:cx="251.497711"
     sodipodi:cy="67.0011444"
     sodipodi:rx="7.52051544"
     sodipodi:ry="7.52051353"
     transform="matrix(6.12303e-17,-1,1,6.12303e-17,69.6198,292.1103)" />
  <path
     sodipodi:type="arc"
     style="font-size:12;fill:#ffd700;fill-rule:evenodd;stroke-width:1;"
     id="path2647"
     d="M 259.0182 67.00114 A 7.520515 7.520514 0 1 0 243.9772 67.00114 A 7.520515 7.520514 0 1 0  259.0182 67.00114 z"
     sodipodi:cx="251.497711"
     sodipodi:cy="67.0011444"
     sodipodi:rx="7.52051544"
     sodipodi:ry="7.52051353"
     transform="matrix(6.12303e-17,-1,1,6.12303e-17,113.3755,265.349)" />
  <path
     sodipodi:type="arc"
     style="font-size:12;fill:#ffd700;fill-rule:evenodd;stroke-width:1;"
     id="path2648"
     d="M 259.0182 67.00114 A 7.520515 7.520514 0 1 0 243.9772 67.00114 A 7.520515 7.520514 0 1 0  259.0182 67.00114 z"
     sodipodi:cx="251.497711"
     sodipodi:cy="67.0011444"
     sodipodi:rx="7.52051544"
     sodipodi:ry="7.52051353"
     transform="matrix(6.12303e-17,-1,1,6.12303e-17,156.5452,292.1103)" />
</svg>
