<?xml version="1.0" encoding="UTF-8" standalone="no"?>
<!DOCTYPE svg PUBLIC "-//W3C//DTD SVG 20010904//EN"
"http://www.w3.org/TR/2001/REC-SVG-20010904/DTD/svg10.dtd">
<!-- Created with Sodipodi ("http://www.sodipodi.com/") -->
<svg
   xmlns="http://www.w3.org/2000/svg"
   xmlns:sodipodi="http://sodipodi.sourceforge.net/DTD/sodipodi-0.dtd"
   xmlns:xlink="http://www.w3.org/1999/xlink"
   id="svg1350"
   sodipodi:version="0.34"
   width="10.15000cm"
   height="6.100000cm"
   sodipodi:docname="E:\sodipodi\travail_drapeau\nivernais.svg"
   sodipodi:docbase="E:\sodipodi\travail_drapeau">
  <defs
     id="defs1352">
    <defs
       id="defs5117" />
    <sodipodi:namedview
       id="namedview5116" />
  </defs>
  <sodipodi:namedview
     id="base"
     showgrid="false"
     borderlayer="top"
     bordercolor="#000000"
     borderopacity="1" />
  <rect
     style="font-size:12;fill:#ff0000;fill-rule:evenodd;"
     id="rect624"
     width="359.91859"
     height="215.427764"
     x="0.22138141"
     y="0.98589975" />
  <path
     style="font-size:12;fill:#ffd700;fill-rule:evenodd;stroke-width:1;stroke-opacity:0.5478;"
     d="M 48.31307 -199.4796 C 55.90435 -200.998 63.63642 -201.7468 69.69154 -188.9361 C 77.52557 -204.5455 99.44576 -202.8969 105.5188 -189.2326 C 109.0359 -197.987 115.3875 -202.897 122.9787 -202.1378 C 126.7744 -199.1012 312.1009 -73.41592 315.8966 -71.13855 C 315.1375 -65.82466 312.2981 -63.53174 306.2251 -62.77264 C 328.0915 -51.77673 315.5187 -27.62793 303.2243 -25.70572 C 299.4287 -28.74222 47.55394 -198.7205 48.31307 -199.4796 L 48.31307 -199.4796 L 48.31307 -199.4796 L 48.31307 -199.4796 L 48.31307 -199.4796 z "
     id="path817"
     sodipodi:nodetypes="ccccccccccc"
     transform="matrix(1.105874,0,0,1.020823,-16.80952,223.599)" />
  <path
     style="font-size:12;fill:#ffd700;fill-rule:evenodd;stroke-width:1;stroke-opacity:0.5478;"
     d="M 36.36719 -153.5849 C 35.11719 -144.8349 40 -135.1083 49.375 -131.3583 C 36.875 -130.1083 28.75 -104.4833 46.875 -93.8583 C 50 -90.7333 137.4618 -30.88726 137.6571 -30.69193 C 138.9852 -32.44974 140.5469 -34.99111 140.625 -37.6083 C 150.625 -19.48328 174.375 -19.48328 176.25 -38.8583 C 186.25 -17.60828 207.6094 -26.95078 210.1094 -36.3258 C 207.6094 -38.2008 36.48438 -153.3896 36.36719 -153.5849 L 36.36719 -153.5849 L 36.36719 -153.5849 L 36.36719 -153.5849 L 36.36719 -153.5849 L 36.36719 -153.5849 z "
     id="path820"
     sodipodi:nodetypes="cccccccccccc"
     transform="matrix(1.105874,0,0,1.020823,-16.80952,223.599)" />
  <path
     style="font-size:12;fill:#ffd700;fill-rule:evenodd;stroke-width:1;stroke-opacity:0.5478;"
     d="M 213.75 -194.0541 C 221.25 -205.9291 237.5 -205.9291 246.875 -191.5541 C 254.375 -205.3041 275.625 -203.4291 280 -188.4291 C 284.375 -199.0541 297.5 -206.5541 308.75 -199.0541 C 320 -191.5541 316.25 -171.5541 305 -164.6791 C 318.125 -157.1791 317.8915 -139.4457 304.1415 -131.3207 C 301.0165 -133.8207 213.75 -194.0541 213.75 -194.0541 L 213.75 -194.0541 L 213.75 -194.0541 z "
     id="path821"
     sodipodi:nodetypes="cccccccc"
     transform="matrix(1.105874,0,0,1.020823,-16.80952,223.599)" />
  <path
     style="font-size:12;fill:#0000ff;fill-rule:evenodd;stroke-width:1;stroke-opacity:0.5478;"
     d="M 303.2043 -25.74594 C 295.6091 -24.24726 287.4078 -22.73943 281.3859 -35.56581 C 273.5114 -19.97681 251.5956 -21.68232 245.5581 -35.36234 C 235.0114 -22.15117 221.2969 -23.02357 209.9397 -36.2525 C 206.1519 -39.29893 40.13478 -151.2835 36.34498 -153.5706 C 37.11788 -158.8826 44.73078 -165.3496 50.80578 -166.0929 C 28.968 -177.1456 35.97848 -197.5116 48.27778 -199.4019 C 52.06548 -196.3556 303.9654 -26.50307 303.2043 -25.74594 L 303.2043 -25.74594 L 303.2043 -25.74594 L 303.2043 -25.74594 L 303.2043 -25.74594 L 303.2043 -25.74594 L 303.2043 -25.74594 L 303.2043 -25.74594 z "
     id="path822"
     sodipodi:nodetypes="cccccccccccccc"
     transform="matrix(1.105874,0,0,1.020823,-16.80952,223.599)" />
  <path
     style="font-size:12;fill:#0000ff;fill-rule:evenodd;stroke-width:1;stroke-opacity:0.5478;"
     d="M 315.8821 -71.02001 C 320.0285 -79.92657 316.8419 -90.27265 303.0679 -92.59144 C 315.4432 -94.17255 322.3184 -121.071 304.0626 -131.3941 C 303.8902 -131.673 214.0193 -193.9359 213.8425 -194.0744 C 213.2186 -193.5101 212.1808 -190.6167 212.0248 -188.5228 C 205.618 -208.087 181.3885 -207.3226 176.5169 -188.0998 C 166.8537 -209.2447 145.0625 -201.9581 141.8416 -189.1556 C 141.987 -188.957 315.6603 -71.21758 315.8821 -71.02001 L 315.8821 -71.02001 L 315.8821 -71.02001 L 315.8821 -71.02001 L 315.8821 -71.02001 L 315.8821 -71.02001 L 315.8821 -71.02001 L 315.8821 -71.02001 L 315.8821 -71.02001 L 315.8821 -71.02001 z "
     id="path823"
     sodipodi:nodetypes="cccccccccccccccc"
     transform="matrix(1.105874,0,0,1.020823,-16.80952,223.599)" />
  <path
     style="font-size:12;fill:#0000ff;fill-rule:evenodd;stroke-width:1;stroke-opacity:0.5478;"
     d="M 137.7329 -30.66139 C 129.8612 -18.87402 114.9879 -20.31216 105.4969 -34.79471 C 97.60287 -21.13247 75.72368 -23.25335 71.39345 -38.30299 C 66.75756 -27.72936 53.14059 -20.38181 41.63507 -28.01155 C 30.12966 -35.64129 34.23329 -55.59649 45.91034 -62.34079 C 32.47228 -69.99223 32.38013 -86.01166 46.64872 -93.97694 C 46.83194 -93.8237 137.7329 -30.66139 137.7329 -30.66139 L 137.7329 -30.66139 L 137.7329 -30.66139 L 137.7329 -30.66139 L 137.7329 -30.66139 z "
     id="path824"
     sodipodi:nodetypes="cccccccccc"
     transform="matrix(1.105874,0,0,1.020823,-16.80952,223.599)" />
  <path
     style="font-size:12;fill:#0000ff;fill-rule:evenodd;stroke-width:1;stroke-opacity:0.5478;"
     d="M 123.0638 -202.1018 C 130.2956 -201.3312 140.4056 -194.1828 141.7807 -189.1785 C 141.6111 -189.3844 123.1996 -201.9322 123.0638 -202.1018 L 123.0638 -202.1018 L 123.0638 -202.1018 L 123.0638 -202.1018 z "
     id="path825"
     sodipodi:nodetypes="ccccc"
     transform="matrix(1.105874,0,0,1.020823,-16.80952,223.599)" />
</svg>
