<?xml version="1.0" encoding="UTF-8" standalone="no"?>
<!DOCTYPE svg PUBLIC "-//W3C//DTD SVG 20010904//EN"
"http://www.w3.org/TR/2001/REC-SVG-20010904/DTD/svg10.dtd">
<!-- Created with Sodipodi ("http://www.sodipodi.com/") -->
<svg
   id="svg603"
   sodipodi:version="0.32"
   width="224mm"
   height="140mm"
   sodipodi:docbase="/home/gatto/Desktop/flags/"
   sodipodi:docname="/home/gatto/Desktop/flags/Guatemala.svg"
   xmlns="http://www.w3.org/2000/svg"
   xmlns:sodipodi="http://sodipodi.sourceforge.net/DTD/sodipodi-0.dtd"
   xmlns:xlink="http://www.w3.org/1999/xlink">
  <defs
     id="defs605" />
  <sodipodi:namedview
     id="base" />
  <g
     id="g1399">
    <rect
       style="font-size:12;fill:#0066ff;fill-rule:evenodd;stroke-width:1pt;"
       id="rect606"
       height="496.070007"
       x="0.000000"
       y="0"
       width="793.727994667" />
    <rect
       style="font-size:12;fill:#ffffff;fill-rule:evenodd;stroke-width:1pt;"
       id="rect607"
       height="496.084473"
       y="0"
       x="264.575998222"
       width="264.575998222" />
  </g>
  <g
     id="g1400"
     transform="matrix(0.999935,0.000000,0.000000,0.999904,26.81757,0.735115)">
    <path
       style="font-size:12;fill:none;fill-rule:evenodd;stroke:#000000;stroke-width:0.5;"
       d="M 401.816 305.021 C 400.056 303.19 390.688 300.331 384.028 299.757 C 378.273 299.303 374.561 295.519 371.151 295.145 C 361.295 285.235 348.41 281.448 339.984 262.155 C 338.382 256.365 337.243 249.314 337.072 242.57 C 340.252 220.04 342.31 220.648 347.057 205.752 "
       id="path998"
       sodipodi:nodetypes="cccccc"
       transform="matrix(-1.000000,0.000000,0.000000,1.000000,768.2460,1.217338)" />
    <path
       style="font-size:12;fill:#0c5c1d;fill-rule:evenodd;stroke-width:0.375;"
       d="M 378.399 303.291 C 378.227 304.953 373.149 311.084 364.379 310.006 C 365.163 308.314 367.068 307.1 369.801 304.553 C 371.052 303.264 378.462 302.505 378.399 303.291 z "
       id="path999"
       sodipodi:nodetypes="ccss"
       transform="matrix(-1.000000,0.000000,0.000000,1.000000,762.4661,-0.135392)" />
    <path
       style="font-size:12;fill:#0c5c1d;fill-rule:evenodd;stroke-width:0.375;"
       d="M 379.497 302.996 C 380.517 303.085 381.424 303.692 379.681 305.223 C 376.741 307.694 366.195 309.967 364.606 306.83 C 369.274 306.2 372.386 305.211 372.866 305.229 C 375.034 304.519 377.829 302.839 379.497 302.996 z "
       id="path1000"
       sodipodi:nodetypes="ccccs"
       transform="matrix(-1.000000,0.000000,0.000000,1.000000,774.0138,-1.587990)" />
    <path
       style="font-size:12;fill:#0c5c1d;fill-rule:evenodd;stroke-width:0.25;"
       d="M 378.996 299.441 C 376.869 297.978 375.221 298.099 373.845 297.81 C 370.321 297.566 367.911 298.05 366.436 298.66 C 364.253 299.6 361.073 301.953 360.67 303.662 C 363.911 303.601 366.059 301.155 370.232 300.228 C 372.361 300.044 376.296 299.77 378.996 299.441 z "
       id="path1001"
       sodipodi:nodetypes="cccccc"
       transform="matrix(-1.000000,0.000000,0.000000,1.000000,768.2460,1.217338)" />
    <path
       style="font-size:12;fill:#0c5c1d;fill-rule:evenodd;stroke-width:0.25;"
       d="M 380.788 299.841 C 374.326 296.625 367.899 290.241 366.653 283.076 C 374.838 288.37 380.801 296.542 380.788 299.841 z "
       id="path1002"
       sodipodi:nodetypes="ccc"
       transform="matrix(-0.995961,8.978587e-2,8.978587e-2,0.995961,735.9479,-32.79963)" />
    <path
       style="font-size:12;fill:#0c5c1d;fill-rule:evenodd;stroke-width:0.25;"
       d="M 381.157 298.734 C 375.959 296.479 368.917 291.428 368.062 280.923 C 375.194 285.412 377.475 292.05 381.157 298.734 z "
       id="path1003"
       sodipodi:nodetypes="ccc"
       transform="matrix(-1.000000,0.000000,0.000000,1.000000,768.2460,1.217324)" />
    <path
       style="font-size:12;fill:#0c5c1d;fill-rule:evenodd;stroke-width:0.25;"
       d="M 370.685 297.109 C 371.086 294.144 363.966 278.651 359.812 274.663 C 359.358 280.627 365.158 297.377 370.685 297.109 z "
       id="path1004"
       sodipodi:nodetypes="ccc"
       transform="matrix(-1.000000,0.000000,0.000000,1.000000,768.7379,-2.225960)" />
    <path
       style="font-size:12;fill:#0c5c1d;fill-rule:evenodd;stroke-width:0.25;"
       d="M 365.727 295.857 C 364.646 300.452 352.894 301.645 349.1 296.258 C 353.824 295.47 359.664 295.011 365.727 295.857 z "
       id="path1005"
       sodipodi:nodetypes="ccc"
       transform="matrix(-1.000000,0.000000,0.000000,1.000000,763.5730,-0.381325)" />
    <path
       style="font-size:12;fill:#0c5c1d;fill-rule:evenodd;stroke-width:0.25;"
       d="M 367.181 296.304 C 363.116 300.273 351.215 300.656 343.403 296.795 C 352.731 291.651 366.306 294.733 367.181 296.304 z "
       id="path1006"
       sodipodi:nodetypes="ccc"
       transform="matrix(-0.977760,0.209725,0.209725,0.977760,699.8756,-74.39114)" />
    <path
       style="font-size:12;fill:#0c5c1d;fill-rule:evenodd;stroke-width:0.25;"
       d="M 357.568 287.685 C 356.805 284.346 346.918 277.752 340.541 278.117 C 344.592 283.615 345.981 282.674 348.091 285.113 C 349.533 286.922 354.565 288.251 357.568 287.685 z "
       id="path1008"
       sodipodi:nodetypes="ccsc"
       transform="matrix(-1.000000,0.000000,0.000000,1.000000,769.8447,-1.980065)" />
    <path
       style="font-size:12;fill:#0c5c1d;fill-rule:evenodd;stroke-width:0.25;"
       d="M 351.73 280.549 C 355.14 279.023 353.726 269.105 351.131 265.185 C 349.115 270.821 349.027 279.414 351.73 280.549 z "
       id="path1010"
       sodipodi:nodetypes="ccc"
       transform="matrix(-0.998026,6.280386e-2,6.351756e-2,1.009367,748.7443,-27.16420)" />
    <path
       style="font-size:12;fill:#0c5c1d;fill-rule:evenodd;stroke-width:0.25;"
       d="M 346.418 275.013 C 351.076 272.422 349.397 259.751 346.915 256.198 C 344.969 259.982 343.948 273.172 346.418 275.013 z "
       id="path1011"
       sodipodi:nodetypes="ccc"
       transform="matrix(-1.000000,0.000000,0.000000,1.000000,766.7703,-0.627259)" />
    <path
       style="font-size:12;fill:#0c5c1d;fill-rule:evenodd;stroke-width:0.25;"
       d="M 347.212 274.081 C 350.666 270.424 348.537 261.273 345.933 257.679 C 342.782 263.101 344.263 269.845 347.212 274.081 z "
       id="path1012"
       sodipodi:nodetypes="ccc"
       transform="matrix(-0.245580,-0.969377,-0.969377,0.245580,773.0885,543.5364)" />
    <path
       style="font-size:12;fill:#0c5c1d;fill-rule:evenodd;stroke-width:0.25;"
       d="M 343.086 271.805 C 346.967 265.737 344.557 262.521 342.188 255.008 C 341.042 261.388 341.966 268.12 343.086 271.805 z "
       id="path1015"
       sodipodi:nodetypes="ccc"
       transform="matrix(-1.000000,0.000000,0.000000,1.000000,768.0000,-0.258378)" />
    <path
       style="font-size:12;fill:#0c5c1d;fill-rule:evenodd;stroke-width:0.25;"
       d="M 343.212 270.951 C 346.958 266.702 345.539 261.133 343.117 255.527 C 340.833 259.185 339.16 264.037 343.212 270.951 z "
       id="path1016"
       sodipodi:nodetypes="ccc"
       transform="matrix(-0.666936,-0.745115,-0.745115,0.666936,860.6224,333.1057)" />
    <path
       style="font-size:12;fill:#0c5c1d;fill-rule:evenodd;stroke-width:0.25;"
       d="M 343.631 269.733 C 347.962 265.364 344.831 260.492 341.439 255.962 C 341.843 259.503 340.8 265.179 343.631 269.733 z "
       id="path1017"
       sodipodi:nodetypes="ccc"
       transform="matrix(-0.813801,0.581143,0.581143,0.813801,551.3445,-158.0544)" />
    <path
       style="font-size:12;fill:#0c5c1d;fill-rule:evenodd;stroke-width:0.25;"
       d="M 344.367 272.341 C 346.538 269.226 346.163 259.399 340.89 254.625 C 339.71 260.325 341.99 268.251 344.367 272.341 z "
       id="path1018"
       sodipodi:nodetypes="ccc"
       transform="matrix(0.975670,-0.219246,0.219246,0.975670,31.20223,61.13845)" />
    <path
       style="font-size:12;fill:#0c5c1d;fill-rule:evenodd;stroke-width:0.25;"
       d="M 343.447 273.405 C 343.156 271.147 342.889 269.966 342.317 267.034 C 341.391 261.711 342.397 263.688 340.961 257.159 C 337.556 263.049 338.71 271.535 343.447 273.405 z "
       id="path1020"
       sodipodi:nodetypes="cscc"
       transform="matrix(-0.963162,-0.268923,-0.268923,0.963162,834.6649,78.33263)" />
    <path
       style="font-size:12;fill:#0c5c1d;fill-rule:evenodd;stroke-width:0.25;"
       d="M 343 271.086 C 345.741 267.162 344.716 262.77 340.705 256.475 C 339.755 261.207 341.587 265.744 343 271.086 z "
       id="path1022"
       sodipodi:nodetypes="ccc"
       transform="matrix(-0.107837,0.994169,0.994169,0.107837,198.2263,-138.5849)" />
    <path
       style="font-size:12;fill:#0c5c1d;fill-rule:evenodd;stroke-width:0.25;"
       d="M 345.651 276.294 C 342.899 268.035 343.287 266.024 339.757 257.442 C 337.95 263.819 340.992 272.731 345.651 276.294 z "
       id="path1023"
       sodipodi:nodetypes="ccc"
       transform="matrix(0.817281,0.576240,-0.576240,0.817281,306.3139,-195.6658)" />
    <path
       style="font-size:12;fill:#0c5c1d;fill-rule:evenodd;stroke-width:0.25;"
       d="M 345.273 271.565 C 343.257 264.877 345.019 260.363 340.869 255.073 C 339.568 257.011 341.127 270.416 345.273 271.565 z "
       id="path1024"
       sodipodi:nodetypes="ccc"
       transform="matrix(0.796084,-0.605186,0.605186,0.796084,-10.55970,221.5299)" />
    <path
       style="font-size:12;fill:#0c5c1d;fill-rule:evenodd;stroke-width:0.25;"
       d="M 343.674 271.113 C 343.519 265.354 344.152 261.23 341.861 255.411 C 339.226 260.29 339.172 270.249 343.674 271.113 z "
       id="path1025"
       sodipodi:nodetypes="ccc"
       transform="matrix(0.796084,-0.605186,0.605186,0.796084,-10.47437,215.2106)" />
    <path
       style="font-size:12;fill:#0c5c1d;fill-rule:evenodd;stroke-width:0.25;"
       d="M 343.674 271.113 C 347.382 265.932 342.134 258.863 341.069 254.809 C 338.434 259.688 340.04 267.647 343.674 271.113 z "
       id="path1026"
       sodipodi:nodetypes="ccc"
       transform="matrix(0.904622,-0.426215,0.426215,0.904622,-6.098021,114.2594)" />
    <path
       style="font-size:12;fill:#0c5c1d;fill-rule:evenodd;stroke-width:0.25;"
       d="M 343.465 269.858 C 346.937 265.055 343.324 259.842 341.829 256.32 C 340.493 261.68 339.512 267.341 343.465 269.858 z "
       id="path1027"
       sodipodi:nodetypes="ccc"
       transform="matrix(0.950097,-0.311955,0.311955,0.950097,9.790600,56.57180)" />
    <path
       style="font-size:12;fill:#0c5c1d;fill-rule:evenodd;stroke-width:0.25;"
       d="M 343.461 270.523 C 345.403 266.724 343.498 258.499 341.791 255.104 C 340.145 257.163 340.279 270.108 343.461 270.523 z "
       id="path1028"
       sodipodi:nodetypes="ccc"
       transform="matrix(0.997048,7.678157e-2,-7.678157e-2,0.997048,105.9512,-79.06041)" />
    <path
       style="font-size:12;fill:#0c5c1d;fill-rule:evenodd;stroke-width:0.25;"
       d="M 343.71 268.925 C 345.688 264.195 343.716 259.63 341.829 256.32 C 340.824 261.688 340.244 266.807 343.71 268.925 z "
       id="path1029"
       sodipodi:nodetypes="ccc"
       transform="matrix(0.992935,0.118654,-0.118654,0.992935,114.8022,-98.16853)" />
    <path
       style="font-size:12;fill:#0c5c1d;fill-rule:evenodd;stroke-width:0.25;"
       d="M 343.931 270.683 C 346.881 268.326 345.086 260.275 339.252 255.648 C 340.433 262.206 341.975 264.731 343.931 270.683 z "
       id="path1063"
       sodipodi:nodetypes="ccc"
       transform="matrix(0.854297,0.519786,-0.519786,0.854297,276.2044,-165.0276)" />
    <path
       style="font-size:12;fill:#0c5c1d;fill-rule:evenodd;stroke-width:0.25;"
       d="M 343 271.086 C 346.068 267.569 344.716 262.77 340.705 256.475 C 340.271 261.015 344.224 266.525 343 271.086 z "
       id="path1062"
       sodipodi:nodetypes="ccc"
       transform="matrix(0.618011,0.786170,-0.786170,0.618011,429.5117,-206.0435)" />
    <path
       style="font-size:12;fill:#0c5c1d;fill-rule:evenodd;stroke-width:0.25;"
       d="M 343.931 270.683 C 347.995 269.042 345.434 257.159 339.097 253.947 C 340.333 261.92 341.421 264.857 343.931 270.683 z "
       id="path1019"
       sodipodi:nodetypes="ccc"
       transform="matrix(-0.814590,0.580038,0.580038,0.814590,554.6663,-173.0924)" />
    <path
       style="font-size:12;fill:#0c5c1d;fill-rule:evenodd;stroke-width:0.25;"
       d="M 347.212 274.081 C 350.979 272.001 348.7 263.077 346.174 259.129 C 344.741 263.619 345.726 271.25 347.212 274.081 z "
       id="path1013"
       sodipodi:nodetypes="ccc"
       transform="matrix(-0.359777,-0.933039,-0.933040,0.359777,807.6245,488.6201)" />
    <path
       style="font-size:12;fill:#0c5c1d;fill-rule:evenodd;stroke-width:0.25;"
       d="M 347.728 275.836 C 347.5 272.542 351.393 270.796 345.811 258.363 C 344.697 268.064 347.05 274.057 347.728 275.836 z "
       id="path1014"
       sodipodi:nodetypes="ccc"
       transform="matrix(0.680770,0.909169,-0.835657,0.625724,418.5937,-218.7071)" />
    <path
       style="font-size:12;fill:none;fill-rule:evenodd;stroke:#000000;stroke-width:0.5;"
       d="M 399.555 306.238 C 398.143 304.233 390.688 302.07 384.028 301.496 C 378.273 301.738 372.996 300.389 368.195 297.928 C 358.338 288.018 347.367 281.448 338.941 262.155 C 337.339 256.365 336.373 251.053 336.202 244.309 C 339.382 221.779 339.701 219.605 348.448 204.709 "
       id="path609"
       sodipodi:nodetypes="cccccc"
       transform="translate(-26.78044,-1.525879e-5)" />
    <path
       style="font-size:12;fill:#0c5c1d;fill-rule:evenodd;stroke-width:0.375;"
       d="M 378.399 303.291 C 378.227 304.953 372.411 310.1 364.379 310.006 C 365.163 308.314 373.062 306.502 375.212 303.446 C 375.848 302.526 378.462 302.505 378.399 303.291 z "
       id="path612"
       sodipodi:nodetypes="ccss"
       transform="translate(-26.78044,-3.051758e-5)" />
    <path
       style="font-size:12;fill:#0c5c1d;fill-rule:evenodd;stroke-width:0.375;"
       d="M 379.497 302.996 C 380.507 302.826 381.055 303.323 379.312 304.854 C 376.372 307.325 371.36 308.491 363.991 309.781 C 366.446 307.307 372.386 305.211 372.866 305.229 C 375.034 304.519 377.583 303.331 379.497 302.996 z "
       id="path619"
       sodipodi:nodetypes="ccccs"
       transform="translate(-33.77805,-2.067520)" />
    <path
       style="font-size:12;fill:#0c5c1d;fill-rule:evenodd;stroke-width:0.25;"
       d="M 376.782 300.671 C 376.008 298.962 375.221 298.099 373.845 297.81 C 370.321 297.566 367.542 298.173 366.436 298.66 C 365.237 299.354 361.442 301.83 361.039 303.539 C 363.911 302.74 365.813 300.54 369.986 299.982 C 371.992 299.306 374.82 299.401 376.782 300.671 z "
       id="path627"
       sodipodi:nodetypes="cccccc"
       transform="translate(-26.78044,-3.051758e-5)" />
    <path
       style="font-size:12;fill:#0c5c1d;fill-rule:evenodd;stroke-width:0.25;"
       d="M 380.788 299.841 C 374.326 296.625 370.046 292.146 368.8 284.981 C 376.985 290.275 380.801 296.542 380.788 299.841 z "
       id="path576"
       sodipodi:nodetypes="ccc"
       transform="matrix(0.995962,8.978587e-2,-8.978595e-2,0.995961,5.517642,-34.01699)" />
    <path
       style="font-size:12;fill:#0c5c1d;fill-rule:evenodd;stroke-width:0.25;"
       d="M 380.788 299.841 C 374.975 297.34 372.852 292.658 368.8 284.981 C 376.055 288.609 379.074 292.419 380.788 299.841 z "
       id="path575"
       sodipodi:nodetypes="ccc"
       transform="translate(-26.78044,-3.051758e-5)" />
    <path
       style="font-size:12;fill:#0c5c1d;fill-rule:evenodd;stroke-width:0.25;"
       d="M 367.734 297.232 C 368.995 292.053 366.794 284.431 363.009 280.689 C 362.678 286.53 363.805 296.27 367.734 297.232 z "
       id="path580"
       sodipodi:nodetypes="ccc"
       transform="translate(-26.78044,-3.051758e-5)" />
    <path
       style="font-size:12;fill:#0c5c1d;fill-rule:evenodd;stroke-width:0.25;"
       d="M 365.727 295.857 C 364.646 300.452 352.648 300.538 349.1 296.258 C 352.717 297.069 360.648 297.225 365.727 295.857 z "
       id="path581"
       sodipodi:nodetypes="ccc"
       transform="translate(-26.78044,-1.525879e-5)" />
    <path
       style="font-size:12;fill:#0c5c1d;fill-rule:evenodd;stroke-width:0.25;"
       d="M 367.181 296.304 C 364.147 299.8 348.604 298.449 347.878 295.961 C 349.743 295.31 366.306 294.733 367.181 296.304 z "
       id="path583"
       sodipodi:nodetypes="ccc"
       transform="matrix(0.977761,0.209725,-0.209725,0.977760,38.88451,-74.50172)" />
    <path
       style="font-size:12;fill:#0c5c1d;fill-rule:evenodd;stroke-width:0.25;"
       d="M 361.459 291.252 C 363.621 286.982 357.675 273.468 355.297 273.576 C 356.702 283.684 359.243 288.279 361.459 291.252 z "
       id="path584"
       sodipodi:nodetypes="ccc"
       transform="translate(-26.78044,-3.051758e-5)" />
    <path
       style="font-size:12;fill:#0c5c1d;fill-rule:evenodd;stroke-width:0.25;"
       d="M 357.568 287.685 C 356.19 284.469 345.811 278.982 340.541 278.117 C 344.838 282.631 347.603 281.997 349.075 284.867 C 350.148 286.799 354.811 287.144 357.568 287.685 z "
       id="path585"
       sodipodi:nodetypes="ccsc"
       transform="translate(-26.78044,-1.525879e-5)" />
    <path
       style="font-size:12;fill:#0c5c1d;fill-rule:evenodd;stroke-width:0.25;"
       d="M 355.622 285.252 C 356.703 281.198 356.162 279.576 353.513 276.657 C 353.243 280.927 353.784 282.603 355.622 285.252 z "
       id="path586"
       sodipodi:nodetypes="ccc"
       transform="translate(-26.78044,-1.525879e-5)" />
    <path
       style="font-size:12;fill:#0c5c1d;fill-rule:evenodd;stroke-width:0.25;"
       d="M 351.73 280.549 C 354.648 278.658 352.865 268.983 350.27 266.279 C 349.73 273.253 349.027 279.414 351.73 280.549 z "
       id="path587"
       sodipodi:nodetypes="ccc"
       transform="matrix(1.000001,0.000000,0.000000,1.011364,-26.78044,-3.026001)" />
    <path
       style="font-size:12;fill:#0c5c1d;fill-rule:evenodd;stroke-width:0.25;"
       d="M 346.541 273.414 C 351.568 271.684 347.675 262.333 346.054 258.658 C 344.108 262.441 347.514 264.441 346.541 273.414 z "
       id="path588"
       sodipodi:nodetypes="ccc"
       transform="translate(-26.78044,-1.525879e-5)" />
    <path
       style="font-size:12;fill:#0c5c1d;fill-rule:evenodd;stroke-width:0.25;"
       d="M 347.212 274.081 C 350.065 269.054 348.539 261.78 345.935 258.186 C 345.527 263.42 346.355 271.091 347.212 274.081 z "
       id="path589"
       sodipodi:nodetypes="ccc"
       transform="matrix(0.245580,-0.969377,0.969378,0.245580,-32.11484,543.3030)" />
    <path
       style="font-size:12;fill:#0c5c1d;fill-rule:evenodd;stroke-width:0.25;"
       d="M 347.212 274.081 C 350.979 272.001 348.7 263.077 346.174 259.129 C 344.741 263.619 345.726 271.25 347.212 274.081 z "
       id="path590"
       sodipodi:nodetypes="ccc"
       transform="matrix(0.245580,-0.969377,0.969378,0.245580,-36.49320,534.3840)" />
    <path
       style="font-size:12;fill:#0c5c1d;fill-rule:evenodd;stroke-width:0.25;"
       d="M 347.728 275.836 C 347.5 272.542 351.393 270.796 345.811 258.363 C 344.697 268.064 347.05 274.057 347.728 275.836 z "
       id="path591"
       sodipodi:nodetypes="ccc"
       transform="matrix(-0.680770,0.909169,0.835657,0.625724,323.5790,-217.0960)" />
    <path
       style="font-size:12;fill:#0c5c1d;fill-rule:evenodd;stroke-width:0.25;"
       d="M 343.086 271.805 C 346.967 265.737 344.557 262.521 342.188 255.008 C 341.042 261.388 341.966 268.12 343.086 271.805 z "
       id="path593"
       sodipodi:nodetypes="ccc"
       transform="translate(-26.78044,-1.525879e-5)" />
    <path
       style="font-size:12;fill:#0c5c1d;fill-rule:evenodd;stroke-width:0.25;"
       d="M 343.212 270.951 C 346.538 266.417 345.129 260.675 342.119 256.256 C 341.007 259.195 342.884 262.85 343.212 270.951 z "
       id="path594"
       sodipodi:nodetypes="ccc"
       transform="matrix(0.666937,-0.745115,0.745116,0.666936,-120.3868,332.9951)" />
    <path
       style="font-size:12;fill:#0c5c1d;fill-rule:evenodd;stroke-width:0.25;"
       d="M 343.631 269.733 C 347.962 265.364 344.831 260.492 341.439 255.962 C 341.843 259.503 340.8 265.179 343.631 269.733 z "
       id="path595"
       sodipodi:nodetypes="ccc"
       transform="matrix(0.765428,0.643522,-0.643523,0.765427,221.8573,-166.8170)" />
    <path
       style="font-size:12;fill:#0c5c1d;fill-rule:evenodd;stroke-width:0.25;"
       d="M 343.557 270.899 C 346.685 269.133 345.854 260.212 340.953 256.026 C 342.557 263.36 343.744 265.494 343.557 270.899 z "
       id="path597"
       sodipodi:nodetypes="ccc"
       transform="matrix(0.817282,0.576240,-0.576241,0.817281,186.5739,-165.8271)" />
    <path
       style="font-size:12;fill:#0c5c1d;fill-rule:evenodd;stroke-width:0.25;"
       d="M 343.931 270.683 C 346.881 268.326 345.086 260.275 339.252 255.648 C 341.634 262.051 343.953 263.96 343.931 270.683 z "
       id="path598"
       sodipodi:nodetypes="ccc"
       transform="matrix(0.817282,0.576240,-0.576241,0.817281,184.6208,-172.4674)" />
    <path
       style="font-size:12;fill:#0c5c1d;fill-rule:evenodd;stroke-width:0.25;"
       d="M 342.841 273.746 C 342.313 271.422 343.315 269.85 342.317 267.034 C 340.548 261.986 342.356 259.718 339.691 256.677 C 338.743 266.572 339.942 271.241 342.841 273.746 z "
       id="path599"
       sodipodi:nodetypes="cscc"
       transform="matrix(-0.817282,0.576240,0.576241,0.817281,431.5237,-170.9440)" />
    <path
       style="font-size:12;fill:#0c5c1d;fill-rule:evenodd;stroke-width:0.25;"
       d="M 348.308 277.665 C 341.236 264.814 342.45 271.548 339.691 256.677 C 336.859 268.982 346.546 278.211 348.308 277.665 z "
       id="path600"
       sodipodi:nodetypes="ccc"
       transform="matrix(-0.817282,0.576240,0.576241,0.817281,434.0649,-182.9317)" />
    <path
       style="font-size:12;fill:#0c5c1d;fill-rule:evenodd;stroke-width:0.25;"
       d="M 343 271.086 C 346.068 267.569 344.716 262.77 340.705 256.475 C 340.271 261.015 344.224 266.525 343 271.086 z "
       id="path601"
       sodipodi:nodetypes="ccc"
       transform="matrix(-0.796085,-0.605186,-0.605187,0.796084,746.9366,230.3114)" />
    <path
       style="font-size:12;fill:#0c5c1d;fill-rule:evenodd;stroke-width:0.25;"
       d="M 345.651 276.294 C 342.899 268.035 343.287 266.024 339.757 257.442 C 337.95 263.819 340.992 272.731 345.651 276.294 z "
       id="path602"
       sodipodi:nodetypes="ccc"
       transform="matrix(-0.817282,0.576240,0.576241,0.817281,434.7831,-197.1291)" />
    <path
       style="font-size:12;fill:#0c5c1d;fill-rule:evenodd;stroke-width:0.25;"
       d="M 345.273 271.565 C 343.257 264.877 345.019 260.363 340.869 255.073 C 339.568 257.011 341.127 270.416 345.273 271.565 z "
       id="path603"
       sodipodi:nodetypes="ccc"
       transform="matrix(-0.796085,-0.605186,-0.605187,0.796084,753.0097,220.3125)" />
    <path
       style="font-size:12;fill:#0c5c1d;fill-rule:evenodd;stroke-width:0.25;"
       d="M 343.674 271.113 C 343.519 265.354 344.152 261.23 341.861 255.411 C 339.226 260.29 339.172 270.249 343.674 271.113 z "
       id="path604"
       sodipodi:nodetypes="ccc"
       transform="matrix(-0.796085,-0.605186,-0.605187,0.796084,751.0798,215.8378)" />
    <path
       style="font-size:12;fill:#0c5c1d;fill-rule:evenodd;stroke-width:0.25;"
       d="M 343.674 271.113 C 347.382 265.932 342.134 258.863 341.069 254.809 C 338.434 259.688 340.04 267.647 343.674 271.113 z "
       id="path605"
       sodipodi:nodetypes="ccc"
       transform="matrix(-0.796085,-0.605186,-0.605187,0.796084,759.3110,201.7509)" />
    <path
       style="font-size:12;fill:#0c5c1d;fill-rule:evenodd;stroke-width:0.25;"
       d="M 343.465 269.858 C 346.937 265.055 343.324 259.842 341.829 256.32 C 340.493 261.68 339.512 267.341 343.465 269.858 z "
       id="path606"
       sodipodi:nodetypes="ccc"
       transform="matrix(-0.906894,-0.421361,-0.421361,0.906893,746.1479,105.2011)" />
    <path
       style="font-size:12;fill:#0c5c1d;fill-rule:evenodd;stroke-width:0.25;"
       d="M 343.461 270.523 C 345.403 266.724 343.498 258.499 341.791 255.104 C 340.145 257.163 340.279 270.108 343.461 270.523 z "
       id="path607"
       sodipodi:nodetypes="ccc"
       transform="matrix(-0.997049,7.678157e-2,7.678165e-2,0.997048,635.1461,-81.50752)" />
    <path
       style="font-size:12;fill:#0c5c1d;fill-rule:evenodd;stroke-width:0.25;"
       d="M 343.71 268.925 C 345.688 264.195 343.716 259.63 341.829 256.32 C 340.824 261.688 340.244 266.807 343.71 268.925 z "
       id="path608"
       sodipodi:nodetypes="ccc"
       transform="matrix(-0.999684,-2.516794e-2,-2.516796e-2,0.999683,667.7320,-50.74591)" />
    <path
       style="font-size:12;fill:#6f8593;fill-rule:evenodd;stroke-width:0.25;"
       d="M 374.103 288.35 C 391.045 271.778 405.776 257.415 429.347 242.609 C 391.192 272.33 392.371 274.65 376.313 289.566 C 375.65 289.013 374.766 288.903 374.103 288.35 z "
       id="path1073"
       sodipodi:nodetypes="cccc"
       transform="matrix(1.000001,0.000000,0.000000,1.000000,-26.78044,-1.525879e-5)" />
    <path
       style="font-size:12;fill:#6a0d06;fill-rule:evenodd;stroke-width:0.25;"
       d="M 343.949 292.257 L 350.261 299.193 L 369.391 270.15 L 377.442 261.596 L 375.493 258.76 L 363.13 270.846 L 361.708 273.679 L 343.949 292.257 z "
       id="path1066"
       sodipodi:nodetypes="cccccccc"
       transform="matrix(1.000001,0.000000,0.000000,1.000000,-26.78044,-1.525879e-5)" />
    <path
       style="font-size:12;fill:#6a0d06;fill-rule:evenodd;stroke-width:0.25;"
       d="M 343.286 292.257 L 351.366 299.414 L 369.391 270.15 L 379.873 258.723 L 377.04 256.771 L 363.13 270.846 L 361.708 273.679 L 343.286 292.257 z "
       id="path1069"
       sodipodi:nodetypes="cccccccc"
       transform="matrix(-1.000001,0.000000,0.000000,1.000000,764.8805,0.441956)" />
    <path
       style="font-size:12;fill:#bbcdcd;fill-rule:evenodd;stroke-width:0.25;"
       d="M 369.463 274.595 C 369.297 273.545 367.918 271.502 371.011 268.739 C 370.937 267.266 369.428 265.738 368.248 264.983 C 367.254 264.983 364.382 266.989 363.111 269.236 C 362.392 270.802 362.024 273.232 362.945 275.092 C 363.627 276.123 364.418 277.32 365.265 277.799 C 365.67 278.093 366.573 278.001 367.309 277.688 C 368.469 277.099 369.353 275.405 369.463 274.595 z "
       id="path1071"
       sodipodi:nodetypes="cccccccc"
       transform="matrix(-1.000001,0.000000,0.000000,1.000000,764.9295,0.390686)" />
    <path
       style="font-size:12;fill-rule:evenodd;stroke-width:0.25;"
       d="M 409.484 224.968 L 423.59 210.731 L 424.435 210.765 L 424.728 211.705 L 425.181 213.012 L 426.852 214.583 L 448.885 193.92 L 428.165 216.521 L 427.187 216.532 L 424.164 213.386 L 422.891 213.682 L 412.502 225.849 L 409.484 224.968 z "
       id="path1068"
       sodipodi:nodetypes="ccccccccccccc"
       transform="matrix(-1.000001,0.000000,0.000000,1.000000,766.2926,-1.674667)" />
    <path
       style="font-size:12;fill-rule:evenodd;stroke-width:0.25;"
       d="M 402.001 310.363 C 427.815 268.44 450.302 239.548 409.109 202.498 C 407.568 200.947 402.247 196.035 398.914 194.977 C 398.45 191.976 400.724 187.237 394.913 186.845 C 392.442 186.976 391.222 187.859 391.272 190.09 C 391.277 191.824 392.193 192.583 391.721 194.134 C 391.547 194.909 389.622 196.677 389.74 198.932 C 390.488 203.736 392.343 204.912 392.906 205.596 C 393.914 206.598 394.517 207.304 397.477 208.526 C 397.805 208.92 398.679 209.655 399.128 210.149 C 404.567 211.313 409.525 210.719 413.039 212.471 C 414.571 212.943 417.028 215.543 417.827 216.845 C 427.752 227.727 432.047 245.19 416.871 263.627 C 419.911 263.876 427.187 251.42 428.849 240.842 C 426.524 256.619 421.378 262.129 418.828 266.844 C 423.926 263.448 428.029 251.489 428.984 249.032 C 424.942 270.8 404.011 297.678 390.842 303.321 C 402.762 300.557 410.759 288.678 415 284.422 C 410.87 292.94 402.375 304.994 402.001 310.363 z "
       id="path1110"
       sodipodi:nodetypes="ccsccssccccsccccccc"
       transform="matrix(1.000001,0.000000,0.000000,1.000000,-26.78044,-2.212082)" />
    <path
       style="font-size:12;fill:#6f8593;fill-rule:evenodd;stroke-width:0.25;"
       d="M 374.103 288.35 C 390.603 271.668 416.935 246.477 430.01 243.714 C 409.643 256.862 391.708 274.54 376.313 289.566 C 375.65 289.013 374.766 288.903 374.103 288.35 z "
       id="path1075"
       sodipodi:nodetypes="cccc"
       transform="matrix(-1.000001,0.000000,0.000000,1.000000,767.0586,1.104874)" />
    <path
       style="font-size:12;fill-rule:evenodd;stroke-width:0.25;"
       d="M 408.073 226.076 L 423.59 210.731 L 424.435 210.765 L 424.728 211.705 L 425.181 213.012 L 426.852 214.583 L 448.885 193.92 L 428.165 216.521 L 427.187 216.532 L 424.164 213.386 L 422.891 213.682 L 409.681 228.318 L 408.073 226.076 z "
       id="path1265"
       sodipodi:nodetypes="ccccccccccccc"
       transform="matrix(1.000001,0.000000,0.000000,1.000000,-25.44213,-1.674667)" />
    <path
       style="font-size:12;fill:#e3cf6e;fill-rule:evenodd;stroke-width:0.25;"
       d="M 368.358 218.745 C 369.169 214.325 370.531 211.121 375.098 210.348 C 387.067 209.832 398.153 209.758 410.674 210.016 C 414.246 212.852 410.527 218.671 406.807 218.966 C 412.516 228.835 420.324 236.385 421.392 248.023 C 421.76 254.137 419.607 258.1 417.444 260.301 C 400.99 260.702 393.018 262.75 379.264 263.816 C 375.422 264.278 372.533 259.809 372.57 256.089 C 372.592 252.244 374.173 249.237 378.445 248.705 C 379.771 248.561 381.617 248.649 383.274 248.686 C 380.07 239.111 367.696 227.768 368.358 218.745 z "
       id="path1076"
       sodipodi:nodetypes="ccccccccccc"
       transform="matrix(1.000001,0.000000,0.000000,1.000000,-26.78044,-1.525879e-5)" />
    <path
       style="font-size:12;fill:#336446;fill-rule:evenodd;stroke-width:0.25;"
       d="M 390.195 196.436 C 388.775 200.996 392.343 204.912 392.906 205.596 C 393.914 206.598 394.572 207.415 397.532 208.637 C 397.86 209.031 402.096 211.446 402.702 212.018 C 407.207 213.199 409.6 211.175 414.73 212.434 C 413.41 209.174 399.705 195.804 390.195 196.436 z "
       id="path1114"
       transform="matrix(1.000001,0.000000,0.000000,1.000000,-27.01523,-1.251312)"
       sodipodi:nodetypes="cccccc" />
    <path
       style="font-size:12;fill:#402e08;fill-rule:evenodd;stroke-width:0.25;"
       d="M 390.078 197.257 C 388.698 199.512 392.343 204.912 392.906 205.596 C 393.914 206.598 394.572 207.415 397.532 208.637 C 397.86 209.031 399.327 209.773 399.542 210.032 L 403.422 210.742 C 402.102 207.482 394.605 196.204 390.078 197.257 z "
       id="path1113"
       transform="matrix(1.000001,0.000000,0.000000,1.000000,-26.78044,-1.525879e-5)"
       sodipodi:nodetypes="cccccc" />
    <path
       style="fill:#000000;fill-rule:evenodd;stroke:none;stroke-opacity:1;stroke-width:1pt;stroke-linejoin:miter;stroke-linecap:butt;fill-opacity:1;"
       d="M 391.704 190.528 L 390.782 191.199 L 392.124 191.87 L 391.704 190.528 z "
       id="path1141"
       transform="matrix(1.000001,0.000000,0.000000,1.000000,-26.93680,-0.978256)" />
    <path
       style="font-size:12;fill:#8c361d;fill-rule:evenodd;stroke-width:0.25;"
       d="M 389.727 198.838 C 390.475 203.642 392.264 204.949 392.867 205.596 C 393.835 206.635 394.572 207.298 397.532 208.637 C 398.72 209.617 399.171 209.891 400.09 210.384 L 403.224 210.85 C 401.904 207.59 394.088 200.163 389.727 198.838 z "
       id="path1112"
       transform="matrix(1.000001,0.000000,0.000000,1.000000,-26.78044,-1.525879e-5)"
       sodipodi:nodetypes="cscccc" />
    <path
       style="font-size:12;fill:#bbcdcd;fill-rule:evenodd;stroke-width:0.25;"
       d="M 369.463 274.595 C 369.297 273.545 367.918 271.502 371.011 268.739 C 370.937 267.266 369.428 265.738 368.248 264.983 C 367.254 264.983 364.382 266.989 363.111 269.236 C 362.392 270.802 362.024 273.232 362.945 275.092 C 363.627 276.123 364.418 277.32 365.265 277.799 C 365.67 278.093 366.573 278.001 367.309 277.688 C 368.469 277.099 369.353 275.405 369.463 274.595 z "
       id="path1070"
       sodipodi:nodetypes="cccccccc"
       transform="matrix(1.000001,0.000000,0.000000,1.000000,-26.78044,-1.525879e-5)" />
    <path
       style="font-size:12;fill:#d4be72;fill-rule:evenodd;stroke-width:0.25;"
       d="M 371.673 289.896 C 370.273 291.517 364.787 294.684 363.718 295.753 C 362.834 296.931 364.933 298.552 366.259 298.736 C 368.616 296.968 370.973 294.537 373.108 293.102 C 376.087 290.35 375.89 290.124 380.733 291.554 C 380.033 288.976 375.135 286.951 372.336 286.362 C 367.621 286.877 365.448 288.829 364.491 291.554 C 367.621 289.197 369.758 288.055 371.673 289.896 z "
       id="path1072"
       sodipodi:nodetypes="cccccccc"
       transform="matrix(1.000001,0.000000,0.000000,1.000000,-26.78044,-1.525879e-5)" />
    <path
       style="font-size:12;fill:#ffffff;fill-rule:evenodd;stroke-width:0.25;"
       d="M 368.789 274.589 C 368.701 274.085 368.418 273.813 368.41 272.823 C 367.377 274.309 366.884 275.065 365.541 276.952 C 366.025 277.598 366.723 277.293 367.381 276.98 C 367.994 276.587 368.874 275.321 368.789 274.589 z "
       id="path1132"
       sodipodi:nodetypes="ccccc"
       transform="matrix(-1.000001,0.000000,0.000000,1.000000,765.0705,0.331787)" />
    <path
       style="font-size:12;fill:#ffffff;fill-rule:evenodd;stroke-width:0.25;"
       d="M 368.789 274.589 C 368.701 274.085 368.418 273.813 368.41 272.823 C 367.377 274.309 366.884 275.065 365.541 276.952 C 366.025 277.598 366.723 277.293 367.381 276.98 C 367.994 276.587 368.874 275.321 368.789 274.589 z "
       id="path1130"
       sodipodi:nodetypes="ccccc"
       transform="matrix(1.000001,0.000000,0.000000,1.000000,-26.78044,-1.525879e-5)" />
    <path
       style="font-size:12;fill:#d4be72;fill-rule:evenodd;stroke-width:0.25;"
       d="M 371.673 289.896 C 370.273 291.517 364.787 294.684 363.718 295.753 C 362.834 296.931 364.933 298.552 366.259 298.736 C 368.616 296.968 370.973 294.537 373.108 293.102 C 375.549 290.17 376.608 290.303 380.733 291.554 C 380.033 288.976 375.135 286.951 372.336 286.362 C 367.621 286.877 365.448 288.829 364.491 291.554 C 367.621 289.197 369.758 288.055 371.673 289.896 z "
       id="path1074"
       sodipodi:nodetypes="cccccccc"
       transform="matrix(-1.000001,0.000000,0.000000,1.000000,766.0745,1.104874)" />
    <path
       style="font-size:12;fill-rule:evenodd;stroke-width:0.25;"
       d="M 383.205 248.719 C 384.377 250.399 385.353 254.109 385.51 256.492 C 385.718 261.101 381.043 263.445 379.454 263.25 C 376.434 262.885 373.959 260.607 373.712 257.078 C 374.193 252.964 375.925 250.684 378.79 250.515 C 380.666 250.841 382.775 253.081 382.775 255.789 C 382.723 258.029 382.085 260.268 380.704 260.32 C 377.345 260.06 377.54 258.12 376.993 257.078 C 376.85 256.31 376.73 254.231 377.111 253.719 C 377.612 253.097 379.923 252.274 381.055 253.875 C 382.279 255.124 379.246 253.211 378.048 254.069 C 377.436 254.942 377.84 256.361 378.009 256.921 C 378.218 257.481 378.192 259.33 380.509 259.226 C 381.356 259.097 381.655 257.363 381.72 255.671 C 381.851 254.513 380.223 252.182 378.595 251.687 C 377.462 251.505 374.689 253.822 374.806 257.078 C 375.028 260.776 378.061 262.052 379.689 261.804 C 381.342 261.362 384.793 260.06 384.65 256.375 C 384.285 252.312 383.529 250.632 382.227 248.679 C 382.735 248.679 382.697 248.679 383.205 248.719 z "
       id="path1140"
       sodipodi:nodetypes="ccccccccsccccccccccc"
       transform="matrix(1.000001,0.000000,0.000000,1.000000,-26.78044,-1.525879e-5)" />
    <path
       style="font-size:12;fill-rule:evenodd;stroke-width:0.25;"
       d="M 407.423 220.008 L 406.719 218.875 L 391.563 218.875 C 387.266 219.266 380.722 219.917 378.47 220.893 C 372.702 223.732 371.131 218.719 370.818 217.469 C 370.483 216.323 371.199 214.253 372.319 213.524 C 372.762 212.677 375.238 211.75 376.735 212.31 C 378.428 213.026 379.164 215.163 378.894 216.609 C 378.386 218.758 374.32 220.085 375.766 217.898 C 375.948 216.937 376.68 214.265 375.391 212.351 L 374.211 212.585 C 375.851 216 374.346 217.694 374.268 218.67 C 374.191 220.311 375.593 220.168 376.679 220.126 C 377.421 220.087 378.673 219.148 379.181 218.64 C 379.792 218.107 379.886 217.073 379.961 215.868 C 380.153 212.688 377.24 210.425 375.274 210.711 C 369.298 212.196 369.154 217.182 370.508 219.773 C 371.263 221.075 372.136 221.87 373.594 222.625 C 374.818 222.99 376.669 222.781 378.125 222.234 C 381.008 221.199 385.68 220.281 391.501 220.138 L 407.423 220.008 z "
       id="path1139"
       sodipodi:nodetypes="ccccccccccccccscccscc"
       transform="matrix(1.000001,0.000000,0.000000,1.000000,-26.78044,-1.525879e-5)" />
  </g>
</svg>
