<?xml version="1.0" encoding="UTF-8" standalone="no"?>
<!DOCTYPE svg PUBLIC "-//W3C//DTD SVG 20010904//EN"
"http://www.w3.org/TR/2001/REC-SVG-20010904/DTD/svg10.dtd"
[
 <!ATTLIST svg
  xmlns:xlink CDATA #FIXED "http://www.w3.org/1999/xlink">
]>
<!-- Created with Sodipodi ("http://www.sodipodi.com/") -->
<svg
   xmlns="http://www.w3.org/2000/svg"
   xmlns:xlink="http://www.w3.org/1999/xlink"
   version="1"
   x="0.00000000"
   y="0.00000000"
   width="1062.98853"
   height="744.094482"
   id="svg378">
  <defs
     id="defs380" />
  <rect
     width="1062.98999"
     height="744.094421"
     x="0.00000000"
     y="0.00000000"
     style="font-size:12;fill:#ffffff;fill-rule:evenodd;stroke-width:1.0247pt;"
     id="rect149" />
  <rect
     width="1062.98999"
     height="97.7021790"
     x="0.00000000"
     y="576.539978"
     style="font-size:12;fill:#0000cc;fill-rule:evenodd;stroke-width:1pt;"
     id="rect585" />
  <rect
     width="1062.98975"
     height="97.7021637"
     x="0.00000000"
     y="60.7624435"
     style="font-size:12;fill:#0000cc;fill-rule:evenodd;stroke-width:1pt;"
     id="rect688" />
  <path
     d="M -260.497 692.489 L -108.21 957.365 L 47.3428 693.577 L -260.497 692.489 z "
     transform="matrix(1.050927,0.000000,0.000000,1.050927,634.8065,-450.4951)"
     style="font-size:12;fill:#0000cc;fill-rule:evenodd;stroke-width:0.969612pt;"
     id="path706" />
  <path
     d="M -136.982 868.156 L -108.01 917.256 L -78.4157 868.357 L -136.982 868.156 z "
     transform="matrix(1.050927,0.000000,0.000000,1.050927,634.8065,-450.4951)"
     style="font-size:12;fill:#ffffff;fill-rule:evenodd;stroke-width:0.969612pt;"
     id="path704" />
  <path
     d="M -261.058 871.987 L -108.771 607.116 L 46.7819 870.899 L -261.058 871.987 z "
     transform="matrix(1.050927,0.000000,0.000000,1.050927,634.8065,-450.4951)"
     style="font-size:12;fill:#0000cc;fill-rule:evenodd;stroke-width:0.969612pt;"
     id="path707" />
  <path
     d="M -136.982 693.635 L -108.01 644.535 L -78.4157 693.434 L -136.982 693.635 z "
     transform="matrix(1.050927,0.000000,0.000000,1.050927,634.8065,-450.4951)"
     style="font-size:12;fill:#ffffff;fill-rule:evenodd;stroke-width:0.969612pt;"
     id="path708" />
  <path
     d="M -197.523 803.581 L -227.449 853.34 L -170.891 853.164 L -197.523 803.581 z "
     transform="matrix(1.050927,0.000000,0.000000,1.050927,634.8065,-450.4951)"
     style="font-size:12;fill:#ffffff;fill-rule:evenodd;stroke-width:0.969612pt;"
     id="path709" />
  <path
     d="M -226.927 711.618 L -169.918 712.018 L -197.346 762.164 L -226.927 711.618 z "
     transform="matrix(1.050927,0.000000,0.000000,1.050927,634.8065,-450.4951)"
     style="font-size:12;fill:#ffffff;fill-rule:evenodd;stroke-width:0.969612pt;"
     id="path710" />
  <path
     d="M -17.7863 804.142 L 11.0178 853.34 L -46.6621 852.603 L -17.7863 804.142 z "
     transform="matrix(1.050927,0.000000,0.000000,1.050927,634.8065,-450.4951)"
     style="font-size:12;fill:#ffffff;fill-rule:evenodd;stroke-width:0.969612pt;"
     id="path711" />
  <path
     d="M 10.4958 711.618 L -46.5132 712.018 L -19.0852 762.164 L 10.4958 711.618 z "
     transform="matrix(1.050927,0.000000,0.000000,1.050927,634.8065,-450.4951)"
     style="font-size:12;fill:#ffffff;fill-rule:evenodd;stroke-width:0.969612pt;"
     id="path712" />
  <path
     d="M -147.525 711.56 L -186.79 782.799 L -146.964 852.354 L -74.0429 854.037 L -29.7293 782.799 L -70.6773 711 L -147.525 711.56 z "
     transform="matrix(1.050927,0.000000,0.000000,1.050927,634.8065,-450.4951)"
     style="font-size:12;fill:#ffffff;fill-rule:evenodd;stroke-width:1pt;"
     id="path716" />
</svg>
