<?xml version="1.0" encoding="UTF-8" standalone="no"?>
<!DOCTYPE svg PUBLIC "-//W3C//DTD SVG 1.0//EN"
"http://www.w3.org/TR/2001/REC-SVG-20010904/DTD/svg10.dtd">
<!-- Created with Sodipodi ("http://www.sodipodi.com/") -->
<svg
   id="svg559"
   sodipodi:version="0.33"
   xmlns="http://www.w3.org/2000/svg"
   xmlns:sodipodi="http://sodipodi.sourceforge.net/DTD/sodipodi-0.dtd"
   xmlns:xlink="http://www.w3.org/1999/xlink"
   width="260mm"
   height="140mm"
   sodipodi:docbase="/home/tobias/Desktop/Flags"
   sodipodi:docname="/home/tobias/Desktop/Flags/Trust_Territory_of_the_Pacific_Islands.svg">
  <defs
     id="defs561" />
  <sodipodi:namedview
     id="base" />
  <rect
     style="font-size:12.000;fill:#6b86bd;fill-rule:evenodd;stroke-width:1;fill-opacity:1.0000;"
     id="rect576"
     width="921.2600"
     height="496.0630"
     x="0"
     y="2.901065e-4" />
  <polygon
     sodipodi:type="star"
     style="font-size:12.000;fill:#ffffff;fill-rule:evenodd;fill-opacity:1.0000;"
     id="polygon563"
     sodipodi:sides="5"
     sodipodi:cx="200.205978"
     sodipodi:cy="170.384796"
     sodipodi:r1="21.0092926"
     sodipodi:r2="8.62815380"
     sodipodi:arg1="1.57079637"
     sodipodi:arg2="2.19911480"
     points="200.2060,191.3941 195.1345,177.3651 180.2250,176.8770 192.0001,167.7186 187.8570,153.3879 200.2060,161.7566 212.5549,153.3879 208.4118,167.7186 220.1870,176.8770 205.2775,177.3651 200.2060,191.3941 "
     transform="matrix(2.295503,0,0,2.295503,0.945630,-1.525879e-5)" />
  <polygon
     sodipodi:type="star"
     style="font-size:12.000;fill:#ffffff;fill-rule:evenodd;fill-opacity:1.0000;"
     id="polygon564"
     sodipodi:sides="5"
     sodipodi:cx="200.205978"
     sodipodi:cy="170.384796"
     sodipodi:r1="21.0092926"
     sodipodi:r2="8.62815380"
     sodipodi:arg1="1.57079637"
     sodipodi:arg2="2.19911480"
     points="200.2060,191.3941 195.1345,177.3651 180.2250,176.8770 192.0001,167.7186 187.8570,153.3879 200.2060,161.7566 212.5549,153.3879 208.4118,167.7186 220.1870,176.8770 205.2775,177.3651 200.2060,191.3941 "
     transform="matrix(2.295503,0,0,-2.295503,0.945589,498.3051)" />
  <polygon
     sodipodi:type="star"
     style="font-size:12.000;fill:#ffffff;fill-rule:evenodd;fill-opacity:1.0000;"
     id="polygon565"
     sodipodi:sides="5"
     sodipodi:cx="200.205978"
     sodipodi:cy="170.384796"
     sodipodi:r1="21.0092926"
     sodipodi:r2="8.62815380"
     sodipodi:arg1="1.57079637"
     sodipodi:arg2="2.19911480"
     points="200.2060,191.3941 195.1345,177.3651 180.2250,176.8770 192.0001,167.7186 187.8570,153.3879 200.2060,161.7566 212.5549,153.3879 208.4118,167.7186 220.1870,176.8770 205.2775,177.3651 200.2060,191.3941 "
     transform="matrix(1.545700,1.697098,-1.697098,1.545700,317.0450,-421.1690)" />
  <polygon
     sodipodi:type="star"
     style="font-size:12.000;fill:#ffffff;fill-rule:evenodd;fill-opacity:1.0000;"
     id="polygon566"
     sodipodi:sides="5"
     sodipodi:cx="200.205978"
     sodipodi:cy="170.384796"
     sodipodi:r1="21.0092926"
     sodipodi:r2="8.62815380"
     sodipodi:arg1="1.57079637"
     sodipodi:arg2="2.19911480"
     points="200.2060,191.3941 195.1345,177.3651 180.2250,176.8770 192.0001,167.7186 187.8570,153.3879 200.2060,161.7566 212.5549,153.3879 208.4118,167.7186 220.1870,176.8770 205.2775,177.3651 200.2060,191.3941 "
     transform="matrix(2.246806,0.470310,-0.470310,2.246806,214.5867,-162.2793)" />
  <polygon
     sodipodi:type="star"
     style="font-size:12.000;fill:#ffffff;fill-rule:evenodd;fill-opacity:1.0000;"
     id="polygon567"
     sodipodi:sides="5"
     sodipodi:cx="200.205978"
     sodipodi:cy="170.384796"
     sodipodi:r1="21.0092926"
     sodipodi:r2="8.62815380"
     sodipodi:arg1="1.57079637"
     sodipodi:arg2="2.19911480"
     points="200.2060,191.3941 195.1345,177.3651 180.2250,176.8770 192.0001,167.7186 187.8570,153.3879 200.2060,161.7566 212.5549,153.3879 208.4118,167.7186 220.1870,176.8770 205.2775,177.3651 200.2060,191.3941 "
     transform="matrix(2.091718,0.945545,-0.945545,2.091718,329.3983,-364.0499)" />
  <polygon
     sodipodi:type="star"
     style="font-size:12.000;fill:#ffffff;fill-rule:evenodd;fill-opacity:1.0000;"
     id="polygon568"
     sodipodi:sides="5"
     sodipodi:cx="200.205978"
     sodipodi:cy="170.384796"
     sodipodi:r1="21.0092926"
     sodipodi:r2="8.62815380"
     sodipodi:arg1="1.57079637"
     sodipodi:arg2="2.19911480"
     points="200.2060,191.3941 195.1345,177.3651 180.2250,176.8770 192.0001,167.7186 187.8570,153.3879 200.2060,161.7566 212.5549,153.3879 208.4118,167.7186 220.1870,176.8770 205.2775,177.3651 200.2060,191.3941 "
     transform="matrix(2.250201,-0.453805,0.453805,2.250201,-193.9566,22.08899)" />
</svg>
