<?xml version="1.0" encoding="UTF-8" standalone="no"?>
<!DOCTYPE svg PUBLIC "-//W3C//DTD SVG 20010904//EN"
"http://www.w3.org/TR/2001/REC-SVG-20010904/DTD/svg10.dtd"
[
 <!ATTLIST svg
  xmlns:xlink CDATA #FIXED "http://www.w3.org/1999/xlink">
]>
<!-- Created with Sodipodi ("http://www.sodipodi.com/") -->
<svg
   xmlns="http://www.w3.org/2000/svg"
   xmlns:xlink="http://www.w3.org/1999/xlink"
   version="1"
   x="0.00000000"
   y="0.00000000"
   width="744.094482"
   height="496.062988"
   id="svg832">
  <defs
     id="defs834">
    <linearGradient
       x1="0.00000000"
       y1="0.00000000"
       x2="1.00000000"
       y2="0.00000000"
       id="linearGradient583"
       gradientUnits="objectBoundingBox"
       spreadMethod="pad">
      <stop
         style="stop-color:#faff00;stop-opacity:1;"
         offset="0.00000000"
         id="stop584" />
      <stop
         style="stop-color:#f5c402;stop-opacity:1;"
         offset="1.00000000"
         id="stop585" />
    </linearGradient>
    <linearGradient
       x1="0.35820901"
       y1="0.07031300"
       x2="0.35820901"
       y2="0.89844501"
       id="linearGradient586"
       xlink:href="#linearGradient583"
       gradientUnits="objectBoundingBox"
       spreadMethod="pad" />
  </defs>
  <rect
     width="744.374878"
     height="496.741302"
     x="0.00000000"
     y="0"
     style="font-size:12;fill:#ffffff;fill-rule:evenodd;stroke-width:1pt;"
     id="rect741" />
  <path
     d="M 101.665 488.822 C 111.306 506.935 123.52 521.849 132.083 547.508 C 133.929 581.821 130.013 588.357 136.718 604.567 C 139.414 610.496 143.262 612.945 144.003 626.69 C 142.857 646.365 134.358 647.589 126.003 647.049 C 124.503 641.006 126.001 637.103 115.355 626.692 C 109.59 620.531 102.742 610.344 99.121 597.199 C 97.9945 585.125 97.3633 569.432 91.3346 556.307 C 82.6605 542.137 81.3648 535.238 73.1235 527.816 C 64.6375 517.943 65.1219 514.48 60.4732 503.722 C 71.8637 485.273 82.6605 483.392 101.665 488.822 z "
     transform="matrix(-0.332889,0.330439,-0.330439,-0.332889,296.1105,263.2543)"
     style="font-size:12;fill:url(#linearGradient586);fill-opacity:0.560784;fill-rule:evenodd;stroke:#cbaa19;stroke-width:3.125;"
     id="path593" />
  <path
     d="M 101.665 488.822 C 111.306 506.935 123.52 521.849 132.083 547.508 C 133.929 581.821 130.013 588.357 136.718 604.567 C 139.414 610.496 143.262 612.945 144.003 626.69 C 142.857 646.365 134.358 647.589 126.003 647.049 C 124.503 641.006 126.001 637.103 115.355 626.692 C 109.59 620.531 102.742 610.344 99.121 597.199 C 97.9945 585.125 97.3633 569.432 91.3346 556.307 C 82.6605 542.137 81.3648 535.238 73.1235 527.816 C 64.6375 517.943 65.1219 514.48 60.4732 503.722 C 71.8637 485.273 82.6605 483.392 101.665 488.822 z "
     transform="matrix(-0.469008,-6.068094e-3,6.068094e-3,-0.469008,160.3792,339.1233)"
     style="font-size:12;fill:url(#linearGradient586);fill-opacity:0.560784;fill-rule:evenodd;stroke:#cbaa19;stroke-width:3.125;"
     id="path591" />
  <path
     d="M 101.665 488.822 C 111.306 506.935 123.52 521.849 132.083 547.508 C 133.929 581.821 130.013 588.357 136.718 604.567 C 139.414 610.496 143.262 612.945 144.003 626.69 C 142.857 646.365 134.358 647.589 126.003 647.049 C 124.503 641.006 126.001 637.103 115.355 626.692 C 109.59 620.531 102.742 610.344 99.121 597.199 C 97.9945 585.125 97.3633 569.432 91.3346 556.307 C 82.6605 542.137 81.3648 535.238 73.1235 527.816 C 64.6375 517.943 65.1219 514.48 60.4732 503.722 C 71.8637 485.273 82.6605 483.392 101.665 488.822 z "
     transform="matrix(-0.328076,-0.335218,0.335218,-0.328076,12.94130,296.8490)"
     style="font-size:12;fill:url(#linearGradient586);fill-opacity:0.560784;fill-rule:evenodd;stroke:#cbaa19;stroke-width:3.125;"
     id="path590" />
  <path
     d="M 101.665 488.822 C 111.306 506.935 123.52 521.849 132.083 547.508 C 133.929 581.821 130.013 588.357 136.718 604.567 C 139.414 610.496 143.262 612.945 144.003 626.69 C 142.857 646.365 134.358 647.589 126.003 647.049 C 124.503 641.006 126.001 637.103 115.355 626.692 C 109.59 620.531 102.742 610.344 99.121 597.199 C 97.9945 585.125 97.3633 569.432 91.3346 556.307 C 82.6605 542.137 81.3648 535.238 73.1235 527.816 C 64.6375 517.943 65.1219 514.48 60.4732 503.722 C 71.8637 485.273 82.6605 483.392 101.665 488.822 z "
     transform="matrix(3.363627e-3,-0.469035,0.469035,3.363627e-3,-61.67836,163.1480)"
     style="font-size:12;fill:url(#linearGradient586);fill-opacity:0.560784;fill-rule:evenodd;stroke:#cbaa19;stroke-width:3.125;"
     id="path589" />
  <path
     d="M 101.665 488.822 C 111.306 506.935 123.52 521.849 132.083 547.508 C 133.929 581.821 130.013 588.357 136.718 604.567 C 139.414 610.496 143.262 612.945 144.003 626.69 C 142.857 646.365 134.358 647.589 126.003 647.049 C 124.503 641.006 126.001 637.103 115.355 626.692 C 109.59 620.531 102.742 610.344 99.121 597.199 C 97.9945 585.125 97.3633 569.432 91.3346 556.307 C 82.6605 542.137 81.3648 535.238 73.1235 527.816 C 64.6375 517.943 65.1219 514.48 60.4732 503.722 C 71.8637 485.273 82.6605 483.392 101.665 488.822 z "
     transform="matrix(0.333614,-0.329707,0.329707,0.333614,-20.14433,15.32784)"
     style="font-size:12;fill:url(#linearGradient586);fill-opacity:0.560784;fill-rule:evenodd;stroke:#cbaa19;stroke-width:3.125;"
     id="path587" />
  <path
     d="M 101.665 488.822 C 111.306 506.935 123.52 521.849 132.083 547.508 C 133.929 581.821 130.013 588.357 136.718 604.567 C 139.414 610.496 143.262 612.945 144.003 626.69 C 142.857 646.365 134.358 647.589 126.003 647.049 C 124.503 641.006 126.001 637.103 115.355 626.692 C 109.59 620.531 102.742 610.344 99.121 597.199 C 97.9945 585.125 97.3633 569.432 91.3346 556.307 C 82.6605 542.137 81.3648 535.238 73.1235 527.816 C 64.6375 517.943 65.1219 514.48 60.4732 503.722 C 71.8637 485.273 82.6605 483.392 101.665 488.822 z "
     transform="matrix(0.329952,0.333372,-0.333372,0.329952,261.8677,-18.61752)"
     style="font-size:12;fill:url(#linearGradient586);fill-opacity:0.560784;fill-rule:evenodd;stroke:#cbaa19;stroke-width:3.125;"
     id="path595" />
  <path
     d="M 101.665 488.822 C 111.306 506.935 123.52 521.849 132.083 547.508 C 133.929 581.821 130.013 588.357 136.718 604.567 C 139.414 610.496 143.262 612.945 144.003 626.69 C 142.857 646.365 134.358 647.589 126.003 647.049 C 124.503 641.006 126.001 637.103 115.355 626.692 C 109.59 620.531 102.742 610.344 99.121 597.199 C 97.9945 585.125 97.3633 569.432 91.3346 556.307 C 82.6605 542.137 81.3648 535.238 73.1235 527.816 C 64.6375 517.943 65.1219 514.48 60.4732 503.722 C 71.8637 485.273 82.6605 483.392 101.665 488.822 z "
     transform="matrix(-2.017793e-3,0.469043,-0.469043,-2.017793e-3,337.3033,115.2091)"
     style="font-size:12;fill:url(#linearGradient586);fill-opacity:0.560784;fill-rule:evenodd;stroke:#cbaa19;stroke-width:3.125;"
     id="path594" />
  <rect
     width="1001.22388"
     height="120.522057"
     x="345.131561"
     y="247.984909"
     transform="matrix(0.469047,0.000000,0.000000,0.469047,112.7334,-59.88540)"
     style="font-size:12;fill:#002993;fill-rule:evenodd;stroke-width:1pt;"
     id="rect845" />
  <rect
     width="1001.22400"
     height="120.522057"
     x="345.131409"
     y="482.621033"
     transform="matrix(0.469047,0.000000,0.000000,0.469047,112.7334,-59.88540)"
     style="font-size:12;fill:#002993;fill-rule:evenodd;stroke-width:1pt;"
     id="rect846" />
  <path
     d="M 101.665 488.822 C 111.306 506.935 123.52 521.849 132.083 547.508 C 133.929 581.821 130.013 588.357 136.718 604.567 C 139.414 610.496 143.262 612.945 144.003 626.69 C 142.857 646.365 134.358 647.589 126.003 647.049 C 124.503 641.006 126.001 637.103 115.355 626.692 C 109.59 620.531 102.742 610.344 99.121 597.199 C 97.9945 585.125 97.3633 569.432 91.3346 556.307 C 82.6605 542.137 81.3648 535.238 73.1235 527.816 C 64.6375 517.943 65.1219 514.48 60.4732 503.722 C 71.8637 485.273 82.6605 483.392 101.665 488.822 z "
     transform="matrix(0.469047,0.000000,0.000000,0.469047,112.7334,-59.88540)"
     style="font-size:12;fill:url(#linearGradient586);fill-opacity:0.560784;fill-rule:evenodd;stroke:#cbaa19;stroke-width:3.125;"
     id="path613" />
  <rect
     width="1587.00610"
     height="120.522057"
     x="-240.650589"
     y="714.543213"
     transform="matrix(0.469047,0.000000,0.000000,0.469047,112.7334,-59.88540)"
     style="font-size:12;fill:#002993;fill-rule:evenodd;stroke-width:1pt;"
     id="rect847" />
  <rect
     width="1587.00610"
     height="120.522057"
     x="-240.650604"
     y="947.822144"
     transform="matrix(0.469047,0.000000,0.000000,0.469047,112.7334,-59.88540)"
     style="font-size:12;fill:#002993;fill-rule:evenodd;stroke-width:1pt;"
     id="rect848" />
  <path
     d="M 82.6605 496.87 L 53.5415 656.233 L 53.5415 496.87 C 53.5415 496.87 82.6605 496.87 82.6605 496.87 z "
     transform="matrix(0.469047,0.000000,0.000000,0.469047,112.7334,-59.88540)"
     style="font-size:12;fill:#faff00;fill-rule:evenodd;stroke:#cbaa19;stroke-width:3.125;stroke-linecap:round;stroke-dashoffset:0;"
     id="path585" />
  <path
     d="M 82.6605 496.87 L 53.5415 656.233 L 53.5415 496.87 C 53.5415 496.87 82.6605 496.87 82.6605 496.87 z "
     transform="matrix(-0.469047,0.000000,0.000000,0.469047,162.9604,-59.88563)"
     style="font-size:12;fill:#f5c402;fill-rule:evenodd;stroke:#cbaa19;stroke-width:3.125;"
     id="path588" />
  <path
     d="M 82.6605 496.87 L 53.5415 656.233 L 53.5415 496.87 C 53.5415 496.87 82.6605 496.87 82.6605 496.87 z "
     transform="matrix(0.331059,-0.332272,0.332272,0.331059,-21.09805,16.55139)"
     style="font-size:12;fill:#faff00;fill-rule:evenodd;stroke:#cbaa19;stroke-width:3.125;stroke-linecap:round;stroke-dashoffset:0;"
     id="path596" />
  <path
     d="M 82.6605 496.87 L 53.5415 656.233 L 53.5415 496.87 C 53.5415 496.87 82.6605 496.87 82.6605 496.87 z "
     transform="matrix(-0.331059,0.332272,0.332272,0.331059,14.35257,-19.02953)"
     style="font-size:12;fill:#f5c402;fill-rule:evenodd;stroke:#cbaa19;stroke-width:3.125;"
     id="path597" />
  <path
     d="M 82.6605 496.87 L 53.5415 656.233 L 53.5415 496.87 C 53.5415 496.87 82.6605 496.87 82.6605 496.87 z "
     transform="matrix(-9.043982e-4,-0.469046,0.469046,-9.043982e-4,-61.45457,164.9626)"
     style="font-size:12;fill:#faff00;fill-rule:evenodd;stroke:#cbaa19;stroke-width:3.125;stroke-linecap:round;stroke-dashoffset:0;"
     id="path598" />
  <path
     d="M 82.6605 496.87 L 53.5415 656.233 L 53.5415 496.87 C 53.5415 496.87 82.6605 496.87 82.6605 496.87 z "
     transform="matrix(9.043982e-4,0.469046,0.469046,-9.043982e-4,-61.55167,114.7357)"
     style="font-size:12;fill:#f5c402;fill-rule:evenodd;stroke:#cbaa19;stroke-width:3.125;"
     id="path599" />
  <path
     d="M 82.6605 496.87 L 53.5415 656.233 L 53.5415 496.87 C 53.5415 496.87 82.6605 496.87 82.6605 496.87 z "
     transform="matrix(-0.330883,-0.332448,0.332448,-0.330883,14.26861,297.8934)"
     style="font-size:12;fill:#faff00;fill-rule:evenodd;stroke:#cbaa19;stroke-width:3.125;stroke-linecap:round;stroke-dashoffset:0;"
     id="path600" />
  <path
     d="M 82.6605 496.87 L 53.5415 656.233 L 53.5415 496.87 C 53.5415 496.87 82.6605 496.87 82.6605 496.87 z "
     transform="matrix(0.330883,0.332448,0.332448,-0.330883,-21.16348,262.2940)"
     style="font-size:12;fill:#f5c402;fill-rule:evenodd;stroke:#cbaa19;stroke-width:3.125;"
     id="path601" />
  <path
     d="M 82.6605 496.87 L 53.5415 656.233 L 53.5415 496.87 C 53.5415 496.87 82.6605 496.87 82.6605 496.87 z "
     transform="matrix(-0.469046,9.172528e-4,-9.172528e-4,-0.469046,163.3501,338.7656)"
     style="font-size:12;fill:#faff00;fill-rule:evenodd;stroke:#cbaa19;stroke-width:3.125;stroke-linecap:round;stroke-dashoffset:0;"
     id="path602" />
  <path
     d="M 82.6605 496.87 L 53.5415 656.233 L 53.5415 496.87 C 53.5415 496.87 82.6605 496.87 82.6605 496.87 z "
     transform="matrix(0.469046,-9.172528e-4,-9.172528e-4,-0.469046,113.1233,338.8640)"
     style="font-size:12;fill:#f5c402;fill-rule:evenodd;stroke:#cbaa19;stroke-width:3.125;"
     id="path603" />
  <path
     d="M 82.6605 496.87 L 53.5415 656.233 L 53.5415 496.87 C 53.5415 496.87 82.6605 496.87 82.6605 496.87 z "
     transform="matrix(-0.331041,0.332290,-0.332290,-0.331041,296.7984,262.3697)"
     style="font-size:12;fill:#faff00;fill-rule:evenodd;stroke:#cbaa19;stroke-width:3.125;stroke-linecap:round;stroke-dashoffset:0;"
     id="path604" />
  <path
     d="M 82.6605 496.87 L 53.5415 656.233 L 53.5415 496.87 C 53.5415 496.87 82.6605 496.87 82.6605 496.87 z "
     transform="matrix(0.331041,-0.332290,-0.332290,-0.331041,261.3497,297.9525)"
     style="font-size:12;fill:#f5c402;fill-rule:evenodd;stroke:#cbaa19;stroke-width:3.125;"
     id="path605" />
  <path
     d="M 82.6605 496.87 L 53.5415 656.233 L 53.5415 496.87 C 53.5415 496.87 82.6605 496.87 82.6605 496.87 z "
     transform="matrix(5.186051e-3,0.469018,-0.469018,5.186051e-3,336.9072,112.1488)"
     style="font-size:12;fill:#faff00;fill-rule:evenodd;stroke:#cbaa19;stroke-width:3.125;stroke-linecap:round;stroke-dashoffset:0;"
     id="path606" />
  <path
     d="M 82.6605 496.87 L 53.5415 656.233 L 53.5415 496.87 C 53.5415 496.87 82.6605 496.87 82.6605 496.87 z "
     transform="matrix(-5.186051e-3,-0.469018,-0.469018,5.186051e-3,337.4628,162.3727)"
     style="font-size:12;fill:#f5c402;fill-rule:evenodd;stroke:#cbaa19;stroke-width:3.125;"
     id="path607" />
  <path
     d="M 82.6605 496.87 L 53.5415 656.233 L 53.5415 496.87 C 53.5415 496.87 82.6605 496.87 82.6605 496.87 z "
     transform="matrix(0.334127,0.329188,-0.329188,0.334127,259.8655,-20.16804)"
     style="font-size:12;fill:#faff00;fill-rule:evenodd;stroke:#cbaa19;stroke-width:3.125;stroke-linecap:round;stroke-dashoffset:0;"
     id="path608" />
  <path
     d="M 82.6605 496.87 L 53.5415 656.233 L 53.5415 496.87 C 53.5415 496.87 82.6605 496.87 82.6605 496.87 z "
     transform="matrix(-0.334127,-0.329188,-0.329188,0.334127,295.6450,15.08215)"
     style="font-size:12;fill:#f5c402;fill-rule:evenodd;stroke:#cbaa19;stroke-width:3.125;"
     id="path609" />
  <ellipse
     cx="52.585365"
     cy="422.293884"
     rx="82.224388"
     ry="81.268311"
     transform="matrix(0.469047,0.000000,0.000000,0.469047,113.1819,-58.54002)"
     style="font-size:12;fill:#faff00;fill-rule:evenodd;stroke:#cbaa19;stroke-width:3.125;"
     id="path566" />
</svg>
