<?xml version="1.0" encoding="UTF-8" standalone="no"?>
<!DOCTYPE svg PUBLIC "-//W3C//DTD SVG 20010904//EN"
"http://www.w3.org/TR/2001/REC-SVG-20010904/DTD/svg10.dtd">
<!-- Created with Sodipodi ("http://www.sodipodi.com/") -->
<svg
   width="210mm"
   height="140mm"
   xmlns="http://www.w3.org/2000/svg"
   xmlns:sodipodi="http://sodipodi.sourceforge.net/DTD/sodipodi-0.dtd"
   xmlns:xlink="http://www.w3.org/1999/xlink"
   id="svg1747"
   sodipodi:version="0.32"
   sodipodi:docname="/home/cschalle/sodipodi-flags/Regional/usa_missisipi.svg"
   sodipodi:docbase="/home/cschalle/sodipodi-flags/Regional">
  <defs
     id="defs1772" />
  <sodipodi:namedview
     id="base"
     showgrid="true"
     gridspacingx="10mm"
     gridspacingy="10mm"
     gridoriginx="0mm"
     gridoriginy="0mm" />
  <rect
     width="182.599696"
     height="209.993808"
     x="0.010207"
     y="-1.633571"
     style="font-size:12;fill:#f31830;fill-rule:evenodd;stroke-width:1pt;"
     id="rect1896"
     sodipodi:fill-cmyk="(0 0.9 0.8 0.05)"
     transform="matrix(1.412736,0.000000,0.000000,1.412736,51.89259,34.43076)" />
  <g
     id="g1915"
     transform="matrix(0.944360,-0.960166,0.944360,0.960166,-22.63940,177.8461)"
     style="font-size:12;">
    <rect
       style="font-size:12;fill:#ffffff;fill-rule:evenodd;stroke-width:1pt;"
       id="rect1801"
       width="347.794060"
       height="50.617920"
       x="-298.873102"
       y="76.814651"
       transform="matrix(-4.997062e-8,-1.000000,1.000000,-9.559442e-8,0.000000,0.000000)" />
    <rect
       style="font-size:12;fill:#ffffff;fill-rule:evenodd;stroke-width:1pt;"
       id="rect1800"
       width="53.883579"
       height="321.668658"
       x="-135.589476"
       y="-55.445058"
       transform="matrix(-8.784319e-8,-1.000000,1.000000,-5.437999e-8,0.000000,0.000000)" />
    <rect
       style="font-size:12;fill:#002377;fill-rule:evenodd;stroke-width:1pt;"
       id="rect1798"
       width="329.832865"
       height="39.188061"
       x="-280.911925"
       y="83.346025"
       transform="matrix(-5.269180e-8,-1.000000,1.000000,-9.065761e-8,0.000000,0.000000)" />
    <rect
       style="font-size:12;fill:#002377;fill-rule:evenodd;stroke-width:1pt;"
       id="rect1799"
       width="37.555222"
       height="323.301498"
       x="-127.425322"
       y="-55.445041"
       transform="matrix(-8.828911e-8,-1.000000,1.000000,-5.410534e-8,0.000000,0.000000)" />
    <polygon
       points="349.081,386.745 294.269,346.441 238.968,386.072 260.362,321.488 205.582,281.14 273.616,281.53 295.061,216.962 315.714,281.787 383.749,282.23 328.479,321.904 349.081,386.745 "
       transform="matrix(-4.624269e-2,-0.172580,0.180633,-4.840046e-2,27.41780,171.3607)"
       style="font-size:12;fill:#ffffff;fill-rule:evenodd;stroke-width:1pt;"
       id="polygon175" />
    <polygon
       points="349.081,386.745 294.269,346.441 238.968,386.072 260.362,321.488 205.582,281.14 273.616,281.53 295.061,216.962 315.714,281.787 383.749,282.23 328.479,321.904 349.081,386.745 "
       transform="matrix(-4.624269e-2,-0.172580,0.180633,-4.840046e-2,-6.871711,171.3607)"
       style="font-size:12;fill:#ffffff;fill-rule:evenodd;stroke-width:1pt;"
       id="polygon1854" />
    <polygon
       points="349.081,386.745 294.269,346.441 238.968,386.072 260.362,321.488 205.582,281.14 273.616,281.53 295.061,216.962 315.714,281.787 383.749,282.23 328.479,321.904 349.081,386.745 "
       transform="matrix(-4.624269e-2,-0.172580,0.180633,-4.840046e-2,-6.871711,171.3607)"
       style="font-size:12;fill:#ffffff;fill-rule:evenodd;stroke-width:1pt;"
       id="polygon1855" />
    <polygon
       points="349.081,386.745 294.269,346.441 238.968,386.072 260.362,321.488 205.582,281.14 273.616,281.53 295.061,216.962 315.714,281.787 383.749,282.23 328.479,321.904 349.081,386.745 "
       transform="matrix(-4.624269e-2,-0.172580,0.180633,-4.840046e-2,-44.42701,171.3607)"
       style="font-size:12;fill:#ffffff;fill-rule:evenodd;stroke-width:1pt;"
       id="polygon1856" />
    <polygon
       points="349.081,386.745 294.269,346.441 238.968,386.072 260.362,321.488 205.582,281.14 273.616,281.53 295.061,216.962 315.714,281.787 383.749,282.23 328.479,321.904 349.081,386.745 "
       transform="matrix(-4.624269e-2,-0.172580,0.180633,-4.840046e-2,61.70740,282.3935)"
       style="font-size:12;fill:#ffffff;fill-rule:evenodd;stroke-width:1pt;"
       id="polygon1857" />
    <polygon
       points="349.081,386.745 294.269,346.441 238.968,386.072 260.362,321.488 205.582,281.14 273.616,281.53 295.061,216.962 315.714,281.787 383.749,282.23 328.479,321.904 349.081,386.745 "
       transform="matrix(-4.624269e-2,-0.172580,0.180633,-4.840046e-2,60.07449,246.4711)"
       style="font-size:12;fill:#ffffff;fill-rule:evenodd;stroke-width:1pt;"
       id="polygon1858" />
    <polygon
       points="349.081,386.745 294.269,346.441 238.968,386.072 260.362,321.488 205.582,281.14 273.616,281.53 295.061,216.962 315.714,281.787 383.749,282.23 328.479,321.904 349.081,386.745 "
       transform="matrix(-4.624269e-2,-0.172580,0.180633,-4.840046e-2,60.07449,210.5487)"
       style="font-size:12;fill:#ffffff;fill-rule:evenodd;stroke-width:1pt;"
       id="polygon1859" />
    <polygon
       points="349.081,386.745 294.269,346.441 238.968,386.072 260.362,321.488 205.582,281.14 273.616,281.53 295.061,216.962 315.714,281.787 383.749,282.23 328.479,321.904 349.081,386.745 "
       transform="matrix(-4.624269e-2,-0.172580,0.180633,-4.840046e-2,60.07448,65.22640)"
       style="font-size:12;fill:#ffffff;fill-rule:evenodd;stroke-width:1pt;"
       id="polygon1860" />
    <polygon
       points="349.081,386.745 294.269,346.441 238.968,386.072 260.362,321.488 205.582,281.14 273.616,281.53 295.061,216.962 315.714,281.787 383.749,282.23 328.479,321.904 349.081,386.745 "
       transform="matrix(-4.624269e-2,-0.172580,0.180633,-4.840046e-2,58.44168,97.88311)"
       style="font-size:12;fill:#ffffff;fill-rule:evenodd;stroke-width:1pt;"
       id="polygon1861" />
    <polygon
       points="349.081,386.745 294.269,346.441 238.968,386.072 260.362,321.488 205.582,281.14 273.616,281.53 295.061,216.962 315.714,281.787 383.749,282.23 328.479,321.904 349.081,386.745 "
       transform="matrix(-4.624269e-2,-0.172580,0.180633,-4.840046e-2,61.70739,137.0711)"
       style="font-size:12;fill:#ffffff;fill-rule:evenodd;stroke-width:1pt;"
       id="polygon1862" />
    <polygon
       points="349.081,386.745 294.269,346.441 238.968,386.072 260.362,321.488 205.582,281.14 273.616,281.53 295.061,216.962 315.714,281.787 383.749,282.23 328.479,321.904 349.081,386.745 "
       transform="matrix(-4.624269e-2,-0.172580,0.180633,-4.840046e-2,61.70739,174.6263)"
       style="font-size:12;fill:#ffffff;fill-rule:evenodd;stroke-width:1pt;"
       id="polygon1863" />
    <polygon
       points="349.081,386.745 294.269,346.441 238.968,386.072 260.362,321.488 205.582,281.14 273.616,281.53 295.061,216.962 315.714,281.787 383.749,282.23 328.479,321.904 349.081,386.745 "
       transform="matrix(-4.624269e-2,-0.172580,0.180633,-4.840046e-2,97.62968,172.9935)"
       style="font-size:12;fill:#ffffff;fill-rule:evenodd;stroke-width:1pt;"
       id="polygon1864" />
    <polygon
       points="349.081,386.745 294.269,346.441 238.968,386.072 260.362,321.488 205.582,281.14 273.616,281.53 295.061,216.962 315.714,281.787 383.749,282.23 328.479,321.904 349.081,386.745 "
       transform="matrix(-4.624269e-2,-0.172580,0.180633,-4.840046e-2,135.1850,172.9935)"
       style="font-size:12;fill:#ffffff;fill-rule:evenodd;stroke-width:1pt;"
       id="polygon1865" />
    <polygon
       points="349.081,386.745 294.269,346.441 238.968,386.072 260.362,321.488 205.582,281.14 273.616,281.53 295.061,216.962 315.714,281.787 383.749,282.23 328.479,321.904 349.081,386.745 "
       transform="matrix(-4.624269e-2,-0.172580,0.180633,-4.840046e-2,172.7402,172.9935)"
       style="font-size:12;fill:#ffffff;fill-rule:evenodd;stroke-width:1pt;"
       id="polygon1866" />
  </g>
  <rect
     style="font-size:12;fill:#ffffff;fill-rule:evenodd;stroke-width:1pt;"
     id="rect1937"
     width="675.994026"
     height="78.376122"
     x="-109.399998"
     y="-75.256729"
     transform="matrix(1.412736,0.000000,0.000000,1.412736,51.89259,34.43076)" />
  <rect
     width="423.547932"
     height="159.181365"
     x="324.091006"
     y="39.044302"
     style="font-size:12;fill:#00267f;fill-rule:evenodd;stroke-width:1pt;"
     id="rect1894"
     sodipodi:fill-cmyk="(1 0.7 0 0.5)" />
  <rect
     style="font-size:12;fill:#ffffff;fill-rule:evenodd;stroke-width:1pt;"
     id="rect1938"
     width="418.926560"
     height="140.712777"
     x="326.397759"
     y="200.311246" />
  <rect
     width="690.458889"
     height="156.875538"
     x="54.213820"
     y="341.229642"
     style="font-size:12;fill:#f31830;fill-rule:evenodd;stroke-width:1pt;"
     id="rect135"
     sodipodi:fill-cmyk="(0 0.9 0.8 0.05)" />
  <rect
     style="font-size:12;fill:#ffffff;fill-rule:evenodd;stroke-width:1pt;"
     id="rect1935"
     width="337.997009"
     height="4.898517"
     x="-125.728355"
     y="212.122367"
     transform="matrix(1.412736,0.000000,0.000000,1.412736,51.89259,34.43076)" />
  <rect
     style="font-size:12;fill:#ffffff;fill-rule:evenodd;stroke-width:1pt;"
     id="rect1936"
     width="13.062717"
     height="209.469706"
     x="182.877609"
     y="2.886053"
     transform="matrix(1.412736,0.000000,0.000000,1.412736,51.89259,34.43076)" />
  <rect
     style="font-size:12;fill:#ffffff;fill-rule:evenodd;stroke-width:1pt;"
     id="rect1934"
     width="81.641795"
     height="488.217896"
     x="-80.008960"
     y="-83.420868"
     transform="matrix(1.412736,0.000000,0.000000,1.412736,51.89259,34.43076)" />
</svg>
