<?xml version="1.0" encoding="UTF-8" standalone="no"?>
<!DOCTYPE svg PUBLIC "-//W3C//DTD SVG 1.0//EN"
"http://www.w3.org/TR/2001/REC-SVG-20010904/DTD/svg10.dtd">
<!-- Created with Sodipodi ("http://www.sodipodi.com/") -->
<svg
   id="svg548"
   sodipodi:version="0.33pre"
   xmlns="http://www.w3.org/2000/svg"
   xmlns:sodipodi="http://sodipodi.sourceforge.net/DTD/sodipodi-0.dtd"
   xmlns:xlink="http://www.w3.org/1999/xlink"
   width="22cm"
   height="14cm"
   sodipodi:docbase="/home/pedro/svg/spanish_flag_project/madrid"
   sodipodi:docname="/home/pedro/svg/spanish_flag_project/madrid/spain_madrid.svg">
  <defs
     id="defs550" />
  <sodipodi:namedview
     id="base"
     snaptoguides="true" />
  <rect
     style="font-size:12;fill:#ff0000;fill-rule:evenodd;stroke-width:1pt;fill-opacity:1;"
     id="rect576"
     width="779.527527"
     height="496.063023"
     x="0.000000"
     y="-0.002157" />
  <path
     style="fill:#ffffff;fill-rule:evenodd;stroke:none;stroke-opacity:1;stroke-width:1pt;stroke-linejoin:miter;stroke-linecap:butt;fill-opacity:1;"
     d="M 176.981 141.399 L 163.357 182.051 L 120.422 182.047 L 154.719 208.219 L 140.492 251.916 L 176.822 226.253 L 212.644 251.916 L 199.433 208.219 L 235.255 182.301 L 190.033 182.051 L 176.981 141.399 z "
     id="path558"
     sodipodi:nodetypes="ccccccccccc" />
  <path
     style="fill:#ffffff;fill-rule:evenodd;stroke:none;stroke-opacity:1;stroke-width:1pt;stroke-linejoin:miter;stroke-linecap:butt;fill-opacity:1;"
     d="M 318.836 141.399 L 305.212 182.051 L 262.277 182.047 L 296.574 208.219 L 282.347 251.916 L 318.677 226.253 L 354.499 251.916 L 341.288 208.219 L 377.11 182.301 L 331.888 182.051 L 318.836 141.399 z "
     id="path569"
     sodipodi:nodetypes="ccccccccccc" />
  <path
     style="fill:#ffffff;fill-rule:evenodd;stroke:none;stroke-opacity:1;stroke-width:1pt;stroke-linejoin:miter;stroke-linecap:butt;fill-opacity:1;"
     d="M 460.024 141.399 L 446.4 182.051 L 403.465 182.047 L 437.762 208.219 L 423.535 251.916 L 459.865 226.253 L 495.687 251.916 L 482.476 208.219 L 518.298 182.301 L 473.076 182.051 L 460.024 141.399 z "
     id="path570"
     sodipodi:nodetypes="ccccccccccc" />
  <path
     style="fill:#ffffff;fill-rule:evenodd;stroke:none;stroke-opacity:1;stroke-width:1pt;stroke-linejoin:miter;stroke-linecap:butt;fill-opacity:1;"
     d="M 601.212 141.399 L 587.588 182.051 L 544.653 182.047 L 578.95 208.219 L 564.723 251.916 L 601.053 226.253 L 636.875 251.916 L 623.664 208.219 L 659.486 182.301 L 614.264 182.051 L 601.212 141.399 z "
     id="path571"
     sodipodi:nodetypes="ccccccccccc" />
  <path
     style="fill:#ffffff;fill-rule:evenodd;stroke:none;stroke-opacity:1;stroke-width:1pt;stroke-linejoin:miter;stroke-linecap:butt;fill-opacity:1;"
     d="M 248.629 243.656 L 235.005 284.308 L 192.07 284.304 L 226.367 310.476 L 212.14 354.173 L 248.47 328.51 L 284.292 354.173 L 271.081 310.476 L 306.903 284.558 L 261.681 284.308 L 248.629 243.656 z "
     id="path573"
     sodipodi:nodetypes="ccccccccccc" />
  <path
     style="fill:#ffffff;fill-rule:evenodd;stroke:none;stroke-opacity:1;stroke-width:1pt;stroke-linejoin:miter;stroke-linecap:butt;fill-opacity:1;"
     d="M 389.817 243.656 L 376.193 284.308 L 333.258 284.304 L 367.555 310.476 L 353.328 354.173 L 389.658 328.51 L 425.48 354.173 L 412.269 310.476 L 448.091 284.558 L 402.869 284.308 L 389.817 243.656 z "
     id="path574"
     sodipodi:nodetypes="ccccccccccc" />
  <path
     style="fill:#ffffff;fill-rule:evenodd;stroke:none;stroke-opacity:1;stroke-width:1pt;stroke-linejoin:miter;stroke-linecap:butt;fill-opacity:1;"
     d="M 531.005 243.656 L 517.381 284.308 L 474.446 284.304 L 508.743 310.476 L 494.516 354.173 L 530.846 328.51 L 566.668 354.173 L 553.457 310.476 L 589.279 284.558 L 544.057 284.308 L 531.005 243.656 z "
     id="path575"
     sodipodi:nodetypes="ccccccccccc" />
</svg>
