<?xml version="1.0" encoding="UTF-8" standalone="no"?>
<!DOCTYPE svg PUBLIC "-//W3C//DTD SVG 20010904//EN"
"http://www.w3.org/TR/2001/REC-SVG-20010904/DTD/svg10.dtd">
<!-- Created with Sodipodi ("http://www.sodipodi.com/") -->
<svg
   id="svg101"
   sodipodi:version="0.31.1"
   width="210mm"
   height="297mm"
   sodipodi:docbase="/home/kruhft/graphics/"
   sodipodi:docname="/home/kruhft/graphics/conspiracy_software.svg"
   xmlns="http://www.w3.org/2000/svg"
   xmlns:sodipodi="http://sodipodi.sourceforge.net/DTD/sodipodi-0.dtd"
   xmlns:xlink="http://www.w3.org/1999/xlink">
  <defs
     id="defs103">
    <linearGradient
       id="linearGradient123">
      <stop
         style="stop-color:#000;stop-opacity:1;"
         offset="0"
         id="stop124" />
      <stop
         style="stop-color:#fff;stop-opacity:1;"
         offset="1"
         id="stop125" />
    </linearGradient>
    <linearGradient
       xlink:href="#linearGradient123"
       id="linearGradient126"
       x1="0.448485"
       y1="0.554686"
       x2="0.721214"
       y2="0.445311"
       gradientUnits="objectBoundingBox"
       gradientTransform="scale(0.999997,1)"
       spreadMethod="pad" />
    <radialGradient
       xlink:href="#linearGradient123"
       id="radialGradient127"
       cx="0.50303"
       cy="0.515624"
       fx="0.50303"
       fy="0.515624"
       r="0.750023"
       gradientUnits="objectBoundingBox"
       gradientTransform="scale(0.999998,1)"
       spreadMethod="pad" />
  </defs>
  <sodipodi:namedview
     id="base"
     showgrid="false"
     showborder="false" />
  <rect
     style="font-size:12;fill:#ff0000;fill-rule:evenodd;stroke-width:1pt;fill-opacity:1;"
     id="rect286"
     width="817.500061"
     height="827.500153"
     x="-47.500011"
     y="92.362040" />
  <path
     style="font-size:12;fill:#000000;fill-rule:evenodd;stroke-width:1pt;fill-opacity:1;"
     d="M 760.36 287.366 C 709.36 265.311 652.197 243.897 551.725 214.295 C 502.271 200.066 395.261 179.013 326.606 167.789 C 257.362 157.628 187.237 155.249 157.636 157.548 C 152.194 139.48 157.253 127.72 124.976 84.2606 C 231.729 100.369 262.251 104.663 301.941 112.344 C 343.452 121.59 478.651 158.819 554.828 186.84 C 635.697 215.356 712.837 249.149 760.36 287.366 z "
     id="path230"
     sodipodi:nodetypes="cssccssc"
     transform="matrix(0.57757,0,0,0.515665,51.4084,103.563)" />
  <path
     style="font-size:12;fill:#000000;fill-rule:evenodd;stroke-width:1pt;fill-opacity:1;"
     d="M 760.36 287.366 C 709.36 265.311 652.197 243.897 551.725 214.295 C 502.271 200.066 395.261 179.013 326.606 167.789 C 257.362 157.628 187.237 155.249 157.636 157.548 C 152.194 139.48 157.253 127.72 124.976 84.2606 C 231.729 100.369 262.251 104.663 301.941 112.344 C 343.452 121.59 478.651 158.819 554.828 186.84 C 635.697 215.356 712.837 249.149 760.36 287.366 z "
     id="path231"
     sodipodi:nodetypes="cssccssc"
     transform="matrix(0.0448718,0.230145,-0.286473,0.0456823,510.63,227.444)" />
  <path
     style="font-size:12;fill:#000000;fill-rule:evenodd;stroke-width:1pt;fill-opacity:1;"
     d="M 760.36 287.366 C 709.36 265.311 652.197 243.897 551.725 214.295 C 502.271 200.066 395.261 179.013 326.606 167.789 C 257.362 157.628 187.237 155.249 157.636 157.548 C 152.194 139.48 157.253 127.72 124.976 84.2606 C 231.729 100.369 262.251 104.663 301.941 112.344 C 343.452 121.59 478.651 158.819 554.828 186.84 C 635.697 215.356 712.837 249.149 760.36 287.366 z "
     id="path232"
     sodipodi:nodetypes="cssccssc"
     transform="matrix(0.0894152,-0.036924,-0.208525,-0.198079,436.84,536.614)" />
  <path
     style="font-size:12;fill:#000000;fill-rule:evenodd;stroke-width:1pt;fill-opacity:1;"
     d="M 760.36 287.366 C 709.36 265.311 652.197 243.897 551.725 214.295 C 502.271 200.066 395.261 179.013 326.606 167.789 C 257.362 157.628 187.237 155.249 157.636 157.548 C 152.194 139.48 157.253 127.72 124.976 84.2606 C 231.729 100.369 262.251 104.663 301.941 112.344 C 343.452 121.59 478.651 158.819 554.828 186.84 C 635.697 215.356 712.837 249.149 760.36 287.366 z "
     id="path233"
     sodipodi:nodetypes="cssccssc"
     transform="matrix(0.1661,0.159024,-0.222836,0.150212,407.978,486.749)" />
  <path
     style="font-size:12;fill:#000000;fill-rule:evenodd;stroke-width:1pt;fill-opacity:1;"
     d="M 760.36 287.366 C 709.36 265.311 652.197 243.897 551.725 214.295 C 502.271 200.066 395.261 179.013 326.606 167.789 C 257.362 157.628 187.237 155.249 157.636 157.548 C 152.194 139.48 157.253 127.72 124.976 84.2606 C 231.729 100.369 262.251 104.663 301.941 112.344 C 343.452 121.59 478.651 158.819 554.828 186.84 C 635.697 215.356 712.837 249.149 760.36 287.366 z "
     id="path234"
     sodipodi:nodetypes="cssccssc"
     transform="matrix(0.0765358,0.059334,0.066484,-0.280469,384.926,681.291)" />
  <path
     style="font-size:12;fill:#000000;fill-rule:evenodd;stroke-width:1pt;fill-opacity:1;"
     d="M 760.36 287.366 C 709.36 265.311 652.197 243.897 551.725 214.295 C 502.271 200.066 395.261 179.013 326.606 167.789 C 257.362 157.628 187.237 155.249 157.636 157.548 C 152.194 139.48 157.253 127.72 124.976 84.2606 C 231.729 100.369 262.251 104.663 301.941 112.344 C 343.452 121.59 478.651 158.819 554.828 186.84 C 635.697 215.356 712.837 249.149 760.36 287.366 z "
     id="path235"
     sodipodi:nodetypes="cssccssc"
     transform="matrix(0.0225214,0.258622,-0.289785,0.0254712,443.885,642.675)" />
  <path
     style="font-size:12;fill:#000000;fill-rule:evenodd;stroke-width:1pt;fill-opacity:1;"
     d="M 760.36 287.366 C 709.36 265.311 607.303 226.027 521.05 202.653 C 471.667 189.033 392.623 174.268 326.606 167.789 C 258.396 160.435 187.237 155.249 157.636 157.548 C 152.194 139.48 149.39 107.125 117.113 63.6651 C 235.322 97.1563 262.251 104.663 301.941 112.344 C 343.452 121.59 478.651 158.819 554.828 186.84 C 635.697 215.356 741.2 271.146 760.36 287.366 z "
     id="path236"
     sodipodi:nodetypes="cssccssc"
     transform="matrix(0.461896,0.454527,0.261423,-0.773242,-36.8725,735.389)" />
  <path
     style="font-size:12;fill:#000000;fill-rule:evenodd;stroke-width:1pt;fill-opacity:1;"
     d="M 125.181 456.593 C 108.567 473.206 103.545 484.025 75.3402 506.433 C 155.51 504.695 219.955 515.869 294.987 542.945 C 388.807 577.96 490.455 606.992 691.34 597.611 C 774.341 593.714 885.347 621.762 953.926 652.478 C 924.273 622.245 784.638 580.802 711.967 579.167 C 626.353 575.874 478.571 579.555 332.367 505.564 C 260.722 469.893 196.561 462.485 125.181 456.593 z "
     id="path238"
     sodipodi:nodetypes="ccsscssc"
     transform="matrix(0.683953,0,0,0.623409,33.1378,65.4865)" />
  <text
     style="fill:black;stroke:none;font-family:Impact;font-style:normal;font-weight:normal;font-size:64;fill-opacity:1;stroke-opacity:1;stroke-width:1pt;stroke-linejoin:miter;stroke-linecap:butt;text-anchor:start;writing-mode:lr;"
     x="797.157"
     y="1073.98"
     id="text239"
     transform="scale(0.643358,0.646356)">
    <tspan
       x="797.157"
       y="1073.98"
       sodipodi:role="line"
       id="tspan260">
conspiracy</tspan>
    <tspan
       x="797.157"
       y="1137.98"
       sodipodi:role="line"
       id="tspan262">
software</tspan>
  </text>
  <text
     style="fill:black;stroke:none;font-family:helvetica;font-style:normal;font-weight:normal;font-size:12px;fill-opacity:1;stroke-opacity:1;stroke-width:1pt;stroke-linejoin:miter;stroke-linecap:butt;"
     x="586.25"
     y="892.362"
     id="text287">
    <tspan
       id="tspan288">
burton samograd</tspan>
    <tspan
       sodipodi:role="line"
       id="tspan290"
       x="586.25"
       y="904.362">
kruhft @ kruhftwerk.dyndns.org</tspan>
  </text>
</svg>
