<?xml version="1.0" encoding="UTF-8" standalone="no"?>
<!DOCTYPE svg PUBLIC "-//W3C//DTD SVG 20010904//EN"
"http://www.w3.org/TR/2001/REC-SVG-20010904/DTD/svg10.dtd">
<!-- Created with Sodipodi ("http://www.sodipodi.com/") -->
<!--
    Comic self-portrait 1.5 unstroked - a SVG image. 
    Copyright (C) Komrade Luxfer 2003
    mailto://luxfer@catlover.com
    http://komradeluxfer.gatonegro.cjb.net

    [ For the purposes of this notice, 
 "Program" means the present scalable vector
 graphics image, or any other encoding, 
 vector or raster, that may be made of it. ]

    This program is free software; you can
 redistribute it and/or modify it under the
 terms of the GNU General Public License as
 published by the Free Software Foundation;
 either version 2 of the License, or (at your
 option) any later version.

    This program is distributed in the hope
 that it will be useful, but WITHOUT ANY
 WARRANTY; without even the implied warranty of
 MERCHANTABILITY or FITNESS FOR A PARTICULAR
 PURPOSE. See the GNU General Public License
 for more details.

    You should have received a copy of the GNU
 General Public License along with this
 program; if not, write to the Free Software
 Foundation, Inc., 59 Temple Place, Suite 330,
 Boston, MA 02111-1307 USA
-->

<svg
   id="svg1"
   sodipodi:version="0.30.1"
   width="210mm"
   height="297mm"
   sodipodi:docbase="/home/gatonegro/Debuxos/vector/sodipodi/"
   sodipodi:docname="/home/gatonegro/Debuxos/vector/sodipodi/comiclux.1.5.unstroked.sodipodi.svg"
   xmlns="http://www.w3.org/2000/svg"
   xmlns:sodipodi="http://sodipodi.sourceforge.net/DTD/sodipodi-0.dtd"
   xmlns:xlink="http://www.w3.org/1999/xlink">
  <defs
     id="defs3">
    <linearGradient
       id="linearGradient226">
      <stop
         style="stop-color:#ffffff;stop-opacity:1;"
         offset="0.000000"
         id="stop227" />
      <stop
         style="stop-color:#ffffff;stop-opacity:0;"
         offset="1.000000"
         id="stop228" />
    </linearGradient>
    <radialGradient
       xlink:href="#linearGradient226"
       id="radialGradient229" />
    <defs
       id="defs440">
      <linearGradient
         id="linearGradient180">
        <stop
           style="stop-color:#ffff00;stop-opacity:1;"
           offset="0.000000"
           id="stop181" />
        <stop
           style="stop-color:#ffffff;stop-opacity:1;"
           offset="1.000000"
           id="stop182" />
      </linearGradient>
      <radialGradient
         xlink:href="#linearGradient180"
         id="radialGradient183"
         cx="0.489368"
         cy="0.507812"
         fx="0.716312"
         fy="0.28125"
         r="0.557051"
         gradientUnits="objectBoundingBox"
         spreadMethod="pad" />
      <defs
         id="defs606">
        <linearGradient
           id="linearGradient139">
          <stop
             style="stop-color:#000000;stop-opacity:1;"
             offset="0.000000"
             id="stop140" />
          <stop
             style="stop-color:#ffb232;stop-opacity:1;"
             offset="1.000000"
             id="stop141" />
        </linearGradient>
        <linearGradient
           xlink:href="#linearGradient139"
           id="linearGradient142"
           x1="0.633978"
           y1="0.539072"
           x2="0.810457"
           y2="0.976563"
           gradientUnits="objectBoundingBox"
           spreadMethod="pad" />
        <linearGradient
           xlink:href="#linearGradient139"
           id="linearGradient144"
           x1="0.385188"
           y1="0.499994"
           x2="0.748149"
           y2="0.992186"
           gradientUnits="objectBoundingBox"
           gradientTransform="scale(0.999999,1)"
           spreadMethod="pad" />
        <linearGradient
           x1="0.638201"
           y1="0.671875"
           x2="0.819096"
           y2="0.820312"
           xlink:href="#linearGradient139"
           id="linearGradient146"
           gradientUnits="objectBoundingBox"
           spreadMethod="pad" />
        <linearGradient
           x1="0.562842"
           y1="0.546875"
           x2="0.688528"
           y2="0.937504"
           xlink:href="#linearGradient139"
           id="linearGradient148"
           gradientUnits="objectBoundingBox"
           spreadMethod="pad" />
      </defs>
      <sodipodi:namedview
         id="namedview614" />
    </defs>
    <sodipodi:namedview
       id="namedview454" />
    <defs
       id="defs275">
      <linearGradient
         id="linearGradient276">
        <stop
           style="stop-color:#ffffff;stop-opacity:1;"
           offset="0.000000"
           id="stop277" />
        <stop
           style="stop-color:#ffffff;stop-opacity:0;"
           offset="1.000000"
           id="stop278" />
      </linearGradient>
      <radialGradient
         xlink:href="#linearGradient226"
         id="radialGradient279" />
      <defs
         id="defs280">
        <linearGradient
           id="linearGradient281">
          <stop
             style="stop-color:#ffff00;stop-opacity:1;"
             offset="0.000000"
             id="stop282" />
          <stop
             style="stop-color:#ffffff;stop-opacity:1;"
             offset="1.000000"
             id="stop283" />
        </linearGradient>
        <radialGradient
           xlink:href="#linearGradient180"
           id="radialGradient284"
           cx="0.489368"
           cy="0.507812"
           fx="0.716312"
           fy="0.28125"
           r="0.557051"
           gradientUnits="objectBoundingBox"
           spreadMethod="pad" />
        <defs
           id="defs285">
          <linearGradient
             id="linearGradient286">
            <stop
               style="stop-color:#000000;stop-opacity:1;"
               offset="0.000000"
               id="stop287" />
            <stop
               style="stop-color:#ffb232;stop-opacity:1;"
               offset="1.000000"
               id="stop288" />
          </linearGradient>
          <linearGradient
             xlink:href="#linearGradient139"
             id="linearGradient289"
             x1="0.633978"
             y1="0.539072"
             x2="0.810457"
             y2="0.976563"
             gradientUnits="objectBoundingBox"
             spreadMethod="pad" />
          <linearGradient
             xlink:href="#linearGradient139"
             id="linearGradient290"
             x1="0.385188"
             y1="0.499994"
             x2="0.748149"
             y2="0.992186"
             gradientUnits="objectBoundingBox"
             gradientTransform="scale(0.999999,1)"
             spreadMethod="pad" />
          <linearGradient
             x1="0.638201"
             y1="0.671875"
             x2="0.819096"
             y2="0.820312"
             xlink:href="#linearGradient139"
             id="linearGradient291"
             gradientUnits="objectBoundingBox"
             spreadMethod="pad" />
          <linearGradient
             x1="0.562842"
             y1="0.546875"
             x2="0.688528"
             y2="0.937504"
             xlink:href="#linearGradient139"
             id="linearGradient292"
             gradientUnits="objectBoundingBox"
             spreadMethod="pad" />
        </defs>
        <sodipodi:namedview
           id="namedview293" />
      </defs>
      <sodipodi:namedview
         id="namedview294" />
    </defs>
    <sodipodi:namedview
       id="namedview295" />
  </defs>
  <sodipodi:namedview
     id="base" />
  <rect
     style="font-size:12;fill:#ffffff;fill-rule:evenodd;stroke:#000000;stroke-width:1.18297pt;"
     id="rect246"
     width="497.443147"
     height="598.269923"
     x="-99.211966"
     y="-11.722692" />
  <path
     transform="matrix(0.177144,0,0,0.177144,820.588,86.6884)"
     style="font-size:72;font-weight:normal;fill-opacity:0.510417;stroke-width:1pt;font-family:DirtyBaker'sDozen;text-anchor:end;"
     d="M -2475.46 2616.59 C -2476.28 2617.45 -2477.52 2618.19 -2479.2 2618.82 C -2480.88 2619.39 -2482.44 2619.68 -2483.88 2619.68 C -2485.37 2619.68 -2486.52 2619.08 -2487.34 2617.88 C -2487.82 2617.21 -2488.37 2615.87 -2489 2613.85 C -2489.62 2611.98 -2490.24 2610.68 -2490.87 2609.96 C -2492.02 2608.62 -2493.94 2607.49 -2496.63 2606.58 C -2500.04 2605.38 -2502.22 2604.49 -2503.18 2603.91 C -2502.27 2600.41 -2500.78 2598.8 -2498.72 2599.09 L -2478.27 2599.09 C -2477.6 2599.76 -2476.66 2600.7 -2475.46 2601.9 L -2475.46 2616.59 z M -2495.76 2619.68 C -2495.76 2622.9 -2495.88 2625.03 -2496.12 2626.09 C -2496.6 2628.39 -2497.73 2629.55 -2499.51 2629.55 C -2500.76 2629.55 -2501.96 2628.85 -2503.11 2627.46 C -2504.21 2626.07 -2504.76 2624.7 -2504.76 2623.35 C -2504.76 2621.91 -2504.07 2620.21 -2502.68 2618.24 C -2501.19 2616.08 -2499.77 2615 -2498.43 2615 C -2496.65 2615 -2495.76 2616.56 -2495.76 2619.68 z M -2476.32 2644.52 C -2476.32 2645.39 -2476.68 2646.15 -2477.4 2646.83 C -2477.93 2647.26 -2478.48 2647.71 -2479.06 2648.19 L -2501.24 2648.19 C -2502.15 2648.19 -2502.87 2647.64 -2503.4 2646.54 C -2503.92 2645.43 -2504.12 2644.4 -2503.97 2643.44 C -2502.87 2641.57 -2501.26 2640.63 -2499.15 2640.63 C -2499 2640.63 -2498.74 2640.63 -2498.36 2640.63 C -2497.97 2640.68 -2497.71 2640.71 -2497.56 2640.71 C -2496.03 2640.71 -2494.8 2640.35 -2493.89 2639.63 C -2492.5 2638.57 -2491.23 2636.84 -2490.08 2634.44 C -2488.59 2631.37 -2487.58 2629.5 -2487.05 2628.83 L -2476.32 2628.83 L -2476.32 2644.52 z M -2510.38 2599.16 C -2510.57 2600.17 -2510.72 2603.07 -2510.81 2607.87 L -2510.81 2644.59 C -2511.53 2645.51 -2512.83 2646.71 -2514.7 2648.19 L -2529.32 2648.19 C -2530.76 2647.38 -2531.48 2646.27 -2531.48 2644.88 C -2531.48 2643.63 -2530.76 2641.74 -2529.32 2639.19 C -2527.83 2636.65 -2527.08 2634.97 -2527.08 2634.15 L -2527.08 2619.11 C -2527.08 2614.79 -2527.2 2611.95 -2527.44 2610.61 C -2527.49 2610.13 -2527.97 2609.17 -2528.88 2607.73 C -2529.8 2606.29 -2530.25 2605.26 -2530.25 2604.63 C -2530.3 2604.44 -2530.37 2604.11 -2530.47 2603.63 C -2530.52 2603.1 -2530.54 2602.69 -2530.54 2602.4 C -2530.54 2600.77 -2529.32 2599.69 -2526.87 2599.16 L -2510.38 2599.16 z M -2553.94 2626.52 L -2553.94 2619.9 C -2554.23 2617.79 -2554.78 2615.1 -2555.6 2611.83 C -2556.08 2610.83 -2556.84 2609.94 -2557.9 2609.17 C -2559.34 2608.11 -2560.11 2607.54 -2560.2 2607.44 C -2560.97 2606.58 -2561.76 2605.71 -2562.58 2604.85 C -2563.2 2604.13 -2563.52 2603.53 -2563.52 2603.05 C -2563.52 2602.43 -2563.04 2601.51 -2562.08 2600.31 C -2559.15 2599.4 -2556.36 2598.95 -2553.72 2598.95 C -2547.58 2598.95 -2542.73 2601.39 -2539.18 2606.29 C -2535.96 2610.66 -2534.36 2616.08 -2534.36 2622.56 C -2534.36 2629.28 -2536.08 2635.02 -2539.54 2639.77 C -2543.38 2645.05 -2548.52 2647.69 -2554.95 2647.69 C -2557.49 2647.69 -2560.16 2647.26 -2562.94 2646.39 C -2563.66 2644.52 -2563.68 2642.94 -2563.01 2641.64 C -2562.72 2641.11 -2561.84 2640.25 -2560.35 2639.05 C -2558.81 2637.85 -2557.9 2637.01 -2557.61 2636.53 C -2556.36 2634.61 -2555.14 2631.27 -2553.94 2626.52 z M -2570.07 2641.14 C -2570.07 2642.19 -2570.52 2643.56 -2571.44 2645.24 C -2572.49 2647.21 -2573.62 2648.19 -2574.82 2648.19 L -2587.56 2648.19 C -2587.85 2647.91 -2588.45 2647.59 -2589.36 2647.26 C -2590.23 2646.92 -2590.76 2646.61 -2590.95 2646.32 C -2591.24 2645.84 -2591.38 2645.27 -2591.38 2644.59 C -2591.38 2643.35 -2590.66 2641.21 -2589.22 2638.19 C -2587.73 2635.11 -2586.99 2632.91 -2586.99 2631.56 L -2586.99 2611.47 C -2586.99 2610.9 -2587.3 2610.25 -2587.92 2609.53 C -2588.74 2608.57 -2589.29 2607.68 -2589.58 2606.87 C -2589.87 2606.05 -2590.11 2603.48 -2590.3 2599.16 L -2572.88 2599.16 C -2572.64 2599.4 -2571.7 2600.31 -2570.07 2601.9 L -2570.07 2641.14 z M -2595.7 2639.12 C -2595.17 2639.94 -2594.91 2640.75 -2594.91 2641.57 C -2594.91 2642.87 -2595.48 2643.99 -2596.64 2644.95 C -2597.79 2645.91 -2599.16 2646.44 -2600.74 2646.54 L -2620.54 2647.33 C -2620.97 2646.9 -2621.38 2646.25 -2621.76 2645.39 C -2622.1 2644.47 -2622.22 2643.83 -2622.12 2643.44 C -2619.44 2638.93 -2618.09 2635.79 -2618.09 2634.01 C -2618.09 2633.34 -2618.52 2632.28 -2619.39 2630.84 C -2620.25 2629.4 -2620.68 2627.67 -2620.68 2625.66 L -2620.68 2620.62 L -2614.49 2602.55 C -2612.33 2604.08 -2610.39 2606.72 -2608.66 2610.47 C -2607.6 2612.77 -2606.38 2616.23 -2604.99 2620.83 C -2603.6 2625.44 -2602.56 2628.44 -2601.89 2629.83 C -2600.6 2631.66 -2598.53 2634.75 -2595.7 2639.12 z M -2622.48 2599.31 C -2623.01 2603.91 -2623.71 2607.83 -2624.57 2611.04 C -2625.05 2612.87 -2625.72 2614.74 -2626.59 2616.66 C -2627.16 2618.05 -2627.48 2619.08 -2627.52 2619.75 L -2627.52 2631.92 C -2627.76 2632.16 -2628.53 2632.76 -2629.83 2633.72 C -2630.64 2634.35 -2631.15 2634.95 -2631.34 2635.52 C -2631.44 2635.86 -2631.48 2636.19 -2631.48 2636.53 C -2631.48 2637.35 -2631.15 2638.4 -2630.48 2639.7 C -2629.61 2641.28 -2629.13 2642.27 -2629.04 2642.65 C -2628.75 2643.66 -2628.6 2644.55 -2628.6 2645.31 C -2628.6 2647.81 -2630.38 2649.06 -2633.93 2649.06 L -2649.05 2649.06 C -2649.96 2649.06 -2650.68 2648.51 -2651.21 2647.4 C -2651.74 2646.3 -2651.93 2645.27 -2651.79 2644.31 C -2651.36 2643.68 -2650.4 2642.65 -2648.91 2641.21 C -2647.61 2639.96 -2646.65 2638.76 -2646.03 2637.61 C -2644.25 2634.3 -2642.36 2629.86 -2640.34 2624.29 C -2638.32 2618.72 -2637.22 2615.77 -2637.03 2615.43 C -2636.6 2614.57 -2635.64 2611.83 -2634.15 2607.23 C -2633.09 2604.06 -2631.65 2601.78 -2629.83 2600.39 C -2628.34 2599.23 -2625.89 2598.87 -2622.48 2599.31 z M -2654.16 2641.07 C -2654.31 2643.95 -2655.51 2646.2 -2657.76 2647.83 C -2659.78 2649.27 -2662.28 2649.99 -2665.25 2649.99 C -2667.75 2649.99 -2670.05 2649.49 -2672.16 2648.48 C -2674.42 2647.43 -2676.1 2645.96 -2677.2 2644.09 C -2677.78 2643.13 -2678.33 2641.35 -2678.86 2638.76 C -2679.44 2635.83 -2679.92 2633.91 -2680.3 2633 C -2680.83 2631.75 -2681.88 2630.43 -2683.47 2629.04 C -2685.29 2627.51 -2686.4 2626.43 -2686.78 2625.8 C -2687.5 2624.75 -2687.72 2623.07 -2687.43 2620.76 C -2685.94 2619.95 -2684.48 2619.13 -2683.04 2618.31 C -2681.21 2617.21 -2680.04 2616.06 -2679.51 2614.86 C -2679.03 2613.85 -2678.79 2612.94 -2678.79 2612.12 C -2678.79 2610.35 -2680.28 2608.55 -2683.25 2606.72 C -2686.18 2604.9 -2687.64 2603.12 -2687.64 2601.39 C -2687.64 2601.06 -2687.6 2600.7 -2687.5 2600.31 L -2673.68 2599.38 C -2670.03 2599.57 -2666.62 2601.06 -2663.45 2603.84 C -2660.28 2606.63 -2658.7 2609.55 -2658.7 2612.63 C -2658.7 2613.54 -2658.87 2614.4 -2659.2 2615.22 C -2659.59 2616.18 -2660.43 2617.26 -2661.72 2618.46 C -2662.97 2619.61 -2664.22 2620.76 -2665.47 2621.91 C -2664.46 2625.23 -2663.48 2628.54 -2662.52 2631.85 C -2660.88 2635.98 -2658.1 2639.05 -2654.16 2641.07 z M -2690.38 2647.62 L -2711.98 2647.62 C -2715.05 2646.95 -2716.59 2645.72 -2716.59 2643.95 C -2716.59 2642.84 -2715.87 2641.23 -2714.43 2639.12 C -2712.94 2637.01 -2712.2 2635.74 -2712.2 2635.31 L -2712.2 2612.63 C -2712.2 2611.95 -2712.96 2610.39 -2714.5 2607.95 C -2716.04 2605.45 -2716.8 2603.53 -2716.8 2602.19 C -2716.8 2600.7 -2716.01 2599.5 -2714.43 2598.59 L -2698.08 2598.59 L -2694.48 2601.32 L -2694.48 2633.79 C -2694.48 2633.84 -2693.72 2635.81 -2692.18 2639.7 C -2690.69 2643.35 -2690.09 2645.99 -2690.38 2647.62 z M -2721.77 2648.48 L -2741.57 2648.48 C -2743.73 2647.95 -2744.81 2646.85 -2744.81 2645.17 C -2744.81 2644.55 -2744.31 2642.48 -2743.3 2638.98 C -2742.29 2635.47 -2741.81 2632.31 -2741.86 2629.47 L -2742.94 2622.2 C -2743.95 2622.39 -2745.15 2622.99 -2746.54 2624 C -2747.88 2624.96 -2748.77 2625.51 -2749.2 2625.66 C -2750.07 2624.7 -2750.84 2622.92 -2751.51 2620.33 C -2752.13 2617.74 -2752.44 2615.05 -2752.44 2612.27 C -2752.44 2608.57 -2751.87 2605.59 -2750.72 2603.34 C -2749.42 2600.7 -2747.43 2599.38 -2744.74 2599.38 L -2725.16 2599.38 C -2722.37 2600 -2720.98 2601.27 -2720.98 2603.19 C -2720.98 2604.35 -2721.65 2606.05 -2723 2608.31 C -2724.29 2610.51 -2724.94 2611.88 -2724.94 2612.41 L -2724.94 2635.52 C -2724.94 2636.05 -2724.22 2637.44 -2722.78 2639.7 C -2721.29 2641.95 -2720.55 2643.8 -2720.55 2645.24 C -2720.55 2646.39 -2720.96 2647.47 -2721.77 2648.48 z M -2755.76 2647.47 C -2756.48 2647.62 -2757.15 2647.69 -2757.77 2647.69 C -2760.46 2647.69 -2762.72 2646.15 -2764.54 2643.08 C -2765.4 2641.64 -2766.92 2638.14 -2769.08 2632.57 C -2771 2627.58 -2772.89 2623.83 -2774.76 2621.34 C -2774.86 2621.29 -2774.96 2621.27 -2775.05 2621.27 C -2775.58 2621.27 -2776.11 2621.58 -2776.64 2622.2 C -2777.16 2622.78 -2777.43 2623.47 -2777.43 2624.29 L -2777.43 2635.52 C -2777.43 2636 -2776.76 2637.2 -2775.41 2639.12 C -2774.02 2641.04 -2773.32 2642.65 -2773.32 2643.95 C -2773.32 2645.53 -2774.24 2647.04 -2776.06 2648.48 L -2789.09 2648.48 C -2791.92 2647.23 -2793.34 2645.79 -2793.34 2644.16 C -2793.34 2643.2 -2792.67 2641.83 -2791.32 2640.06 C -2789.98 2638.23 -2789.31 2636.91 -2789.31 2636.1 L -2789.31 2612.63 C -2789.31 2611.67 -2790.03 2610.03 -2791.47 2607.73 C -2792.91 2605.38 -2793.63 2603.65 -2793.63 2602.55 C -2793.63 2601.3 -2792.93 2600.24 -2791.54 2599.38 L -2770.23 2599.38 C -2766.29 2599.23 -2762.98 2605.28 -2760.29 2617.52 C -2760.1 2618.34 -2758.71 2622.35 -2756.12 2629.55 C -2753.96 2635.59 -2752.88 2639.99 -2752.88 2642.72 C -2752.88 2645.41 -2753.84 2646.99 -2755.76 2647.47 z M -2819.76 2629.98 L -2819.76 2619.11 C -2821.97 2611.76 -2822.98 2605.71 -2822.79 2600.96 C -2821.4 2600.67 -2820.03 2600.53 -2818.68 2600.53 C -2812.97 2600.53 -2808.39 2603.05 -2804.93 2608.09 C -2801.76 2612.75 -2800.18 2618.31 -2800.18 2624.79 C -2800.18 2631.71 -2801.96 2637.42 -2805.51 2641.93 C -2809.49 2647.02 -2814.99 2649.32 -2822 2648.84 C -2823.05 2648.31 -2823.58 2647.14 -2823.58 2645.31 C -2823.58 2643.54 -2823.05 2640.9 -2822 2637.39 C -2820.56 2632.74 -2819.81 2630.27 -2819.76 2629.98 z M -2831.14 2600.17 C -2831.04 2600.84 -2831 2601.51 -2831 2602.19 C -2831 2604.49 -2831.81 2607.66 -2833.44 2611.69 C -2835.03 2615.72 -2835.82 2618.7 -2835.82 2620.62 L -2835.82 2627.03 C -2835.1 2631.3 -2834 2635.21 -2832.51 2638.76 C -2831.21 2641.79 -2830.56 2643.63 -2830.56 2644.31 C -2830.56 2645.36 -2831.07 2646.56 -2832.08 2647.91 C -2832.75 2648.29 -2833.56 2648.48 -2834.52 2648.48 C -2838.41 2648.48 -2842.9 2646.18 -2847.99 2641.57 C -2853.08 2636.96 -2855.81 2632.55 -2856.2 2628.32 L -2856.2 2616.44 C -2855.48 2612.07 -2852.96 2608.07 -2848.64 2604.42 C -2844.27 2600.77 -2840 2598.95 -2835.82 2598.95 C -2834.04 2598.95 -2832.48 2599.35 -2831.14 2600.17 z M -2860.8 2647.91 L -2882.26 2647.91 C -2884.18 2647.62 -2885.14 2645.72 -2885.14 2642.22 C -2885.14 2641.69 -2885.12 2640.97 -2885.07 2640.06 C -2885.02 2639.1 -2885 2638.4 -2885 2637.97 C -2885 2636.58 -2885.14 2635.57 -2885.43 2634.95 C -2886.48 2632.69 -2887.54 2630.43 -2888.6 2628.18 C -2889.7 2625.63 -2890.25 2623.43 -2890.25 2621.55 C -2890.25 2620.83 -2890.18 2620.14 -2890.04 2619.47 C -2889.84 2618.75 -2889.22 2617.4 -2888.16 2615.43 C -2886.82 2612.99 -2885.91 2611.21 -2885.43 2610.11 C -2885.24 2609.63 -2885.14 2609.05 -2885.14 2608.38 C -2885.14 2607.75 -2885.26 2606.79 -2885.5 2605.5 C -2885.74 2604.2 -2885.86 2603.24 -2885.86 2602.62 C -2885.86 2602.28 -2885.84 2601.97 -2885.79 2601.68 C -2885.64 2600.91 -2885.07 2600.24 -2884.06 2599.67 C -2883 2599.09 -2881.95 2598.8 -2880.89 2598.8 L -2862.1 2598.8 C -2861.38 2599.81 -2861.02 2600.75 -2861.02 2601.61 C -2861.02 2603 -2862.03 2604.51 -2864.04 2606.15 C -2866.06 2607.59 -2868.08 2609.05 -2870.09 2610.54 C -2872.54 2612.46 -2874.1 2614.38 -2874.77 2616.3 C -2874.96 2616.83 -2875.06 2617.4 -2875.06 2618.03 C -2875.06 2620.09 -2873.72 2622.85 -2871.03 2626.31 C -2868.48 2629.33 -2865.96 2632.33 -2863.47 2635.31 C -2860.73 2638.81 -2859.36 2641.71 -2859.36 2644.02 C -2859.36 2645.46 -2859.84 2646.75 -2860.8 2647.91 z M -2896.16 2635.74 C -2896.16 2636.65 -2895.65 2637.9 -2894.64 2639.48 C -2893.59 2641.07 -2893.06 2642.29 -2893.06 2643.15 C -2893.06 2644.69 -2894.19 2646.27 -2896.44 2647.91 L -2913.51 2647.91 C -2914.32 2647.91 -2914.97 2647.67 -2915.45 2647.19 C -2916.03 2646.51 -2916.58 2645.84 -2917.11 2645.17 C -2917.2 2644.26 -2916.89 2642.84 -2916.17 2640.92 C -2915.07 2637.95 -2914.42 2636.12 -2914.23 2635.45 C -2914.04 2634.78 -2913.92 2633.94 -2913.87 2632.93 C -2913.82 2632.26 -2913.82 2631.39 -2913.87 2630.34 C -2913.92 2628.95 -2913.94 2628.13 -2913.94 2627.89 L -2913.94 2610.32 C -2913.94 2609.79 -2914.49 2608.43 -2915.6 2606.22 C -2916.7 2604.01 -2917.25 2601.56 -2917.25 2598.87 L -2896.52 2598.87 C -2893.73 2599.4 -2892.34 2600.53 -2892.34 2602.26 C -2892.34 2603.36 -2892.99 2604.9 -2894.28 2606.87 C -2895.53 2608.79 -2896.16 2609.87 -2896.16 2610.11 L -2896.16 2635.74 z M -2475.75 2705 C -2475.56 2705.67 -2475.46 2706.35 -2475.46 2707.02 C -2475.46 2710.14 -2476.92 2713.14 -2479.85 2716.02 C -2482.78 2718.9 -2485.68 2720.34 -2488.56 2720.34 C -2490.05 2720.34 -2491.32 2719.86 -2492.38 2718.9 L -2492.38 2708.67 C -2492.38 2706.08 -2493.48 2703.66 -2495.69 2701.4 C -2498.04 2699 -2500.83 2697.8 -2504.04 2697.8 C -2504.62 2697.8 -2505.17 2697.83 -2505.7 2697.87 C -2506.13 2697.15 -2506.35 2696.19 -2506.35 2694.99 C -2506.35 2693.89 -2506.13 2692.93 -2505.7 2692.11 C -2503.2 2692.11 -2500.71 2691.73 -2498.21 2690.96 C -2494.32 2689.81 -2492.38 2688.01 -2492.38 2685.56 L -2492.38 2674.55 C -2491.56 2672.43 -2490.08 2671.38 -2487.92 2671.38 C -2485.37 2671.38 -2482.78 2672.67 -2480.14 2675.27 C -2477.5 2677.86 -2476.18 2680.55 -2476.18 2683.33 C -2476.18 2684.19 -2476.35 2685.06 -2476.68 2685.92 C -2477.02 2686.74 -2477.98 2688.08 -2479.56 2689.95 C -2481.34 2692.02 -2482.44 2693.41 -2482.88 2694.13 C -2482.49 2694.99 -2481.24 2696.77 -2479.13 2699.46 C -2477.26 2701.95 -2476.13 2703.8 -2475.75 2705 z M -2501.88 2670.95 C -2501.6 2671.57 -2501.45 2672.39 -2501.45 2673.39 C -2501.45 2676.08 -2502.24 2678.94 -2503.83 2681.96 C -2505.56 2685.18 -2507.55 2687.1 -2509.8 2687.72 C -2512.49 2688.44 -2515.06 2686.98 -2517.51 2683.33 C -2517.99 2682.66 -2518.23 2681.91 -2518.23 2681.1 C -2518.23 2678.94 -2516.79 2676.71 -2513.91 2674.4 C -2511.41 2672.34 -2509.2 2671.16 -2507.28 2670.87 C -2506.66 2670.78 -2505.77 2670.75 -2504.62 2670.8 C -2502.94 2670.9 -2502.03 2670.95 -2501.88 2670.95 z M -2501.16 2719.4 C -2501.16 2719.98 -2501.55 2720.48 -2502.32 2720.91 C -2503.04 2721.35 -2503.68 2721.56 -2504.26 2721.56 C -2507.62 2721.56 -2510.98 2720.77 -2514.34 2719.19 C -2518.42 2717.22 -2520.46 2714.72 -2520.46 2711.7 C -2520.46 2709.11 -2519.76 2707.07 -2518.37 2705.58 C -2516.93 2704.04 -2515.04 2703.27 -2512.68 2703.27 C -2509.04 2703.27 -2506.13 2705.05 -2503.97 2708.6 C -2502.1 2711.72 -2501.16 2715.32 -2501.16 2719.4 z M -2537.6 2701.76 L -2539.97 2673.47 C -2534.07 2674.47 -2529.41 2677.4 -2526 2682.25 C -2522.88 2686.67 -2521.32 2691.8 -2521.32 2697.66 C -2521.32 2703.13 -2522.69 2707.93 -2525.43 2712.06 C -2528.45 2716.57 -2532.63 2719.4 -2537.96 2720.55 C -2538.68 2719.74 -2539.04 2718.15 -2539.04 2715.8 C -2539.04 2714.07 -2538.8 2711.58 -2538.32 2708.31 C -2537.84 2704.76 -2537.6 2702.58 -2537.6 2701.76 z M -2547.24 2719.69 C -2548.35 2720.65 -2549.57 2721.13 -2550.92 2721.13 C -2554.28 2721.13 -2557.8 2718.78 -2561.5 2714.07 C -2565 2709.61 -2566.9 2705.51 -2567.19 2701.76 L -2567.19 2690.67 C -2566.37 2686.83 -2564.43 2682.97 -2561.36 2679.08 C -2557.95 2674.76 -2554.66 2672.6 -2551.49 2672.6 C -2550.87 2672.6 -2550.27 2672.7 -2549.69 2672.89 C -2548.49 2673.37 -2547.89 2674.67 -2547.89 2676.78 C -2547.89 2678.07 -2548.18 2680.31 -2548.76 2683.47 C -2549.52 2687.65 -2550.03 2690.65 -2550.27 2692.47 L -2550.27 2700.9 C -2549.36 2705.55 -2548.35 2711.82 -2547.24 2719.69 z M -2584.83 2701.76 L -2587.2 2673.47 C -2581.3 2674.47 -2576.64 2677.4 -2573.24 2682.25 C -2570.12 2686.67 -2568.56 2691.8 -2568.56 2697.66 C -2568.56 2703.13 -2569.92 2707.93 -2572.66 2712.06 C -2575.68 2716.57 -2579.86 2719.4 -2585.19 2720.55 C -2585.91 2719.74 -2586.27 2718.15 -2586.27 2715.8 C -2586.27 2714.07 -2586.03 2711.58 -2585.55 2708.31 C -2585.07 2704.76 -2584.83 2702.58 -2584.83 2701.76 z M -2594.48 2719.69 C -2595.58 2720.65 -2596.8 2721.13 -2598.15 2721.13 C -2601.51 2721.13 -2605.04 2718.78 -2608.73 2714.07 C -2612.24 2709.61 -2614.13 2705.51 -2614.42 2701.76 L -2614.42 2690.67 C -2613.6 2686.83 -2611.66 2682.97 -2608.59 2679.08 C -2605.18 2674.76 -2601.89 2672.6 -2598.72 2672.6 C -2598.1 2672.6 -2597.5 2672.7 -2596.92 2672.89 C -2595.72 2673.37 -2595.12 2674.67 -2595.12 2676.78 C -2595.12 2678.07 -2595.41 2680.31 -2595.99 2683.47 C -2596.76 2687.65 -2597.26 2690.65 -2597.5 2692.47 L -2597.5 2700.9 C -2596.59 2705.55 -2595.58 2711.82 -2594.48 2719.69 z M -2643.51 2676.2 C -2643.56 2677.83 -2644.01 2679.8 -2644.88 2682.11 C -2645.64 2684.17 -2646.46 2685.83 -2647.32 2687.07 C -2648.14 2688.32 -2649.65 2688.95 -2651.86 2688.95 C -2653.54 2688.95 -2655.29 2688.59 -2657.12 2687.87 C -2658.89 2687.15 -2659.78 2685.78 -2659.78 2683.76 C -2659.78 2683.62 -2659.64 2682.25 -2659.35 2679.66 C -2659.11 2677.64 -2655.22 2675.17 -2647.68 2672.24 C -2644.8 2673.35 -2643.41 2674.67 -2643.51 2676.2 z M -2618.6 2691.03 C -2620.47 2693.24 -2622.77 2694.92 -2625.51 2696.07 C -2625.99 2696.27 -2628.44 2697.03 -2632.85 2698.38 C -2635.88 2699.29 -2638.32 2700.44 -2640.2 2701.83 C -2638.23 2705.77 -2634.84 2707.74 -2630.04 2707.74 C -2626.64 2707.74 -2623.04 2706.75 -2619.24 2704.79 C -2619.1 2711.03 -2620.44 2715.59 -2623.28 2718.47 C -2625.68 2720.87 -2628.96 2721.92 -2633.14 2721.63 C -2634.72 2721.54 -2637.27 2720.84 -2640.77 2719.55 C -2644.04 2718.35 -2646.77 2717.75 -2648.98 2717.75 C -2652.63 2717.75 -2656.13 2718.47 -2659.49 2719.91 C -2659.59 2719.09 -2659.64 2718.23 -2659.64 2717.31 C -2659.64 2713.33 -2658.65 2709.42 -2656.68 2705.58 C -2654.57 2701.5 -2651.84 2698.52 -2648.48 2696.65 C -2646.12 2695.83 -2643.77 2695.04 -2641.42 2694.27 C -2638.25 2693.03 -2635.97 2690.94 -2634.58 2688.01 C -2633.81 2686.47 -2633.43 2684.96 -2633.43 2683.47 C -2633.43 2682.42 -2633.69 2681 -2634.22 2679.23 C -2634.75 2677.45 -2635.01 2676.11 -2635.01 2675.19 C -2635.01 2674.67 -2634.96 2674.14 -2634.87 2673.61 C -2633.96 2672.84 -2632.88 2672.46 -2631.63 2672.46 C -2628.65 2672.46 -2625.53 2674.16 -2622.27 2677.57 C -2619 2680.98 -2617.37 2684.27 -2617.37 2687.43 C -2617.37 2688.83 -2617.78 2690.03 -2618.6 2691.03 z M -2695.35 2713.07 C -2695.49 2715.95 -2696.69 2718.2 -2698.95 2719.83 C -2700.96 2721.27 -2703.46 2721.99 -2706.44 2721.99 C -2708.93 2721.99 -2711.24 2721.49 -2713.35 2720.48 C -2715.6 2719.43 -2717.28 2717.96 -2718.39 2716.09 C -2718.96 2715.13 -2719.52 2713.35 -2720.04 2710.76 C -2720.62 2707.83 -2721.1 2705.91 -2721.48 2705 C -2722.01 2703.75 -2723.07 2702.43 -2724.65 2701.04 C -2726.48 2699.51 -2727.58 2698.43 -2727.96 2697.8 C -2728.68 2696.75 -2728.9 2695.07 -2728.61 2692.76 C -2727.12 2691.95 -2725.66 2691.13 -2724.22 2690.31 C -2722.4 2689.21 -2721.22 2688.06 -2720.69 2686.86 C -2720.21 2685.85 -2719.97 2684.94 -2719.97 2684.12 C -2719.97 2682.35 -2721.46 2680.55 -2724.44 2678.72 C -2727.36 2676.9 -2728.83 2675.12 -2728.83 2673.39 C -2728.83 2673.06 -2728.78 2672.7 -2728.68 2672.31 L -2714.86 2671.38 C -2711.21 2671.57 -2707.8 2673.06 -2704.64 2675.84 C -2701.47 2678.63 -2699.88 2681.55 -2699.88 2684.63 C -2699.88 2685.54 -2700.05 2686.4 -2700.39 2687.22 C -2700.77 2688.18 -2701.61 2689.26 -2702.91 2690.46 C -2704.16 2691.61 -2705.4 2692.76 -2706.65 2693.91 C -2705.64 2697.23 -2704.66 2700.54 -2703.7 2703.85 C -2702.07 2707.98 -2699.28 2711.05 -2695.35 2713.07 z M -2731.56 2719.62 L -2753.16 2719.62 C -2756.24 2718.95 -2757.77 2717.72 -2757.77 2715.95 C -2757.77 2714.84 -2757.05 2713.23 -2755.61 2711.12 C -2754.12 2709.01 -2753.38 2707.74 -2753.38 2707.31 L -2753.38 2684.63 C -2753.38 2683.95 -2754.15 2682.39 -2755.68 2679.95 C -2757.22 2677.45 -2757.99 2675.53 -2757.99 2674.19 C -2757.99 2672.7 -2757.2 2671.5 -2755.61 2670.59 L -2739.27 2670.59 L -2735.67 2673.32 L -2735.67 2705.79 C -2735.67 2705.84 -2734.9 2707.81 -2733.36 2711.7 C -2731.88 2715.35 -2731.28 2717.99 -2731.56 2719.62 z M -2762.02 2688.59 C -2762.84 2689.45 -2764.08 2690.19 -2765.76 2690.82 C -2767.44 2691.39 -2769 2691.68 -2770.44 2691.68 C -2771.93 2691.68 -2773.08 2691.08 -2773.9 2689.88 C -2774.38 2689.21 -2774.93 2687.87 -2775.56 2685.85 C -2776.18 2683.98 -2776.8 2682.68 -2777.43 2681.96 C -2778.58 2680.62 -2780.5 2679.49 -2783.19 2678.58 C -2786.6 2677.38 -2788.78 2676.49 -2789.74 2675.91 C -2788.83 2672.41 -2787.34 2670.8 -2785.28 2671.09 L -2764.83 2671.09 C -2764.16 2671.76 -2763.22 2672.7 -2762.02 2673.9 L -2762.02 2688.59 z M -2782.32 2691.68 C -2782.32 2694.9 -2782.44 2697.03 -2782.68 2698.09 C -2783.16 2700.39 -2784.29 2701.55 -2786.07 2701.55 C -2787.32 2701.55 -2788.52 2700.85 -2789.67 2699.46 C -2790.77 2698.07 -2791.32 2696.7 -2791.32 2695.35 C -2791.32 2693.91 -2790.63 2692.21 -2789.24 2690.24 C -2787.75 2688.08 -2786.33 2687 -2784.99 2687 C -2783.21 2687 -2782.32 2688.56 -2782.32 2691.68 z M -2762.88 2716.52 C -2762.88 2717.39 -2763.24 2718.15 -2763.96 2718.83 C -2764.49 2719.26 -2765.04 2719.71 -2765.62 2720.19 L -2787.8 2720.19 C -2788.71 2720.19 -2789.43 2719.64 -2789.96 2718.54 C -2790.48 2717.43 -2790.68 2716.4 -2790.53 2715.44 C -2789.43 2713.57 -2787.82 2712.63 -2785.71 2712.63 C -2785.56 2712.63 -2785.3 2712.63 -2784.92 2712.63 C -2784.53 2712.68 -2784.27 2712.71 -2784.12 2712.71 C -2782.59 2712.71 -2781.36 2712.35 -2780.45 2711.63 C -2779.06 2710.57 -2777.79 2708.84 -2776.64 2706.44 C -2775.15 2703.37 -2774.14 2701.5 -2773.61 2700.83 L -2762.88 2700.83 L -2762.88 2716.52 z M -2796.94 2671.16 C -2797.13 2672.17 -2797.28 2675.07 -2797.37 2679.87 L -2797.37 2716.59 C -2798.09 2717.51 -2799.39 2718.71 -2801.26 2720.19 L -2815.88 2720.19 C -2817.32 2719.38 -2818.04 2718.27 -2818.04 2716.88 C -2818.04 2715.63 -2817.32 2713.74 -2815.88 2711.19 C -2814.39 2708.65 -2813.64 2706.97 -2813.64 2706.15 L -2813.64 2691.11 C -2813.64 2686.79 -2813.76 2683.95 -2814 2682.61 C -2814.05 2682.13 -2814.53 2681.17 -2815.44 2679.73 C -2816.36 2678.29 -2816.81 2677.26 -2816.81 2676.63 C -2816.86 2676.44 -2816.93 2676.11 -2817.03 2675.63 C -2817.08 2675.1 -2817.1 2674.69 -2817.1 2674.4 C -2817.1 2672.77 -2815.88 2671.69 -2813.43 2671.16 L -2796.94 2671.16 z M -2820.41 2685.2 C -2821.85 2687.22 -2824.18 2688.23 -2827.4 2688.23 C -2829.56 2688.23 -2831.12 2687.77 -2832.08 2686.86 C -2832.36 2686.52 -2833.2 2685.27 -2834.6 2683.11 C -2835.84 2681.1 -2836.95 2679.71 -2837.91 2678.94 C -2838.44 2678.51 -2839.47 2678.12 -2841 2677.79 C -2842.97 2677.31 -2844.2 2676.97 -2844.68 2676.78 C -2845.92 2675.82 -2846.55 2674.88 -2846.55 2673.97 C -2845.44 2672 -2843.36 2670.49 -2840.28 2669.43 L -2820.41 2669.43 L -2820.41 2685.2 z M -2839.85 2698.81 C -2841.15 2700.06 -2842.35 2700.68 -2843.45 2700.68 C -2844.56 2700.68 -2845.42 2700.08 -2846.04 2698.88 C -2846.67 2697.68 -2846.98 2696.22 -2846.98 2694.49 C -2846.98 2692.71 -2846.62 2691.06 -2845.9 2689.52 C -2845.13 2687.94 -2844.05 2686.88 -2842.66 2686.35 C -2841.99 2686.98 -2841.05 2687.91 -2839.85 2689.16 L -2839.85 2698.81 z M -2853.32 2675.7 L -2854.18 2702.77 C -2850.92 2708.91 -2849.28 2713.23 -2849.28 2715.73 C -2849.28 2717.7 -2850.32 2718.99 -2852.38 2719.62 C -2853.72 2720 -2856.48 2720.19 -2860.66 2720.19 L -2873.33 2720.19 C -2874.87 2719.47 -2875.64 2718.47 -2875.64 2717.17 C -2875.64 2716.07 -2874.89 2714.34 -2873.4 2711.99 C -2871.87 2709.59 -2871.1 2707.91 -2871.1 2706.95 L -2871.1 2699.46 L -2870.31 2686.79 C -2870.4 2686.02 -2871.15 2683.91 -2872.54 2680.45 C -2873.84 2677.23 -2874.48 2675.07 -2874.48 2673.97 C -2874.48 2673.39 -2874.34 2673.01 -2874.05 2672.82 C -2873 2672.72 -2870.86 2672.27 -2867.64 2671.45 C -2864.57 2670.68 -2862.24 2670.3 -2860.66 2670.3 C -2856.87 2670.3 -2854.42 2672.1 -2853.32 2675.7 z M -2879.52 2671.09 C -2879.09 2671.57 -2878.88 2672.22 -2878.88 2673.03 C -2878.88 2674.23 -2879.33 2675.41 -2880.24 2676.56 C -2880.72 2677.19 -2881.64 2678 -2882.98 2679.01 C -2884.47 2680.16 -2885.48 2681 -2886 2681.53 C -2887.25 2682.87 -2888.5 2684.19 -2889.75 2685.49 C -2891 2686.74 -2891.93 2687.29 -2892.56 2687.15 C -2893.9 2686.81 -2895.2 2685.42 -2896.44 2682.97 C -2897.64 2680.52 -2898.24 2678.1 -2898.24 2675.7 C -2898.24 2673.73 -2897.76 2672.19 -2896.8 2671.09 L -2879.52 2671.09 z M -2877.72 2712.71 C -2877.2 2713.28 -2876.93 2713.95 -2876.93 2714.72 C -2876.93 2715.73 -2877.32 2716.76 -2878.08 2717.82 C -2878.8 2718.87 -2879.6 2719.67 -2880.46 2720.19 L -2901.84 2720.19 C -2903.38 2719.47 -2904.15 2718.2 -2904.15 2716.38 C -2904.15 2715.71 -2904.03 2714.63 -2903.79 2713.14 C -2903.5 2711.65 -2903.36 2710.55 -2903.36 2709.83 C -2903.36 2708.1 -2903.86 2706.71 -2904.87 2705.65 C -2907.08 2703.39 -2910.51 2699.58 -2915.16 2694.2 C -2919.44 2689.26 -2922.82 2685.56 -2925.32 2683.11 C -2926.08 2682.35 -2927.4 2681.41 -2929.28 2680.31 C -2931.15 2679.15 -2932.47 2678.22 -2933.24 2677.5 C -2933.96 2676.73 -2934.32 2675.87 -2934.32 2674.91 C -2934.32 2673.61 -2933.76 2672.48 -2932.66 2671.52 C -2931.51 2670.56 -2930.24 2670.13 -2928.84 2670.23 L -2908.47 2671.09 C -2907.08 2671.33 -2906.38 2672.65 -2906.38 2675.05 C -2906.38 2675.48 -2906.4 2676.2 -2906.45 2677.21 C -2906.5 2678.22 -2906.52 2679.01 -2906.52 2679.59 C -2906.52 2682.66 -2905.88 2684.96 -2904.58 2686.5 C -2901.75 2689.86 -2897.26 2694.3 -2891.12 2699.82 C -2884.59 2705.72 -2880.12 2710.02 -2877.72 2712.71 z M -2916.75 2703.71 C -2915.45 2704.67 -2914.28 2706.23 -2913.22 2708.39 C -2912.12 2710.69 -2911.56 2712.83 -2911.56 2714.79 C -2911.56 2718.35 -2913.36 2720.15 -2916.96 2720.19 L -2926.4 2720.19 C -2926.92 2719.91 -2927.84 2719.69 -2929.13 2719.55 C -2930.38 2719.35 -2931.27 2719.11 -2931.8 2718.83 C -2932.66 2718.39 -2933.24 2717.58 -2933.52 2716.38 C -2933.28 2715.27 -2932.52 2714.12 -2931.22 2712.92 C -2929.97 2711.96 -2928.2 2710.55 -2925.89 2708.67 C -2921.86 2705.07 -2919.17 2703.27 -2917.83 2703.27 C -2917.4 2703.27 -2917.04 2703.42 -2916.75 2703.71 z M -2937.34 2671.67 C -2936.76 2672.82 -2936.48 2674.02 -2936.48 2675.27 C -2936.48 2676.85 -2937.03 2678.82 -2938.13 2681.17 C -2939.19 2683.47 -2939.72 2684.94 -2939.72 2685.56 L -2939.72 2705.94 C -2939.76 2708.67 -2941.68 2711.7 -2945.48 2715.01 C -2949.22 2718.27 -2952.6 2719.91 -2955.63 2719.91 C -2956.2 2719.91 -2956.76 2719.81 -2957.28 2719.62 C -2957.81 2719.43 -2958.27 2718.8 -2958.65 2717.75 C -2958.99 2716.83 -2959.16 2715.87 -2959.16 2714.87 C -2959.16 2714.24 -2959.08 2713.76 -2958.94 2713.43 C -2957.6 2711.6 -2956.25 2709.78 -2954.91 2707.95 C -2953.23 2705.55 -2952.39 2702.87 -2952.39 2699.89 L -2952.39 2689.16 C -2952.39 2686.62 -2953.42 2683.74 -2955.48 2680.52 C -2957.5 2677.26 -2958.51 2675.31 -2958.51 2674.69 C -2958.51 2672.67 -2954.31 2671.67 -2945.91 2671.67 L -2937.34 2671.67 z M -2968.73 2720.55 C -2971.37 2720.89 -2974.95 2719.64 -2979.46 2716.81 C -2984.36 2713.74 -2987.19 2710.43 -2987.96 2706.87 L -2987.96 2688.3 C -2987.96 2685.61 -2988.58 2683.28 -2989.83 2681.31 C -2991.03 2679.3 -2991.63 2677.69 -2991.63 2676.49 C -2991.63 2675.05 -2991.2 2673.18 -2990.33 2670.87 L -2971.4 2670.87 C -2967.94 2671.4 -2966.21 2672.63 -2966.21 2674.55 C -2966.21 2675.75 -2967.03 2677.57 -2968.66 2680.02 C -2970.24 2682.42 -2971.04 2683.98 -2971.04 2684.7 L -2971.04 2703.49 C -2971.04 2704.4 -2970.22 2706.3 -2968.59 2709.18 C -2966.91 2712.01 -2966.07 2714.22 -2966.07 2715.8 C -2966.07 2717.67 -2966.96 2719.26 -2968.73 2720.55 z M -2993.79 2714.79 C -2993.79 2715.8 -2994.2 2716.86 -2995.01 2717.96 C -2995.78 2719.02 -2996.62 2719.76 -2997.53 2720.19 L -3012.15 2720.19 C -3012.77 2719.57 -3013.37 2718.71 -3013.95 2717.6 C -3014.52 2716.45 -3014.81 2715.56 -3014.81 2714.94 C -3014.81 2714.7 -3014.76 2714.53 -3014.67 2714.43 C -3013.56 2713.33 -3012.48 2712.23 -3011.43 2711.12 C -3009.89 2709.44 -3008.91 2708.05 -3008.48 2706.95 C -3008.48 2706.9 -3008.21 2705.82 -3007.68 2703.71 C -3007.3 2702.03 -3006.8 2700.8 -3006.17 2700.03 C -3005.26 2698.83 -3003.63 2698.23 -3001.28 2698.23 C -2999.16 2698.23 -2997.27 2698.64 -2995.59 2699.46 C -2994.39 2701.43 -2993.79 2703.13 -2993.79 2704.57 L -2993.79 2714.79 z M -3021.72 2713.93 C -3021.72 2714.51 -3022.2 2715.61 -3023.16 2717.24 C -3024.32 2719.21 -3025.42 2720.19 -3026.48 2720.19 L -3035.62 2720.19 C -3040.85 2720.19 -3043.47 2718.9 -3043.47 2716.31 C -3043.47 2715.11 -3042.82 2713.38 -3041.52 2711.12 C -3040.18 2708.82 -3039.51 2707.43 -3039.51 2706.95 L -3039.51 2683.47 C -3039.51 2682.13 -3040.23 2680.33 -3041.67 2678.07 C -3043.11 2675.82 -3043.83 2674.28 -3043.83 2673.47 C -3043.83 2671.98 -3042.27 2670.9 -3039.15 2670.23 L -3025.68 2670.23 C -3019.68 2670.23 -3016.68 2671.09 -3016.68 2672.82 C -3016.68 2673.59 -3017.52 2675.07 -3019.2 2677.28 C -3020.88 2679.49 -3021.72 2681.19 -3021.72 2682.39 L -3021.72 2713.93 z "
     id="path211" />
  <path
     style="font-size:12;fill-opacity:0.510417;fill-rule:evenodd;stroke:#ffffff;stroke-width:0.843662;stroke-opacity:0.572917;"
     d="M -573.138 509.917 L -577.956 510.411 L -580.275 514.663 L -582.236 510.236 L -586.994 509.342 L -583.39 506.11 L -584.01 501.31 L -579.824 503.737 L -575.45 501.661 L -576.467 506.398 L -573.138 509.917 z "
     id="path253"
     transform="matrix(0.916976,0,0,0.916977,820.588,86.6884)" />
  <path
     style="font-size:12;fill-rule:evenodd;stroke:none;stroke-width:1.25;stroke-opacity:0.5;"
     d="M -11.8616 556.052 C -17.9816 537.688 1.10641 524.714 6.50241 524.086 C 30.3511 521.312 49.7731 527.099 52.7511 536.329 C 56.5741 548.182 55.5011 558.584 45.9491 559.453 C 40.5381 559.945 30.9861 557.412 30.9861 557.412 C 28.2661 559.453 17.3844 560.813 9.90341 556.733 C 7.18241 559.453 -11.1816 558.092 -11.8616 556.052 z "
     id="path254"
     sodipodi:nodetypes="csssccc" />
  <path
     style="font-size:12;fill-rule:evenodd;stroke:none;stroke-width:1.25;stroke-opacity:0.5;"
     d="M 64.9921 524.766 C 62.4481 527.774 60.3651 541.565 64.8751 543.61 C 75.8541 548.372 82.4661 554.858 91.6491 556.252 C 95.0821 556.748 106.612 555.572 107.461 551.15 C 108.822 555.401 125.824 550.299 125.824 546.728 C 127.014 549.791 134.091 547.264 137.233 546.438 C 141.648 545.215 144.97 538.989 142.826 530.067 C 140.827 521.257 130.139 522.536 107.161 511.844 C 103.4 510.137 69.9291 518.932 64.9921 524.766 z "
     id="path255"
     sodipodi:nodetypes="cssccssss" />
  <path
     style="font-size:12;fill-rule:evenodd;stroke:none;stroke-width:1.25;stroke-opacity:0.5;"
     d="M 67.9761 95.6148 C 66.6151 100.035 64.5741 130.981 65.2551 140.503 C 68.9941 140.843 101.98 141.863 101.98 141.863 C 101.98 141.863 105.722 101.735 105.722 101.735 C 105.722 101.735 68.6551 95.9528 67.9761 95.6148 z "
     id="path256"
     sodipodi:nodetypes="ccccc" />
  <path
     style="font-size:12;fill-rule:evenodd;stroke:none;stroke-width:1.25;stroke-linecap:round;stroke-linejoin:round;stroke-opacity:0.5;"
     d="M 54.7121 533.617 C 42.4691 522.056 7.10341 522.735 -2.41859 526.815 C 5.74341 499.611 34.3071 343.185 41.1101 307.819 C 56.0721 309.181 114.047 294.245 114.561 299.658 C 119.641 345.919 116.646 358.767 115.242 370.389 C 112.102 393.334 109.606 416.648 109.12 427.519 C 107.08 473.767 111.84 511.854 111.84 511.854 C 67.6331 522.735 75.1151 533.617 60.1521 532.257 C 60.1521 527.496 58.7921 509.133 58.7921 509.133 C 58.7921 509.133 56.0721 528.175 54.7121 533.617 z "
     id="path257"
     sodipodi:nodetypes="cccssscccc" />
  <path
     style="font-size:12;fill-rule:evenodd;stroke:none;stroke-width:1.25;stroke-linecap:round;stroke-linejoin:round;stroke-opacity:0.5;"
     d="M 98.9511 225.132 C 110.593 199.586 146.488 200.537 143.872 211.772 C 148.732 213.258 139.413 166.578 134.096 157.966 C 127.338 147.756 104.746 134.486 105.894 135.217 C 107.04 135.95 84.8431 225.635 98.9511 225.132 z "
     id="path258"
     sodipodi:nodetypes="ccccc" />
  <path
     style="font-size:12;fill-rule:evenodd;stroke:none;stroke-width:1.25;stroke-linecap:round;stroke-linejoin:round;stroke-opacity:0.5;"
     d="M 29.5461 322.782 C 60.3241 349.231 86.9351 316.695 122.041 321.505 C 121.559 299.383 116.109 291.768 117.892 270.956 C 118.994 258.104 127.481 192.2 127.481 192.2 C 127.481 192.2 129.283 159.597 105.72 135.071 C 98.0241 141.323 86.0731 144.689 64.9131 135.071 C 60.1031 137.475 46.5361 147.564 34.6001 159.016 C 71.2391 202.69 43.7751 288.837 29.5461 322.782 z "
     id="path259"
     sodipodi:nodetypes="ccsccccc" />
  <path
     style="font-size:12;fill:#ffffff;fill-opacity:0.795918;fill-rule:evenodd;stroke:#ffffff;stroke-width:3.75;stroke-opacity:0.5;"
     d="M 114.11 222.321 C 110.378 218.704 105.104 215.087 101.592 213.452 C 97.2211 216.306 92.8471 219.161 88.4761 222.016 C 89.5041 215.871 90.5291 209.728 91.5581 203.583 C 88.2511 199.183 84.9441 194.784 81.6371 190.383 C 86.4451 189.543 91.2521 188.702 96.0601 187.86 C 98.3891 182.287 100.717 176.712 103.045 171.139 C 104.917 176.764 106.787 182.388 108.656 188.014 C 112.963 187.646 119.248 186.179 123.555 184.271 C 120.021 191.232 116.489 197.751 112.296 203.83 C 113.561 208.892 113.946 216.597 114.11 222.321 z "
     id="path260"
     sodipodi:nodetypes="ccccccccccc" />
  <path
     style="font-size:12;fill-rule:evenodd;stroke:none;stroke-width:1.25;stroke-opacity:0.5;"
     d="M 55.8621 146.1 C 52.3311 146.814 31.6871 157.788 32.7761 165.337 C 41.3171 232.585 64.4971 265.465 73.1741 267.292 C 77.9741 268.301 90.2121 269.376 92.8451 262.519 C 96.4651 254.232 104.585 243.799 104.585 243.799 C 94.3821 232.238 83.7511 222.404 76.3511 222.455 C 76.2111 215.485 73.3261 184.123 71.2501 158.604 C 70.9471 154.878 59.3541 145.395 55.8621 146.1 z "
     id="path261"
     sodipodi:nodetypes="csssccsc" />
  <path
     style="font-size:12;fill-rule:evenodd;stroke:none;stroke-width:1.25;stroke-linecap:round;stroke-linejoin:round;stroke-opacity:0.5;"
     d="M 41.2831 219.997 C 24.3204 204.973 78.5981 189.932 77.1561 205.803 C 80.5221 194.742 72.5231 162.863 71.0341 156.834 C 69.7601 149.736 56.0721 144.593 56.0721 144.593 C 56.0721 144.593 33.1701 154.981 30.4751 165.861 C 27.9841 173.97 30.8891 227.314 41.2831 219.997 z "
     id="path262"
     sodipodi:nodetypes="ccscsc" />
  <path
     style="font-size:12;fill-rule:evenodd;stroke:none;stroke-width:1.25;stroke-opacity:0.5;"
     d="M 92.6101 124.86 C 92.6101 124.86 86.4891 125.201 86.4891 125.201 C 86.4891 125.201 69.7361 112.741 68.8061 111.087 C 68.2061 110.02 69.3151 102.245 69.1461 96.9738 C 68.8051 95.7838 63.5641 94.3778 64.7671 91.0108 C 64.0451 94.3778 69.4851 91.8728 69.4851 91.8728 C 69.4851 91.8728 61.5241 85.9743 63.2081 82.1277 C 62.4851 85.4935 69.4851 84.7319 69.4851 84.3914 C 69.4851 84.051 61.2831 77.9958 62.7261 74.148 C 62.4851 77.7559 68.4661 77.2506 68.4661 77.2506 C 68.4661 77.2506 62.0791 70.4325 63.0411 67.0655 C 62.5601 70.1914 68.4661 69.5984 68.4661 69.5984 C 68.4661 69.5984 63.8751 62.4574 63.0251 61.6069 C 63.7041 58.8865 69.8031 46.2471 70.6761 45.1135 C 71.5031 44.0372 70.8451 40.5229 70.8451 40.5229 C 70.8451 40.5229 72.7161 40.3533 73.9051 40.5229 C 73.7351 33.2124 73.3641 37.0656 73.7351 35.7623 C 76.8791 25.3718 83.7691 21.9897 87.1691 18.2495 C 87.5081 20.1191 89.8891 31.3417 89.8891 31.3417 C 89.8891 31.3417 90.0601 25.3905 90.0601 25.3905 C 92.2691 25.3905 96.0111 27.9409 96.0111 27.9409 C 96.0111 27.9409 95.5001 23.1807 94.6501 22.8402 C 96.0111 23.0098 100.261 25.731 101.791 28.2814 C 102.131 26.7511 100.09 21.9908 100.09 21.9908 C 113.522 23.6906 117.094 32.7024 117.094 32.7024 C 117.772 31.6823 126.274 28.7913 126.954 27.6017 C 127.974 31.6823 125.46 45.599 125.254 46.9853 C 124.27 53.5905 124.785 59.124 123.555 59.9066 C 122.914 60.3138 119.813 62.6282 119.813 62.6282 C 119.813 62.6282 123.555 61.9474 123.555 61.9474 C 123.555 61.9474 122.803 69.9822 122.803 69.9822 C 123.214 69.9822 120.255 73.4235 120.255 73.4235 C 120.255 73.4235 111.652 85.0711 111.652 85.0711 C 111.652 85.0711 113.834 89.4098 113.352 90.8528 C 113.352 92.7758 110.479 98.1859 110.479 98.5258 C 110.479 98.8659 106.552 107.176 106.552 107.176 C 106.552 107.176 104.171 118.738 104.171 118.738 C 104.171 118.738 99.4111 123.84 99.4111 123.84 C 99.4111 123.84 92.9491 125.201 92.6101 124.86 z "
     id="path263"
     sodipodi:nodetypes="ccsccccccccccsccscccccccccssccccccccccc" />
  <path
     style="font-size:12;fill:#ffffff;fill-rule:evenodd;stroke:none;stroke-width:1.25;stroke-opacity:0.5;"
     d="M 75.9471 40.1836 C 76.1171 37.9734 81.2181 25.0513 86.8281 18.7596 C 87.3391 21.1403 90.2291 35.083 90.2291 35.083 C 90.2291 35.083 87.1691 30.8316 85.8071 30.4912 C 86.3181 31.5114 85.4691 34.9123 85.4691 34.9123 C 85.4691 34.9123 82.5781 33.2124 81.5571 33.2124 C 82.0681 34.7426 80.0271 39.8432 80.0271 39.8432 C 80.0271 39.8432 78.8361 37.8025 78.3261 37.4621 C 77.8171 38.1419 77.3061 40.0128 75.9471 40.1836 z "
     id="path264"
     sodipodi:nodetypes="ccccccccc" />
  <path
     style="font-size:12;fill:#ffffff;fill-rule:evenodd;stroke:none;stroke-width:1.25;stroke-opacity:0.5;"
     d="M 117.772 34.7414 C 117.772 34.7414 125.085 30.3215 126.274 28.961 C 126.954 31.6811 124.914 44.6046 124.914 44.6046 C 124.914 44.6046 123.723 38.4834 123.723 38.4834 C 123.723 38.4834 122.024 41.543 122.024 41.543 C 122.024 41.543 121.684 36.9521 121.684 36.9521 C 121.684 36.9521 119.813 38.8227 119.813 38.8227 C 119.813 38.8227 118.793 35.7623 117.772 34.7414 z "
     id="path265"
     sodipodi:nodetypes="cccccccc" />
  <path
     style="font-size:12;fill:#ffffff;fill-opacity:0.5;fill-rule:evenodd;stroke:#ffffff;stroke-width:1.25;stroke-opacity:0.5;"
     d="M 83.9391 63.3079 C 88.9671 67.7569 100.846 72.9875 106.016 72.9875 C 104.574 75.6325 98.5141 83.3713 98.5141 83.3713 C 87.2121 83.1303 77.9861 76.4 77.9861 76.4 C 77.9861 76.4 83.3571 66.3683 83.9391 63.3079 z "
     id="path266"
     sodipodi:nodetypes="ccccc" />
  <path
     style="font-size:12;fill:#ffffff;fill-opacity:0.5;fill-rule:evenodd;stroke:none;stroke-width:1.25;stroke-opacity:0.5;"
     d="M 110.753 73.4894 C 109.422 75.993 104.432 83.238 103.45 84.3914 C 108.259 84.9928 115.613 83.8101 115.613 83.8101 C 118.979 80.6841 125.254 69.0883 125.254 69.0883 C 120.686 71.4923 116.645 73.0086 110.753 73.4894 z "
     id="path267"
     sodipodi:nodetypes="ccccc" />
  <path
     style="font-size:12;fill:#ffffff;fill-rule:evenodd;stroke:none;stroke-width:1.25;stroke-linecap:round;stroke-linejoin:round;stroke-opacity:0.5;"
     d="M 89.9551 138.555 C 89.7151 137.713 85.1451 131.822 85.1451 131.822 C 85.1451 131.822 79.3751 123.165 79.3751 123.165 C 79.3751 123.165 85.6271 115.469 85.6271 115.469 C 85.6271 115.469 80.2171 112.223 80.2171 112.223 C 80.2171 112.223 76.6301 110.875 76.9111 110.119 C 78.8141 107.788 84.3051 97.4358 84.6651 96.7138 C 85.5431 95.2478 96.2071 91.0638 97.1691 90.9428 C 98.4521 90.6218 98.7321 91.0638 100.775 92.1458 C 100.775 92.6258 103.781 96.7138 103.781 96.7138 C 103.781 96.7138 107.647 92.8298 108.462 92.5878 C 111.684 91.6588 114.181 107.128 113.88 110.18 C 113.649 111.313 107.028 115.109 106.788 115.951 C 106.233 118.17 107.748 121.602 107.027 123.045 C 106.419 124.365 101.618 134.709 100.536 136.511 C 99.5741 135.669 97.6491 134.706 97.6491 134.706 C 97.6491 134.706 94.0441 138.314 93.4421 138.794 C 93.3221 137.832 90.9171 135.188 90.9171 135.188 C 90.9171 135.188 90.4751 137.106 89.9551 138.555 z "
     id="path268"
     sodipodi:nodetypes="csssscssccsssscscsc" />
  <path
     style="font-size:12;fill:none;fill-rule:evenodd;stroke:none;stroke-width:1.25;stroke-linecap:round;stroke-linejoin:round;stroke-opacity:0.5;"
     d="M 101.196 91.8738 C 101.026 92.4698 103.32 95.9538 103.915 95.9538 C 104.432 95.9538 108.252 92.5548 107.742 91.9598 C 107.253 91.2748 101.289 91.2168 101.196 91.8738 z "
     id="path269"
     sodipodi:nodetypes="csss" />
  <path
     style="font-size:12;fill-rule:evenodd;stroke:none;stroke-width:1.25;stroke-opacity:0.5;"
     d="M 94.6251 115.757 C 97.4301 114.907 99.4441 114.963 101.315 116.322 C 100.974 115.218 99.1511 114.089 99.1511 114.089 C 99.9161 112.559 102.672 105.208 102.672 105.447 C 102.672 105.688 99.8571 111.687 99.6171 111.687 C 100.141 109.732 100.411 105.688 100.411 105.688 C 100.411 105.688 99.4931 111.964 98.3031 114.003 C 97.6231 114.089 95.8711 114.282 94.6251 115.757 z "
     id="path270"
     sodipodi:nodetypes="cccccccc" />
  <path
     style="font-size:12;fill-rule:evenodd;stroke:none;stroke-width:1.25;stroke-opacity:0.5;"
     d="M 22.8254 363.577 C 1.06141 390.782 -48.2426 410.713 -60.1506 430.228 C -97.2116 490.968 -43.1116 500.574 -36.3456 499.601 C 38.4811 488.17 7.66341 452.807 4.46241 447.912 C -3.90059 435.123 -26.3386 447.603 -19.3426 458.113 C -16.2616 462.334 -6.09959 469.133 -26.1446 475.117 C -41.4566 480.21 -57.9126 469.777 -46.5486 445.871 C -38.1896 428.289 16.7044 396.223 16.7044 396.223 C 16.7044 396.223 24.1854 364.937 22.8254 363.577 z "
     id="path271"
     sodipodi:nodetypes="csssssscc" />
  <path
     style="font-size:12;fill:#ffffff;fill-rule:evenodd;stroke:none;stroke-width:1.25;stroke-opacity:0.5;"
     d="M 132.135 538.48 C 132.135 538.48 134.121 540.359 134.121 540.359 C 134.121 540.359 135.242 537.527 135.242 537.527 C 135.242 537.527 132.135 538.48 132.135 538.48 z "
     id="path272" />
  <path
     style="font-size:12;fill:#ffffff;fill-rule:evenodd;stroke:none;stroke-width:1.25;stroke-opacity:0.5;"
     d="M 96.1051 546.418 C 96.1051 546.418 98.6131 549.746 98.6131 549.746 C 98.6131 549.746 101.016 545.775 101.016 545.775 C 101.016 545.775 96.1051 546.418 96.1051 546.418 z "
     id="path273" />
  <path
     style="font-size:12;fill:#ffffff;fill-rule:evenodd;stroke:none;stroke-width:1.25;stroke-opacity:0.5;"
     d="M 40.5081 545.851 C 40.5081 545.851 42.5481 551.291 42.5481 551.291 C 42.5481 551.291 45.9481 545.851 45.9481 545.851 C 45.9481 545.851 40.5081 547.21 40.5081 545.851 z "
     id="path274" />
  <path
     style="font-size:12;fill:#ffffff;fill-rule:evenodd;stroke:none;stroke-width:1.25;stroke-opacity:0.5;"
     d="M -2.33959 549.25 C -2.33959 549.25 -0.299588 552.651 -0.299588 552.651 C -0.299588 552.651 1.74041 549.25 1.74041 549.25 C 1.74041 549.25 -2.33959 549.931 -2.33959 549.25 z "
     id="path275" />
  <path
     style="font-size:12;fill:#ffffff;fill-rule:evenodd;stroke:none;stroke-width:1.25;stroke-opacity:0.5;"
     d="M 19.4234 547.21 C 19.4234 547.21 21.2084 551.971 21.2084 551.971 C 21.2084 551.971 24.1854 547.21 24.1854 547.21 C 24.1854 547.21 19.4234 548.399 19.4234 547.21 z "
     id="path276" />
  <path
     style="font-size:12;fill:#ffffff;fill-rule:evenodd;stroke:none;stroke-width:1.25;stroke-opacity:0.5;"
     d="M 114.749 542.683 C 114.749 542.683 116.996 545.666 116.996 545.666 C 116.996 545.666 119.15 542.107 119.15 542.107 C 119.15 542.107 114.749 542.683 114.749 542.683 z "
     id="path277" />
  <path
     style="font-size:12;fill:none;fill-rule:evenodd;stroke:none;stroke-width:1.25;stroke-linecap:round;stroke-linejoin:round;stroke-opacity:0.5;"
     d="M 32.9131 315.568 C 63.6911 342.017 86.9351 308.521 122.041 313.33 "
     id="path278"
     sodipodi:nodetypes="cc" />
  <path
     style="font-size:12;fill:none;fill-rule:evenodd;stroke:none;stroke-width:1.25;stroke-linecap:round;stroke-linejoin:round;stroke-opacity:0.5;"
     d="M 33.1771 208.478 C 30.4971 194.475 78.5981 182.451 77.1561 198.321 "
     id="path279"
     sodipodi:nodetypes="cc" />
  <path
     style="font-size:12;fill:none;fill-rule:evenodd;stroke:none;stroke-width:1.25;stroke-linecap:round;stroke-linejoin:round;stroke-opacity:0.5;"
     d="M 126.664 197.754 C 131.165 196.69 144.54 197.04 145.729 202.044 "
     id="path280"
     sodipodi:nodetypes="cc" />
  <g
     id="g281"
     transform="translate(17.3154,20.9287)"
     style="font-size:12;">
    <path
       style="font-size:12;fill:#ffffff;fill-rule:evenodd;stroke:#ffffff;stroke-width:0.29247;stroke-linejoin:round;"
       d="M 167.037 503.184 C 167.037 503.184 184.474 478.271 184.474 478.271 C 184.474 478.271 198.178 508.166 198.178 508.166 C 198.178 508.166 168.281 504.43 167.037 503.184 z "
       id="path282" />
    <path
       style="font-size:12;fill:#cbcbcb;fill-rule:evenodd;stroke:#ffffff;stroke-width:0.29247;stroke-linejoin:round;"
       d="M 184.51 478.342 C 184.51 478.342 206.897 497.578 206.897 497.578 C 206.897 497.578 198.251 508.277 198.251 508.277 C 198.251 508.277 185.132 479.589 184.51 478.342 z "
       id="path283"
       sodipodi:nodetypes="cccc" />
    <path
       style="font-size:12;fill:#b4b4b4;fill-rule:evenodd;stroke:#ffffff;stroke-width:1.16988pt;"
       d="M 160.185 526.228 C 160.185 526.228 174.198 517.196 174.198 517.196 C 174.198 517.196 211.568 519.066 211.568 519.066 C 211.568 519.066 212.191 544.602 212.191 544.602 C 212.191 544.602 160.809 527.163 160.185 526.228 z "
       id="path284" />
  </g>
  <path
     style="font-size:12;fill-rule:evenodd;stroke:none;stroke-width:1.25;stroke-opacity:0.5;"
     d="M 64.6591 239.579 C 64.9101 231.549 73.8431 223.124 77.3081 211.166 C 80.7741 199.207 83.7511 183.466 87.0261 160.051 C 85.7361 157.68 80.8311 154.794 80.4001 153.134 C 80.0201 151.668 80.4771 144.411 80.4771 143.138 C 80.4771 141.749 77.4241 138.662 76.5471 137.128 C 75.1091 134.61 73.3441 129.6 72.9451 127.94 C 72.6491 126.705 73.0961 118.853 74.2541 115.842 C 74.8331 118.042 75.4001 118.536 83.4601 122.313 C 84.4091 122.752 86.3071 131.571 87.4891 132.872 C 88.6391 134.264 91.8621 136.241 91.8621 136.241 C 91.8621 136.241 89.9731 138.438 89.9731 138.438 C 89.9731 138.438 92.5921 138.11 92.5921 138.11 C 92.5921 138.11 94.2301 139.749 94.5581 139.421 C 94.8851 139.093 98.8141 134.181 98.8141 134.181 C 98.8141 134.181 99.7961 137.456 100.124 137.456 C 100.452 137.456 104.826 125.849 105.364 125.012 C 105.867 124.228 105.714 116.935 106.039 116.287 C 106.409 115.547 113.339 112.068 113.551 108.311 C 116.094 111.529 118.879 122.31 118.346 123.375 C 117.837 124.394 114.731 130.148 111.258 133.853 C 113.805 131.422 118.135 125.666 118.135 125.666 C 119.177 126.825 119.677 135.778 119.329 136.589 C 118.75 137.4 112.568 142.695 112.568 142.695 C 112.568 142.695 117.384 139.537 117.384 139.537 C 118.078 140.115 117.668 150.215 116.498 150.883 C 112.73 152.967 106.982 161.403 105.692 161.688 C 103.974 162.105 99.0291 163.114 97.1771 162.999 C 98.2191 163.462 102.358 163.428 104.209 163.306 C 105.831 163.198 107.288 161.033 107.616 161.033 C 108.06 161.033 103.071 180.026 103.071 194.763 C 103.071 203.937 105.553 238.994 103.962 240.982 "
     id="path285"
     sodipodi:nodetypes="cscsssscssccccccsscscccccsscscss" />
  <path
     style="font-size:12;fill-rule:evenodd;stroke:none;stroke-width:1.25;stroke-opacity:0.5;"
     d="M 150.935 247.323 C 145.897 223.465 143.14 214.485 141.628 207.329 C 138.016 204.012 132.52 203.893 125.672 204.788 C 125.112 207.336 124.273 216.462 122.77 227.658 C 122.018 233.256 122.066 235.279 121.612 240.344 C 122.899 242.68 122.123 245.178 123.574 245.059 C 118.546 245.324 113.058 256.169 108.386 258.741 C 108.737 260.52 109.113 264.736 109.469 269.724 C 108.926 266.974 109.08 260.885 108.323 259.274 C 107.654 257.85 106.299 253.451 105.454 252.435 C 104.533 251.324 104.66 247.89 104.342 246.083 C 103.822 243.117 104.152 238.61 103.369 237.019 C 102.786 235.835 98.5861 230.966 95.6661 229.329 C 96.6621 231.471 96.3701 231.935 92.4341 240.299 C 91.9661 241.278 94.2261 247.638 94.1431 249.46 C 94.1481 251.335 91.6371 253.561 91.6621 254.039 C 91.7121 254.896 90.5101 258.28 90.0291 258.235 C 89.5511 258.19 84.5401 260.141 84.2791 260.358 C 84.0181 260.576 72.8231 254.202 71.8401 253.89 C 70.9171 253.597 66.2011 247.669 65.5131 247.365 C 64.7261 247.02 56.8371 249.316 56.3921 248.592 C 56.5431 249.715 59.2481 260.696 60.3791 261.193 C 61.4621 261.67 67.7621 264.207 72.9931 264.864 C 69.3461 264.61 63.1901 262.884 63.1901 262.884 C 63.1261 264.5 67.5441 271.987 68.3601 272.403 C 69.3601 272.666 78.0771 273.723 78.0771 273.723 C 78.0771 273.723 73.7391 273.469 73.7391 273.469 C 73.5681 274.392 78.5361 282.001 79.9151 281.758 C 84.3081 280.926 94.6841 284.041 95.9041 283.413 C 97.5531 282.606 102.173 280.133 103.576 278.813 C 103.05 279.873 99.7211 282.592 98.1611 283.722 C 96.7931 284.711 94.1931 283.948 93.9311 284.166 C 93.5771 284.461 130.08 273.642 143.86 266.84 C 147.701 264.981 153.309 259.256 150.935 247.323 z "
     id="path286"
     sodipodi:nodetypes="cccsccccsssscsssccsscscccccsscscss" />
</svg>
