<?xml version="1.0" encoding="UTF-8" standalone="no"?>
<!DOCTYPE svg PUBLIC "-//W3C//DTD SVG 20010904//EN"
"http://www.w3.org/TR/2001/REC-SVG-20010904/DTD/svg10.dtd"
[
 <!ATTLIST svg
  xmlns:xlink CDATA #FIXED "http://www.w3.org/1999/xlink">
]>
<!-- Created with Sodipodi ("http://www.sodipodi.com/") -->
<svg
   xmlns="http://www.w3.org/2000/svg"
   xmlns:xlink="http://www.w3.org/1999/xlink"
   version="1"
   x="0"
   y="0"
   width="744.094"
   height="744.094"
   id="svg890">
  <defs
     id="defs892" />
  <path
     d="M 285.69 282.797 C 282.83 280.295 271.416 281.755 267.439 285.271 C 262.553 289.594 263.424 300.394 259.099 306.319 C 254.153 313.099 245.723 317.292 239.625 323.39 C 226.631 336.384 215.871 352.177 201.826 363.592 C 193.894 370.035 183.567 373.975 173.69 376.962 C 156.331 382.211 136.729 381.613 120.118 388.297 C 106.852 393.633 94.1637 403.148 84.0573 413.022 C 79.0522 417.914 74.0981 426.081 74.786 432.595 C 75.8533 442.673 84.7905 452.596 89.3256 462.798 C 91.6583 468.05 91.0383 475.874 95.3895 478.957 C 105.422 486.069 119.557 491.311 132.48 493.381 C 154.012 496.832 177.033 497.718 198.758 495.524 C 214.464 493.939 231.098 480.042 244.774 482.046 C 254.334 483.447 259.184 499.835 268.469 505.743 C 283.391 515.236 303.083 518.992 317.393 528.252 C 320.595 530.324 322.891 538.463 321.011 539.74 C 318.259 541.606 309.336 538.367 303.499 537.679 C 282.219 535.174 264.152 519.318 243.744 513.984 C 233.932 511.419 223.14 513.984 212.839 513.984 C 196.844 513.984 178.975 518.76 166.477 526.347 C 160.693 529.857 157.177 537.155 162.355 539.74 C 169.452 543.281 197.266 533.662 198.8 537.427 C 200.238 540.957 177.339 547.633 172.659 554.164 C 170.715 556.881 174.443 565.207 177.809 565.496 C 186.46 566.237 209.326 553.201 210.693 556.346 C 212.026 559.418 188.371 569.34 185.022 575.797 C 183.564 578.611 190.551 585.539 194.293 585.072 C 204.289 583.823 221.014 567.956 226.232 570.648 C 229.391 572.279 211.449 585.442 210.778 591.251 C 210.418 594.371 216.641 599.32 223.14 597.434 C 237.839 593.171 248.46 576.42 266.411 572.709 C 292.167 567.381 319.788 567.746 344.709 561.374 C 350.693 559.845 357.162 554.268 359.132 549.011 C 361.281 543.279 359.138 534.794 357.071 528.408 C 355.359 523.12 345.527 516.255 347.797 513.984 C 351.364 510.417 365.977 513.197 374.583 510.893 C 385.208 508.045 397.474 505.378 405.491 498.53 C 413.959 491.297 420.767 479.49 424.037 468.653 C 427.292 457.856 422.859 444.867 425.067 433.626 C 426.636 425.637 430.585 417.518 435.369 410.961 C 439.856 404.81 446.214 399.173 452.881 395.507 C 459.95 391.618 476.097 386.378 476.579 388.297 C 477.128 390.499 461.28 400.221 455.972 407.87 C 449.606 417.048 443.109 428.018 441.549 438.778 C 440.02 449.309 442.761 462.014 446.701 471.744 C 448.601 476.438 454.033 481.313 459.064 482.046 C 472.921 484.061 489.358 478.204 503.365 479.988 C 508.245 480.611 511.156 488.178 515.728 489.259 C 520.076 490.289 527.784 489.435 530.123 486.321 C 532.937 482.567 528.158 469.25 531.182 468.653 C 535.38 467.826 544.643 479.971 551.785 482.046 C 555.287 483.062 561.438 480.863 563.117 477.927 C 565.557 473.652 561.184 460.837 564.148 460.412 C 568.394 459.806 577.634 471.928 584.751 474.835 C 587.087 475.789 591.936 474.244 592.508 472.002 C 593.988 466.201 588.174 451.659 590.911 450.713 C 594.056 449.626 604.205 465.508 610.153 465.904 C 614.334 466.184 621.165 457.759 621.293 452.74 C 621.505 444.256 616.647 432.887 611.166 425.396 C 606.521 419.047 588.154 417.283 590.911 411.219 C 601.708 387.479 632.931 361.989 651.827 335.979 C 658.924 326.209 664.985 314.835 668.889 303.873 C 669.996 300.759 668.821 294.027 666.862 293.747 C 664.093 293.354 657.95 298.279 654.712 301.849 C 644.784 312.794 628.775 339.325 627.368 337.292 C 625.734 334.934 641.092 305.272 645.596 288.683 C 648.518 277.928 650.409 265.693 649.647 255.264 C 649.418 252.141 643.926 245.967 642.624 248.025 C 637.511 256.093 635.682 273.67 630.405 285.645 C 626.884 293.637 617.386 310.5 616.228 307.924 C 614.348 303.749 621.293 279.59 621.293 265.393 C 621.293 247.521 620.811 227.625 616.228 211.718 C 615.073 207.71 607.22 203.424 601.929 204.214 C 597.026 204.947 606.895 257.197 599.846 270.468 C 598.693 272.637 594.368 271.165 593.858 268.124 C 592.972 262.865 590.826 225.205 583.401 206.9 C 581.47 202.138 572.714 178.013 563.882 174.755 C 559.27 173.054 557.22 173.722 555.978 177.139 C 554.285 181.793 573.648 233.593 572.451 240.749 C 571.398 245.12 569.993 245.684 565.45 241.245 C 553.404 217.004 541.03 180.171 509.834 152.96 C 504.48 149.523 499.699 148.116 496.636 153.087 C 495.764 157.396 496.078 161.99 500.647 167.805 C 503.634 171.607 524.161 194.792 526.261 208.032 C 527.51 212.494 524.444 211.381 520.039 206.436 C 501.106 187.763 478.331 162.174 450.707 147.199 C 440.654 143.618 439.528 151.21 439.454 155.977 C 461.462 179.327 485.08 188.043 488.698 200.949 C 487.608 203.509 483.877 204.256 478.504 201.567 C 456.96 183.545 415.872 151.04 408.903 150.245 C 406.378 149.956 395.105 152.897 403.883 159.561 C 416.204 171.729 449.651 191.418 453.682 199.313 C 453.306 202.665 449.631 204.698 445.589 202.348 C 435.312 193.105 426.033 183.265 410.788 177.637 C 390.813 170.268 372.401 156.323 360.74 155.527 C 354.473 158.537 354 163.273 357.488 170.141 C 371.042 177.003 388.56 181.974 407.915 195.191 C 410.1 201.148 406.83 202.124 403.419 200.63 C 371.843 186.803 350.812 175.587 325.555 172.063 C 318.568 173.133 317.167 178.39 321.597 180.972 C 331.242 186.585 352.916 193.813 368.522 197.759 C 372.893 200.822 372.893 206.079 367.475 206.141 C 334.339 193.462 307.352 187.854 276.854 186.042 C 275.459 188.907 273.613 194.764 276.37 196.1 C 292.631 203.976 329.082 205.728 342.09 213.745 C 341.699 217.295 335.755 219.124 332.171 218.408 C 305.6 213.088 274.757 211.336 220.123 212.548 C 213.071 212.389 213.362 220.129 218.302 224.919 C 254.077 225.706 270.901 225.706 294.729 229.273 C 298.239 232.715 301.356 233.879 296.113 236.676 C 268.059 235.229 214.515 238.83 203.616 240.761 C 192.714 242.694 185.268 244.679 179.779 247.926 C 174.293 251.176 172.221 255.026 184.504 258.805 C 200.567 256.826 242.413 250.978 250.606 252.404 C 258.799 253.831 261.76 255.926 255.141 260.172 C 228.012 262.228 180.77 277.076 164.611 283.593 C 160.603 288.312 165.472 293.274 171.275 293.747 C 201.467 286.973 250.063 277.076 283.36 269.339 C 316.657 261.602 375.051 239.257 397.822 233.644 C 420.594 228.03 477.737 220.381 506.366 230.054 C 551.08 246.929 573.127 274.375 582.41 289.546 C 591.576 301.821 604.624 331.97 601.332 355.263 C 597.875 359.416 592.477 358.066 585.609 352.067 C 579.426 326.569 569.529 288.323 538.865 268.374 C 517.723 254.618 498.436 247.827 466.512 244.251 C 432.912 240.483 398.097 251.878 380.956 258.593 C 357.131 267.923 335.103 285.175 322.042 296.153 C 309.563 311.067 299.105 323.421 286.958 343.056 C 283.544 345.74 276.158 340.967 278.774 330.153 C 277.76 320.412 282.428 310.028 283.923 299.695 C 284.733 294.092 288.325 285.104 285.69 282.797 z M 255.438 426.781 C 255.438 445.091 241.949 458.9 209.476 458.9 C 177.002 458.9 144.124 437.453 144.345 428.618 C 144.565 419.853 165.831 399.374 199.236 394.134 C 235.602 388.433 255.438 408.47 255.438 426.781 z M 224.202 421.529 C 221.23 435.081 224.117 440.856 197.136 438.682 C 182.664 437.518 172.657 434.294 174.794 425.467 C 176.971 416.479 174.882 410.687 198.186 407.527 C 215.715 405.15 226.187 412.484 224.202 421.529 z M 117.074 431.505 C 119.042 436.465 115.376 438.775 105.768 436.321 C 97.8297 434.294 93.8806 434.025 93.6711 429.668 C 93.3654 423.265 102.031 421.954 107.605 421.702 C 116.786 421.289 115.158 426.679 117.074 431.505 z M 161.783 474.077 C 163.773 476.313 162.157 480.797 139.255 474.657 C 123.186 473.157 114.368 473.148 116.737 468.319 C 118.263 465.199 127.223 463.288 140.107 466.872 C 154.442 471.065 160.274 472.409 161.783 474.077 z M 562.424 331.616 C 558.922 335.747 538.641 316.595 528.096 303.828 C 508.945 280.643 467.288 276.411 428.592 287.335 C 391.948 297.682 349.414 331.376 331.004 351.274 C 309.931 374.055 317.158 384.784 303.658 377.174 C 296.787 373.304 305.424 348.517 321.085 329.731 C 338.659 308.655 387.43 267.748 425.096 262.743 C 478.308 255.668 505.208 267.734 527.566 285.288 C 543.524 297.818 561.736 327.701 562.424 331.616 z M 570.429 400.419 C 555.915 422.874 542.42 419.967 533.141 424.136 C 523.858 428.306 506.72 444.281 501.873 438.747 C 500.058 436.222 500.276 433.572 509.191 428.867 C 519.113 423.627 532.914 411.567 545.251 402.687 C 557.588 393.806 554.477 376.645 563.757 372.475 C 573.037 368.305 576.193 391.504 570.429 400.419 z M 483.885 347.744 C 501.46 369.548 472.168 362.037 452.657 377.358 C 444.957 383.405 425.724 383.705 413.022 410.622 C 401.565 434.891 409.075 456.299 386.81 489.109 C 381.635 496.735 337.346 498.734 325.747 488.71 C 323.078 481.836 359.129 475.076 376.879 447.455 C 381.856 439.707 389.924 422.124 393.981 397.291 C 397.808 379.312 427.929 355.286 438.97 351.475 C 451.887 347.014 471.041 341.757 483.885 347.744 z "
     style="font-size:12;fill:#ff975c;stroke:#000000;stroke-width:8.49277;"
     id="path2" />
</svg>
