<?xml version="1.0" encoding="UTF-8" standalone="no"?>
<!DOCTYPE svg PUBLIC "-//W3C//DTD SVG 20010904//EN"
"http://www.w3.org/TR/2001/REC-SVG-20010904/DTD/svg10.dtd">
<!-- Created with Sodipodi ("http://www.sodipodi.com/") -->
<svg
   id="svg1"
   sodipodi:version="0.29"
   width="288pt"
   height="288pt"
   sodipodi:docbase="/home/aduhan/sodipodi/"
   sodipodi:docname="/home/aduhan/sodipodi/librsvg-logo-path.svg"
   xmlns="http://www.w3.org/2000/svg"
   xmlns:sodipodi="http://sodipodi.sourceforge.net/DTD/sodipodi-0.dtd"
   xmlns:xlink="http://www.w3.org/1999/xlink">
  <defs
     id="defs3">
    <linearGradient
       id="linearGradient154">
      <stop
         style="stop-color:#ffffff;stop-opacity:1;"
         offset="0.000000"
         id="stop155" />
      <stop
         style="stop-color:#000000;stop-opacity:1;"
         offset="1.000000"
         id="stop156" />
    </linearGradient>
    <linearGradient
       id="linearGradient150">
      <stop
         style="stop-color:#000;stop-opacity:1;"
         offset="0"
         id="stop151" />
      <stop
         style="stop-color:#fff;stop-opacity:1;"
         offset="1"
         id="stop152" />
    </linearGradient>
    <radialGradient
       xlink:href="#linearGradient154"
       id="radialGradient153"
       cx="0.232558"
       cy="0.203125"
       fx="0.232558"
       fy="0.203125"
       r="1.44277"
       gradientUnits="objectBoundingBox"
       spreadMethod="pad" />
  <filter
       id="edgeFuzz">
      <feGaussianBlur
         in="SourceGraphic"
         stdDeviation=".8"
         result="MyBlur" />
      <feMergeNode
         in="SourceGraphic" />
    </filter>
  </defs>
  <sodipodi:namedview
     id="base"
     snaptoguides="true" />
  <path
     style="font-size:12;fill:url(#radialGradient153);fill-rule:evenodd;stroke:#000000;stroke-width:18.6798;"
     d="M 61.024 13.5718 C 34.7684 13.5718 13.6313 34.709 13.6313 60.9645 L 13.6313 300.85 C 13.6313 327.106 34.7684 348.243 61.024 348.243 L 300.113 348.243 C 326.369 348.243 347.506 327.106 347.506 300.85 L 347.506 60.9645 C 347.506 34.709 326.369 13.5718 300.113 13.5718 L 61.024 13.5718 z "
     id="path215" />
  <g
     id="g138"
     style="fill:#555555;fill-opacity:0.66;stroke:#000000;stroke-opacity:0.66;stroke-width:2.87813;stroke-dasharray:none;"
     transform="matrix(0.370718,-0.196238,0.196238,0.370718,-121.749,64.4522)">
    <path
       style="fill:#555555;fill-rule:evenodd;stroke:#000000;stroke-opacity:0.66;stroke-width:2.87813;stroke-linejoin:miter;stroke-linecap:butt;fill-opacity:0.66;stroke-dasharray:none;"
       d="M 432.694 541.739 C 432.062 555.44 454.115 572.053 469.546 570.837 C 480.613 569.943 486.624 558.674 483.708 551.385 C 479.206 539.679 486.059 527.085 514.343 523.586 C 535.232 521.028 572.142 520.234 538.523 571.629 C 518.521 602.061 485.272 618.94 449.534 612.289 C 415.764 606.055 380.846 578.351 365.433 554.92 C 322.823 490.592 332.636 441.543 403.95 406.523 C 463.973 376.803 497.87 387.891 515.489 394.615 C 564.571 413.041 547.398 457.506 496.079 487.831 C 468.775 503.655 433.155 523.643 432.694 541.739 z "
       id="path139"
       sodipodi:nodetypes="cssssssssss" />
    <path
       style="fill:#555555;fill-rule:evenodd;stroke:#000000;stroke-opacity:0.66;stroke-width:2.87813;stroke-linejoin:miter;stroke-linecap:butt;fill-opacity:0.66;stroke-dasharray:none;"
       d="M 373.961 317.851 C 398.49 300.367 415.304 359.301 393.206 378.939 C 379.506 391.035 349.82 335.204 373.961 317.851 z "
       id="path140"
       sodipodi:nodetypes="css" />
    <path
       style="fill:#555555;fill-rule:evenodd;stroke:#000000;stroke-opacity:0.66;stroke-width:2.87813;stroke-linejoin:miter;stroke-linecap:butt;fill-opacity:0.66;stroke-dasharray:none;"
       d="M 443.797 288.693 C 487.565 272.948 470.772 351.975 450.649 361.152 C 428.848 371.316 409.928 300.837 443.797 288.693 z "
       id="path141"
       sodipodi:nodetypes="css" />
    <path
       style="fill:#555555;fill-rule:evenodd;stroke:#000000;stroke-opacity:0.66;stroke-width:2.87813;stroke-linejoin:miter;stroke-linecap:butt;fill-opacity:0.66;stroke-dasharray:none;"
       d="M 542.209 278.633 C 511.577 289.732 495.04 317.093 496.575 348.031 C 498.779 392.587 544.77 374.017 571.512 341.324 C 609.311 295.366 584.456 263.177 542.209 278.633 z "
       id="path142"
       sodipodi:nodetypes="csss" />
    <path
       style="fill:#555555;fill-rule:evenodd;stroke:#000000;stroke-opacity:0.66;stroke-width:2.87813;stroke-linejoin:miter;stroke-linecap:butt;fill-opacity:0.66;stroke-dasharray:none;"
       d="M 323.808 362.319 C 342.757 337.748 360.67 396.343 349.906 411.597 C 341.149 423.862 304.37 387.333 323.808 362.319 z "
       id="path143"
       sodipodi:nodetypes="css" />
  </g>
  <path
     transform="scale(0.643855,0.643855)"
     style="font-size:76;font-weight:normal;fill:none;stroke:#3f3f3f;stroke-width:3.04805;font-family:MicrogrammaDBolExt;filter:url(#edgeFuzz)"
     d="M 446.573 464.592 L 481.864 464.592 C 481.914 465.409 481.938 465.866 481.938 465.965 C 481.938 473.115 481.753 478.496 481.382 482.108 C 480.788 487.947 477.473 491.484 471.436 492.721 C 468.839 493.241 465.858 493.587 462.493 493.76 C 459.153 493.958 454.044 494.057 447.167 494.057 C 438.458 494.057 432.298 493.822 428.686 493.352 C 425.074 492.882 422.217 491.942 420.114 490.532 C 418.679 489.567 417.578 488.33 416.811 486.821 C 416.044 485.312 415.513 483.32 415.216 480.846 C 414.919 478.545 414.77 473.993 414.77 467.19 C 414.77 462.564 414.894 459.075 415.141 456.725 C 415.389 454.375 415.871 452.272 416.589 450.417 C 418.048 446.508 421.153 444.133 425.903 443.292 C 431.098 442.376 439.077 441.919 449.839 441.919 C 456.221 441.919 461.268 442.079 464.979 442.401 C 468.69 442.723 471.746 443.254 474.145 443.997 C 478.029 445.209 480.38 447.831 481.196 451.864 C 481.592 453.868 481.802 456.626 481.827 460.139 L 466.389 460.139 C 466.365 458.704 466.278 457.739 466.13 457.245 C 465.981 456.725 465.672 456.292 465.202 455.946 C 464.336 455.327 462.53 454.944 459.784 454.795 C 457.186 454.647 453.426 454.573 448.503 454.573 C 443.159 454.573 439.337 454.697 437.036 454.944 C 434.76 455.191 433.201 455.649 432.36 456.317 C 431.519 457.01 430.95 458.148 430.653 459.731 C 430.356 461.29 430.208 463.974 430.208 467.784 C 430.208 472.064 430.356 475.057 430.653 476.764 C 430.95 478.447 431.519 479.634 432.36 480.327 C 433.201 480.995 434.29 481.403 435.626 481.551 C 436.986 481.675 441.254 481.786 448.429 481.885 C 455.455 481.836 459.722 481.774 461.231 481.7 C 462.74 481.601 463.953 481.366 464.868 480.995 C 465.61 480.673 466.13 480.154 466.427 479.436 C 466.748 478.694 466.909 477.593 466.909 476.133 C 466.909 475.911 466.897 475.441 466.872 474.723 L 446.573 474.723 L 446.573 464.592 z M 339.772 442.661 L 356.731 442.661 L 375.212 480.586 L 378.106 480.586 L 396.401 442.661 L 413.249 442.661 L 388.534 493.315 L 364.821 493.315 L 339.772 442.661 z M 276.983 476.542 L 291.938 476.542 C 291.914 479.04 292.421 480.648 293.46 481.366 C 294.202 481.836 295.154 482.12 296.317 482.219 C 297.505 482.294 301.216 482.355 307.45 482.405 C 313.981 482.38 317.902 482.343 319.214 482.294 C 320.525 482.219 321.564 482.021 322.331 481.7 C 323.469 481.23 324.038 479.956 324.038 477.878 C 324.038 476.368 323.63 475.366 322.813 474.872 C 322.022 474.352 320.389 474.068 317.915 474.018 C 316.01 474.018 311.977 473.87 305.817 473.573 C 299.509 473.276 295.402 473.103 293.497 473.053 C 289.786 472.93 286.929 472.583 284.925 472.014 C 282.945 471.42 281.399 470.468 280.286 469.157 C 278.381 466.98 277.429 463.343 277.429 458.247 C 277.429 452.532 278.517 448.499 280.694 446.149 C 282.352 444.318 284.9 443.155 288.339 442.661 C 291.777 442.141 298.766 441.881 309.305 441.881 C 316.752 441.881 321.985 442.092 325.003 442.512 C 329.654 443.155 332.845 444.454 334.577 446.409 C 336.309 448.338 337.175 451.604 337.175 456.206 C 337.175 456.626 337.162 457.418 337.138 458.581 L 322.182 458.581 C 322.133 457.17 322.009 456.206 321.811 455.686 C 321.638 455.167 321.279 454.746 320.735 454.424 C 320.067 454.029 318.892 453.781 317.21 453.682 C 315.527 453.558 311.965 453.497 306.522 453.497 C 299.966 453.497 295.971 453.707 294.536 454.128 C 293.101 454.523 292.384 455.649 292.384 457.504 C 292.384 459.286 293.101 460.374 294.536 460.77 C 295.723 461.092 301.179 461.401 310.901 461.698 C 319.09 461.945 324.557 462.242 327.304 462.588 C 330.074 462.91 332.276 463.541 333.909 464.481 C 335.764 465.594 337.076 467.128 337.843 469.083 C 338.61 471.012 338.993 473.795 338.993 477.432 C 338.993 482.207 338.35 485.757 337.063 488.083 C 336.098 489.79 334.75 491.064 333.018 491.905 C 331.311 492.746 328.899 493.315 325.782 493.612 C 322.442 493.909 316.22 494.057 307.116 494.057 C 299.496 494.057 293.868 493.859 290.231 493.463 C 286.595 493.068 283.861 492.363 282.03 491.348 C 280.125 490.26 278.802 488.825 278.059 487.044 C 277.342 485.262 276.983 482.553 276.983 478.917 L 276.983 476.542 z M 210.372 493.315 L 210.372 442.661 L 247.667 442.661 C 256.425 442.685 261.669 442.784 263.401 442.958 C 265.133 443.106 266.803 443.675 268.411 444.665 C 270.341 445.827 271.664 447.435 272.382 449.489 C 273.099 451.517 273.458 454.721 273.458 459.1 C 273.458 462.786 273.223 465.495 272.753 467.227 C 272.307 468.959 271.454 470.344 270.192 471.383 C 268.832 472.497 266.778 473.264 264.032 473.684 C 267.273 473.932 269.598 474.859 271.009 476.467 C 271.825 477.432 272.345 478.607 272.567 479.993 C 272.79 481.353 272.901 484.223 272.901 488.602 L 272.901 493.315 L 257.686 493.315 L 257.686 490.606 C 257.686 487.786 257.575 485.782 257.352 484.594 C 257.154 483.382 256.771 482.454 256.202 481.811 C 255.633 481.217 254.841 480.846 253.827 480.698 C 252.837 480.525 250.747 480.438 247.555 480.438 L 225.809 480.438 L 225.809 493.315 L 210.372 493.315 z M 225.809 467.784 L 247.518 467.784 C 251.304 467.71 253.555 467.648 254.272 467.598 C 255.014 467.524 255.645 467.326 256.165 467.004 C 256.833 466.584 257.303 465.965 257.575 465.149 C 257.847 464.308 257.983 463.046 257.983 461.364 C 257.983 459.706 257.822 458.469 257.501 457.653 C 257.204 456.836 256.672 456.243 255.905 455.872 C 255.361 455.624 254.705 455.476 253.938 455.426 C 253.196 455.377 251.044 455.34 247.481 455.315 L 225.809 455.315 L 225.809 467.784 z M 154.114 442.661 L 167.548 442.661 L 167.548 462.18 L 168.141 462.18 C 169.502 459.954 171.234 458.445 173.337 457.653 C 175.44 456.836 178.73 456.428 183.208 456.428 C 187.636 456.428 191.186 456.688 193.858 457.208 C 196.555 457.727 198.682 458.581 200.241 459.768 C 201.998 461.079 203.197 462.823 203.841 465.001 C 204.484 467.178 204.805 470.592 204.805 475.243 C 204.805 478.261 204.707 480.574 204.509 482.182 C 204.335 483.766 203.989 485.238 203.47 486.598 C 202.43 489.419 200.427 491.398 197.458 492.536 C 194.489 493.674 189.863 494.243 183.579 494.243 C 177.295 494.243 172.966 493.525 170.591 492.09 C 169.527 491.447 168.5 490.284 167.511 488.602 L 166.768 488.602 L 166.768 493.315 L 154.114 493.315 L 154.114 442.661 z M 179.534 466.559 C 174.908 466.559 171.803 466.98 170.22 467.821 C 169.205 468.365 168.5 469.194 168.104 470.307 C 167.733 471.42 167.548 473.152 167.548 475.503 C 167.548 478.026 167.77 479.82 168.216 480.883 C 168.686 481.922 169.576 482.665 170.888 483.11 C 172.718 483.778 175.675 484.112 179.757 484.112 C 184.482 484.112 187.624 483.617 189.182 482.628 C 189.999 482.108 190.568 481.279 190.889 480.141 C 191.211 479.003 191.372 477.296 191.372 475.02 C 191.372 472.645 191.149 470.938 190.704 469.899 C 190.283 468.86 189.479 468.105 188.292 467.635 C 186.511 466.918 183.591 466.559 179.534 466.559 z M 134.595 457.356 L 148.028 457.356 L 148.028 493.315 L 134.595 493.315 L 134.595 457.356 z M 134.595 442.661 L 148.028 442.661 L 148.028 452.754 L 134.595 452.754 L 134.595 442.661 z M 79.3387 442.661 L 95.5555 442.661 L 95.5555 480.401 L 131.589 480.401 L 131.589 493.315 L 79.3387 493.315 L 79.3387 442.661 z "
     id="path211" />
  <g
     id="g144"
     style="fill:#a8a8a8;fill-opacity:0.33;stroke:#000000;stroke-opacity:0.33;stroke-width:4.789;stroke-dasharray:none;"
     transform="matrix(0.157765,-0.196614,0.196614,0.157763,-84.8827,124.216)">
    <path
       style="fill:#a8a8a8;fill-rule:evenodd;stroke:#000000;stroke-opacity:0.33;stroke-width:4.789;stroke-linejoin:miter;stroke-linecap:butt;fill-opacity:0.33;stroke-dasharray:none;"
       d="M 432.694 541.739 C 432.062 555.44 454.115 572.053 469.546 570.837 C 480.613 569.943 486.624 558.674 483.708 551.385 C 479.206 539.679 486.059 527.085 514.343 523.586 C 535.232 521.028 572.142 520.234 538.523 571.629 C 518.521 602.061 485.272 618.94 449.534 612.289 C 415.764 606.055 380.846 578.351 365.433 554.92 C 322.823 490.592 332.636 441.543 403.95 406.523 C 463.973 376.803 497.87 387.891 515.489 394.615 C 564.571 413.041 547.398 457.506 496.079 487.831 C 468.775 503.655 433.155 523.643 432.694 541.739 z "
       id="path145"
       sodipodi:nodetypes="cssssssssss" />
    <path
       style="fill:#a8a8a8;fill-rule:evenodd;stroke:#000000;stroke-opacity:0.33;stroke-width:4.789;stroke-linejoin:miter;stroke-linecap:butt;fill-opacity:0.33;stroke-dasharray:none;"
       d="M 373.961 317.851 C 398.49 300.367 415.304 359.301 393.206 378.939 C 379.506 391.035 349.82 335.204 373.961 317.851 z "
       id="path146"
       sodipodi:nodetypes="css" />
    <path
       style="fill:#a8a8a8;fill-rule:evenodd;stroke:#000000;stroke-opacity:0.33;stroke-width:4.789;stroke-linejoin:miter;stroke-linecap:butt;fill-opacity:0.33;stroke-dasharray:none;"
       d="M 443.797 288.693 C 487.565 272.948 470.772 351.975 450.649 361.152 C 428.848 371.316 409.928 300.837 443.797 288.693 z "
       id="path147"
       sodipodi:nodetypes="css" />
    <path
       style="fill:#a8a8a8;fill-rule:evenodd;stroke:#000000;stroke-opacity:0.33;stroke-width:4.789;stroke-linejoin:miter;stroke-linecap:butt;fill-opacity:0.33;stroke-dasharray:none;"
       d="M 542.209 278.633 C 511.577 289.732 495.04 317.093 496.575 348.031 C 498.779 392.587 544.77 374.017 571.512 341.324 C 609.311 295.366 584.456 263.177 542.209 278.633 z "
       id="path148"
       sodipodi:nodetypes="csss" />
    <path
       style="fill:#a8a8a8;fill-rule:evenodd;stroke:#000000;stroke-opacity:0.33;stroke-width:4.789;stroke-linejoin:miter;stroke-linecap:butt;fill-opacity:0.33;stroke-dasharray:none;"
       d="M 323.808 362.319 C 342.757 337.748 360.67 396.343 349.906 411.597 C 341.149 423.862 304.37 387.333 323.808 362.319 z "
       id="path149"
       sodipodi:nodetypes="css" />
  </g>
  <g
     id="g209"
     transform="matrix(0.643855,0,0,0.643855,-59.7822,-129.404)">
    <g
       id="g167"
       style="fill:#e7e7e7;fill-opacity:1;"
       transform="translate(3.09277,2.06181)">
      <path
         style="fill:#e7e7e7;fill-rule:evenodd;stroke:none;stroke-opacity:1;stroke-width:1.25;stroke-linejoin:miter;stroke-linecap:butt;fill-opacity:1;stroke-dasharray:none;"
         d="M 432.694 541.739 C 432.062 555.44 454.115 572.053 469.546 570.837 C 480.613 569.943 486.624 558.674 483.708 551.385 C 479.206 539.679 486.059 527.085 514.343 523.586 C 535.232 521.028 572.142 520.234 538.523 571.629 C 518.521 602.061 485.272 618.94 449.534 612.289 C 415.764 606.055 380.846 578.351 365.433 554.92 C 322.823 490.592 332.636 441.543 403.95 406.523 C 463.973 376.803 497.87 387.891 515.489 394.615 C 564.571 413.041 547.398 457.506 496.079 487.831 C 468.775 503.655 433.155 523.643 432.694 541.739 z "
         id="path168"
         sodipodi:nodetypes="cssssssssss" />
      <path
         style="fill:#e7e7e7;fill-rule:evenodd;stroke:none;stroke-opacity:1;stroke-width:1pt;stroke-linejoin:miter;stroke-linecap:butt;fill-opacity:1;"
         d="M 373.961 317.851 C 398.49 300.367 415.304 359.301 393.206 378.939 C 379.506 391.035 349.82 335.204 373.961 317.851 z "
         id="path169"
         sodipodi:nodetypes="css" />
      <path
         style="fill:#e7e7e7;fill-rule:evenodd;stroke:none;stroke-opacity:1;stroke-width:1pt;stroke-linejoin:miter;stroke-linecap:butt;fill-opacity:1;"
         d="M 443.797 288.693 C 487.565 272.948 470.772 351.975 450.649 361.152 C 428.848 371.316 409.928 300.837 443.797 288.693 z "
         id="path170"
         sodipodi:nodetypes="css" />
      <path
         style="fill:#e7e7e7;fill-rule:evenodd;stroke:none;stroke-opacity:1;stroke-width:1pt;stroke-linejoin:miter;stroke-linecap:butt;fill-opacity:1;"
         d="M 542.209 278.633 C 511.577 289.732 495.04 317.093 496.575 348.031 C 498.779 392.587 544.77 374.017 571.512 341.324 C 609.311 295.366 584.456 263.177 542.209 278.633 z "
         id="path171"
         sodipodi:nodetypes="csss" />
      <path
         style="fill:#e7e7e7;fill-rule:evenodd;stroke:none;stroke-opacity:1;stroke-width:1pt;stroke-linejoin:miter;stroke-linecap:butt;fill-opacity:1;"
         d="M 323.808 362.319 C 342.757 337.748 360.67 396.343 349.906 411.597 C 341.149 423.862 304.37 387.333 323.808 362.319 z "
         id="path172"
         sodipodi:nodetypes="css" />
    </g>
    <g
       id="g161"
       style="fill:#626262;fill-opacity:1;"
       transform="translate(1.23711,0.412338)">
      <path
         style="fill:#626262;fill-rule:evenodd;stroke:none;stroke-opacity:1;stroke-width:1.25;stroke-linejoin:miter;stroke-linecap:butt;fill-opacity:1;stroke-dasharray:none;"
         d="M 432.694 541.739 C 432.062 555.44 454.115 572.053 469.546 570.837 C 480.613 569.943 486.624 558.674 483.708 551.385 C 479.206 539.679 486.059 527.085 514.343 523.586 C 535.232 521.028 572.142 520.234 538.523 571.629 C 518.521 602.061 485.272 618.94 449.534 612.289 C 415.764 606.055 380.846 578.351 365.433 554.92 C 322.823 490.592 332.636 441.543 403.95 406.523 C 463.973 376.803 497.87 387.891 515.489 394.615 C 564.571 413.041 547.398 457.506 496.079 487.831 C 468.775 503.655 433.155 523.643 432.694 541.739 z "
         id="path162"
         sodipodi:nodetypes="cssssssssss" />
      <path
         style="fill:#626262;fill-rule:evenodd;stroke:none;stroke-opacity:1;stroke-width:1pt;stroke-linejoin:miter;stroke-linecap:butt;fill-opacity:1;"
         d="M 373.961 317.851 C 398.49 300.367 415.304 359.301 393.206 378.939 C 379.506 391.035 349.82 335.204 373.961 317.851 z "
         id="path163"
         sodipodi:nodetypes="css" />
      <path
         style="fill:#626262;fill-rule:evenodd;stroke:none;stroke-opacity:1;stroke-width:1pt;stroke-linejoin:miter;stroke-linecap:butt;fill-opacity:1;"
         d="M 443.797 288.693 C 487.565 272.948 470.772 351.975 450.649 361.152 C 428.848 371.316 409.928 300.837 443.797 288.693 z "
         id="path164"
         sodipodi:nodetypes="css" />
      <path
         style="fill:#626262;fill-rule:evenodd;stroke:none;stroke-opacity:1;stroke-width:1pt;stroke-linejoin:miter;stroke-linecap:butt;fill-opacity:1;"
         d="M 542.209 278.633 C 511.577 289.732 495.04 317.093 496.575 348.031 C 498.779 392.587 544.77 374.017 571.512 341.324 C 609.311 295.366 584.456 263.177 542.209 278.633 z "
         id="path165"
         sodipodi:nodetypes="csss" />
      <path
         style="fill:#626262;fill-rule:evenodd;stroke:none;stroke-opacity:1;stroke-width:1pt;stroke-linejoin:miter;stroke-linecap:butt;fill-opacity:1;"
         d="M 323.808 362.319 C 342.757 337.748 360.67 396.343 349.906 411.597 C 341.149 423.862 304.37 387.333 323.808 362.319 z "
         id="path166"
         sodipodi:nodetypes="css" />
    </g>
    <g
       id="g132"
       style="fill:#000000;fill-opacity:1;"
       transform="translate(1.41561e-06,-0.206253)">
      <path
         style="fill:#000000;fill-rule:evenodd;stroke:none;stroke-opacity:1;stroke-width:1.25;stroke-linejoin:miter;stroke-linecap:butt;fill-opacity:1;stroke-dasharray:none;"
         d="M 432.694 541.739 C 432.062 555.44 454.115 572.053 469.546 570.837 C 480.613 569.943 486.624 558.674 483.708 551.385 C 479.206 539.679 486.059 527.085 514.343 523.586 C 535.232 521.028 572.142 520.234 538.523 571.629 C 518.521 602.061 485.272 618.94 449.534 612.289 C 415.764 606.055 380.846 578.351 365.433 554.92 C 322.823 490.592 332.636 441.543 403.95 406.523 C 463.973 376.803 497.87 387.891 515.489 394.615 C 564.571 413.041 547.398 457.506 496.079 487.831 C 468.775 503.655 433.155 523.643 432.694 541.739 z "
         id="path126"
         sodipodi:nodetypes="cssssssssss" />
      <path
         style="fill:#000000;fill-rule:evenodd;stroke:none;stroke-opacity:1;stroke-width:1pt;stroke-linejoin:miter;stroke-linecap:butt;fill-opacity:1;"
         d="M 373.961 317.851 C 398.49 300.367 415.304 359.301 393.206 378.939 C 379.506 391.035 349.82 335.204 373.961 317.851 z "
         id="path128"
         sodipodi:nodetypes="css" />
      <path
         style="fill:#000000;fill-rule:evenodd;stroke:none;stroke-opacity:1;stroke-width:1pt;stroke-linejoin:miter;stroke-linecap:butt;fill-opacity:1;"
         d="M 443.797 288.693 C 487.565 272.948 470.772 351.975 450.649 361.152 C 428.848 371.316 409.928 300.837 443.797 288.693 z "
         id="path129"
         sodipodi:nodetypes="css" />
      <path
         style="fill:#000000;fill-rule:evenodd;stroke:none;stroke-opacity:1;stroke-width:1pt;stroke-linejoin:miter;stroke-linecap:butt;fill-opacity:1;"
         d="M 542.209 278.633 C 511.577 289.732 495.04 317.093 496.575 348.031 C 498.779 392.587 544.77 374.017 571.512 341.324 C 609.311 295.366 584.456 263.177 542.209 278.633 z "
         id="path130"
         sodipodi:nodetypes="csss" />
      <path
         style="fill:#000000;fill-rule:evenodd;stroke:none;stroke-opacity:1;stroke-width:1pt;stroke-linejoin:miter;stroke-linecap:butt;fill-opacity:1;"
         d="M 323.808 362.319 C 342.757 337.748 360.67 396.343 349.906 411.597 C 341.149 423.862 304.37 387.333 323.808 362.319 z "
         id="path131"
         sodipodi:nodetypes="css" />
    </g>
  </g>
  <path
     style="fill:#ffffff;fill-rule:evenodd;stroke:none;stroke-opacity:1;stroke-width:1pt;stroke-linejoin:miter;stroke-linecap:butt;fill-opacity:0.625;"
     d="M 140.109 427.402 L 140.109 308.228 C 140.109 276.926 156.277 247.625 203.287 247.625 L 546.54 247.625 C 582.004 247.625 606.285 273.044 606.285 305.312 L 606.285 325.244 C 535.551 301.121 444.936 312.288 362.875 365.071 C 270.298 426.101 224.097 447.003 140.109 427.402 z "
     id="path157"
     sodipodi:nodetypes="cccccccc"
     transform="matrix(0.643855,0,0,0.643855,-59.9144,-129.404)" />
  <path
     transform="scale(0.643855,0.643855)"
     style="font-size:76;font-weight:normal;stroke-width:1pt;font-family:MicrogrammaDBolExt;"
     d="M 444.845 461.09 L 480.136 461.09 C 480.186 461.907 480.21 462.364 480.21 462.463 C 480.21 469.613 480.025 474.994 479.654 478.606 C 479.06 484.444 475.745 487.982 469.708 489.219 C 467.111 489.739 464.13 490.085 460.765 490.258 C 457.425 490.456 452.316 490.555 445.439 490.555 C 436.731 490.555 430.57 490.32 426.958 489.85 C 423.346 489.38 420.489 488.44 418.386 487.03 C 416.951 486.065 415.85 484.828 415.083 483.319 C 414.316 481.81 413.785 479.818 413.488 477.344 C 413.191 475.043 413.042 470.491 413.042 463.688 C 413.042 459.062 413.166 455.573 413.413 453.223 C 413.661 450.873 414.143 448.77 414.861 446.915 C 416.32 443.006 419.425 440.631 424.175 439.79 C 429.37 438.874 437.349 438.417 448.111 438.417 C 454.494 438.417 459.54 438.577 463.251 438.899 C 466.962 439.221 470.018 439.752 472.417 440.495 C 476.301 441.707 478.652 444.329 479.468 448.362 C 479.864 450.366 480.074 453.124 480.099 456.637 L 464.661 456.637 C 464.637 455.202 464.55 454.237 464.402 453.743 C 464.253 453.223 463.944 452.79 463.474 452.444 C 462.608 451.825 460.802 451.442 458.056 451.293 C 455.458 451.145 451.698 451.071 446.775 451.071 C 441.431 451.071 437.609 451.194 435.308 451.442 C 433.032 451.689 431.473 452.147 430.632 452.815 C 429.791 453.508 429.222 454.646 428.925 456.229 C 428.628 457.788 428.48 460.472 428.48 464.282 C 428.48 468.562 428.628 471.555 428.925 473.262 C 429.222 474.944 429.791 476.132 430.632 476.825 C 431.473 477.493 432.562 477.901 433.898 478.049 C 435.259 478.173 439.526 478.284 446.701 478.383 C 453.727 478.334 457.994 478.272 459.503 478.198 C 461.012 478.099 462.225 477.864 463.14 477.493 C 463.882 477.171 464.402 476.652 464.699 475.934 C 465.02 475.192 465.181 474.091 465.181 472.631 C 465.181 472.409 465.169 471.939 465.144 471.221 L 444.845 471.221 L 444.845 461.09 z M 338.044 439.159 L 355.003 439.159 L 373.484 477.084 L 376.378 477.084 L 394.673 439.159 L 411.521 439.159 L 386.806 489.813 L 363.093 489.813 L 338.044 439.159 z M 275.255 473.04 L 290.21 473.04 C 290.186 475.538 290.693 477.146 291.732 477.864 C 292.474 478.334 293.426 478.618 294.589 478.717 C 295.777 478.792 299.488 478.853 305.722 478.903 C 312.253 478.878 316.175 478.841 317.486 478.792 C 318.797 478.717 319.836 478.519 320.603 478.198 C 321.741 477.728 322.31 476.454 322.31 474.375 C 322.31 472.866 321.902 471.864 321.085 471.37 C 320.294 470.85 318.661 470.566 316.187 470.516 C 314.282 470.516 310.249 470.368 304.089 470.071 C 297.781 469.774 293.674 469.601 291.769 469.551 C 288.058 469.428 285.201 469.081 283.197 468.512 C 281.217 467.918 279.671 466.966 278.558 465.655 C 276.653 463.478 275.701 459.841 275.701 454.745 C 275.701 449.03 276.789 444.997 278.966 442.647 C 280.624 440.816 283.172 439.653 286.611 439.159 C 290.05 438.639 297.038 438.379 307.578 438.379 C 315.024 438.379 320.257 438.59 323.275 439.01 C 327.926 439.653 331.117 440.952 332.849 442.907 C 334.581 444.836 335.447 448.102 335.447 452.704 C 335.447 453.124 335.434 453.916 335.41 455.079 L 320.454 455.079 C 320.405 453.668 320.281 452.704 320.083 452.184 C 319.91 451.665 319.551 451.244 319.007 450.922 C 318.339 450.527 317.164 450.279 315.482 450.18 C 313.8 450.056 310.237 449.995 304.794 449.995 C 298.238 449.995 294.243 450.205 292.808 450.625 C 291.373 451.021 290.656 452.147 290.656 454.002 C 290.656 455.784 291.373 456.872 292.808 457.268 C 293.995 457.59 299.451 457.899 309.173 458.196 C 317.362 458.443 322.829 458.74 325.576 459.086 C 328.346 459.408 330.548 460.039 332.181 460.979 C 334.036 462.092 335.348 463.626 336.115 465.581 C 336.882 467.51 337.265 470.293 337.265 473.93 C 337.265 478.705 336.622 482.255 335.335 484.581 C 334.37 486.288 333.022 487.562 331.29 488.403 C 329.583 489.244 327.171 489.813 324.054 490.11 C 320.714 490.407 314.492 490.555 305.388 490.555 C 297.768 490.555 292.14 490.357 288.503 489.961 C 284.867 489.566 282.133 488.861 280.302 487.846 C 278.397 486.758 277.074 485.323 276.331 483.542 C 275.614 481.76 275.255 479.051 275.255 475.415 L 275.255 473.04 z "
     id="path212" />
  <path
     transform="scale(0.643855,0.643855)"
     style="font-size:76;font-weight:normal;fill:#5a5a5a;stroke-width:1pt;font-family:MicrogrammaDBolExt;"
     d="M 208.512 489.813 L 208.512 439.159 L 245.807 439.159 C 254.565 439.183 259.81 439.282 261.542 439.456 C 263.274 439.604 264.943 440.173 266.552 441.163 C 268.481 442.325 269.805 443.933 270.522 445.987 C 271.24 448.015 271.598 451.219 271.598 455.598 C 271.598 459.284 271.363 461.993 270.893 463.725 C 270.448 465.457 269.595 466.842 268.333 467.881 C 266.972 468.995 264.919 469.762 262.173 470.182 C 265.414 470.43 267.739 471.357 269.149 472.965 C 269.966 473.93 270.485 475.105 270.708 476.491 C 270.93 477.851 271.042 480.721 271.042 485.1 L 271.042 489.813 L 255.827 489.813 L 255.827 487.104 C 255.827 484.284 255.716 482.28 255.493 481.092 C 255.295 479.88 254.912 478.952 254.343 478.309 C 253.774 477.715 252.982 477.344 251.968 477.196 C 250.978 477.023 248.887 476.936 245.696 476.936 L 223.95 476.936 L 223.95 489.813 L 208.512 489.813 z M 223.95 464.282 L 245.659 464.282 C 249.444 464.208 251.695 464.146 252.413 464.096 C 253.155 464.022 253.786 463.824 254.305 463.502 C 254.973 463.082 255.443 462.463 255.716 461.647 C 255.988 460.806 256.124 459.544 256.124 457.862 C 256.124 456.204 255.963 454.967 255.641 454.151 C 255.345 453.334 254.813 452.741 254.046 452.37 C 253.501 452.122 252.846 451.974 252.079 451.924 C 251.337 451.875 249.184 451.838 245.622 451.813 L 223.95 451.813 L 223.95 464.282 z "
     id="path213" />
  <path
     transform="scale(0.643855,0.643855)"
     style="font-size:76;font-weight:normal;fill:none;stroke:#ffffff;stroke-width:2.21099;font-family:MicrogrammaDBolExt;"
     d="M 444.822 461.913 L 480.113 461.913 C 480.162 462.73 480.187 463.187 480.187 463.286 C 480.187 470.436 480.001 475.817 479.63 479.429 C 479.037 485.267 475.721 488.805 469.685 490.042 C 467.087 490.562 464.106 490.908 460.742 491.081 C 457.402 491.279 452.293 491.378 445.415 491.378 C 436.707 491.378 430.547 491.143 426.935 490.673 C 423.323 490.203 420.466 489.263 418.363 487.853 C 416.928 486.888 415.827 485.651 415.06 484.142 C 414.293 482.633 413.761 480.641 413.464 478.167 C 413.167 475.866 413.019 471.314 413.019 464.511 C 413.019 459.885 413.143 456.396 413.39 454.046 C 413.637 451.696 414.12 449.593 414.837 447.738 C 416.297 443.829 419.402 441.454 424.152 440.613 C 429.347 439.697 437.326 439.24 448.087 439.24 C 454.47 439.24 459.517 439.4 463.228 439.722 C 466.939 440.044 469.994 440.575 472.394 441.318 C 476.278 442.53 478.628 445.152 479.445 449.185 C 479.841 451.189 480.051 453.947 480.076 457.46 L 464.638 457.46 C 464.613 456.025 464.527 455.06 464.378 454.566 C 464.23 454.046 463.921 453.613 463.451 453.267 C 462.585 452.648 460.779 452.265 458.033 452.116 C 455.435 451.968 451.675 451.894 446.751 451.894 C 441.408 451.894 437.585 452.017 435.285 452.265 C 433.009 452.512 431.45 452.97 430.609 453.638 C 429.768 454.331 429.199 455.469 428.902 457.052 C 428.605 458.611 428.456 461.295 428.456 465.105 C 428.456 469.385 428.605 472.378 428.902 474.085 C 429.199 475.767 429.768 476.955 430.609 477.648 C 431.45 478.316 432.538 478.724 433.874 478.872 C 435.235 478.996 439.503 479.107 446.677 479.206 C 453.703 479.157 457.971 479.095 459.48 479.021 C 460.989 478.922 462.201 478.687 463.117 478.316 C 463.859 477.994 464.378 477.475 464.675 476.757 C 464.997 476.015 465.158 474.914 465.158 473.454 C 465.158 473.232 465.145 472.762 465.121 472.044 L 444.822 472.044 L 444.822 461.913 z M 338.021 439.982 L 354.98 439.982 L 373.46 477.907 L 376.355 477.907 L 394.65 439.982 L 411.497 439.982 L 386.783 490.636 L 363.07 490.636 L 338.021 439.982 z M 275.232 473.863 L 290.187 473.863 C 290.162 476.361 290.669 477.969 291.708 478.687 C 292.451 479.157 293.403 479.441 294.566 479.54 C 295.753 479.615 299.464 479.676 305.699 479.726 C 312.23 479.701 316.151 479.664 317.462 479.615 C 318.774 479.54 319.813 479.342 320.579 479.021 C 321.718 478.551 322.287 477.277 322.287 475.198 C 322.287 473.689 321.878 472.687 321.062 472.193 C 320.27 471.673 318.637 471.389 316.163 471.339 C 314.259 471.339 310.226 471.191 304.066 470.894 C 297.757 470.597 293.65 470.424 291.746 470.374 C 288.035 470.251 285.177 469.904 283.173 469.335 C 281.194 468.741 279.648 467.789 278.535 466.478 C 276.63 464.301 275.677 460.664 275.677 455.568 C 275.677 449.853 276.766 445.82 278.943 443.47 C 280.6 441.639 283.149 440.476 286.587 439.982 C 290.026 439.462 297.015 439.202 307.554 439.202 C 315.001 439.202 320.233 439.413 323.251 439.833 C 327.902 440.476 331.094 441.775 332.826 443.73 C 334.557 445.659 335.423 448.925 335.423 453.527 C 335.423 453.947 335.411 454.739 335.386 455.902 L 320.431 455.902 C 320.382 454.491 320.258 453.527 320.06 453.007 C 319.887 452.488 319.528 452.067 318.984 451.745 C 318.316 451.35 317.141 451.102 315.458 451.003 C 313.776 450.879 310.214 450.818 304.771 450.818 C 298.215 450.818 294.219 451.028 292.785 451.448 C 291.35 451.844 290.632 452.97 290.632 454.825 C 290.632 456.607 291.35 457.695 292.785 458.091 C 293.972 458.413 299.427 458.722 309.15 459.019 C 317.339 459.266 322.806 459.563 325.552 459.909 C 328.323 460.231 330.525 460.862 332.158 461.802 C 334.013 462.915 335.324 464.449 336.091 466.404 C 336.858 468.333 337.242 471.116 337.242 474.753 C 337.242 479.528 336.598 483.078 335.312 485.404 C 334.347 487.111 332.999 488.385 331.267 489.226 C 329.56 490.067 327.148 490.636 324.031 490.933 C 320.691 491.23 314.469 491.378 305.365 491.378 C 297.745 491.378 292.117 491.18 288.48 490.784 C 284.843 490.389 282.109 489.684 280.279 488.669 C 278.374 487.581 277.05 486.146 276.308 484.365 C 275.591 482.583 275.232 479.874 275.232 476.238 L 275.232 473.863 z M 208.621 490.636 L 208.621 439.982 L 245.915 439.982 C 254.673 440.006 259.918 440.105 261.65 440.279 C 263.382 440.427 265.052 440.996 266.66 441.986 C 268.589 443.148 269.913 444.756 270.63 446.81 C 271.348 448.838 271.706 452.042 271.706 456.421 C 271.706 460.107 271.471 462.816 271.001 464.548 C 270.556 466.28 269.703 467.665 268.441 468.704 C 267.08 469.818 265.027 470.585 262.281 471.005 C 265.522 471.253 267.847 472.18 269.257 473.788 C 270.074 474.753 270.593 475.928 270.816 477.314 C 271.038 478.674 271.15 481.544 271.15 485.923 L 271.15 490.636 L 255.935 490.636 L 255.935 487.927 C 255.935 485.107 255.824 483.103 255.601 481.915 C 255.403 480.703 255.02 479.775 254.451 479.132 C 253.882 478.538 253.09 478.167 252.076 478.019 C 251.086 477.846 248.996 477.759 245.804 477.759 L 224.058 477.759 L 224.058 490.636 L 208.621 490.636 z M 224.058 465.105 L 245.767 465.105 C 249.552 465.031 251.803 464.969 252.521 464.919 C 253.263 464.845 253.894 464.647 254.413 464.325 C 255.081 463.905 255.552 463.286 255.824 462.47 C 256.096 461.629 256.232 460.367 256.232 458.685 C 256.232 457.027 256.071 455.79 255.749 454.974 C 255.453 454.157 254.921 453.564 254.154 453.193 C 253.609 452.945 252.954 452.797 252.187 452.747 C 251.445 452.698 249.292 452.661 245.73 452.636 L 224.058 452.636 L 224.058 465.105 z M 152.363 439.982 L 165.796 439.982 L 165.796 459.501 L 166.39 459.501 C 167.751 457.275 169.482 455.766 171.585 454.974 C 173.688 454.157 176.979 453.749 181.456 453.749 C 185.885 453.749 189.435 454.009 192.107 454.529 C 194.803 455.048 196.931 455.902 198.49 457.089 C 200.246 458.4 201.446 460.144 202.089 462.322 C 202.732 464.499 203.054 467.913 203.054 472.564 C 203.054 475.582 202.955 477.895 202.757 479.503 C 202.584 481.087 202.238 482.559 201.718 483.919 C 200.679 486.74 198.675 488.719 195.706 489.857 C 192.738 490.995 188.111 491.564 181.828 491.564 C 175.544 491.564 171.214 490.846 168.839 489.411 C 167.775 488.768 166.749 487.605 165.759 485.923 L 165.017 485.923 L 165.017 490.636 L 152.363 490.636 L 152.363 439.982 z M 177.783 463.88 C 173.156 463.88 170.052 464.301 168.468 465.142 C 167.454 465.686 166.749 466.515 166.353 467.628 C 165.982 468.741 165.796 470.473 165.796 472.823 C 165.796 475.347 166.019 477.141 166.464 478.204 C 166.934 479.243 167.825 479.986 169.136 480.431 C 170.967 481.099 173.923 481.433 178.005 481.433 C 182.731 481.433 185.872 480.938 187.431 479.948 C 188.247 479.429 188.816 478.6 189.138 477.462 C 189.46 476.324 189.621 474.617 189.621 472.341 C 189.621 469.966 189.398 468.259 188.953 467.22 C 188.532 466.181 187.728 465.426 186.54 464.956 C 184.759 464.239 181.84 463.88 177.783 463.88 z M 132.843 454.677 L 146.277 454.677 L 146.277 490.636 L 132.843 490.636 L 132.843 454.677 z M 132.843 439.982 L 146.277 439.982 L 146.277 450.075 L 132.843 450.075 L 132.843 439.982 z M 77.5873 439.982 L 93.8041 439.982 L 93.8041 477.722 L 129.837 477.722 L 129.837 490.636 L 77.5873 490.636 L 77.5873 439.982 z "
     id="path214" />
  <path
     style="fill:none;fill-rule:evenodd;stroke:#0000ff;stroke-opacity:1;stroke-width:1pt;stroke-linejoin:miter;stroke-linecap:butt;fill-opacity:1;"
     d="M 139.896 302.264 L 133.608 308.552 L 139.896 314.841 L 146.185 308.552 L 139.896 302.264 z "
     id="path197"
     sodipodi:nodetypes="ccccc"
     transform="matrix(0.643855,0,0,0.643855,-59.9144,-129.404)" />
  <path
     style="fill:none;fill-rule:evenodd;stroke:#0000ff;stroke-opacity:1;stroke-width:1pt;stroke-linejoin:miter;stroke-linecap:butt;fill-opacity:1;"
     d="M 139.896 302.264 L 133.608 308.552 L 139.896 314.841 L 146.185 308.552 L 139.896 302.264 z "
     id="path198"
     sodipodi:nodetypes="ccccc"
     transform="matrix(0.643855,0,0,0.643855,-59.5388,-52.8055)" />
  <path
     style="fill:none;fill-rule:evenodd;stroke:#0000ff;stroke-opacity:1;stroke-width:1pt;stroke-linejoin:miter;stroke-linecap:butt;fill-opacity:1;"
     d="M 139.896 302.264 L 133.608 308.552 L 139.896 314.841 L 146.185 308.552 L 139.896 302.264 z "
     id="path199"
     sodipodi:nodetypes="ccccc"
     transform="matrix(0.643855,0,0,0.643855,-18.9863,-168.453)" />
  <path
     style="fill:none;fill-rule:evenodd;stroke:#0000ff;stroke-opacity:1;stroke-width:1pt;stroke-linejoin:miter;stroke-linecap:butt;fill-opacity:1;"
     d="M 139.896 302.264 L 133.608 308.552 L 139.896 314.841 L 146.185 308.552 L 139.896 302.264 z "
     id="path200"
     sodipodi:nodetypes="ccccc"
     transform="matrix(0.643855,0,0,0.643855,201.798,-168.268)" />
  <path
     style="fill:none;fill-rule:evenodd;stroke:#0000ff;stroke-opacity:1;stroke-width:1pt;stroke-linejoin:miter;stroke-linecap:butt;fill-opacity:1;"
     d="M 139.896 302.264 L 133.608 308.552 L 139.896 314.841 L 146.185 308.552 L 139.896 302.264 z "
     id="path201"
     sodipodi:nodetypes="ccccc"
     transform="matrix(0.643855,0,0,0.643855,240.662,-131.282)" />
  <path
     style="fill:none;fill-rule:evenodd;stroke:#0000ff;stroke-opacity:1;stroke-width:1pt;stroke-linejoin:miter;stroke-linecap:butt;fill-opacity:1;"
     d="M 139.896 302.264 L 133.608 308.552 L 139.896 314.841 L 146.185 308.552 L 139.896 302.264 z "
     id="path202"
     sodipodi:nodetypes="ccccc"
     transform="matrix(0.643855,0,0,0.643855,240.472,-118.703)" />
  <path
     sodipodi:type="arc"
     style="font-size:12;fill:none;fill-rule:evenodd;stroke:#0000ff;stroke-width:1pt;"
     id="path203"
     d="M 144.336533,277.902039 A 4.665451,4.665466 0 1 1 144.335571,277.807556"
     sodipodi:cx="139.671082"
     sodipodi:cy="277.902039"
     sodipodi:rx="4.665451"
     sodipodi:ry="4.665466"
     transform="matrix(0.643855,0,0,0.643855,-49.1612,-148.785)"
     sodipodi:start="0.000000"
     sodipodi:end="6.262932"
     sodipodi:open="true" />
  <path
     sodipodi:type="arc"
     style="font-size:12;fill:none;fill-rule:evenodd;stroke:#0000ff;stroke-width:1pt;"
     id="path204"
     d="M 144.336533,277.902039 A 4.665451,4.665466 0 1 1 144.336533,277.894653"
     sodipodi:cx="139.671082"
     sodipodi:cy="277.902039"
     sodipodi:rx="4.665451"
     sodipodi:ry="4.665466"
     transform="matrix(0.643855,0,0,0.643855,-5.48499,-20.4131)"
     sodipodi:start="0.000000"
     sodipodi:end="6.281601"
     sodipodi:open="true" />
  <path
     sodipodi:type="arc"
     style="font-size:12;fill:none;fill-rule:evenodd;stroke:#0000ff;stroke-width:1pt;"
     id="path205"
     d="M 144.336533,277.902039 A 4.665451,4.665466 0 1 1 144.336075,277.836243"
     sodipodi:cx="139.671082"
     sodipodi:cy="277.902039"
     sodipodi:rx="4.665451"
     sodipodi:ry="4.665466"
     transform="matrix(0.643855,0,0,0.643855,24.1191,-33.556)"
     sodipodi:start="0.000000"
     sodipodi:end="6.269082"
     sodipodi:open="true" />
  <path
     sodipodi:type="arc"
     style="font-size:12;fill:none;fill-rule:evenodd;stroke:#0000ff;stroke-width:1pt;"
     id="path206"
     d="M 144.336533,277.902039 A 4.665451,4.665466 0 1 1 144.336121,277.839783"
     sodipodi:cx="139.671082"
     sodipodi:cy="277.902039"
     sodipodi:rx="4.665451"
     sodipodi:ry="4.665466"
     transform="matrix(0.643855,0,0,0.643855,136.296,-107.632)"
     sodipodi:start="0.000000"
     sodipodi:end="6.269842"
     sodipodi:open="true" />
  <path
     sodipodi:type="arc"
     style="font-size:12;fill:none;fill-rule:evenodd;stroke:#0000ff;stroke-width:1pt;"
     id="path207"
     d="M 144.336533,277.902039 A 4.665451,4.665466 0 1 1 144.336105,277.838928"
     sodipodi:cx="139.671082"
     sodipodi:cy="277.902039"
     sodipodi:rx="4.665451"
     sodipodi:ry="4.665466"
     transform="matrix(0.643855,0,0,0.643855,224.973,-148.785)"
     sodipodi:start="0.000000"
     sodipodi:end="6.269661"
     sodipodi:open="true" />
  <path
     sodipodi:type="arc"
     style="font-size:12;fill:none;fill-rule:evenodd;stroke:#0000ff;stroke-width:1pt;"
     id="path208"
     d="M 144.336533,277.902039 A 4.665451,4.665466 0 1 1 144.334869,277.777496"
     sodipodi:cx="139.671082"
     sodipodi:cy="277.902039"
     sodipodi:rx="4.665451"
     sodipodi:ry="4.665466"
     transform="matrix(0.643855,0,0,0.643855,240.64,-132.324)"
     sodipodi:start="0.000000"
     sodipodi:end="6.256489"
     sodipodi:open="true" />
  <path
     sodipodi:type="arc"
     style="font-size:12;fill:none;fill-rule:evenodd;stroke:#0000ff;stroke-width:1pt;"
     id="path228"
     d="M 144.336533,277.902039 A 4.665451,4.665466 0 1 1 144.336441,277.872955"
     sodipodi:cx="139.671082"
     sodipodi:cy="277.902039"
     sodipodi:rx="4.665451"
     sodipodi:ry="4.665466"
     transform="matrix(0.643855,0,0,0.643855,198.556,-118.651)"
     sodipodi:start="0.000000"
     sodipodi:end="6.276952"
     sodipodi:open="true" />
  <path
     style="fill:none;fill-rule:evenodd;stroke:#0000ff;stroke-opacity:1;stroke-width:1pt;stroke-linejoin:miter;stroke-linecap:butt;fill-opacity:1;"
     d="M 545.419 296.781 L 602.035 322.725 "
     id="path231"
     sodipodi:nodetypes="cc"
     transform="matrix(0.643855,0,0,0.643855,-59.9144,-129.404)" />
  <path
     style="fill:none;fill-rule:evenodd;stroke:#0000ff;stroke-opacity:1;stroke-width:1pt;stroke-linejoin:miter;stroke-linecap:butt;fill-opacity:1;"
     d="M 574.141 297.218 L 574.334 318.497 "
     id="path232"
     sodipodi:nodetypes="cc"
     transform="matrix(0.643855,0,0,0.643855,-39.0744,-141.701)" />
  <path
     style="fill:none;fill-rule:evenodd;stroke:#0000ff;stroke-opacity:1;stroke-width:1pt;stroke-linejoin:miter;stroke-linecap:butt;fill-opacity:1;"
     d="M 556.499 304.654 L 581.041 304.501 "
     id="path233"
     sodipodi:nodetypes="cc"
     transform="matrix(0.643855,0,0,0.643855,-62.4481,-165.731)" />
  <path
     style="fill:none;fill-rule:evenodd;stroke:#0000ff;stroke-opacity:1;stroke-width:1pt;stroke-linejoin:miter;stroke-linecap:butt;fill-opacity:1;"
     d="M 617.005 292.844 L 543.425 341.241 "
     id="path234"
     sodipodi:nodetypes="cc"
     transform="matrix(0.643855,0,0,0.643855,-173.687,-115.455)" />
  <path
     style="fill:none;fill-rule:evenodd;stroke:#0000ff;stroke-opacity:1;stroke-width:1pt;stroke-linejoin:miter;stroke-linecap:butt;fill-opacity:1;"
     d="M 624.586 286.137 L 539.343 341.533 "
     id="path235"
     sodipodi:nodetypes="cc"
     transform="matrix(0.643855,0,0,0.643855,-230.759,-76.4066)" />
  <path
     style="fill:none;fill-rule:evenodd;stroke:#0000ff;stroke-opacity:1;stroke-width:1pt;stroke-linejoin:miter;stroke-linecap:butt;fill-opacity:1;"
     d="M 139.896 302.264 L 133.608 308.552 L 139.896 314.841 L 146.185 308.552 L 139.896 302.264 z "
     id="path236"
     sodipodi:nodetypes="ccccc"
     transform="matrix(0.643855,0,0,0.643855,83.522,-92.6069)" />
  <path
     style="fill:none;fill-rule:evenodd;stroke:#0000ff;stroke-opacity:1;stroke-width:1pt;stroke-linejoin:miter;stroke-linecap:butt;fill-opacity:1;"
     d="M 623.795 329.474 L 549.257 312.957 "
     id="path237"
     sodipodi:nodetypes="cc"
     transform="matrix(0.643855,0,0,0.643855,-320.125,-54.4404)" />
  <path
     style="fill:none;fill-rule:evenodd;stroke:#0000ff;stroke-opacity:1;stroke-width:1pt;stroke-linejoin:miter;stroke-linecap:butt;fill-opacity:1;"
     d="M 574.045 290.477 L 574.128 270.058 "
     id="path238"
     sodipodi:nodetypes="cc"
     transform="matrix(0.643855,0,0,0.643855,-339.432,-121.745)" />
  <path
     sodipodi:type="arc"
     style="font-size:12;fill:none;fill-rule:evenodd;stroke:#0000ff;stroke-width:1pt;"
     id="path239"
     d="M 144.336533,277.902039 A 4.665451,4.665466 0 1 1 144.335617,277.809509"
     sodipodi:cx="139.671082"
     sodipodi:cy="277.902039"
     sodipodi:rx="4.665451"
     sodipodi:ry="4.665466"
     transform="matrix(0.643855,0,0,0.643855,-59.7822,-129.669)"
     sodipodi:start="0.000000"
     sodipodi:end="6.263348"
     sodipodi:open="true" />
  <path
     style="fill:none;fill-rule:evenodd;stroke:#0000ff;stroke-opacity:1;stroke-width:1pt;stroke-linejoin:miter;stroke-linecap:butt;fill-opacity:1;"
     d="M 607.859 270.271 L 571.86 270.264 "
     id="path240"
     sodipodi:nodetypes="cc"
     transform="matrix(0.643855,0,0,0.643855,-324.431,-143.916)" />
</svg>
