<?xml version="1.0" encoding="UTF-8" standalone="no"?>
<!DOCTYPE svg PUBLIC "-//W3C//DTD SVG 20010904//EN"
"http://www.w3.org/TR/2001/REC-SVG-20010904/DTD/svg10.dtd">
<!-- Created with Sodipodi ("http://www.sodipodi.com/") -->
<svg
   id="svg722"
   sodipodi:version="0.32"
   width="600pt"
   height="600pt"
   sodipodi:docbase="/home/petr/"
   sodipodi:docname="/home/petr/corrosive.svg"
   xmlns="http://www.w3.org/2000/svg"
   xmlns:sodipodi="http://sodipodi.sourceforge.net/DTD/sodipodi-0.dtd"
   xmlns:xlink="http://www.w3.org/1999/xlink"
   sodipodi:author="Aqua78">
  <defs
     id="defs724" />
  <sodipodi:namedview
     id="base" />
  <g
     id="g619"
     transform="translate(-14.98619,96.57753)">
    <rect
       style="font-size:12;fill:#ff6700;fill-rule:evenodd;stroke:#000000;stroke-width:6.25;"
       id="rect633"
       width="600.000000"
       height="600.000000"
       x="93.279453"
       y="-19.575760" />
    <g
       id="g1218"
       transform="translate(122.3232,22.76952)">
      <g
         id="g933"
         transform="translate(0.000000,-3.051758e-5)"
         style="font-size:12;">
        <g
           id="g832">
          <rect
             style="font-size:12;fill:#000000;fill-rule:evenodd;stroke-width:1pt;fill-opacity:1;"
             id="rect830"
             width="193.595413"
             height="41.277101"
             x="13.371454"
             y="405.881270" />
          <path
             sodipodi:type="arc"
             style="fill-rule:evenodd;stroke:none;fill:#ff6600;fill-opacity:1;stroke-opacity:1;stroke-width:1pt;stroke-linejoin:miter;stroke-linecap:butt;"
             id="path831"
             d="M 111.041214 410.823059 A 26.742912 13.662125 0 1 0 57.555389,410.823059 A 26.7429 13.6621 0 1 0 111.041 410.823 L 84.298302 410.823059 z"
             sodipodi:cx="84.298302"
             sodipodi:cy="410.823059"
             sodipodi:rx="26.742912"
             sodipodi:ry="13.662125"
             transform="matrix(0.994566,0.000000,0.000000,1.893621,1.766233,-381.6544)" />
        </g>
        <g
           id="g918">
          <g
             id="g809"
             transform="translate(-330.5068,-27.32425)">
            <g
               id="g810">
              <path
                 sodipodi:type="arc"
                 style="fill-rule:evenodd;stroke:none;fill:#000000;fill-opacity:1;stroke-opacity:1;stroke-width:1pt;stroke-linejoin:miter;stroke-linecap:butt;"
                 id="path811"
                 d="M 433.115234 346.442535 A 12.644638 17.004852 0 1 0 407.825928,346.442535 A 12.6446 17.0049 0 1 0 433.115 346.443 L 420.470581 346.442535 z"
                 sodipodi:cx="420.470581"
                 sodipodi:cy="346.442535"
                 sodipodi:rx="12.644638"
                 sodipodi:ry="17.004852"
                 transform="matrix(1.373565,0.000000,0.000000,1.170941,-161.2151,-59.80273)" />
              <path
                 style="fill:#000000;fill-rule:evenodd;stroke:#000000;stroke-opacity:1;stroke-width:1pt;stroke-linejoin:miter;stroke-linecap:butt;fill-opacity:1;"
                 d="M 416.11 311.197 C 413.809 319.893 414.051 321.686 407.244 329.438 L 425.267 329.365 C 419.235 323.261 418.945 319.409 416.11 311.197 z "
                 id="path812"
                 sodipodi:nodetypes="cccc" />
            </g>
            <path
               sodipodi:type="arc"
               style="fill-rule:evenodd;stroke:none;fill:#ff6600;fill-opacity:1;stroke-opacity:1;stroke-width:1pt;stroke-linejoin:miter;stroke-linecap:butt;"
               id="path813"
               d="M 416.687805 344.676331 A 2.492218 5.601044 0 1 0 411.703369,344.676331 A 2.49222 5.60104 0 1 0 416.688 344.676 L 414.195587 344.676331 z"
               sodipodi:cx="414.195587"
               sodipodi:cy="344.676331"
               sodipodi:rx="2.492218"
               sodipodi:ry="5.601044"
               transform="matrix(1.494849,0.000000,0.000000,1.110089,-205.5809,-38.61278)" />
          </g>
          <g
             id="g814"
             transform="translate(-330.2161,32.55650)">
            <g
               id="g815">
              <path
                 sodipodi:type="arc"
                 style="fill-rule:evenodd;stroke:none;fill:#000000;fill-opacity:1;stroke-opacity:1;stroke-width:1pt;stroke-linejoin:miter;stroke-linecap:butt;"
                 id="path816"
                 d="M 433.115234 346.442535 A 12.644638 17.004852 0 1 0 407.825928,346.442535 A 12.6446 17.0049 0 1 0 433.115 346.443 L 420.470581 346.442535 z"
                 sodipodi:cx="420.470581"
                 sodipodi:cy="346.442535"
                 sodipodi:rx="12.644638"
                 sodipodi:ry="17.004852"
                 transform="matrix(1.373565,0.000000,0.000000,1.170941,-161.2151,-59.80273)" />
              <path
                 style="fill:#000000;fill-rule:evenodd;stroke:#000000;stroke-opacity:1;stroke-width:1pt;stroke-linejoin:miter;stroke-linecap:butt;fill-opacity:1;"
                 d="M 416.11 311.197 C 413.809 319.893 414.051 321.686 407.244 329.438 L 425.267 329.365 C 419.235 323.261 418.945 319.409 416.11 311.197 z "
                 id="path817"
                 sodipodi:nodetypes="cccc" />
            </g>
            <path
               sodipodi:type="arc"
               style="fill-rule:evenodd;stroke:none;fill:#ff6600;fill-opacity:1;stroke-opacity:1;stroke-width:1pt;stroke-linejoin:miter;stroke-linecap:butt;"
               id="path818"
               d="M 416.687805 344.676331 A 2.492218 5.601044 0 1 0 411.703369,344.676331 A 2.49222 5.60104 0 1 0 416.688 344.676 L 414.195587 344.676331 z"
               sodipodi:cx="414.195587"
               sodipodi:cy="344.676331"
               sodipodi:rx="2.492218"
               sodipodi:ry="5.601044"
               transform="matrix(1.494849,0.000000,0.000000,1.110089,-205.5809,-38.61278)" />
          </g>
          <path
             style="fill:#000000;fill-rule:evenodd;stroke:#000000;stroke-opacity:1;stroke-width:1pt;stroke-linejoin:miter;stroke-linecap:butt;fill-opacity:1;"
             d="M 136.687 339.124 L 144.497 347.963 L 115.31 368.106 L 114.283 364.611 L 136.687 339.124 z "
             id="path819"
             sodipodi:nodetypes="ccccc" />
          <path
             style="fill:#000000;fill-rule:evenodd;stroke:#000000;stroke-opacity:1;stroke-width:1pt;stroke-linejoin:miter;stroke-linecap:butt;fill-opacity:1;"
             d="M 107.294 392.565 L 132.782 381.877 L 134.837 391.743 L 107.089 395.853 L 107.294 392.565 z "
             id="path825"
             sodipodi:nodetypes="ccccc" />
          <path
             style="fill:#000000;fill-rule:evenodd;stroke:#000000;stroke-opacity:1;stroke-width:1pt;stroke-linejoin:miter;stroke-linecap:butt;fill-opacity:1;"
             d="M 32.2705 339.534 L 41.7255 332.135 C 41.7255 332.135 60.0189 360.5 59.8134 360.294 L 58.5801 363.994 L 32.2705 339.534 z "
             id="path826"
             sodipodi:nodetypes="ccccc" />
          <path
             style="fill:#000000;fill-rule:evenodd;stroke:#000000;stroke-opacity:1;stroke-width:1pt;stroke-linejoin:miter;stroke-linecap:butt;fill-opacity:1;"
             d="M 37.2036 371.805 L 30.8316 381.877 L 62.8966 395.853 L 63.9243 392.976 L 37.2036 371.805 z "
             id="path828"
             sodipodi:nodetypes="ccccc" />
        </g>
      </g>
      <g
         id="g1028"
         transform="translate(0.000000,-3.051758e-5)"
         style="font-size:12;">
        <g
           id="g835"
           style="font-size:12;">
          <g
             id="g799"
             transform="translate(0.000000,-3.051758e-5)">
            <g
               id="g796">
              <path
                 sodipodi:type="arc"
                 style="fill-rule:evenodd;stroke:none;fill:#000000;fill-opacity:1;stroke-opacity:1;stroke-width:1pt;stroke-linejoin:miter;stroke-linecap:butt;"
                 id="path793"
                 d="M 433.115234 346.442535 A 12.644638 17.004852 0 1 0 407.825928,346.442535 A 12.6446 17.0049 0 1 0 433.115 346.443 L 420.470581 346.442535 z"
                 sodipodi:cx="420.470581"
                 sodipodi:cy="346.442535"
                 sodipodi:rx="12.644638"
                 sodipodi:ry="17.004852"
                 transform="matrix(1.373565,0.000000,0.000000,1.170941,-161.2151,-59.80273)" />
              <path
                 style="fill:#000000;fill-rule:evenodd;stroke:#000000;stroke-opacity:1;stroke-width:1pt;stroke-linejoin:miter;stroke-linecap:butt;fill-opacity:1;"
                 d="M 416.11 311.197 C 413.809 319.893 414.051 321.686 407.244 329.438 L 425.267 329.365 C 419.235 323.261 418.945 319.409 416.11 311.197 z "
                 id="path794"
                 sodipodi:nodetypes="cccc" />
            </g>
            <path
               sodipodi:type="arc"
               style="fill-rule:evenodd;stroke:none;fill:#ff6600;fill-opacity:1;stroke-opacity:1;stroke-width:1pt;stroke-linejoin:miter;stroke-linecap:butt;"
               id="path795"
               d="M 416.687805 344.676331 A 2.492218 5.601044 0 1 0 411.703369,344.676331 A 2.49222 5.60104 0 1 0 416.688 344.676 L 414.195587 344.676331 z"
               sodipodi:cx="414.195587"
               sodipodi:cy="344.676331"
               sodipodi:rx="2.492218"
               sodipodi:ry="5.601044"
               transform="matrix(1.494849,0.000000,0.000000,1.110089,-205.5809,-38.61278)" />
          </g>
          <g
             id="g804"
             transform="translate(0.000000,-59.59003)">
            <g
               id="g805">
              <path
                 sodipodi:type="arc"
                 style="fill-rule:evenodd;stroke:none;fill:#000000;fill-opacity:1;stroke-opacity:1;stroke-width:1pt;stroke-linejoin:miter;stroke-linecap:butt;"
                 id="path806"
                 d="M 433.115234 346.442535 A 12.644638 17.004852 0 1 0 407.825928,346.442535 A 12.6446 17.0049 0 1 0 433.115 346.443 L 420.470581 346.442535 z"
                 sodipodi:cx="420.470581"
                 sodipodi:cy="346.442535"
                 sodipodi:rx="12.644638"
                 sodipodi:ry="17.004852"
                 transform="matrix(1.373565,0.000000,0.000000,1.170941,-161.2151,-59.80273)" />
              <path
                 style="fill:#000000;fill-rule:evenodd;stroke:#000000;stroke-opacity:1;stroke-width:1pt;stroke-linejoin:miter;stroke-linecap:butt;fill-opacity:1;"
                 d="M 416.11 311.197 C 413.809 319.893 414.051 321.686 407.244 329.438 L 425.267 329.365 C 419.235 323.261 418.945 319.409 416.11 311.197 z "
                 id="path807"
                 sodipodi:nodetypes="cccc" />
            </g>
            <path
               sodipodi:type="arc"
               style="fill-rule:evenodd;stroke:none;fill:#ff6600;fill-opacity:1;stroke-opacity:1;stroke-width:1pt;stroke-linejoin:miter;stroke-linecap:butt;"
               id="path808"
               d="M 416.687805 344.676331 A 2.492218 5.601044 0 1 0 411.703369,344.676331 A 2.49222 5.60104 0 1 0 416.688 344.676 L 414.195587 344.676331 z"
               sodipodi:cx="414.195587"
               sodipodi:cy="344.676331"
               sodipodi:rx="2.492218"
               sodipodi:ry="5.601044"
               transform="matrix(1.494849,0.000000,0.000000,1.110089,-205.5809,-38.61278)" />
          </g>
          <path
             style="fill:#000000;fill-rule:evenodd;stroke:#000000;stroke-opacity:1;stroke-width:1pt;stroke-linejoin:miter;stroke-linecap:butt;fill-opacity:1;"
             d="M 137.509 338.507 L 145.525 347.552 L 114.694 365.64 L 112.639 362.762 L 137.509 338.507 z "
             id="path820"
             sodipodi:nodetypes="ccccc"
             transform="matrix(-1.000000,0.000000,0.000000,1.000000,500.2944,-35.35365)" />
          <path
             style="fill:#000000;fill-rule:evenodd;stroke:#000000;stroke-opacity:1;stroke-width:1pt;stroke-linejoin:miter;stroke-linecap:butt;fill-opacity:1;"
             d="M 136.276 338.096 L 145.525 345.085 L 121.477 368.723 L 117.572 368.106 L 136.276 338.096 z "
             id="path821"
             sodipodi:nodetypes="ccccc"
             transform="translate(322.2933,-51.79713)" />
          <path
             style="fill:#000000;fill-rule:evenodd;stroke:#000000;stroke-opacity:1;stroke-width:1pt;stroke-linejoin:miter;stroke-linecap:butt;fill-opacity:1;"
             d="M 373.063 280.338 L 381.49 276.637 L 390.945 302.948 L 389.095 304.181 L 373.063 280.338 z "
             id="path822"
             sodipodi:nodetypes="ccccc" />
          <path
             style="fill:#000000;fill-rule:evenodd;stroke:#000000;stroke-opacity:1;stroke-width:1pt;stroke-linejoin:miter;stroke-linecap:butt;fill-opacity:1;"
             d="M 369.363 339.946 L 366.28 349.401 L 393.823 353.512 L 394.439 350.634 L 369.363 339.946 z "
             id="path823"
             sodipodi:nodetypes="ccccc" />
          <path
             style="fill:#000000;fill-rule:evenodd;stroke:#000000;stroke-opacity:1;stroke-width:1pt;stroke-linejoin:miter;stroke-linecap:butt;fill-opacity:1;"
             d="M 462.68 332.752 L 468.641 343.234 L 436.781 357.006 L 434.931 354.128 L 462.68 332.752 z "
             id="path824"
             sodipodi:nodetypes="ccccc" />
        </g>
        <g
           id="g1019">
          <path
             style="fill:none;fill-rule:evenodd;stroke:#000000;stroke-opacity:1;stroke-width:12.5;stroke-linejoin:miter;stroke-linecap:butt;fill-opacity:1;stroke-dasharray:none;"
             d="M 366.262 409.95 L 286.614 409.66 "
             id="path855"
             transform="translate(0.290680,-0.581390)"
             sodipodi:nodetypes="cc" />
          <path
             style="fill:none;fill-rule:evenodd;stroke:#000000;stroke-opacity:1;stroke-width:12.5;stroke-linejoin:miter;stroke-linecap:butt;fill-opacity:1;stroke-dasharray:none;"
             d="M 381.491 388.041 L 334.216 387.63 "
             id="path858"
             transform="matrix(0.999962,-8.726535e-3,8.726535e-3,0.999962,-3.516176,2.774246)" />
          <path
             style="fill:#e50000;fill-rule:evenodd;stroke:#000000;stroke-opacity:1;stroke-width:12.5;stroke-linejoin:miter;stroke-linecap:butt;fill-opacity:1;stroke-dasharray:none;"
             d="M 366.263 432.768 L 286.324 432.622 "
             id="path859"
             sodipodi:nodetypes="cc"
             transform="translate(0.290680,0.145309)" />
          <g
             id="g971"
             style="font-size:12;">
            <path
               style="fill:none;fill-rule:evenodd;stroke:#000000;stroke-opacity:1;stroke-width:12.5;stroke-linejoin:miter;stroke-linecap:butt;fill-opacity:1;stroke-dasharray:none;"
               d="M 479.629 382.626 C 462.478 384.177 452.886 380.204 438.933 371.29 C 421.008 389.506 402.501 384.758 389.517 368.383 L 334.214 368.092 C 313.987 366.227 332.073 386.26 338.938 387.423 C 319.153 387.556 308.077 387.931 292.138 388.149 C 277.7 390.087 280.412 407.183 289.957 409.121 C 274.606 408.812 269.221 412.083 267.719 419.544 C 268.979 436.5 283.901 431.655 289.521 432.915 C 273.63 442.217 287.681 456.75 293.301 454.425 L 310.16 454.425 C 310.063 469.346 315.78 476.129 326.147 474.772 L 429.34 475.064 C 452.208 468.475 448.041 459.27 478.757 460.239 "
               id="path852"
               sodipodi:nodetypes="cccccccccccccc" />
            <g
               id="g861"
               style="font-size:12;">
              <path
                 style="fill:none;fill-rule:evenodd;stroke:#000000;stroke-opacity:1;stroke-width:12.5;stroke-linejoin:miter;stroke-linecap:butt;fill-opacity:1;stroke-dasharray:none;"
                 d="M 528.541 373.243 L 484.143 373.484 L 483.852 495.577 L 528.42 495.867 "
                 id="path851"
                 sodipodi:nodetypes="cccc" />
              <path
                 style="fill:#000000;fill-rule:evenodd;stroke:#000000;stroke-opacity:1;stroke-width:12.5;stroke-linejoin:miter;stroke-linecap:butt;fill-opacity:1;stroke-dasharray:none;"
                 d="M 380.876 454.636 L 312.429 454.635 "
                 id="path860"
                 transform="translate(-0.616646,-0.205566)"
                 sodipodi:nodetypes="cc" />
            </g>
          </g>
        </g>
      </g>
      <g
         id="g1205">
        <g
           id="g769"
           transform="translate(0.000000,-3.051758e-5)"
           style="font-size:12;">
          <g
             id="g743">
            <path
               style="font-size:12;fill:none;fill-rule:evenodd;stroke:#000000;stroke-width:12.5;stroke-opacity:1;"
               d="M 419.446 120.161 L 413.779 19.7327 M 413.633 19.4424 C 414.749 31.1177 404.962 44.5621 392.414 45.9187 L 185.742 58.0772 C 148.97 74.1142 173.29 110.81 189.762 109.066 L 391.831 97.7795 C 410.677 96.6651 419.059 115.098 419.301 119.361 "
               id="path726"
               sodipodi:nodetypes="cccccccs" />
            <path
               style="font-size:12;fill:#000000;fill-rule:evenodd;stroke:#000000;stroke-width:1pt;fill-opacity:1;stroke-opacity:1;"
               d="M 166.489 85.4905 L 416.429 84.6684 L 417.251 99.0564 L 185.81 107.278 L 166.489 85.4905 z "
               id="path731"
               sodipodi:nodetypes="ccccc" />
          </g>
          <g
             id="g766">
            <path
               style="font-size:12;fill:none;fill-rule:evenodd;stroke:#000000;stroke-width:12.5;stroke-opacity:1;"
               d="M 419.446 120.161 L 413.779 19.7327 M 413.633 19.4424 C 414.749 31.1177 404.962 44.5621 392.414 45.9187 L 185.742 58.0772 C 148.97 74.1142 173.29 110.81 189.762 109.066 L 391.831 97.7795 C 410.677 96.6651 419.059 115.098 419.301 119.361 "
               id="path737"
               sodipodi:nodetypes="cccccccs"
               transform="matrix(-1.000000,0.000000,0.000000,1.000000,495.0852,116.7480)" />
            <path
               style="font-size:12;fill:#000000;fill-rule:evenodd;stroke:#000000;stroke-width:1pt;fill-opacity:1;stroke-opacity:1;"
               d="M 166.489 85.4905 L 416.429 84.6684 L 417.251 99.0564 L 185.81 107.278 L 166.489 85.4905 z "
               id="path738"
               sodipodi:nodetypes="ccccc"
               transform="matrix(-1.000000,0.000000,0.000000,1.000000,495.0852,116.7480)" />
          </g>
        </g>
        <g
           id="g1200">
          <path
             style="fill:#000000;fill-rule:evenodd;stroke:#000000;stroke-opacity:1;stroke-width:1pt;stroke-linejoin:miter;stroke-linecap:butt;fill-opacity:1;"
             d="M 424.027 99.0089 C 425.263 108.069 427.14 112.696 432.603 117.831 L 412.45 120.745 C 413.397 112.9 409.72 113.174 424.027 99.0089 z "
             id="path730"
             sodipodi:nodetypes="cccc" />
          <g
             id="g1176"
             style="font-size:12;">
            <path
               sodipodi:type="arc"
               style="fill-rule:evenodd;stroke:none;fill:#000000;fill-opacity:1;stroke-opacity:1;stroke-width:1pt;stroke-linejoin:miter;stroke-linecap:butt;"
               id="path727"
               d="M 439.068481 135.565033 A 11.917786 15.260582 0 1 0 415.232910,135.565033 A 11.9178 15.2606 0 1 0 439.068 135.565 L 427.150696 135.565033 z"
               sodipodi:cx="427.150696"
               sodipodi:cy="135.565033"
               sodipodi:rx="11.917786"
               sodipodi:ry="15.260582"
               transform="matrix(1.439023,0.000000,0.000000,1.328572,-191.4538,-46.06891)" />
            <path
               sodipodi:type="arc"
               style="fill-rule:evenodd;stroke:none;fill:#ff6600;fill-opacity:1;stroke-opacity:1;stroke-width:1pt;stroke-linejoin:miter;stroke-linecap:butt;"
               id="path728"
               d="M 424.389954 132.220764 A 2.906784 5.377541 0 1 0 418.576355,132.220764 A 2.90678 5.37754 0 1 0 424.39 132.221 L 421.483154 132.220764 z"
               sodipodi:cx="421.483154"
               sodipodi:cy="132.220764"
               sodipodi:rx="2.906784"
               sodipodi:ry="5.377541"
               transform="matrix(1.199995,0.000000,0.000000,1.135137,-85.02115,-17.86784)" />
          </g>
        </g>
      </g>
    </g>
  </g>
</svg>
